%TF.GenerationSoftware,KiCad,Pcbnew,8.0.4*%
%TF.CreationDate,2024-09-19T17:04:51-03:00*%
%TF.ProjectId,placa de potencia,706c6163-6120-4646-9520-706f74656e63,rev?*%
%TF.SameCoordinates,Original*%
%TF.FileFunction,Copper,L1,Top*%
%TF.FilePolarity,Positive*%
%FSLAX46Y46*%
G04 Gerber Fmt 4.6, Leading zero omitted, Abs format (unit mm)*
G04 Created by KiCad (PCBNEW 8.0.4) date 2024-09-19 17:04:51*
%MOMM*%
%LPD*%
G01*
G04 APERTURE LIST*
%TA.AperFunction,ComponentPad*%
%ADD10R,3.200000X3.200000*%
%TD*%
%TA.AperFunction,ComponentPad*%
%ADD11O,3.200000X3.200000*%
%TD*%
%TA.AperFunction,ComponentPad*%
%ADD12R,1.508000X1.508000*%
%TD*%
%TA.AperFunction,ComponentPad*%
%ADD13C,1.508000*%
%TD*%
%TA.AperFunction,ComponentPad*%
%ADD14C,6.000000*%
%TD*%
%TA.AperFunction,ComponentPad*%
%ADD15R,6.000000X6.000000*%
%TD*%
%TA.AperFunction,ComponentPad*%
%ADD16C,5.000000*%
%TD*%
G04 APERTURE END LIST*
D10*
%TO.P,D1,1,K*%
%TO.N,Net-(D1-K)*%
X114300000Y-78867000D03*
D11*
%TO.P,D1,2,A*%
%TO.N,Net-(D1-A)*%
X114300000Y-63627000D03*
%TD*%
D12*
%TO.P,J11,1,1*%
%TO.N,GND*%
X177769000Y-74042000D03*
D13*
%TO.P,J11,2,2*%
%TO.N,Net-(D2-K)*%
X180269000Y-74042000D03*
%TO.P,J11,3,3*%
%TO.N,Net-(J10-Pad3)*%
X182769000Y-74042000D03*
%TO.P,J11,4,4*%
%TO.N,Net-(J10-Pad4)*%
X185269000Y-74042000D03*
%TD*%
D14*
%TO.P,,1*%
%TO.N,N/C*%
X187280000Y-47947000D03*
%TD*%
%TO.P,,1*%
%TO.N,N/C*%
X187280000Y-138747000D03*
%TD*%
D12*
%TO.P,J8,1,1*%
%TO.N,GND*%
X100959000Y-95502000D03*
D13*
%TO.P,J8,2,2*%
%TO.N,Net-(D2-K)*%
X98459000Y-95502000D03*
%TO.P,J8,3,3*%
%TO.N,Net-(J10-Pad3)*%
X95959000Y-95502000D03*
%TO.P,J8,4,4*%
%TO.N,Net-(J10-Pad4)*%
X93459000Y-95502000D03*
%TD*%
D14*
%TO.P,J2,N,NEG*%
%TO.N,GND*%
X138982000Y-51816000D03*
D15*
%TO.P,J2,P,POS*%
%TO.N,Net-(D5-A)*%
X131782000Y-51816000D03*
%TD*%
D12*
%TO.P,J3,1,1*%
%TO.N,GND*%
X100979000Y-62162000D03*
D13*
%TO.P,J3,2,2*%
%TO.N,Net-(D2-K)*%
X98479000Y-62162000D03*
%TO.P,J3,3,3*%
%TO.N,Net-(J10-Pad3)*%
X95979000Y-62162000D03*
%TO.P,J3,4,4*%
%TO.N,Net-(J10-Pad4)*%
X93479000Y-62162000D03*
%TD*%
D12*
%TO.P,J6,1,1*%
%TO.N,GND*%
X101029000Y-79522000D03*
D13*
%TO.P,J6,2,2*%
%TO.N,Net-(D2-K)*%
X98529000Y-79522000D03*
%TO.P,J6,3,3*%
%TO.N,Net-(J10-Pad3)*%
X96029000Y-79522000D03*
%TO.P,J6,4,4*%
%TO.N,Net-(J10-Pad4)*%
X93529000Y-79522000D03*
%TD*%
D14*
%TO.P,,1*%
%TO.N,N/C*%
X92280000Y-138747000D03*
%TD*%
D12*
%TO.P,J7,1,1*%
%TO.N,GND*%
X100889000Y-87582000D03*
D13*
%TO.P,J7,2,2*%
%TO.N,Net-(D2-K)*%
X98389000Y-87582000D03*
%TO.P,J7,3,3*%
%TO.N,Net-(J10-Pad3)*%
X95889000Y-87582000D03*
%TO.P,J7,4,4*%
%TO.N,Net-(J10-Pad4)*%
X93389000Y-87582000D03*
%TD*%
D12*
%TO.P,J13,1,1*%
%TO.N,GND*%
X177801500Y-56722000D03*
D13*
%TO.P,J13,2,2*%
%TO.N,Net-(D2-K)*%
X180301500Y-56722000D03*
%TO.P,J13,3,3*%
%TO.N,Net-(J10-Pad3)*%
X182801500Y-56722000D03*
%TO.P,J13,4,4*%
%TO.N,Net-(J10-Pad4)*%
X185301500Y-56722000D03*
%TD*%
D14*
%TO.P,J1,N,NEG*%
%TO.N,GND*%
X121482000Y-51816000D03*
D15*
%TO.P,J1,P,POS*%
%TO.N,Net-(D1-A)*%
X114282000Y-51816000D03*
%TD*%
D10*
%TO.P,D2,1,K*%
%TO.N,Net-(D2-K)*%
X154305000Y-104902000D03*
D11*
%TO.P,D2,2,A*%
%TO.N,Net-(D2-A)*%
X154305000Y-89662000D03*
%TD*%
D12*
%TO.P,J10,1,1*%
%TO.N,GND*%
X177739000Y-82062000D03*
D13*
%TO.P,J10,2,2*%
%TO.N,Net-(D2-K)*%
X180239000Y-82062000D03*
%TO.P,J10,3,3*%
%TO.N,Net-(J10-Pad3)*%
X182739000Y-82062000D03*
%TO.P,J10,4,4*%
%TO.N,Net-(J10-Pad4)*%
X185239000Y-82062000D03*
%TD*%
D10*
%TO.P,D3,1,K*%
%TO.N,Net-(D2-K)*%
X163957000Y-104902000D03*
D11*
%TO.P,D3,2,A*%
%TO.N,GND*%
X163957000Y-89662000D03*
%TD*%
D16*
%TO.P,H3,1,1*%
%TO.N,Net-(D1-K)*%
X154305000Y-76835000D03*
%TD*%
%TO.P,H1,1,1*%
%TO.N,Net-(D2-A)*%
X154432000Y-84963000D03*
%TD*%
D12*
%TO.P,J12,1,1*%
%TO.N,GND*%
X177911500Y-65872000D03*
D13*
%TO.P,J12,2,2*%
%TO.N,Net-(D2-K)*%
X180411500Y-65872000D03*
%TO.P,J12,3,3*%
%TO.N,Net-(J10-Pad3)*%
X182911500Y-65872000D03*
%TO.P,J12,4,4*%
%TO.N,Net-(J10-Pad4)*%
X185411500Y-65872000D03*
%TD*%
D14*
%TO.P,J4,N,NEG*%
%TO.N,GND*%
X165525000Y-52197000D03*
D15*
%TO.P,J4,P,POS*%
%TO.N,Net-(D1-K)*%
X158325000Y-52197000D03*
%TD*%
D12*
%TO.P,J5,1,1*%
%TO.N,GND*%
X101032000Y-71264000D03*
D13*
%TO.P,J5,2,2*%
%TO.N,Net-(D2-K)*%
X98532000Y-71264000D03*
%TO.P,J5,3,3*%
%TO.N,Net-(J10-Pad3)*%
X96032000Y-71264000D03*
%TO.P,J5,4,4*%
%TO.N,Net-(J10-Pad4)*%
X93532000Y-71264000D03*
%TD*%
D12*
%TO.P,J9,1,1*%
%TO.N,GND*%
X177739000Y-90112000D03*
D13*
%TO.P,J9,2,2*%
%TO.N,Net-(D2-K)*%
X180239000Y-90112000D03*
%TO.P,J9,3,3*%
%TO.N,Net-(J10-Pad3)*%
X182739000Y-90112000D03*
%TO.P,J9,4,4*%
%TO.N,Net-(J10-Pad4)*%
X185239000Y-90112000D03*
%TD*%
D10*
%TO.P,D5,1,K*%
%TO.N,Net-(D1-K)*%
X131826000Y-78994000D03*
D11*
%TO.P,D5,2,A*%
%TO.N,Net-(D5-A)*%
X131826000Y-63754000D03*
%TD*%
D14*
%TO.P,,1*%
%TO.N,N/C*%
X92280000Y-47947000D03*
%TD*%
M02*
