%TF.GenerationSoftware,KiCad,Pcbnew,8.0.4*%
%TF.CreationDate,2024-09-19T17:04:51-03:00*%
%TF.ProjectId,placa de potencia,706c6163-6120-4646-9520-706f74656e63,rev?*%
%TF.SameCoordinates,Original*%
%TF.FileFunction,Copper,L2,Bot*%
%TF.FilePolarity,Positive*%
%FSLAX46Y46*%
G04 Gerber Fmt 4.6, Leading zero omitted, Abs format (unit mm)*
G04 Created by KiCad (PCBNEW 8.0.4) date 2024-09-19 17:04:51*
%MOMM*%
%LPD*%
G01*
G04 APERTURE LIST*
%TA.AperFunction,ComponentPad*%
%ADD10R,3.200000X3.200000*%
%TD*%
%TA.AperFunction,ComponentPad*%
%ADD11O,3.200000X3.200000*%
%TD*%
%TA.AperFunction,ComponentPad*%
%ADD12R,1.508000X1.508000*%
%TD*%
%TA.AperFunction,ComponentPad*%
%ADD13C,1.508000*%
%TD*%
%TA.AperFunction,ComponentPad*%
%ADD14C,6.000000*%
%TD*%
%TA.AperFunction,ComponentPad*%
%ADD15R,6.000000X6.000000*%
%TD*%
%TA.AperFunction,ComponentPad*%
%ADD16C,5.000000*%
%TD*%
%TA.AperFunction,Conductor*%
%ADD17C,0.250000*%
%TD*%
%TA.AperFunction,Conductor*%
%ADD18C,5.080000*%
%TD*%
%TA.AperFunction,Conductor*%
%ADD19C,2.000000*%
%TD*%
%TA.AperFunction,Conductor*%
%ADD20C,4.000000*%
%TD*%
%TA.AperFunction,Conductor*%
%ADD21C,1.000000*%
%TD*%
G04 APERTURE END LIST*
D10*
%TO.P,D1,1,K*%
%TO.N,Net-(D1-K)*%
X114300000Y-78867000D03*
D11*
%TO.P,D1,2,A*%
%TO.N,Net-(D1-A)*%
X114300000Y-63627000D03*
%TD*%
D12*
%TO.P,J11,1,1*%
%TO.N,GND*%
X177769000Y-74042000D03*
D13*
%TO.P,J11,2,2*%
%TO.N,Net-(D2-K)*%
X180269000Y-74042000D03*
%TO.P,J11,3,3*%
%TO.N,Net-(J10-Pad3)*%
X182769000Y-74042000D03*
%TO.P,J11,4,4*%
%TO.N,Net-(J10-Pad4)*%
X185269000Y-74042000D03*
%TD*%
D14*
%TO.P,,1*%
%TO.N,N/C*%
X187280000Y-47947000D03*
%TD*%
%TO.P,,1*%
%TO.N,N/C*%
X187280000Y-138747000D03*
%TD*%
D12*
%TO.P,J8,1,1*%
%TO.N,GND*%
X100959000Y-95502000D03*
D13*
%TO.P,J8,2,2*%
%TO.N,Net-(D2-K)*%
X98459000Y-95502000D03*
%TO.P,J8,3,3*%
%TO.N,Net-(J10-Pad3)*%
X95959000Y-95502000D03*
%TO.P,J8,4,4*%
%TO.N,Net-(J10-Pad4)*%
X93459000Y-95502000D03*
%TD*%
D14*
%TO.P,J2,N,NEG*%
%TO.N,GND*%
X138982000Y-51816000D03*
D15*
%TO.P,J2,P,POS*%
%TO.N,Net-(D5-A)*%
X131782000Y-51816000D03*
%TD*%
D12*
%TO.P,J3,1,1*%
%TO.N,GND*%
X100979000Y-62162000D03*
D13*
%TO.P,J3,2,2*%
%TO.N,Net-(D2-K)*%
X98479000Y-62162000D03*
%TO.P,J3,3,3*%
%TO.N,Net-(J10-Pad3)*%
X95979000Y-62162000D03*
%TO.P,J3,4,4*%
%TO.N,Net-(J10-Pad4)*%
X93479000Y-62162000D03*
%TD*%
D12*
%TO.P,J6,1,1*%
%TO.N,GND*%
X101029000Y-79522000D03*
D13*
%TO.P,J6,2,2*%
%TO.N,Net-(D2-K)*%
X98529000Y-79522000D03*
%TO.P,J6,3,3*%
%TO.N,Net-(J10-Pad3)*%
X96029000Y-79522000D03*
%TO.P,J6,4,4*%
%TO.N,Net-(J10-Pad4)*%
X93529000Y-79522000D03*
%TD*%
D14*
%TO.P,,1*%
%TO.N,N/C*%
X92280000Y-138747000D03*
%TD*%
D12*
%TO.P,J7,1,1*%
%TO.N,GND*%
X100889000Y-87582000D03*
D13*
%TO.P,J7,2,2*%
%TO.N,Net-(D2-K)*%
X98389000Y-87582000D03*
%TO.P,J7,3,3*%
%TO.N,Net-(J10-Pad3)*%
X95889000Y-87582000D03*
%TO.P,J7,4,4*%
%TO.N,Net-(J10-Pad4)*%
X93389000Y-87582000D03*
%TD*%
D12*
%TO.P,J13,1,1*%
%TO.N,GND*%
X177801500Y-56722000D03*
D13*
%TO.P,J13,2,2*%
%TO.N,Net-(D2-K)*%
X180301500Y-56722000D03*
%TO.P,J13,3,3*%
%TO.N,Net-(J10-Pad3)*%
X182801500Y-56722000D03*
%TO.P,J13,4,4*%
%TO.N,Net-(J10-Pad4)*%
X185301500Y-56722000D03*
%TD*%
D14*
%TO.P,J1,N,NEG*%
%TO.N,GND*%
X121482000Y-51816000D03*
D15*
%TO.P,J1,P,POS*%
%TO.N,Net-(D1-A)*%
X114282000Y-51816000D03*
%TD*%
D10*
%TO.P,D2,1,K*%
%TO.N,Net-(D2-K)*%
X154305000Y-104902000D03*
D11*
%TO.P,D2,2,A*%
%TO.N,Net-(D2-A)*%
X154305000Y-89662000D03*
%TD*%
D12*
%TO.P,J10,1,1*%
%TO.N,GND*%
X177739000Y-82062000D03*
D13*
%TO.P,J10,2,2*%
%TO.N,Net-(D2-K)*%
X180239000Y-82062000D03*
%TO.P,J10,3,3*%
%TO.N,Net-(J10-Pad3)*%
X182739000Y-82062000D03*
%TO.P,J10,4,4*%
%TO.N,Net-(J10-Pad4)*%
X185239000Y-82062000D03*
%TD*%
D10*
%TO.P,D3,1,K*%
%TO.N,Net-(D2-K)*%
X163957000Y-104902000D03*
D11*
%TO.P,D3,2,A*%
%TO.N,GND*%
X163957000Y-89662000D03*
%TD*%
D16*
%TO.P,H3,1,1*%
%TO.N,Net-(D1-K)*%
X154305000Y-76835000D03*
%TD*%
%TO.P,H1,1,1*%
%TO.N,Net-(D2-A)*%
X154432000Y-84963000D03*
%TD*%
D12*
%TO.P,J12,1,1*%
%TO.N,GND*%
X177911500Y-65872000D03*
D13*
%TO.P,J12,2,2*%
%TO.N,Net-(D2-K)*%
X180411500Y-65872000D03*
%TO.P,J12,3,3*%
%TO.N,Net-(J10-Pad3)*%
X182911500Y-65872000D03*
%TO.P,J12,4,4*%
%TO.N,Net-(J10-Pad4)*%
X185411500Y-65872000D03*
%TD*%
D14*
%TO.P,J4,N,NEG*%
%TO.N,GND*%
X165525000Y-52197000D03*
D15*
%TO.P,J4,P,POS*%
%TO.N,Net-(D1-K)*%
X158325000Y-52197000D03*
%TD*%
D12*
%TO.P,J5,1,1*%
%TO.N,GND*%
X101032000Y-71264000D03*
D13*
%TO.P,J5,2,2*%
%TO.N,Net-(D2-K)*%
X98532000Y-71264000D03*
%TO.P,J5,3,3*%
%TO.N,Net-(J10-Pad3)*%
X96032000Y-71264000D03*
%TO.P,J5,4,4*%
%TO.N,Net-(J10-Pad4)*%
X93532000Y-71264000D03*
%TD*%
D12*
%TO.P,J9,1,1*%
%TO.N,GND*%
X177739000Y-90112000D03*
D13*
%TO.P,J9,2,2*%
%TO.N,Net-(D2-K)*%
X180239000Y-90112000D03*
%TO.P,J9,3,3*%
%TO.N,Net-(J10-Pad3)*%
X182739000Y-90112000D03*
%TO.P,J9,4,4*%
%TO.N,Net-(J10-Pad4)*%
X185239000Y-90112000D03*
%TD*%
D10*
%TO.P,D5,1,K*%
%TO.N,Net-(D1-K)*%
X131826000Y-78994000D03*
D11*
%TO.P,D5,2,A*%
%TO.N,Net-(D5-A)*%
X131826000Y-63754000D03*
%TD*%
D14*
%TO.P,,1*%
%TO.N,N/C*%
X92280000Y-47947000D03*
%TD*%
D17*
%TO.N,Net-(D1-K)*%
X131699000Y-78867000D02*
X131826000Y-78994000D01*
D18*
X158623000Y-72517000D02*
X158623000Y-52495000D01*
D17*
X158623000Y-52495000D02*
X158325000Y-52197000D01*
D18*
X132080000Y-78740000D02*
X152400000Y-78740000D01*
X111506000Y-78740000D02*
X131572000Y-78740000D01*
X152400000Y-78740000D02*
X158623000Y-72517000D01*
D17*
%TO.N,Net-(D1-A)*%
X114282000Y-63210000D02*
X114326000Y-63254000D01*
D18*
X114282000Y-51816000D02*
X114282000Y-63210000D01*
D19*
%TO.N,Net-(D2-K)*%
X180301500Y-96174500D02*
X180301500Y-98184500D01*
D20*
X99659000Y-99897000D02*
X99659000Y-99697000D01*
X179089000Y-98267000D02*
X179099000Y-98267000D01*
X105009000Y-105247000D02*
X99659000Y-99897000D01*
X172109000Y-105247000D02*
X179089000Y-98267000D01*
D18*
X170739000Y-105247000D02*
X171229000Y-105247000D01*
D19*
X98479000Y-62162000D02*
X98479000Y-100347000D01*
X180301500Y-56722000D02*
X180301500Y-96174500D01*
D20*
X171689000Y-105247000D02*
X172109000Y-105247000D01*
D17*
X180179000Y-56844500D02*
X180301500Y-56722000D01*
D18*
X105899000Y-105247000D02*
X170739000Y-105247000D01*
D17*
%TO.N,Net-(D5-A)*%
X131782000Y-63710000D02*
X131826000Y-63754000D01*
D18*
X131782000Y-51816000D02*
X131782000Y-63710000D01*
D19*
%TO.N,Net-(J10-Pad3)*%
X105749000Y-112427000D02*
X170910000Y-112427000D01*
X170910000Y-112427000D02*
X182719000Y-100618000D01*
D17*
X182719000Y-56804500D02*
X182801500Y-56722000D01*
D19*
X95979000Y-62162000D02*
X95979000Y-102657000D01*
X95979000Y-102657000D02*
X105749000Y-112427000D01*
X182719000Y-100618000D02*
X182719000Y-56804500D01*
%TO.N,Net-(J10-Pad4)*%
X185301500Y-56722000D02*
X185301500Y-102607500D01*
X185301500Y-102607500D02*
X170802000Y-117107000D01*
D17*
X93479000Y-62162000D02*
X93459000Y-62182000D01*
D19*
X170802000Y-117107000D02*
X105689000Y-117107000D01*
D17*
X93459000Y-62182000D02*
X93459000Y-95502000D01*
X93599000Y-62282000D02*
X93479000Y-62162000D01*
D19*
X93599000Y-105017000D02*
X93599000Y-62282000D01*
X105689000Y-117107000D02*
X93599000Y-105017000D01*
D17*
%TO.N,Net-(D2-A)*%
X153670000Y-90297000D02*
X153797000Y-90424000D01*
D21*
X153797000Y-89916000D02*
X154432000Y-89281000D01*
D18*
X154432000Y-89281000D02*
X154432000Y-84963000D01*
%TD*%
%TA.AperFunction,Conductor*%
%TO.N,GND*%
G36*
X182811731Y-43835189D02*
G01*
X182975151Y-43894669D01*
X183120448Y-43990233D01*
X183239790Y-44116728D01*
X183326744Y-44267336D01*
X183376621Y-44433938D01*
X183388000Y-44564000D01*
X183388000Y-51943000D01*
X183515000Y-52070000D01*
X189370000Y-52070000D01*
X189542731Y-52090189D01*
X189706151Y-52149669D01*
X189851448Y-52245233D01*
X189970790Y-52371728D01*
X190057744Y-52522336D01*
X190107621Y-52688938D01*
X190119000Y-52819000D01*
X190119000Y-109364792D01*
X190098811Y-109537523D01*
X190039331Y-109700943D01*
X189943767Y-109846240D01*
X189817272Y-109965582D01*
X189666664Y-110052536D01*
X189500062Y-110102413D01*
X189374808Y-110113777D01*
X184462167Y-110145312D01*
X184279457Y-110146485D01*
X184274651Y-110146500D01*
X183372681Y-110146500D01*
X183346006Y-110148408D01*
X183345971Y-110147919D01*
X183279269Y-110152905D01*
X181991000Y-110161175D01*
X181739669Y-139012580D01*
X181717975Y-139185129D01*
X181657074Y-139348024D01*
X181560249Y-139492484D01*
X181520320Y-139535679D01*
X180305377Y-140750623D01*
X180168962Y-140858486D01*
X180011348Y-140931983D01*
X179841034Y-140967150D01*
X179775754Y-140970000D01*
X97650000Y-140970000D01*
X97477269Y-140949811D01*
X97313849Y-140890331D01*
X97168552Y-140794767D01*
X97049210Y-140668272D01*
X96962256Y-140517664D01*
X96912379Y-140351062D01*
X96901000Y-140221000D01*
X96901000Y-132842000D01*
X96774000Y-132715000D01*
X90411000Y-132715000D01*
X90238269Y-132694811D01*
X90074849Y-132635331D01*
X89929552Y-132539767D01*
X89810210Y-132413272D01*
X89723256Y-132262664D01*
X89673379Y-132096062D01*
X89662000Y-131966000D01*
X89662000Y-62163908D01*
X92098500Y-62163908D01*
X92098500Y-104898908D01*
X92098500Y-105135092D01*
X92135447Y-105368368D01*
X92208432Y-105592992D01*
X92315657Y-105803434D01*
X92315659Y-105803437D01*
X92315661Y-105803440D01*
X92454480Y-105994507D01*
X104711492Y-118251519D01*
X104902559Y-118390338D01*
X104902566Y-118390343D01*
X105113008Y-118497568D01*
X105337632Y-118570553D01*
X105570908Y-118607500D01*
X105570910Y-118607500D01*
X170920090Y-118607500D01*
X170920092Y-118607500D01*
X171153368Y-118570553D01*
X171377992Y-118497568D01*
X171588434Y-118390343D01*
X171779510Y-118251517D01*
X186446018Y-103585010D01*
X186584843Y-103393933D01*
X186692068Y-103183492D01*
X186765053Y-102958868D01*
X186796015Y-102763380D01*
X186802000Y-102725592D01*
X186802000Y-56603908D01*
X186765053Y-56370632D01*
X186692068Y-56146008D01*
X186616070Y-55996853D01*
X186584844Y-55935568D01*
X186446019Y-55744492D01*
X186279007Y-55577480D01*
X186087931Y-55438655D01*
X185877497Y-55331434D01*
X185877494Y-55331433D01*
X185877492Y-55331432D01*
X185652868Y-55258447D01*
X185419592Y-55221500D01*
X185183408Y-55221500D01*
X185035848Y-55244871D01*
X184950131Y-55258447D01*
X184842017Y-55293575D01*
X184725508Y-55331432D01*
X184725506Y-55331432D01*
X184725506Y-55331433D01*
X184725502Y-55331434D01*
X184515071Y-55438654D01*
X184393723Y-55526818D01*
X184242113Y-55612012D01*
X184074942Y-55659947D01*
X183901223Y-55668037D01*
X183730321Y-55635847D01*
X183571449Y-55565112D01*
X183513230Y-55526821D01*
X183505432Y-55521156D01*
X183294997Y-55413934D01*
X183294994Y-55413933D01*
X183294992Y-55413932D01*
X183070368Y-55340947D01*
X182837092Y-55304000D01*
X182600908Y-55304000D01*
X182445390Y-55328631D01*
X182367631Y-55340947D01*
X182143008Y-55413932D01*
X181911805Y-55531735D01*
X181748734Y-55592163D01*
X181576123Y-55613356D01*
X181403277Y-55594171D01*
X181239515Y-55535643D01*
X181131519Y-55470323D01*
X181087934Y-55438656D01*
X180877497Y-55331434D01*
X180877494Y-55331433D01*
X180877492Y-55331432D01*
X180652868Y-55258447D01*
X180419592Y-55221500D01*
X180183408Y-55221500D01*
X180035848Y-55244871D01*
X179950131Y-55258447D01*
X179842017Y-55293575D01*
X179725508Y-55331432D01*
X179725506Y-55331432D01*
X179725506Y-55331433D01*
X179725502Y-55331434D01*
X179515068Y-55438655D01*
X179323992Y-55577480D01*
X179152850Y-55748623D01*
X179016434Y-55856486D01*
X178858821Y-55929983D01*
X178688507Y-55965150D01*
X178623227Y-55968000D01*
X178551500Y-55968000D01*
X178551500Y-57476000D01*
X178581623Y-57506123D01*
X178689486Y-57642539D01*
X178762983Y-57800152D01*
X178798150Y-57970466D01*
X178801000Y-58035746D01*
X178801000Y-64668254D01*
X178780811Y-64840985D01*
X178721331Y-65004405D01*
X178661500Y-65095372D01*
X178661500Y-66647144D01*
X178689486Y-66682539D01*
X178762983Y-66840152D01*
X178798150Y-67010466D01*
X178801000Y-67075746D01*
X178801000Y-72695754D01*
X178780811Y-72868485D01*
X178721331Y-73031905D01*
X178625767Y-73177202D01*
X178581623Y-73225377D01*
X178519000Y-73288000D01*
X178519000Y-74796000D01*
X178581623Y-74858623D01*
X178689486Y-74995039D01*
X178762983Y-75152652D01*
X178798150Y-75322966D01*
X178801000Y-75388246D01*
X178801000Y-80685754D01*
X178780811Y-80858485D01*
X178721331Y-81021905D01*
X178625767Y-81167202D01*
X178581623Y-81215377D01*
X178489000Y-81308000D01*
X178489000Y-82816000D01*
X178581623Y-82908623D01*
X178689486Y-83045039D01*
X178762983Y-83202652D01*
X178798150Y-83372966D01*
X178801000Y-83438246D01*
X178801000Y-88735754D01*
X178780811Y-88908485D01*
X178721331Y-89071905D01*
X178625767Y-89217202D01*
X178581623Y-89265377D01*
X178489000Y-89358000D01*
X178489000Y-90866000D01*
X178581623Y-90958623D01*
X178689486Y-91095039D01*
X178762983Y-91252652D01*
X178798150Y-91422966D01*
X178801000Y-91488246D01*
X178801000Y-95187169D01*
X178780811Y-95359900D01*
X178721331Y-95523320D01*
X178625767Y-95668617D01*
X178499272Y-95787959D01*
X178348664Y-95874913D01*
X178299382Y-95894136D01*
X178259436Y-95908114D01*
X178130588Y-95953200D01*
X177916275Y-96056408D01*
X177877557Y-96075053D01*
X177877548Y-96075058D01*
X177639760Y-96224471D01*
X177639753Y-96224476D01*
X177639752Y-96224477D01*
X177565004Y-96284086D01*
X177420172Y-96399586D01*
X171832635Y-101987123D01*
X171696219Y-102094986D01*
X171538606Y-102168483D01*
X171368292Y-102203650D01*
X171303012Y-102206500D01*
X105814987Y-102206500D01*
X105642256Y-102186311D01*
X105478836Y-102126831D01*
X105333539Y-102031267D01*
X105285364Y-101987123D01*
X102003306Y-98705065D01*
X101895443Y-98568649D01*
X101858110Y-98500433D01*
X101850945Y-98485555D01*
X101701523Y-98247752D01*
X101526416Y-98028175D01*
X101327825Y-97829584D01*
X101108248Y-97654477D01*
X101108239Y-97654471D01*
X101108236Y-97654469D01*
X101083929Y-97639196D01*
X100979506Y-97555210D01*
X100940759Y-97542371D01*
X100889314Y-97514356D01*
X100888837Y-97515220D01*
X100870436Y-97505050D01*
X100617407Y-97383198D01*
X100604970Y-97378846D01*
X100448601Y-97302736D01*
X100313999Y-97192618D01*
X100208421Y-97054426D01*
X100137558Y-96895611D01*
X100105230Y-96724735D01*
X100113180Y-96551010D01*
X100160980Y-96383801D01*
X100209000Y-96298184D01*
X100209000Y-96256000D01*
X101709000Y-96256000D01*
X101713000Y-96256000D01*
X101713000Y-96252000D01*
X101709000Y-96252000D01*
X101709000Y-96256000D01*
X100209000Y-96256000D01*
X100209000Y-95436174D01*
X100459000Y-95436174D01*
X100459000Y-95567826D01*
X100493075Y-95694993D01*
X100558901Y-95809007D01*
X100651993Y-95902099D01*
X100766007Y-95967925D01*
X100893174Y-96002000D01*
X101024826Y-96002000D01*
X101151993Y-95967925D01*
X101266007Y-95902099D01*
X101359099Y-95809007D01*
X101424925Y-95694993D01*
X101459000Y-95567826D01*
X101459000Y-95436174D01*
X101424925Y-95309007D01*
X101359099Y-95194993D01*
X101266007Y-95101901D01*
X101151993Y-95036075D01*
X101024826Y-95002000D01*
X100893174Y-95002000D01*
X100766007Y-95036075D01*
X100651993Y-95101901D01*
X100558901Y-95194993D01*
X100493075Y-95309007D01*
X100459000Y-95436174D01*
X100209000Y-95436174D01*
X100209000Y-94752000D01*
X101709000Y-94752000D01*
X101713000Y-94752000D01*
X101713000Y-94748000D01*
X101709000Y-94748000D01*
X101709000Y-94752000D01*
X100209000Y-94752000D01*
X100209000Y-94748000D01*
X100198877Y-94737877D01*
X100091014Y-94601461D01*
X100017517Y-94443848D01*
X99982350Y-94273534D01*
X99979500Y-94208254D01*
X99979500Y-88805746D01*
X99999689Y-88633015D01*
X100059169Y-88469595D01*
X100139000Y-88348218D01*
X100139000Y-88336000D01*
X101639000Y-88336000D01*
X101643000Y-88336000D01*
X101643000Y-88332000D01*
X101639000Y-88332000D01*
X101639000Y-88336000D01*
X100139000Y-88336000D01*
X100139000Y-87516174D01*
X100389000Y-87516174D01*
X100389000Y-87647826D01*
X100423075Y-87774993D01*
X100488901Y-87889007D01*
X100581993Y-87982099D01*
X100696007Y-88047925D01*
X100823174Y-88082000D01*
X100954826Y-88082000D01*
X101081993Y-88047925D01*
X101196007Y-87982099D01*
X101289099Y-87889007D01*
X101354925Y-87774993D01*
X101389000Y-87647826D01*
X101389000Y-87516174D01*
X101354925Y-87389007D01*
X101289099Y-87274993D01*
X101196007Y-87181901D01*
X101081993Y-87116075D01*
X100954826Y-87082000D01*
X100823174Y-87082000D01*
X100696007Y-87116075D01*
X100581993Y-87181901D01*
X100488901Y-87274993D01*
X100423075Y-87389007D01*
X100389000Y-87516174D01*
X100139000Y-87516174D01*
X100139000Y-86832000D01*
X101639000Y-86832000D01*
X101643000Y-86832000D01*
X101643000Y-86828000D01*
X101639000Y-86828000D01*
X101639000Y-86832000D01*
X100139000Y-86832000D01*
X100139000Y-86812149D01*
X100091014Y-86751461D01*
X100017517Y-86593848D01*
X99982350Y-86423534D01*
X99979500Y-86358254D01*
X99979500Y-80885746D01*
X99999689Y-80713015D01*
X100059169Y-80549595D01*
X100154733Y-80404298D01*
X100198877Y-80356123D01*
X100279000Y-80276000D01*
X101779000Y-80276000D01*
X101783000Y-80276000D01*
X101783000Y-80272000D01*
X101779000Y-80272000D01*
X101779000Y-80276000D01*
X100279000Y-80276000D01*
X100279000Y-79456174D01*
X100529000Y-79456174D01*
X100529000Y-79587826D01*
X100563075Y-79714993D01*
X100628901Y-79829007D01*
X100721993Y-79922099D01*
X100836007Y-79987925D01*
X100963174Y-80022000D01*
X101094826Y-80022000D01*
X101221993Y-79987925D01*
X101336007Y-79922099D01*
X101429099Y-79829007D01*
X101494925Y-79714993D01*
X101529000Y-79587826D01*
X101529000Y-79456174D01*
X101494925Y-79329007D01*
X101429099Y-79214993D01*
X101336007Y-79121901D01*
X101221993Y-79056075D01*
X101094826Y-79022000D01*
X100963174Y-79022000D01*
X100836007Y-79056075D01*
X100721993Y-79121901D01*
X100628901Y-79214993D01*
X100563075Y-79329007D01*
X100529000Y-79456174D01*
X100279000Y-79456174D01*
X100279000Y-78772000D01*
X101779000Y-78772000D01*
X101783000Y-78772000D01*
X101783000Y-78768000D01*
X101779000Y-78768000D01*
X101779000Y-78772000D01*
X100279000Y-78772000D01*
X100279000Y-78768000D01*
X100198877Y-78687877D01*
X100105079Y-78569249D01*
X108465500Y-78569249D01*
X108465500Y-78910751D01*
X108478035Y-79022000D01*
X108503735Y-79250105D01*
X108579724Y-79583036D01*
X108692519Y-79905385D01*
X108840685Y-80213056D01*
X108840694Y-80213073D01*
X109022374Y-80502213D01*
X109022380Y-80502222D01*
X109235303Y-80769219D01*
X109476781Y-81010697D01*
X109743778Y-81223620D01*
X109743786Y-81223625D01*
X110032926Y-81405305D01*
X110032932Y-81405308D01*
X110032935Y-81405310D01*
X110340618Y-81553482D01*
X110662955Y-81666273D01*
X110662961Y-81666274D01*
X110662963Y-81666275D01*
X110662962Y-81666275D01*
X110995894Y-81742264D01*
X111044374Y-81747726D01*
X111335249Y-81780500D01*
X111335255Y-81780500D01*
X131742754Y-81780500D01*
X131763727Y-81779322D01*
X131763797Y-81780569D01*
X131888203Y-81780569D01*
X131888273Y-81779322D01*
X131909246Y-81780500D01*
X151525700Y-81780500D01*
X151698431Y-81800689D01*
X151861851Y-81860169D01*
X152007148Y-81955733D01*
X152126490Y-82082228D01*
X152213444Y-82232836D01*
X152263321Y-82399438D01*
X152273433Y-82573050D01*
X152243234Y-82744316D01*
X152174353Y-82904000D01*
X152111295Y-82996488D01*
X152072578Y-83045039D01*
X151948382Y-83200775D01*
X151948374Y-83200786D01*
X151766694Y-83489926D01*
X151766685Y-83489943D01*
X151618519Y-83797614D01*
X151505724Y-84119963D01*
X151429735Y-84452894D01*
X151405950Y-84663994D01*
X151391500Y-84792249D01*
X151391500Y-89451751D01*
X151406312Y-89583207D01*
X151429735Y-89791105D01*
X151505724Y-90124036D01*
X151618519Y-90446385D01*
X151766685Y-90754056D01*
X151766694Y-90754073D01*
X151948374Y-91043213D01*
X151948380Y-91043222D01*
X152161303Y-91310219D01*
X152402781Y-91551697D01*
X152669778Y-91764620D01*
X152669786Y-91764625D01*
X152958926Y-91946305D01*
X152958932Y-91946308D01*
X152958935Y-91946310D01*
X153266618Y-92094482D01*
X153588955Y-92207273D01*
X153588961Y-92207274D01*
X153588963Y-92207275D01*
X153588962Y-92207275D01*
X153921894Y-92283264D01*
X153970374Y-92288726D01*
X154261249Y-92321500D01*
X154261255Y-92321500D01*
X154602745Y-92321500D01*
X154602751Y-92321500D01*
X154942105Y-92283264D01*
X155275045Y-92207273D01*
X155597382Y-92094482D01*
X155905065Y-91946310D01*
X156194222Y-91764620D01*
X156461219Y-91551697D01*
X156702697Y-91310219D01*
X156915620Y-91043222D01*
X157097310Y-90754065D01*
X157245482Y-90446382D01*
X157257513Y-90412000D01*
X162540076Y-90412000D01*
X162658570Y-90605365D01*
X162658573Y-90605369D01*
X162822126Y-90796866D01*
X162822133Y-90796873D01*
X163013630Y-90960426D01*
X163013634Y-90960429D01*
X163207000Y-91078923D01*
X164707000Y-91078923D01*
X164900365Y-90960429D01*
X164900369Y-90960426D01*
X165010928Y-90866000D01*
X176985000Y-90866000D01*
X176989000Y-90866000D01*
X176989000Y-90862000D01*
X176985000Y-90862000D01*
X176985000Y-90866000D01*
X165010928Y-90866000D01*
X165091866Y-90796873D01*
X165091873Y-90796866D01*
X165255426Y-90605369D01*
X165255429Y-90605365D01*
X165373924Y-90412000D01*
X164707000Y-90412000D01*
X164707000Y-91078923D01*
X163207000Y-91078923D01*
X163207000Y-90412000D01*
X162540076Y-90412000D01*
X157257513Y-90412000D01*
X157358273Y-90124045D01*
X157434264Y-89791105D01*
X157457688Y-89583207D01*
X163157000Y-89583207D01*
X163157000Y-89740793D01*
X163187743Y-89895351D01*
X163248049Y-90040942D01*
X163335599Y-90171970D01*
X163447030Y-90283401D01*
X163578058Y-90370951D01*
X163723649Y-90431257D01*
X163878207Y-90462000D01*
X164035793Y-90462000D01*
X164190351Y-90431257D01*
X164335942Y-90370951D01*
X164466970Y-90283401D01*
X164578401Y-90171970D01*
X164662455Y-90046174D01*
X177239000Y-90046174D01*
X177239000Y-90177826D01*
X177273075Y-90304993D01*
X177338901Y-90419007D01*
X177431993Y-90512099D01*
X177546007Y-90577925D01*
X177673174Y-90612000D01*
X177804826Y-90612000D01*
X177931993Y-90577925D01*
X178046007Y-90512099D01*
X178139099Y-90419007D01*
X178204925Y-90304993D01*
X178239000Y-90177826D01*
X178239000Y-90046174D01*
X178204925Y-89919007D01*
X178139099Y-89804993D01*
X178046007Y-89711901D01*
X177931993Y-89646075D01*
X177804826Y-89612000D01*
X177673174Y-89612000D01*
X177546007Y-89646075D01*
X177431993Y-89711901D01*
X177338901Y-89804993D01*
X177273075Y-89919007D01*
X177239000Y-90046174D01*
X164662455Y-90046174D01*
X164665951Y-90040942D01*
X164726257Y-89895351D01*
X164757000Y-89740793D01*
X164757000Y-89583207D01*
X164726257Y-89428649D01*
X164698650Y-89362000D01*
X176985000Y-89362000D01*
X176989000Y-89362000D01*
X176989000Y-89358000D01*
X176985000Y-89358000D01*
X176985000Y-89362000D01*
X164698650Y-89362000D01*
X164665951Y-89283058D01*
X164578401Y-89152030D01*
X164466970Y-89040599D01*
X164335942Y-88953049D01*
X164236841Y-88912000D01*
X164707000Y-88912000D01*
X165373923Y-88912000D01*
X165255429Y-88718634D01*
X165255426Y-88718630D01*
X165091873Y-88527133D01*
X165091864Y-88527124D01*
X164900370Y-88363573D01*
X164707000Y-88245075D01*
X164707000Y-88912000D01*
X164236841Y-88912000D01*
X164190351Y-88892743D01*
X164035793Y-88862000D01*
X163878207Y-88862000D01*
X163723649Y-88892743D01*
X163578058Y-88953049D01*
X163447030Y-89040599D01*
X163335599Y-89152030D01*
X163248049Y-89283058D01*
X163187743Y-89428649D01*
X163157000Y-89583207D01*
X157457688Y-89583207D01*
X157472500Y-89451751D01*
X157472500Y-88912000D01*
X162540076Y-88912000D01*
X163207000Y-88912000D01*
X163207000Y-88245075D01*
X163206999Y-88245075D01*
X163013629Y-88363573D01*
X162822135Y-88527124D01*
X162822126Y-88527133D01*
X162658573Y-88718630D01*
X162658570Y-88718634D01*
X162540076Y-88912000D01*
X157472500Y-88912000D01*
X157472500Y-84792249D01*
X157434264Y-84452895D01*
X157358273Y-84119955D01*
X157245482Y-83797618D01*
X157097310Y-83489935D01*
X157097308Y-83489932D01*
X157097305Y-83489926D01*
X156922752Y-83212129D01*
X156915620Y-83200778D01*
X156702697Y-82933781D01*
X156584916Y-82816000D01*
X176985000Y-82816000D01*
X176989000Y-82816000D01*
X176989000Y-82812000D01*
X176985000Y-82812000D01*
X176985000Y-82816000D01*
X156584916Y-82816000D01*
X156461219Y-82692303D01*
X156194222Y-82479380D01*
X156194215Y-82479375D01*
X156194213Y-82479374D01*
X155905073Y-82297694D01*
X155905056Y-82297685D01*
X155597385Y-82149519D01*
X155275036Y-82036724D01*
X155275033Y-82036723D01*
X155097372Y-81996174D01*
X177239000Y-81996174D01*
X177239000Y-82127826D01*
X177273075Y-82254993D01*
X177338901Y-82369007D01*
X177431993Y-82462099D01*
X177546007Y-82527925D01*
X177673174Y-82562000D01*
X177804826Y-82562000D01*
X177931993Y-82527925D01*
X178046007Y-82462099D01*
X178139099Y-82369007D01*
X178204925Y-82254993D01*
X178239000Y-82127826D01*
X178239000Y-81996174D01*
X178204925Y-81869007D01*
X178139099Y-81754993D01*
X178046007Y-81661901D01*
X177931993Y-81596075D01*
X177804826Y-81562000D01*
X177673174Y-81562000D01*
X177546007Y-81596075D01*
X177431993Y-81661901D01*
X177338901Y-81754993D01*
X177273075Y-81869007D01*
X177239000Y-81996174D01*
X155097372Y-81996174D01*
X155072271Y-81990445D01*
X154908362Y-81932326D01*
X154762276Y-81837974D01*
X154641886Y-81712475D01*
X154553683Y-81562595D01*
X154502423Y-81396414D01*
X154496802Y-81312000D01*
X176985000Y-81312000D01*
X176989000Y-81312000D01*
X176989000Y-81308000D01*
X176985000Y-81308000D01*
X176985000Y-81312000D01*
X154496802Y-81312000D01*
X154490868Y-81222891D01*
X154519642Y-81051381D01*
X154587193Y-80891129D01*
X154689880Y-80750776D01*
X154709287Y-80730628D01*
X160643916Y-74796000D01*
X177015000Y-74796000D01*
X177019000Y-74796000D01*
X177019000Y-74792000D01*
X177015000Y-74792000D01*
X177015000Y-74796000D01*
X160643916Y-74796000D01*
X160893697Y-74546219D01*
X161106620Y-74279223D01*
X161288310Y-73990065D01*
X161295000Y-73976174D01*
X177269000Y-73976174D01*
X177269000Y-74107826D01*
X177303075Y-74234993D01*
X177368901Y-74349007D01*
X177461993Y-74442099D01*
X177576007Y-74507925D01*
X177703174Y-74542000D01*
X177834826Y-74542000D01*
X177961993Y-74507925D01*
X178076007Y-74442099D01*
X178169099Y-74349007D01*
X178234925Y-74234993D01*
X178269000Y-74107826D01*
X178269000Y-73976174D01*
X178234925Y-73849007D01*
X178169099Y-73734993D01*
X178076007Y-73641901D01*
X177961993Y-73576075D01*
X177834826Y-73542000D01*
X177703174Y-73542000D01*
X177576007Y-73576075D01*
X177461993Y-73641901D01*
X177368901Y-73734993D01*
X177303075Y-73849007D01*
X177269000Y-73976174D01*
X161295000Y-73976174D01*
X161436482Y-73682383D01*
X161549273Y-73360045D01*
X161564804Y-73292000D01*
X177015000Y-73292000D01*
X177019000Y-73292000D01*
X177019000Y-73288000D01*
X177015000Y-73288000D01*
X177015000Y-73292000D01*
X161564804Y-73292000D01*
X161625264Y-73027105D01*
X161663500Y-72687751D01*
X161663500Y-72346249D01*
X161663500Y-66626000D01*
X177157500Y-66626000D01*
X177161500Y-66626000D01*
X177161500Y-66622000D01*
X177157500Y-66622000D01*
X177157500Y-66626000D01*
X161663500Y-66626000D01*
X161663500Y-65806174D01*
X177411500Y-65806174D01*
X177411500Y-65937826D01*
X177445575Y-66064993D01*
X177511401Y-66179007D01*
X177604493Y-66272099D01*
X177718507Y-66337925D01*
X177845674Y-66372000D01*
X177977326Y-66372000D01*
X178104493Y-66337925D01*
X178218507Y-66272099D01*
X178311599Y-66179007D01*
X178377425Y-66064993D01*
X178411500Y-65937826D01*
X178411500Y-65806174D01*
X178377425Y-65679007D01*
X178311599Y-65564993D01*
X178218507Y-65471901D01*
X178104493Y-65406075D01*
X177977326Y-65372000D01*
X177845674Y-65372000D01*
X177718507Y-65406075D01*
X177604493Y-65471901D01*
X177511401Y-65564993D01*
X177445575Y-65679007D01*
X177411500Y-65806174D01*
X161663500Y-65806174D01*
X161663500Y-65122000D01*
X177157500Y-65122000D01*
X177161500Y-65122000D01*
X177161500Y-65118000D01*
X177157500Y-65118000D01*
X177157500Y-65122000D01*
X161663500Y-65122000D01*
X161663500Y-57476000D01*
X177047500Y-57476000D01*
X177051500Y-57476000D01*
X177051500Y-57472000D01*
X177047500Y-57472000D01*
X177047500Y-57476000D01*
X161663500Y-57476000D01*
X161663500Y-56656174D01*
X177301500Y-56656174D01*
X177301500Y-56787826D01*
X177335575Y-56914993D01*
X177401401Y-57029007D01*
X177494493Y-57122099D01*
X177608507Y-57187925D01*
X177735674Y-57222000D01*
X177867326Y-57222000D01*
X177994493Y-57187925D01*
X178108507Y-57122099D01*
X178201599Y-57029007D01*
X178267425Y-56914993D01*
X178301500Y-56787826D01*
X178301500Y-56656174D01*
X178267425Y-56529007D01*
X178201599Y-56414993D01*
X178108507Y-56321901D01*
X177994493Y-56256075D01*
X177867326Y-56222000D01*
X177735674Y-56222000D01*
X177608507Y-56256075D01*
X177494493Y-56321901D01*
X177401401Y-56414993D01*
X177335575Y-56529007D01*
X177301500Y-56656174D01*
X161663500Y-56656174D01*
X161663500Y-55972000D01*
X177047500Y-55972000D01*
X177051500Y-55972000D01*
X177051500Y-55968000D01*
X177047500Y-55968000D01*
X177047500Y-55972000D01*
X161663500Y-55972000D01*
X161663500Y-55823336D01*
X161683689Y-55650605D01*
X161743169Y-55487185D01*
X161755118Y-55464379D01*
X161768792Y-55439335D01*
X161768796Y-55439331D01*
X161819091Y-55304483D01*
X161819105Y-55304358D01*
X161825499Y-55244883D01*
X161825499Y-55244882D01*
X161825500Y-55244873D01*
X161825499Y-54427975D01*
X161845688Y-54255252D01*
X161905168Y-54091832D01*
X162000731Y-53946535D01*
X162127226Y-53827192D01*
X162277834Y-53740238D01*
X162444436Y-53690361D01*
X162618049Y-53680249D01*
X162672263Y-53685390D01*
X162940619Y-53720719D01*
X163473129Y-53188208D01*
X163480237Y-53205366D01*
X163629348Y-53463634D01*
X163810895Y-53700230D01*
X164021770Y-53911105D01*
X164258366Y-54092652D01*
X164516634Y-54241763D01*
X164533789Y-54248869D01*
X163998764Y-54783894D01*
X164022454Y-54799476D01*
X164022470Y-54799485D01*
X164334739Y-54956314D01*
X164663132Y-55075838D01*
X165003171Y-55156429D01*
X165350264Y-55197000D01*
X165699736Y-55197000D01*
X166046828Y-55156429D01*
X166386867Y-55075838D01*
X166386868Y-55075838D01*
X166715256Y-54956315D01*
X167027547Y-54799475D01*
X167051235Y-54783895D01*
X166516209Y-54248869D01*
X166533366Y-54241763D01*
X166791634Y-54092652D01*
X167028230Y-53911105D01*
X167239105Y-53700230D01*
X167420652Y-53463634D01*
X167569763Y-53205366D01*
X167576869Y-53188209D01*
X168109380Y-53720720D01*
X168210442Y-53545677D01*
X168210443Y-53545675D01*
X168348852Y-53224806D01*
X168449083Y-52890013D01*
X168449084Y-52890007D01*
X168509764Y-52545868D01*
X168509765Y-52545863D01*
X168530083Y-52197000D01*
X168509765Y-51848136D01*
X168509764Y-51848131D01*
X168449084Y-51503992D01*
X168449083Y-51503986D01*
X168348853Y-51169196D01*
X168210443Y-50848326D01*
X168109379Y-50673279D01*
X167576868Y-51205789D01*
X167569763Y-51188634D01*
X167420652Y-50930366D01*
X167239105Y-50693770D01*
X167028230Y-50482895D01*
X166791634Y-50301348D01*
X166533366Y-50152237D01*
X166516208Y-50145129D01*
X167051234Y-49610104D01*
X167027540Y-49594520D01*
X167027533Y-49594516D01*
X166715260Y-49437685D01*
X166386867Y-49318161D01*
X166046828Y-49237570D01*
X165699736Y-49197000D01*
X165350264Y-49197000D01*
X165003171Y-49237570D01*
X164663132Y-49318161D01*
X164663131Y-49318161D01*
X164334743Y-49437684D01*
X164022453Y-49594523D01*
X164022453Y-49594524D01*
X163998764Y-49610103D01*
X163998764Y-49610104D01*
X164533790Y-50145130D01*
X164516634Y-50152237D01*
X164258366Y-50301348D01*
X164021770Y-50482895D01*
X163810895Y-50693770D01*
X163629348Y-50930366D01*
X163480237Y-51188634D01*
X163473130Y-51205790D01*
X162940618Y-50673278D01*
X162672264Y-50708608D01*
X162498375Y-50711138D01*
X162328590Y-50673497D01*
X162172062Y-50597716D01*
X162037230Y-50487881D01*
X161931362Y-50349911D01*
X161860165Y-50191245D01*
X161827479Y-50020437D01*
X161825499Y-49966016D01*
X161825499Y-49149128D01*
X161825498Y-49149116D01*
X161819091Y-49089517D01*
X161768796Y-48954669D01*
X161682546Y-48839454D01*
X161567331Y-48753204D01*
X161484450Y-48722291D01*
X161432482Y-48702908D01*
X161432477Y-48702907D01*
X161372878Y-48696500D01*
X155277128Y-48696500D01*
X155217519Y-48702908D01*
X155082668Y-48753204D01*
X154998784Y-48816000D01*
X154967454Y-48839454D01*
X154881204Y-48954669D01*
X154861821Y-49006636D01*
X154830908Y-49089517D01*
X154830907Y-49089522D01*
X154824500Y-49149116D01*
X154824500Y-55244871D01*
X154830908Y-55304480D01*
X154830908Y-55304482D01*
X154830909Y-55304483D01*
X154881204Y-55439331D01*
X154967454Y-55554546D01*
X155082669Y-55640796D01*
X155095248Y-55645487D01*
X155250025Y-55724761D01*
X155382356Y-55837598D01*
X155485098Y-55977911D01*
X155552713Y-56138135D01*
X155581554Y-56309634D01*
X155582500Y-56347262D01*
X155582500Y-70947338D01*
X155562311Y-71120069D01*
X155502831Y-71283489D01*
X155407267Y-71428786D01*
X155363123Y-71476961D01*
X151359961Y-75480123D01*
X151223545Y-75587986D01*
X151065932Y-75661483D01*
X150895618Y-75696650D01*
X150830338Y-75699500D01*
X131909245Y-75699500D01*
X131888265Y-75700678D01*
X131888195Y-75699433D01*
X131763805Y-75699433D01*
X131763735Y-75700678D01*
X131742755Y-75699500D01*
X131742751Y-75699500D01*
X111335249Y-75699500D01*
X111206994Y-75713950D01*
X110995894Y-75737735D01*
X110662963Y-75813724D01*
X110340614Y-75926519D01*
X110032943Y-76074685D01*
X110032926Y-76074694D01*
X109743786Y-76256374D01*
X109743777Y-76256381D01*
X109476778Y-76469305D01*
X109235305Y-76710778D01*
X109022381Y-76977777D01*
X109022374Y-76977786D01*
X108840694Y-77266926D01*
X108840685Y-77266943D01*
X108692519Y-77574614D01*
X108579724Y-77896963D01*
X108503735Y-78229894D01*
X108485263Y-78393848D01*
X108465500Y-78569249D01*
X100105079Y-78569249D01*
X100091014Y-78551461D01*
X100017517Y-78393848D01*
X99982350Y-78223534D01*
X99979500Y-78158254D01*
X99979500Y-72630746D01*
X99999689Y-72458015D01*
X100059169Y-72294595D01*
X100154733Y-72149298D01*
X100198877Y-72101123D01*
X100282000Y-72018000D01*
X101782000Y-72018000D01*
X101786000Y-72018000D01*
X101786000Y-72014000D01*
X101782000Y-72014000D01*
X101782000Y-72018000D01*
X100282000Y-72018000D01*
X100282000Y-71198174D01*
X100532000Y-71198174D01*
X100532000Y-71329826D01*
X100566075Y-71456993D01*
X100631901Y-71571007D01*
X100724993Y-71664099D01*
X100839007Y-71729925D01*
X100966174Y-71764000D01*
X101097826Y-71764000D01*
X101224993Y-71729925D01*
X101339007Y-71664099D01*
X101432099Y-71571007D01*
X101497925Y-71456993D01*
X101532000Y-71329826D01*
X101532000Y-71198174D01*
X101497925Y-71071007D01*
X101432099Y-70956993D01*
X101339007Y-70863901D01*
X101224993Y-70798075D01*
X101097826Y-70764000D01*
X100966174Y-70764000D01*
X100839007Y-70798075D01*
X100724993Y-70863901D01*
X100631901Y-70956993D01*
X100566075Y-71071007D01*
X100532000Y-71198174D01*
X100282000Y-71198174D01*
X100282000Y-70514000D01*
X101782000Y-70514000D01*
X101786000Y-70514000D01*
X101786000Y-70510000D01*
X101782000Y-70510000D01*
X101782000Y-70514000D01*
X100282000Y-70514000D01*
X100282000Y-70510000D01*
X100198877Y-70426877D01*
X100091014Y-70290461D01*
X100017517Y-70132848D01*
X99982350Y-69962534D01*
X99979500Y-69897254D01*
X99979500Y-63475746D01*
X99999689Y-63303015D01*
X100059169Y-63139595D01*
X100154733Y-62994298D01*
X100198877Y-62946123D01*
X100229000Y-62916000D01*
X101729000Y-62916000D01*
X101733000Y-62916000D01*
X101733000Y-62912000D01*
X101729000Y-62912000D01*
X101729000Y-62916000D01*
X100229000Y-62916000D01*
X100229000Y-62096174D01*
X100479000Y-62096174D01*
X100479000Y-62227826D01*
X100513075Y-62354993D01*
X100578901Y-62469007D01*
X100671993Y-62562099D01*
X100786007Y-62627925D01*
X100913174Y-62662000D01*
X101044826Y-62662000D01*
X101171993Y-62627925D01*
X101286007Y-62562099D01*
X101379099Y-62469007D01*
X101444925Y-62354993D01*
X101479000Y-62227826D01*
X101479000Y-62096174D01*
X101444925Y-61969007D01*
X101379099Y-61854993D01*
X101286007Y-61761901D01*
X101171993Y-61696075D01*
X101044826Y-61662000D01*
X100913174Y-61662000D01*
X100786007Y-61696075D01*
X100671993Y-61761901D01*
X100578901Y-61854993D01*
X100513075Y-61969007D01*
X100479000Y-62096174D01*
X100229000Y-62096174D01*
X100229000Y-61412000D01*
X101729000Y-61412000D01*
X101733000Y-61412000D01*
X101733000Y-61408000D01*
X101729000Y-61408000D01*
X101729000Y-61412000D01*
X100229000Y-61412000D01*
X100229000Y-61408000D01*
X100157273Y-61408000D01*
X99984542Y-61387811D01*
X99821122Y-61328331D01*
X99675825Y-61232767D01*
X99627650Y-61188623D01*
X99456507Y-61017480D01*
X99265431Y-60878655D01*
X99054997Y-60771434D01*
X99054994Y-60771433D01*
X99054992Y-60771432D01*
X98830368Y-60698447D01*
X98597092Y-60661500D01*
X98360908Y-60661500D01*
X98205390Y-60686131D01*
X98127631Y-60698447D01*
X98019517Y-60733575D01*
X97903008Y-60771432D01*
X97903006Y-60771432D01*
X97903006Y-60771433D01*
X97903002Y-60771434D01*
X97692566Y-60878656D01*
X97669244Y-60895601D01*
X97517633Y-60980795D01*
X97350462Y-61028728D01*
X97176743Y-61036817D01*
X97005842Y-61004625D01*
X96846970Y-60933889D01*
X96788756Y-60895601D01*
X96765433Y-60878656D01*
X96554997Y-60771434D01*
X96554994Y-60771433D01*
X96554992Y-60771432D01*
X96330368Y-60698447D01*
X96097092Y-60661500D01*
X95860908Y-60661500D01*
X95705390Y-60686131D01*
X95627631Y-60698447D01*
X95519517Y-60733575D01*
X95403008Y-60771432D01*
X95403006Y-60771432D01*
X95403006Y-60771433D01*
X95403002Y-60771434D01*
X95192568Y-60878655D01*
X95134097Y-60921137D01*
X94982487Y-61006331D01*
X94815316Y-61054265D01*
X94641597Y-61062355D01*
X94470695Y-61030165D01*
X94353814Y-60982545D01*
X94174998Y-60891435D01*
X94174997Y-60891434D01*
X94174992Y-60891432D01*
X93950368Y-60818447D01*
X93717092Y-60781500D01*
X93480908Y-60781500D01*
X93325390Y-60806131D01*
X93247631Y-60818447D01*
X93139517Y-60853575D01*
X93023008Y-60891432D01*
X93023006Y-60891432D01*
X93023006Y-60891433D01*
X93023002Y-60891434D01*
X92812568Y-60998655D01*
X92621492Y-61137480D01*
X92454480Y-61304492D01*
X92315655Y-61495568D01*
X92208434Y-61706002D01*
X92208432Y-61706006D01*
X92208432Y-61706008D01*
X92135447Y-61930632D01*
X92098500Y-62163908D01*
X89662000Y-62163908D01*
X89662000Y-54597000D01*
X89682189Y-54424269D01*
X89741669Y-54260849D01*
X89837233Y-54115552D01*
X89963728Y-53996210D01*
X90114336Y-53909256D01*
X90280938Y-53859379D01*
X90411000Y-53848000D01*
X96901000Y-53848000D01*
X96901000Y-48768116D01*
X110781500Y-48768116D01*
X110781500Y-54863871D01*
X110787908Y-54923480D01*
X110838204Y-55058331D01*
X110924455Y-55173547D01*
X110941359Y-55186201D01*
X111067539Y-55305877D01*
X111162718Y-55451427D01*
X111221765Y-55615003D01*
X111241500Y-55785806D01*
X111241500Y-63380751D01*
X111258359Y-63530381D01*
X111279735Y-63720105D01*
X111355724Y-64053036D01*
X111468519Y-64375385D01*
X111616685Y-64683056D01*
X111616694Y-64683073D01*
X111737531Y-64875382D01*
X111798380Y-64972222D01*
X112011303Y-65239219D01*
X112252781Y-65480697D01*
X112519778Y-65693620D01*
X112519786Y-65693625D01*
X112808926Y-65875305D01*
X112808932Y-65875308D01*
X112808935Y-65875310D01*
X113116618Y-66023482D01*
X113438955Y-66136273D01*
X113438961Y-66136274D01*
X113438963Y-66136275D01*
X113438962Y-66136275D01*
X113771894Y-66212264D01*
X113820374Y-66217726D01*
X114111249Y-66250500D01*
X114111255Y-66250500D01*
X114452745Y-66250500D01*
X114452751Y-66250500D01*
X114792105Y-66212264D01*
X115125045Y-66136273D01*
X115447382Y-66023482D01*
X115755065Y-65875310D01*
X116044222Y-65693620D01*
X116311219Y-65480697D01*
X116552697Y-65239219D01*
X116765620Y-64972222D01*
X116947310Y-64683065D01*
X117095482Y-64375382D01*
X117208273Y-64053045D01*
X117284264Y-63720105D01*
X117322500Y-63380751D01*
X117322500Y-55785806D01*
X117342689Y-55613075D01*
X117402169Y-55449655D01*
X117497733Y-55304358D01*
X117622641Y-55186201D01*
X117639546Y-55173546D01*
X117725796Y-55058331D01*
X117776091Y-54923483D01*
X117782500Y-54863873D01*
X117782499Y-54046975D01*
X117802688Y-53874252D01*
X117862168Y-53710832D01*
X117957731Y-53565535D01*
X118084226Y-53446192D01*
X118234834Y-53359238D01*
X118401436Y-53309361D01*
X118575049Y-53299249D01*
X118629263Y-53304390D01*
X118897619Y-53339719D01*
X119430129Y-52807208D01*
X119437237Y-52824366D01*
X119586348Y-53082634D01*
X119767895Y-53319230D01*
X119978770Y-53530105D01*
X120215366Y-53711652D01*
X120473634Y-53860763D01*
X120490789Y-53867869D01*
X119955764Y-54402894D01*
X119979454Y-54418476D01*
X119979470Y-54418485D01*
X120291739Y-54575314D01*
X120620132Y-54694838D01*
X120960171Y-54775429D01*
X121307264Y-54816000D01*
X121656736Y-54816000D01*
X122003828Y-54775429D01*
X122343867Y-54694838D01*
X122343868Y-54694838D01*
X122672256Y-54575315D01*
X122984547Y-54418475D01*
X123008235Y-54402895D01*
X122473209Y-53867869D01*
X122490366Y-53860763D01*
X122748634Y-53711652D01*
X122985230Y-53530105D01*
X123196105Y-53319230D01*
X123377652Y-53082634D01*
X123526763Y-52824366D01*
X123533869Y-52807209D01*
X124066380Y-53339720D01*
X124167442Y-53164677D01*
X124167443Y-53164675D01*
X124305852Y-52843806D01*
X124406083Y-52509013D01*
X124406084Y-52509007D01*
X124466764Y-52164868D01*
X124466765Y-52164863D01*
X124487083Y-51816000D01*
X124466765Y-51467136D01*
X124466764Y-51467131D01*
X124406084Y-51122992D01*
X124406083Y-51122986D01*
X124305853Y-50788196D01*
X124167443Y-50467326D01*
X124066379Y-50292279D01*
X123533868Y-50824789D01*
X123526763Y-50807634D01*
X123377652Y-50549366D01*
X123196105Y-50312770D01*
X122985230Y-50101895D01*
X122748634Y-49920348D01*
X122490366Y-49771237D01*
X122473208Y-49764129D01*
X123008234Y-49229104D01*
X122984540Y-49213520D01*
X122984533Y-49213516D01*
X122672260Y-49056685D01*
X122343867Y-48937161D01*
X122003828Y-48856570D01*
X121656736Y-48816000D01*
X121307264Y-48816000D01*
X120960171Y-48856570D01*
X120620132Y-48937161D01*
X120620131Y-48937161D01*
X120291743Y-49056684D01*
X119979453Y-49213523D01*
X119979453Y-49213524D01*
X119955764Y-49229103D01*
X119955764Y-49229104D01*
X120490790Y-49764130D01*
X120473634Y-49771237D01*
X120215366Y-49920348D01*
X119978770Y-50101895D01*
X119767895Y-50312770D01*
X119586348Y-50549366D01*
X119437237Y-50807634D01*
X119430130Y-50824790D01*
X118897618Y-50292278D01*
X118629264Y-50327608D01*
X118455375Y-50330138D01*
X118285590Y-50292497D01*
X118129062Y-50216716D01*
X117994230Y-50106881D01*
X117888362Y-49968911D01*
X117817165Y-49810245D01*
X117784479Y-49639437D01*
X117782499Y-49585016D01*
X117782499Y-48768128D01*
X117782498Y-48768116D01*
X128281500Y-48768116D01*
X128281500Y-54863871D01*
X128287908Y-54923480D01*
X128338204Y-55058331D01*
X128424455Y-55173547D01*
X128441359Y-55186201D01*
X128567539Y-55305877D01*
X128662718Y-55451427D01*
X128721765Y-55615003D01*
X128741500Y-55785806D01*
X128741500Y-63880751D01*
X128758359Y-64030381D01*
X128779735Y-64220105D01*
X128855724Y-64553036D01*
X128968519Y-64875385D01*
X129116685Y-65183056D01*
X129116694Y-65183073D01*
X129298178Y-65471901D01*
X129298380Y-65472222D01*
X129511303Y-65739219D01*
X129752781Y-65980697D01*
X130019778Y-66193620D01*
X130019786Y-66193625D01*
X130308926Y-66375305D01*
X130308932Y-66375308D01*
X130308935Y-66375310D01*
X130616618Y-66523482D01*
X130938955Y-66636273D01*
X130938961Y-66636274D01*
X130938963Y-66636275D01*
X130938962Y-66636275D01*
X131271894Y-66712264D01*
X131320374Y-66717726D01*
X131611249Y-66750500D01*
X131611255Y-66750500D01*
X131952745Y-66750500D01*
X131952751Y-66750500D01*
X132292105Y-66712264D01*
X132625045Y-66636273D01*
X132947382Y-66523482D01*
X133255065Y-66375310D01*
X133544222Y-66193620D01*
X133811219Y-65980697D01*
X134052697Y-65739219D01*
X134265620Y-65472222D01*
X134447310Y-65183065D01*
X134595482Y-64875382D01*
X134708273Y-64553045D01*
X134784264Y-64220105D01*
X134822500Y-63880751D01*
X134822500Y-55785806D01*
X134842689Y-55613075D01*
X134902169Y-55449655D01*
X134997733Y-55304358D01*
X135122641Y-55186201D01*
X135139546Y-55173546D01*
X135225796Y-55058331D01*
X135276091Y-54923483D01*
X135282500Y-54863873D01*
X135282499Y-54046975D01*
X135302688Y-53874252D01*
X135362168Y-53710832D01*
X135457731Y-53565535D01*
X135584226Y-53446192D01*
X135734834Y-53359238D01*
X135901436Y-53309361D01*
X136075049Y-53299249D01*
X136129263Y-53304390D01*
X136397619Y-53339719D01*
X136930129Y-52807208D01*
X136937237Y-52824366D01*
X137086348Y-53082634D01*
X137267895Y-53319230D01*
X137478770Y-53530105D01*
X137715366Y-53711652D01*
X137973634Y-53860763D01*
X137990789Y-53867869D01*
X137455764Y-54402894D01*
X137479454Y-54418476D01*
X137479470Y-54418485D01*
X137791739Y-54575314D01*
X138120132Y-54694838D01*
X138460171Y-54775429D01*
X138807264Y-54816000D01*
X139156736Y-54816000D01*
X139503828Y-54775429D01*
X139843867Y-54694838D01*
X139843868Y-54694838D01*
X140172256Y-54575315D01*
X140484547Y-54418475D01*
X140508235Y-54402895D01*
X139973209Y-53867869D01*
X139990366Y-53860763D01*
X140248634Y-53711652D01*
X140485230Y-53530105D01*
X140696105Y-53319230D01*
X140877652Y-53082634D01*
X141026763Y-52824366D01*
X141033869Y-52807209D01*
X141566380Y-53339720D01*
X141667442Y-53164677D01*
X141667443Y-53164675D01*
X141805852Y-52843806D01*
X141906083Y-52509013D01*
X141906084Y-52509007D01*
X141966764Y-52164868D01*
X141966765Y-52164863D01*
X141987083Y-51816000D01*
X141966765Y-51467136D01*
X141966764Y-51467131D01*
X141906084Y-51122992D01*
X141906083Y-51122986D01*
X141805853Y-50788196D01*
X141667443Y-50467326D01*
X141566379Y-50292279D01*
X141033868Y-50824789D01*
X141026763Y-50807634D01*
X140877652Y-50549366D01*
X140696105Y-50312770D01*
X140485230Y-50101895D01*
X140248634Y-49920348D01*
X139990366Y-49771237D01*
X139973208Y-49764129D01*
X140508234Y-49229104D01*
X140484540Y-49213520D01*
X140484533Y-49213516D01*
X140172260Y-49056685D01*
X139843867Y-48937161D01*
X139503828Y-48856570D01*
X139156736Y-48816000D01*
X138807264Y-48816000D01*
X138460171Y-48856570D01*
X138120132Y-48937161D01*
X138120131Y-48937161D01*
X137791743Y-49056684D01*
X137479453Y-49213523D01*
X137479453Y-49213524D01*
X137455764Y-49229103D01*
X137455764Y-49229104D01*
X137990790Y-49764130D01*
X137973634Y-49771237D01*
X137715366Y-49920348D01*
X137478770Y-50101895D01*
X137267895Y-50312770D01*
X137086348Y-50549366D01*
X136937237Y-50807634D01*
X136930130Y-50824790D01*
X136397618Y-50292278D01*
X136129264Y-50327608D01*
X135955375Y-50330138D01*
X135785590Y-50292497D01*
X135629062Y-50216716D01*
X135494230Y-50106881D01*
X135388362Y-49968911D01*
X135317165Y-49810245D01*
X135284479Y-49639437D01*
X135282499Y-49585016D01*
X135282499Y-48768128D01*
X135280895Y-48753204D01*
X135276091Y-48708517D01*
X135225796Y-48573669D01*
X135139546Y-48458454D01*
X135024331Y-48372204D01*
X134941450Y-48341291D01*
X134889482Y-48321908D01*
X134889477Y-48321907D01*
X134829878Y-48315500D01*
X128734128Y-48315500D01*
X128674519Y-48321908D01*
X128539668Y-48372204D01*
X128424454Y-48458454D01*
X128338204Y-48573669D01*
X128318821Y-48625636D01*
X128287908Y-48708517D01*
X128287907Y-48708522D01*
X128281500Y-48768116D01*
X117782498Y-48768116D01*
X117780895Y-48753204D01*
X117776091Y-48708517D01*
X117725796Y-48573669D01*
X117639546Y-48458454D01*
X117524331Y-48372204D01*
X117441450Y-48341291D01*
X117389482Y-48321908D01*
X117389477Y-48321907D01*
X117329878Y-48315500D01*
X111234128Y-48315500D01*
X111174519Y-48321908D01*
X111039668Y-48372204D01*
X110924454Y-48458454D01*
X110838204Y-48573669D01*
X110818821Y-48625636D01*
X110787908Y-48708517D01*
X110787907Y-48708522D01*
X110781500Y-48768116D01*
X96901000Y-48768116D01*
X96901000Y-44564000D01*
X96921189Y-44391269D01*
X96980669Y-44227849D01*
X97076233Y-44082552D01*
X97202728Y-43963210D01*
X97353336Y-43876256D01*
X97519938Y-43826379D01*
X97650000Y-43815000D01*
X182639000Y-43815000D01*
X182811731Y-43835189D01*
G37*
%TD.AperFunction*%
%TD*%
M02*
