%TF.GenerationSoftware,KiCad,Pcbnew,8.0.4*%
%TF.CreationDate,2024-09-19T17:04:51-03:00*%
%TF.ProjectId,placa de potencia,706c6163-6120-4646-9520-706f74656e63,rev?*%
%TF.SameCoordinates,Original*%
%TF.FileFunction,Soldermask,Top*%
%TF.FilePolarity,Negative*%
%FSLAX46Y46*%
G04 Gerber Fmt 4.6, Leading zero omitted, Abs format (unit mm)*
G04 Created by KiCad (PCBNEW 8.0.4) date 2024-09-19 17:04:51*
%MOMM*%
%LPD*%
G01*
G04 APERTURE LIST*
G04 Aperture macros list*
%AMRoundRect*
0 Rectangle with rounded corners*
0 $1 Rounding radius*
0 $2 $3 $4 $5 $6 $7 $8 $9 X,Y pos of 4 corners*
0 Add a 4 corners polygon primitive as box body*
4,1,4,$2,$3,$4,$5,$6,$7,$8,$9,$2,$3,0*
0 Add four circle primitives for the rounded corners*
1,1,$1+$1,$2,$3*
1,1,$1+$1,$4,$5*
1,1,$1+$1,$6,$7*
1,1,$1+$1,$8,$9*
0 Add four rect primitives between the rounded corners*
20,1,$1+$1,$2,$3,$4,$5,0*
20,1,$1+$1,$4,$5,$6,$7,0*
20,1,$1+$1,$6,$7,$8,$9,0*
20,1,$1+$1,$8,$9,$2,$3,0*%
G04 Aperture macros list end*
%ADD10R,3.200000X3.200000*%
%ADD11O,3.200000X3.200000*%
%ADD12RoundRect,0.102000X0.754000X0.754000X-0.754000X0.754000X-0.754000X-0.754000X0.754000X-0.754000X0*%
%ADD13C,1.712000*%
%ADD14C,6.000000*%
%ADD15RoundRect,0.102000X-0.754000X-0.754000X0.754000X-0.754000X0.754000X0.754000X-0.754000X0.754000X0*%
%ADD16C,6.204000*%
%ADD17RoundRect,0.102000X-3.000000X-3.000000X3.000000X-3.000000X3.000000X3.000000X-3.000000X3.000000X0*%
%ADD18C,5.000000*%
G04 APERTURE END LIST*
D10*
%TO.C,D1*%
X114300000Y-78867000D03*
D11*
X114300000Y-63627000D03*
%TD*%
D12*
%TO.C,J11*%
X177769000Y-74042000D03*
D13*
X180269000Y-74042000D03*
X182769000Y-74042000D03*
X185269000Y-74042000D03*
%TD*%
D14*
%TO.C,*%
X187280000Y-47947000D03*
%TD*%
%TO.C,*%
X187280000Y-138747000D03*
%TD*%
D15*
%TO.C,J8*%
X100959000Y-95502000D03*
D13*
X98459000Y-95502000D03*
X95959000Y-95502000D03*
X93459000Y-95502000D03*
%TD*%
D16*
%TO.C,J2*%
X138982000Y-51816000D03*
D17*
X131782000Y-51816000D03*
%TD*%
D15*
%TO.C,J3*%
X100979000Y-62162000D03*
D13*
X98479000Y-62162000D03*
X95979000Y-62162000D03*
X93479000Y-62162000D03*
%TD*%
D15*
%TO.C,J6*%
X101029000Y-79522000D03*
D13*
X98529000Y-79522000D03*
X96029000Y-79522000D03*
X93529000Y-79522000D03*
%TD*%
D14*
%TO.C,*%
X92280000Y-138747000D03*
%TD*%
D15*
%TO.C,J7*%
X100889000Y-87582000D03*
D13*
X98389000Y-87582000D03*
X95889000Y-87582000D03*
X93389000Y-87582000D03*
%TD*%
D12*
%TO.C,J13*%
X177801500Y-56722000D03*
D13*
X180301500Y-56722000D03*
X182801500Y-56722000D03*
X185301500Y-56722000D03*
%TD*%
D16*
%TO.C,J1*%
X121482000Y-51816000D03*
D17*
X114282000Y-51816000D03*
%TD*%
D10*
%TO.C,D2*%
X154305000Y-104902000D03*
D11*
X154305000Y-89662000D03*
%TD*%
D12*
%TO.C,J10*%
X177739000Y-82062000D03*
D13*
X180239000Y-82062000D03*
X182739000Y-82062000D03*
X185239000Y-82062000D03*
%TD*%
D10*
%TO.C,D3*%
X163957000Y-104902000D03*
D11*
X163957000Y-89662000D03*
%TD*%
D18*
%TO.C,H3*%
X154305000Y-76835000D03*
%TD*%
%TO.C,H1*%
X154432000Y-84963000D03*
%TD*%
D12*
%TO.C,J12*%
X177911500Y-65872000D03*
D13*
X180411500Y-65872000D03*
X182911500Y-65872000D03*
X185411500Y-65872000D03*
%TD*%
D16*
%TO.C,J4*%
X165525000Y-52197000D03*
D17*
X158325000Y-52197000D03*
%TD*%
D15*
%TO.C,J5*%
X101032000Y-71264000D03*
D13*
X98532000Y-71264000D03*
X96032000Y-71264000D03*
X93532000Y-71264000D03*
%TD*%
D12*
%TO.C,J9*%
X177739000Y-90112000D03*
D13*
X180239000Y-90112000D03*
X182739000Y-90112000D03*
X185239000Y-90112000D03*
%TD*%
D10*
%TO.C,D5*%
X131826000Y-78994000D03*
D11*
X131826000Y-63754000D03*
%TD*%
D14*
%TO.C,*%
X92280000Y-47947000D03*
%TD*%
M02*
