M48
; DRILL file {KiCad 8.0.4} date 2024-09-19T17:04:54-0300
; FORMAT={-:-/ absolute / inch / decimal}
; #@! TF.CreationDate,2024-09-19T17:04:54-03:00
; #@! TF.GenerationSoftware,Kicad,Pcbnew,8.0.4
; #@! TF.FileFunction,Plated,1,2,PTH
FMAT,2
INCH
; #@! TA.AperFunction,Plated,PTH,ComponentDrill
T1C0.0394
; #@! TA.AperFunction,Plated,PTH,ComponentDrill
T2C0.0630
; #@! TA.AperFunction,Plated,PTH,ComponentDrill
T3C0.0984
; #@! TA.AperFunction,Plated,PTH,ComponentDrill
T4C0.1181
; #@! TA.AperFunction,Plated,PTH,ComponentDrill
T5C0.1791
%
G90
G05
T1
X3.6767Y-3.4481
X3.6795Y-3.7599
X3.6803Y-2.4473
X3.6822Y-3.1308
X3.6824Y-2.8057
X3.7752Y-3.4481
X3.7779Y-3.7599
X3.7787Y-2.4473
X3.7807Y-3.1308
X3.7808Y-2.8057
X3.8736Y-3.4481
X3.8763Y-3.7599
X3.8771Y-2.4473
X3.8791Y-3.1308
X3.8792Y-2.8057
X3.972Y-3.4481
X3.9748Y-3.7599
X3.9756Y-2.4473
X3.9775Y-3.1308
X3.9776Y-2.8057
X6.9976Y-3.2308
X6.9976Y-3.5477
X6.9988Y-2.915
X7.0001Y-2.2331
X7.0044Y-2.5934
X7.096Y-3.2308
X7.096Y-3.5477
X7.0972Y-2.915
X7.0985Y-2.2331
X7.1028Y-2.5934
X7.1944Y-3.2308
X7.1944Y-3.5477
X7.1956Y-2.915
X7.1969Y-2.2331
X7.2012Y-2.5934
X7.2929Y-3.2308
X7.2929Y-3.5477
X7.2941Y-2.915
X7.2953Y-2.2331
X7.2997Y-2.5934
T2
X4.5Y-2.505
X4.5Y-3.105
X5.19Y-2.51
X5.19Y-3.11
X6.075Y-3.53
X6.075Y-4.13
X6.455Y-3.53
X6.455Y-4.13
T3
X6.075Y-3.025
X6.08Y-3.345
T4
X3.6331Y-1.8877
X3.6331Y-5.4625
X7.3732Y-1.8877
X7.3732Y-5.4625
T5
X4.4993Y-2.04
X4.7828Y-2.04
X5.1883Y-2.04
X5.4717Y-2.04
X6.2333Y-2.055
X6.5167Y-2.055
M30
