%TF.GenerationSoftware,KiCad,Pcbnew,8.0.4*%
%TF.CreationDate,2024-09-19T17:04:51-03:00*%
%TF.ProjectId,placa de potencia,706c6163-6120-4646-9520-706f74656e63,rev?*%
%TF.SameCoordinates,Original*%
%TF.FileFunction,Legend,Top*%
%TF.FilePolarity,Positive*%
%FSLAX46Y46*%
G04 Gerber Fmt 4.6, Leading zero omitted, Abs format (unit mm)*
G04 Created by KiCad (PCBNEW 8.0.4) date 2024-09-19 17:04:51*
%MOMM*%
%LPD*%
G01*
G04 APERTURE LIST*
%ADD10C,0.150000*%
%ADD11C,0.120000*%
%ADD12C,0.127000*%
%ADD13C,0.200000*%
G04 APERTURE END LIST*
D10*
X111034819Y-71985094D02*
X110034819Y-71985094D01*
X110034819Y-71985094D02*
X110034819Y-71746999D01*
X110034819Y-71746999D02*
X110082438Y-71604142D01*
X110082438Y-71604142D02*
X110177676Y-71508904D01*
X110177676Y-71508904D02*
X110272914Y-71461285D01*
X110272914Y-71461285D02*
X110463390Y-71413666D01*
X110463390Y-71413666D02*
X110606247Y-71413666D01*
X110606247Y-71413666D02*
X110796723Y-71461285D01*
X110796723Y-71461285D02*
X110891961Y-71508904D01*
X110891961Y-71508904D02*
X110987200Y-71604142D01*
X110987200Y-71604142D02*
X111034819Y-71746999D01*
X111034819Y-71746999D02*
X111034819Y-71985094D01*
X111034819Y-70461285D02*
X111034819Y-71032713D01*
X111034819Y-70746999D02*
X110034819Y-70746999D01*
X110034819Y-70746999D02*
X110177676Y-70842237D01*
X110177676Y-70842237D02*
X110272914Y-70937475D01*
X110272914Y-70937475D02*
X110320533Y-71032713D01*
X112154819Y-79128904D02*
X111154819Y-79128904D01*
X112154819Y-78557476D02*
X111583390Y-78986047D01*
X111154819Y-78557476D02*
X111726247Y-79128904D01*
X183954095Y-78651439D02*
X183954095Y-79326355D01*
X183954095Y-79326355D02*
X183909100Y-79461338D01*
X183909100Y-79461338D02*
X183819112Y-79551327D01*
X183819112Y-79551327D02*
X183684128Y-79596321D01*
X183684128Y-79596321D02*
X183594140Y-79596321D01*
X184898977Y-79596321D02*
X184359044Y-79596321D01*
X184629010Y-79596321D02*
X184629010Y-78651439D01*
X184629010Y-78651439D02*
X184539022Y-78786422D01*
X184539022Y-78786422D02*
X184449033Y-78876411D01*
X184449033Y-78876411D02*
X184359044Y-78921405D01*
X185798865Y-79596321D02*
X185258932Y-79596321D01*
X185528898Y-79596321D02*
X185528898Y-78651439D01*
X185528898Y-78651439D02*
X185438910Y-78786422D01*
X185438910Y-78786422D02*
X185348921Y-78876411D01*
X185348921Y-78876411D02*
X185258932Y-78921405D01*
X93694039Y-89861439D02*
X93694039Y-90536355D01*
X93694039Y-90536355D02*
X93649044Y-90671338D01*
X93649044Y-90671338D02*
X93559056Y-90761327D01*
X93559056Y-90761327D02*
X93424072Y-90806321D01*
X93424072Y-90806321D02*
X93334084Y-90806321D01*
X94278966Y-90266388D02*
X94188977Y-90221394D01*
X94188977Y-90221394D02*
X94143982Y-90176400D01*
X94143982Y-90176400D02*
X94098988Y-90086411D01*
X94098988Y-90086411D02*
X94098988Y-90041416D01*
X94098988Y-90041416D02*
X94143982Y-89951428D01*
X94143982Y-89951428D02*
X94188977Y-89906433D01*
X94188977Y-89906433D02*
X94278966Y-89861439D01*
X94278966Y-89861439D02*
X94458943Y-89861439D01*
X94458943Y-89861439D02*
X94548932Y-89906433D01*
X94548932Y-89906433D02*
X94593926Y-89951428D01*
X94593926Y-89951428D02*
X94638921Y-90041416D01*
X94638921Y-90041416D02*
X94638921Y-90086411D01*
X94638921Y-90086411D02*
X94593926Y-90176400D01*
X94593926Y-90176400D02*
X94548932Y-90221394D01*
X94548932Y-90221394D02*
X94458943Y-90266388D01*
X94458943Y-90266388D02*
X94278966Y-90266388D01*
X94278966Y-90266388D02*
X94188977Y-90311383D01*
X94188977Y-90311383D02*
X94143982Y-90356377D01*
X94143982Y-90356377D02*
X94098988Y-90446366D01*
X94098988Y-90446366D02*
X94098988Y-90626343D01*
X94098988Y-90626343D02*
X94143982Y-90716332D01*
X94143982Y-90716332D02*
X94188977Y-90761327D01*
X94188977Y-90761327D02*
X94278966Y-90806321D01*
X94278966Y-90806321D02*
X94458943Y-90806321D01*
X94458943Y-90806321D02*
X94548932Y-90761327D01*
X94548932Y-90761327D02*
X94593926Y-90716332D01*
X94593926Y-90716332D02*
X94638921Y-90626343D01*
X94638921Y-90626343D02*
X94638921Y-90446366D01*
X94638921Y-90446366D02*
X94593926Y-90356377D01*
X94593926Y-90356377D02*
X94548932Y-90311383D01*
X94548932Y-90311383D02*
X94458943Y-90266388D01*
X130223666Y-45335819D02*
X130223666Y-46050104D01*
X130223666Y-46050104D02*
X130176047Y-46192961D01*
X130176047Y-46192961D02*
X130080809Y-46288200D01*
X130080809Y-46288200D02*
X129937952Y-46335819D01*
X129937952Y-46335819D02*
X129842714Y-46335819D01*
X130652238Y-45431057D02*
X130699857Y-45383438D01*
X130699857Y-45383438D02*
X130795095Y-45335819D01*
X130795095Y-45335819D02*
X131033190Y-45335819D01*
X131033190Y-45335819D02*
X131128428Y-45383438D01*
X131128428Y-45383438D02*
X131176047Y-45431057D01*
X131176047Y-45431057D02*
X131223666Y-45526295D01*
X131223666Y-45526295D02*
X131223666Y-45621533D01*
X131223666Y-45621533D02*
X131176047Y-45764390D01*
X131176047Y-45764390D02*
X130604619Y-46335819D01*
X130604619Y-46335819D02*
X131223666Y-46335819D01*
X93714039Y-56521439D02*
X93714039Y-57196355D01*
X93714039Y-57196355D02*
X93669044Y-57331338D01*
X93669044Y-57331338D02*
X93579056Y-57421327D01*
X93579056Y-57421327D02*
X93444072Y-57466321D01*
X93444072Y-57466321D02*
X93354084Y-57466321D01*
X94073994Y-56521439D02*
X94658921Y-56521439D01*
X94658921Y-56521439D02*
X94343960Y-56881394D01*
X94343960Y-56881394D02*
X94478943Y-56881394D01*
X94478943Y-56881394D02*
X94568932Y-56926388D01*
X94568932Y-56926388D02*
X94613926Y-56971383D01*
X94613926Y-56971383D02*
X94658921Y-57061371D01*
X94658921Y-57061371D02*
X94658921Y-57286343D01*
X94658921Y-57286343D02*
X94613926Y-57376332D01*
X94613926Y-57376332D02*
X94568932Y-57421327D01*
X94568932Y-57421327D02*
X94478943Y-57466321D01*
X94478943Y-57466321D02*
X94208977Y-57466321D01*
X94208977Y-57466321D02*
X94118988Y-57421327D01*
X94118988Y-57421327D02*
X94073994Y-57376332D01*
X93764039Y-73881439D02*
X93764039Y-74556355D01*
X93764039Y-74556355D02*
X93719044Y-74691338D01*
X93719044Y-74691338D02*
X93629056Y-74781327D01*
X93629056Y-74781327D02*
X93494072Y-74826321D01*
X93494072Y-74826321D02*
X93404084Y-74826321D01*
X94618932Y-73881439D02*
X94438954Y-73881439D01*
X94438954Y-73881439D02*
X94348966Y-73926433D01*
X94348966Y-73926433D02*
X94303971Y-73971428D01*
X94303971Y-73971428D02*
X94213982Y-74106411D01*
X94213982Y-74106411D02*
X94168988Y-74286388D01*
X94168988Y-74286388D02*
X94168988Y-74646343D01*
X94168988Y-74646343D02*
X94213982Y-74736332D01*
X94213982Y-74736332D02*
X94258977Y-74781327D01*
X94258977Y-74781327D02*
X94348966Y-74826321D01*
X94348966Y-74826321D02*
X94528943Y-74826321D01*
X94528943Y-74826321D02*
X94618932Y-74781327D01*
X94618932Y-74781327D02*
X94663926Y-74736332D01*
X94663926Y-74736332D02*
X94708921Y-74646343D01*
X94708921Y-74646343D02*
X94708921Y-74421371D01*
X94708921Y-74421371D02*
X94663926Y-74331383D01*
X94663926Y-74331383D02*
X94618932Y-74286388D01*
X94618932Y-74286388D02*
X94528943Y-74241394D01*
X94528943Y-74241394D02*
X94348966Y-74241394D01*
X94348966Y-74241394D02*
X94258977Y-74286388D01*
X94258977Y-74286388D02*
X94213982Y-74331383D01*
X94213982Y-74331383D02*
X94168988Y-74421371D01*
X93624039Y-81941439D02*
X93624039Y-82616355D01*
X93624039Y-82616355D02*
X93579044Y-82751338D01*
X93579044Y-82751338D02*
X93489056Y-82841327D01*
X93489056Y-82841327D02*
X93354072Y-82886321D01*
X93354072Y-82886321D02*
X93264084Y-82886321D01*
X93983994Y-81941439D02*
X94613915Y-81941439D01*
X94613915Y-81941439D02*
X94208966Y-82886321D01*
X183986595Y-61331439D02*
X183986595Y-62006355D01*
X183986595Y-62006355D02*
X183941600Y-62141338D01*
X183941600Y-62141338D02*
X183851612Y-62231327D01*
X183851612Y-62231327D02*
X183716628Y-62276321D01*
X183716628Y-62276321D02*
X183626640Y-62276321D01*
X184931477Y-62276321D02*
X184391544Y-62276321D01*
X184661510Y-62276321D02*
X184661510Y-61331439D01*
X184661510Y-61331439D02*
X184571522Y-61466422D01*
X184571522Y-61466422D02*
X184481533Y-61556411D01*
X184481533Y-61556411D02*
X184391544Y-61601405D01*
X185246438Y-61331439D02*
X185831365Y-61331439D01*
X185831365Y-61331439D02*
X185516404Y-61691394D01*
X185516404Y-61691394D02*
X185651387Y-61691394D01*
X185651387Y-61691394D02*
X185741376Y-61736388D01*
X185741376Y-61736388D02*
X185786370Y-61781383D01*
X185786370Y-61781383D02*
X185831365Y-61871371D01*
X185831365Y-61871371D02*
X185831365Y-62096343D01*
X185831365Y-62096343D02*
X185786370Y-62186332D01*
X185786370Y-62186332D02*
X185741376Y-62231327D01*
X185741376Y-62231327D02*
X185651387Y-62276321D01*
X185651387Y-62276321D02*
X185381421Y-62276321D01*
X185381421Y-62276321D02*
X185291432Y-62231327D01*
X185291432Y-62231327D02*
X185246438Y-62186332D01*
X112723666Y-45335819D02*
X112723666Y-46050104D01*
X112723666Y-46050104D02*
X112676047Y-46192961D01*
X112676047Y-46192961D02*
X112580809Y-46288200D01*
X112580809Y-46288200D02*
X112437952Y-46335819D01*
X112437952Y-46335819D02*
X112342714Y-46335819D01*
X113723666Y-46335819D02*
X113152238Y-46335819D01*
X113437952Y-46335819D02*
X113437952Y-45335819D01*
X113437952Y-45335819D02*
X113342714Y-45478676D01*
X113342714Y-45478676D02*
X113247476Y-45573914D01*
X113247476Y-45573914D02*
X113152238Y-45621533D01*
X151039819Y-98020094D02*
X150039819Y-98020094D01*
X150039819Y-98020094D02*
X150039819Y-97781999D01*
X150039819Y-97781999D02*
X150087438Y-97639142D01*
X150087438Y-97639142D02*
X150182676Y-97543904D01*
X150182676Y-97543904D02*
X150277914Y-97496285D01*
X150277914Y-97496285D02*
X150468390Y-97448666D01*
X150468390Y-97448666D02*
X150611247Y-97448666D01*
X150611247Y-97448666D02*
X150801723Y-97496285D01*
X150801723Y-97496285D02*
X150896961Y-97543904D01*
X150896961Y-97543904D02*
X150992200Y-97639142D01*
X150992200Y-97639142D02*
X151039819Y-97781999D01*
X151039819Y-97781999D02*
X151039819Y-98020094D01*
X150135057Y-97067713D02*
X150087438Y-97020094D01*
X150087438Y-97020094D02*
X150039819Y-96924856D01*
X150039819Y-96924856D02*
X150039819Y-96686761D01*
X150039819Y-96686761D02*
X150087438Y-96591523D01*
X150087438Y-96591523D02*
X150135057Y-96543904D01*
X150135057Y-96543904D02*
X150230295Y-96496285D01*
X150230295Y-96496285D02*
X150325533Y-96496285D01*
X150325533Y-96496285D02*
X150468390Y-96543904D01*
X150468390Y-96543904D02*
X151039819Y-97115332D01*
X151039819Y-97115332D02*
X151039819Y-96496285D01*
X152159819Y-105163904D02*
X151159819Y-105163904D01*
X152159819Y-104592476D02*
X151588390Y-105021047D01*
X151159819Y-104592476D02*
X151731247Y-105163904D01*
X183924095Y-86671439D02*
X183924095Y-87346355D01*
X183924095Y-87346355D02*
X183879100Y-87481338D01*
X183879100Y-87481338D02*
X183789112Y-87571327D01*
X183789112Y-87571327D02*
X183654128Y-87616321D01*
X183654128Y-87616321D02*
X183564140Y-87616321D01*
X184868977Y-87616321D02*
X184329044Y-87616321D01*
X184599010Y-87616321D02*
X184599010Y-86671439D01*
X184599010Y-86671439D02*
X184509022Y-86806422D01*
X184509022Y-86806422D02*
X184419033Y-86896411D01*
X184419033Y-86896411D02*
X184329044Y-86941405D01*
X185453904Y-86671439D02*
X185543893Y-86671439D01*
X185543893Y-86671439D02*
X185633881Y-86716433D01*
X185633881Y-86716433D02*
X185678876Y-86761428D01*
X185678876Y-86761428D02*
X185723870Y-86851416D01*
X185723870Y-86851416D02*
X185768865Y-87031394D01*
X185768865Y-87031394D02*
X185768865Y-87256366D01*
X185768865Y-87256366D02*
X185723870Y-87436343D01*
X185723870Y-87436343D02*
X185678876Y-87526332D01*
X185678876Y-87526332D02*
X185633881Y-87571327D01*
X185633881Y-87571327D02*
X185543893Y-87616321D01*
X185543893Y-87616321D02*
X185453904Y-87616321D01*
X185453904Y-87616321D02*
X185363915Y-87571327D01*
X185363915Y-87571327D02*
X185318921Y-87526332D01*
X185318921Y-87526332D02*
X185273926Y-87436343D01*
X185273926Y-87436343D02*
X185228932Y-87256366D01*
X185228932Y-87256366D02*
X185228932Y-87031394D01*
X185228932Y-87031394D02*
X185273926Y-86851416D01*
X185273926Y-86851416D02*
X185318921Y-86761428D01*
X185318921Y-86761428D02*
X185363915Y-86716433D01*
X185363915Y-86716433D02*
X185453904Y-86671439D01*
X160691819Y-98020094D02*
X159691819Y-98020094D01*
X159691819Y-98020094D02*
X159691819Y-97781999D01*
X159691819Y-97781999D02*
X159739438Y-97639142D01*
X159739438Y-97639142D02*
X159834676Y-97543904D01*
X159834676Y-97543904D02*
X159929914Y-97496285D01*
X159929914Y-97496285D02*
X160120390Y-97448666D01*
X160120390Y-97448666D02*
X160263247Y-97448666D01*
X160263247Y-97448666D02*
X160453723Y-97496285D01*
X160453723Y-97496285D02*
X160548961Y-97543904D01*
X160548961Y-97543904D02*
X160644200Y-97639142D01*
X160644200Y-97639142D02*
X160691819Y-97781999D01*
X160691819Y-97781999D02*
X160691819Y-98020094D01*
X159691819Y-97115332D02*
X159691819Y-96496285D01*
X159691819Y-96496285D02*
X160072771Y-96829618D01*
X160072771Y-96829618D02*
X160072771Y-96686761D01*
X160072771Y-96686761D02*
X160120390Y-96591523D01*
X160120390Y-96591523D02*
X160168009Y-96543904D01*
X160168009Y-96543904D02*
X160263247Y-96496285D01*
X160263247Y-96496285D02*
X160501342Y-96496285D01*
X160501342Y-96496285D02*
X160596580Y-96543904D01*
X160596580Y-96543904D02*
X160644200Y-96591523D01*
X160644200Y-96591523D02*
X160691819Y-96686761D01*
X160691819Y-96686761D02*
X160691819Y-96972475D01*
X160691819Y-96972475D02*
X160644200Y-97067713D01*
X160644200Y-97067713D02*
X160596580Y-97115332D01*
X161811819Y-105163904D02*
X160811819Y-105163904D01*
X161811819Y-104592476D02*
X161240390Y-105021047D01*
X160811819Y-104592476D02*
X161383247Y-105163904D01*
X153543095Y-73789819D02*
X153543095Y-72789819D01*
X153543095Y-73266009D02*
X154114523Y-73266009D01*
X154114523Y-73789819D02*
X154114523Y-72789819D01*
X154495476Y-72789819D02*
X155114523Y-72789819D01*
X155114523Y-72789819D02*
X154781190Y-73170771D01*
X154781190Y-73170771D02*
X154924047Y-73170771D01*
X154924047Y-73170771D02*
X155019285Y-73218390D01*
X155019285Y-73218390D02*
X155066904Y-73266009D01*
X155066904Y-73266009D02*
X155114523Y-73361247D01*
X155114523Y-73361247D02*
X155114523Y-73599342D01*
X155114523Y-73599342D02*
X155066904Y-73694580D01*
X155066904Y-73694580D02*
X155019285Y-73742200D01*
X155019285Y-73742200D02*
X154924047Y-73789819D01*
X154924047Y-73789819D02*
X154638333Y-73789819D01*
X154638333Y-73789819D02*
X154543095Y-73742200D01*
X154543095Y-73742200D02*
X154495476Y-73694580D01*
X153670095Y-81917819D02*
X153670095Y-80917819D01*
X153670095Y-81394009D02*
X154241523Y-81394009D01*
X154241523Y-81917819D02*
X154241523Y-80917819D01*
X155241523Y-81917819D02*
X154670095Y-81917819D01*
X154955809Y-81917819D02*
X154955809Y-80917819D01*
X154955809Y-80917819D02*
X154860571Y-81060676D01*
X154860571Y-81060676D02*
X154765333Y-81155914D01*
X154765333Y-81155914D02*
X154670095Y-81203533D01*
X184096595Y-70481439D02*
X184096595Y-71156355D01*
X184096595Y-71156355D02*
X184051600Y-71291338D01*
X184051600Y-71291338D02*
X183961612Y-71381327D01*
X183961612Y-71381327D02*
X183826628Y-71426321D01*
X183826628Y-71426321D02*
X183736640Y-71426321D01*
X185041477Y-71426321D02*
X184501544Y-71426321D01*
X184771510Y-71426321D02*
X184771510Y-70481439D01*
X184771510Y-70481439D02*
X184681522Y-70616422D01*
X184681522Y-70616422D02*
X184591533Y-70706411D01*
X184591533Y-70706411D02*
X184501544Y-70751405D01*
X185401432Y-70571428D02*
X185446426Y-70526433D01*
X185446426Y-70526433D02*
X185536415Y-70481439D01*
X185536415Y-70481439D02*
X185761387Y-70481439D01*
X185761387Y-70481439D02*
X185851376Y-70526433D01*
X185851376Y-70526433D02*
X185896370Y-70571428D01*
X185896370Y-70571428D02*
X185941365Y-70661416D01*
X185941365Y-70661416D02*
X185941365Y-70751405D01*
X185941365Y-70751405D02*
X185896370Y-70886388D01*
X185896370Y-70886388D02*
X185356438Y-71426321D01*
X185356438Y-71426321D02*
X185941365Y-71426321D01*
X156766666Y-45716819D02*
X156766666Y-46431104D01*
X156766666Y-46431104D02*
X156719047Y-46573961D01*
X156719047Y-46573961D02*
X156623809Y-46669200D01*
X156623809Y-46669200D02*
X156480952Y-46716819D01*
X156480952Y-46716819D02*
X156385714Y-46716819D01*
X157671428Y-46050152D02*
X157671428Y-46716819D01*
X157433333Y-45669200D02*
X157195238Y-46383485D01*
X157195238Y-46383485D02*
X157814285Y-46383485D01*
X93767039Y-65623439D02*
X93767039Y-66298355D01*
X93767039Y-66298355D02*
X93722044Y-66433338D01*
X93722044Y-66433338D02*
X93632056Y-66523327D01*
X93632056Y-66523327D02*
X93497072Y-66568321D01*
X93497072Y-66568321D02*
X93407084Y-66568321D01*
X94666926Y-65623439D02*
X94216982Y-65623439D01*
X94216982Y-65623439D02*
X94171988Y-66073383D01*
X94171988Y-66073383D02*
X94216982Y-66028388D01*
X94216982Y-66028388D02*
X94306971Y-65983394D01*
X94306971Y-65983394D02*
X94531943Y-65983394D01*
X94531943Y-65983394D02*
X94621932Y-66028388D01*
X94621932Y-66028388D02*
X94666926Y-66073383D01*
X94666926Y-66073383D02*
X94711921Y-66163371D01*
X94711921Y-66163371D02*
X94711921Y-66388343D01*
X94711921Y-66388343D02*
X94666926Y-66478332D01*
X94666926Y-66478332D02*
X94621932Y-66523327D01*
X94621932Y-66523327D02*
X94531943Y-66568321D01*
X94531943Y-66568321D02*
X94306971Y-66568321D01*
X94306971Y-66568321D02*
X94216982Y-66523327D01*
X94216982Y-66523327D02*
X94171988Y-66478332D01*
X184374039Y-94721439D02*
X184374039Y-95396355D01*
X184374039Y-95396355D02*
X184329044Y-95531338D01*
X184329044Y-95531338D02*
X184239056Y-95621327D01*
X184239056Y-95621327D02*
X184104072Y-95666321D01*
X184104072Y-95666321D02*
X184014084Y-95666321D01*
X184868977Y-95666321D02*
X185048954Y-95666321D01*
X185048954Y-95666321D02*
X185138943Y-95621327D01*
X185138943Y-95621327D02*
X185183937Y-95576332D01*
X185183937Y-95576332D02*
X185273926Y-95441349D01*
X185273926Y-95441349D02*
X185318921Y-95261371D01*
X185318921Y-95261371D02*
X185318921Y-94901416D01*
X185318921Y-94901416D02*
X185273926Y-94811428D01*
X185273926Y-94811428D02*
X185228932Y-94766433D01*
X185228932Y-94766433D02*
X185138943Y-94721439D01*
X185138943Y-94721439D02*
X184958966Y-94721439D01*
X184958966Y-94721439D02*
X184868977Y-94766433D01*
X184868977Y-94766433D02*
X184823982Y-94811428D01*
X184823982Y-94811428D02*
X184778988Y-94901416D01*
X184778988Y-94901416D02*
X184778988Y-95126388D01*
X184778988Y-95126388D02*
X184823982Y-95216377D01*
X184823982Y-95216377D02*
X184868977Y-95261371D01*
X184868977Y-95261371D02*
X184958966Y-95306366D01*
X184958966Y-95306366D02*
X185138943Y-95306366D01*
X185138943Y-95306366D02*
X185228932Y-95261371D01*
X185228932Y-95261371D02*
X185273926Y-95216377D01*
X185273926Y-95216377D02*
X185318921Y-95126388D01*
X128560819Y-72112094D02*
X127560819Y-72112094D01*
X127560819Y-72112094D02*
X127560819Y-71873999D01*
X127560819Y-71873999D02*
X127608438Y-71731142D01*
X127608438Y-71731142D02*
X127703676Y-71635904D01*
X127703676Y-71635904D02*
X127798914Y-71588285D01*
X127798914Y-71588285D02*
X127989390Y-71540666D01*
X127989390Y-71540666D02*
X128132247Y-71540666D01*
X128132247Y-71540666D02*
X128322723Y-71588285D01*
X128322723Y-71588285D02*
X128417961Y-71635904D01*
X128417961Y-71635904D02*
X128513200Y-71731142D01*
X128513200Y-71731142D02*
X128560819Y-71873999D01*
X128560819Y-71873999D02*
X128560819Y-72112094D01*
X127560819Y-70635904D02*
X127560819Y-71112094D01*
X127560819Y-71112094D02*
X128037009Y-71159713D01*
X128037009Y-71159713D02*
X127989390Y-71112094D01*
X127989390Y-71112094D02*
X127941771Y-71016856D01*
X127941771Y-71016856D02*
X127941771Y-70778761D01*
X127941771Y-70778761D02*
X127989390Y-70683523D01*
X127989390Y-70683523D02*
X128037009Y-70635904D01*
X128037009Y-70635904D02*
X128132247Y-70588285D01*
X128132247Y-70588285D02*
X128370342Y-70588285D01*
X128370342Y-70588285D02*
X128465580Y-70635904D01*
X128465580Y-70635904D02*
X128513200Y-70683523D01*
X128513200Y-70683523D02*
X128560819Y-70778761D01*
X128560819Y-70778761D02*
X128560819Y-71016856D01*
X128560819Y-71016856D02*
X128513200Y-71112094D01*
X128513200Y-71112094D02*
X128465580Y-71159713D01*
X129680819Y-79255904D02*
X128680819Y-79255904D01*
X129680819Y-78684476D02*
X129109390Y-79113047D01*
X128680819Y-78684476D02*
X129252247Y-79255904D01*
D11*
%TO.C,D1*%
X111580000Y-66377000D02*
X111580000Y-76117000D01*
X111580000Y-74452000D02*
X117020000Y-74452000D01*
X111580000Y-74572000D02*
X117020000Y-74572000D01*
X111580000Y-74692000D02*
X117020000Y-74692000D01*
X111580000Y-76117000D02*
X117020000Y-76117000D01*
X114300000Y-65467000D02*
X114300000Y-66377000D01*
X114300000Y-77027000D02*
X114300000Y-76117000D01*
X117020000Y-66377000D02*
X111580000Y-66377000D01*
X117020000Y-76117000D02*
X117020000Y-66377000D01*
D12*
%TO.C,J11*%
X175319000Y-71692000D02*
X187719000Y-71692000D01*
X175319000Y-77442000D02*
X175319000Y-71692000D01*
X187719000Y-71692000D02*
X187719000Y-77442000D01*
X187719000Y-77442000D02*
X175319000Y-77442000D01*
D13*
X174619000Y-74042000D02*
G75*
G02*
X174419000Y-74042000I-100000J0D01*
G01*
X174419000Y-74042000D02*
G75*
G02*
X174619000Y-74042000I100000J0D01*
G01*
D12*
%TO.C,J8*%
X91009000Y-92102000D02*
X103409000Y-92102000D01*
X91009000Y-97852000D02*
X91009000Y-92102000D01*
X103409000Y-92102000D02*
X103409000Y-97852000D01*
X103409000Y-97852000D02*
X91009000Y-97852000D01*
D13*
X104309000Y-95502000D02*
G75*
G02*
X104109000Y-95502000I-100000J0D01*
G01*
X104109000Y-95502000D02*
G75*
G02*
X104309000Y-95502000I100000J0D01*
G01*
D12*
%TO.C,J2*%
X125882000Y-51816000D02*
X126882000Y-51816000D01*
X126382000Y-51316000D02*
X126382000Y-52316000D01*
X127632000Y-47766000D02*
X140332000Y-47766000D01*
X127632000Y-55866000D02*
X127632000Y-47766000D01*
X140332000Y-47766000D02*
X143132000Y-50216000D01*
X140332000Y-55866000D02*
X127632000Y-55866000D01*
X143132000Y-50216000D02*
X143132000Y-53416000D01*
X143132000Y-53416000D02*
X140332000Y-55866000D01*
X143882000Y-51816000D02*
X144882000Y-51816000D01*
%TO.C,J3*%
X91029000Y-58762000D02*
X103429000Y-58762000D01*
X91029000Y-64512000D02*
X91029000Y-58762000D01*
X103429000Y-58762000D02*
X103429000Y-64512000D01*
X103429000Y-64512000D02*
X91029000Y-64512000D01*
D13*
X104329000Y-62162000D02*
G75*
G02*
X104129000Y-62162000I-100000J0D01*
G01*
X104129000Y-62162000D02*
G75*
G02*
X104329000Y-62162000I100000J0D01*
G01*
D12*
%TO.C,J6*%
X91079000Y-76122000D02*
X103479000Y-76122000D01*
X91079000Y-81872000D02*
X91079000Y-76122000D01*
X103479000Y-76122000D02*
X103479000Y-81872000D01*
X103479000Y-81872000D02*
X91079000Y-81872000D01*
D13*
X104379000Y-79522000D02*
G75*
G02*
X104179000Y-79522000I-100000J0D01*
G01*
X104179000Y-79522000D02*
G75*
G02*
X104379000Y-79522000I100000J0D01*
G01*
D12*
%TO.C,J7*%
X90939000Y-84182000D02*
X103339000Y-84182000D01*
X90939000Y-89932000D02*
X90939000Y-84182000D01*
X103339000Y-84182000D02*
X103339000Y-89932000D01*
X103339000Y-89932000D02*
X90939000Y-89932000D01*
D13*
X104239000Y-87582000D02*
G75*
G02*
X104039000Y-87582000I-100000J0D01*
G01*
X104039000Y-87582000D02*
G75*
G02*
X104239000Y-87582000I100000J0D01*
G01*
D12*
%TO.C,J13*%
X175351500Y-54372000D02*
X187751500Y-54372000D01*
X175351500Y-60122000D02*
X175351500Y-54372000D01*
X187751500Y-54372000D02*
X187751500Y-60122000D01*
X187751500Y-60122000D02*
X175351500Y-60122000D01*
D13*
X174651500Y-56722000D02*
G75*
G02*
X174451500Y-56722000I-100000J0D01*
G01*
X174451500Y-56722000D02*
G75*
G02*
X174651500Y-56722000I100000J0D01*
G01*
D12*
%TO.C,J1*%
X108382000Y-51816000D02*
X109382000Y-51816000D01*
X108882000Y-51316000D02*
X108882000Y-52316000D01*
X110132000Y-47766000D02*
X122832000Y-47766000D01*
X110132000Y-55866000D02*
X110132000Y-47766000D01*
X122832000Y-47766000D02*
X125632000Y-50216000D01*
X122832000Y-55866000D02*
X110132000Y-55866000D01*
X125632000Y-50216000D02*
X125632000Y-53416000D01*
X125632000Y-53416000D02*
X122832000Y-55866000D01*
X126382000Y-51816000D02*
X127382000Y-51816000D01*
D11*
%TO.C,D2*%
X151585000Y-92412000D02*
X151585000Y-102152000D01*
X151585000Y-100487000D02*
X157025000Y-100487000D01*
X151585000Y-100607000D02*
X157025000Y-100607000D01*
X151585000Y-100727000D02*
X157025000Y-100727000D01*
X151585000Y-102152000D02*
X157025000Y-102152000D01*
X154305000Y-91502000D02*
X154305000Y-92412000D01*
X154305000Y-103062000D02*
X154305000Y-102152000D01*
X157025000Y-92412000D02*
X151585000Y-92412000D01*
X157025000Y-102152000D02*
X157025000Y-92412000D01*
D12*
%TO.C,J10*%
X175289000Y-79712000D02*
X187689000Y-79712000D01*
X175289000Y-85462000D02*
X175289000Y-79712000D01*
X187689000Y-79712000D02*
X187689000Y-85462000D01*
X187689000Y-85462000D02*
X175289000Y-85462000D01*
D13*
X174589000Y-82062000D02*
G75*
G02*
X174389000Y-82062000I-100000J0D01*
G01*
X174389000Y-82062000D02*
G75*
G02*
X174589000Y-82062000I100000J0D01*
G01*
D11*
%TO.C,D3*%
X161237000Y-92412000D02*
X161237000Y-102152000D01*
X161237000Y-100487000D02*
X166677000Y-100487000D01*
X161237000Y-100607000D02*
X166677000Y-100607000D01*
X161237000Y-100727000D02*
X166677000Y-100727000D01*
X161237000Y-102152000D02*
X166677000Y-102152000D01*
X163957000Y-91502000D02*
X163957000Y-92412000D01*
X163957000Y-103062000D02*
X163957000Y-102152000D01*
X166677000Y-92412000D02*
X161237000Y-92412000D01*
X166677000Y-102152000D02*
X166677000Y-92412000D01*
D12*
%TO.C,J12*%
X175461500Y-63522000D02*
X187861500Y-63522000D01*
X175461500Y-69272000D02*
X175461500Y-63522000D01*
X187861500Y-63522000D02*
X187861500Y-69272000D01*
X187861500Y-69272000D02*
X175461500Y-69272000D01*
D13*
X174761500Y-65872000D02*
G75*
G02*
X174561500Y-65872000I-100000J0D01*
G01*
X174561500Y-65872000D02*
G75*
G02*
X174761500Y-65872000I100000J0D01*
G01*
D12*
%TO.C,J4*%
X152425000Y-52197000D02*
X153425000Y-52197000D01*
X152925000Y-51697000D02*
X152925000Y-52697000D01*
X154175000Y-48147000D02*
X166875000Y-48147000D01*
X154175000Y-56247000D02*
X154175000Y-48147000D01*
X166875000Y-48147000D02*
X169675000Y-50597000D01*
X166875000Y-56247000D02*
X154175000Y-56247000D01*
X169675000Y-50597000D02*
X169675000Y-53797000D01*
X169675000Y-53797000D02*
X166875000Y-56247000D01*
X170425000Y-52197000D02*
X171425000Y-52197000D01*
%TO.C,J5*%
X91082000Y-67864000D02*
X103482000Y-67864000D01*
X91082000Y-73614000D02*
X91082000Y-67864000D01*
X103482000Y-67864000D02*
X103482000Y-73614000D01*
X103482000Y-73614000D02*
X91082000Y-73614000D01*
D13*
X104382000Y-71264000D02*
G75*
G02*
X104182000Y-71264000I-100000J0D01*
G01*
X104182000Y-71264000D02*
G75*
G02*
X104382000Y-71264000I100000J0D01*
G01*
D12*
%TO.C,J9*%
X175289000Y-87762000D02*
X187689000Y-87762000D01*
X175289000Y-93512000D02*
X175289000Y-87762000D01*
X187689000Y-87762000D02*
X187689000Y-93512000D01*
X187689000Y-93512000D02*
X175289000Y-93512000D01*
D13*
X174589000Y-90112000D02*
G75*
G02*
X174389000Y-90112000I-100000J0D01*
G01*
X174389000Y-90112000D02*
G75*
G02*
X174589000Y-90112000I100000J0D01*
G01*
D11*
%TO.C,D5*%
X129106000Y-66504000D02*
X129106000Y-76244000D01*
X129106000Y-74579000D02*
X134546000Y-74579000D01*
X129106000Y-74699000D02*
X134546000Y-74699000D01*
X129106000Y-74819000D02*
X134546000Y-74819000D01*
X129106000Y-76244000D02*
X134546000Y-76244000D01*
X131826000Y-65594000D02*
X131826000Y-66504000D01*
X131826000Y-77154000D02*
X131826000Y-76244000D01*
X134546000Y-66504000D02*
X129106000Y-66504000D01*
X134546000Y-76244000D02*
X134546000Y-66504000D01*
%TD*%
M02*
