%TF.GenerationSoftware,KiCad,Pcbnew,8.0.6*%
%TF.CreationDate,2025-05-15T16:35:35-03:00*%
%TF.ProjectId,strain gauge,73747261-696e-4206-9761-7567652e6b69,rev?*%
%TF.SameCoordinates,Original*%
%TF.FileFunction,Legend,Bot*%
%TF.FilePolarity,Positive*%
%FSLAX46Y46*%
G04 Gerber Fmt 4.6, Leading zero omitted, Abs format (unit mm)*
G04 Created by KiCad (PCBNEW 8.0.6) date 2025-05-15 16:35:35*
%MOMM*%
%LPD*%
G01*
G04 APERTURE LIST*
%ADD10C,0.062500*%
%ADD11C,0.150000*%
%ADD12C,0.300000*%
%ADD13C,0.100000*%
%ADD14C,0.120000*%
%ADD15C,0.000000*%
%ADD16C,0.127000*%
%ADD17C,0.200000*%
G04 APERTURE END LIST*
D10*
X161130440Y-121978571D02*
X161154250Y-121954762D01*
X161154250Y-121954762D02*
X161178059Y-121883333D01*
X161178059Y-121883333D02*
X161178059Y-121835714D01*
X161178059Y-121835714D02*
X161154250Y-121764286D01*
X161154250Y-121764286D02*
X161106630Y-121716667D01*
X161106630Y-121716667D02*
X161059011Y-121692857D01*
X161059011Y-121692857D02*
X160963773Y-121669048D01*
X160963773Y-121669048D02*
X160892345Y-121669048D01*
X160892345Y-121669048D02*
X160797107Y-121692857D01*
X160797107Y-121692857D02*
X160749488Y-121716667D01*
X160749488Y-121716667D02*
X160701869Y-121764286D01*
X160701869Y-121764286D02*
X160678059Y-121835714D01*
X160678059Y-121835714D02*
X160678059Y-121883333D01*
X160678059Y-121883333D02*
X160701869Y-121954762D01*
X160701869Y-121954762D02*
X160725678Y-121978571D01*
X160725678Y-122169048D02*
X160701869Y-122192857D01*
X160701869Y-122192857D02*
X160678059Y-122240476D01*
X160678059Y-122240476D02*
X160678059Y-122359524D01*
X160678059Y-122359524D02*
X160701869Y-122407143D01*
X160701869Y-122407143D02*
X160725678Y-122430952D01*
X160725678Y-122430952D02*
X160773297Y-122454762D01*
X160773297Y-122454762D02*
X160820916Y-122454762D01*
X160820916Y-122454762D02*
X160892345Y-122430952D01*
X160892345Y-122430952D02*
X161178059Y-122145238D01*
X161178059Y-122145238D02*
X161178059Y-122454762D01*
X161178059Y-122930952D02*
X161178059Y-122645238D01*
X161178059Y-122788095D02*
X160678059Y-122788095D01*
X160678059Y-122788095D02*
X160749488Y-122740476D01*
X160749488Y-122740476D02*
X160797107Y-122692857D01*
X160797107Y-122692857D02*
X160820916Y-122645238D01*
D11*
X157658207Y-105325419D02*
X157610588Y-105277800D01*
X157610588Y-105277800D02*
X157467731Y-105230180D01*
X157467731Y-105230180D02*
X157372493Y-105230180D01*
X157372493Y-105230180D02*
X157229636Y-105277800D01*
X157229636Y-105277800D02*
X157134398Y-105373038D01*
X157134398Y-105373038D02*
X157086779Y-105468276D01*
X157086779Y-105468276D02*
X157039160Y-105658752D01*
X157039160Y-105658752D02*
X157039160Y-105801609D01*
X157039160Y-105801609D02*
X157086779Y-105992085D01*
X157086779Y-105992085D02*
X157134398Y-106087323D01*
X157134398Y-106087323D02*
X157229636Y-106182561D01*
X157229636Y-106182561D02*
X157372493Y-106230180D01*
X157372493Y-106230180D02*
X157467731Y-106230180D01*
X157467731Y-106230180D02*
X157610588Y-106182561D01*
X157610588Y-106182561D02*
X157658207Y-106134942D01*
X158039160Y-106134942D02*
X158086779Y-106182561D01*
X158086779Y-106182561D02*
X158182017Y-106230180D01*
X158182017Y-106230180D02*
X158420112Y-106230180D01*
X158420112Y-106230180D02*
X158515350Y-106182561D01*
X158515350Y-106182561D02*
X158562969Y-106134942D01*
X158562969Y-106134942D02*
X158610588Y-106039704D01*
X158610588Y-106039704D02*
X158610588Y-105944466D01*
X158610588Y-105944466D02*
X158562969Y-105801609D01*
X158562969Y-105801609D02*
X157991541Y-105230180D01*
X157991541Y-105230180D02*
X158610588Y-105230180D01*
X159229636Y-106230180D02*
X159324874Y-106230180D01*
X159324874Y-106230180D02*
X159420112Y-106182561D01*
X159420112Y-106182561D02*
X159467731Y-106134942D01*
X159467731Y-106134942D02*
X159515350Y-106039704D01*
X159515350Y-106039704D02*
X159562969Y-105849228D01*
X159562969Y-105849228D02*
X159562969Y-105611133D01*
X159562969Y-105611133D02*
X159515350Y-105420657D01*
X159515350Y-105420657D02*
X159467731Y-105325419D01*
X159467731Y-105325419D02*
X159420112Y-105277800D01*
X159420112Y-105277800D02*
X159324874Y-105230180D01*
X159324874Y-105230180D02*
X159229636Y-105230180D01*
X159229636Y-105230180D02*
X159134398Y-105277800D01*
X159134398Y-105277800D02*
X159086779Y-105325419D01*
X159086779Y-105325419D02*
X159039160Y-105420657D01*
X159039160Y-105420657D02*
X158991541Y-105611133D01*
X158991541Y-105611133D02*
X158991541Y-105849228D01*
X158991541Y-105849228D02*
X159039160Y-106039704D01*
X159039160Y-106039704D02*
X159086779Y-106134942D01*
X159086779Y-106134942D02*
X159134398Y-106182561D01*
X159134398Y-106182561D02*
X159229636Y-106230180D01*
X160708207Y-105325419D02*
X160660588Y-105277800D01*
X160660588Y-105277800D02*
X160517731Y-105230180D01*
X160517731Y-105230180D02*
X160422493Y-105230180D01*
X160422493Y-105230180D02*
X160279636Y-105277800D01*
X160279636Y-105277800D02*
X160184398Y-105373038D01*
X160184398Y-105373038D02*
X160136779Y-105468276D01*
X160136779Y-105468276D02*
X160089160Y-105658752D01*
X160089160Y-105658752D02*
X160089160Y-105801609D01*
X160089160Y-105801609D02*
X160136779Y-105992085D01*
X160136779Y-105992085D02*
X160184398Y-106087323D01*
X160184398Y-106087323D02*
X160279636Y-106182561D01*
X160279636Y-106182561D02*
X160422493Y-106230180D01*
X160422493Y-106230180D02*
X160517731Y-106230180D01*
X160517731Y-106230180D02*
X160660588Y-106182561D01*
X160660588Y-106182561D02*
X160708207Y-106134942D01*
X161660588Y-105230180D02*
X161089160Y-105230180D01*
X161374874Y-105230180D02*
X161374874Y-106230180D01*
X161374874Y-106230180D02*
X161279636Y-106087323D01*
X161279636Y-106087323D02*
X161184398Y-105992085D01*
X161184398Y-105992085D02*
X161089160Y-105944466D01*
X162565350Y-106230180D02*
X162089160Y-106230180D01*
X162089160Y-106230180D02*
X162041541Y-105753990D01*
X162041541Y-105753990D02*
X162089160Y-105801609D01*
X162089160Y-105801609D02*
X162184398Y-105849228D01*
X162184398Y-105849228D02*
X162422493Y-105849228D01*
X162422493Y-105849228D02*
X162517731Y-105801609D01*
X162517731Y-105801609D02*
X162565350Y-105753990D01*
X162565350Y-105753990D02*
X162612969Y-105658752D01*
X162612969Y-105658752D02*
X162612969Y-105420657D01*
X162612969Y-105420657D02*
X162565350Y-105325419D01*
X162565350Y-105325419D02*
X162517731Y-105277800D01*
X162517731Y-105277800D02*
X162422493Y-105230180D01*
X162422493Y-105230180D02*
X162184398Y-105230180D01*
X162184398Y-105230180D02*
X162089160Y-105277800D01*
X162089160Y-105277800D02*
X162041541Y-105325419D01*
D10*
X163037940Y-109095879D02*
X163061750Y-109072070D01*
X163061750Y-109072070D02*
X163085559Y-109000641D01*
X163085559Y-109000641D02*
X163085559Y-108953022D01*
X163085559Y-108953022D02*
X163061750Y-108881594D01*
X163061750Y-108881594D02*
X163014130Y-108833975D01*
X163014130Y-108833975D02*
X162966511Y-108810165D01*
X162966511Y-108810165D02*
X162871273Y-108786356D01*
X162871273Y-108786356D02*
X162799845Y-108786356D01*
X162799845Y-108786356D02*
X162704607Y-108810165D01*
X162704607Y-108810165D02*
X162656988Y-108833975D01*
X162656988Y-108833975D02*
X162609369Y-108881594D01*
X162609369Y-108881594D02*
X162585559Y-108953022D01*
X162585559Y-108953022D02*
X162585559Y-109000641D01*
X162585559Y-109000641D02*
X162609369Y-109072070D01*
X162609369Y-109072070D02*
X162633178Y-109095879D01*
X163085559Y-109572070D02*
X163085559Y-109286356D01*
X163085559Y-109429213D02*
X162585559Y-109429213D01*
X162585559Y-109429213D02*
X162656988Y-109381594D01*
X162656988Y-109381594D02*
X162704607Y-109333975D01*
X162704607Y-109333975D02*
X162728416Y-109286356D01*
X162585559Y-109738736D02*
X162585559Y-110072069D01*
X162585559Y-110072069D02*
X163085559Y-109857784D01*
D12*
X177220489Y-136000828D02*
X177220489Y-134500828D01*
X177220489Y-134500828D02*
X176863346Y-134500828D01*
X176863346Y-134500828D02*
X176649060Y-134572257D01*
X176649060Y-134572257D02*
X176506203Y-134715114D01*
X176506203Y-134715114D02*
X176434774Y-134857971D01*
X176434774Y-134857971D02*
X176363346Y-135143685D01*
X176363346Y-135143685D02*
X176363346Y-135357971D01*
X176363346Y-135357971D02*
X176434774Y-135643685D01*
X176434774Y-135643685D02*
X176506203Y-135786542D01*
X176506203Y-135786542D02*
X176649060Y-135929400D01*
X176649060Y-135929400D02*
X176863346Y-136000828D01*
X176863346Y-136000828D02*
X177220489Y-136000828D01*
X175149060Y-135929400D02*
X175291917Y-136000828D01*
X175291917Y-136000828D02*
X175577632Y-136000828D01*
X175577632Y-136000828D02*
X175720489Y-135929400D01*
X175720489Y-135929400D02*
X175791917Y-135786542D01*
X175791917Y-135786542D02*
X175791917Y-135215114D01*
X175791917Y-135215114D02*
X175720489Y-135072257D01*
X175720489Y-135072257D02*
X175577632Y-135000828D01*
X175577632Y-135000828D02*
X175291917Y-135000828D01*
X175291917Y-135000828D02*
X175149060Y-135072257D01*
X175149060Y-135072257D02*
X175077632Y-135215114D01*
X175077632Y-135215114D02*
X175077632Y-135357971D01*
X175077632Y-135357971D02*
X175791917Y-135500828D01*
X174506203Y-135929400D02*
X174363346Y-136000828D01*
X174363346Y-136000828D02*
X174077632Y-136000828D01*
X174077632Y-136000828D02*
X173934775Y-135929400D01*
X173934775Y-135929400D02*
X173863346Y-135786542D01*
X173863346Y-135786542D02*
X173863346Y-135715114D01*
X173863346Y-135715114D02*
X173934775Y-135572257D01*
X173934775Y-135572257D02*
X174077632Y-135500828D01*
X174077632Y-135500828D02*
X174291918Y-135500828D01*
X174291918Y-135500828D02*
X174434775Y-135429400D01*
X174434775Y-135429400D02*
X174506203Y-135286542D01*
X174506203Y-135286542D02*
X174506203Y-135215114D01*
X174506203Y-135215114D02*
X174434775Y-135072257D01*
X174434775Y-135072257D02*
X174291918Y-135000828D01*
X174291918Y-135000828D02*
X174077632Y-135000828D01*
X174077632Y-135000828D02*
X173934775Y-135072257D01*
X173220489Y-136000828D02*
X173220489Y-135000828D01*
X173220489Y-134500828D02*
X173291917Y-134572257D01*
X173291917Y-134572257D02*
X173220489Y-134643685D01*
X173220489Y-134643685D02*
X173149060Y-134572257D01*
X173149060Y-134572257D02*
X173220489Y-134500828D01*
X173220489Y-134500828D02*
X173220489Y-134643685D01*
X171863346Y-135000828D02*
X171863346Y-136215114D01*
X171863346Y-136215114D02*
X171934774Y-136357971D01*
X171934774Y-136357971D02*
X172006203Y-136429400D01*
X172006203Y-136429400D02*
X172149060Y-136500828D01*
X172149060Y-136500828D02*
X172363346Y-136500828D01*
X172363346Y-136500828D02*
X172506203Y-136429400D01*
X171863346Y-135929400D02*
X172006203Y-136000828D01*
X172006203Y-136000828D02*
X172291917Y-136000828D01*
X172291917Y-136000828D02*
X172434774Y-135929400D01*
X172434774Y-135929400D02*
X172506203Y-135857971D01*
X172506203Y-135857971D02*
X172577631Y-135715114D01*
X172577631Y-135715114D02*
X172577631Y-135286542D01*
X172577631Y-135286542D02*
X172506203Y-135143685D01*
X172506203Y-135143685D02*
X172434774Y-135072257D01*
X172434774Y-135072257D02*
X172291917Y-135000828D01*
X172291917Y-135000828D02*
X172006203Y-135000828D01*
X172006203Y-135000828D02*
X171863346Y-135072257D01*
X171149060Y-135000828D02*
X171149060Y-136000828D01*
X171149060Y-135143685D02*
X171077631Y-135072257D01*
X171077631Y-135072257D02*
X170934774Y-135000828D01*
X170934774Y-135000828D02*
X170720488Y-135000828D01*
X170720488Y-135000828D02*
X170577631Y-135072257D01*
X170577631Y-135072257D02*
X170506203Y-135215114D01*
X170506203Y-135215114D02*
X170506203Y-136000828D01*
X168649060Y-136000828D02*
X168649060Y-134500828D01*
X168649060Y-135072257D02*
X168506203Y-135000828D01*
X168506203Y-135000828D02*
X168220488Y-135000828D01*
X168220488Y-135000828D02*
X168077631Y-135072257D01*
X168077631Y-135072257D02*
X168006203Y-135143685D01*
X168006203Y-135143685D02*
X167934774Y-135286542D01*
X167934774Y-135286542D02*
X167934774Y-135715114D01*
X167934774Y-135715114D02*
X168006203Y-135857971D01*
X168006203Y-135857971D02*
X168077631Y-135929400D01*
X168077631Y-135929400D02*
X168220488Y-136000828D01*
X168220488Y-136000828D02*
X168506203Y-136000828D01*
X168506203Y-136000828D02*
X168649060Y-135929400D01*
X167434774Y-135000828D02*
X167077631Y-136000828D01*
X166720488Y-135000828D02*
X167077631Y-136000828D01*
X167077631Y-136000828D02*
X167220488Y-136357971D01*
X167220488Y-136357971D02*
X167291917Y-136429400D01*
X167291917Y-136429400D02*
X167434774Y-136500828D01*
X166149060Y-135857971D02*
X166077631Y-135929400D01*
X166077631Y-135929400D02*
X166149060Y-136000828D01*
X166149060Y-136000828D02*
X166220488Y-135929400D01*
X166220488Y-135929400D02*
X166149060Y-135857971D01*
X166149060Y-135857971D02*
X166149060Y-136000828D01*
X166149060Y-135072257D02*
X166077631Y-135143685D01*
X166077631Y-135143685D02*
X166149060Y-135215114D01*
X166149060Y-135215114D02*
X166220488Y-135143685D01*
X166220488Y-135143685D02*
X166149060Y-135072257D01*
X166149060Y-135072257D02*
X166149060Y-135215114D01*
X164291917Y-136000828D02*
X164291917Y-134500828D01*
X164291917Y-135215114D02*
X163434774Y-135215114D01*
X163434774Y-136000828D02*
X163434774Y-134500828D01*
X162149059Y-135929400D02*
X162291916Y-136000828D01*
X162291916Y-136000828D02*
X162577631Y-136000828D01*
X162577631Y-136000828D02*
X162720488Y-135929400D01*
X162720488Y-135929400D02*
X162791916Y-135786542D01*
X162791916Y-135786542D02*
X162791916Y-135215114D01*
X162791916Y-135215114D02*
X162720488Y-135072257D01*
X162720488Y-135072257D02*
X162577631Y-135000828D01*
X162577631Y-135000828D02*
X162291916Y-135000828D01*
X162291916Y-135000828D02*
X162149059Y-135072257D01*
X162149059Y-135072257D02*
X162077631Y-135215114D01*
X162077631Y-135215114D02*
X162077631Y-135357971D01*
X162077631Y-135357971D02*
X162791916Y-135500828D01*
X161434774Y-135000828D02*
X161434774Y-136000828D01*
X161434774Y-135143685D02*
X161363345Y-135072257D01*
X161363345Y-135072257D02*
X161220488Y-135000828D01*
X161220488Y-135000828D02*
X161006202Y-135000828D01*
X161006202Y-135000828D02*
X160863345Y-135072257D01*
X160863345Y-135072257D02*
X160791917Y-135215114D01*
X160791917Y-135215114D02*
X160791917Y-136000828D01*
X160077631Y-136000828D02*
X160077631Y-135000828D01*
X160077631Y-135286542D02*
X160006202Y-135143685D01*
X160006202Y-135143685D02*
X159934774Y-135072257D01*
X159934774Y-135072257D02*
X159791916Y-135000828D01*
X159791916Y-135000828D02*
X159649059Y-135000828D01*
X159149060Y-136000828D02*
X159149060Y-135000828D01*
X159149060Y-134500828D02*
X159220488Y-134572257D01*
X159220488Y-134572257D02*
X159149060Y-134643685D01*
X159149060Y-134643685D02*
X159077631Y-134572257D01*
X159077631Y-134572257D02*
X159149060Y-134500828D01*
X159149060Y-134500828D02*
X159149060Y-134643685D01*
X157791917Y-135000828D02*
X157791917Y-136500828D01*
X157791917Y-135929400D02*
X157934774Y-136000828D01*
X157934774Y-136000828D02*
X158220488Y-136000828D01*
X158220488Y-136000828D02*
X158363345Y-135929400D01*
X158363345Y-135929400D02*
X158434774Y-135857971D01*
X158434774Y-135857971D02*
X158506202Y-135715114D01*
X158506202Y-135715114D02*
X158506202Y-135286542D01*
X158506202Y-135286542D02*
X158434774Y-135143685D01*
X158434774Y-135143685D02*
X158363345Y-135072257D01*
X158363345Y-135072257D02*
X158220488Y-135000828D01*
X158220488Y-135000828D02*
X157934774Y-135000828D01*
X157934774Y-135000828D02*
X157791917Y-135072257D01*
X156434774Y-135000828D02*
X156434774Y-136000828D01*
X157077631Y-135000828D02*
X157077631Y-135786542D01*
X157077631Y-135786542D02*
X157006202Y-135929400D01*
X157006202Y-135929400D02*
X156863345Y-136000828D01*
X156863345Y-136000828D02*
X156649059Y-136000828D01*
X156649059Y-136000828D02*
X156506202Y-135929400D01*
X156506202Y-135929400D02*
X156434774Y-135857971D01*
X155149059Y-135929400D02*
X155291916Y-136000828D01*
X155291916Y-136000828D02*
X155577631Y-136000828D01*
X155577631Y-136000828D02*
X155720488Y-135929400D01*
X155720488Y-135929400D02*
X155791916Y-135786542D01*
X155791916Y-135786542D02*
X155791916Y-135215114D01*
X155791916Y-135215114D02*
X155720488Y-135072257D01*
X155720488Y-135072257D02*
X155577631Y-135000828D01*
X155577631Y-135000828D02*
X155291916Y-135000828D01*
X155291916Y-135000828D02*
X155149059Y-135072257D01*
X155149059Y-135072257D02*
X155077631Y-135215114D01*
X155077631Y-135215114D02*
X155077631Y-135357971D01*
X155077631Y-135357971D02*
X155791916Y-135500828D01*
X153506202Y-134500828D02*
X152649060Y-134500828D01*
X153077631Y-136000828D02*
X153077631Y-134500828D01*
X151577631Y-135929400D02*
X151720488Y-136000828D01*
X151720488Y-136000828D02*
X152006203Y-136000828D01*
X152006203Y-136000828D02*
X152149060Y-135929400D01*
X152149060Y-135929400D02*
X152220488Y-135786542D01*
X152220488Y-135786542D02*
X152220488Y-135215114D01*
X152220488Y-135215114D02*
X152149060Y-135072257D01*
X152149060Y-135072257D02*
X152006203Y-135000828D01*
X152006203Y-135000828D02*
X151720488Y-135000828D01*
X151720488Y-135000828D02*
X151577631Y-135072257D01*
X151577631Y-135072257D02*
X151506203Y-135215114D01*
X151506203Y-135215114D02*
X151506203Y-135357971D01*
X151506203Y-135357971D02*
X152220488Y-135500828D01*
X150863346Y-136000828D02*
X150863346Y-135000828D01*
X150863346Y-134500828D02*
X150934774Y-134572257D01*
X150934774Y-134572257D02*
X150863346Y-134643685D01*
X150863346Y-134643685D02*
X150791917Y-134572257D01*
X150791917Y-134572257D02*
X150863346Y-134500828D01*
X150863346Y-134500828D02*
X150863346Y-134643685D01*
X150291917Y-136000828D02*
X149506203Y-135000828D01*
X150291917Y-135000828D02*
X149506203Y-136000828D01*
X148363345Y-135929400D02*
X148506202Y-136000828D01*
X148506202Y-136000828D02*
X148791917Y-136000828D01*
X148791917Y-136000828D02*
X148934774Y-135929400D01*
X148934774Y-135929400D02*
X149006202Y-135786542D01*
X149006202Y-135786542D02*
X149006202Y-135215114D01*
X149006202Y-135215114D02*
X148934774Y-135072257D01*
X148934774Y-135072257D02*
X148791917Y-135000828D01*
X148791917Y-135000828D02*
X148506202Y-135000828D01*
X148506202Y-135000828D02*
X148363345Y-135072257D01*
X148363345Y-135072257D02*
X148291917Y-135215114D01*
X148291917Y-135215114D02*
X148291917Y-135357971D01*
X148291917Y-135357971D02*
X149006202Y-135500828D01*
X147649060Y-136000828D02*
X147649060Y-135000828D01*
X147649060Y-134500828D02*
X147720488Y-134572257D01*
X147720488Y-134572257D02*
X147649060Y-134643685D01*
X147649060Y-134643685D02*
X147577631Y-134572257D01*
X147577631Y-134572257D02*
X147649060Y-134500828D01*
X147649060Y-134500828D02*
X147649060Y-134643685D01*
X146934774Y-136000828D02*
X146934774Y-135000828D01*
X146934774Y-135286542D02*
X146863345Y-135143685D01*
X146863345Y-135143685D02*
X146791917Y-135072257D01*
X146791917Y-135072257D02*
X146649059Y-135000828D01*
X146649059Y-135000828D02*
X146506202Y-135000828D01*
X145363346Y-136000828D02*
X145363346Y-135215114D01*
X145363346Y-135215114D02*
X145434774Y-135072257D01*
X145434774Y-135072257D02*
X145577631Y-135000828D01*
X145577631Y-135000828D02*
X145863346Y-135000828D01*
X145863346Y-135000828D02*
X146006203Y-135072257D01*
X145363346Y-135929400D02*
X145506203Y-136000828D01*
X145506203Y-136000828D02*
X145863346Y-136000828D01*
X145863346Y-136000828D02*
X146006203Y-135929400D01*
X146006203Y-135929400D02*
X146077631Y-135786542D01*
X146077631Y-135786542D02*
X146077631Y-135643685D01*
X146077631Y-135643685D02*
X146006203Y-135500828D01*
X146006203Y-135500828D02*
X145863346Y-135429400D01*
X145863346Y-135429400D02*
X145506203Y-135429400D01*
X145506203Y-135429400D02*
X145363346Y-135357971D01*
D10*
X165480440Y-122853571D02*
X165504250Y-122829762D01*
X165504250Y-122829762D02*
X165528059Y-122758333D01*
X165528059Y-122758333D02*
X165528059Y-122710714D01*
X165528059Y-122710714D02*
X165504250Y-122639286D01*
X165504250Y-122639286D02*
X165456630Y-122591667D01*
X165456630Y-122591667D02*
X165409011Y-122567857D01*
X165409011Y-122567857D02*
X165313773Y-122544048D01*
X165313773Y-122544048D02*
X165242345Y-122544048D01*
X165242345Y-122544048D02*
X165147107Y-122567857D01*
X165147107Y-122567857D02*
X165099488Y-122591667D01*
X165099488Y-122591667D02*
X165051869Y-122639286D01*
X165051869Y-122639286D02*
X165028059Y-122710714D01*
X165028059Y-122710714D02*
X165028059Y-122758333D01*
X165028059Y-122758333D02*
X165051869Y-122829762D01*
X165051869Y-122829762D02*
X165075678Y-122853571D01*
X165528059Y-123329762D02*
X165528059Y-123044048D01*
X165528059Y-123186905D02*
X165028059Y-123186905D01*
X165028059Y-123186905D02*
X165099488Y-123139286D01*
X165099488Y-123139286D02*
X165147107Y-123091667D01*
X165147107Y-123091667D02*
X165170916Y-123044048D01*
X165242345Y-123615476D02*
X165218535Y-123567857D01*
X165218535Y-123567857D02*
X165194726Y-123544047D01*
X165194726Y-123544047D02*
X165147107Y-123520238D01*
X165147107Y-123520238D02*
X165123297Y-123520238D01*
X165123297Y-123520238D02*
X165075678Y-123544047D01*
X165075678Y-123544047D02*
X165051869Y-123567857D01*
X165051869Y-123567857D02*
X165028059Y-123615476D01*
X165028059Y-123615476D02*
X165028059Y-123710714D01*
X165028059Y-123710714D02*
X165051869Y-123758333D01*
X165051869Y-123758333D02*
X165075678Y-123782142D01*
X165075678Y-123782142D02*
X165123297Y-123805952D01*
X165123297Y-123805952D02*
X165147107Y-123805952D01*
X165147107Y-123805952D02*
X165194726Y-123782142D01*
X165194726Y-123782142D02*
X165218535Y-123758333D01*
X165218535Y-123758333D02*
X165242345Y-123710714D01*
X165242345Y-123710714D02*
X165242345Y-123615476D01*
X165242345Y-123615476D02*
X165266154Y-123567857D01*
X165266154Y-123567857D02*
X165289964Y-123544047D01*
X165289964Y-123544047D02*
X165337583Y-123520238D01*
X165337583Y-123520238D02*
X165432821Y-123520238D01*
X165432821Y-123520238D02*
X165480440Y-123544047D01*
X165480440Y-123544047D02*
X165504250Y-123567857D01*
X165504250Y-123567857D02*
X165528059Y-123615476D01*
X165528059Y-123615476D02*
X165528059Y-123710714D01*
X165528059Y-123710714D02*
X165504250Y-123758333D01*
X165504250Y-123758333D02*
X165480440Y-123782142D01*
X165480440Y-123782142D02*
X165432821Y-123805952D01*
X165432821Y-123805952D02*
X165337583Y-123805952D01*
X165337583Y-123805952D02*
X165289964Y-123782142D01*
X165289964Y-123782142D02*
X165266154Y-123758333D01*
X165266154Y-123758333D02*
X165242345Y-123710714D01*
D11*
X185109580Y-130607142D02*
X185157200Y-130559523D01*
X185157200Y-130559523D02*
X185204819Y-130416666D01*
X185204819Y-130416666D02*
X185204819Y-130321428D01*
X185204819Y-130321428D02*
X185157200Y-130178571D01*
X185157200Y-130178571D02*
X185061961Y-130083333D01*
X185061961Y-130083333D02*
X184966723Y-130035714D01*
X184966723Y-130035714D02*
X184776247Y-129988095D01*
X184776247Y-129988095D02*
X184633390Y-129988095D01*
X184633390Y-129988095D02*
X184442914Y-130035714D01*
X184442914Y-130035714D02*
X184347676Y-130083333D01*
X184347676Y-130083333D02*
X184252438Y-130178571D01*
X184252438Y-130178571D02*
X184204819Y-130321428D01*
X184204819Y-130321428D02*
X184204819Y-130416666D01*
X184204819Y-130416666D02*
X184252438Y-130559523D01*
X184252438Y-130559523D02*
X184300057Y-130607142D01*
X184300057Y-130988095D02*
X184252438Y-131035714D01*
X184252438Y-131035714D02*
X184204819Y-131130952D01*
X184204819Y-131130952D02*
X184204819Y-131369047D01*
X184204819Y-131369047D02*
X184252438Y-131464285D01*
X184252438Y-131464285D02*
X184300057Y-131511904D01*
X184300057Y-131511904D02*
X184395295Y-131559523D01*
X184395295Y-131559523D02*
X184490533Y-131559523D01*
X184490533Y-131559523D02*
X184633390Y-131511904D01*
X184633390Y-131511904D02*
X185204819Y-130940476D01*
X185204819Y-130940476D02*
X185204819Y-131559523D01*
X184204819Y-131892857D02*
X184204819Y-132559523D01*
X184204819Y-132559523D02*
X185204819Y-132130952D01*
X139109580Y-97357142D02*
X139157200Y-97309523D01*
X139157200Y-97309523D02*
X139204819Y-97166666D01*
X139204819Y-97166666D02*
X139204819Y-97071428D01*
X139204819Y-97071428D02*
X139157200Y-96928571D01*
X139157200Y-96928571D02*
X139061961Y-96833333D01*
X139061961Y-96833333D02*
X138966723Y-96785714D01*
X138966723Y-96785714D02*
X138776247Y-96738095D01*
X138776247Y-96738095D02*
X138633390Y-96738095D01*
X138633390Y-96738095D02*
X138442914Y-96785714D01*
X138442914Y-96785714D02*
X138347676Y-96833333D01*
X138347676Y-96833333D02*
X138252438Y-96928571D01*
X138252438Y-96928571D02*
X138204819Y-97071428D01*
X138204819Y-97071428D02*
X138204819Y-97166666D01*
X138204819Y-97166666D02*
X138252438Y-97309523D01*
X138252438Y-97309523D02*
X138300057Y-97357142D01*
X139204819Y-98309523D02*
X139204819Y-97738095D01*
X139204819Y-98023809D02*
X138204819Y-98023809D01*
X138204819Y-98023809D02*
X138347676Y-97928571D01*
X138347676Y-97928571D02*
X138442914Y-97833333D01*
X138442914Y-97833333D02*
X138490533Y-97738095D01*
X138204819Y-99166666D02*
X138204819Y-98976190D01*
X138204819Y-98976190D02*
X138252438Y-98880952D01*
X138252438Y-98880952D02*
X138300057Y-98833333D01*
X138300057Y-98833333D02*
X138442914Y-98738095D01*
X138442914Y-98738095D02*
X138633390Y-98690476D01*
X138633390Y-98690476D02*
X139014342Y-98690476D01*
X139014342Y-98690476D02*
X139109580Y-98738095D01*
X139109580Y-98738095D02*
X139157200Y-98785714D01*
X139157200Y-98785714D02*
X139204819Y-98880952D01*
X139204819Y-98880952D02*
X139204819Y-99071428D01*
X139204819Y-99071428D02*
X139157200Y-99166666D01*
X139157200Y-99166666D02*
X139109580Y-99214285D01*
X139109580Y-99214285D02*
X139014342Y-99261904D01*
X139014342Y-99261904D02*
X138776247Y-99261904D01*
X138776247Y-99261904D02*
X138681009Y-99214285D01*
X138681009Y-99214285D02*
X138633390Y-99166666D01*
X138633390Y-99166666D02*
X138585771Y-99071428D01*
X138585771Y-99071428D02*
X138585771Y-98880952D01*
X138585771Y-98880952D02*
X138633390Y-98785714D01*
X138633390Y-98785714D02*
X138681009Y-98738095D01*
X138681009Y-98738095D02*
X138776247Y-98690476D01*
D10*
X165430440Y-109178571D02*
X165454250Y-109154762D01*
X165454250Y-109154762D02*
X165478059Y-109083333D01*
X165478059Y-109083333D02*
X165478059Y-109035714D01*
X165478059Y-109035714D02*
X165454250Y-108964286D01*
X165454250Y-108964286D02*
X165406630Y-108916667D01*
X165406630Y-108916667D02*
X165359011Y-108892857D01*
X165359011Y-108892857D02*
X165263773Y-108869048D01*
X165263773Y-108869048D02*
X165192345Y-108869048D01*
X165192345Y-108869048D02*
X165097107Y-108892857D01*
X165097107Y-108892857D02*
X165049488Y-108916667D01*
X165049488Y-108916667D02*
X165001869Y-108964286D01*
X165001869Y-108964286D02*
X164978059Y-109035714D01*
X164978059Y-109035714D02*
X164978059Y-109083333D01*
X164978059Y-109083333D02*
X165001869Y-109154762D01*
X165001869Y-109154762D02*
X165025678Y-109178571D01*
X165478059Y-109654762D02*
X165478059Y-109369048D01*
X165478059Y-109511905D02*
X164978059Y-109511905D01*
X164978059Y-109511905D02*
X165049488Y-109464286D01*
X165049488Y-109464286D02*
X165097107Y-109416667D01*
X165097107Y-109416667D02*
X165120916Y-109369048D01*
X165478059Y-109892857D02*
X165478059Y-109988095D01*
X165478059Y-109988095D02*
X165454250Y-110035714D01*
X165454250Y-110035714D02*
X165430440Y-110059523D01*
X165430440Y-110059523D02*
X165359011Y-110107142D01*
X165359011Y-110107142D02*
X165263773Y-110130952D01*
X165263773Y-110130952D02*
X165073297Y-110130952D01*
X165073297Y-110130952D02*
X165025678Y-110107142D01*
X165025678Y-110107142D02*
X165001869Y-110083333D01*
X165001869Y-110083333D02*
X164978059Y-110035714D01*
X164978059Y-110035714D02*
X164978059Y-109940476D01*
X164978059Y-109940476D02*
X165001869Y-109892857D01*
X165001869Y-109892857D02*
X165025678Y-109869047D01*
X165025678Y-109869047D02*
X165073297Y-109845238D01*
X165073297Y-109845238D02*
X165192345Y-109845238D01*
X165192345Y-109845238D02*
X165239964Y-109869047D01*
X165239964Y-109869047D02*
X165263773Y-109892857D01*
X165263773Y-109892857D02*
X165287583Y-109940476D01*
X165287583Y-109940476D02*
X165287583Y-110035714D01*
X165287583Y-110035714D02*
X165263773Y-110083333D01*
X165263773Y-110083333D02*
X165239964Y-110107142D01*
X165239964Y-110107142D02*
X165192345Y-110130952D01*
D11*
X185359580Y-97607142D02*
X185407200Y-97559523D01*
X185407200Y-97559523D02*
X185454819Y-97416666D01*
X185454819Y-97416666D02*
X185454819Y-97321428D01*
X185454819Y-97321428D02*
X185407200Y-97178571D01*
X185407200Y-97178571D02*
X185311961Y-97083333D01*
X185311961Y-97083333D02*
X185216723Y-97035714D01*
X185216723Y-97035714D02*
X185026247Y-96988095D01*
X185026247Y-96988095D02*
X184883390Y-96988095D01*
X184883390Y-96988095D02*
X184692914Y-97035714D01*
X184692914Y-97035714D02*
X184597676Y-97083333D01*
X184597676Y-97083333D02*
X184502438Y-97178571D01*
X184502438Y-97178571D02*
X184454819Y-97321428D01*
X184454819Y-97321428D02*
X184454819Y-97416666D01*
X184454819Y-97416666D02*
X184502438Y-97559523D01*
X184502438Y-97559523D02*
X184550057Y-97607142D01*
X184550057Y-97988095D02*
X184502438Y-98035714D01*
X184502438Y-98035714D02*
X184454819Y-98130952D01*
X184454819Y-98130952D02*
X184454819Y-98369047D01*
X184454819Y-98369047D02*
X184502438Y-98464285D01*
X184502438Y-98464285D02*
X184550057Y-98511904D01*
X184550057Y-98511904D02*
X184645295Y-98559523D01*
X184645295Y-98559523D02*
X184740533Y-98559523D01*
X184740533Y-98559523D02*
X184883390Y-98511904D01*
X184883390Y-98511904D02*
X185454819Y-97940476D01*
X185454819Y-97940476D02*
X185454819Y-98559523D01*
X184454819Y-99416666D02*
X184454819Y-99226190D01*
X184454819Y-99226190D02*
X184502438Y-99130952D01*
X184502438Y-99130952D02*
X184550057Y-99083333D01*
X184550057Y-99083333D02*
X184692914Y-98988095D01*
X184692914Y-98988095D02*
X184883390Y-98940476D01*
X184883390Y-98940476D02*
X185264342Y-98940476D01*
X185264342Y-98940476D02*
X185359580Y-98988095D01*
X185359580Y-98988095D02*
X185407200Y-99035714D01*
X185407200Y-99035714D02*
X185454819Y-99130952D01*
X185454819Y-99130952D02*
X185454819Y-99321428D01*
X185454819Y-99321428D02*
X185407200Y-99416666D01*
X185407200Y-99416666D02*
X185359580Y-99464285D01*
X185359580Y-99464285D02*
X185264342Y-99511904D01*
X185264342Y-99511904D02*
X185026247Y-99511904D01*
X185026247Y-99511904D02*
X184931009Y-99464285D01*
X184931009Y-99464285D02*
X184883390Y-99416666D01*
X184883390Y-99416666D02*
X184835771Y-99321428D01*
X184835771Y-99321428D02*
X184835771Y-99130952D01*
X184835771Y-99130952D02*
X184883390Y-99035714D01*
X184883390Y-99035714D02*
X184931009Y-98988095D01*
X184931009Y-98988095D02*
X185026247Y-98940476D01*
X138609580Y-129533333D02*
X138657200Y-129485714D01*
X138657200Y-129485714D02*
X138704819Y-129342857D01*
X138704819Y-129342857D02*
X138704819Y-129247619D01*
X138704819Y-129247619D02*
X138657200Y-129104762D01*
X138657200Y-129104762D02*
X138561961Y-129009524D01*
X138561961Y-129009524D02*
X138466723Y-128961905D01*
X138466723Y-128961905D02*
X138276247Y-128914286D01*
X138276247Y-128914286D02*
X138133390Y-128914286D01*
X138133390Y-128914286D02*
X137942914Y-128961905D01*
X137942914Y-128961905D02*
X137847676Y-129009524D01*
X137847676Y-129009524D02*
X137752438Y-129104762D01*
X137752438Y-129104762D02*
X137704819Y-129247619D01*
X137704819Y-129247619D02*
X137704819Y-129342857D01*
X137704819Y-129342857D02*
X137752438Y-129485714D01*
X137752438Y-129485714D02*
X137800057Y-129533333D01*
X138133390Y-130104762D02*
X138085771Y-130009524D01*
X138085771Y-130009524D02*
X138038152Y-129961905D01*
X138038152Y-129961905D02*
X137942914Y-129914286D01*
X137942914Y-129914286D02*
X137895295Y-129914286D01*
X137895295Y-129914286D02*
X137800057Y-129961905D01*
X137800057Y-129961905D02*
X137752438Y-130009524D01*
X137752438Y-130009524D02*
X137704819Y-130104762D01*
X137704819Y-130104762D02*
X137704819Y-130295238D01*
X137704819Y-130295238D02*
X137752438Y-130390476D01*
X137752438Y-130390476D02*
X137800057Y-130438095D01*
X137800057Y-130438095D02*
X137895295Y-130485714D01*
X137895295Y-130485714D02*
X137942914Y-130485714D01*
X137942914Y-130485714D02*
X138038152Y-130438095D01*
X138038152Y-130438095D02*
X138085771Y-130390476D01*
X138085771Y-130390476D02*
X138133390Y-130295238D01*
X138133390Y-130295238D02*
X138133390Y-130104762D01*
X138133390Y-130104762D02*
X138181009Y-130009524D01*
X138181009Y-130009524D02*
X138228628Y-129961905D01*
X138228628Y-129961905D02*
X138323866Y-129914286D01*
X138323866Y-129914286D02*
X138514342Y-129914286D01*
X138514342Y-129914286D02*
X138609580Y-129961905D01*
X138609580Y-129961905D02*
X138657200Y-130009524D01*
X138657200Y-130009524D02*
X138704819Y-130104762D01*
X138704819Y-130104762D02*
X138704819Y-130295238D01*
X138704819Y-130295238D02*
X138657200Y-130390476D01*
X138657200Y-130390476D02*
X138609580Y-130438095D01*
X138609580Y-130438095D02*
X138514342Y-130485714D01*
X138514342Y-130485714D02*
X138323866Y-130485714D01*
X138323866Y-130485714D02*
X138228628Y-130438095D01*
X138228628Y-130438095D02*
X138181009Y-130390476D01*
X138181009Y-130390476D02*
X138133390Y-130295238D01*
X163042857Y-126859580D02*
X163090476Y-126907200D01*
X163090476Y-126907200D02*
X163233333Y-126954819D01*
X163233333Y-126954819D02*
X163328571Y-126954819D01*
X163328571Y-126954819D02*
X163471428Y-126907200D01*
X163471428Y-126907200D02*
X163566666Y-126811961D01*
X163566666Y-126811961D02*
X163614285Y-126716723D01*
X163614285Y-126716723D02*
X163661904Y-126526247D01*
X163661904Y-126526247D02*
X163661904Y-126383390D01*
X163661904Y-126383390D02*
X163614285Y-126192914D01*
X163614285Y-126192914D02*
X163566666Y-126097676D01*
X163566666Y-126097676D02*
X163471428Y-126002438D01*
X163471428Y-126002438D02*
X163328571Y-125954819D01*
X163328571Y-125954819D02*
X163233333Y-125954819D01*
X163233333Y-125954819D02*
X163090476Y-126002438D01*
X163090476Y-126002438D02*
X163042857Y-126050057D01*
X162090476Y-126954819D02*
X162661904Y-126954819D01*
X162376190Y-126954819D02*
X162376190Y-125954819D01*
X162376190Y-125954819D02*
X162471428Y-126097676D01*
X162471428Y-126097676D02*
X162566666Y-126192914D01*
X162566666Y-126192914D02*
X162661904Y-126240533D01*
X161233333Y-126288152D02*
X161233333Y-126954819D01*
X161471428Y-125907200D02*
X161709523Y-126621485D01*
X161709523Y-126621485D02*
X161090476Y-126621485D01*
X156047819Y-114678810D02*
X155047819Y-114678810D01*
X155952580Y-115726428D02*
X156000200Y-115678809D01*
X156000200Y-115678809D02*
X156047819Y-115535952D01*
X156047819Y-115535952D02*
X156047819Y-115440714D01*
X156047819Y-115440714D02*
X156000200Y-115297857D01*
X156000200Y-115297857D02*
X155904961Y-115202619D01*
X155904961Y-115202619D02*
X155809723Y-115155000D01*
X155809723Y-115155000D02*
X155619247Y-115107381D01*
X155619247Y-115107381D02*
X155476390Y-115107381D01*
X155476390Y-115107381D02*
X155285914Y-115155000D01*
X155285914Y-115155000D02*
X155190676Y-115202619D01*
X155190676Y-115202619D02*
X155095438Y-115297857D01*
X155095438Y-115297857D02*
X155047819Y-115440714D01*
X155047819Y-115440714D02*
X155047819Y-115535952D01*
X155047819Y-115535952D02*
X155095438Y-115678809D01*
X155095438Y-115678809D02*
X155143057Y-115726428D01*
X155381152Y-116583571D02*
X156047819Y-116583571D01*
X155000200Y-116345476D02*
X155714485Y-116107381D01*
X155714485Y-116107381D02*
X155714485Y-116726428D01*
X158542857Y-126854819D02*
X158876190Y-126378628D01*
X159114285Y-126854819D02*
X159114285Y-125854819D01*
X159114285Y-125854819D02*
X158733333Y-125854819D01*
X158733333Y-125854819D02*
X158638095Y-125902438D01*
X158638095Y-125902438D02*
X158590476Y-125950057D01*
X158590476Y-125950057D02*
X158542857Y-126045295D01*
X158542857Y-126045295D02*
X158542857Y-126188152D01*
X158542857Y-126188152D02*
X158590476Y-126283390D01*
X158590476Y-126283390D02*
X158638095Y-126331009D01*
X158638095Y-126331009D02*
X158733333Y-126378628D01*
X158733333Y-126378628D02*
X159114285Y-126378628D01*
X157590476Y-126854819D02*
X158161904Y-126854819D01*
X157876190Y-126854819D02*
X157876190Y-125854819D01*
X157876190Y-125854819D02*
X157971428Y-125997676D01*
X157971428Y-125997676D02*
X158066666Y-126092914D01*
X158066666Y-126092914D02*
X158161904Y-126140533D01*
X157209523Y-125950057D02*
X157161904Y-125902438D01*
X157161904Y-125902438D02*
X157066666Y-125854819D01*
X157066666Y-125854819D02*
X156828571Y-125854819D01*
X156828571Y-125854819D02*
X156733333Y-125902438D01*
X156733333Y-125902438D02*
X156685714Y-125950057D01*
X156685714Y-125950057D02*
X156638095Y-126045295D01*
X156638095Y-126045295D02*
X156638095Y-126140533D01*
X156638095Y-126140533D02*
X156685714Y-126283390D01*
X156685714Y-126283390D02*
X157257142Y-126854819D01*
X157257142Y-126854819D02*
X156638095Y-126854819D01*
D13*
X159011904Y-96433609D02*
X158488095Y-96433609D01*
X158821428Y-95957419D02*
X158678571Y-95957419D01*
X158678571Y-95957419D02*
X158583333Y-96005038D01*
X158583333Y-96005038D02*
X158535714Y-96052657D01*
X158535714Y-96052657D02*
X158488095Y-96195514D01*
X158488095Y-96195514D02*
X158488095Y-96719323D01*
X158488095Y-96719323D02*
X158535714Y-96862180D01*
X158535714Y-96862180D02*
X158583333Y-96909800D01*
X158583333Y-96909800D02*
X158678571Y-96957419D01*
X158678571Y-96957419D02*
X158821428Y-96957419D01*
X158821428Y-96957419D02*
X158916666Y-96909800D01*
X158916666Y-96909800D02*
X158964285Y-96862180D01*
X158964285Y-96862180D02*
X159011904Y-96719323D01*
X159011904Y-96719323D02*
X159011904Y-96195514D01*
X159011904Y-96195514D02*
X158964285Y-96052657D01*
X158964285Y-96052657D02*
X158916666Y-96005038D01*
X158916666Y-96005038D02*
X158821428Y-95957419D01*
X162678571Y-96385990D02*
X162583333Y-96433609D01*
X162583333Y-96433609D02*
X162535714Y-96481228D01*
X162535714Y-96481228D02*
X162488095Y-96576466D01*
X162488095Y-96576466D02*
X162488095Y-96766942D01*
X162488095Y-96766942D02*
X162535714Y-96862180D01*
X162535714Y-96862180D02*
X162583333Y-96909800D01*
X162583333Y-96909800D02*
X162678571Y-96957419D01*
X162678571Y-96957419D02*
X162821428Y-96957419D01*
X162821428Y-96957419D02*
X162916666Y-96909800D01*
X162916666Y-96909800D02*
X162964285Y-96862180D01*
X163059523Y-97290752D02*
X163011904Y-97243133D01*
X163011904Y-97243133D02*
X162964285Y-97147895D01*
X162964285Y-97147895D02*
X162964285Y-96100276D01*
X162964285Y-96100276D02*
X162916666Y-96005038D01*
X162916666Y-96005038D02*
X162821428Y-95957419D01*
X162821428Y-95957419D02*
X162678571Y-95957419D01*
X162678571Y-95957419D02*
X162583333Y-96005038D01*
X162583333Y-96005038D02*
X162535714Y-96100276D01*
X162535714Y-96100276D02*
X162535714Y-96243133D01*
X162535714Y-96243133D02*
X162583333Y-96338371D01*
X162583333Y-96338371D02*
X162678571Y-96385990D01*
X162678571Y-96385990D02*
X162773809Y-96385990D01*
X159035713Y-101540752D02*
X159035713Y-102540752D01*
X158559523Y-102064561D02*
X158511904Y-102159800D01*
X158511904Y-102159800D02*
X158416666Y-102207419D01*
X159035713Y-102064561D02*
X158988094Y-102159800D01*
X158988094Y-102159800D02*
X158892856Y-102207419D01*
X158892856Y-102207419D02*
X158702380Y-102207419D01*
X158702380Y-102207419D02*
X158607142Y-102159800D01*
X158607142Y-102159800D02*
X158559523Y-102064561D01*
X158559523Y-102064561D02*
X158559523Y-101540752D01*
X162749999Y-101540752D02*
X162988094Y-102207419D01*
X162988094Y-101207419D02*
X162892856Y-101207419D01*
X162892856Y-101207419D02*
X162845237Y-101255038D01*
X162845237Y-101255038D02*
X162749999Y-101540752D01*
X162749999Y-101540752D02*
X162511904Y-102207419D01*
X165083332Y-102207419D02*
X164749999Y-101207419D01*
X164749999Y-101207419D02*
X164416666Y-102207419D01*
X164416666Y-102207419D02*
X165083332Y-102207419D01*
X160535714Y-101540752D02*
X160535714Y-102207419D01*
X160869047Y-101540752D02*
X160869047Y-102064561D01*
X160869047Y-102064561D02*
X160916666Y-102159800D01*
X160916666Y-102159800D02*
X161011904Y-102207419D01*
X160345238Y-101540752D02*
X160964285Y-101540752D01*
X160964285Y-101540752D02*
X161059523Y-101588371D01*
X161059523Y-101588371D02*
X161107142Y-101683609D01*
X164440476Y-96290752D02*
X164583333Y-96766942D01*
X164583333Y-96766942D02*
X164630952Y-96862180D01*
X164630952Y-96862180D02*
X164678571Y-96909800D01*
X164678571Y-96909800D02*
X164773809Y-96957419D01*
X164773809Y-96957419D02*
X164869047Y-96957419D01*
X164869047Y-96957419D02*
X164964285Y-96909800D01*
X164964285Y-96909800D02*
X165011904Y-96862180D01*
X165011904Y-96862180D02*
X165059523Y-96719323D01*
X165059523Y-96719323D02*
X165059523Y-96528847D01*
X165059523Y-96528847D02*
X165011904Y-96385990D01*
X165011904Y-96385990D02*
X164964285Y-96338371D01*
X164964285Y-96338371D02*
X164869047Y-96290752D01*
X164869047Y-96290752D02*
X164773809Y-96290752D01*
X164773809Y-96290752D02*
X164678571Y-96338371D01*
X164678571Y-96338371D02*
X164630952Y-96385990D01*
X164630952Y-96385990D02*
X164583333Y-96481228D01*
X164583333Y-96481228D02*
X164535714Y-96814561D01*
X164535714Y-96814561D02*
X164488095Y-96909800D01*
X164488095Y-96909800D02*
X164392857Y-96957419D01*
X160749999Y-96862180D02*
X160749999Y-97290752D01*
X161035713Y-96290752D02*
X160988094Y-96290752D01*
X160988094Y-96290752D02*
X160940475Y-96338371D01*
X160940475Y-96338371D02*
X160749999Y-96862180D01*
X160749999Y-96862180D02*
X160511904Y-96290752D01*
D14*
%TO.C,C15*%
X160365000Y-108463748D02*
X160365000Y-109886252D01*
X162185000Y-108463748D02*
X162185000Y-109886252D01*
%TO.C,C27*%
X181765000Y-131698752D02*
X181765000Y-130276248D01*
X183585000Y-131698752D02*
X183585000Y-130276248D01*
%TO.C,C16*%
X139740000Y-96938748D02*
X139740000Y-98361252D01*
X141560000Y-96938748D02*
X141560000Y-98361252D01*
%TO.C,C26*%
X181690000Y-97663748D02*
X181690000Y-99086252D01*
X183510000Y-97663748D02*
X183510000Y-99086252D01*
D15*
%TO.C,G\u002A\u002A\u002A*%
G36*
X149423222Y-126322457D02*
G01*
X149398908Y-126360481D01*
X149398217Y-126361165D01*
X149359202Y-126383862D01*
X149315390Y-126387017D01*
X149274516Y-126373210D01*
X149244318Y-126345018D01*
X149234576Y-126311954D01*
X149308788Y-126311954D01*
X149319507Y-126334194D01*
X149344521Y-126345006D01*
X149372137Y-126342277D01*
X149390659Y-126324251D01*
X149393484Y-126301320D01*
X149377202Y-126282463D01*
X149341583Y-126279585D01*
X149319945Y-126287390D01*
X149308788Y-126311954D01*
X149234576Y-126311954D01*
X149232533Y-126305022D01*
X149237814Y-126275091D01*
X149262074Y-126242390D01*
X149300000Y-126225863D01*
X149344906Y-126227820D01*
X149390106Y-126250570D01*
X149419870Y-126285248D01*
X149421318Y-126301320D01*
X149423222Y-126322457D01*
G37*
G36*
X149272666Y-127011519D02*
G01*
X149236776Y-127053350D01*
X149212584Y-127068231D01*
X149158477Y-127081693D01*
X149103830Y-127074643D01*
X149058595Y-127047410D01*
X149034650Y-127014488D01*
X149027436Y-126981707D01*
X149100382Y-126981707D01*
X149115727Y-127013271D01*
X149121485Y-127018838D01*
X149157289Y-127036259D01*
X149197684Y-127038091D01*
X149229760Y-127023210D01*
X149233388Y-127019259D01*
X149247068Y-126985373D01*
X149238500Y-126951489D01*
X149209905Y-126928234D01*
X149167697Y-126921320D01*
X149131617Y-126930991D01*
X149107429Y-126952700D01*
X149100382Y-126981707D01*
X149027436Y-126981707D01*
X149025054Y-126970884D01*
X149036041Y-126930024D01*
X149063812Y-126896144D01*
X149104569Y-126873477D01*
X149154516Y-126866259D01*
X149209855Y-126878725D01*
X149229960Y-126888744D01*
X149268440Y-126923905D01*
X149282948Y-126966601D01*
X149278651Y-126985373D01*
X149272666Y-127011519D01*
G37*
G36*
X149343404Y-126625459D02*
G01*
X149332860Y-126655465D01*
X149309418Y-126686930D01*
X149306279Y-126689965D01*
X149259973Y-126716378D01*
X149208677Y-126717198D01*
X149158147Y-126692225D01*
X149147054Y-126682224D01*
X149124663Y-126643258D01*
X149124635Y-126639330D01*
X149192740Y-126639330D01*
X149210920Y-126659382D01*
X149214460Y-126662006D01*
X149235636Y-126675344D01*
X149254294Y-126676003D01*
X149284525Y-126665070D01*
X149306516Y-126650615D01*
X149314311Y-126624614D01*
X149295687Y-126596813D01*
X149264800Y-126584700D01*
X149227513Y-126590718D01*
X149199287Y-126614322D01*
X149197660Y-126617081D01*
X149192740Y-126639330D01*
X149124635Y-126639330D01*
X149124366Y-126601876D01*
X149143444Y-126564440D01*
X149179177Y-126537312D01*
X149228845Y-126526856D01*
X149257308Y-126531253D01*
X149299525Y-126552858D01*
X149331059Y-126586131D01*
X149343450Y-126623909D01*
X149343429Y-126624614D01*
X149343404Y-126625459D01*
G37*
G36*
X149220778Y-127409493D02*
G01*
X149193654Y-127443898D01*
X149145807Y-127466998D01*
X149122583Y-127471601D01*
X149067387Y-127469495D01*
X149021517Y-127450754D01*
X148988565Y-127419692D01*
X148972725Y-127382056D01*
X149041369Y-127382056D01*
X149060215Y-127406270D01*
X149087637Y-127421155D01*
X149130920Y-127426800D01*
X149173608Y-127418875D01*
X149181403Y-127413160D01*
X149190180Y-127388036D01*
X149186246Y-127356481D01*
X149170099Y-127330969D01*
X149164059Y-127326582D01*
X149126448Y-127314683D01*
X149086352Y-127319077D01*
X149056840Y-127338854D01*
X149043359Y-127359926D01*
X149041369Y-127382056D01*
X148972725Y-127382056D01*
X148972122Y-127380623D01*
X148975782Y-127337859D01*
X149003136Y-127295713D01*
X149012588Y-127286967D01*
X149048441Y-127267237D01*
X149097574Y-127261681D01*
X149148082Y-127269620D01*
X149190831Y-127293844D01*
X149218065Y-127328924D01*
X149228481Y-127369321D01*
X149224892Y-127388036D01*
X149220778Y-127409493D01*
G37*
G36*
X147248542Y-131726536D02*
G01*
X147270465Y-131731729D01*
X147270857Y-131731829D01*
X147312393Y-131751957D01*
X147358011Y-131788008D01*
X147398654Y-131831631D01*
X147425264Y-131874475D01*
X147426280Y-131877069D01*
X147432221Y-131901182D01*
X147436798Y-131939134D01*
X147440137Y-131993701D01*
X147442365Y-132067659D01*
X147443609Y-132163784D01*
X147443996Y-132284853D01*
X147443654Y-132377951D01*
X147442619Y-132467466D01*
X147440991Y-132544269D01*
X147438876Y-132604605D01*
X147436377Y-132644721D01*
X147433597Y-132660863D01*
X147432605Y-132661770D01*
X147407507Y-132667543D01*
X147368541Y-132661218D01*
X147324759Y-132645178D01*
X147285215Y-132621806D01*
X147278456Y-132616602D01*
X147254458Y-132596353D01*
X147235518Y-132575006D01*
X147221038Y-132549234D01*
X147210423Y-132515706D01*
X147203076Y-132471095D01*
X147198399Y-132412072D01*
X147195798Y-132335307D01*
X147194674Y-132237471D01*
X147194432Y-132115237D01*
X147194434Y-132058737D01*
X147194648Y-131954442D01*
X147195610Y-131873746D01*
X147197882Y-131813816D01*
X147202025Y-131771820D01*
X147208602Y-131744926D01*
X147218172Y-131730302D01*
X147231299Y-131725116D01*
X147248542Y-131726536D01*
G37*
G36*
X148706582Y-131741337D02*
G01*
X148787023Y-131747144D01*
X148848178Y-131759480D01*
X148894926Y-131780020D01*
X148932148Y-131810444D01*
X148964722Y-131852428D01*
X149003766Y-131911617D01*
X148999167Y-132293409D01*
X148999070Y-132301395D01*
X148997593Y-132401184D01*
X148995798Y-132491632D01*
X148993793Y-132569063D01*
X148991687Y-132629798D01*
X148989587Y-132670161D01*
X148987602Y-132686472D01*
X148986242Y-132688189D01*
X148964689Y-132691460D01*
X148925475Y-132679095D01*
X148872394Y-132652222D01*
X148824343Y-132617125D01*
X148781859Y-132561104D01*
X148757070Y-132488222D01*
X148748326Y-132395060D01*
X148747271Y-132308406D01*
X148605158Y-132308254D01*
X148561072Y-132308005D01*
X148480228Y-132305799D01*
X148422650Y-132300870D01*
X148385293Y-132292675D01*
X148365112Y-132280669D01*
X148359061Y-132264310D01*
X148369611Y-132219834D01*
X148399727Y-132169303D01*
X148442926Y-132122198D01*
X148492682Y-132085558D01*
X148542471Y-132066425D01*
X148566704Y-132063177D01*
X148616851Y-132058566D01*
X148671015Y-132055342D01*
X148671058Y-132055341D01*
X148717181Y-132052625D01*
X148742081Y-132047355D01*
X148752256Y-132036555D01*
X148754203Y-132017249D01*
X148754203Y-131982588D01*
X148525437Y-131975655D01*
X148477943Y-131974147D01*
X148397923Y-131970561D01*
X148341799Y-131965015D01*
X148306981Y-131955853D01*
X148290878Y-131941416D01*
X148290901Y-131920046D01*
X148304461Y-131890085D01*
X148328966Y-131849875D01*
X148356212Y-131811609D01*
X148388145Y-131780948D01*
X148427223Y-131760293D01*
X148478559Y-131747834D01*
X148547264Y-131741760D01*
X148638449Y-131740261D01*
X148706582Y-131741337D01*
G37*
G36*
X150823116Y-128289565D02*
G01*
X150807260Y-128355942D01*
X150792382Y-128389629D01*
X150747292Y-128461370D01*
X150686881Y-128534186D01*
X150617655Y-128601415D01*
X150546120Y-128656391D01*
X150478780Y-128692450D01*
X150403617Y-128711645D01*
X150302613Y-128713293D01*
X150194176Y-128691363D01*
X150169341Y-128683556D01*
X150075774Y-128647349D01*
X150005438Y-128605695D01*
X149954694Y-128555190D01*
X149919898Y-128492431D01*
X149897410Y-128414016D01*
X149890360Y-128381280D01*
X149879996Y-128340008D01*
X149871888Y-128315393D01*
X149868432Y-128305686D01*
X149861816Y-128265037D01*
X149858808Y-128210110D01*
X149858937Y-128197544D01*
X149893785Y-128197544D01*
X149897651Y-128255251D01*
X149923832Y-128354499D01*
X149972670Y-128442112D01*
X150041746Y-128514281D01*
X150128640Y-128567198D01*
X150152911Y-128576118D01*
X150216908Y-128590810D01*
X150290175Y-128599681D01*
X150360911Y-128601578D01*
X150417317Y-128595351D01*
X150458279Y-128573234D01*
X150497991Y-128527139D01*
X150532364Y-128461548D01*
X150558647Y-128380643D01*
X150569758Y-128329387D01*
X150574619Y-128284068D01*
X150572821Y-128235743D01*
X150564714Y-128172374D01*
X150556761Y-128124867D01*
X150537503Y-128037360D01*
X150514364Y-127958244D01*
X150489053Y-127892314D01*
X150463280Y-127844364D01*
X150438755Y-127819191D01*
X150419756Y-127812133D01*
X150367636Y-127804597D01*
X150302591Y-127804523D01*
X150233502Y-127811260D01*
X150169251Y-127824159D01*
X150118719Y-127842573D01*
X150088362Y-127859370D01*
X150003265Y-127923900D01*
X149942457Y-128001794D01*
X149905956Y-128093019D01*
X149893785Y-128197544D01*
X149858937Y-128197544D01*
X149859420Y-128150482D01*
X149863664Y-128095731D01*
X149871553Y-128055435D01*
X149886360Y-128013482D01*
X149942414Y-127897668D01*
X150013099Y-127804618D01*
X150097825Y-127734855D01*
X150196001Y-127688908D01*
X150307037Y-127667302D01*
X150406624Y-127670832D01*
X150511157Y-127698692D01*
X150607956Y-127748754D01*
X150692733Y-127818147D01*
X150761196Y-127904000D01*
X150809058Y-128003439D01*
X150819701Y-128044245D01*
X150829394Y-128122480D01*
X150830513Y-128207999D01*
X150823615Y-128284068D01*
X150823116Y-128289565D01*
G37*
G36*
X147922089Y-131726295D02*
G01*
X147985458Y-131728189D01*
X148030965Y-131732755D01*
X148065122Y-131740821D01*
X148094442Y-131753213D01*
X148116533Y-131766043D01*
X148166475Y-131806266D01*
X148206368Y-131853255D01*
X148228358Y-131898493D01*
X148229117Y-131903040D01*
X148231071Y-131933862D01*
X148232367Y-131986342D01*
X148232956Y-132055891D01*
X148232790Y-132137916D01*
X148231821Y-132227827D01*
X148227347Y-132525543D01*
X148187363Y-132577927D01*
X148177920Y-132589252D01*
X148135554Y-132627891D01*
X148090310Y-132656227D01*
X148088578Y-132657007D01*
X148063922Y-132666346D01*
X148035077Y-132673099D01*
X147997338Y-132677665D01*
X147945996Y-132680444D01*
X147876346Y-132681834D01*
X147783679Y-132682234D01*
X147710925Y-132681787D01*
X147637533Y-132680270D01*
X147577489Y-132677872D01*
X147535586Y-132674789D01*
X147516619Y-132671220D01*
X147510333Y-132665797D01*
X147506271Y-132647226D01*
X147515273Y-132612507D01*
X147527421Y-132580328D01*
X147560188Y-132521553D01*
X147603764Y-132479628D01*
X147662072Y-132452377D01*
X147739038Y-132437622D01*
X147838585Y-132433188D01*
X147984716Y-132433188D01*
X147984716Y-132363865D01*
X147984716Y-132294542D01*
X147814874Y-132294329D01*
X147813750Y-132294328D01*
X147746665Y-132293277D01*
X147688946Y-132290626D01*
X147646711Y-132286773D01*
X147626083Y-132282112D01*
X147622605Y-132279157D01*
X147616323Y-132254284D01*
X147624460Y-132216120D01*
X147644792Y-132171666D01*
X147675094Y-132127923D01*
X147695727Y-132106073D01*
X147746098Y-132071412D01*
X147810346Y-132050832D01*
X147894596Y-132041934D01*
X147898046Y-132041794D01*
X147947832Y-132038861D01*
X147976102Y-132033917D01*
X147988744Y-132025042D01*
X147991649Y-132010317D01*
X147991153Y-132003186D01*
X147986693Y-131994793D01*
X147974260Y-131988866D01*
X147949903Y-131984852D01*
X147909672Y-131982200D01*
X147849614Y-131980358D01*
X147765780Y-131978775D01*
X147750884Y-131978520D01*
X147665744Y-131976617D01*
X147604361Y-131973550D01*
X147563280Y-131968142D01*
X147539042Y-131959220D01*
X147528191Y-131945610D01*
X147527269Y-131926135D01*
X147532821Y-131899623D01*
X147532921Y-131899230D01*
X147553048Y-131857694D01*
X147589100Y-131812076D01*
X147632723Y-131771434D01*
X147675566Y-131744824D01*
X147678524Y-131743663D01*
X147722397Y-131734069D01*
X147790756Y-131728128D01*
X147880839Y-131726092D01*
X147922089Y-131726295D01*
G37*
G36*
X152161687Y-129046936D02*
G01*
X152169832Y-129190751D01*
X152175819Y-129338108D01*
X152179371Y-129483902D01*
X152180209Y-129623028D01*
X152178056Y-129750382D01*
X152175003Y-129829704D01*
X152169299Y-129939040D01*
X152161997Y-130051791D01*
X152153530Y-130162770D01*
X152144332Y-130266789D01*
X152134835Y-130358660D01*
X152125474Y-130433196D01*
X152116682Y-130485208D01*
X152110862Y-130512772D01*
X152099530Y-130567605D01*
X152088124Y-130623854D01*
X152078607Y-130669748D01*
X152061901Y-130744342D01*
X152045273Y-130812364D01*
X152030434Y-130866928D01*
X152019102Y-130901146D01*
X152009074Y-130930409D01*
X151998505Y-130970470D01*
X151994090Y-130988933D01*
X151970059Y-131067307D01*
X151934674Y-131162484D01*
X151890389Y-131269143D01*
X151871240Y-131311726D01*
X151839656Y-131381964D01*
X151784928Y-131495629D01*
X151728658Y-131604817D01*
X151711879Y-131634942D01*
X151673300Y-131704208D01*
X151621307Y-131788483D01*
X151482664Y-131977166D01*
X151311806Y-132166670D01*
X151121043Y-132339746D01*
X150913288Y-132493495D01*
X150899160Y-132503129D01*
X150854245Y-132537270D01*
X150821017Y-132567936D01*
X150805519Y-132589727D01*
X150801170Y-132600706D01*
X150781611Y-132635346D01*
X150754599Y-132673578D01*
X150745574Y-132685193D01*
X150729924Y-132708180D01*
X150720428Y-132731362D01*
X150715706Y-132761619D01*
X150714381Y-132805835D01*
X150714860Y-132850848D01*
X150715074Y-132870891D01*
X150712715Y-132966655D01*
X150694474Y-133090378D01*
X150657973Y-133195464D01*
X150602461Y-133283863D01*
X150563605Y-133321885D01*
X150527185Y-133357523D01*
X150489989Y-133384908D01*
X150419156Y-133429088D01*
X150351008Y-133462514D01*
X150293978Y-133480732D01*
X150287574Y-133482022D01*
X150254299Y-133491846D01*
X150236747Y-133502336D01*
X150228269Y-133506584D01*
X150197768Y-133511286D01*
X150153384Y-133513849D01*
X150103422Y-133514265D01*
X150056189Y-133512527D01*
X150019988Y-133508626D01*
X150003126Y-133502555D01*
X150002998Y-133502355D01*
X149984905Y-133491380D01*
X149952515Y-133481851D01*
X149910784Y-133469646D01*
X149837835Y-133436627D01*
X149754561Y-133387904D01*
X149666006Y-133326217D01*
X149565691Y-133250847D01*
X149444172Y-133279176D01*
X149426634Y-133283249D01*
X149362400Y-133297942D01*
X149303301Y-133311160D01*
X149260262Y-133320449D01*
X149244938Y-133323522D01*
X149117622Y-133342839D01*
X148969108Y-133356302D01*
X148804564Y-133364068D01*
X148629160Y-133366290D01*
X148448064Y-133363124D01*
X148266444Y-133354725D01*
X148089469Y-133341246D01*
X147922308Y-133322843D01*
X147770129Y-133299671D01*
X147638100Y-133271884D01*
X147593127Y-133260677D01*
X147542915Y-133248230D01*
X149731659Y-133248230D01*
X149731691Y-133248962D01*
X149740069Y-133262390D01*
X149765157Y-133282134D01*
X149809714Y-133310096D01*
X149876499Y-133348179D01*
X149909266Y-133363274D01*
X149964607Y-133382685D01*
X150022077Y-133397834D01*
X150068651Y-133406874D01*
X150113112Y-133413814D01*
X150140666Y-133416096D01*
X150168231Y-133412743D01*
X150214894Y-133402147D01*
X150267929Y-133386636D01*
X150320681Y-133368532D01*
X150366494Y-133350157D01*
X150398711Y-133333834D01*
X150410675Y-133321885D01*
X150410246Y-133320932D01*
X150394665Y-133309677D01*
X150361210Y-133290916D01*
X150316066Y-133268161D01*
X150264976Y-133239848D01*
X150200571Y-133196639D01*
X150146576Y-133152894D01*
X150129449Y-133137109D01*
X150095001Y-133107637D01*
X150069605Y-133092604D01*
X150045504Y-133088383D01*
X150014939Y-133091345D01*
X149992828Y-133095635D01*
X149937670Y-133112720D01*
X149879279Y-133137512D01*
X149823567Y-133166734D01*
X149776450Y-133197112D01*
X149743843Y-133225369D01*
X149731659Y-133248230D01*
X147542915Y-133248230D01*
X147536380Y-133246610D01*
X147492522Y-133235817D01*
X147394801Y-133207634D01*
X147264671Y-133160326D01*
X147126144Y-133101108D01*
X147056961Y-133067536D01*
X150172491Y-133067536D01*
X150260563Y-133130170D01*
X150262949Y-133131862D01*
X150314019Y-133165868D01*
X150363974Y-133195699D01*
X150402321Y-133215071D01*
X150443305Y-133229936D01*
X150489086Y-133236553D01*
X150522769Y-133224290D01*
X150549993Y-133192276D01*
X150575689Y-133143457D01*
X150594830Y-133086790D01*
X150607353Y-133017796D01*
X150615146Y-132928848D01*
X150616471Y-132905609D01*
X150617917Y-132850848D01*
X150613287Y-132819274D01*
X150599903Y-132807543D01*
X150575086Y-132812311D01*
X150536157Y-132830234D01*
X150529350Y-132833414D01*
X150481822Y-132849550D01*
X150431538Y-132859598D01*
X150412579Y-132862479D01*
X150384800Y-132871489D01*
X150356099Y-132889257D01*
X150320607Y-132919740D01*
X150272457Y-132966898D01*
X150172491Y-133067536D01*
X147056961Y-133067536D01*
X146986199Y-133033198D01*
X146851814Y-132959815D01*
X146729967Y-132884176D01*
X146646368Y-132825360D01*
X146476069Y-132688211D01*
X146308570Y-132531163D01*
X146148687Y-132359226D01*
X146001236Y-132177409D01*
X145982394Y-132150393D01*
X147069987Y-132150393D01*
X147070102Y-132259980D01*
X147070571Y-132346552D01*
X147071620Y-132413495D01*
X147073474Y-132464197D01*
X147076358Y-132502045D01*
X147080497Y-132530425D01*
X147086116Y-132552725D01*
X147093440Y-132572332D01*
X147102694Y-132592631D01*
X147145943Y-132664724D01*
X147205028Y-132722505D01*
X147284552Y-132767994D01*
X147303702Y-132776175D01*
X147327449Y-132784268D01*
X147354922Y-132790423D01*
X147390120Y-132795005D01*
X147437044Y-132798382D01*
X147499694Y-132800919D01*
X147582072Y-132802983D01*
X147688177Y-132804940D01*
X147762008Y-132806071D01*
X147857759Y-132806913D01*
X147932291Y-132806475D01*
X147989570Y-132804600D01*
X148033563Y-132801131D01*
X148068236Y-132795913D01*
X148097556Y-132788789D01*
X148121259Y-132780974D01*
X148205466Y-132736481D01*
X148274970Y-132672699D01*
X148325611Y-132594235D01*
X148353228Y-132505695D01*
X148355000Y-132495352D01*
X148363145Y-132459107D01*
X148370926Y-132438028D01*
X148374593Y-132435762D01*
X148400428Y-132431388D01*
X148444302Y-132429508D01*
X148499268Y-132430529D01*
X148618678Y-132435877D01*
X148635561Y-132514254D01*
X148640094Y-132533162D01*
X148678303Y-132627613D01*
X148737481Y-132706752D01*
X148814620Y-132767342D01*
X148906714Y-132806146D01*
X148926998Y-132811166D01*
X148996179Y-132820025D01*
X149053212Y-132814364D01*
X149093784Y-132795081D01*
X149113587Y-132763073D01*
X149113922Y-132761033D01*
X149115902Y-132734615D01*
X149118088Y-132685011D01*
X149120364Y-132616052D01*
X149122615Y-132531570D01*
X149124725Y-132435396D01*
X149126579Y-132331363D01*
X149127653Y-132259372D01*
X149128832Y-132153281D01*
X149129026Y-132069548D01*
X149128121Y-132004763D01*
X149126007Y-131955516D01*
X149122570Y-131918396D01*
X149117699Y-131889993D01*
X149111280Y-131866897D01*
X149082815Y-131802690D01*
X149022694Y-131722215D01*
X148943531Y-131660051D01*
X148920943Y-131647378D01*
X148894330Y-131635609D01*
X148864449Y-131627761D01*
X148825185Y-131622785D01*
X148770424Y-131619631D01*
X148694049Y-131617251D01*
X148675183Y-131616779D01*
X148579637Y-131615569D01*
X148505769Y-131617558D01*
X148448495Y-131623515D01*
X148402731Y-131634206D01*
X148363390Y-131650399D01*
X148325387Y-131672860D01*
X148261154Y-131715406D01*
X148207472Y-131678204D01*
X148196066Y-131670557D01*
X148134564Y-131638152D01*
X148064470Y-131616746D01*
X147979685Y-131604935D01*
X147874112Y-131601310D01*
X147857999Y-131601383D01*
X147748154Y-131606969D01*
X147660375Y-131622130D01*
X147590835Y-131647813D01*
X147535706Y-131684962D01*
X147489160Y-131725829D01*
X147429385Y-131678528D01*
X147362488Y-131635889D01*
X147277951Y-131608642D01*
X147180862Y-131603933D01*
X147162945Y-131605116D01*
X147124311Y-131610705D01*
X147102016Y-131622114D01*
X147087523Y-131642904D01*
X147084905Y-131649798D01*
X147080017Y-131675746D01*
X147076202Y-131718427D01*
X147073376Y-131780039D01*
X147071455Y-131862779D01*
X147070354Y-131968846D01*
X147069991Y-132100437D01*
X147069987Y-132150393D01*
X145982394Y-132150393D01*
X145871031Y-131990720D01*
X145865158Y-131981395D01*
X145837696Y-131935254D01*
X145805279Y-131877838D01*
X145770565Y-131814205D01*
X145736208Y-131749417D01*
X145704863Y-131688533D01*
X145679186Y-131636614D01*
X145661833Y-131598721D01*
X145655459Y-131579913D01*
X145655372Y-131578880D01*
X145648972Y-131559013D01*
X145639689Y-131537019D01*
X150040893Y-131537019D01*
X150045155Y-131550069D01*
X150062209Y-131581456D01*
X150089351Y-131626365D01*
X150123820Y-131680031D01*
X150185061Y-131776709D01*
X150264968Y-131916023D01*
X150333620Y-132052080D01*
X150341175Y-132069548D01*
X150389558Y-132181410D01*
X150431322Y-132300543D01*
X150457451Y-132406010D01*
X150466485Y-132494340D01*
X150467058Y-132530544D01*
X150470279Y-132602014D01*
X150475392Y-132666853D01*
X150480446Y-132703107D01*
X150489914Y-132739021D01*
X150500744Y-132752074D01*
X150502414Y-132752012D01*
X150532247Y-132741135D01*
X150572940Y-132715352D01*
X150617541Y-132680116D01*
X150659096Y-132640881D01*
X150690655Y-132603101D01*
X150698413Y-132591277D01*
X150733573Y-132526678D01*
X150771574Y-132441773D01*
X150810353Y-132342122D01*
X150847844Y-132233288D01*
X150881984Y-132120833D01*
X150910706Y-132010317D01*
X150917838Y-131976638D01*
X150930519Y-131897114D01*
X150940358Y-131808858D01*
X150946901Y-131719069D01*
X150949692Y-131634942D01*
X150948276Y-131563674D01*
X150942198Y-131512462D01*
X150932030Y-131479055D01*
X150912405Y-131455428D01*
X150875135Y-131437625D01*
X150842031Y-131428840D01*
X150777311Y-131420327D01*
X150696945Y-131416050D01*
X150607762Y-131415973D01*
X150516589Y-131420056D01*
X150430254Y-131428262D01*
X150355583Y-131440551D01*
X150343509Y-131443211D01*
X150282951Y-131457986D01*
X150218127Y-131475654D01*
X150155272Y-131494303D01*
X150100624Y-131512021D01*
X150060419Y-131526897D01*
X150047054Y-131533825D01*
X150040893Y-131537019D01*
X145639689Y-131537019D01*
X145635523Y-131527150D01*
X145623792Y-131499164D01*
X145611662Y-131466255D01*
X149234390Y-131466255D01*
X149249730Y-131480442D01*
X149291478Y-131487315D01*
X149303842Y-131488241D01*
X149345499Y-131492934D01*
X149373924Y-131498419D01*
X149376473Y-131499074D01*
X149377844Y-131498640D01*
X149649617Y-131498640D01*
X149665802Y-131510563D01*
X149666695Y-131510819D01*
X149690341Y-131514786D01*
X149732422Y-131519825D01*
X149784457Y-131524911D01*
X149885780Y-131533825D01*
X149848471Y-131477447D01*
X149820384Y-131441721D01*
X149789788Y-131423988D01*
X149752757Y-131427611D01*
X149702352Y-131451352D01*
X149694915Y-131455610D01*
X149659181Y-131480551D01*
X149649617Y-131498640D01*
X149377844Y-131498640D01*
X149398655Y-131492054D01*
X149420988Y-131459903D01*
X149448712Y-131409463D01*
X149543957Y-131273750D01*
X149598627Y-131217597D01*
X149864555Y-131217597D01*
X149871769Y-131304127D01*
X149895032Y-131376680D01*
X149936517Y-131438401D01*
X149953739Y-131452225D01*
X149994500Y-131461616D01*
X150037765Y-131449022D01*
X150041835Y-131446706D01*
X150100724Y-131421142D01*
X150180981Y-131396446D01*
X150276776Y-131373718D01*
X150382279Y-131354056D01*
X150491657Y-131338559D01*
X150599080Y-131328327D01*
X150698717Y-131324457D01*
X150729661Y-131323987D01*
X150779651Y-131321405D01*
X150814120Y-131317116D01*
X150826965Y-131311726D01*
X150816768Y-131295107D01*
X150787588Y-131267186D01*
X150744325Y-131232030D01*
X150691901Y-131193270D01*
X150635237Y-131154540D01*
X150579255Y-131119472D01*
X150528876Y-131091698D01*
X150526123Y-131090330D01*
X150389656Y-131035402D01*
X150257166Y-131007832D01*
X150128339Y-131007587D01*
X150002856Y-131034632D01*
X149945362Y-131055568D01*
X149902621Y-131079629D01*
X149878086Y-131110447D01*
X149866988Y-131154333D01*
X149864555Y-131217597D01*
X149598627Y-131217597D01*
X149662439Y-131152054D01*
X149804984Y-131043478D01*
X149818796Y-131034417D01*
X149893465Y-130989063D01*
X149958587Y-130958591D01*
X150023414Y-130940243D01*
X150097199Y-130931258D01*
X150189192Y-130928876D01*
X150239450Y-130929994D01*
X150336312Y-130938566D01*
X150422756Y-130954577D01*
X150493099Y-130976813D01*
X150541657Y-131004063D01*
X150557258Y-131014408D01*
X150558347Y-131008884D01*
X150555636Y-130991631D01*
X150564279Y-130962151D01*
X150568689Y-130953649D01*
X150573042Y-130939548D01*
X150561454Y-130943493D01*
X150561051Y-130943717D01*
X150563600Y-130937777D01*
X150582291Y-130915506D01*
X150614146Y-130880299D01*
X150656185Y-130835552D01*
X150675057Y-130815528D01*
X150828938Y-130634535D01*
X150975154Y-130431085D01*
X151111008Y-130209538D01*
X151233801Y-129974252D01*
X151340834Y-129729585D01*
X151352329Y-129699363D01*
X151387521Y-129592927D01*
X151421748Y-129470161D01*
X151452759Y-129339571D01*
X151478307Y-129209662D01*
X151482477Y-129175179D01*
X151486469Y-129109451D01*
X151488853Y-129025250D01*
X151489702Y-128927793D01*
X151489087Y-128822301D01*
X151487079Y-128713993D01*
X151483752Y-128608088D01*
X151479176Y-128509806D01*
X151473424Y-128424366D01*
X151466567Y-128356987D01*
X151459962Y-128309869D01*
X151418117Y-128100734D01*
X151356653Y-127905849D01*
X151273608Y-127720691D01*
X151167022Y-127540738D01*
X151034935Y-127361468D01*
X151008129Y-127328534D01*
X150955377Y-127266403D01*
X150917517Y-127226502D01*
X150894009Y-127208369D01*
X150884314Y-127211543D01*
X150887894Y-127235562D01*
X150888060Y-127236131D01*
X150895902Y-127265131D01*
X150908522Y-127313900D01*
X150924177Y-127375508D01*
X150941129Y-127443027D01*
X150957638Y-127509528D01*
X150971963Y-127568083D01*
X150982365Y-127611763D01*
X150984943Y-127621502D01*
X150998121Y-127651623D01*
X151012542Y-127663756D01*
X151013347Y-127663774D01*
X151038508Y-127670195D01*
X151072599Y-127684670D01*
X151108576Y-127713888D01*
X151142388Y-127768096D01*
X151168505Y-127840117D01*
X151186666Y-127925186D01*
X151196612Y-128018538D01*
X151196925Y-128039166D01*
X151198083Y-128115408D01*
X151190817Y-128211032D01*
X151174555Y-128300646D01*
X151149037Y-128379484D01*
X151114002Y-128442782D01*
X151105648Y-128455536D01*
X151094537Y-128481568D01*
X151086462Y-128517937D01*
X151083498Y-128543193D01*
X151080300Y-128570439D01*
X151074932Y-128644872D01*
X151072194Y-128689456D01*
X151066438Y-128782582D01*
X151060516Y-128877750D01*
X151055351Y-128960098D01*
X151045729Y-129112609D01*
X151102723Y-129147078D01*
X151121121Y-129158974D01*
X151146257Y-129178845D01*
X151148815Y-129180867D01*
X151159716Y-129195844D01*
X151156078Y-129213605D01*
X151154558Y-129219420D01*
X151145955Y-129252329D01*
X151136200Y-129287240D01*
X151130912Y-129306163D01*
X151112517Y-129369345D01*
X151083956Y-129464797D01*
X151024436Y-129658077D01*
X150966125Y-129840044D01*
X150909670Y-130008972D01*
X150855715Y-130163140D01*
X150804907Y-130300824D01*
X150757891Y-130420299D01*
X150715315Y-130519844D01*
X150677823Y-130597733D01*
X150646061Y-130652244D01*
X150620676Y-130681654D01*
X150611131Y-130688261D01*
X150564303Y-130715125D01*
X150500115Y-130746720D01*
X150425466Y-130779934D01*
X150347255Y-130811654D01*
X150272380Y-130838769D01*
X150250317Y-130845755D01*
X150172194Y-130866349D01*
X150078662Y-130886447D01*
X149975767Y-130905165D01*
X149869555Y-130921618D01*
X149766071Y-130934921D01*
X149671360Y-130944188D01*
X149591469Y-130948536D01*
X149532442Y-130947079D01*
X149510445Y-130945696D01*
X149494773Y-130951298D01*
X149486882Y-130971204D01*
X149483625Y-130996227D01*
X149481564Y-131012064D01*
X149475781Y-131050881D01*
X149457591Y-131102978D01*
X149424028Y-131142490D01*
X149369141Y-131178210D01*
X149338548Y-131195556D01*
X149315977Y-131213343D01*
X149308702Y-131232410D01*
X149311289Y-131260485D01*
X149312477Y-131269674D01*
X149309755Y-131315577D01*
X149308984Y-131328575D01*
X149290137Y-131385640D01*
X149259740Y-131428475D01*
X149244821Y-131443579D01*
X149234390Y-131466255D01*
X145611662Y-131466255D01*
X145600901Y-131437059D01*
X145574520Y-131358999D01*
X145546705Y-131271675D01*
X145519514Y-131181776D01*
X145495002Y-131095994D01*
X145475227Y-131021017D01*
X145462245Y-130963537D01*
X145452513Y-130913332D01*
X145439552Y-130847460D01*
X145426769Y-130783297D01*
X145406144Y-130670401D01*
X145374025Y-130433350D01*
X145352279Y-130173536D01*
X145341009Y-129892946D01*
X145340315Y-129593567D01*
X145350298Y-129277386D01*
X145356442Y-129156729D01*
X145370946Y-128928040D01*
X145388569Y-128719958D01*
X145409947Y-128527755D01*
X145418958Y-128464445D01*
X145927786Y-128464445D01*
X145931665Y-128593255D01*
X145941756Y-128712099D01*
X145958273Y-128814520D01*
X145967951Y-128859261D01*
X145986218Y-128941422D01*
X146001500Y-129005627D01*
X146015441Y-129058246D01*
X146029681Y-129105648D01*
X146045864Y-129154203D01*
X146150113Y-129417038D01*
X146283340Y-129679361D01*
X146441678Y-129930023D01*
X146625044Y-130168890D01*
X146833352Y-130395829D01*
X146905014Y-130465821D01*
X147027465Y-130576326D01*
X147152864Y-130676816D01*
X147289045Y-130773405D01*
X147443842Y-130872206D01*
X147469189Y-130887599D01*
X147528927Y-130922990D01*
X147579101Y-130951487D01*
X147615058Y-130970490D01*
X147632148Y-130977402D01*
X147635702Y-130976234D01*
X147647888Y-130957612D01*
X147657040Y-130923501D01*
X147663794Y-130903974D01*
X147757931Y-130903974D01*
X147823928Y-130974530D01*
X147863599Y-131012046D01*
X147957345Y-131077818D01*
X148076591Y-131138617D01*
X148220106Y-131193998D01*
X148386660Y-131243514D01*
X148575022Y-131286717D01*
X148783962Y-131323160D01*
X148854347Y-131333213D01*
X148939191Y-131344218D01*
X149018124Y-131353401D01*
X149080415Y-131359447D01*
X149088186Y-131360055D01*
X149153639Y-131362949D01*
X149196394Y-131358098D01*
X149220600Y-131343106D01*
X149230406Y-131315577D01*
X149229961Y-131273117D01*
X149225600Y-131220282D01*
X149052293Y-131204441D01*
X148953825Y-131193695D01*
X148725743Y-131155689D01*
X148503837Y-131100849D01*
X148294429Y-131030887D01*
X148103841Y-130947516D01*
X148058191Y-130924393D01*
X148004027Y-130896126D01*
X147961742Y-130873103D01*
X147937847Y-130858805D01*
X147896991Y-130841562D01*
X147845015Y-130844320D01*
X147795841Y-130871365D01*
X147757931Y-130903974D01*
X147663794Y-130903974D01*
X147673960Y-130874579D01*
X147715412Y-130817781D01*
X147775536Y-130768369D01*
X147796556Y-130751968D01*
X147801813Y-130733035D01*
X147792867Y-130700619D01*
X147781248Y-130651850D01*
X147777345Y-130590662D01*
X147783218Y-130536447D01*
X147887664Y-130536447D01*
X147891742Y-130553055D01*
X147916315Y-130589599D01*
X147960247Y-130633258D01*
X148020234Y-130680440D01*
X148068756Y-130712696D01*
X148190870Y-130779494D01*
X148339287Y-130844532D01*
X148513062Y-130907481D01*
X148711250Y-130968015D01*
X148932902Y-131025806D01*
X149177074Y-131080527D01*
X149182372Y-131081620D01*
X149237793Y-131092012D01*
X149285985Y-131099374D01*
X149317038Y-131102172D01*
X149326723Y-131101684D01*
X149366788Y-131085451D01*
X149390951Y-131049028D01*
X149396360Y-130996227D01*
X149391976Y-130943009D01*
X149239465Y-130926998D01*
X149187471Y-130921098D01*
X149003384Y-130892639D01*
X148818311Y-130851539D01*
X148625453Y-130796124D01*
X148418016Y-130724721D01*
X148391195Y-130714682D01*
X148343171Y-130694648D01*
X148311921Y-130676337D01*
X148290618Y-130655144D01*
X148272437Y-130626459D01*
X148265538Y-130614486D01*
X148246992Y-130589047D01*
X148222962Y-130569879D01*
X148186410Y-130552281D01*
X148130295Y-130531554D01*
X148114190Y-130526029D01*
X148060330Y-130509023D01*
X148015762Y-130497064D01*
X147988835Y-130492458D01*
X147964126Y-130495258D01*
X147928530Y-130506274D01*
X147899601Y-130521500D01*
X147887664Y-130536447D01*
X147783218Y-130536447D01*
X147783423Y-130534552D01*
X147799162Y-130494037D01*
X147799564Y-130493468D01*
X147827866Y-130463500D01*
X147864111Y-130436168D01*
X147883709Y-130423203D01*
X147898703Y-130405703D01*
X147903969Y-130379501D01*
X147903163Y-130335136D01*
X147903207Y-130301755D01*
X147908870Y-130265243D01*
X148002673Y-130265243D01*
X148016587Y-130294487D01*
X148057040Y-130325633D01*
X148090318Y-130344986D01*
X148114231Y-130354325D01*
X148120978Y-130346031D01*
X148111693Y-130317956D01*
X148087510Y-130267955D01*
X148051657Y-130197203D01*
X148023192Y-130225668D01*
X148014456Y-130235417D01*
X148002673Y-130265243D01*
X147908870Y-130265243D01*
X147913771Y-130233638D01*
X147936773Y-130178408D01*
X147969828Y-130142946D01*
X147987989Y-130127900D01*
X147998581Y-130108613D01*
X147997912Y-130105265D01*
X147986594Y-130081412D01*
X147964182Y-130043335D01*
X147934450Y-129997565D01*
X147904761Y-129952365D01*
X147884854Y-129915635D01*
X147872581Y-129879467D01*
X147864775Y-129834452D01*
X147858270Y-129771179D01*
X147844073Y-129618908D01*
X147827870Y-129453950D01*
X147812687Y-129310504D01*
X147798125Y-129185169D01*
X147783787Y-129074547D01*
X147769272Y-128975238D01*
X147754183Y-128883843D01*
X147740628Y-128809559D01*
X147728141Y-128752804D01*
X147715662Y-128714476D01*
X147701159Y-128689925D01*
X147698478Y-128687697D01*
X147793279Y-128687697D01*
X147793617Y-128709385D01*
X147799647Y-128748318D01*
X147810962Y-128809522D01*
X147815184Y-128832461D01*
X147845573Y-129018177D01*
X147873123Y-129223035D01*
X147896903Y-129439511D01*
X147915986Y-129660079D01*
X147930973Y-129860932D01*
X148016769Y-129994174D01*
X148044927Y-130039837D01*
X148086875Y-130111924D01*
X148133878Y-130196009D01*
X148182011Y-130285048D01*
X148213808Y-130346031D01*
X148227347Y-130371998D01*
X148352129Y-130616579D01*
X148442249Y-130650681D01*
X148531079Y-130682561D01*
X148680470Y-130730243D01*
X148836905Y-130774076D01*
X148989795Y-130811161D01*
X149128548Y-130838597D01*
X149292395Y-130859167D01*
X149469168Y-130868692D01*
X149650778Y-130867389D01*
X149829522Y-130855541D01*
X149997697Y-130833428D01*
X150147598Y-130801332D01*
X150202520Y-130785988D01*
X150323991Y-130747153D01*
X150430428Y-130706119D01*
X150515537Y-130665213D01*
X150537827Y-130652519D01*
X150569228Y-130631722D01*
X150594864Y-130608127D01*
X150617919Y-130577135D01*
X150641579Y-130534144D01*
X150669028Y-130474553D01*
X150703452Y-130393761D01*
X150719821Y-130351955D01*
X150743889Y-130286116D01*
X150773397Y-130202501D01*
X150806846Y-130105566D01*
X150842736Y-129999770D01*
X150879565Y-129889569D01*
X150915835Y-129779423D01*
X150950045Y-129673789D01*
X150980694Y-129577124D01*
X151006283Y-129493887D01*
X151020713Y-129446543D01*
X151039114Y-129388016D01*
X151054295Y-129341785D01*
X151063952Y-129315003D01*
X151071616Y-129287240D01*
X151063669Y-129266947D01*
X151036227Y-129265265D01*
X150990266Y-129282623D01*
X150947726Y-129302866D01*
X150891273Y-129328780D01*
X150833897Y-129354385D01*
X150827142Y-129357354D01*
X150778140Y-129379266D01*
X150738524Y-129397592D01*
X150716328Y-129408624D01*
X150711195Y-129413919D01*
X150697990Y-129445917D01*
X150683476Y-129504805D01*
X150667801Y-129590018D01*
X150663658Y-129614886D01*
X150652006Y-129679896D01*
X150641891Y-129724276D01*
X150631596Y-129753262D01*
X150619407Y-129772089D01*
X150614833Y-129776115D01*
X150603609Y-129785995D01*
X150597436Y-129789905D01*
X150559987Y-129806462D01*
X150503725Y-129825595D01*
X150435301Y-129845563D01*
X150361361Y-129864621D01*
X150288555Y-129881026D01*
X150223531Y-129893036D01*
X150172938Y-129898908D01*
X150099072Y-129902893D01*
X150097522Y-129819788D01*
X150185201Y-129819788D01*
X150186420Y-129823274D01*
X150209989Y-129824027D01*
X150242079Y-129821215D01*
X150287808Y-129812791D01*
X150334922Y-129801118D01*
X150373812Y-129788606D01*
X150394869Y-129777665D01*
X150395773Y-129776115D01*
X150384923Y-129773564D01*
X150355600Y-129776426D01*
X150314576Y-129783569D01*
X150268622Y-129793859D01*
X150224513Y-129806163D01*
X150208091Y-129811408D01*
X150185201Y-129819788D01*
X150097522Y-129819788D01*
X150095225Y-129696638D01*
X150091378Y-129490382D01*
X150039767Y-129499166D01*
X150023060Y-129501933D01*
X149975752Y-129509486D01*
X149914896Y-129518981D01*
X149849509Y-129529005D01*
X149810485Y-129535061D01*
X149754428Y-129544248D01*
X149711759Y-129551848D01*
X149689501Y-129556648D01*
X149681461Y-129563691D01*
X149672047Y-129585976D01*
X149662283Y-129626327D01*
X149651427Y-129687924D01*
X149638735Y-129773948D01*
X149636200Y-129792058D01*
X149623883Y-129875232D01*
X149612409Y-129934809D01*
X149612309Y-129935329D01*
X149599116Y-129976087D01*
X149581943Y-130001242D01*
X149558426Y-130014533D01*
X149526203Y-130019698D01*
X149482912Y-130020473D01*
X149436795Y-130018789D01*
X149356343Y-130011481D01*
X149266468Y-129999554D01*
X149174588Y-129984279D01*
X149088124Y-129966927D01*
X149014496Y-129948769D01*
X148961122Y-129931077D01*
X148909531Y-129909521D01*
X148911840Y-129862864D01*
X149009111Y-129862864D01*
X149013393Y-129875548D01*
X149022331Y-129879074D01*
X149053989Y-129887330D01*
X149102495Y-129898182D01*
X149161774Y-129910209D01*
X149202983Y-129917944D01*
X149261334Y-129928005D01*
X149307322Y-129934861D01*
X149333543Y-129937342D01*
X149352874Y-129934809D01*
X149351470Y-129928155D01*
X149331562Y-129919311D01*
X149297590Y-129910207D01*
X149253993Y-129902771D01*
X149224956Y-129898375D01*
X149163065Y-129886355D01*
X149103907Y-129872193D01*
X149065514Y-129863194D01*
X149027678Y-129858701D01*
X149009111Y-129862864D01*
X148911840Y-129862864D01*
X148919026Y-129717685D01*
X148921698Y-129661255D01*
X148923596Y-129595920D01*
X148921757Y-129551085D01*
X148914893Y-129522424D01*
X148901715Y-129505608D01*
X148880932Y-129496310D01*
X148851255Y-129490202D01*
X148840290Y-129487989D01*
X148799725Y-129478040D01*
X148745038Y-129463228D01*
X148684880Y-129445861D01*
X148670174Y-129441483D01*
X148589913Y-129417760D01*
X148531899Y-129401076D01*
X148492436Y-129390496D01*
X148467833Y-129385086D01*
X148454393Y-129383911D01*
X148448424Y-129386037D01*
X148447947Y-129388914D01*
X148450978Y-129413002D01*
X148459409Y-129457101D01*
X148472241Y-129516232D01*
X148488476Y-129585421D01*
X148505070Y-129655494D01*
X148518972Y-129722780D01*
X148524507Y-129769767D01*
X148521133Y-129800039D01*
X148508310Y-129817180D01*
X148485499Y-129824775D01*
X148452160Y-129826410D01*
X148428598Y-129825000D01*
X148356748Y-129803330D01*
X148287310Y-129755067D01*
X148219390Y-129679646D01*
X148198858Y-129651905D01*
X148174675Y-129614305D01*
X148159197Y-129578284D01*
X148148672Y-129534111D01*
X148139347Y-129472057D01*
X148136885Y-129454122D01*
X148127200Y-129388938D01*
X148117324Y-129329189D01*
X148109055Y-129285917D01*
X148104490Y-129263484D01*
X148094309Y-129208303D01*
X148081424Y-129134300D01*
X148066721Y-129046781D01*
X148051087Y-128951052D01*
X148035408Y-128852419D01*
X148020570Y-128756188D01*
X148018825Y-128744974D01*
X148009768Y-128694656D01*
X148001013Y-128656905D01*
X147994238Y-128639180D01*
X147986467Y-128637118D01*
X147958033Y-128640883D01*
X147918544Y-128652520D01*
X147897030Y-128659691D01*
X147853212Y-128671364D01*
X147821807Y-128675942D01*
X147811313Y-128675948D01*
X147799041Y-128678227D01*
X147793279Y-128687697D01*
X147698478Y-128687697D01*
X147682601Y-128674502D01*
X147657957Y-128663557D01*
X147628948Y-128648690D01*
X147579667Y-128603260D01*
X147529678Y-128531700D01*
X147478381Y-128433243D01*
X147444350Y-128350692D01*
X147412558Y-128230973D01*
X147402402Y-128109288D01*
X147402813Y-128086253D01*
X147460963Y-128086253D01*
X147461093Y-128148170D01*
X147470134Y-128214612D01*
X147479988Y-128257717D01*
X147507090Y-128339734D01*
X147542972Y-128421423D01*
X147583445Y-128493736D01*
X147624320Y-128547626D01*
X147636192Y-128559162D01*
X147668376Y-128583139D01*
X147693725Y-128592686D01*
X147699527Y-128591859D01*
X147721443Y-128572734D01*
X147740302Y-128531816D01*
X147755519Y-128473789D01*
X147766507Y-128403336D01*
X147772682Y-128325141D01*
X147773456Y-128243888D01*
X147768246Y-128164260D01*
X147756464Y-128090943D01*
X147748386Y-128060434D01*
X147729769Y-128004943D01*
X147705656Y-127943041D01*
X147678531Y-127880145D01*
X147650877Y-127821670D01*
X147625177Y-127773033D01*
X147603916Y-127739650D01*
X147589574Y-127726937D01*
X147583361Y-127729126D01*
X147565191Y-127750732D01*
X147543411Y-127790635D01*
X147520479Y-127842938D01*
X147498857Y-127901739D01*
X147481002Y-127961142D01*
X147469375Y-128015245D01*
X147460963Y-128086253D01*
X147402813Y-128086253D01*
X147402997Y-128075966D01*
X147419291Y-127938594D01*
X147457221Y-127815421D01*
X147515914Y-127708141D01*
X147545249Y-127674658D01*
X147682268Y-127674658D01*
X147690286Y-127703737D01*
X147713417Y-127748663D01*
X147759582Y-127845672D01*
X147802662Y-127973346D01*
X147831826Y-128107709D01*
X147846020Y-128241844D01*
X147845990Y-128243888D01*
X147844187Y-128368836D01*
X147825273Y-128481769D01*
X147817205Y-128513746D01*
X147808208Y-128555854D01*
X147804641Y-128582287D01*
X147806150Y-128595019D01*
X147814874Y-128605585D01*
X147840321Y-128600055D01*
X147879797Y-128588238D01*
X147922865Y-128573601D01*
X147959427Y-128559579D01*
X147979388Y-128549608D01*
X147986276Y-128541420D01*
X148001298Y-128504686D01*
X148014083Y-128447522D01*
X148023862Y-128375030D01*
X148029868Y-128292314D01*
X148031332Y-128204476D01*
X148030849Y-128174414D01*
X148027853Y-128102365D01*
X148021377Y-128044826D01*
X148010010Y-127992006D01*
X147992338Y-127934116D01*
X147960430Y-127848466D01*
X147907764Y-127741941D01*
X147842400Y-127645974D01*
X147818675Y-127619253D01*
X147788799Y-127602278D01*
X147755452Y-127607594D01*
X147711325Y-127634567D01*
X147711029Y-127634782D01*
X147689227Y-127654111D01*
X147682268Y-127674658D01*
X147545249Y-127674658D01*
X147594496Y-127618446D01*
X147692093Y-127548030D01*
X147709458Y-127537948D01*
X147731504Y-127522173D01*
X147732123Y-127521456D01*
X147870482Y-127521456D01*
X147873697Y-127544764D01*
X147883764Y-127564344D01*
X147900211Y-127584973D01*
X147948144Y-127650260D01*
X148004190Y-127751970D01*
X148052381Y-127867683D01*
X148090067Y-127989817D01*
X148114596Y-128110792D01*
X148121876Y-128204476D01*
X148123318Y-128223027D01*
X148120839Y-128269396D01*
X148113856Y-128333071D01*
X148103735Y-128403722D01*
X148091845Y-128472698D01*
X148079555Y-128531346D01*
X148068236Y-128571016D01*
X148066313Y-128581185D01*
X148068791Y-128620780D01*
X148079621Y-128680410D01*
X148097530Y-128756169D01*
X148121239Y-128844150D01*
X148149474Y-128940446D01*
X148180959Y-129041152D01*
X148214418Y-129142361D01*
X148248575Y-129240166D01*
X148282154Y-129330662D01*
X148313879Y-129409941D01*
X148342475Y-129474096D01*
X148366665Y-129519223D01*
X148385173Y-129541413D01*
X148392078Y-129544497D01*
X148398913Y-129539274D01*
X148398042Y-129517321D01*
X148389138Y-129475437D01*
X148371878Y-129410420D01*
X148343101Y-129306714D01*
X148365152Y-129288270D01*
X148443840Y-129288270D01*
X148455277Y-129305360D01*
X148475903Y-129313646D01*
X148489168Y-129316172D01*
X148525852Y-129325586D01*
X148580544Y-129340731D01*
X148648532Y-129360295D01*
X148725108Y-129382970D01*
X148787925Y-129401667D01*
X148857063Y-129421863D01*
X148913443Y-129437901D01*
X148952474Y-129448478D01*
X148969565Y-129452293D01*
X148975727Y-129449950D01*
X148982969Y-129431496D01*
X148980609Y-129421807D01*
X148962606Y-129410699D01*
X148954491Y-129409751D01*
X148921164Y-129402746D01*
X148869787Y-129390201D01*
X148806061Y-129373645D01*
X148735686Y-129354605D01*
X148664362Y-129334609D01*
X148597790Y-129315186D01*
X148541669Y-129297862D01*
X148497042Y-129284778D01*
X148462538Y-129277111D01*
X148446694Y-129276851D01*
X148443840Y-129288270D01*
X148365152Y-129288270D01*
X148388685Y-129268586D01*
X148400022Y-129259487D01*
X148430358Y-129238742D01*
X148450062Y-129230459D01*
X148450290Y-129230463D01*
X148469974Y-129234001D01*
X148510483Y-129243232D01*
X148566029Y-129256786D01*
X148630826Y-129273292D01*
X148686988Y-129287831D01*
X148771923Y-129309698D01*
X148853738Y-129330643D01*
X148920579Y-129347624D01*
X149045360Y-129379123D01*
X149048763Y-129431496D01*
X149059225Y-129592482D01*
X149073090Y-129805841D01*
X149142413Y-129823833D01*
X149158427Y-129827481D01*
X149212277Y-129836452D01*
X149278596Y-129844452D01*
X149346584Y-129850094D01*
X149360845Y-129850944D01*
X149420754Y-129853519D01*
X149458741Y-129852640D01*
X149479549Y-129847936D01*
X149487921Y-129839034D01*
X149491475Y-129826451D01*
X149500481Y-129779876D01*
X149509177Y-129717688D01*
X149516592Y-129648467D01*
X149521753Y-129580792D01*
X149523690Y-129523245D01*
X149525341Y-129475744D01*
X149527920Y-129456915D01*
X149599397Y-129456915D01*
X149608696Y-129475280D01*
X149617718Y-129484510D01*
X149632839Y-129492515D01*
X149636390Y-129491944D01*
X149661809Y-129487810D01*
X149705099Y-129480750D01*
X149759389Y-129471883D01*
X149766399Y-129470748D01*
X149836497Y-129460290D01*
X149908321Y-129450853D01*
X149967358Y-129444358D01*
X149991068Y-129442101D01*
X150045616Y-129435651D01*
X150077014Y-129429012D01*
X150088687Y-129421214D01*
X150084060Y-129411287D01*
X150074470Y-129408358D01*
X150040264Y-129407499D01*
X149986759Y-129410855D01*
X149918832Y-129418223D01*
X149872737Y-129423677D01*
X149800585Y-129430916D01*
X149735994Y-129435967D01*
X149688910Y-129437977D01*
X149643578Y-129439497D01*
X149610135Y-129445400D01*
X149599397Y-129456915D01*
X149527920Y-129456915D01*
X149530877Y-129435321D01*
X149539444Y-129416464D01*
X149540811Y-129415696D01*
X149557719Y-129410204D01*
X149589555Y-129404109D01*
X149638861Y-129397076D01*
X149708178Y-129388774D01*
X149800047Y-129378868D01*
X149917012Y-129367027D01*
X150095432Y-129349344D01*
X150128447Y-129387727D01*
X150133998Y-129394356D01*
X150146588Y-129412964D01*
X150149566Y-129421214D01*
X150154616Y-129435206D01*
X150159095Y-129467105D01*
X150161040Y-129514682D01*
X150161463Y-129583962D01*
X150162188Y-129641424D01*
X150164457Y-129695129D01*
X150167902Y-129732730D01*
X150172145Y-129748416D01*
X150178440Y-129749239D01*
X150207133Y-129745960D01*
X150251517Y-129737641D01*
X150304345Y-129725935D01*
X150358369Y-129712497D01*
X150406341Y-129698982D01*
X150441015Y-129687043D01*
X150458661Y-129678272D01*
X150472533Y-129665161D01*
X150482869Y-129643484D01*
X150491205Y-129608481D01*
X150499077Y-129555392D01*
X150508022Y-129479458D01*
X150517863Y-129409052D01*
X150531233Y-129358579D01*
X150535861Y-129350867D01*
X150639227Y-129350867D01*
X150655505Y-129354333D01*
X150683697Y-129348670D01*
X150716048Y-129334570D01*
X150721011Y-129331877D01*
X150754972Y-129315552D01*
X150803803Y-129293915D01*
X150858697Y-129270896D01*
X150878271Y-129262746D01*
X150922030Y-129242973D01*
X150950821Y-129227600D01*
X150959194Y-129219420D01*
X150946756Y-129218277D01*
X150920530Y-129227323D01*
X150916080Y-129229493D01*
X150875541Y-129247868D01*
X150825045Y-129269131D01*
X150771675Y-129290505D01*
X150722512Y-129309212D01*
X150684639Y-129322473D01*
X150665137Y-129327511D01*
X150660063Y-129328075D01*
X150639793Y-129341376D01*
X150639227Y-129350867D01*
X150535861Y-129350867D01*
X150550941Y-129325736D01*
X150580111Y-129305388D01*
X150621868Y-129292400D01*
X150644035Y-129286477D01*
X150705426Y-129261472D01*
X150759663Y-129228217D01*
X150775659Y-129212749D01*
X150982179Y-129212749D01*
X150994157Y-129216153D01*
X151012939Y-129212178D01*
X151042683Y-129196238D01*
X151049451Y-129190967D01*
X151059960Y-129178845D01*
X151047983Y-129175441D01*
X151029201Y-129179417D01*
X150999457Y-129195356D01*
X150992689Y-129200627D01*
X150982179Y-129212749D01*
X150775659Y-129212749D01*
X150796564Y-129192533D01*
X150810704Y-129169558D01*
X150827652Y-129130166D01*
X150926920Y-129130166D01*
X150931347Y-129154914D01*
X150944953Y-129158519D01*
X150969304Y-129143805D01*
X150972567Y-129140840D01*
X150981211Y-129125710D01*
X150988330Y-129098412D01*
X150994532Y-129055058D01*
X151000423Y-128991763D01*
X151006608Y-128904640D01*
X151009065Y-128867562D01*
X151014884Y-128784003D01*
X151020669Y-128705999D01*
X151025863Y-128640924D01*
X151029909Y-128596152D01*
X151030450Y-128590581D01*
X151032143Y-128543193D01*
X151028198Y-128515235D01*
X151020628Y-128508755D01*
X151011446Y-128525801D01*
X151002665Y-128568423D01*
X151002467Y-128569828D01*
X150997011Y-128607583D01*
X150988606Y-128664810D01*
X150978363Y-128733986D01*
X150967390Y-128807588D01*
X150956311Y-128883384D01*
X150945623Y-128959700D01*
X150936734Y-129026356D01*
X150930859Y-129074482D01*
X150930108Y-129081454D01*
X150926920Y-129130166D01*
X150827652Y-129130166D01*
X150840163Y-129101086D01*
X150867050Y-129010941D01*
X150890647Y-128903253D01*
X150910238Y-128782147D01*
X150925106Y-128651751D01*
X150934533Y-128516192D01*
X150937803Y-128379598D01*
X150937548Y-128340147D01*
X150934672Y-128226160D01*
X150928974Y-128103731D01*
X150920929Y-127978889D01*
X150911009Y-127857661D01*
X150902413Y-127772944D01*
X150991327Y-127772944D01*
X150992351Y-127813251D01*
X150992445Y-127814627D01*
X150994720Y-127850399D01*
X150998183Y-127907966D01*
X151002507Y-127981779D01*
X151007370Y-128066290D01*
X151012443Y-128155950D01*
X151024992Y-128379598D01*
X151028002Y-128433243D01*
X151058070Y-128391092D01*
X151075185Y-128361852D01*
X151097940Y-128312881D01*
X151118409Y-128259378D01*
X151121970Y-128248332D01*
X151141898Y-128147430D01*
X151144272Y-128039166D01*
X151129571Y-127933516D01*
X151098275Y-127840455D01*
X151071595Y-127792463D01*
X151042385Y-127755435D01*
X151016016Y-127736459D01*
X150996324Y-127739339D01*
X150993897Y-127745271D01*
X150991327Y-127772944D01*
X150902413Y-127772944D01*
X150899687Y-127746078D01*
X150887437Y-127650166D01*
X150874732Y-127575955D01*
X150846639Y-127452183D01*
X150782403Y-127229992D01*
X150704515Y-127030032D01*
X150612000Y-126850534D01*
X150503885Y-126689728D01*
X150379195Y-126545845D01*
X150236958Y-126417115D01*
X150095345Y-126314157D01*
X149928913Y-126219824D01*
X149760030Y-126151906D01*
X149589803Y-126110838D01*
X149419339Y-126097053D01*
X149399393Y-126097111D01*
X149347212Y-126098614D01*
X149313493Y-126103290D01*
X149291098Y-126112661D01*
X149272891Y-126128248D01*
X149265375Y-126136340D01*
X149220112Y-126194503D01*
X149170703Y-126270997D01*
X149120832Y-126359005D01*
X149074180Y-126451706D01*
X149034430Y-126542280D01*
X149005264Y-126623909D01*
X148995971Y-126654645D01*
X148980904Y-126704520D01*
X148969668Y-126741758D01*
X148963371Y-126764841D01*
X148948160Y-126836838D01*
X148933250Y-126927475D01*
X148919322Y-127030351D01*
X148907061Y-127139067D01*
X148897148Y-127247221D01*
X148890267Y-127348414D01*
X148887099Y-127436245D01*
X148888329Y-127504312D01*
X148892849Y-127573636D01*
X149010699Y-127582153D01*
X149056297Y-127586690D01*
X149164900Y-127610712D01*
X149260171Y-127654322D01*
X149349035Y-127720350D01*
X149433332Y-127810479D01*
X149498371Y-127916658D01*
X149538016Y-128032407D01*
X149551419Y-128155903D01*
X149551409Y-128159646D01*
X149545228Y-128218093D01*
X149537972Y-128286698D01*
X149500011Y-128404056D01*
X149438836Y-128508763D01*
X149355756Y-128597860D01*
X149315672Y-128629112D01*
X149233780Y-128680210D01*
X149144531Y-128723273D01*
X149056749Y-128754286D01*
X148979260Y-128769230D01*
X148913112Y-128770221D01*
X148793556Y-128752022D01*
X148675072Y-128709793D01*
X148563251Y-128645199D01*
X148554867Y-128638729D01*
X148514326Y-128589906D01*
X148480571Y-128520244D01*
X148454370Y-128435006D01*
X148436488Y-128339456D01*
X148427690Y-128238858D01*
X148428076Y-128202063D01*
X148463454Y-128202063D01*
X148465095Y-128261468D01*
X148470791Y-128305558D01*
X148482401Y-128344223D01*
X148501787Y-128387352D01*
X148537018Y-128445732D01*
X148603721Y-128522610D01*
X148683327Y-128587123D01*
X148767602Y-128631705D01*
X148778398Y-128635689D01*
X148858244Y-128655789D01*
X148950204Y-128662009D01*
X148961759Y-128661988D01*
X149012357Y-128660612D01*
X149044741Y-128655556D01*
X149066964Y-128644694D01*
X149087079Y-128625903D01*
X149100426Y-128610856D01*
X149139479Y-128554552D01*
X149165838Y-128490285D01*
X149181556Y-128411725D01*
X149188683Y-128312546D01*
X149189296Y-128290634D01*
X149189367Y-128218093D01*
X149184747Y-128156185D01*
X149174083Y-128092595D01*
X149156023Y-128015007D01*
X149144292Y-127970403D01*
X149123868Y-127900201D01*
X149103510Y-127837693D01*
X149086253Y-127792554D01*
X149071656Y-127760208D01*
X149057590Y-127737428D01*
X149039227Y-127724227D01*
X149010710Y-127718294D01*
X148966181Y-127717318D01*
X148899782Y-127718989D01*
X148875921Y-127720779D01*
X148794677Y-127739589D01*
X148710545Y-127774763D01*
X148633454Y-127821548D01*
X148573334Y-127875194D01*
X148565300Y-127884545D01*
X148516201Y-127951089D01*
X148484995Y-128017135D01*
X148468482Y-128091670D01*
X148463459Y-128183679D01*
X148463454Y-128202063D01*
X148428076Y-128202063D01*
X148428743Y-128138474D01*
X148440412Y-128043568D01*
X148463463Y-127959403D01*
X148516150Y-127850638D01*
X148589809Y-127751719D01*
X148679052Y-127671960D01*
X148780643Y-127614875D01*
X148827573Y-127595266D01*
X148836645Y-127404211D01*
X148847385Y-127242471D01*
X148870337Y-127036081D01*
X148902507Y-126842598D01*
X148943085Y-126666682D01*
X148991264Y-126512991D01*
X149007933Y-126469966D01*
X149039362Y-126397100D01*
X149073944Y-126324499D01*
X149108425Y-126258576D01*
X149139550Y-126205743D01*
X149164067Y-126172414D01*
X149181816Y-126151479D01*
X149188289Y-126132999D01*
X149171228Y-126126280D01*
X149129138Y-126129484D01*
X149101745Y-126134061D01*
X149008236Y-126158645D01*
X148900844Y-126198132D01*
X148785231Y-126250529D01*
X148732932Y-126280759D01*
X148641617Y-126333541D01*
X148490230Y-126449363D01*
X148349342Y-126587796D01*
X148220717Y-126746637D01*
X148106117Y-126923686D01*
X148007304Y-127116742D01*
X147926041Y-127323603D01*
X147906667Y-127381368D01*
X147886494Y-127444537D01*
X147874590Y-127489640D01*
X147870482Y-127521456D01*
X147732123Y-127521456D01*
X147748549Y-127502439D01*
X147763975Y-127473140D01*
X147781166Y-127428669D01*
X147803505Y-127363421D01*
X147809616Y-127345429D01*
X147905427Y-127103113D01*
X148020670Y-126876636D01*
X148153626Y-126669404D01*
X148172467Y-126644287D01*
X148214765Y-126592388D01*
X148264703Y-126535147D01*
X148318620Y-126476342D01*
X148372857Y-126419754D01*
X148423756Y-126369162D01*
X148467658Y-126328346D01*
X148500902Y-126301084D01*
X148519830Y-126291157D01*
X148526165Y-126290555D01*
X148544018Y-126280759D01*
X148540892Y-126276516D01*
X148517785Y-126270892D01*
X148478979Y-126267515D01*
X148450954Y-126267158D01*
X148429762Y-126269590D01*
X148432721Y-126274934D01*
X148432936Y-126275026D01*
X148427276Y-126279105D01*
X148397789Y-126284223D01*
X148348233Y-126289945D01*
X148282369Y-126295834D01*
X148203955Y-126301456D01*
X148133425Y-126306355D01*
X148048834Y-126313202D01*
X147973204Y-126320345D01*
X147912778Y-126327188D01*
X147873799Y-126333130D01*
X147780964Y-126351963D01*
X147702242Y-126368124D01*
X147643403Y-126380493D01*
X147600627Y-126389892D01*
X147570093Y-126397138D01*
X147547980Y-126403054D01*
X147523170Y-126410161D01*
X147475418Y-126423756D01*
X147423199Y-126438559D01*
X147383986Y-126450277D01*
X147346113Y-126463073D01*
X147326146Y-126471761D01*
X147304888Y-126481263D01*
X147270804Y-126491388D01*
X147241113Y-126500595D01*
X147182021Y-126524514D01*
X147109339Y-126558236D01*
X147028903Y-126598786D01*
X146946550Y-126643188D01*
X146868117Y-126688469D01*
X146799440Y-126731652D01*
X146675340Y-126822968D01*
X146550370Y-126931904D01*
X146435965Y-127048606D01*
X146340194Y-127165453D01*
X146326559Y-127184487D01*
X146273208Y-127265537D01*
X146218542Y-127357340D01*
X146167089Y-127451692D01*
X146123377Y-127540390D01*
X146091935Y-127615229D01*
X146082007Y-127641625D01*
X146067146Y-127678216D01*
X146057420Y-127698417D01*
X146050583Y-127713856D01*
X146038194Y-127749465D01*
X146024037Y-127795470D01*
X146012610Y-127834238D01*
X145998348Y-127881255D01*
X145988140Y-127913319D01*
X145970122Y-127978634D01*
X145951289Y-128082762D01*
X145937812Y-128202743D01*
X145929907Y-128332122D01*
X145927786Y-128464445D01*
X145418958Y-128464445D01*
X145435715Y-128346706D01*
X145466509Y-128172081D01*
X145502964Y-127999155D01*
X145545714Y-127823199D01*
X145547421Y-127816608D01*
X145566623Y-127745876D01*
X145589598Y-127665946D01*
X145614489Y-127582808D01*
X145639440Y-127502449D01*
X145662596Y-127430859D01*
X145682101Y-127374025D01*
X145696098Y-127337937D01*
X145698471Y-127332484D01*
X145711599Y-127300727D01*
X145730538Y-127253649D01*
X145752044Y-127199291D01*
X145813970Y-127049301D01*
X145951672Y-126762261D01*
X146109344Y-126490393D01*
X146289825Y-126228577D01*
X146351819Y-126149014D01*
X146467861Y-126013368D01*
X146598914Y-125873410D01*
X146740040Y-125733786D01*
X146886304Y-125599144D01*
X147032767Y-125474130D01*
X147174494Y-125363390D01*
X147306547Y-125271572D01*
X147380580Y-125225929D01*
X147533652Y-125141589D01*
X147695161Y-125064002D01*
X147855800Y-124997495D01*
X148006261Y-124946392D01*
X148071520Y-124927198D01*
X148129811Y-124910295D01*
X148172652Y-124898354D01*
X148206091Y-124889757D01*
X148236172Y-124882885D01*
X148268941Y-124876122D01*
X148315249Y-124867379D01*
X148407251Y-124853559D01*
X148503898Y-124844202D01*
X148610917Y-124838966D01*
X148734036Y-124837506D01*
X148878985Y-124839477D01*
X148976565Y-124841852D01*
X149059306Y-124844714D01*
X149127219Y-124848780D01*
X149186942Y-124854915D01*
X149245114Y-124863986D01*
X149308371Y-124876859D01*
X149383352Y-124894400D01*
X149476694Y-124917475D01*
X149490777Y-124921111D01*
X149599775Y-124955636D01*
X149723545Y-125004215D01*
X149856068Y-125063994D01*
X149991323Y-125132121D01*
X150123290Y-125205742D01*
X150245949Y-125282006D01*
X150334534Y-125341991D01*
X150458129Y-125432139D01*
X150573938Y-125525843D01*
X150689778Y-125629544D01*
X150813466Y-125749685D01*
X150886730Y-125825075D01*
X150993640Y-125943701D01*
X151093412Y-126066491D01*
X151188570Y-126197174D01*
X151281638Y-126339484D01*
X151375140Y-126497149D01*
X151471597Y-126673901D01*
X151573535Y-126873472D01*
X151578078Y-126882611D01*
X151626417Y-126980390D01*
X151664754Y-127059451D01*
X151695527Y-127125303D01*
X151721168Y-127183451D01*
X151744115Y-127239402D01*
X151766802Y-127298664D01*
X151791664Y-127366743D01*
X151834355Y-127486562D01*
X151875058Y-127604767D01*
X151909141Y-127709648D01*
X151938575Y-127807820D01*
X151965332Y-127905897D01*
X151991384Y-128010492D01*
X152018704Y-128128221D01*
X152021058Y-128138614D01*
X152033323Y-128192508D01*
X152045582Y-128246070D01*
X152047997Y-128256934D01*
X152058065Y-128306169D01*
X152069961Y-128368555D01*
X152081597Y-128433243D01*
X152084802Y-128451598D01*
X152096681Y-128518384D01*
X152108069Y-128580794D01*
X152116881Y-128627347D01*
X152127090Y-128687790D01*
X152140038Y-128790351D01*
X152151663Y-128911768D01*
X152152851Y-128927793D01*
X152161687Y-129046936D01*
G37*
D14*
%TO.C,C20*%
X157465000Y-109923752D02*
X157465000Y-108501248D01*
X159285000Y-109923752D02*
X159285000Y-108501248D01*
%TO.C,C8*%
X139090000Y-128988748D02*
X139090000Y-130411252D01*
X140910000Y-128988748D02*
X140910000Y-130411252D01*
D15*
%TO.C,G\u002A\u002A\u002A*%
G36*
X173675484Y-101766790D02*
G01*
X173705682Y-101794982D01*
X173717467Y-101834978D01*
X173712186Y-101864909D01*
X173687926Y-101897610D01*
X173650000Y-101914137D01*
X173605094Y-101912180D01*
X173559894Y-101889430D01*
X173530130Y-101854752D01*
X173528682Y-101838680D01*
X173556516Y-101838680D01*
X173572798Y-101857537D01*
X173608417Y-101860415D01*
X173630055Y-101852610D01*
X173641212Y-101828046D01*
X173630493Y-101805806D01*
X173605479Y-101794994D01*
X173577863Y-101797723D01*
X173559341Y-101815749D01*
X173556516Y-101838680D01*
X173528682Y-101838680D01*
X173526778Y-101817543D01*
X173551092Y-101779519D01*
X173551783Y-101778835D01*
X173590798Y-101756138D01*
X173634610Y-101752983D01*
X173675484Y-101766790D01*
G37*
G36*
X173846170Y-101065357D02*
G01*
X173891405Y-101092590D01*
X173915350Y-101125512D01*
X173924946Y-101169116D01*
X173913959Y-101209976D01*
X173886188Y-101243856D01*
X173845431Y-101266523D01*
X173795484Y-101273741D01*
X173740145Y-101261275D01*
X173720040Y-101251256D01*
X173681560Y-101216095D01*
X173667052Y-101173399D01*
X173671349Y-101154627D01*
X173702932Y-101154627D01*
X173711500Y-101188511D01*
X173740095Y-101211766D01*
X173782303Y-101218680D01*
X173818383Y-101209009D01*
X173842571Y-101187300D01*
X173849618Y-101158293D01*
X173834273Y-101126729D01*
X173828515Y-101121162D01*
X173792711Y-101103741D01*
X173752316Y-101101909D01*
X173720240Y-101116790D01*
X173716612Y-101120741D01*
X173702932Y-101154627D01*
X173671349Y-101154627D01*
X173677334Y-101128481D01*
X173713224Y-101086650D01*
X173737416Y-101071769D01*
X173791523Y-101058307D01*
X173846170Y-101065357D01*
G37*
G36*
X173791853Y-101447775D02*
G01*
X173802946Y-101457776D01*
X173825337Y-101496742D01*
X173825634Y-101538124D01*
X173806556Y-101575560D01*
X173770823Y-101602688D01*
X173721155Y-101613144D01*
X173692692Y-101608747D01*
X173650475Y-101587142D01*
X173618941Y-101553869D01*
X173606550Y-101516091D01*
X173606571Y-101515386D01*
X173635689Y-101515386D01*
X173654313Y-101543187D01*
X173685200Y-101555300D01*
X173722487Y-101549282D01*
X173750713Y-101525678D01*
X173752340Y-101522919D01*
X173757260Y-101500670D01*
X173739080Y-101480618D01*
X173735540Y-101477994D01*
X173714364Y-101464656D01*
X173695706Y-101463997D01*
X173665475Y-101474930D01*
X173643484Y-101489385D01*
X173635689Y-101515386D01*
X173606571Y-101515386D01*
X173606596Y-101514541D01*
X173617140Y-101484535D01*
X173640582Y-101453070D01*
X173643721Y-101450035D01*
X173690027Y-101423622D01*
X173741323Y-101422802D01*
X173791853Y-101447775D01*
G37*
G36*
X173882613Y-100670505D02*
G01*
X173928483Y-100689246D01*
X173961435Y-100720308D01*
X173977878Y-100759377D01*
X173974218Y-100802141D01*
X173946864Y-100844287D01*
X173937412Y-100853033D01*
X173901559Y-100872763D01*
X173852426Y-100878319D01*
X173801918Y-100870380D01*
X173759169Y-100846156D01*
X173731935Y-100811076D01*
X173721519Y-100770679D01*
X173725108Y-100751964D01*
X173759820Y-100751964D01*
X173763754Y-100783519D01*
X173779901Y-100809031D01*
X173785941Y-100813418D01*
X173823552Y-100825317D01*
X173863648Y-100820923D01*
X173893160Y-100801146D01*
X173906641Y-100780074D01*
X173908631Y-100757944D01*
X173889785Y-100733730D01*
X173862363Y-100718845D01*
X173819080Y-100713200D01*
X173776392Y-100721125D01*
X173768597Y-100726840D01*
X173759820Y-100751964D01*
X173725108Y-100751964D01*
X173729222Y-100730507D01*
X173756346Y-100696102D01*
X173804193Y-100673002D01*
X173827417Y-100668399D01*
X173882613Y-100670505D01*
G37*
G36*
X175581459Y-95478782D02*
G01*
X175625241Y-95494822D01*
X175664785Y-95518194D01*
X175671544Y-95523398D01*
X175695542Y-95543647D01*
X175714482Y-95564994D01*
X175728962Y-95590766D01*
X175739577Y-95624294D01*
X175746924Y-95668905D01*
X175751601Y-95727928D01*
X175754202Y-95804693D01*
X175755326Y-95902529D01*
X175755568Y-96024763D01*
X175755566Y-96081263D01*
X175755352Y-96185558D01*
X175754390Y-96266254D01*
X175752118Y-96326184D01*
X175747975Y-96368180D01*
X175741398Y-96395074D01*
X175731828Y-96409698D01*
X175718701Y-96414884D01*
X175701458Y-96413464D01*
X175679535Y-96408271D01*
X175679143Y-96408171D01*
X175637607Y-96388043D01*
X175591989Y-96351992D01*
X175551346Y-96308369D01*
X175524736Y-96265525D01*
X175523720Y-96262931D01*
X175517779Y-96238818D01*
X175513202Y-96200866D01*
X175509863Y-96146299D01*
X175507635Y-96072341D01*
X175506391Y-95976216D01*
X175506004Y-95855147D01*
X175506346Y-95762049D01*
X175507381Y-95672534D01*
X175509009Y-95595731D01*
X175511124Y-95535395D01*
X175513623Y-95495279D01*
X175516403Y-95479137D01*
X175517395Y-95478230D01*
X175542493Y-95472457D01*
X175581459Y-95478782D01*
G37*
G36*
X174024525Y-95460905D02*
G01*
X174077606Y-95487778D01*
X174125657Y-95522875D01*
X174168141Y-95578896D01*
X174192930Y-95651778D01*
X174201674Y-95744940D01*
X174202729Y-95831594D01*
X174344842Y-95831746D01*
X174388928Y-95831995D01*
X174469772Y-95834201D01*
X174527350Y-95839130D01*
X174564707Y-95847325D01*
X174584888Y-95859331D01*
X174590939Y-95875690D01*
X174580389Y-95920166D01*
X174550273Y-95970697D01*
X174507074Y-96017802D01*
X174457318Y-96054442D01*
X174407529Y-96073575D01*
X174383296Y-96076823D01*
X174333149Y-96081434D01*
X174278985Y-96084658D01*
X174278942Y-96084659D01*
X174232819Y-96087375D01*
X174207919Y-96092645D01*
X174197744Y-96103445D01*
X174195797Y-96122751D01*
X174195797Y-96157412D01*
X174424563Y-96164345D01*
X174472057Y-96165853D01*
X174552077Y-96169439D01*
X174608201Y-96174985D01*
X174643019Y-96184147D01*
X174659122Y-96198584D01*
X174659099Y-96219954D01*
X174645539Y-96249915D01*
X174621034Y-96290125D01*
X174593788Y-96328391D01*
X174561855Y-96359052D01*
X174522777Y-96379707D01*
X174471441Y-96392166D01*
X174402736Y-96398240D01*
X174311551Y-96399739D01*
X174243418Y-96398663D01*
X174162977Y-96392856D01*
X174101822Y-96380520D01*
X174055074Y-96359980D01*
X174017852Y-96329556D01*
X173985278Y-96287572D01*
X173946234Y-96228383D01*
X173950833Y-95846591D01*
X173950930Y-95838605D01*
X173952407Y-95738816D01*
X173954202Y-95648368D01*
X173956207Y-95570937D01*
X173958313Y-95510202D01*
X173960413Y-95469839D01*
X173962398Y-95453528D01*
X173963758Y-95451811D01*
X173985311Y-95448540D01*
X174024525Y-95460905D01*
G37*
G36*
X172755824Y-99448637D02*
G01*
X172780659Y-99456444D01*
X172874226Y-99492651D01*
X172944562Y-99534305D01*
X172995306Y-99584810D01*
X173030102Y-99647569D01*
X173052590Y-99725984D01*
X173059640Y-99758720D01*
X173070004Y-99799992D01*
X173078112Y-99824607D01*
X173081568Y-99834314D01*
X173088184Y-99874963D01*
X173091192Y-99929890D01*
X173090580Y-99989518D01*
X173086336Y-100044269D01*
X173078447Y-100084565D01*
X173063640Y-100126518D01*
X173007586Y-100242332D01*
X172936901Y-100335382D01*
X172852175Y-100405145D01*
X172753999Y-100451092D01*
X172642963Y-100472698D01*
X172543376Y-100469168D01*
X172438843Y-100441308D01*
X172342044Y-100391246D01*
X172257267Y-100321853D01*
X172188804Y-100236000D01*
X172140942Y-100136561D01*
X172130299Y-100095755D01*
X172120606Y-100017520D01*
X172119487Y-99932001D01*
X172126385Y-99855932D01*
X172375381Y-99855932D01*
X172377179Y-99904257D01*
X172385286Y-99967626D01*
X172393239Y-100015133D01*
X172412497Y-100102640D01*
X172435636Y-100181756D01*
X172460947Y-100247686D01*
X172486720Y-100295636D01*
X172511245Y-100320809D01*
X172530244Y-100327867D01*
X172582364Y-100335403D01*
X172647409Y-100335477D01*
X172716498Y-100328740D01*
X172780749Y-100315841D01*
X172831281Y-100297427D01*
X172861638Y-100280630D01*
X172946735Y-100216100D01*
X173007543Y-100138206D01*
X173044044Y-100046981D01*
X173056215Y-99942456D01*
X173052349Y-99884749D01*
X173026168Y-99785501D01*
X172977330Y-99697888D01*
X172908254Y-99625719D01*
X172821360Y-99572802D01*
X172797089Y-99563882D01*
X172733092Y-99549190D01*
X172659825Y-99540319D01*
X172589089Y-99538422D01*
X172532683Y-99544649D01*
X172491721Y-99566766D01*
X172452009Y-99612861D01*
X172417636Y-99678452D01*
X172391353Y-99759357D01*
X172380242Y-99810613D01*
X172375381Y-99855932D01*
X172126385Y-99855932D01*
X172126884Y-99850435D01*
X172142740Y-99784058D01*
X172157618Y-99750371D01*
X172202708Y-99678630D01*
X172263119Y-99605814D01*
X172332345Y-99538585D01*
X172403880Y-99483609D01*
X172471220Y-99447550D01*
X172546383Y-99428355D01*
X172647387Y-99426707D01*
X172755824Y-99448637D01*
G37*
G36*
X175239075Y-95458213D02*
G01*
X175312467Y-95459730D01*
X175372511Y-95462128D01*
X175414414Y-95465211D01*
X175433381Y-95468780D01*
X175439667Y-95474203D01*
X175443729Y-95492774D01*
X175434727Y-95527493D01*
X175422579Y-95559672D01*
X175389812Y-95618447D01*
X175346236Y-95660372D01*
X175287928Y-95687623D01*
X175210962Y-95702378D01*
X175111415Y-95706812D01*
X174965284Y-95706812D01*
X174965284Y-95776135D01*
X174965284Y-95845458D01*
X175135126Y-95845671D01*
X175136250Y-95845672D01*
X175203335Y-95846723D01*
X175261054Y-95849374D01*
X175303289Y-95853227D01*
X175323917Y-95857888D01*
X175327395Y-95860843D01*
X175333677Y-95885716D01*
X175325540Y-95923880D01*
X175305208Y-95968334D01*
X175274906Y-96012077D01*
X175254273Y-96033927D01*
X175203902Y-96068588D01*
X175139654Y-96089168D01*
X175055404Y-96098066D01*
X175051954Y-96098206D01*
X175002168Y-96101139D01*
X174973898Y-96106083D01*
X174961256Y-96114958D01*
X174958351Y-96129683D01*
X174958847Y-96136814D01*
X174963307Y-96145207D01*
X174975740Y-96151134D01*
X175000097Y-96155148D01*
X175040328Y-96157800D01*
X175100386Y-96159642D01*
X175184220Y-96161225D01*
X175199116Y-96161480D01*
X175284256Y-96163383D01*
X175345639Y-96166450D01*
X175386720Y-96171858D01*
X175410958Y-96180780D01*
X175421809Y-96194390D01*
X175422731Y-96213865D01*
X175417179Y-96240377D01*
X175417079Y-96240770D01*
X175396952Y-96282306D01*
X175360900Y-96327924D01*
X175317277Y-96368566D01*
X175274434Y-96395176D01*
X175271476Y-96396337D01*
X175227603Y-96405931D01*
X175159244Y-96411872D01*
X175069161Y-96413908D01*
X175027911Y-96413705D01*
X174964542Y-96411811D01*
X174919035Y-96407245D01*
X174884878Y-96399179D01*
X174855558Y-96386787D01*
X174833467Y-96373957D01*
X174783525Y-96333734D01*
X174743632Y-96286745D01*
X174721642Y-96241507D01*
X174720883Y-96236960D01*
X174718929Y-96206138D01*
X174717633Y-96153658D01*
X174717044Y-96084109D01*
X174717210Y-96002084D01*
X174718179Y-95912173D01*
X174722653Y-95614457D01*
X174762637Y-95562073D01*
X174772080Y-95550748D01*
X174814446Y-95512109D01*
X174859690Y-95483773D01*
X174861422Y-95482993D01*
X174886078Y-95473654D01*
X174914923Y-95466901D01*
X174952662Y-95462335D01*
X175004004Y-95459556D01*
X175073654Y-95458166D01*
X175166321Y-95457766D01*
X175239075Y-95458213D01*
G37*
G36*
X172893811Y-94627473D02*
G01*
X172930012Y-94631374D01*
X172946874Y-94637445D01*
X172947002Y-94637645D01*
X172965095Y-94648620D01*
X172997485Y-94658149D01*
X173039216Y-94670354D01*
X173112165Y-94703373D01*
X173195439Y-94752096D01*
X173283994Y-94813783D01*
X173384309Y-94889153D01*
X173505828Y-94860824D01*
X173523366Y-94856751D01*
X173587600Y-94842058D01*
X173646699Y-94828840D01*
X173689738Y-94819551D01*
X173705062Y-94816478D01*
X173832378Y-94797161D01*
X173980892Y-94783698D01*
X174145436Y-94775932D01*
X174320840Y-94773710D01*
X174501936Y-94776876D01*
X174683556Y-94785275D01*
X174860531Y-94798754D01*
X175027692Y-94817157D01*
X175179871Y-94840329D01*
X175311900Y-94868116D01*
X175356873Y-94879323D01*
X175413620Y-94893390D01*
X175457478Y-94904183D01*
X175555199Y-94932366D01*
X175685329Y-94979674D01*
X175823856Y-95038892D01*
X175963801Y-95106802D01*
X176098186Y-95180185D01*
X176220033Y-95255824D01*
X176303632Y-95314640D01*
X176473931Y-95451789D01*
X176641430Y-95608837D01*
X176801313Y-95780774D01*
X176948764Y-95962591D01*
X177078969Y-96149280D01*
X177084842Y-96158605D01*
X177112304Y-96204746D01*
X177144721Y-96262162D01*
X177179435Y-96325795D01*
X177213792Y-96390583D01*
X177245137Y-96451467D01*
X177270814Y-96503386D01*
X177288167Y-96541279D01*
X177294541Y-96560087D01*
X177294628Y-96561120D01*
X177301028Y-96580987D01*
X177314477Y-96612850D01*
X177326208Y-96640836D01*
X177349099Y-96702941D01*
X177375480Y-96781001D01*
X177403295Y-96868325D01*
X177430486Y-96958224D01*
X177454998Y-97044006D01*
X177474773Y-97118983D01*
X177487755Y-97176463D01*
X177497487Y-97226668D01*
X177510448Y-97292540D01*
X177523231Y-97356703D01*
X177543856Y-97469599D01*
X177575975Y-97706650D01*
X177597721Y-97966464D01*
X177608991Y-98247054D01*
X177609685Y-98546433D01*
X177599702Y-98862614D01*
X177593558Y-98983271D01*
X177579054Y-99211960D01*
X177561431Y-99420042D01*
X177540053Y-99612245D01*
X177514285Y-99793294D01*
X177483491Y-99967919D01*
X177447036Y-100140845D01*
X177404286Y-100316801D01*
X177402579Y-100323392D01*
X177383377Y-100394124D01*
X177360402Y-100474054D01*
X177335511Y-100557192D01*
X177310560Y-100637551D01*
X177287404Y-100709141D01*
X177267899Y-100765975D01*
X177253902Y-100802063D01*
X177251529Y-100807516D01*
X177238401Y-100839273D01*
X177219462Y-100886351D01*
X177197956Y-100940709D01*
X177136030Y-101090699D01*
X176998328Y-101377739D01*
X176840656Y-101649607D01*
X176660175Y-101911423D01*
X176598181Y-101990986D01*
X176482139Y-102126632D01*
X176351086Y-102266590D01*
X176209960Y-102406214D01*
X176063696Y-102540856D01*
X175917233Y-102665870D01*
X175775506Y-102776610D01*
X175643453Y-102868428D01*
X175569420Y-102914071D01*
X175416348Y-102998411D01*
X175254839Y-103075998D01*
X175094200Y-103142505D01*
X174943739Y-103193608D01*
X174878480Y-103212802D01*
X174820189Y-103229705D01*
X174777348Y-103241646D01*
X174743909Y-103250243D01*
X174713828Y-103257115D01*
X174681059Y-103263878D01*
X174634751Y-103272621D01*
X174542749Y-103286441D01*
X174446102Y-103295798D01*
X174339083Y-103301034D01*
X174215964Y-103302494D01*
X174071015Y-103300523D01*
X173973435Y-103298148D01*
X173890694Y-103295286D01*
X173822781Y-103291220D01*
X173763058Y-103285085D01*
X173704886Y-103276014D01*
X173641629Y-103263141D01*
X173566648Y-103245600D01*
X173473306Y-103222525D01*
X173459223Y-103218889D01*
X173350225Y-103184364D01*
X173226455Y-103135785D01*
X173093932Y-103076006D01*
X172958677Y-103007879D01*
X172826710Y-102934258D01*
X172704051Y-102857994D01*
X172615466Y-102798009D01*
X172491871Y-102707861D01*
X172376062Y-102614157D01*
X172260222Y-102510456D01*
X172136534Y-102390315D01*
X172063270Y-102314925D01*
X171956360Y-102196299D01*
X171856588Y-102073509D01*
X171761430Y-101942826D01*
X171668362Y-101800516D01*
X171574860Y-101642851D01*
X171478403Y-101466099D01*
X171376465Y-101266528D01*
X171371922Y-101257389D01*
X171323583Y-101159610D01*
X171285246Y-101080549D01*
X171254473Y-101014697D01*
X171228832Y-100956549D01*
X171205885Y-100900598D01*
X171183198Y-100841336D01*
X171158336Y-100773257D01*
X171115645Y-100653438D01*
X171074942Y-100535233D01*
X171040859Y-100430352D01*
X171011425Y-100332180D01*
X170984668Y-100234103D01*
X170958616Y-100129508D01*
X170931296Y-100011779D01*
X170928942Y-100001386D01*
X170916677Y-99947492D01*
X170904418Y-99893930D01*
X170902003Y-99883066D01*
X170891935Y-99833831D01*
X170880039Y-99771445D01*
X170868403Y-99706757D01*
X170865198Y-99688402D01*
X170853319Y-99621616D01*
X170841931Y-99559206D01*
X170833119Y-99512653D01*
X170822910Y-99452210D01*
X170809962Y-99349649D01*
X170798337Y-99228232D01*
X170797149Y-99212207D01*
X171460298Y-99212207D01*
X171460913Y-99317699D01*
X171462921Y-99426007D01*
X171466248Y-99531912D01*
X171470824Y-99630194D01*
X171476576Y-99715634D01*
X171483433Y-99783013D01*
X171490038Y-99830131D01*
X171531883Y-100039266D01*
X171593347Y-100234151D01*
X171676392Y-100419309D01*
X171782978Y-100599262D01*
X171915065Y-100778532D01*
X171941871Y-100811466D01*
X171994623Y-100873597D01*
X172032483Y-100913498D01*
X172055991Y-100931631D01*
X172065686Y-100928457D01*
X172062106Y-100904438D01*
X172061940Y-100903869D01*
X172054098Y-100874869D01*
X172041478Y-100826100D01*
X172025823Y-100764492D01*
X172008871Y-100696973D01*
X171992362Y-100630472D01*
X171978037Y-100571917D01*
X171967635Y-100528237D01*
X171965057Y-100518498D01*
X171951879Y-100488377D01*
X171937458Y-100476244D01*
X171936653Y-100476226D01*
X171911492Y-100469805D01*
X171877401Y-100455330D01*
X171841424Y-100426112D01*
X171807612Y-100371904D01*
X171781495Y-100299883D01*
X171763334Y-100214814D01*
X171753388Y-100121462D01*
X171753075Y-100100834D01*
X171805728Y-100100834D01*
X171820429Y-100206484D01*
X171851725Y-100299545D01*
X171878405Y-100347537D01*
X171907615Y-100384565D01*
X171933984Y-100403541D01*
X171953676Y-100400661D01*
X171956103Y-100394729D01*
X171958673Y-100367056D01*
X171957649Y-100326749D01*
X171957555Y-100325373D01*
X171955280Y-100289601D01*
X171951817Y-100232034D01*
X171947493Y-100158221D01*
X171942630Y-100073710D01*
X171937557Y-99984050D01*
X171925008Y-99760402D01*
X172012197Y-99760402D01*
X172012452Y-99799853D01*
X172015328Y-99913840D01*
X172021026Y-100036269D01*
X172029071Y-100161111D01*
X172038991Y-100282339D01*
X172050313Y-100393922D01*
X172062563Y-100489834D01*
X172075268Y-100564045D01*
X172103361Y-100687817D01*
X172167597Y-100910008D01*
X172245485Y-101109968D01*
X172338000Y-101289466D01*
X172446115Y-101450272D01*
X172570805Y-101594155D01*
X172713042Y-101722885D01*
X172854655Y-101825843D01*
X173021087Y-101920176D01*
X173189970Y-101988094D01*
X173360197Y-102029162D01*
X173530661Y-102042947D01*
X173550607Y-102042889D01*
X173602788Y-102041386D01*
X173636507Y-102036710D01*
X173658902Y-102027339D01*
X173677109Y-102011752D01*
X173684625Y-102003660D01*
X173729888Y-101945497D01*
X173779297Y-101869003D01*
X173829168Y-101780995D01*
X173875820Y-101688294D01*
X173915570Y-101597720D01*
X173944736Y-101516091D01*
X173954029Y-101485355D01*
X173969096Y-101435480D01*
X173980332Y-101398242D01*
X173986629Y-101375159D01*
X174001840Y-101303162D01*
X174016750Y-101212525D01*
X174030678Y-101109649D01*
X174042939Y-101000933D01*
X174052852Y-100892779D01*
X174059733Y-100791586D01*
X174062901Y-100703755D01*
X174061671Y-100635688D01*
X174057151Y-100566364D01*
X173939301Y-100557847D01*
X173893703Y-100553310D01*
X173785100Y-100529288D01*
X173689829Y-100485678D01*
X173600965Y-100419650D01*
X173516668Y-100329521D01*
X173451629Y-100223342D01*
X173411984Y-100107593D01*
X173398581Y-99984097D01*
X173398591Y-99980354D01*
X173404772Y-99921907D01*
X173760633Y-99921907D01*
X173765253Y-99983815D01*
X173775917Y-100047405D01*
X173793977Y-100124993D01*
X173805708Y-100169597D01*
X173826132Y-100239799D01*
X173846490Y-100302307D01*
X173863747Y-100347446D01*
X173878344Y-100379792D01*
X173892410Y-100402572D01*
X173910773Y-100415773D01*
X173939290Y-100421706D01*
X173983819Y-100422682D01*
X174050218Y-100421011D01*
X174074079Y-100419221D01*
X174155323Y-100400411D01*
X174239455Y-100365237D01*
X174316546Y-100318452D01*
X174376666Y-100264806D01*
X174384700Y-100255455D01*
X174433799Y-100188911D01*
X174465005Y-100122865D01*
X174481518Y-100048330D01*
X174486541Y-99956321D01*
X174486546Y-99937937D01*
X174484905Y-99878532D01*
X174479209Y-99834442D01*
X174467599Y-99795777D01*
X174448213Y-99752648D01*
X174412982Y-99694268D01*
X174346279Y-99617390D01*
X174266673Y-99552877D01*
X174182398Y-99508295D01*
X174171602Y-99504311D01*
X174091756Y-99484211D01*
X173999796Y-99477991D01*
X173988241Y-99478012D01*
X173937643Y-99479388D01*
X173905259Y-99484444D01*
X173883036Y-99495306D01*
X173862921Y-99514097D01*
X173849574Y-99529144D01*
X173810521Y-99585448D01*
X173784162Y-99649715D01*
X173768444Y-99728275D01*
X173761317Y-99827454D01*
X173760704Y-99849366D01*
X173760633Y-99921907D01*
X173404772Y-99921907D01*
X173412028Y-99853302D01*
X173449989Y-99735944D01*
X173511164Y-99631237D01*
X173594244Y-99542140D01*
X173634328Y-99510888D01*
X173716220Y-99459790D01*
X173805469Y-99416727D01*
X173893251Y-99385714D01*
X173970740Y-99370770D01*
X174036888Y-99369779D01*
X174156444Y-99387978D01*
X174274928Y-99430207D01*
X174386749Y-99494801D01*
X174395133Y-99501271D01*
X174435674Y-99550094D01*
X174469429Y-99619756D01*
X174495630Y-99704994D01*
X174513512Y-99800544D01*
X174522310Y-99901142D01*
X174521257Y-100001526D01*
X174509588Y-100096432D01*
X174486537Y-100180597D01*
X174433850Y-100289362D01*
X174360191Y-100388281D01*
X174270948Y-100468040D01*
X174169357Y-100525125D01*
X174122427Y-100544734D01*
X174113355Y-100735789D01*
X174102615Y-100897529D01*
X174079663Y-101103919D01*
X174047493Y-101297402D01*
X174006915Y-101473318D01*
X173958736Y-101627009D01*
X173942067Y-101670034D01*
X173910638Y-101742900D01*
X173876056Y-101815501D01*
X173841575Y-101881424D01*
X173810450Y-101934257D01*
X173785933Y-101967586D01*
X173768184Y-101988521D01*
X173761711Y-102007001D01*
X173778772Y-102013720D01*
X173820862Y-102010516D01*
X173848255Y-102005939D01*
X173941764Y-101981355D01*
X174049156Y-101941868D01*
X174164769Y-101889471D01*
X174217068Y-101859241D01*
X174405982Y-101859241D01*
X174409108Y-101863484D01*
X174432215Y-101869108D01*
X174471021Y-101872485D01*
X174499046Y-101872842D01*
X174520238Y-101870410D01*
X174517279Y-101865066D01*
X174517064Y-101864974D01*
X174522724Y-101860895D01*
X174552211Y-101855777D01*
X174601767Y-101850055D01*
X174667631Y-101844166D01*
X174746045Y-101838544D01*
X174816575Y-101833645D01*
X174901166Y-101826798D01*
X174976796Y-101819655D01*
X175037222Y-101812812D01*
X175076201Y-101806870D01*
X175169036Y-101788037D01*
X175247758Y-101771876D01*
X175306597Y-101759507D01*
X175349373Y-101750108D01*
X175379907Y-101742862D01*
X175402020Y-101736946D01*
X175426830Y-101729839D01*
X175474582Y-101716244D01*
X175526801Y-101701441D01*
X175566014Y-101689723D01*
X175603887Y-101676927D01*
X175623854Y-101668239D01*
X175645112Y-101658737D01*
X175679196Y-101648612D01*
X175708887Y-101639405D01*
X175767979Y-101615486D01*
X175840661Y-101581764D01*
X175921097Y-101541214D01*
X176003450Y-101496812D01*
X176081883Y-101451531D01*
X176150560Y-101408348D01*
X176274660Y-101317032D01*
X176399630Y-101208096D01*
X176514035Y-101091394D01*
X176609806Y-100974547D01*
X176623441Y-100955513D01*
X176676792Y-100874463D01*
X176731458Y-100782660D01*
X176782911Y-100688308D01*
X176826623Y-100599610D01*
X176858065Y-100524771D01*
X176867993Y-100498375D01*
X176882854Y-100461784D01*
X176892580Y-100441583D01*
X176899417Y-100426144D01*
X176911806Y-100390535D01*
X176925963Y-100344530D01*
X176937390Y-100305762D01*
X176951652Y-100258745D01*
X176961860Y-100226681D01*
X176979878Y-100161366D01*
X176998711Y-100057238D01*
X177012188Y-99937257D01*
X177020093Y-99807878D01*
X177022214Y-99675555D01*
X177018335Y-99546745D01*
X177008244Y-99427901D01*
X176991727Y-99325480D01*
X176982049Y-99280739D01*
X176963782Y-99198578D01*
X176948500Y-99134373D01*
X176934559Y-99081754D01*
X176920319Y-99034352D01*
X176904136Y-98985797D01*
X176799887Y-98722962D01*
X176666660Y-98460639D01*
X176508322Y-98209977D01*
X176324956Y-97971110D01*
X176116648Y-97744171D01*
X176044986Y-97674179D01*
X175922535Y-97563674D01*
X175797136Y-97463184D01*
X175660955Y-97366595D01*
X175506158Y-97267794D01*
X175480811Y-97252401D01*
X175421073Y-97217010D01*
X175370899Y-97188513D01*
X175334942Y-97169510D01*
X175317852Y-97162598D01*
X175314298Y-97163766D01*
X175302112Y-97182388D01*
X175292960Y-97216499D01*
X175276040Y-97265421D01*
X175234588Y-97322219D01*
X175174464Y-97371631D01*
X175153444Y-97388032D01*
X175148187Y-97406965D01*
X175157133Y-97439381D01*
X175168752Y-97488150D01*
X175172655Y-97549338D01*
X175166577Y-97605448D01*
X175150838Y-97645963D01*
X175150436Y-97646532D01*
X175122134Y-97676500D01*
X175085889Y-97703832D01*
X175066291Y-97716797D01*
X175051297Y-97734297D01*
X175046031Y-97760499D01*
X175046837Y-97804864D01*
X175046793Y-97838245D01*
X175036229Y-97906362D01*
X175013227Y-97961592D01*
X174980172Y-97997054D01*
X174962011Y-98012100D01*
X174951419Y-98031387D01*
X174952088Y-98034735D01*
X174963406Y-98058588D01*
X174985818Y-98096665D01*
X175015550Y-98142435D01*
X175045239Y-98187635D01*
X175065146Y-98224365D01*
X175077419Y-98260533D01*
X175085225Y-98305548D01*
X175091730Y-98368821D01*
X175105927Y-98521092D01*
X175122130Y-98686050D01*
X175137313Y-98829496D01*
X175151875Y-98954831D01*
X175166213Y-99065453D01*
X175180728Y-99164762D01*
X175195817Y-99256157D01*
X175209372Y-99330441D01*
X175221859Y-99387196D01*
X175234338Y-99425524D01*
X175248841Y-99450075D01*
X175267399Y-99465498D01*
X175292043Y-99476443D01*
X175321052Y-99491310D01*
X175370333Y-99536740D01*
X175420322Y-99608300D01*
X175471619Y-99706757D01*
X175505650Y-99789308D01*
X175537442Y-99909027D01*
X175547598Y-100030712D01*
X175547003Y-100064034D01*
X175530709Y-100201406D01*
X175492779Y-100324579D01*
X175434086Y-100431859D01*
X175355504Y-100521554D01*
X175257907Y-100591970D01*
X175240542Y-100602052D01*
X175218496Y-100617827D01*
X175201451Y-100637561D01*
X175186025Y-100666860D01*
X175168834Y-100711331D01*
X175146495Y-100776579D01*
X175140384Y-100794571D01*
X175044573Y-101036887D01*
X174929330Y-101263364D01*
X174796374Y-101470596D01*
X174777533Y-101495713D01*
X174735235Y-101547612D01*
X174685297Y-101604853D01*
X174631380Y-101663658D01*
X174577143Y-101720246D01*
X174526244Y-101770838D01*
X174482342Y-101811654D01*
X174449098Y-101838916D01*
X174430170Y-101848843D01*
X174423835Y-101849445D01*
X174405982Y-101859241D01*
X174217068Y-101859241D01*
X174308383Y-101806459D01*
X174459770Y-101690637D01*
X174600658Y-101552204D01*
X174729283Y-101393363D01*
X174843883Y-101216314D01*
X174942696Y-101023258D01*
X175023959Y-100816397D01*
X175043333Y-100758632D01*
X175063506Y-100695463D01*
X175075410Y-100650360D01*
X175079518Y-100618544D01*
X175076303Y-100595236D01*
X175066236Y-100575656D01*
X175049789Y-100555027D01*
X175001856Y-100489740D01*
X174945810Y-100388030D01*
X174897619Y-100272317D01*
X174859933Y-100150183D01*
X174835404Y-100029208D01*
X174828124Y-99935524D01*
X174918668Y-99935524D01*
X174919151Y-99965586D01*
X174922147Y-100037635D01*
X174928623Y-100095174D01*
X174939990Y-100147994D01*
X174957662Y-100205884D01*
X174989570Y-100291534D01*
X175042236Y-100398059D01*
X175107600Y-100494026D01*
X175131325Y-100520747D01*
X175161201Y-100537722D01*
X175194548Y-100532406D01*
X175238675Y-100505433D01*
X175238971Y-100505218D01*
X175260773Y-100485889D01*
X175267732Y-100465342D01*
X175259714Y-100436263D01*
X175236583Y-100391337D01*
X175190418Y-100294328D01*
X175147338Y-100166654D01*
X175118174Y-100032291D01*
X175103980Y-99898156D01*
X175104010Y-99896112D01*
X175176544Y-99896112D01*
X175181754Y-99975740D01*
X175193536Y-100049057D01*
X175201614Y-100079566D01*
X175220231Y-100135057D01*
X175244344Y-100196959D01*
X175271469Y-100259855D01*
X175299123Y-100318330D01*
X175324823Y-100366967D01*
X175346084Y-100400350D01*
X175360426Y-100413063D01*
X175366639Y-100410874D01*
X175384809Y-100389268D01*
X175406589Y-100349365D01*
X175429521Y-100297062D01*
X175451143Y-100238261D01*
X175468998Y-100178858D01*
X175480625Y-100124755D01*
X175489037Y-100053747D01*
X175488907Y-99991830D01*
X175479866Y-99925388D01*
X175470012Y-99882283D01*
X175442910Y-99800266D01*
X175407028Y-99718577D01*
X175366555Y-99646264D01*
X175325680Y-99592374D01*
X175313808Y-99580838D01*
X175281624Y-99556861D01*
X175256275Y-99547314D01*
X175250473Y-99548141D01*
X175228557Y-99567266D01*
X175209698Y-99608184D01*
X175194481Y-99666211D01*
X175183493Y-99736664D01*
X175177318Y-99814859D01*
X175176544Y-99896112D01*
X175104010Y-99896112D01*
X175105813Y-99771164D01*
X175124727Y-99658231D01*
X175132795Y-99626254D01*
X175141792Y-99584146D01*
X175145359Y-99557713D01*
X175143850Y-99544981D01*
X175135126Y-99534415D01*
X175109679Y-99539945D01*
X175070203Y-99551762D01*
X175027135Y-99566399D01*
X174990573Y-99580421D01*
X174970612Y-99590392D01*
X174963724Y-99598580D01*
X174948702Y-99635314D01*
X174935917Y-99692478D01*
X174926138Y-99764970D01*
X174920132Y-99847686D01*
X174918668Y-99935524D01*
X174828124Y-99935524D01*
X174826682Y-99916973D01*
X174829161Y-99870604D01*
X174836144Y-99806929D01*
X174846265Y-99736278D01*
X174858155Y-99667302D01*
X174870445Y-99608654D01*
X174881764Y-99568984D01*
X174883687Y-99558815D01*
X174881209Y-99519220D01*
X174870379Y-99459590D01*
X174852470Y-99383831D01*
X174828761Y-99295850D01*
X174800526Y-99199554D01*
X174769041Y-99098848D01*
X174735582Y-98997639D01*
X174701425Y-98899834D01*
X174667846Y-98809338D01*
X174636121Y-98730059D01*
X174607525Y-98665904D01*
X174583335Y-98620777D01*
X174564827Y-98598587D01*
X174557922Y-98595503D01*
X174551087Y-98600726D01*
X174551958Y-98622679D01*
X174560862Y-98664563D01*
X174578122Y-98729580D01*
X174606899Y-98833286D01*
X174561315Y-98871414D01*
X174549978Y-98880513D01*
X174519642Y-98901258D01*
X174499938Y-98909541D01*
X174499710Y-98909537D01*
X174480026Y-98905999D01*
X174439517Y-98896768D01*
X174383971Y-98883214D01*
X174319174Y-98866708D01*
X174263012Y-98852169D01*
X174178077Y-98830302D01*
X174096262Y-98809357D01*
X174029421Y-98792376D01*
X173904640Y-98760877D01*
X173901237Y-98708504D01*
X173967031Y-98708504D01*
X173969391Y-98718193D01*
X173987394Y-98729301D01*
X173995509Y-98730249D01*
X174028836Y-98737254D01*
X174080213Y-98749799D01*
X174143939Y-98766355D01*
X174214314Y-98785395D01*
X174285638Y-98805391D01*
X174352210Y-98824814D01*
X174408331Y-98842138D01*
X174452958Y-98855222D01*
X174487462Y-98862889D01*
X174503306Y-98863149D01*
X174506160Y-98851730D01*
X174494723Y-98834640D01*
X174474097Y-98826354D01*
X174460832Y-98823828D01*
X174424148Y-98814414D01*
X174369456Y-98799269D01*
X174301468Y-98779705D01*
X174224892Y-98757030D01*
X174162075Y-98738333D01*
X174092937Y-98718137D01*
X174036557Y-98702099D01*
X173997526Y-98691522D01*
X173980435Y-98687707D01*
X173974273Y-98690050D01*
X173967031Y-98708504D01*
X173901237Y-98708504D01*
X173890775Y-98547518D01*
X173876910Y-98334159D01*
X173807587Y-98316167D01*
X173791573Y-98312519D01*
X173737723Y-98303548D01*
X173671404Y-98295548D01*
X173603416Y-98289906D01*
X173589155Y-98289056D01*
X173529246Y-98286481D01*
X173491259Y-98287360D01*
X173470451Y-98292064D01*
X173462079Y-98300966D01*
X173458525Y-98313549D01*
X173449519Y-98360124D01*
X173440823Y-98422312D01*
X173433408Y-98491533D01*
X173428247Y-98559208D01*
X173426310Y-98616755D01*
X173424659Y-98664256D01*
X173419123Y-98704679D01*
X173410556Y-98723536D01*
X173409189Y-98724304D01*
X173392281Y-98729796D01*
X173360445Y-98735891D01*
X173311139Y-98742924D01*
X173241822Y-98751226D01*
X173149953Y-98761132D01*
X173032988Y-98772973D01*
X172854568Y-98790656D01*
X172821553Y-98752273D01*
X172816002Y-98745644D01*
X172803412Y-98727036D01*
X172800434Y-98718786D01*
X172861313Y-98718786D01*
X172865940Y-98728713D01*
X172875530Y-98731642D01*
X172909736Y-98732501D01*
X172963241Y-98729145D01*
X173031168Y-98721777D01*
X173077263Y-98716323D01*
X173149415Y-98709084D01*
X173214006Y-98704033D01*
X173261090Y-98702023D01*
X173306422Y-98700503D01*
X173339865Y-98694600D01*
X173350603Y-98683085D01*
X173341304Y-98664720D01*
X173332282Y-98655490D01*
X173317161Y-98647485D01*
X173313610Y-98648056D01*
X173288191Y-98652190D01*
X173244901Y-98659250D01*
X173190611Y-98668117D01*
X173183601Y-98669252D01*
X173113503Y-98679710D01*
X173041679Y-98689147D01*
X172982642Y-98695642D01*
X172958932Y-98697899D01*
X172904384Y-98704349D01*
X172872986Y-98710988D01*
X172861313Y-98718786D01*
X172800434Y-98718786D01*
X172795384Y-98704794D01*
X172790905Y-98672895D01*
X172788960Y-98625318D01*
X172788537Y-98556038D01*
X172787812Y-98498576D01*
X172785543Y-98444871D01*
X172782098Y-98407270D01*
X172777855Y-98391584D01*
X172771560Y-98390761D01*
X172742867Y-98394040D01*
X172698483Y-98402359D01*
X172645655Y-98414065D01*
X172591631Y-98427503D01*
X172543659Y-98441018D01*
X172508985Y-98452957D01*
X172491339Y-98461728D01*
X172477467Y-98474839D01*
X172467131Y-98496516D01*
X172458795Y-98531519D01*
X172450923Y-98584608D01*
X172441978Y-98660542D01*
X172432137Y-98730948D01*
X172418767Y-98781421D01*
X172399059Y-98814264D01*
X172369889Y-98834612D01*
X172328132Y-98847600D01*
X172305965Y-98853523D01*
X172244574Y-98878528D01*
X172190337Y-98911783D01*
X172153436Y-98947467D01*
X172139296Y-98970442D01*
X172109837Y-99038914D01*
X172082950Y-99129059D01*
X172059353Y-99236747D01*
X172039762Y-99357853D01*
X172024894Y-99488249D01*
X172015467Y-99623808D01*
X172012197Y-99760402D01*
X171925008Y-99760402D01*
X171921998Y-99706757D01*
X171891930Y-99748908D01*
X171874815Y-99778148D01*
X171852060Y-99827119D01*
X171831591Y-99880622D01*
X171828030Y-99891668D01*
X171808102Y-99992570D01*
X171805728Y-100100834D01*
X171753075Y-100100834D01*
X171751917Y-100024592D01*
X171759183Y-99928968D01*
X171775445Y-99839354D01*
X171800963Y-99760516D01*
X171835998Y-99697218D01*
X171844352Y-99684464D01*
X171855463Y-99658432D01*
X171863538Y-99622063D01*
X171866502Y-99596807D01*
X171917857Y-99596807D01*
X171921802Y-99624765D01*
X171929372Y-99631245D01*
X171938554Y-99614199D01*
X171947335Y-99571577D01*
X171947533Y-99570172D01*
X171952989Y-99532417D01*
X171961394Y-99475190D01*
X171971637Y-99406014D01*
X171982610Y-99332412D01*
X171993689Y-99256616D01*
X172004377Y-99180300D01*
X172013266Y-99113644D01*
X172019141Y-99065518D01*
X172019892Y-99058546D01*
X172023080Y-99009834D01*
X172018653Y-98985086D01*
X172005047Y-98981481D01*
X171980696Y-98996195D01*
X171977433Y-98999160D01*
X171968789Y-99014290D01*
X171961670Y-99041588D01*
X171955468Y-99084942D01*
X171949577Y-99148237D01*
X171943392Y-99235360D01*
X171940935Y-99272438D01*
X171935116Y-99355997D01*
X171929331Y-99434001D01*
X171924137Y-99499076D01*
X171920091Y-99543848D01*
X171919550Y-99549419D01*
X171917857Y-99596807D01*
X171866502Y-99596807D01*
X171869700Y-99569561D01*
X171875068Y-99495128D01*
X171877806Y-99450544D01*
X171883562Y-99357418D01*
X171889484Y-99262250D01*
X171894649Y-99179902D01*
X171904271Y-99027391D01*
X171847277Y-98992922D01*
X171828879Y-98981026D01*
X171803743Y-98961155D01*
X171890040Y-98961155D01*
X171902017Y-98964559D01*
X171920799Y-98960583D01*
X171950543Y-98944644D01*
X171957311Y-98939373D01*
X171967821Y-98927251D01*
X171955843Y-98923847D01*
X171937061Y-98927822D01*
X171907317Y-98943762D01*
X171900549Y-98949033D01*
X171890040Y-98961155D01*
X171803743Y-98961155D01*
X171801185Y-98959133D01*
X171790284Y-98944156D01*
X171793922Y-98926395D01*
X171795442Y-98920580D01*
X171990806Y-98920580D01*
X172003244Y-98921723D01*
X172029470Y-98912677D01*
X172033920Y-98910507D01*
X172074459Y-98892132D01*
X172124955Y-98870869D01*
X172178325Y-98849495D01*
X172227488Y-98830788D01*
X172265361Y-98817527D01*
X172284863Y-98812489D01*
X172289937Y-98811925D01*
X172310207Y-98798624D01*
X172310773Y-98789133D01*
X172294495Y-98785667D01*
X172266303Y-98791330D01*
X172233952Y-98805430D01*
X172228989Y-98808123D01*
X172195028Y-98824448D01*
X172146197Y-98846085D01*
X172091303Y-98869104D01*
X172071729Y-98877254D01*
X172027970Y-98897027D01*
X171999179Y-98912400D01*
X171990806Y-98920580D01*
X171795442Y-98920580D01*
X171804045Y-98887671D01*
X171813800Y-98852760D01*
X171878384Y-98852760D01*
X171886331Y-98873053D01*
X171913773Y-98874735D01*
X171959734Y-98857377D01*
X172002274Y-98837134D01*
X172058727Y-98811220D01*
X172116103Y-98785615D01*
X172122858Y-98782646D01*
X172171860Y-98760734D01*
X172211476Y-98742408D01*
X172233672Y-98731376D01*
X172238805Y-98726081D01*
X172252010Y-98694083D01*
X172266524Y-98635195D01*
X172282199Y-98549982D01*
X172286342Y-98525114D01*
X172297994Y-98460104D01*
X172308109Y-98415724D01*
X172318404Y-98386738D01*
X172330593Y-98367911D01*
X172335167Y-98363885D01*
X172554227Y-98363885D01*
X172565077Y-98366436D01*
X172594400Y-98363574D01*
X172635424Y-98356431D01*
X172681378Y-98346141D01*
X172725487Y-98333837D01*
X172741909Y-98328592D01*
X172764799Y-98320212D01*
X172763580Y-98316726D01*
X172740011Y-98315973D01*
X172707921Y-98318785D01*
X172662192Y-98327209D01*
X172615078Y-98338882D01*
X172576188Y-98351394D01*
X172555131Y-98362335D01*
X172554227Y-98363885D01*
X172335167Y-98363885D01*
X172346391Y-98354005D01*
X172352564Y-98350095D01*
X172390013Y-98333538D01*
X172446275Y-98314405D01*
X172514699Y-98294437D01*
X172588639Y-98275379D01*
X172661445Y-98258974D01*
X172726469Y-98246964D01*
X172777062Y-98241092D01*
X172850928Y-98237107D01*
X172854775Y-98443362D01*
X172858622Y-98649618D01*
X172910233Y-98640834D01*
X172926940Y-98638067D01*
X172974248Y-98630514D01*
X173035104Y-98621019D01*
X173100491Y-98610995D01*
X173139515Y-98604939D01*
X173195572Y-98595752D01*
X173238241Y-98588152D01*
X173260499Y-98583352D01*
X173268539Y-98576309D01*
X173277953Y-98554024D01*
X173287717Y-98513673D01*
X173298573Y-98452076D01*
X173311265Y-98366052D01*
X173313800Y-98347942D01*
X173326117Y-98264768D01*
X173337591Y-98205191D01*
X173597126Y-98205191D01*
X173598530Y-98211845D01*
X173618438Y-98220689D01*
X173652410Y-98229793D01*
X173696007Y-98237229D01*
X173725044Y-98241625D01*
X173786935Y-98253645D01*
X173846093Y-98267807D01*
X173884486Y-98276806D01*
X173922322Y-98281299D01*
X173940889Y-98277136D01*
X173936607Y-98264452D01*
X173927669Y-98260926D01*
X173896011Y-98252670D01*
X173847505Y-98241818D01*
X173788226Y-98229791D01*
X173747017Y-98222056D01*
X173688666Y-98211995D01*
X173642678Y-98205139D01*
X173616457Y-98202658D01*
X173597126Y-98205191D01*
X173337591Y-98205191D01*
X173337691Y-98204671D01*
X173350884Y-98163913D01*
X173368057Y-98138758D01*
X173391574Y-98125467D01*
X173423797Y-98120302D01*
X173467088Y-98119527D01*
X173513205Y-98121211D01*
X173593657Y-98128519D01*
X173683532Y-98140446D01*
X173775412Y-98155721D01*
X173861876Y-98173073D01*
X173935504Y-98191231D01*
X173988878Y-98208923D01*
X174040469Y-98230479D01*
X174030974Y-98422315D01*
X174028302Y-98478745D01*
X174026404Y-98544080D01*
X174028243Y-98588915D01*
X174035107Y-98617576D01*
X174048285Y-98634392D01*
X174069068Y-98643690D01*
X174098745Y-98649798D01*
X174109710Y-98652011D01*
X174150275Y-98661960D01*
X174204962Y-98676772D01*
X174265120Y-98694139D01*
X174279826Y-98698517D01*
X174360087Y-98722240D01*
X174418101Y-98738924D01*
X174457564Y-98749504D01*
X174482167Y-98754914D01*
X174495607Y-98756089D01*
X174501576Y-98753963D01*
X174502053Y-98751086D01*
X174499022Y-98726998D01*
X174490591Y-98682899D01*
X174477759Y-98623768D01*
X174461524Y-98554579D01*
X174444930Y-98484506D01*
X174431028Y-98417220D01*
X174425493Y-98370233D01*
X174428867Y-98339961D01*
X174441690Y-98322820D01*
X174464501Y-98315225D01*
X174497840Y-98313590D01*
X174521402Y-98315000D01*
X174593252Y-98336670D01*
X174662690Y-98384933D01*
X174730610Y-98460354D01*
X174751142Y-98488095D01*
X174775325Y-98525695D01*
X174790803Y-98561716D01*
X174801328Y-98605889D01*
X174810653Y-98667943D01*
X174813115Y-98685878D01*
X174822800Y-98751062D01*
X174832676Y-98810811D01*
X174840945Y-98854083D01*
X174845510Y-98876516D01*
X174855691Y-98931697D01*
X174868576Y-99005700D01*
X174883279Y-99093219D01*
X174898913Y-99188948D01*
X174914592Y-99287581D01*
X174929430Y-99383812D01*
X174931175Y-99395026D01*
X174940232Y-99445344D01*
X174948987Y-99483095D01*
X174955762Y-99500820D01*
X174963533Y-99502882D01*
X174991967Y-99499117D01*
X175031456Y-99487480D01*
X175052970Y-99480309D01*
X175096788Y-99468636D01*
X175128193Y-99464058D01*
X175138687Y-99464052D01*
X175150959Y-99461773D01*
X175156721Y-99452303D01*
X175156383Y-99430615D01*
X175150353Y-99391682D01*
X175139038Y-99330478D01*
X175134816Y-99307539D01*
X175104427Y-99121823D01*
X175076877Y-98916965D01*
X175053097Y-98700489D01*
X175034014Y-98479921D01*
X175019027Y-98279068D01*
X174933231Y-98145826D01*
X174905073Y-98100163D01*
X174863125Y-98028076D01*
X174816122Y-97943991D01*
X174767989Y-97854952D01*
X174736192Y-97793969D01*
X174829022Y-97793969D01*
X174838307Y-97822044D01*
X174862490Y-97872045D01*
X174898343Y-97942797D01*
X174926808Y-97914332D01*
X174935544Y-97904583D01*
X174947327Y-97874757D01*
X174933413Y-97845513D01*
X174892960Y-97814367D01*
X174859682Y-97795014D01*
X174835769Y-97785675D01*
X174829022Y-97793969D01*
X174736192Y-97793969D01*
X174722653Y-97768002D01*
X174597871Y-97523421D01*
X174507751Y-97489319D01*
X174418921Y-97457439D01*
X174269530Y-97409757D01*
X174113095Y-97365924D01*
X173960205Y-97328839D01*
X173821452Y-97301403D01*
X173657605Y-97280833D01*
X173480832Y-97271308D01*
X173299222Y-97272611D01*
X173120478Y-97284459D01*
X172952303Y-97306572D01*
X172802402Y-97338668D01*
X172747480Y-97354012D01*
X172626009Y-97392847D01*
X172519572Y-97433881D01*
X172434463Y-97474787D01*
X172412173Y-97487481D01*
X172380772Y-97508278D01*
X172355136Y-97531873D01*
X172332081Y-97562865D01*
X172308421Y-97605856D01*
X172280972Y-97665447D01*
X172246548Y-97746239D01*
X172230179Y-97788045D01*
X172206111Y-97853884D01*
X172176603Y-97937499D01*
X172143154Y-98034434D01*
X172107264Y-98140230D01*
X172070435Y-98250431D01*
X172034165Y-98360577D01*
X171999955Y-98466211D01*
X171969306Y-98562876D01*
X171943717Y-98646113D01*
X171929287Y-98693457D01*
X171910886Y-98751984D01*
X171895705Y-98798215D01*
X171886048Y-98824997D01*
X171878384Y-98852760D01*
X171813800Y-98852760D01*
X171819088Y-98833837D01*
X171837483Y-98770655D01*
X171866044Y-98675203D01*
X171925564Y-98481923D01*
X171983875Y-98299956D01*
X172040330Y-98131028D01*
X172094285Y-97976860D01*
X172145093Y-97839176D01*
X172192109Y-97719701D01*
X172234685Y-97620156D01*
X172272177Y-97542267D01*
X172303939Y-97487756D01*
X172329324Y-97458346D01*
X172338869Y-97451739D01*
X172385697Y-97424875D01*
X172449885Y-97393280D01*
X172524534Y-97360066D01*
X172602745Y-97328346D01*
X172677620Y-97301231D01*
X172699683Y-97294245D01*
X172777806Y-97273651D01*
X172871338Y-97253553D01*
X172974233Y-97234835D01*
X173080445Y-97218382D01*
X173183929Y-97205079D01*
X173278640Y-97195812D01*
X173358531Y-97191464D01*
X173417558Y-97192921D01*
X173439555Y-97194304D01*
X173455227Y-97188702D01*
X173463118Y-97168796D01*
X173466375Y-97143773D01*
X173553640Y-97143773D01*
X173558024Y-97196991D01*
X173710535Y-97213002D01*
X173762529Y-97218902D01*
X173946616Y-97247361D01*
X174131689Y-97288461D01*
X174324547Y-97343876D01*
X174531984Y-97415279D01*
X174558805Y-97425318D01*
X174606829Y-97445352D01*
X174638079Y-97463663D01*
X174659382Y-97484856D01*
X174677563Y-97513541D01*
X174684462Y-97525514D01*
X174703008Y-97550953D01*
X174727038Y-97570121D01*
X174763590Y-97587719D01*
X174819705Y-97608446D01*
X174835810Y-97613971D01*
X174889670Y-97630977D01*
X174934238Y-97642936D01*
X174961165Y-97647542D01*
X174985874Y-97644742D01*
X175021470Y-97633726D01*
X175050399Y-97618500D01*
X175062336Y-97603553D01*
X175058258Y-97586945D01*
X175033685Y-97550401D01*
X174989753Y-97506742D01*
X174929766Y-97459560D01*
X174881244Y-97427304D01*
X174759130Y-97360506D01*
X174610713Y-97295468D01*
X174436938Y-97232519D01*
X174238750Y-97171985D01*
X174017098Y-97114194D01*
X173772926Y-97059473D01*
X173767628Y-97058380D01*
X173712207Y-97047988D01*
X173664015Y-97040626D01*
X173632962Y-97037828D01*
X173623277Y-97038316D01*
X173583212Y-97054549D01*
X173559049Y-97090972D01*
X173553640Y-97143773D01*
X173466375Y-97143773D01*
X173468436Y-97127936D01*
X173474219Y-97089119D01*
X173492409Y-97037022D01*
X173525972Y-96997510D01*
X173580859Y-96961790D01*
X173611452Y-96944444D01*
X173634023Y-96926657D01*
X173641298Y-96907590D01*
X173638711Y-96879515D01*
X173637523Y-96870326D01*
X173640245Y-96824423D01*
X173719594Y-96824423D01*
X173720039Y-96866883D01*
X173724400Y-96919718D01*
X173897707Y-96935559D01*
X173996175Y-96946305D01*
X174224257Y-96984311D01*
X174446163Y-97039151D01*
X174655571Y-97109113D01*
X174846159Y-97192484D01*
X174891809Y-97215607D01*
X174945973Y-97243874D01*
X174988258Y-97266897D01*
X175012153Y-97281195D01*
X175053009Y-97298438D01*
X175104985Y-97295680D01*
X175154159Y-97268635D01*
X175192069Y-97236026D01*
X175126072Y-97165470D01*
X175086401Y-97127954D01*
X174992655Y-97062182D01*
X174873409Y-97001383D01*
X174729894Y-96946002D01*
X174563340Y-96896486D01*
X174374978Y-96853283D01*
X174166038Y-96816840D01*
X174095653Y-96806787D01*
X174010809Y-96795782D01*
X173931876Y-96786599D01*
X173869585Y-96780553D01*
X173861814Y-96779945D01*
X173796361Y-96777051D01*
X173753606Y-96781902D01*
X173729400Y-96796894D01*
X173719594Y-96824423D01*
X173640245Y-96824423D01*
X173641016Y-96811425D01*
X173659863Y-96754360D01*
X173690260Y-96711525D01*
X173705179Y-96696421D01*
X173715610Y-96673745D01*
X173700270Y-96659558D01*
X173658522Y-96652685D01*
X173646158Y-96651759D01*
X173604501Y-96647066D01*
X173576076Y-96641581D01*
X173573527Y-96640926D01*
X173551345Y-96647946D01*
X173529012Y-96680097D01*
X173501288Y-96730537D01*
X173406043Y-96866250D01*
X173287561Y-96987946D01*
X173145016Y-97096522D01*
X173131204Y-97105583D01*
X173056535Y-97150937D01*
X172991413Y-97181409D01*
X172926586Y-97199757D01*
X172852801Y-97208742D01*
X172760808Y-97211124D01*
X172710550Y-97210006D01*
X172613688Y-97201434D01*
X172527244Y-97185423D01*
X172456901Y-97163187D01*
X172408343Y-97135937D01*
X172392742Y-97125592D01*
X172391653Y-97131116D01*
X172394364Y-97148369D01*
X172385721Y-97177849D01*
X172381311Y-97186351D01*
X172376958Y-97200452D01*
X172388546Y-97196507D01*
X172388949Y-97196283D01*
X172386400Y-97202223D01*
X172367709Y-97224494D01*
X172335854Y-97259701D01*
X172293815Y-97304448D01*
X172274943Y-97324472D01*
X172121062Y-97505465D01*
X171974846Y-97708915D01*
X171838992Y-97930462D01*
X171716199Y-98165748D01*
X171609166Y-98410415D01*
X171597671Y-98440637D01*
X171562479Y-98547073D01*
X171528252Y-98669839D01*
X171497241Y-98800429D01*
X171471693Y-98930338D01*
X171467523Y-98964821D01*
X171463531Y-99030549D01*
X171461147Y-99114750D01*
X171460298Y-99212207D01*
X170797149Y-99212207D01*
X170788313Y-99093064D01*
X170780168Y-98949249D01*
X170774181Y-98801892D01*
X170770629Y-98656098D01*
X170769791Y-98516972D01*
X170771944Y-98389618D01*
X170774997Y-98310296D01*
X170780701Y-98200960D01*
X170788003Y-98088209D01*
X170796470Y-97977230D01*
X170805668Y-97873211D01*
X170815165Y-97781340D01*
X170824526Y-97706804D01*
X170833318Y-97654792D01*
X170839138Y-97627228D01*
X170850470Y-97572395D01*
X170861876Y-97516146D01*
X170871393Y-97470252D01*
X170888099Y-97395658D01*
X170904727Y-97327636D01*
X170919566Y-97273072D01*
X170930898Y-97238854D01*
X170940926Y-97209591D01*
X170951495Y-97169530D01*
X170955910Y-97151067D01*
X170979941Y-97072693D01*
X171015326Y-96977516D01*
X171059611Y-96870857D01*
X171078760Y-96828274D01*
X172123035Y-96828274D01*
X172133232Y-96844893D01*
X172162412Y-96872814D01*
X172205675Y-96907970D01*
X172258099Y-96946730D01*
X172314763Y-96985460D01*
X172370745Y-97020528D01*
X172421124Y-97048302D01*
X172423877Y-97049670D01*
X172560344Y-97104598D01*
X172692834Y-97132168D01*
X172821661Y-97132413D01*
X172947144Y-97105368D01*
X173004638Y-97084432D01*
X173047379Y-97060371D01*
X173071914Y-97029553D01*
X173083012Y-96985667D01*
X173085445Y-96922403D01*
X173078231Y-96835873D01*
X173054968Y-96763320D01*
X173013483Y-96701599D01*
X172996261Y-96687775D01*
X172955500Y-96678384D01*
X172912235Y-96690978D01*
X172908165Y-96693294D01*
X172849276Y-96718858D01*
X172769019Y-96743554D01*
X172673224Y-96766282D01*
X172567721Y-96785944D01*
X172458343Y-96801441D01*
X172350920Y-96811673D01*
X172251283Y-96815543D01*
X172220339Y-96816013D01*
X172170349Y-96818595D01*
X172135880Y-96822884D01*
X172123035Y-96828274D01*
X171078760Y-96828274D01*
X171110344Y-96758036D01*
X171165072Y-96644371D01*
X171221342Y-96535183D01*
X171238121Y-96505058D01*
X172000308Y-96505058D01*
X172001724Y-96576326D01*
X172007802Y-96627538D01*
X172017970Y-96660945D01*
X172037595Y-96684572D01*
X172074865Y-96702375D01*
X172107969Y-96711160D01*
X172172689Y-96719673D01*
X172253055Y-96723950D01*
X172342238Y-96724027D01*
X172433411Y-96719944D01*
X172519746Y-96711738D01*
X172594417Y-96699449D01*
X172606491Y-96696789D01*
X172667049Y-96682014D01*
X172731873Y-96664346D01*
X172794728Y-96645697D01*
X172849376Y-96627979D01*
X172889581Y-96613103D01*
X172902946Y-96606175D01*
X173064220Y-96606175D01*
X173101529Y-96662553D01*
X173129616Y-96698279D01*
X173160212Y-96716012D01*
X173197243Y-96712389D01*
X173247648Y-96688648D01*
X173255085Y-96684390D01*
X173290819Y-96659449D01*
X173300383Y-96641360D01*
X173284198Y-96629437D01*
X173283305Y-96629181D01*
X173259659Y-96625214D01*
X173217578Y-96620175D01*
X173165543Y-96615089D01*
X173064220Y-96606175D01*
X172902946Y-96606175D01*
X172909107Y-96602981D01*
X172904845Y-96589931D01*
X172887791Y-96558544D01*
X172860649Y-96513635D01*
X172826180Y-96459969D01*
X172764939Y-96363291D01*
X172685032Y-96223977D01*
X172616380Y-96087920D01*
X172608825Y-96070452D01*
X173820974Y-96070452D01*
X173821879Y-96135237D01*
X173823993Y-96184484D01*
X173827430Y-96221604D01*
X173832301Y-96250007D01*
X173838720Y-96273103D01*
X173867185Y-96337310D01*
X173927306Y-96417785D01*
X174006469Y-96479949D01*
X174029057Y-96492622D01*
X174055670Y-96504391D01*
X174085551Y-96512239D01*
X174124815Y-96517215D01*
X174179576Y-96520369D01*
X174255951Y-96522749D01*
X174274817Y-96523221D01*
X174370363Y-96524431D01*
X174444231Y-96522442D01*
X174501505Y-96516485D01*
X174547269Y-96505794D01*
X174586610Y-96489601D01*
X174624613Y-96467140D01*
X174688846Y-96424594D01*
X174742528Y-96461796D01*
X174753934Y-96469443D01*
X174815436Y-96501848D01*
X174885530Y-96523254D01*
X174970315Y-96535065D01*
X175075888Y-96538690D01*
X175092001Y-96538617D01*
X175201846Y-96533031D01*
X175289625Y-96517870D01*
X175359165Y-96492187D01*
X175414294Y-96455038D01*
X175460840Y-96414171D01*
X175520615Y-96461472D01*
X175587512Y-96504111D01*
X175672049Y-96531358D01*
X175769138Y-96536067D01*
X175787055Y-96534884D01*
X175825689Y-96529295D01*
X175847984Y-96517886D01*
X175862477Y-96497096D01*
X175865095Y-96490202D01*
X175869983Y-96464254D01*
X175873798Y-96421573D01*
X175876624Y-96359961D01*
X175878545Y-96277221D01*
X175879646Y-96171154D01*
X175880009Y-96039563D01*
X175880013Y-95989607D01*
X175879898Y-95880020D01*
X175879429Y-95793448D01*
X175878380Y-95726505D01*
X175876526Y-95675803D01*
X175873642Y-95637955D01*
X175869503Y-95609575D01*
X175863884Y-95587275D01*
X175856560Y-95567668D01*
X175847306Y-95547369D01*
X175804057Y-95475276D01*
X175744972Y-95417495D01*
X175665448Y-95372006D01*
X175646298Y-95363825D01*
X175622551Y-95355732D01*
X175595078Y-95349577D01*
X175559880Y-95344995D01*
X175512956Y-95341618D01*
X175450306Y-95339081D01*
X175367928Y-95337017D01*
X175261823Y-95335060D01*
X175187992Y-95333929D01*
X175092241Y-95333087D01*
X175017709Y-95333525D01*
X174960430Y-95335400D01*
X174916437Y-95338869D01*
X174881764Y-95344087D01*
X174852444Y-95351211D01*
X174828741Y-95359026D01*
X174744534Y-95403519D01*
X174675030Y-95467301D01*
X174624389Y-95545765D01*
X174596772Y-95634305D01*
X174595000Y-95644648D01*
X174586855Y-95680893D01*
X174579074Y-95701972D01*
X174575407Y-95704238D01*
X174549572Y-95708612D01*
X174505698Y-95710492D01*
X174450732Y-95709471D01*
X174331322Y-95704123D01*
X174314439Y-95625746D01*
X174309906Y-95606838D01*
X174271697Y-95512387D01*
X174212519Y-95433248D01*
X174135380Y-95372658D01*
X174043286Y-95333854D01*
X174023002Y-95328834D01*
X173953821Y-95319975D01*
X173896788Y-95325636D01*
X173856216Y-95344919D01*
X173836413Y-95376927D01*
X173836078Y-95378967D01*
X173834098Y-95405385D01*
X173831912Y-95454989D01*
X173829636Y-95523948D01*
X173827385Y-95608430D01*
X173825275Y-95704604D01*
X173823421Y-95808637D01*
X173822347Y-95880628D01*
X173821168Y-95986719D01*
X173820974Y-96070452D01*
X172608825Y-96070452D01*
X172560442Y-95958590D01*
X172518678Y-95839457D01*
X172492549Y-95733990D01*
X172483515Y-95645660D01*
X172482942Y-95609456D01*
X172479721Y-95537986D01*
X172474608Y-95473147D01*
X172469554Y-95436893D01*
X172460086Y-95400979D01*
X172449256Y-95387926D01*
X172447586Y-95387988D01*
X172417753Y-95398865D01*
X172377060Y-95424648D01*
X172332459Y-95459884D01*
X172290904Y-95499119D01*
X172259345Y-95536899D01*
X172251587Y-95548723D01*
X172216427Y-95613322D01*
X172178426Y-95698227D01*
X172139647Y-95797878D01*
X172102156Y-95906712D01*
X172068016Y-96019167D01*
X172039294Y-96129683D01*
X172032162Y-96163362D01*
X172019481Y-96242886D01*
X172009642Y-96331142D01*
X172003099Y-96420931D01*
X172000308Y-96505058D01*
X171238121Y-96505058D01*
X171276700Y-96435792D01*
X171328693Y-96351517D01*
X171467336Y-96162834D01*
X171638194Y-95973330D01*
X171828957Y-95800254D01*
X172036712Y-95646505D01*
X172050840Y-95636871D01*
X172095755Y-95602730D01*
X172128983Y-95572064D01*
X172144481Y-95550273D01*
X172148830Y-95539294D01*
X172168389Y-95504654D01*
X172195401Y-95466422D01*
X172204426Y-95454807D01*
X172220076Y-95431820D01*
X172229572Y-95408638D01*
X172234294Y-95378381D01*
X172235619Y-95334165D01*
X172235140Y-95289152D01*
X172332083Y-95289152D01*
X172336713Y-95320726D01*
X172350097Y-95332457D01*
X172374914Y-95327689D01*
X172413843Y-95309766D01*
X172420650Y-95306586D01*
X172468178Y-95290450D01*
X172518462Y-95280402D01*
X172537421Y-95277521D01*
X172565200Y-95268511D01*
X172593901Y-95250743D01*
X172629393Y-95220260D01*
X172677543Y-95173102D01*
X172777509Y-95072464D01*
X172689437Y-95009830D01*
X172687051Y-95008138D01*
X172635981Y-94974132D01*
X172586026Y-94944301D01*
X172547679Y-94924929D01*
X172506695Y-94910064D01*
X172460914Y-94903447D01*
X172427231Y-94915710D01*
X172400007Y-94947724D01*
X172374311Y-94996543D01*
X172355170Y-95053210D01*
X172342647Y-95122204D01*
X172334854Y-95211152D01*
X172333529Y-95234391D01*
X172332083Y-95289152D01*
X172235140Y-95289152D01*
X172234926Y-95269109D01*
X172237285Y-95173345D01*
X172255526Y-95049622D01*
X172292027Y-94944536D01*
X172347539Y-94856137D01*
X172386395Y-94818115D01*
X172539325Y-94818115D01*
X172539754Y-94819068D01*
X172555335Y-94830323D01*
X172588790Y-94849084D01*
X172633934Y-94871839D01*
X172685024Y-94900152D01*
X172749429Y-94943361D01*
X172803424Y-94987106D01*
X172820551Y-95002891D01*
X172854999Y-95032363D01*
X172880395Y-95047396D01*
X172904496Y-95051617D01*
X172935061Y-95048655D01*
X172957172Y-95044365D01*
X173012330Y-95027280D01*
X173070721Y-95002488D01*
X173126433Y-94973266D01*
X173173550Y-94942888D01*
X173206157Y-94914631D01*
X173218341Y-94891770D01*
X173218309Y-94891038D01*
X173209931Y-94877610D01*
X173184843Y-94857866D01*
X173140286Y-94829904D01*
X173073501Y-94791821D01*
X173040734Y-94776726D01*
X172985393Y-94757315D01*
X172927923Y-94742166D01*
X172881349Y-94733126D01*
X172836888Y-94726186D01*
X172809334Y-94723904D01*
X172781769Y-94727257D01*
X172735106Y-94737853D01*
X172682071Y-94753364D01*
X172629319Y-94771468D01*
X172583506Y-94789843D01*
X172551289Y-94806166D01*
X172539325Y-94818115D01*
X172386395Y-94818115D01*
X172422815Y-94782477D01*
X172460011Y-94755092D01*
X172530844Y-94710912D01*
X172598992Y-94677486D01*
X172656022Y-94659268D01*
X172662426Y-94657978D01*
X172695701Y-94648154D01*
X172713253Y-94637664D01*
X172721731Y-94633416D01*
X172752232Y-94628714D01*
X172796616Y-94626151D01*
X172846578Y-94625735D01*
X172893811Y-94627473D01*
G37*
D14*
%TO.C,C14*%
X161465000Y-123986252D02*
X161465000Y-122563748D01*
X163285000Y-123986252D02*
X163285000Y-122563748D01*
D16*
%TO.C,IC4*%
X156655000Y-118500000D02*
X156655000Y-114100000D01*
X166355000Y-118500000D02*
X166355000Y-114100000D01*
D17*
X156970000Y-111860000D02*
G75*
G02*
X156770000Y-111860000I-100000J0D01*
G01*
X156770000Y-111860000D02*
G75*
G02*
X156970000Y-111860000I100000J0D01*
G01*
D14*
%TO.C,R12*%
X158785000Y-123902064D02*
X158785000Y-122447936D01*
X156965000Y-123902064D02*
X156965000Y-122447936D01*
%TD*%
M02*
