M48
; DRILL file {KiCad 8.0.6} date 2025-05-15T16:35:37-0300
; FORMAT={-:-/ absolute / metric / decimal}
; #@! TF.CreationDate,2025-05-15T16:35:37-03:00
; #@! TF.GenerationSoftware,Kicad,Pcbnew,8.0.6
; #@! TF.FileFunction,Plated,1,4,PTH
FMAT,2
METRIC
; #@! TA.AperFunction,Plated,PTH,ViaDrill
T1C0.300
; #@! TA.AperFunction,Plated,PTH,ComponentDrill
T2C0.750
; #@! TA.AperFunction,Plated,PTH,ComponentDrill
T3C0.800
; #@! TA.AperFunction,Plated,PTH,ComponentDrill
T4C1.000
; #@! TA.AperFunction,Plated,PTH,ComponentDrill
T5C2.500
%
G90
G05
T1
X139.575Y-100.625
X139.975Y-126.8
X140.275Y-105.65
X140.325Y-130.05
X140.65Y-100.675
X141.575Y-130.125
X142.1Y-95.175
X143.7Y-105.625
X146.925Y-120.875
X148.075Y-110.875
X150.525Y-120.975
X151.375Y-110.875
X154.575Y-119.4
X155.325Y-119.875
X155.775Y-116.775
X155.825Y-107.875
X155.875Y-109.075
X156.075Y-114.575
X157.075Y-115.675
X157.275Y-117.875
X157.325Y-96.125
X158.175Y-95.275
X158.175Y-123.275
X158.275Y-117.775
X159.325Y-124.125
X159.575Y-121.975
X159.675Y-115.275
X159.875Y-120.775
X160.275Y-123.275
X160.584Y-120.234
X160.975Y-116.175
X161.175Y-112.175
X161.275Y-106.575
X162.325Y-130.125
X162.375Y-123.775
X163.22Y-110.289
X163.775Y-117.775
X163.775Y-130.075
X163.775Y-131.675
X164.475Y-108.475
X164.475Y-124.275
X164.825Y-105.375
X164.875Y-114.975
X165.0Y-107.0
X165.075Y-131.125
X165.635Y-117.975
X167.775Y-120.675
X171.575Y-107.375
X172.475Y-116.875
X172.575Y-107.375
X172.775Y-121.375
X173.075Y-110.475
X173.575Y-116.875
X174.375Y-123.675
X175.775Y-100.875
X175.775Y-110.275
X175.975Y-121.375
X177.075Y-101.625
X180.825Y-125.675
X181.8Y-128.25
X182.56Y-95.98
X182.575Y-127.625
X182.6Y-101.4
X182.675Y-133.775
X183.2Y-125.6
T2
X143.525Y-129.275
X143.525Y-131.275
X143.525Y-133.275
X143.525Y-135.275
X143.625Y-96.375
X143.625Y-98.375
X143.625Y-100.375
X143.625Y-102.375
X179.725Y-96.075
X179.725Y-98.075
X179.725Y-100.075
X179.725Y-102.075
X179.825Y-129.175
X179.825Y-131.175
X179.825Y-133.175
X179.825Y-135.175
T3
X138.075Y-112.675
X138.075Y-114.675
X138.075Y-116.675
X138.075Y-118.675
X185.075Y-112.625
X185.075Y-114.625
X185.075Y-116.625
X185.075Y-118.625
T4
X153.935Y-97.815
X153.935Y-100.355
X153.935Y-102.895
X153.935Y-105.435
X153.935Y-107.975
X153.935Y-110.515
X153.935Y-113.055
X153.935Y-115.595
X153.935Y-118.135
X153.935Y-120.675
X153.935Y-123.215
X153.935Y-125.755
X153.935Y-128.295
X153.935Y-130.835
X153.935Y-133.375
X169.175Y-97.815
X169.175Y-100.355
X169.175Y-102.895
X169.175Y-105.435
X169.175Y-107.975
X169.175Y-110.515
X169.175Y-113.055
X169.175Y-115.595
X169.175Y-118.135
X169.175Y-120.675
X169.175Y-123.215
X169.175Y-125.755
X169.175Y-128.295
X169.175Y-130.835
X169.175Y-133.375
T5
X145.5Y-115.6
X177.65Y-115.65
M30
