%TF.GenerationSoftware,KiCad,Pcbnew,8.0.6*%
%TF.CreationDate,2025-05-15T16:35:35-03:00*%
%TF.ProjectId,strain gauge,73747261-696e-4206-9761-7567652e6b69,rev?*%
%TF.SameCoordinates,Original*%
%TF.FileFunction,Soldermask,Bot*%
%TF.FilePolarity,Negative*%
%FSLAX46Y46*%
G04 Gerber Fmt 4.6, Leading zero omitted, Abs format (unit mm)*
G04 Created by KiCad (PCBNEW 8.0.6) date 2025-05-15 16:35:35*
%MOMM*%
%LPD*%
G01*
G04 APERTURE LIST*
G04 Aperture macros list*
%AMRoundRect*
0 Rectangle with rounded corners*
0 $1 Rounding radius*
0 $2 $3 $4 $5 $6 $7 $8 $9 X,Y pos of 4 corners*
0 Add a 4 corners polygon primitive as box body*
4,1,4,$2,$3,$4,$5,$6,$7,$8,$9,$2,$3,0*
0 Add four circle primitives for the rounded corners*
1,1,$1+$1,$2,$3*
1,1,$1+$1,$4,$5*
1,1,$1+$1,$6,$7*
1,1,$1+$1,$8,$9*
0 Add four rect primitives between the rounded corners*
20,1,$1+$1,$2,$3,$4,$5,0*
20,1,$1+$1,$4,$5,$6,$7,0*
20,1,$1+$1,$6,$7,$8,$9,0*
20,1,$1+$1,$8,$9,$2,$3,0*%
G04 Aperture macros list end*
%ADD10RoundRect,0.250000X0.625000X-0.350000X0.625000X0.350000X-0.625000X0.350000X-0.625000X-0.350000X0*%
%ADD11O,1.750000X1.200000*%
%ADD12C,4.000000*%
%ADD13R,1.350000X1.350000*%
%ADD14O,1.350000X1.350000*%
%ADD15RoundRect,0.250000X-0.625000X0.350000X-0.625000X-0.350000X0.625000X-0.350000X0.625000X0.350000X0*%
%ADD16R,1.600000X1.600000*%
%ADD17O,1.600000X1.600000*%
%ADD18RoundRect,0.250000X0.650000X-0.412500X0.650000X0.412500X-0.650000X0.412500X-0.650000X-0.412500X0*%
%ADD19RoundRect,0.100000X-0.100000X0.217500X-0.100000X-0.217500X0.100000X-0.217500X0.100000X0.217500X0*%
%ADD20RoundRect,0.250000X-0.650000X0.412500X-0.650000X-0.412500X0.650000X-0.412500X0.650000X0.412500X0*%
%ADD21RoundRect,0.100000X0.100000X-0.217500X0.100000X0.217500X-0.100000X0.217500X-0.100000X-0.217500X0*%
%ADD22RoundRect,0.076750X-0.230250X0.810250X-0.230250X-0.810250X0.230250X-0.810250X0.230250X0.810250X0*%
%ADD23RoundRect,0.250000X-0.625000X0.400000X-0.625000X-0.400000X0.625000X-0.400000X0.625000X0.400000X0*%
%ADD24R,1.524000X1.524000*%
G04 APERTURE END LIST*
D10*
%TO.C,J5*%
X179725000Y-102075000D03*
D11*
X179725000Y-100075000D03*
X179725000Y-98075000D03*
X179725000Y-96075000D03*
%TD*%
D12*
%TO.C,*%
X145500000Y-115600000D03*
%TD*%
D13*
%TO.C,J2*%
X185075000Y-118625000D03*
D14*
X185075000Y-116625000D03*
X185075000Y-114625000D03*
X185075000Y-112625000D03*
%TD*%
D15*
%TO.C,J7*%
X143625000Y-96375000D03*
D11*
X143625000Y-98375000D03*
X143625000Y-100375000D03*
X143625000Y-102375000D03*
%TD*%
D13*
%TO.C,J1*%
X138075000Y-118675000D03*
D14*
X138075000Y-116675000D03*
X138075000Y-114675000D03*
X138075000Y-112675000D03*
%TD*%
D12*
%TO.C,*%
X177650000Y-115650000D03*
%TD*%
D16*
%TO.C,A1*%
X153935000Y-97815000D03*
D17*
X153935000Y-100355000D03*
X153935000Y-102895000D03*
X153935000Y-105435000D03*
X153935000Y-107975000D03*
X153935000Y-110515000D03*
X153935000Y-113055000D03*
X153935000Y-115595000D03*
X153935000Y-118135000D03*
X153935000Y-120675000D03*
X153935000Y-123215000D03*
X153935000Y-125755000D03*
X153935000Y-128295000D03*
X153935000Y-130835000D03*
X153935000Y-133375000D03*
X169175000Y-133375000D03*
X169175000Y-130835000D03*
X169175000Y-128295000D03*
X169175000Y-125755000D03*
X169175000Y-123215000D03*
X169175000Y-120675000D03*
X169175000Y-118135000D03*
X169175000Y-115595000D03*
X169175000Y-113055000D03*
X169175000Y-110515000D03*
X169175000Y-107975000D03*
X169175000Y-105435000D03*
X169175000Y-102895000D03*
X169175000Y-100355000D03*
X169175000Y-97815000D03*
%TD*%
D11*
%TO.C,J6*%
X143525000Y-135275000D03*
X143525000Y-133275000D03*
X143525000Y-131275000D03*
D15*
X143525000Y-129275000D03*
%TD*%
D10*
%TO.C,J4*%
X179825000Y-135175000D03*
D11*
X179825000Y-133175000D03*
X179825000Y-131175000D03*
X179825000Y-129175000D03*
%TD*%
D18*
%TO.C,C15*%
X161275000Y-110737500D03*
X161275000Y-107612500D03*
%TD*%
D19*
%TO.C,C18*%
X164475000Y-122767500D03*
X164475000Y-123582500D03*
%TD*%
D20*
%TO.C,C27*%
X182675000Y-129425000D03*
X182675000Y-132550000D03*
%TD*%
D18*
%TO.C,C16*%
X140650000Y-99212500D03*
X140650000Y-96087500D03*
%TD*%
D21*
%TO.C,C19*%
X164475000Y-109882500D03*
X164475000Y-109067500D03*
%TD*%
D18*
%TO.C,C26*%
X182600000Y-99937500D03*
X182600000Y-96812500D03*
%TD*%
D19*
%TO.C,C21*%
X160275000Y-121867500D03*
X160275000Y-122682500D03*
%TD*%
D20*
%TO.C,C20*%
X158375000Y-107650000D03*
X158375000Y-110775000D03*
%TD*%
D18*
%TO.C,C8*%
X140000000Y-131262500D03*
X140000000Y-128137500D03*
%TD*%
D20*
%TO.C,C14*%
X162375000Y-121712500D03*
X162375000Y-124837500D03*
%TD*%
D22*
%TO.C,IC4*%
X157280000Y-113430000D03*
X157930000Y-113430000D03*
X158580000Y-113430000D03*
X159230000Y-113430000D03*
X159880000Y-113430000D03*
X160530000Y-113430000D03*
X161180000Y-113430000D03*
X161830000Y-113430000D03*
X162480000Y-113430000D03*
X163130000Y-113430000D03*
X163780000Y-113430000D03*
X164430000Y-113430000D03*
X165080000Y-113430000D03*
X165730000Y-113430000D03*
X165730000Y-119170000D03*
X165080000Y-119170000D03*
X164430000Y-119170000D03*
X163780000Y-119170000D03*
X163130000Y-119170000D03*
X162480000Y-119170000D03*
X161830000Y-119170000D03*
X161180000Y-119170000D03*
X160530000Y-119170000D03*
X159880000Y-119170000D03*
X159230000Y-119170000D03*
X158580000Y-119170000D03*
X157930000Y-119170000D03*
X157280000Y-119170000D03*
%TD*%
D19*
%TO.C,C17*%
X163475000Y-109067500D03*
X163475000Y-109882500D03*
%TD*%
D23*
%TO.C,R12*%
X157875000Y-124725000D03*
X157875000Y-121625000D03*
%TD*%
D24*
%TO.C,REF\u002A\u002A*%
X164750000Y-98250000D03*
X162750000Y-98250000D03*
X160750000Y-98250000D03*
X158750000Y-98250000D03*
X164750000Y-100250000D03*
X162750000Y-100250000D03*
X160750000Y-100250000D03*
X158750000Y-100250000D03*
%TD*%
M02*
