%TF.GenerationSoftware,KiCad,Pcbnew,8.0.6*%
%TF.CreationDate,2025-05-15T16:35:34-03:00*%
%TF.ProjectId,strain gauge,73747261-696e-4206-9761-7567652e6b69,rev?*%
%TF.SameCoordinates,Original*%
%TF.FileFunction,Copper,L1,Top*%
%TF.FilePolarity,Positive*%
%FSLAX46Y46*%
G04 Gerber Fmt 4.6, Leading zero omitted, Abs format (unit mm)*
G04 Created by KiCad (PCBNEW 8.0.6) date 2025-05-15 16:35:34*
%MOMM*%
%LPD*%
G01*
G04 APERTURE LIST*
G04 Aperture macros list*
%AMRoundRect*
0 Rectangle with rounded corners*
0 $1 Rounding radius*
0 $2 $3 $4 $5 $6 $7 $8 $9 X,Y pos of 4 corners*
0 Add a 4 corners polygon primitive as box body*
4,1,4,$2,$3,$4,$5,$6,$7,$8,$9,$2,$3,0*
0 Add four circle primitives for the rounded corners*
1,1,$1+$1,$2,$3*
1,1,$1+$1,$4,$5*
1,1,$1+$1,$6,$7*
1,1,$1+$1,$8,$9*
0 Add four rect primitives between the rounded corners*
20,1,$1+$1,$2,$3,$4,$5,0*
20,1,$1+$1,$4,$5,$6,$7,0*
20,1,$1+$1,$6,$7,$8,$9,0*
20,1,$1+$1,$8,$9,$2,$3,0*%
G04 Aperture macros list end*
%TA.AperFunction,SMDPad,CuDef*%
%ADD10RoundRect,0.250000X-0.412500X-0.650000X0.412500X-0.650000X0.412500X0.650000X-0.412500X0.650000X0*%
%TD*%
%TA.AperFunction,SMDPad,CuDef*%
%ADD11RoundRect,0.250000X-0.650000X0.412500X-0.650000X-0.412500X0.650000X-0.412500X0.650000X0.412500X0*%
%TD*%
%TA.AperFunction,SMDPad,CuDef*%
%ADD12RoundRect,0.250000X-0.650000X0.325000X-0.650000X-0.325000X0.650000X-0.325000X0.650000X0.325000X0*%
%TD*%
%TA.AperFunction,SMDPad,CuDef*%
%ADD13RoundRect,0.250000X-0.400000X-0.625000X0.400000X-0.625000X0.400000X0.625000X-0.400000X0.625000X0*%
%TD*%
%TA.AperFunction,SMDPad,CuDef*%
%ADD14RoundRect,0.250000X0.400000X0.625000X-0.400000X0.625000X-0.400000X-0.625000X0.400000X-0.625000X0*%
%TD*%
%TA.AperFunction,SMDPad,CuDef*%
%ADD15RoundRect,0.250000X0.650000X-0.325000X0.650000X0.325000X-0.650000X0.325000X-0.650000X-0.325000X0*%
%TD*%
%TA.AperFunction,ComponentPad*%
%ADD16RoundRect,0.250000X0.625000X-0.350000X0.625000X0.350000X-0.625000X0.350000X-0.625000X-0.350000X0*%
%TD*%
%TA.AperFunction,ComponentPad*%
%ADD17O,1.750000X1.200000*%
%TD*%
%TA.AperFunction,ComponentPad*%
%ADD18C,4.000000*%
%TD*%
%TA.AperFunction,ComponentPad*%
%ADD19R,1.350000X1.350000*%
%TD*%
%TA.AperFunction,ComponentPad*%
%ADD20O,1.350000X1.350000*%
%TD*%
%TA.AperFunction,ComponentPad*%
%ADD21RoundRect,0.250000X-0.625000X0.350000X-0.625000X-0.350000X0.625000X-0.350000X0.625000X0.350000X0*%
%TD*%
%TA.AperFunction,SMDPad,CuDef*%
%ADD22RoundRect,0.250000X0.650000X-0.412500X0.650000X0.412500X-0.650000X0.412500X-0.650000X-0.412500X0*%
%TD*%
%TA.AperFunction,SMDPad,CuDef*%
%ADD23RoundRect,0.250000X0.412500X0.650000X-0.412500X0.650000X-0.412500X-0.650000X0.412500X-0.650000X0*%
%TD*%
%TA.AperFunction,ComponentPad*%
%ADD24R,1.600000X1.600000*%
%TD*%
%TA.AperFunction,ComponentPad*%
%ADD25O,1.600000X1.600000*%
%TD*%
%TA.AperFunction,ViaPad*%
%ADD26C,0.600000*%
%TD*%
%TA.AperFunction,Conductor*%
%ADD27C,0.200000*%
%TD*%
%TA.AperFunction,Conductor*%
%ADD28C,0.400000*%
%TD*%
G04 APERTURE END LIST*
D10*
%TO.P,C4,1*%
%TO.N,/INPA1*%
X147112500Y-96475000D03*
%TO.P,C4,2*%
%TO.N,/INNA1*%
X150237500Y-96475000D03*
%TD*%
D11*
%TO.P,C10,1*%
%TO.N,/INPA1*%
X147225000Y-106612500D03*
%TO.P,C10,2*%
%TO.N,GND*%
X147225000Y-109737500D03*
%TD*%
D12*
%TO.P,C22,1*%
%TO.N,+5V*%
X183250000Y-121750000D03*
%TO.P,C22,2*%
%TO.N,GND*%
X183250000Y-124700000D03*
%TD*%
D13*
%TO.P,R7,1,1*%
%TO.N,/INNA2*%
X173025000Y-131475000D03*
%TO.P,R7,2,2*%
%TO.N,Net-(J4-Pin_3)*%
X176125000Y-131475000D03*
%TD*%
%TO.P,R9,1,1*%
%TO.N,/INNA4*%
X172625000Y-98965000D03*
%TO.P,R9,2,2*%
%TO.N,Net-(J5-Pin_3)*%
X175725000Y-98965000D03*
%TD*%
D11*
%TO.P,C3,1*%
%TO.N,/INNA4*%
X172775000Y-106012500D03*
%TO.P,C3,2*%
%TO.N,GND*%
X172775000Y-109137500D03*
%TD*%
D13*
%TO.P,R8,1,1*%
%TO.N,/INPA4*%
X172625000Y-95675000D03*
%TO.P,R8,2,2*%
%TO.N,Net-(J5-Pin_4)*%
X175725000Y-95675000D03*
%TD*%
D14*
%TO.P,R1,1,1*%
%TO.N,/INPA1*%
X150325000Y-103565000D03*
%TO.P,R1,2,2*%
%TO.N,Net-(J7-Pin_4)*%
X147225000Y-103565000D03*
%TD*%
D15*
%TO.P,C24,1*%
%TO.N,+5V*%
X140325000Y-109650000D03*
%TO.P,C24,2*%
%TO.N,GND*%
X140325000Y-106700000D03*
%TD*%
D16*
%TO.P,J5,1,Pin_1*%
%TO.N,GND*%
X179725000Y-102075000D03*
D17*
%TO.P,J5,2,Pin_2*%
%TO.N,+5V*%
X179725000Y-100075000D03*
%TO.P,J5,3,Pin_3*%
%TO.N,Net-(J5-Pin_3)*%
X179725000Y-98075000D03*
%TO.P,J5,4,Pin_4*%
%TO.N,Net-(J5-Pin_4)*%
X179725000Y-96075000D03*
%TD*%
D10*
%TO.P,C1,1*%
%TO.N,/INPA2*%
X173012500Y-134775000D03*
%TO.P,C1,2*%
%TO.N,/INNA2*%
X176137500Y-134775000D03*
%TD*%
D13*
%TO.P,R6,1,1*%
%TO.N,/INPA2*%
X172875000Y-128775000D03*
%TO.P,R6,2,2*%
%TO.N,Net-(J4-Pin_4)*%
X175975000Y-128775000D03*
%TD*%
D14*
%TO.P,R2,1,1*%
%TO.N,/INNA1*%
X150325000Y-100275000D03*
%TO.P,R2,2,2*%
%TO.N,Net-(J7-Pin_3)*%
X147225000Y-100275000D03*
%TD*%
D18*
%TO.P,,1*%
%TO.N,N/C*%
X145500000Y-115600000D03*
%TD*%
D19*
%TO.P,J2,1,Pin_1*%
%TO.N,GND*%
X185075000Y-118625000D03*
D20*
%TO.P,J2,2,Pin_2*%
%TO.N,+5V*%
X185075000Y-116625000D03*
%TO.P,J2,3,Pin_3*%
%TO.N,TX_FT232*%
X185075000Y-114625000D03*
%TO.P,J2,4,Pin_4*%
%TO.N,RX_FT232*%
X185075000Y-112625000D03*
%TD*%
D21*
%TO.P,J7,1,Pin_1*%
%TO.N,GND*%
X143625000Y-96375000D03*
D17*
%TO.P,J7,2,Pin_2*%
%TO.N,+5V*%
X143625000Y-98375000D03*
%TO.P,J7,3,Pin_3*%
%TO.N,Net-(J7-Pin_3)*%
X143625000Y-100375000D03*
%TO.P,J7,4,Pin_4*%
%TO.N,Net-(J7-Pin_4)*%
X143625000Y-102375000D03*
%TD*%
D22*
%TO.P,C2,1*%
%TO.N,/INNA2*%
X175975000Y-125500000D03*
%TO.P,C2,2*%
%TO.N,GND*%
X175975000Y-122375000D03*
%TD*%
%TO.P,C13,1*%
%TO.N,/INPA3*%
X146975000Y-125300000D03*
%TO.P,C13,2*%
%TO.N,GND*%
X146975000Y-122175000D03*
%TD*%
D14*
%TO.P,R3,1,1*%
%TO.N,/INPA3*%
X150325000Y-136075000D03*
%TO.P,R3,2,2*%
%TO.N,Net-(J6-Pin_4)*%
X147225000Y-136075000D03*
%TD*%
D23*
%TO.P,C6,1*%
%TO.N,/INPA4*%
X175800000Y-102775000D03*
%TO.P,C6,2*%
%TO.N,/INNA4*%
X172675000Y-102775000D03*
%TD*%
D22*
%TO.P,C11,1*%
%TO.N,/INNA3*%
X150375000Y-125247500D03*
%TO.P,C11,2*%
%TO.N,GND*%
X150375000Y-122122500D03*
%TD*%
D11*
%TO.P,C9,1*%
%TO.N,/INNA1*%
X150575000Y-106612500D03*
%TO.P,C9,2*%
%TO.N,GND*%
X150575000Y-109737500D03*
%TD*%
D19*
%TO.P,J1,1,Pin_1*%
%TO.N,GND*%
X138075000Y-118675000D03*
D20*
%TO.P,J1,2,Pin_2*%
%TO.N,+5V*%
X138075000Y-116675000D03*
%TO.P,J1,3,Pin_3*%
%TO.N,TX_FT232*%
X138075000Y-114675000D03*
%TO.P,J1,4,Pin_4*%
%TO.N,RX_FT232*%
X138075000Y-112675000D03*
%TD*%
D15*
%TO.P,C25,1*%
%TO.N,+5V*%
X143675000Y-109650000D03*
%TO.P,C25,2*%
%TO.N,GND*%
X143675000Y-106700000D03*
%TD*%
D18*
%TO.P,,1*%
%TO.N,N/C*%
X177650000Y-115650000D03*
%TD*%
D24*
%TO.P,A1,1,D1/TX*%
%TO.N,RX_FT232*%
X153935000Y-97815000D03*
D25*
%TO.P,A1,2,D0/RX*%
%TO.N,TX_FT232*%
X153935000Y-100355000D03*
%TO.P,A1,3,~{RESET}*%
%TO.N,unconnected-(A1-~{RESET}-Pad3)*%
X153935000Y-102895000D03*
%TO.P,A1,4,GND*%
%TO.N,GND*%
X153935000Y-105435000D03*
%TO.P,A1,5,D2*%
%TO.N,unconnected-(A1-D2-Pad5)*%
X153935000Y-107975000D03*
%TO.P,A1,6,D3*%
%TO.N,unconnected-(A1-D3-Pad6)*%
X153935000Y-110515000D03*
%TO.P,A1,7,D4*%
%TO.N,unconnected-(A1-D4-Pad7)*%
X153935000Y-113055000D03*
%TO.P,A1,8,D5*%
%TO.N,unconnected-(A1-D5-Pad8)*%
X153935000Y-115595000D03*
%TO.P,A1,9,D6*%
%TO.N,unconnected-(A1-D6-Pad9)*%
X153935000Y-118135000D03*
%TO.P,A1,10,D7*%
%TO.N,/ADS_DRDY*%
X153935000Y-120675000D03*
%TO.P,A1,11,D8*%
%TO.N,/ADS_RESET*%
X153935000Y-123215000D03*
%TO.P,A1,12,D9*%
%TO.N,/ADS_START*%
X153935000Y-125755000D03*
%TO.P,A1,13,D10*%
%TO.N,/CHIP-SELECT*%
X153935000Y-128295000D03*
%TO.P,A1,14,D11*%
%TO.N,/COPI*%
X153935000Y-130835000D03*
%TO.P,A1,15,D12*%
%TO.N,/CIPO*%
X153935000Y-133375000D03*
%TO.P,A1,16,D13*%
%TO.N,/SCK*%
X169175000Y-133375000D03*
%TO.P,A1,17,3V3*%
%TO.N,unconnected-(A1-3V3-Pad17)*%
X169175000Y-130835000D03*
%TO.P,A1,18,AREF*%
%TO.N,unconnected-(A1-AREF-Pad18)*%
X169175000Y-128295000D03*
%TO.P,A1,19,A0*%
%TO.N,unconnected-(A1-A0-Pad19)*%
X169175000Y-125755000D03*
%TO.P,A1,20,A1*%
%TO.N,unconnected-(A1-A1-Pad20)*%
X169175000Y-123215000D03*
%TO.P,A1,21,A2*%
%TO.N,unconnected-(A1-A2-Pad21)*%
X169175000Y-120675000D03*
%TO.P,A1,22,A3*%
%TO.N,unconnected-(A1-A3-Pad22)*%
X169175000Y-118135000D03*
%TO.P,A1,23,A4*%
%TO.N,unconnected-(A1-A4-Pad23)*%
X169175000Y-115595000D03*
%TO.P,A1,24,A5*%
%TO.N,unconnected-(A1-A5-Pad24)*%
X169175000Y-113055000D03*
%TO.P,A1,25,A6*%
%TO.N,unconnected-(A1-A6-Pad25)*%
X169175000Y-110515000D03*
%TO.P,A1,26,A7*%
%TO.N,unconnected-(A1-A7-Pad26)*%
X169175000Y-107975000D03*
%TO.P,A1,27,+5V*%
%TO.N,+5V*%
X169175000Y-105435000D03*
%TO.P,A1,28,~{RESET}*%
%TO.N,unconnected-(A1-~{RESET}-Pad28)*%
X169175000Y-102895000D03*
%TO.P,A1,29,GND*%
%TO.N,GND*%
X169175000Y-100355000D03*
%TO.P,A1,30,VIN*%
%TO.N,unconnected-(A1-VIN-Pad30)*%
X169175000Y-97815000D03*
%TD*%
D14*
%TO.P,R4,1,1*%
%TO.N,/INNA3*%
X150325000Y-132785000D03*
%TO.P,R4,2,2*%
%TO.N,Net-(J6-Pin_3)*%
X147225000Y-132785000D03*
%TD*%
D17*
%TO.P,J6,4,Pin_4*%
%TO.N,Net-(J6-Pin_4)*%
X143525000Y-135275000D03*
%TO.P,J6,3,Pin_3*%
%TO.N,Net-(J6-Pin_3)*%
X143525000Y-133275000D03*
%TO.P,J6,2,Pin_2*%
%TO.N,+5V*%
X143525000Y-131275000D03*
D21*
%TO.P,J6,1,Pin_1*%
%TO.N,GND*%
X143525000Y-129275000D03*
%TD*%
D11*
%TO.P,C7,1*%
%TO.N,/INPA4*%
X175775000Y-106012500D03*
%TO.P,C7,2*%
%TO.N,GND*%
X175775000Y-109137500D03*
%TD*%
D10*
%TO.P,C12,1*%
%TO.N,/INPA3*%
X147212500Y-129175000D03*
%TO.P,C12,2*%
%TO.N,/INNA3*%
X150337500Y-129175000D03*
%TD*%
D22*
%TO.P,C5,1*%
%TO.N,/INPA2*%
X172775000Y-125537500D03*
%TO.P,C5,2*%
%TO.N,GND*%
X172775000Y-122412500D03*
%TD*%
D12*
%TO.P,C23,1*%
%TO.N,+5V*%
X180825000Y-121750000D03*
%TO.P,C23,2*%
%TO.N,GND*%
X180825000Y-124700000D03*
%TD*%
D16*
%TO.P,J4,1,Pin_1*%
%TO.N,GND*%
X179825000Y-135175000D03*
D17*
%TO.P,J4,2,Pin_2*%
%TO.N,+5V*%
X179825000Y-133175000D03*
%TO.P,J4,3,Pin_3*%
%TO.N,Net-(J4-Pin_3)*%
X179825000Y-131175000D03*
%TO.P,J4,4,Pin_4*%
%TO.N,Net-(J4-Pin_4)*%
X179825000Y-129175000D03*
%TD*%
D26*
%TO.N,+5V*%
X165000000Y-107000000D03*
%TO.N,/CIPO*%
X163775000Y-130075000D03*
X163775000Y-131675000D03*
%TO.N,GND*%
X180825000Y-125675000D03*
X171575000Y-107375000D03*
X177075000Y-101625000D03*
X143700000Y-105625000D03*
X140275000Y-105650000D03*
X182560000Y-95980000D03*
X165635000Y-117975000D03*
X162375000Y-123775000D03*
X163775000Y-117775000D03*
X183200000Y-125600000D03*
X142100000Y-95175000D03*
X160275000Y-123275000D03*
X139975000Y-126800000D03*
X173075000Y-110475000D03*
X159325000Y-124125000D03*
X175775000Y-110275000D03*
X173575000Y-116875000D03*
X151375000Y-110875000D03*
X146925000Y-120875000D03*
X182675000Y-133775000D03*
X157325000Y-96125000D03*
X163220000Y-110288972D03*
X141575000Y-130125000D03*
X175975000Y-121375000D03*
X139575000Y-100625000D03*
X155325000Y-119875000D03*
X165075000Y-131125000D03*
X155825000Y-107875000D03*
X150525000Y-120975000D03*
X172775000Y-121375000D03*
X161175000Y-112175000D03*
X162325000Y-130125000D03*
X182575000Y-127625000D03*
X148075000Y-110875000D03*
X164825000Y-105375000D03*
X164475000Y-124275000D03*
X164475000Y-108475000D03*
X161275000Y-106575000D03*
%TO.N,/ADS_DRDY*%
X164875000Y-114975000D03*
X155875000Y-109075000D03*
%TO.N,/CHIP-SELECT*%
X160975000Y-116175000D03*
%TO.N,+5V*%
X175775000Y-100875000D03*
X158175000Y-95275000D03*
X182600000Y-101400000D03*
X140325000Y-130050000D03*
X181800000Y-128250000D03*
X140650000Y-100675000D03*
%TO.N,/ADS_START*%
X159675000Y-115275000D03*
%TO.N,/INPA2*%
X159875000Y-120775000D03*
%TO.N,/INNA2*%
X167775000Y-120675000D03*
X174375000Y-123675000D03*
X160584067Y-120233592D03*
%TO.N,/INNA4*%
X172575000Y-107375000D03*
X158275000Y-117775000D03*
X172475000Y-116875000D03*
%TO.N,/INPA1*%
X157075000Y-115675000D03*
%TO.N,/INNA1*%
X156075000Y-114575000D03*
%TO.N,/INPA4*%
X157275000Y-117875000D03*
%TO.N,/INNA3*%
X154575000Y-119400000D03*
%TO.N,/INPA3*%
X155775000Y-116775000D03*
%TO.N,+3V3*%
X159575000Y-121975000D03*
X158175000Y-123275000D03*
%TD*%
D27*
%TO.N,/CHIP-SELECT*%
X156575000Y-125655000D02*
X153935000Y-128295000D01*
X158126471Y-116175000D02*
X156575000Y-117726471D01*
X156575000Y-117726471D02*
X156575000Y-125655000D01*
X160975000Y-116175000D02*
X158126471Y-116175000D01*
D28*
%TO.N,+5V*%
X169175000Y-105435000D02*
X167406544Y-105435000D01*
X167406544Y-105435000D02*
X166221544Y-104250000D01*
X181900000Y-120675000D02*
X180825000Y-121750000D01*
X181900000Y-102100000D02*
X181900000Y-120675000D01*
X182600000Y-101400000D02*
X181900000Y-102100000D01*
X166221544Y-104750000D02*
X166221544Y-103221544D01*
X166221544Y-105778456D02*
X166221544Y-104750000D01*
X158275000Y-95275000D02*
X158175000Y-95275000D01*
X166221544Y-103221544D02*
X158275000Y-95275000D01*
X165000000Y-107000000D02*
X166221544Y-105778456D01*
D27*
%TO.N,/CIPO*%
X163775000Y-130075000D02*
X163775000Y-131675000D01*
%TO.N,GND*%
X183250000Y-125550000D02*
X183200000Y-125600000D01*
X180825000Y-124700000D02*
X180825000Y-125675000D01*
X140325000Y-106700000D02*
X140325000Y-105700000D01*
X150375000Y-122122500D02*
X150375000Y-121125000D01*
X146975000Y-122175000D02*
X146975000Y-120925000D01*
X147225000Y-110025000D02*
X148075000Y-110875000D01*
X150575000Y-110075000D02*
X151375000Y-110875000D01*
X150575000Y-109737500D02*
X150575000Y-110075000D01*
X172775000Y-122412500D02*
X172775000Y-121375000D01*
X175975000Y-122375000D02*
X175975000Y-121375000D01*
X140325000Y-105700000D02*
X140275000Y-105650000D01*
X143675000Y-105650000D02*
X143700000Y-105625000D01*
X175775000Y-109137500D02*
X175775000Y-110275000D01*
X150375000Y-121125000D02*
X150525000Y-120975000D01*
X183250000Y-124700000D02*
X183250000Y-125550000D01*
X147225000Y-109737500D02*
X147225000Y-110025000D01*
X146975000Y-120925000D02*
X146925000Y-120875000D01*
X172775000Y-109137500D02*
X172775000Y-110175000D01*
X143675000Y-106700000D02*
X143675000Y-105650000D01*
X172775000Y-110175000D02*
X173075000Y-110475000D01*
%TO.N,/ADS_DRDY*%
X155875000Y-109075000D02*
X158975000Y-109075000D01*
X158975000Y-109075000D02*
X164875000Y-114975000D01*
D28*
%TO.N,+5V*%
X142350000Y-108325000D02*
X142350000Y-106735050D01*
X140650000Y-105035050D02*
X140650000Y-100675000D01*
X140325000Y-130050000D02*
X141325000Y-129050000D01*
X143675000Y-109650000D02*
X142350000Y-108325000D01*
X179525000Y-126075000D02*
X181700000Y-128250000D01*
X138075000Y-116675000D02*
X140325000Y-114425000D01*
X181700000Y-128250000D02*
X181800000Y-128250000D01*
X185075000Y-116625000D02*
X183250000Y-118450000D01*
X142350000Y-106735050D02*
X140650000Y-105035050D01*
X141325000Y-112000000D02*
X143675000Y-109650000D01*
X183250000Y-121750000D02*
X180825000Y-121750000D01*
X179525000Y-123050000D02*
X179525000Y-126075000D01*
X183250000Y-118450000D02*
X183250000Y-121750000D01*
X180825000Y-121750000D02*
X179525000Y-123050000D01*
D27*
X180375000Y-100075000D02*
X179725000Y-100075000D01*
D28*
X140325000Y-109650000D02*
X143675000Y-109650000D01*
X179725000Y-100075000D02*
X178925000Y-100875000D01*
X178925000Y-100875000D02*
X175775000Y-100875000D01*
X141325000Y-129050000D02*
X141325000Y-112000000D01*
X140325000Y-114425000D02*
X140325000Y-109650000D01*
D27*
%TO.N,/ADS_START*%
X153935000Y-125755000D02*
X155975000Y-123715000D01*
X158460786Y-115275000D02*
X159675000Y-115275000D01*
X155975000Y-117760786D02*
X158460786Y-115275000D01*
X155975000Y-123715000D02*
X155975000Y-117760786D01*
%TO.N,/INPA2*%
X172075000Y-133837500D02*
X173012500Y-134775000D01*
X172775000Y-125259365D02*
X169290635Y-121775000D01*
X172775000Y-125537500D02*
X172775000Y-128675000D01*
X172875000Y-128775000D02*
X172075000Y-129575000D01*
X169290635Y-121775000D02*
X160875000Y-121775000D01*
X172775000Y-128675000D02*
X172875000Y-128775000D01*
X160875000Y-121775000D02*
X159875000Y-120775000D01*
X172775000Y-125537500D02*
X172775000Y-125259365D01*
X172075000Y-129575000D02*
X172075000Y-133837500D01*
%TO.N,/INNA2*%
X173025000Y-131475000D02*
X173025000Y-131662500D01*
X175975000Y-125275000D02*
X175975000Y-125500000D01*
X175575000Y-125100000D02*
X175975000Y-125500000D01*
X174375000Y-123675000D02*
X175975000Y-125275000D01*
X173025000Y-131662500D02*
X176137500Y-134775000D01*
X160625475Y-120275000D02*
X167375000Y-120275000D01*
X174475000Y-127000000D02*
X174475000Y-130025000D01*
X160584067Y-120233592D02*
X160625475Y-120275000D01*
X174475000Y-130025000D02*
X173025000Y-131475000D01*
X175975000Y-125500000D02*
X174475000Y-127000000D01*
X167375000Y-120275000D02*
X167775000Y-120675000D01*
%TO.N,/INNA4*%
X158275000Y-117775000D02*
X159735000Y-119235000D01*
X159735000Y-119235000D02*
X170115000Y-119235000D01*
X172625000Y-98965000D02*
X172625000Y-105862500D01*
X170115000Y-119235000D02*
X172475000Y-116875000D01*
X172625000Y-105862500D02*
X172775000Y-106012500D01*
%TO.N,/INPA1*%
X147112500Y-96475000D02*
X148334744Y-97697244D01*
X150272500Y-103565000D02*
X150325000Y-103565000D01*
X148334744Y-97697244D02*
X148334744Y-101574744D01*
X147225000Y-106612500D02*
X148425000Y-107812500D01*
X156326471Y-115675000D02*
X157075000Y-115675000D01*
X148425000Y-109434744D02*
X153265256Y-114275000D01*
X148425000Y-107812500D02*
X148425000Y-109434744D01*
X148334744Y-101574744D02*
X150325000Y-103565000D01*
X153265256Y-114275000D02*
X154926471Y-114275000D01*
X147225000Y-106612500D02*
X150272500Y-103565000D01*
X154926471Y-114275000D02*
X156326471Y-115675000D01*
%TO.N,/INNA1*%
X153337500Y-109375000D02*
X154375000Y-109375000D01*
X150325000Y-100275000D02*
X150325000Y-96562500D01*
X150575000Y-106612500D02*
X151275000Y-105912500D01*
X154375000Y-109375000D02*
X156075000Y-111075000D01*
X150325000Y-96562500D02*
X150237500Y-96475000D01*
X151275000Y-101225000D02*
X150325000Y-100275000D01*
X150575000Y-106612500D02*
X153337500Y-109375000D01*
X151275000Y-105912500D02*
X151275000Y-101225000D01*
X156075000Y-111075000D02*
X156075000Y-114575000D01*
%TO.N,/INPA4*%
X158375000Y-116775000D02*
X169875000Y-116775000D01*
X174775000Y-101750000D02*
X174775000Y-100775000D01*
X175800000Y-105987500D02*
X175775000Y-106012500D01*
X174575000Y-109375000D02*
X174575000Y-107212500D01*
X174575000Y-107212500D02*
X175775000Y-106012500D01*
X174275000Y-100275000D02*
X174275000Y-97325000D01*
X175800000Y-102775000D02*
X174775000Y-101750000D01*
X169875000Y-116775000D02*
X174575000Y-112075000D01*
X174775000Y-100775000D02*
X174275000Y-100275000D01*
X174575000Y-112075000D02*
X174575000Y-109375000D01*
X157275000Y-117875000D02*
X158375000Y-116775000D01*
X175800000Y-102775000D02*
X175800000Y-105987500D01*
X174275000Y-97325000D02*
X172625000Y-95675000D01*
%TO.N,/INNA3*%
X150325000Y-125297500D02*
X150375000Y-125247500D01*
X154575000Y-119400000D02*
X154475635Y-119400000D01*
X154350635Y-119275000D02*
X153779365Y-119275000D01*
X150325000Y-132785000D02*
X150325000Y-125297500D01*
X152835000Y-120219365D02*
X152835000Y-122787500D01*
X154475635Y-119400000D02*
X154350635Y-119275000D01*
X153779365Y-119275000D02*
X152835000Y-120219365D01*
X152835000Y-122787500D02*
X150375000Y-125247500D01*
%TO.N,/INPA3*%
X149375000Y-131337500D02*
X149375000Y-135125000D01*
X149375000Y-135125000D02*
X150325000Y-136075000D01*
X153739366Y-116775000D02*
X155775000Y-116775000D01*
X147212500Y-129175000D02*
X149375000Y-131337500D01*
X148175000Y-122339366D02*
X153739366Y-116775000D01*
X148175000Y-124100000D02*
X148175000Y-122339366D01*
X146975000Y-128937500D02*
X147212500Y-129175000D01*
X146975000Y-125300000D02*
X146975000Y-128937500D01*
X146975000Y-125300000D02*
X148175000Y-124100000D01*
%TO.N,+3V3*%
X158175000Y-123275000D02*
X158275000Y-123275000D01*
X158275000Y-123275000D02*
X159575000Y-121975000D01*
%TO.N,Net-(J4-Pin_4)*%
X175975000Y-128775000D02*
X179425000Y-128775000D01*
X179425000Y-128775000D02*
X179825000Y-129175000D01*
%TO.N,Net-(J4-Pin_3)*%
X176125000Y-131475000D02*
X179525000Y-131475000D01*
X179525000Y-131475000D02*
X179825000Y-131175000D01*
%TO.N,Net-(J5-Pin_3)*%
X176615000Y-98075000D02*
X175725000Y-98965000D01*
X179725000Y-98075000D02*
X176615000Y-98075000D01*
%TO.N,Net-(J5-Pin_4)*%
X179725000Y-96075000D02*
X176125000Y-96075000D01*
X176125000Y-96075000D02*
X175725000Y-95675000D01*
%TO.N,Net-(J6-Pin_4)*%
X144325000Y-136075000D02*
X143525000Y-135275000D01*
X147225000Y-136075000D02*
X144325000Y-136075000D01*
%TO.N,Net-(J6-Pin_3)*%
X144015000Y-132785000D02*
X143525000Y-133275000D01*
X147225000Y-132785000D02*
X144015000Y-132785000D01*
%TO.N,Net-(J7-Pin_3)*%
X147225000Y-100275000D02*
X143725000Y-100275000D01*
X143725000Y-100275000D02*
X143625000Y-100375000D01*
%TO.N,Net-(J7-Pin_4)*%
X147225000Y-103565000D02*
X144815000Y-103565000D01*
X144815000Y-103565000D02*
X143625000Y-102375000D01*
%TO.N,/INNA4*%
X172575000Y-107375000D02*
X172575000Y-106212500D01*
X172575000Y-106212500D02*
X172775000Y-106012500D01*
%TD*%
M02*
