%TF.GenerationSoftware,KiCad,Pcbnew,8.0.6*%
%TF.CreationDate,2025-05-15T16:35:35-03:00*%
%TF.ProjectId,strain gauge,73747261-696e-4206-9761-7567652e6b69,rev?*%
%TF.SameCoordinates,Original*%
%TF.FileFunction,Legend,Top*%
%TF.FilePolarity,Positive*%
%FSLAX46Y46*%
G04 Gerber Fmt 4.6, Leading zero omitted, Abs format (unit mm)*
G04 Created by KiCad (PCBNEW 8.0.6) date 2025-05-15 16:35:35*
%MOMM*%
%LPD*%
G01*
G04 APERTURE LIST*
%ADD10C,0.150000*%
%ADD11C,0.120000*%
G04 APERTURE END LIST*
D10*
X148508333Y-94984580D02*
X148460714Y-95032200D01*
X148460714Y-95032200D02*
X148317857Y-95079819D01*
X148317857Y-95079819D02*
X148222619Y-95079819D01*
X148222619Y-95079819D02*
X148079762Y-95032200D01*
X148079762Y-95032200D02*
X147984524Y-94936961D01*
X147984524Y-94936961D02*
X147936905Y-94841723D01*
X147936905Y-94841723D02*
X147889286Y-94651247D01*
X147889286Y-94651247D02*
X147889286Y-94508390D01*
X147889286Y-94508390D02*
X147936905Y-94317914D01*
X147936905Y-94317914D02*
X147984524Y-94222676D01*
X147984524Y-94222676D02*
X148079762Y-94127438D01*
X148079762Y-94127438D02*
X148222619Y-94079819D01*
X148222619Y-94079819D02*
X148317857Y-94079819D01*
X148317857Y-94079819D02*
X148460714Y-94127438D01*
X148460714Y-94127438D02*
X148508333Y-94175057D01*
X149365476Y-94413152D02*
X149365476Y-95079819D01*
X149127381Y-94032200D02*
X148889286Y-94746485D01*
X148889286Y-94746485D02*
X149508333Y-94746485D01*
X146607142Y-111859580D02*
X146559523Y-111907200D01*
X146559523Y-111907200D02*
X146416666Y-111954819D01*
X146416666Y-111954819D02*
X146321428Y-111954819D01*
X146321428Y-111954819D02*
X146178571Y-111907200D01*
X146178571Y-111907200D02*
X146083333Y-111811961D01*
X146083333Y-111811961D02*
X146035714Y-111716723D01*
X146035714Y-111716723D02*
X145988095Y-111526247D01*
X145988095Y-111526247D02*
X145988095Y-111383390D01*
X145988095Y-111383390D02*
X146035714Y-111192914D01*
X146035714Y-111192914D02*
X146083333Y-111097676D01*
X146083333Y-111097676D02*
X146178571Y-111002438D01*
X146178571Y-111002438D02*
X146321428Y-110954819D01*
X146321428Y-110954819D02*
X146416666Y-110954819D01*
X146416666Y-110954819D02*
X146559523Y-111002438D01*
X146559523Y-111002438D02*
X146607142Y-111050057D01*
X147559523Y-111954819D02*
X146988095Y-111954819D01*
X147273809Y-111954819D02*
X147273809Y-110954819D01*
X147273809Y-110954819D02*
X147178571Y-111097676D01*
X147178571Y-111097676D02*
X147083333Y-111192914D01*
X147083333Y-111192914D02*
X146988095Y-111240533D01*
X148178571Y-110954819D02*
X148273809Y-110954819D01*
X148273809Y-110954819D02*
X148369047Y-111002438D01*
X148369047Y-111002438D02*
X148416666Y-111050057D01*
X148416666Y-111050057D02*
X148464285Y-111145295D01*
X148464285Y-111145295D02*
X148511904Y-111335771D01*
X148511904Y-111335771D02*
X148511904Y-111573866D01*
X148511904Y-111573866D02*
X148464285Y-111764342D01*
X148464285Y-111764342D02*
X148416666Y-111859580D01*
X148416666Y-111859580D02*
X148369047Y-111907200D01*
X148369047Y-111907200D02*
X148273809Y-111954819D01*
X148273809Y-111954819D02*
X148178571Y-111954819D01*
X148178571Y-111954819D02*
X148083333Y-111907200D01*
X148083333Y-111907200D02*
X148035714Y-111859580D01*
X148035714Y-111859580D02*
X147988095Y-111764342D01*
X147988095Y-111764342D02*
X147940476Y-111573866D01*
X147940476Y-111573866D02*
X147940476Y-111335771D01*
X147940476Y-111335771D02*
X147988095Y-111145295D01*
X147988095Y-111145295D02*
X148035714Y-111050057D01*
X148035714Y-111050057D02*
X148083333Y-111002438D01*
X148083333Y-111002438D02*
X148178571Y-110954819D01*
X185459580Y-123867857D02*
X185507200Y-123915476D01*
X185507200Y-123915476D02*
X185554819Y-124058333D01*
X185554819Y-124058333D02*
X185554819Y-124153571D01*
X185554819Y-124153571D02*
X185507200Y-124296428D01*
X185507200Y-124296428D02*
X185411961Y-124391666D01*
X185411961Y-124391666D02*
X185316723Y-124439285D01*
X185316723Y-124439285D02*
X185126247Y-124486904D01*
X185126247Y-124486904D02*
X184983390Y-124486904D01*
X184983390Y-124486904D02*
X184792914Y-124439285D01*
X184792914Y-124439285D02*
X184697676Y-124391666D01*
X184697676Y-124391666D02*
X184602438Y-124296428D01*
X184602438Y-124296428D02*
X184554819Y-124153571D01*
X184554819Y-124153571D02*
X184554819Y-124058333D01*
X184554819Y-124058333D02*
X184602438Y-123915476D01*
X184602438Y-123915476D02*
X184650057Y-123867857D01*
X184650057Y-123486904D02*
X184602438Y-123439285D01*
X184602438Y-123439285D02*
X184554819Y-123344047D01*
X184554819Y-123344047D02*
X184554819Y-123105952D01*
X184554819Y-123105952D02*
X184602438Y-123010714D01*
X184602438Y-123010714D02*
X184650057Y-122963095D01*
X184650057Y-122963095D02*
X184745295Y-122915476D01*
X184745295Y-122915476D02*
X184840533Y-122915476D01*
X184840533Y-122915476D02*
X184983390Y-122963095D01*
X184983390Y-122963095D02*
X185554819Y-123534523D01*
X185554819Y-123534523D02*
X185554819Y-122915476D01*
X184650057Y-122534523D02*
X184602438Y-122486904D01*
X184602438Y-122486904D02*
X184554819Y-122391666D01*
X184554819Y-122391666D02*
X184554819Y-122153571D01*
X184554819Y-122153571D02*
X184602438Y-122058333D01*
X184602438Y-122058333D02*
X184650057Y-122010714D01*
X184650057Y-122010714D02*
X184745295Y-121963095D01*
X184745295Y-121963095D02*
X184840533Y-121963095D01*
X184840533Y-121963095D02*
X184983390Y-122010714D01*
X184983390Y-122010714D02*
X185554819Y-122582142D01*
X185554819Y-122582142D02*
X185554819Y-121963095D01*
X174333333Y-133704819D02*
X174000000Y-133228628D01*
X173761905Y-133704819D02*
X173761905Y-132704819D01*
X173761905Y-132704819D02*
X174142857Y-132704819D01*
X174142857Y-132704819D02*
X174238095Y-132752438D01*
X174238095Y-132752438D02*
X174285714Y-132800057D01*
X174285714Y-132800057D02*
X174333333Y-132895295D01*
X174333333Y-132895295D02*
X174333333Y-133038152D01*
X174333333Y-133038152D02*
X174285714Y-133133390D01*
X174285714Y-133133390D02*
X174238095Y-133181009D01*
X174238095Y-133181009D02*
X174142857Y-133228628D01*
X174142857Y-133228628D02*
X173761905Y-133228628D01*
X174666667Y-132704819D02*
X175333333Y-132704819D01*
X175333333Y-132704819D02*
X174904762Y-133704819D01*
X174008333Y-101204819D02*
X173675000Y-100728628D01*
X173436905Y-101204819D02*
X173436905Y-100204819D01*
X173436905Y-100204819D02*
X173817857Y-100204819D01*
X173817857Y-100204819D02*
X173913095Y-100252438D01*
X173913095Y-100252438D02*
X173960714Y-100300057D01*
X173960714Y-100300057D02*
X174008333Y-100395295D01*
X174008333Y-100395295D02*
X174008333Y-100538152D01*
X174008333Y-100538152D02*
X173960714Y-100633390D01*
X173960714Y-100633390D02*
X173913095Y-100681009D01*
X173913095Y-100681009D02*
X173817857Y-100728628D01*
X173817857Y-100728628D02*
X173436905Y-100728628D01*
X174484524Y-101204819D02*
X174675000Y-101204819D01*
X174675000Y-101204819D02*
X174770238Y-101157200D01*
X174770238Y-101157200D02*
X174817857Y-101109580D01*
X174817857Y-101109580D02*
X174913095Y-100966723D01*
X174913095Y-100966723D02*
X174960714Y-100776247D01*
X174960714Y-100776247D02*
X174960714Y-100395295D01*
X174960714Y-100395295D02*
X174913095Y-100300057D01*
X174913095Y-100300057D02*
X174865476Y-100252438D01*
X174865476Y-100252438D02*
X174770238Y-100204819D01*
X174770238Y-100204819D02*
X174579762Y-100204819D01*
X174579762Y-100204819D02*
X174484524Y-100252438D01*
X174484524Y-100252438D02*
X174436905Y-100300057D01*
X174436905Y-100300057D02*
X174389286Y-100395295D01*
X174389286Y-100395295D02*
X174389286Y-100633390D01*
X174389286Y-100633390D02*
X174436905Y-100728628D01*
X174436905Y-100728628D02*
X174484524Y-100776247D01*
X174484524Y-100776247D02*
X174579762Y-100823866D01*
X174579762Y-100823866D02*
X174770238Y-100823866D01*
X174770238Y-100823866D02*
X174865476Y-100776247D01*
X174865476Y-100776247D02*
X174913095Y-100728628D01*
X174913095Y-100728628D02*
X174960714Y-100633390D01*
X171609580Y-107416666D02*
X171657200Y-107464285D01*
X171657200Y-107464285D02*
X171704819Y-107607142D01*
X171704819Y-107607142D02*
X171704819Y-107702380D01*
X171704819Y-107702380D02*
X171657200Y-107845237D01*
X171657200Y-107845237D02*
X171561961Y-107940475D01*
X171561961Y-107940475D02*
X171466723Y-107988094D01*
X171466723Y-107988094D02*
X171276247Y-108035713D01*
X171276247Y-108035713D02*
X171133390Y-108035713D01*
X171133390Y-108035713D02*
X170942914Y-107988094D01*
X170942914Y-107988094D02*
X170847676Y-107940475D01*
X170847676Y-107940475D02*
X170752438Y-107845237D01*
X170752438Y-107845237D02*
X170704819Y-107702380D01*
X170704819Y-107702380D02*
X170704819Y-107607142D01*
X170704819Y-107607142D02*
X170752438Y-107464285D01*
X170752438Y-107464285D02*
X170800057Y-107416666D01*
X170704819Y-107083332D02*
X170704819Y-106464285D01*
X170704819Y-106464285D02*
X171085771Y-106797618D01*
X171085771Y-106797618D02*
X171085771Y-106654761D01*
X171085771Y-106654761D02*
X171133390Y-106559523D01*
X171133390Y-106559523D02*
X171181009Y-106511904D01*
X171181009Y-106511904D02*
X171276247Y-106464285D01*
X171276247Y-106464285D02*
X171514342Y-106464285D01*
X171514342Y-106464285D02*
X171609580Y-106511904D01*
X171609580Y-106511904D02*
X171657200Y-106559523D01*
X171657200Y-106559523D02*
X171704819Y-106654761D01*
X171704819Y-106654761D02*
X171704819Y-106940475D01*
X171704819Y-106940475D02*
X171657200Y-107035713D01*
X171657200Y-107035713D02*
X171609580Y-107083332D01*
X174008333Y-97704819D02*
X173675000Y-97228628D01*
X173436905Y-97704819D02*
X173436905Y-96704819D01*
X173436905Y-96704819D02*
X173817857Y-96704819D01*
X173817857Y-96704819D02*
X173913095Y-96752438D01*
X173913095Y-96752438D02*
X173960714Y-96800057D01*
X173960714Y-96800057D02*
X174008333Y-96895295D01*
X174008333Y-96895295D02*
X174008333Y-97038152D01*
X174008333Y-97038152D02*
X173960714Y-97133390D01*
X173960714Y-97133390D02*
X173913095Y-97181009D01*
X173913095Y-97181009D02*
X173817857Y-97228628D01*
X173817857Y-97228628D02*
X173436905Y-97228628D01*
X174579762Y-97133390D02*
X174484524Y-97085771D01*
X174484524Y-97085771D02*
X174436905Y-97038152D01*
X174436905Y-97038152D02*
X174389286Y-96942914D01*
X174389286Y-96942914D02*
X174389286Y-96895295D01*
X174389286Y-96895295D02*
X174436905Y-96800057D01*
X174436905Y-96800057D02*
X174484524Y-96752438D01*
X174484524Y-96752438D02*
X174579762Y-96704819D01*
X174579762Y-96704819D02*
X174770238Y-96704819D01*
X174770238Y-96704819D02*
X174865476Y-96752438D01*
X174865476Y-96752438D02*
X174913095Y-96800057D01*
X174913095Y-96800057D02*
X174960714Y-96895295D01*
X174960714Y-96895295D02*
X174960714Y-96942914D01*
X174960714Y-96942914D02*
X174913095Y-97038152D01*
X174913095Y-97038152D02*
X174865476Y-97085771D01*
X174865476Y-97085771D02*
X174770238Y-97133390D01*
X174770238Y-97133390D02*
X174579762Y-97133390D01*
X174579762Y-97133390D02*
X174484524Y-97181009D01*
X174484524Y-97181009D02*
X174436905Y-97228628D01*
X174436905Y-97228628D02*
X174389286Y-97323866D01*
X174389286Y-97323866D02*
X174389286Y-97514342D01*
X174389286Y-97514342D02*
X174436905Y-97609580D01*
X174436905Y-97609580D02*
X174484524Y-97657200D01*
X174484524Y-97657200D02*
X174579762Y-97704819D01*
X174579762Y-97704819D02*
X174770238Y-97704819D01*
X174770238Y-97704819D02*
X174865476Y-97657200D01*
X174865476Y-97657200D02*
X174913095Y-97609580D01*
X174913095Y-97609580D02*
X174960714Y-97514342D01*
X174960714Y-97514342D02*
X174960714Y-97323866D01*
X174960714Y-97323866D02*
X174913095Y-97228628D01*
X174913095Y-97228628D02*
X174865476Y-97181009D01*
X174865476Y-97181009D02*
X174770238Y-97133390D01*
X148608333Y-105839819D02*
X148275000Y-105363628D01*
X148036905Y-105839819D02*
X148036905Y-104839819D01*
X148036905Y-104839819D02*
X148417857Y-104839819D01*
X148417857Y-104839819D02*
X148513095Y-104887438D01*
X148513095Y-104887438D02*
X148560714Y-104935057D01*
X148560714Y-104935057D02*
X148608333Y-105030295D01*
X148608333Y-105030295D02*
X148608333Y-105173152D01*
X148608333Y-105173152D02*
X148560714Y-105268390D01*
X148560714Y-105268390D02*
X148513095Y-105316009D01*
X148513095Y-105316009D02*
X148417857Y-105363628D01*
X148417857Y-105363628D02*
X148036905Y-105363628D01*
X149560714Y-105839819D02*
X148989286Y-105839819D01*
X149275000Y-105839819D02*
X149275000Y-104839819D01*
X149275000Y-104839819D02*
X149179762Y-104982676D01*
X149179762Y-104982676D02*
X149084524Y-105077914D01*
X149084524Y-105077914D02*
X148989286Y-105125533D01*
X138834580Y-108817857D02*
X138882200Y-108865476D01*
X138882200Y-108865476D02*
X138929819Y-109008333D01*
X138929819Y-109008333D02*
X138929819Y-109103571D01*
X138929819Y-109103571D02*
X138882200Y-109246428D01*
X138882200Y-109246428D02*
X138786961Y-109341666D01*
X138786961Y-109341666D02*
X138691723Y-109389285D01*
X138691723Y-109389285D02*
X138501247Y-109436904D01*
X138501247Y-109436904D02*
X138358390Y-109436904D01*
X138358390Y-109436904D02*
X138167914Y-109389285D01*
X138167914Y-109389285D02*
X138072676Y-109341666D01*
X138072676Y-109341666D02*
X137977438Y-109246428D01*
X137977438Y-109246428D02*
X137929819Y-109103571D01*
X137929819Y-109103571D02*
X137929819Y-109008333D01*
X137929819Y-109008333D02*
X137977438Y-108865476D01*
X137977438Y-108865476D02*
X138025057Y-108817857D01*
X138025057Y-108436904D02*
X137977438Y-108389285D01*
X137977438Y-108389285D02*
X137929819Y-108294047D01*
X137929819Y-108294047D02*
X137929819Y-108055952D01*
X137929819Y-108055952D02*
X137977438Y-107960714D01*
X137977438Y-107960714D02*
X138025057Y-107913095D01*
X138025057Y-107913095D02*
X138120295Y-107865476D01*
X138120295Y-107865476D02*
X138215533Y-107865476D01*
X138215533Y-107865476D02*
X138358390Y-107913095D01*
X138358390Y-107913095D02*
X138929819Y-108484523D01*
X138929819Y-108484523D02*
X138929819Y-107865476D01*
X138263152Y-107008333D02*
X138929819Y-107008333D01*
X137882200Y-107246428D02*
X138596485Y-107484523D01*
X138596485Y-107484523D02*
X138596485Y-106865476D01*
X174408333Y-137109580D02*
X174360714Y-137157200D01*
X174360714Y-137157200D02*
X174217857Y-137204819D01*
X174217857Y-137204819D02*
X174122619Y-137204819D01*
X174122619Y-137204819D02*
X173979762Y-137157200D01*
X173979762Y-137157200D02*
X173884524Y-137061961D01*
X173884524Y-137061961D02*
X173836905Y-136966723D01*
X173836905Y-136966723D02*
X173789286Y-136776247D01*
X173789286Y-136776247D02*
X173789286Y-136633390D01*
X173789286Y-136633390D02*
X173836905Y-136442914D01*
X173836905Y-136442914D02*
X173884524Y-136347676D01*
X173884524Y-136347676D02*
X173979762Y-136252438D01*
X173979762Y-136252438D02*
X174122619Y-136204819D01*
X174122619Y-136204819D02*
X174217857Y-136204819D01*
X174217857Y-136204819D02*
X174360714Y-136252438D01*
X174360714Y-136252438D02*
X174408333Y-136300057D01*
X175360714Y-137204819D02*
X174789286Y-137204819D01*
X175075000Y-137204819D02*
X175075000Y-136204819D01*
X175075000Y-136204819D02*
X174979762Y-136347676D01*
X174979762Y-136347676D02*
X174884524Y-136442914D01*
X174884524Y-136442914D02*
X174789286Y-136490533D01*
X174258333Y-127409819D02*
X173925000Y-126933628D01*
X173686905Y-127409819D02*
X173686905Y-126409819D01*
X173686905Y-126409819D02*
X174067857Y-126409819D01*
X174067857Y-126409819D02*
X174163095Y-126457438D01*
X174163095Y-126457438D02*
X174210714Y-126505057D01*
X174210714Y-126505057D02*
X174258333Y-126600295D01*
X174258333Y-126600295D02*
X174258333Y-126743152D01*
X174258333Y-126743152D02*
X174210714Y-126838390D01*
X174210714Y-126838390D02*
X174163095Y-126886009D01*
X174163095Y-126886009D02*
X174067857Y-126933628D01*
X174067857Y-126933628D02*
X173686905Y-126933628D01*
X175115476Y-126409819D02*
X174925000Y-126409819D01*
X174925000Y-126409819D02*
X174829762Y-126457438D01*
X174829762Y-126457438D02*
X174782143Y-126505057D01*
X174782143Y-126505057D02*
X174686905Y-126647914D01*
X174686905Y-126647914D02*
X174639286Y-126838390D01*
X174639286Y-126838390D02*
X174639286Y-127219342D01*
X174639286Y-127219342D02*
X174686905Y-127314580D01*
X174686905Y-127314580D02*
X174734524Y-127362200D01*
X174734524Y-127362200D02*
X174829762Y-127409819D01*
X174829762Y-127409819D02*
X175020238Y-127409819D01*
X175020238Y-127409819D02*
X175115476Y-127362200D01*
X175115476Y-127362200D02*
X175163095Y-127314580D01*
X175163095Y-127314580D02*
X175210714Y-127219342D01*
X175210714Y-127219342D02*
X175210714Y-126981247D01*
X175210714Y-126981247D02*
X175163095Y-126886009D01*
X175163095Y-126886009D02*
X175115476Y-126838390D01*
X175115476Y-126838390D02*
X175020238Y-126790771D01*
X175020238Y-126790771D02*
X174829762Y-126790771D01*
X174829762Y-126790771D02*
X174734524Y-126838390D01*
X174734524Y-126838390D02*
X174686905Y-126886009D01*
X174686905Y-126886009D02*
X174639286Y-126981247D01*
X148608333Y-98954819D02*
X148275000Y-98478628D01*
X148036905Y-98954819D02*
X148036905Y-97954819D01*
X148036905Y-97954819D02*
X148417857Y-97954819D01*
X148417857Y-97954819D02*
X148513095Y-98002438D01*
X148513095Y-98002438D02*
X148560714Y-98050057D01*
X148560714Y-98050057D02*
X148608333Y-98145295D01*
X148608333Y-98145295D02*
X148608333Y-98288152D01*
X148608333Y-98288152D02*
X148560714Y-98383390D01*
X148560714Y-98383390D02*
X148513095Y-98431009D01*
X148513095Y-98431009D02*
X148417857Y-98478628D01*
X148417857Y-98478628D02*
X148036905Y-98478628D01*
X148989286Y-98050057D02*
X149036905Y-98002438D01*
X149036905Y-98002438D02*
X149132143Y-97954819D01*
X149132143Y-97954819D02*
X149370238Y-97954819D01*
X149370238Y-97954819D02*
X149465476Y-98002438D01*
X149465476Y-98002438D02*
X149513095Y-98050057D01*
X149513095Y-98050057D02*
X149560714Y-98145295D01*
X149560714Y-98145295D02*
X149560714Y-98240533D01*
X149560714Y-98240533D02*
X149513095Y-98383390D01*
X149513095Y-98383390D02*
X148941667Y-98954819D01*
X148941667Y-98954819D02*
X149560714Y-98954819D01*
X178109580Y-123916666D02*
X178157200Y-123964285D01*
X178157200Y-123964285D02*
X178204819Y-124107142D01*
X178204819Y-124107142D02*
X178204819Y-124202380D01*
X178204819Y-124202380D02*
X178157200Y-124345237D01*
X178157200Y-124345237D02*
X178061961Y-124440475D01*
X178061961Y-124440475D02*
X177966723Y-124488094D01*
X177966723Y-124488094D02*
X177776247Y-124535713D01*
X177776247Y-124535713D02*
X177633390Y-124535713D01*
X177633390Y-124535713D02*
X177442914Y-124488094D01*
X177442914Y-124488094D02*
X177347676Y-124440475D01*
X177347676Y-124440475D02*
X177252438Y-124345237D01*
X177252438Y-124345237D02*
X177204819Y-124202380D01*
X177204819Y-124202380D02*
X177204819Y-124107142D01*
X177204819Y-124107142D02*
X177252438Y-123964285D01*
X177252438Y-123964285D02*
X177300057Y-123916666D01*
X177300057Y-123535713D02*
X177252438Y-123488094D01*
X177252438Y-123488094D02*
X177204819Y-123392856D01*
X177204819Y-123392856D02*
X177204819Y-123154761D01*
X177204819Y-123154761D02*
X177252438Y-123059523D01*
X177252438Y-123059523D02*
X177300057Y-123011904D01*
X177300057Y-123011904D02*
X177395295Y-122964285D01*
X177395295Y-122964285D02*
X177490533Y-122964285D01*
X177490533Y-122964285D02*
X177633390Y-123011904D01*
X177633390Y-123011904D02*
X178204819Y-123583332D01*
X178204819Y-123583332D02*
X178204819Y-122964285D01*
X145609580Y-124380357D02*
X145657200Y-124427976D01*
X145657200Y-124427976D02*
X145704819Y-124570833D01*
X145704819Y-124570833D02*
X145704819Y-124666071D01*
X145704819Y-124666071D02*
X145657200Y-124808928D01*
X145657200Y-124808928D02*
X145561961Y-124904166D01*
X145561961Y-124904166D02*
X145466723Y-124951785D01*
X145466723Y-124951785D02*
X145276247Y-124999404D01*
X145276247Y-124999404D02*
X145133390Y-124999404D01*
X145133390Y-124999404D02*
X144942914Y-124951785D01*
X144942914Y-124951785D02*
X144847676Y-124904166D01*
X144847676Y-124904166D02*
X144752438Y-124808928D01*
X144752438Y-124808928D02*
X144704819Y-124666071D01*
X144704819Y-124666071D02*
X144704819Y-124570833D01*
X144704819Y-124570833D02*
X144752438Y-124427976D01*
X144752438Y-124427976D02*
X144800057Y-124380357D01*
X145704819Y-123427976D02*
X145704819Y-123999404D01*
X145704819Y-123713690D02*
X144704819Y-123713690D01*
X144704819Y-123713690D02*
X144847676Y-123808928D01*
X144847676Y-123808928D02*
X144942914Y-123904166D01*
X144942914Y-123904166D02*
X144990533Y-123999404D01*
X144704819Y-123094642D02*
X144704819Y-122475595D01*
X144704819Y-122475595D02*
X145085771Y-122808928D01*
X145085771Y-122808928D02*
X145085771Y-122666071D01*
X145085771Y-122666071D02*
X145133390Y-122570833D01*
X145133390Y-122570833D02*
X145181009Y-122523214D01*
X145181009Y-122523214D02*
X145276247Y-122475595D01*
X145276247Y-122475595D02*
X145514342Y-122475595D01*
X145514342Y-122475595D02*
X145609580Y-122523214D01*
X145609580Y-122523214D02*
X145657200Y-122570833D01*
X145657200Y-122570833D02*
X145704819Y-122666071D01*
X145704819Y-122666071D02*
X145704819Y-122951785D01*
X145704819Y-122951785D02*
X145657200Y-123047023D01*
X145657200Y-123047023D02*
X145609580Y-123094642D01*
X148608333Y-134904819D02*
X148275000Y-134428628D01*
X148036905Y-134904819D02*
X148036905Y-133904819D01*
X148036905Y-133904819D02*
X148417857Y-133904819D01*
X148417857Y-133904819D02*
X148513095Y-133952438D01*
X148513095Y-133952438D02*
X148560714Y-134000057D01*
X148560714Y-134000057D02*
X148608333Y-134095295D01*
X148608333Y-134095295D02*
X148608333Y-134238152D01*
X148608333Y-134238152D02*
X148560714Y-134333390D01*
X148560714Y-134333390D02*
X148513095Y-134381009D01*
X148513095Y-134381009D02*
X148417857Y-134428628D01*
X148417857Y-134428628D02*
X148036905Y-134428628D01*
X148941667Y-133904819D02*
X149560714Y-133904819D01*
X149560714Y-133904819D02*
X149227381Y-134285771D01*
X149227381Y-134285771D02*
X149370238Y-134285771D01*
X149370238Y-134285771D02*
X149465476Y-134333390D01*
X149465476Y-134333390D02*
X149513095Y-134381009D01*
X149513095Y-134381009D02*
X149560714Y-134476247D01*
X149560714Y-134476247D02*
X149560714Y-134714342D01*
X149560714Y-134714342D02*
X149513095Y-134809580D01*
X149513095Y-134809580D02*
X149465476Y-134857200D01*
X149465476Y-134857200D02*
X149370238Y-134904819D01*
X149370238Y-134904819D02*
X149084524Y-134904819D01*
X149084524Y-134904819D02*
X148989286Y-134857200D01*
X148989286Y-134857200D02*
X148941667Y-134809580D01*
X174070833Y-104984580D02*
X174023214Y-105032200D01*
X174023214Y-105032200D02*
X173880357Y-105079819D01*
X173880357Y-105079819D02*
X173785119Y-105079819D01*
X173785119Y-105079819D02*
X173642262Y-105032200D01*
X173642262Y-105032200D02*
X173547024Y-104936961D01*
X173547024Y-104936961D02*
X173499405Y-104841723D01*
X173499405Y-104841723D02*
X173451786Y-104651247D01*
X173451786Y-104651247D02*
X173451786Y-104508390D01*
X173451786Y-104508390D02*
X173499405Y-104317914D01*
X173499405Y-104317914D02*
X173547024Y-104222676D01*
X173547024Y-104222676D02*
X173642262Y-104127438D01*
X173642262Y-104127438D02*
X173785119Y-104079819D01*
X173785119Y-104079819D02*
X173880357Y-104079819D01*
X173880357Y-104079819D02*
X174023214Y-104127438D01*
X174023214Y-104127438D02*
X174070833Y-104175057D01*
X174927976Y-104079819D02*
X174737500Y-104079819D01*
X174737500Y-104079819D02*
X174642262Y-104127438D01*
X174642262Y-104127438D02*
X174594643Y-104175057D01*
X174594643Y-104175057D02*
X174499405Y-104317914D01*
X174499405Y-104317914D02*
X174451786Y-104508390D01*
X174451786Y-104508390D02*
X174451786Y-104889342D01*
X174451786Y-104889342D02*
X174499405Y-104984580D01*
X174499405Y-104984580D02*
X174547024Y-105032200D01*
X174547024Y-105032200D02*
X174642262Y-105079819D01*
X174642262Y-105079819D02*
X174832738Y-105079819D01*
X174832738Y-105079819D02*
X174927976Y-105032200D01*
X174927976Y-105032200D02*
X174975595Y-104984580D01*
X174975595Y-104984580D02*
X175023214Y-104889342D01*
X175023214Y-104889342D02*
X175023214Y-104651247D01*
X175023214Y-104651247D02*
X174975595Y-104556009D01*
X174975595Y-104556009D02*
X174927976Y-104508390D01*
X174927976Y-104508390D02*
X174832738Y-104460771D01*
X174832738Y-104460771D02*
X174642262Y-104460771D01*
X174642262Y-104460771D02*
X174547024Y-104508390D01*
X174547024Y-104508390D02*
X174499405Y-104556009D01*
X174499405Y-104556009D02*
X174451786Y-104651247D01*
X149109580Y-124327857D02*
X149157200Y-124375476D01*
X149157200Y-124375476D02*
X149204819Y-124518333D01*
X149204819Y-124518333D02*
X149204819Y-124613571D01*
X149204819Y-124613571D02*
X149157200Y-124756428D01*
X149157200Y-124756428D02*
X149061961Y-124851666D01*
X149061961Y-124851666D02*
X148966723Y-124899285D01*
X148966723Y-124899285D02*
X148776247Y-124946904D01*
X148776247Y-124946904D02*
X148633390Y-124946904D01*
X148633390Y-124946904D02*
X148442914Y-124899285D01*
X148442914Y-124899285D02*
X148347676Y-124851666D01*
X148347676Y-124851666D02*
X148252438Y-124756428D01*
X148252438Y-124756428D02*
X148204819Y-124613571D01*
X148204819Y-124613571D02*
X148204819Y-124518333D01*
X148204819Y-124518333D02*
X148252438Y-124375476D01*
X148252438Y-124375476D02*
X148300057Y-124327857D01*
X149204819Y-123375476D02*
X149204819Y-123946904D01*
X149204819Y-123661190D02*
X148204819Y-123661190D01*
X148204819Y-123661190D02*
X148347676Y-123756428D01*
X148347676Y-123756428D02*
X148442914Y-123851666D01*
X148442914Y-123851666D02*
X148490533Y-123946904D01*
X149204819Y-122423095D02*
X149204819Y-122994523D01*
X149204819Y-122708809D02*
X148204819Y-122708809D01*
X148204819Y-122708809D02*
X148347676Y-122804047D01*
X148347676Y-122804047D02*
X148442914Y-122899285D01*
X148442914Y-122899285D02*
X148490533Y-122994523D01*
X150333333Y-111859580D02*
X150285714Y-111907200D01*
X150285714Y-111907200D02*
X150142857Y-111954819D01*
X150142857Y-111954819D02*
X150047619Y-111954819D01*
X150047619Y-111954819D02*
X149904762Y-111907200D01*
X149904762Y-111907200D02*
X149809524Y-111811961D01*
X149809524Y-111811961D02*
X149761905Y-111716723D01*
X149761905Y-111716723D02*
X149714286Y-111526247D01*
X149714286Y-111526247D02*
X149714286Y-111383390D01*
X149714286Y-111383390D02*
X149761905Y-111192914D01*
X149761905Y-111192914D02*
X149809524Y-111097676D01*
X149809524Y-111097676D02*
X149904762Y-111002438D01*
X149904762Y-111002438D02*
X150047619Y-110954819D01*
X150047619Y-110954819D02*
X150142857Y-110954819D01*
X150142857Y-110954819D02*
X150285714Y-111002438D01*
X150285714Y-111002438D02*
X150333333Y-111050057D01*
X150809524Y-111954819D02*
X151000000Y-111954819D01*
X151000000Y-111954819D02*
X151095238Y-111907200D01*
X151095238Y-111907200D02*
X151142857Y-111859580D01*
X151142857Y-111859580D02*
X151238095Y-111716723D01*
X151238095Y-111716723D02*
X151285714Y-111526247D01*
X151285714Y-111526247D02*
X151285714Y-111145295D01*
X151285714Y-111145295D02*
X151238095Y-111050057D01*
X151238095Y-111050057D02*
X151190476Y-111002438D01*
X151190476Y-111002438D02*
X151095238Y-110954819D01*
X151095238Y-110954819D02*
X150904762Y-110954819D01*
X150904762Y-110954819D02*
X150809524Y-111002438D01*
X150809524Y-111002438D02*
X150761905Y-111050057D01*
X150761905Y-111050057D02*
X150714286Y-111145295D01*
X150714286Y-111145295D02*
X150714286Y-111383390D01*
X150714286Y-111383390D02*
X150761905Y-111478628D01*
X150761905Y-111478628D02*
X150809524Y-111526247D01*
X150809524Y-111526247D02*
X150904762Y-111573866D01*
X150904762Y-111573866D02*
X151095238Y-111573866D01*
X151095238Y-111573866D02*
X151190476Y-111526247D01*
X151190476Y-111526247D02*
X151238095Y-111478628D01*
X151238095Y-111478628D02*
X151285714Y-111383390D01*
X142359580Y-108817857D02*
X142407200Y-108865476D01*
X142407200Y-108865476D02*
X142454819Y-109008333D01*
X142454819Y-109008333D02*
X142454819Y-109103571D01*
X142454819Y-109103571D02*
X142407200Y-109246428D01*
X142407200Y-109246428D02*
X142311961Y-109341666D01*
X142311961Y-109341666D02*
X142216723Y-109389285D01*
X142216723Y-109389285D02*
X142026247Y-109436904D01*
X142026247Y-109436904D02*
X141883390Y-109436904D01*
X141883390Y-109436904D02*
X141692914Y-109389285D01*
X141692914Y-109389285D02*
X141597676Y-109341666D01*
X141597676Y-109341666D02*
X141502438Y-109246428D01*
X141502438Y-109246428D02*
X141454819Y-109103571D01*
X141454819Y-109103571D02*
X141454819Y-109008333D01*
X141454819Y-109008333D02*
X141502438Y-108865476D01*
X141502438Y-108865476D02*
X141550057Y-108817857D01*
X141550057Y-108436904D02*
X141502438Y-108389285D01*
X141502438Y-108389285D02*
X141454819Y-108294047D01*
X141454819Y-108294047D02*
X141454819Y-108055952D01*
X141454819Y-108055952D02*
X141502438Y-107960714D01*
X141502438Y-107960714D02*
X141550057Y-107913095D01*
X141550057Y-107913095D02*
X141645295Y-107865476D01*
X141645295Y-107865476D02*
X141740533Y-107865476D01*
X141740533Y-107865476D02*
X141883390Y-107913095D01*
X141883390Y-107913095D02*
X142454819Y-108484523D01*
X142454819Y-108484523D02*
X142454819Y-107865476D01*
X141454819Y-106960714D02*
X141454819Y-107436904D01*
X141454819Y-107436904D02*
X141931009Y-107484523D01*
X141931009Y-107484523D02*
X141883390Y-107436904D01*
X141883390Y-107436904D02*
X141835771Y-107341666D01*
X141835771Y-107341666D02*
X141835771Y-107103571D01*
X141835771Y-107103571D02*
X141883390Y-107008333D01*
X141883390Y-107008333D02*
X141931009Y-106960714D01*
X141931009Y-106960714D02*
X142026247Y-106913095D01*
X142026247Y-106913095D02*
X142264342Y-106913095D01*
X142264342Y-106913095D02*
X142359580Y-106960714D01*
X142359580Y-106960714D02*
X142407200Y-107008333D01*
X142407200Y-107008333D02*
X142454819Y-107103571D01*
X142454819Y-107103571D02*
X142454819Y-107341666D01*
X142454819Y-107341666D02*
X142407200Y-107436904D01*
X142407200Y-107436904D02*
X142359580Y-107484523D01*
X160840714Y-92904104D02*
X161316904Y-92904104D01*
X160745476Y-93189819D02*
X161078809Y-92189819D01*
X161078809Y-92189819D02*
X161412142Y-93189819D01*
X162269285Y-93189819D02*
X161697857Y-93189819D01*
X161983571Y-93189819D02*
X161983571Y-92189819D01*
X161983571Y-92189819D02*
X161888333Y-92332676D01*
X161888333Y-92332676D02*
X161793095Y-92427914D01*
X161793095Y-92427914D02*
X161697857Y-92475533D01*
X160293095Y-132829819D02*
X160293095Y-133639342D01*
X160293095Y-133639342D02*
X160340714Y-133734580D01*
X160340714Y-133734580D02*
X160388333Y-133782200D01*
X160388333Y-133782200D02*
X160483571Y-133829819D01*
X160483571Y-133829819D02*
X160674047Y-133829819D01*
X160674047Y-133829819D02*
X160769285Y-133782200D01*
X160769285Y-133782200D02*
X160816904Y-133734580D01*
X160816904Y-133734580D02*
X160864523Y-133639342D01*
X160864523Y-133639342D02*
X160864523Y-132829819D01*
X161293095Y-133782200D02*
X161435952Y-133829819D01*
X161435952Y-133829819D02*
X161674047Y-133829819D01*
X161674047Y-133829819D02*
X161769285Y-133782200D01*
X161769285Y-133782200D02*
X161816904Y-133734580D01*
X161816904Y-133734580D02*
X161864523Y-133639342D01*
X161864523Y-133639342D02*
X161864523Y-133544104D01*
X161864523Y-133544104D02*
X161816904Y-133448866D01*
X161816904Y-133448866D02*
X161769285Y-133401247D01*
X161769285Y-133401247D02*
X161674047Y-133353628D01*
X161674047Y-133353628D02*
X161483571Y-133306009D01*
X161483571Y-133306009D02*
X161388333Y-133258390D01*
X161388333Y-133258390D02*
X161340714Y-133210771D01*
X161340714Y-133210771D02*
X161293095Y-133115533D01*
X161293095Y-133115533D02*
X161293095Y-133020295D01*
X161293095Y-133020295D02*
X161340714Y-132925057D01*
X161340714Y-132925057D02*
X161388333Y-132877438D01*
X161388333Y-132877438D02*
X161483571Y-132829819D01*
X161483571Y-132829819D02*
X161721666Y-132829819D01*
X161721666Y-132829819D02*
X161864523Y-132877438D01*
X162626428Y-133306009D02*
X162769285Y-133353628D01*
X162769285Y-133353628D02*
X162816904Y-133401247D01*
X162816904Y-133401247D02*
X162864523Y-133496485D01*
X162864523Y-133496485D02*
X162864523Y-133639342D01*
X162864523Y-133639342D02*
X162816904Y-133734580D01*
X162816904Y-133734580D02*
X162769285Y-133782200D01*
X162769285Y-133782200D02*
X162674047Y-133829819D01*
X162674047Y-133829819D02*
X162293095Y-133829819D01*
X162293095Y-133829819D02*
X162293095Y-132829819D01*
X162293095Y-132829819D02*
X162626428Y-132829819D01*
X162626428Y-132829819D02*
X162721666Y-132877438D01*
X162721666Y-132877438D02*
X162769285Y-132925057D01*
X162769285Y-132925057D02*
X162816904Y-133020295D01*
X162816904Y-133020295D02*
X162816904Y-133115533D01*
X162816904Y-133115533D02*
X162769285Y-133210771D01*
X162769285Y-133210771D02*
X162721666Y-133258390D01*
X162721666Y-133258390D02*
X162626428Y-133306009D01*
X162626428Y-133306009D02*
X162293095Y-133306009D01*
X148733333Y-131604819D02*
X148400000Y-131128628D01*
X148161905Y-131604819D02*
X148161905Y-130604819D01*
X148161905Y-130604819D02*
X148542857Y-130604819D01*
X148542857Y-130604819D02*
X148638095Y-130652438D01*
X148638095Y-130652438D02*
X148685714Y-130700057D01*
X148685714Y-130700057D02*
X148733333Y-130795295D01*
X148733333Y-130795295D02*
X148733333Y-130938152D01*
X148733333Y-130938152D02*
X148685714Y-131033390D01*
X148685714Y-131033390D02*
X148638095Y-131081009D01*
X148638095Y-131081009D02*
X148542857Y-131128628D01*
X148542857Y-131128628D02*
X148161905Y-131128628D01*
X149590476Y-130938152D02*
X149590476Y-131604819D01*
X149352381Y-130557200D02*
X149114286Y-131271485D01*
X149114286Y-131271485D02*
X149733333Y-131271485D01*
X177984580Y-107741666D02*
X178032200Y-107789285D01*
X178032200Y-107789285D02*
X178079819Y-107932142D01*
X178079819Y-107932142D02*
X178079819Y-108027380D01*
X178079819Y-108027380D02*
X178032200Y-108170237D01*
X178032200Y-108170237D02*
X177936961Y-108265475D01*
X177936961Y-108265475D02*
X177841723Y-108313094D01*
X177841723Y-108313094D02*
X177651247Y-108360713D01*
X177651247Y-108360713D02*
X177508390Y-108360713D01*
X177508390Y-108360713D02*
X177317914Y-108313094D01*
X177317914Y-108313094D02*
X177222676Y-108265475D01*
X177222676Y-108265475D02*
X177127438Y-108170237D01*
X177127438Y-108170237D02*
X177079819Y-108027380D01*
X177079819Y-108027380D02*
X177079819Y-107932142D01*
X177079819Y-107932142D02*
X177127438Y-107789285D01*
X177127438Y-107789285D02*
X177175057Y-107741666D01*
X177079819Y-107408332D02*
X177079819Y-106741666D01*
X177079819Y-106741666D02*
X178079819Y-107170237D01*
X148132142Y-127684580D02*
X148084523Y-127732200D01*
X148084523Y-127732200D02*
X147941666Y-127779819D01*
X147941666Y-127779819D02*
X147846428Y-127779819D01*
X147846428Y-127779819D02*
X147703571Y-127732200D01*
X147703571Y-127732200D02*
X147608333Y-127636961D01*
X147608333Y-127636961D02*
X147560714Y-127541723D01*
X147560714Y-127541723D02*
X147513095Y-127351247D01*
X147513095Y-127351247D02*
X147513095Y-127208390D01*
X147513095Y-127208390D02*
X147560714Y-127017914D01*
X147560714Y-127017914D02*
X147608333Y-126922676D01*
X147608333Y-126922676D02*
X147703571Y-126827438D01*
X147703571Y-126827438D02*
X147846428Y-126779819D01*
X147846428Y-126779819D02*
X147941666Y-126779819D01*
X147941666Y-126779819D02*
X148084523Y-126827438D01*
X148084523Y-126827438D02*
X148132142Y-126875057D01*
X149084523Y-127779819D02*
X148513095Y-127779819D01*
X148798809Y-127779819D02*
X148798809Y-126779819D01*
X148798809Y-126779819D02*
X148703571Y-126922676D01*
X148703571Y-126922676D02*
X148608333Y-127017914D01*
X148608333Y-127017914D02*
X148513095Y-127065533D01*
X149465476Y-126875057D02*
X149513095Y-126827438D01*
X149513095Y-126827438D02*
X149608333Y-126779819D01*
X149608333Y-126779819D02*
X149846428Y-126779819D01*
X149846428Y-126779819D02*
X149941666Y-126827438D01*
X149941666Y-126827438D02*
X149989285Y-126875057D01*
X149989285Y-126875057D02*
X150036904Y-126970295D01*
X150036904Y-126970295D02*
X150036904Y-127065533D01*
X150036904Y-127065533D02*
X149989285Y-127208390D01*
X149989285Y-127208390D02*
X149417857Y-127779819D01*
X149417857Y-127779819D02*
X150036904Y-127779819D01*
X171609580Y-124141666D02*
X171657200Y-124189285D01*
X171657200Y-124189285D02*
X171704819Y-124332142D01*
X171704819Y-124332142D02*
X171704819Y-124427380D01*
X171704819Y-124427380D02*
X171657200Y-124570237D01*
X171657200Y-124570237D02*
X171561961Y-124665475D01*
X171561961Y-124665475D02*
X171466723Y-124713094D01*
X171466723Y-124713094D02*
X171276247Y-124760713D01*
X171276247Y-124760713D02*
X171133390Y-124760713D01*
X171133390Y-124760713D02*
X170942914Y-124713094D01*
X170942914Y-124713094D02*
X170847676Y-124665475D01*
X170847676Y-124665475D02*
X170752438Y-124570237D01*
X170752438Y-124570237D02*
X170704819Y-124427380D01*
X170704819Y-124427380D02*
X170704819Y-124332142D01*
X170704819Y-124332142D02*
X170752438Y-124189285D01*
X170752438Y-124189285D02*
X170800057Y-124141666D01*
X170704819Y-123236904D02*
X170704819Y-123713094D01*
X170704819Y-123713094D02*
X171181009Y-123760713D01*
X171181009Y-123760713D02*
X171133390Y-123713094D01*
X171133390Y-123713094D02*
X171085771Y-123617856D01*
X171085771Y-123617856D02*
X171085771Y-123379761D01*
X171085771Y-123379761D02*
X171133390Y-123284523D01*
X171133390Y-123284523D02*
X171181009Y-123236904D01*
X171181009Y-123236904D02*
X171276247Y-123189285D01*
X171276247Y-123189285D02*
X171514342Y-123189285D01*
X171514342Y-123189285D02*
X171609580Y-123236904D01*
X171609580Y-123236904D02*
X171657200Y-123284523D01*
X171657200Y-123284523D02*
X171704819Y-123379761D01*
X171704819Y-123379761D02*
X171704819Y-123617856D01*
X171704819Y-123617856D02*
X171657200Y-123713094D01*
X171657200Y-123713094D02*
X171609580Y-123760713D01*
X179609580Y-124142857D02*
X179657200Y-124190476D01*
X179657200Y-124190476D02*
X179704819Y-124333333D01*
X179704819Y-124333333D02*
X179704819Y-124428571D01*
X179704819Y-124428571D02*
X179657200Y-124571428D01*
X179657200Y-124571428D02*
X179561961Y-124666666D01*
X179561961Y-124666666D02*
X179466723Y-124714285D01*
X179466723Y-124714285D02*
X179276247Y-124761904D01*
X179276247Y-124761904D02*
X179133390Y-124761904D01*
X179133390Y-124761904D02*
X178942914Y-124714285D01*
X178942914Y-124714285D02*
X178847676Y-124666666D01*
X178847676Y-124666666D02*
X178752438Y-124571428D01*
X178752438Y-124571428D02*
X178704819Y-124428571D01*
X178704819Y-124428571D02*
X178704819Y-124333333D01*
X178704819Y-124333333D02*
X178752438Y-124190476D01*
X178752438Y-124190476D02*
X178800057Y-124142857D01*
X178800057Y-123761904D02*
X178752438Y-123714285D01*
X178752438Y-123714285D02*
X178704819Y-123619047D01*
X178704819Y-123619047D02*
X178704819Y-123380952D01*
X178704819Y-123380952D02*
X178752438Y-123285714D01*
X178752438Y-123285714D02*
X178800057Y-123238095D01*
X178800057Y-123238095D02*
X178895295Y-123190476D01*
X178895295Y-123190476D02*
X178990533Y-123190476D01*
X178990533Y-123190476D02*
X179133390Y-123238095D01*
X179133390Y-123238095D02*
X179704819Y-123809523D01*
X179704819Y-123809523D02*
X179704819Y-123190476D01*
X178704819Y-122857142D02*
X178704819Y-122238095D01*
X178704819Y-122238095D02*
X179085771Y-122571428D01*
X179085771Y-122571428D02*
X179085771Y-122428571D01*
X179085771Y-122428571D02*
X179133390Y-122333333D01*
X179133390Y-122333333D02*
X179181009Y-122285714D01*
X179181009Y-122285714D02*
X179276247Y-122238095D01*
X179276247Y-122238095D02*
X179514342Y-122238095D01*
X179514342Y-122238095D02*
X179609580Y-122285714D01*
X179609580Y-122285714D02*
X179657200Y-122333333D01*
X179657200Y-122333333D02*
X179704819Y-122428571D01*
X179704819Y-122428571D02*
X179704819Y-122714285D01*
X179704819Y-122714285D02*
X179657200Y-122809523D01*
X179657200Y-122809523D02*
X179609580Y-122857142D01*
D11*
%TO.C,C4*%
X147963748Y-95565000D02*
X149386252Y-95565000D01*
X147963748Y-97385000D02*
X149386252Y-97385000D01*
%TO.C,C10*%
X146315000Y-107463748D02*
X146315000Y-108886252D01*
X148135000Y-107463748D02*
X148135000Y-108886252D01*
%TO.C,C22*%
X182340000Y-122513748D02*
X182340000Y-123936252D01*
X184160000Y-122513748D02*
X184160000Y-123936252D01*
%TO.C,R7*%
X173847936Y-130565000D02*
X175302064Y-130565000D01*
X173847936Y-132385000D02*
X175302064Y-132385000D01*
%TO.C,R9*%
X173447936Y-98055000D02*
X174902064Y-98055000D01*
X173447936Y-99875000D02*
X174902064Y-99875000D01*
%TO.C,C3*%
X171865000Y-106863748D02*
X171865000Y-108286252D01*
X173685000Y-106863748D02*
X173685000Y-108286252D01*
%TO.C,R8*%
X173447936Y-94765000D02*
X174902064Y-94765000D01*
X173447936Y-96585000D02*
X174902064Y-96585000D01*
%TO.C,R1*%
X149502064Y-102655000D02*
X148047936Y-102655000D01*
X149502064Y-104475000D02*
X148047936Y-104475000D01*
%TO.C,C24*%
X139415000Y-108886252D02*
X139415000Y-107463748D01*
X141235000Y-108886252D02*
X141235000Y-107463748D01*
%TO.C,J5*%
X178265000Y-94015000D02*
X178265000Y-94935000D01*
X178265000Y-94935000D02*
X179865000Y-94935000D01*
X178265000Y-103215000D02*
X178265000Y-104135000D01*
X178265000Y-104135000D02*
X186085000Y-104135000D01*
X179865000Y-94015000D02*
X179865000Y-94935000D01*
X179865000Y-94935000D02*
X179865000Y-95215000D01*
X179865000Y-102935000D02*
X178650000Y-102935000D01*
X179865000Y-102935000D02*
X179865000Y-103215000D01*
X179865000Y-103215000D02*
X178265000Y-103215000D01*
X179865000Y-104135000D02*
X179865000Y-103215000D01*
X181725000Y-96575000D02*
X186085000Y-96575000D01*
X181725000Y-101575000D02*
X181725000Y-96575000D01*
X182225000Y-94775000D02*
X183825000Y-94775000D01*
X182225000Y-95775000D02*
X182225000Y-94775000D01*
X182225000Y-102375000D02*
X182225000Y-103375000D01*
X182225000Y-103375000D02*
X183825000Y-103375000D01*
X183825000Y-94775000D02*
X183825000Y-95775000D01*
X183825000Y-95775000D02*
X182225000Y-95775000D01*
X183825000Y-102375000D02*
X182225000Y-102375000D01*
X183825000Y-102375000D02*
X186085000Y-102375000D01*
X183825000Y-102875000D02*
X186085000Y-102875000D01*
X183825000Y-103375000D02*
X183825000Y-102375000D01*
X186085000Y-94015000D02*
X178265000Y-94015000D01*
X186085000Y-101575000D02*
X181725000Y-101575000D01*
X186085000Y-104135000D02*
X186085000Y-94015000D01*
%TO.C,C1*%
X173863748Y-133865000D02*
X175286252Y-133865000D01*
X173863748Y-135685000D02*
X175286252Y-135685000D01*
%TO.C,R6*%
X173697936Y-127865000D02*
X175152064Y-127865000D01*
X173697936Y-129685000D02*
X175152064Y-129685000D01*
%TO.C,R2*%
X149502064Y-99365000D02*
X148047936Y-99365000D01*
X149502064Y-101185000D02*
X148047936Y-101185000D01*
%TO.C,J2*%
X184015000Y-117625000D02*
X184015000Y-111565000D01*
X186135000Y-111565000D02*
X184015000Y-111565000D01*
X186135000Y-117625000D02*
X184015000Y-117625000D01*
X186135000Y-117625000D02*
X186135000Y-111565000D01*
X186135000Y-118625000D02*
X186135000Y-119685000D01*
X186135000Y-119685000D02*
X185075000Y-119685000D01*
%TO.C,J7*%
X137265000Y-94315000D02*
X137265000Y-104435000D01*
X137265000Y-96875000D02*
X141625000Y-96875000D01*
X137265000Y-104435000D02*
X145085000Y-104435000D01*
X139525000Y-95075000D02*
X139525000Y-96075000D01*
X139525000Y-95575000D02*
X137265000Y-95575000D01*
X139525000Y-96075000D02*
X137265000Y-96075000D01*
X139525000Y-96075000D02*
X141125000Y-96075000D01*
X139525000Y-102675000D02*
X141125000Y-102675000D01*
X139525000Y-103675000D02*
X139525000Y-102675000D01*
X141125000Y-95075000D02*
X139525000Y-95075000D01*
X141125000Y-96075000D02*
X141125000Y-95075000D01*
X141125000Y-102675000D02*
X141125000Y-103675000D01*
X141125000Y-103675000D02*
X139525000Y-103675000D01*
X141625000Y-96875000D02*
X141625000Y-101875000D01*
X141625000Y-101875000D02*
X137265000Y-101875000D01*
X143485000Y-94315000D02*
X143485000Y-95235000D01*
X143485000Y-95235000D02*
X145085000Y-95235000D01*
X143485000Y-95515000D02*
X143485000Y-95235000D01*
X143485000Y-95515000D02*
X144700000Y-95515000D01*
X143485000Y-103515000D02*
X143485000Y-103235000D01*
X143485000Y-104435000D02*
X143485000Y-103515000D01*
X145085000Y-94315000D02*
X137265000Y-94315000D01*
X145085000Y-95235000D02*
X145085000Y-94315000D01*
X145085000Y-103515000D02*
X143485000Y-103515000D01*
X145085000Y-104435000D02*
X145085000Y-103515000D01*
%TO.C,C2*%
X175065000Y-124648752D02*
X175065000Y-123226248D01*
X176885000Y-124648752D02*
X176885000Y-123226248D01*
%TO.C,C13*%
X146065000Y-124448752D02*
X146065000Y-123026248D01*
X147885000Y-124448752D02*
X147885000Y-123026248D01*
%TO.C,R3*%
X149502064Y-135165000D02*
X148047936Y-135165000D01*
X149502064Y-136985000D02*
X148047936Y-136985000D01*
%TO.C,C6*%
X174948752Y-101865000D02*
X173526248Y-101865000D01*
X174948752Y-103685000D02*
X173526248Y-103685000D01*
%TO.C,C11*%
X149465000Y-124396252D02*
X149465000Y-122973748D01*
X151285000Y-124396252D02*
X151285000Y-122973748D01*
%TO.C,C9*%
X149665000Y-107463748D02*
X149665000Y-108886252D01*
X151485000Y-107463748D02*
X151485000Y-108886252D01*
%TO.C,J1*%
X137015000Y-117675000D02*
X137015000Y-111615000D01*
X139135000Y-111615000D02*
X137015000Y-111615000D01*
X139135000Y-117675000D02*
X137015000Y-117675000D01*
X139135000Y-117675000D02*
X139135000Y-111615000D01*
X139135000Y-118675000D02*
X139135000Y-119735000D01*
X139135000Y-119735000D02*
X138075000Y-119735000D01*
%TO.C,C25*%
X142765000Y-108886252D02*
X142765000Y-107463748D01*
X144585000Y-108886252D02*
X144585000Y-107463748D01*
%TO.C,A1*%
X152535000Y-93875000D02*
X152535000Y-96545000D01*
X152535000Y-99085000D02*
X152535000Y-137315000D01*
X152535000Y-137315000D02*
X157615000Y-137315000D01*
X155205000Y-96545000D02*
X152535000Y-96545000D01*
X155205000Y-99085000D02*
X152535000Y-99085000D01*
X155205000Y-99085000D02*
X155205000Y-96545000D01*
X155205000Y-99085000D02*
X155205000Y-134645000D01*
X155205000Y-134645000D02*
X152535000Y-134645000D01*
X157615000Y-129435000D02*
X165495000Y-129435000D01*
X157615000Y-139855000D02*
X157615000Y-129435000D01*
X165495000Y-129435000D02*
X165495000Y-139855000D01*
X165495000Y-139855000D02*
X157615000Y-139855000D01*
X167905000Y-96545000D02*
X167905000Y-134645000D01*
X167905000Y-96545000D02*
X170575000Y-96545000D01*
X167905000Y-134645000D02*
X170575000Y-134645000D01*
X170575000Y-93875000D02*
X152535000Y-93875000D01*
X170575000Y-137315000D02*
X165495000Y-137315000D01*
X170575000Y-137315000D02*
X170575000Y-93875000D01*
%TO.C,R4*%
X149502064Y-131875000D02*
X148047936Y-131875000D01*
X149502064Y-133695000D02*
X148047936Y-133695000D01*
%TO.C,J6*%
X144985000Y-137335000D02*
X144985000Y-136415000D01*
X144985000Y-136415000D02*
X143385000Y-136415000D01*
X144985000Y-128135000D02*
X144985000Y-127215000D01*
X144985000Y-127215000D02*
X137165000Y-127215000D01*
X143385000Y-137335000D02*
X143385000Y-136415000D01*
X143385000Y-136415000D02*
X143385000Y-136135000D01*
X143385000Y-128415000D02*
X144600000Y-128415000D01*
X143385000Y-128415000D02*
X143385000Y-128135000D01*
X143385000Y-128135000D02*
X144985000Y-128135000D01*
X143385000Y-127215000D02*
X143385000Y-128135000D01*
X141525000Y-134775000D02*
X137165000Y-134775000D01*
X141525000Y-129775000D02*
X141525000Y-134775000D01*
X141025000Y-136575000D02*
X139425000Y-136575000D01*
X141025000Y-135575000D02*
X141025000Y-136575000D01*
X141025000Y-128975000D02*
X141025000Y-127975000D01*
X141025000Y-127975000D02*
X139425000Y-127975000D01*
X139425000Y-136575000D02*
X139425000Y-135575000D01*
X139425000Y-135575000D02*
X141025000Y-135575000D01*
X139425000Y-128975000D02*
X141025000Y-128975000D01*
X139425000Y-128975000D02*
X137165000Y-128975000D01*
X139425000Y-128475000D02*
X137165000Y-128475000D01*
X139425000Y-127975000D02*
X139425000Y-128975000D01*
X137165000Y-137335000D02*
X144985000Y-137335000D01*
X137165000Y-129775000D02*
X141525000Y-129775000D01*
X137165000Y-127215000D02*
X137165000Y-137335000D01*
%TO.C,C7*%
X174865000Y-106863748D02*
X174865000Y-108286252D01*
X176685000Y-106863748D02*
X176685000Y-108286252D01*
%TO.C,C12*%
X148063748Y-128265000D02*
X149486252Y-128265000D01*
X148063748Y-130085000D02*
X149486252Y-130085000D01*
%TO.C,C5*%
X171865000Y-124686252D02*
X171865000Y-123263748D01*
X173685000Y-124686252D02*
X173685000Y-123263748D01*
%TO.C,C23*%
X179915000Y-122513748D02*
X179915000Y-123936252D01*
X181735000Y-122513748D02*
X181735000Y-123936252D01*
%TO.C,J4*%
X178365000Y-127115000D02*
X178365000Y-128035000D01*
X178365000Y-128035000D02*
X179965000Y-128035000D01*
X178365000Y-136315000D02*
X178365000Y-137235000D01*
X178365000Y-137235000D02*
X186185000Y-137235000D01*
X179965000Y-127115000D02*
X179965000Y-128035000D01*
X179965000Y-128035000D02*
X179965000Y-128315000D01*
X179965000Y-136035000D02*
X178750000Y-136035000D01*
X179965000Y-136035000D02*
X179965000Y-136315000D01*
X179965000Y-136315000D02*
X178365000Y-136315000D01*
X179965000Y-137235000D02*
X179965000Y-136315000D01*
X181825000Y-129675000D02*
X186185000Y-129675000D01*
X181825000Y-134675000D02*
X181825000Y-129675000D01*
X182325000Y-127875000D02*
X183925000Y-127875000D01*
X182325000Y-128875000D02*
X182325000Y-127875000D01*
X182325000Y-135475000D02*
X182325000Y-136475000D01*
X182325000Y-136475000D02*
X183925000Y-136475000D01*
X183925000Y-127875000D02*
X183925000Y-128875000D01*
X183925000Y-128875000D02*
X182325000Y-128875000D01*
X183925000Y-135475000D02*
X182325000Y-135475000D01*
X183925000Y-135475000D02*
X186185000Y-135475000D01*
X183925000Y-135975000D02*
X186185000Y-135975000D01*
X183925000Y-136475000D02*
X183925000Y-135475000D01*
X186185000Y-127115000D02*
X178365000Y-127115000D01*
X186185000Y-134675000D02*
X181825000Y-134675000D01*
X186185000Y-137235000D02*
X186185000Y-127115000D01*
%TD*%
M02*
