%TF.GenerationSoftware,KiCad,Pcbnew,8.0.4*%
%TF.CreationDate,2024-08-26T17:47:24-03:00*%
%TF.ProjectId,IMU com arduino,494d5520-636f-46d2-9061-726475696e6f,rev?*%
%TF.SameCoordinates,Original*%
%TF.FileFunction,Copper,L2,Bot*%
%TF.FilePolarity,Positive*%
%FSLAX46Y46*%
G04 Gerber Fmt 4.6, Leading zero omitted, Abs format (unit mm)*
G04 Created by KiCad (PCBNEW 8.0.4) date 2024-08-26 17:47:24*
%MOMM*%
%LPD*%
G01*
G04 APERTURE LIST*
%TA.AperFunction,NonConductor*%
%ADD10C,0.200000*%
%TD*%
%TA.AperFunction,ComponentPad*%
%ADD11R,1.700000X1.700000*%
%TD*%
%TA.AperFunction,ComponentPad*%
%ADD12O,1.700000X1.700000*%
%TD*%
%TA.AperFunction,ComponentPad*%
%ADD13O,1.600000X1.600000*%
%TD*%
%TA.AperFunction,ComponentPad*%
%ADD14R,1.600000X1.600000*%
%TD*%
%TA.AperFunction,Conductor*%
%ADD15C,0.800000*%
%TD*%
G04 APERTURE END LIST*
D10*
X55880000Y-15240000D02*
X109768000Y-15240000D01*
X109768000Y-76240000D01*
X55880000Y-76240000D01*
X55880000Y-15240000D01*
D11*
%TO.P,J1,1,Pin_1*%
%TO.N,Net-(A1-D2)*%
X96520000Y-48260000D03*
D12*
%TO.P,J1,2,Pin_2*%
%TO.N,unconnected-(J1-Pin_2-Pad2)*%
X96520000Y-45720000D03*
%TO.P,J1,3,Pin_3*%
%TO.N,unconnected-(J1-Pin_3-Pad3)*%
X96520000Y-43180000D03*
%TO.P,J1,4,Pin_4*%
%TO.N,Net-(A1-A4)*%
X96520000Y-40640000D03*
%TO.P,J1,5,Pin_5*%
%TO.N,Net-(A1-A5)*%
X96520000Y-38100000D03*
%TO.P,J1,6,Pin_6*%
%TO.N,GND*%
X96520000Y-35560000D03*
%TO.P,J1,7,Pin_7*%
%TO.N,unconnected-(J1-Pin_7-Pad7)*%
X96520000Y-33020000D03*
%TO.P,J1,8,Pin_8*%
%TO.N,Net-(A1-+5V)*%
X96520000Y-30480000D03*
%TD*%
D13*
%TO.P,A1,30,VIN*%
%TO.N,unconnected-(A1-VIN-Pad30)*%
X81280000Y-24892000D03*
%TO.P,A1,29,GND*%
%TO.N,unconnected-(A1-GND-Pad29)*%
X81280000Y-27432000D03*
%TO.P,A1,28,~{RESET}*%
%TO.N,unconnected-(A1-~{RESET}-Pad28)*%
X81280000Y-29972000D03*
%TO.P,A1,27,+5V*%
%TO.N,Net-(A1-+5V)*%
X81280000Y-32512000D03*
%TO.P,A1,26,A7*%
%TO.N,unconnected-(A1-A7-Pad26)*%
X81280000Y-35052000D03*
%TO.P,A1,25,A6*%
%TO.N,unconnected-(A1-A6-Pad25)*%
X81280000Y-37592000D03*
%TO.P,A1,24,A5*%
%TO.N,Net-(A1-A5)*%
X81280000Y-40132000D03*
%TO.P,A1,23,A4*%
%TO.N,Net-(A1-A4)*%
X81280000Y-42672000D03*
%TO.P,A1,22,A3*%
%TO.N,unconnected-(A1-A3-Pad22)*%
X81280000Y-45212000D03*
%TO.P,A1,21,A2*%
%TO.N,unconnected-(A1-A2-Pad21)*%
X81280000Y-47752000D03*
%TO.P,A1,20,A1*%
%TO.N,unconnected-(A1-A1-Pad20)*%
X81280000Y-50292000D03*
%TO.P,A1,19,A0*%
%TO.N,unconnected-(A1-A0-Pad19)*%
X81280000Y-52832000D03*
%TO.P,A1,18,AREF*%
%TO.N,unconnected-(A1-AREF-Pad18)*%
X81280000Y-55372000D03*
%TO.P,A1,17,3V3*%
%TO.N,unconnected-(A1-3V3-Pad17)*%
X81280000Y-57912000D03*
%TO.P,A1,16,D13*%
%TO.N,unconnected-(A1-D13-Pad16)*%
X81280000Y-60452000D03*
%TO.P,A1,15,D12*%
%TO.N,unconnected-(A1-D12-Pad15)*%
X66040000Y-60452000D03*
%TO.P,A1,14,D11*%
%TO.N,unconnected-(A1-D11-Pad14)*%
X66040000Y-57912000D03*
%TO.P,A1,13,D10*%
%TO.N,unconnected-(A1-D10-Pad13)*%
X66040000Y-55372000D03*
%TO.P,A1,12,D9*%
%TO.N,unconnected-(A1-D9-Pad12)*%
X66040000Y-52832000D03*
%TO.P,A1,11,D8*%
%TO.N,unconnected-(A1-D8-Pad11)*%
X66040000Y-50292000D03*
%TO.P,A1,10,D7*%
%TO.N,unconnected-(A1-D7-Pad10)*%
X66040000Y-47752000D03*
%TO.P,A1,9,D6*%
%TO.N,unconnected-(A1-D6-Pad9)*%
X66040000Y-45212000D03*
%TO.P,A1,8,D5*%
%TO.N,unconnected-(A1-D5-Pad8)*%
X66040000Y-42672000D03*
%TO.P,A1,7,D4*%
%TO.N,unconnected-(A1-D4-Pad7)*%
X66040000Y-40132000D03*
%TO.P,A1,6,D3*%
%TO.N,unconnected-(A1-D3-Pad6)*%
X66040000Y-37592000D03*
%TO.P,A1,5,D2*%
%TO.N,Net-(A1-D2)*%
X66040000Y-35052000D03*
%TO.P,A1,4,GND*%
%TO.N,GND*%
X66040000Y-32512000D03*
%TO.P,A1,3,~{RESET}*%
%TO.N,unconnected-(A1-~{RESET}-Pad3)*%
X66040000Y-29972000D03*
%TO.P,A1,2,D0/RX*%
%TO.N,unconnected-(A1-D0{slash}RX-Pad2)*%
X66040000Y-27432000D03*
D14*
%TO.P,A1,1,D1/TX*%
%TO.N,unconnected-(A1-D1{slash}TX-Pad1)*%
X66040000Y-24892000D03*
%TD*%
D15*
%TO.N,Net-(A1-D2)*%
X96520000Y-51816000D02*
X96520000Y-48260000D01*
X83820000Y-64516000D02*
X96520000Y-51816000D01*
X78232000Y-61976000D02*
X80772000Y-64516000D01*
X78232000Y-47752000D02*
X78232000Y-61976000D01*
X80772000Y-64516000D02*
X83820000Y-64516000D01*
X66040000Y-35560000D02*
X78232000Y-47752000D01*
%TO.N,Net-(A1-A4)*%
X94488000Y-42672000D02*
X81788000Y-42672000D01*
X96520000Y-40640000D02*
X94488000Y-42672000D01*
%TO.N,Net-(A1-A5)*%
X93980000Y-40640000D02*
X81280000Y-40640000D01*
X96520000Y-38100000D02*
X93980000Y-40640000D01*
%TO.N,Net-(A1-+5V)*%
X83820000Y-30480000D02*
X81280000Y-33020000D01*
X96520000Y-30480000D02*
X83820000Y-30480000D01*
%TD*%
%TA.AperFunction,Conductor*%
%TO.N,GND*%
G36*
X95413417Y-31650185D02*
G01*
X95459172Y-31702989D01*
X95469116Y-31772147D01*
X95440091Y-31835703D01*
X95426910Y-31848790D01*
X95384776Y-31884776D01*
X95221161Y-32076343D01*
X95221160Y-32076346D01*
X95089533Y-32291140D01*
X94993126Y-32523889D01*
X94934317Y-32768848D01*
X94914551Y-33020000D01*
X94934317Y-33271151D01*
X94993126Y-33516110D01*
X95089533Y-33748859D01*
X95221160Y-33963653D01*
X95221161Y-33963656D01*
X95221164Y-33963659D01*
X95384776Y-34155224D01*
X95576341Y-34318836D01*
X95613130Y-34341380D01*
X95660006Y-34393191D01*
X95671429Y-34462121D01*
X95643772Y-34526284D01*
X95636023Y-34534789D01*
X95481886Y-34688926D01*
X95346400Y-34882420D01*
X95346399Y-34882422D01*
X95246570Y-35096507D01*
X95246567Y-35096513D01*
X95189364Y-35309999D01*
X95189364Y-35310000D01*
X96086988Y-35310000D01*
X96054075Y-35367007D01*
X96020000Y-35494174D01*
X96020000Y-35625826D01*
X96054075Y-35752993D01*
X96086988Y-35810000D01*
X95189364Y-35810000D01*
X95246567Y-36023486D01*
X95246570Y-36023492D01*
X95346399Y-36237578D01*
X95481894Y-36431082D01*
X95636022Y-36585210D01*
X95669507Y-36646533D01*
X95664523Y-36716225D01*
X95622651Y-36772158D01*
X95613132Y-36778618D01*
X95576342Y-36801163D01*
X95384776Y-36964776D01*
X95221161Y-37156343D01*
X95221160Y-37156346D01*
X95089533Y-37371140D01*
X94993126Y-37603889D01*
X94937571Y-37835297D01*
X94934317Y-37848852D01*
X94924021Y-37979662D01*
X94919985Y-38030946D01*
X94895100Y-38096234D01*
X94884048Y-38108897D01*
X93539766Y-39453181D01*
X93478443Y-39486666D01*
X93452085Y-39489500D01*
X82774165Y-39489500D01*
X82707126Y-39469815D01*
X82670119Y-39428964D01*
X82668323Y-39430065D01*
X82538262Y-39217826D01*
X82538261Y-39217823D01*
X82474859Y-39143589D01*
X82379759Y-39032241D01*
X82379757Y-39032239D01*
X82379756Y-39032238D01*
X82290832Y-38956290D01*
X82252638Y-38897784D01*
X82252139Y-38827916D01*
X82289493Y-38768869D01*
X82290832Y-38767710D01*
X82379755Y-38691762D01*
X82379759Y-38691759D01*
X82538259Y-38506179D01*
X82665777Y-38298089D01*
X82759172Y-38072612D01*
X82816146Y-37835302D01*
X82835294Y-37592000D01*
X82816146Y-37348698D01*
X82759172Y-37111388D01*
X82665777Y-36885911D01*
X82665777Y-36885910D01*
X82538262Y-36677826D01*
X82538261Y-36677823D01*
X82448842Y-36573127D01*
X82379759Y-36492241D01*
X82379757Y-36492239D01*
X82379756Y-36492238D01*
X82290832Y-36416290D01*
X82252638Y-36357784D01*
X82252139Y-36287916D01*
X82289493Y-36228869D01*
X82290832Y-36227710D01*
X82322276Y-36200853D01*
X82379759Y-36151759D01*
X82538259Y-35966179D01*
X82665777Y-35758089D01*
X82759172Y-35532612D01*
X82816146Y-35295302D01*
X82835294Y-35052000D01*
X82816146Y-34808698D01*
X82759172Y-34571388D01*
X82749018Y-34546873D01*
X82665777Y-34345910D01*
X82538262Y-34137826D01*
X82538261Y-34137823D01*
X82474859Y-34063589D01*
X82379759Y-33952241D01*
X82379757Y-33952239D01*
X82379756Y-33952238D01*
X82290832Y-33876290D01*
X82252638Y-33817784D01*
X82252139Y-33747916D01*
X82289493Y-33688869D01*
X82290832Y-33687710D01*
X82331406Y-33653056D01*
X82379759Y-33611759D01*
X82538259Y-33426179D01*
X82589761Y-33342133D01*
X82607801Y-33319250D01*
X84260234Y-31666819D01*
X84321557Y-31633334D01*
X84347915Y-31630500D01*
X95346378Y-31630500D01*
X95413417Y-31650185D01*
G37*
%TD.AperFunction*%
%TA.AperFunction,Conductor*%
G36*
X106115039Y-18307685D02*
G01*
X106160794Y-18360489D01*
X106172000Y-18412000D01*
X106172000Y-73100638D01*
X106152315Y-73167677D01*
X106135681Y-73188319D01*
X105700319Y-73623681D01*
X105638996Y-73657166D01*
X105612638Y-73660000D01*
X60068000Y-73660000D01*
X60000961Y-73640315D01*
X59955206Y-73587511D01*
X59944000Y-73536000D01*
X59944000Y-27432000D01*
X64484706Y-27432000D01*
X64503853Y-27675297D01*
X64560830Y-27912619D01*
X64654222Y-28138089D01*
X64781737Y-28346173D01*
X64781738Y-28346176D01*
X64781741Y-28346179D01*
X64940241Y-28531759D01*
X65008250Y-28589844D01*
X65029168Y-28607710D01*
X65067361Y-28666217D01*
X65067859Y-28736085D01*
X65030505Y-28795131D01*
X65029168Y-28796290D01*
X64940241Y-28872241D01*
X64781738Y-29057823D01*
X64781737Y-29057826D01*
X64654222Y-29265910D01*
X64560830Y-29491380D01*
X64503853Y-29728702D01*
X64484706Y-29972000D01*
X64503853Y-30215297D01*
X64560830Y-30452619D01*
X64654222Y-30678089D01*
X64781737Y-30886173D01*
X64781738Y-30886176D01*
X64781741Y-30886179D01*
X64940241Y-31071759D01*
X65125821Y-31230259D01*
X65219584Y-31287717D01*
X65266459Y-31339528D01*
X65277882Y-31408458D01*
X65250225Y-31472620D01*
X65225921Y-31495017D01*
X65201180Y-31512341D01*
X65040342Y-31673179D01*
X64909865Y-31859517D01*
X64813734Y-32065673D01*
X64813730Y-32065682D01*
X64761127Y-32261999D01*
X64761128Y-32262000D01*
X65606988Y-32262000D01*
X65574075Y-32319007D01*
X65540000Y-32446174D01*
X65540000Y-32577826D01*
X65574075Y-32704993D01*
X65606988Y-32762000D01*
X64761128Y-32762000D01*
X64813730Y-32958317D01*
X64813734Y-32958326D01*
X64909865Y-33164482D01*
X65040342Y-33350820D01*
X65201183Y-33511661D01*
X65225918Y-33528981D01*
X65269543Y-33583558D01*
X65276735Y-33653056D01*
X65245212Y-33715411D01*
X65219584Y-33736282D01*
X65125826Y-33793737D01*
X65125823Y-33793738D01*
X64940241Y-33952241D01*
X64781738Y-34137823D01*
X64781737Y-34137826D01*
X64654222Y-34345910D01*
X64560830Y-34571380D01*
X64503853Y-34808702D01*
X64484706Y-35052000D01*
X64503853Y-35295297D01*
X64503853Y-35295300D01*
X64503854Y-35295302D01*
X64521288Y-35367920D01*
X64560830Y-35532619D01*
X64654222Y-35758089D01*
X64781737Y-35966173D01*
X64781738Y-35966176D01*
X64781741Y-35966179D01*
X64940241Y-36151759D01*
X65008250Y-36209844D01*
X65029168Y-36227710D01*
X65067361Y-36286217D01*
X65067859Y-36356085D01*
X65030505Y-36415131D01*
X65029168Y-36416290D01*
X64940241Y-36492241D01*
X64781738Y-36677823D01*
X64781737Y-36677826D01*
X64654222Y-36885910D01*
X64560830Y-37111380D01*
X64503853Y-37348702D01*
X64484706Y-37592000D01*
X64503853Y-37835297D01*
X64560830Y-38072619D01*
X64654222Y-38298089D01*
X64781737Y-38506173D01*
X64781738Y-38506176D01*
X64781741Y-38506179D01*
X64940241Y-38691759D01*
X65008250Y-38749844D01*
X65029168Y-38767710D01*
X65067361Y-38826217D01*
X65067859Y-38896085D01*
X65030505Y-38955131D01*
X65029168Y-38956290D01*
X64940241Y-39032241D01*
X64781738Y-39217823D01*
X64781737Y-39217826D01*
X64654222Y-39425910D01*
X64560830Y-39651380D01*
X64503853Y-39888702D01*
X64484706Y-40132000D01*
X64503853Y-40375297D01*
X64560830Y-40612619D01*
X64654222Y-40838089D01*
X64781737Y-41046173D01*
X64781738Y-41046176D01*
X64781741Y-41046179D01*
X64940241Y-41231759D01*
X65008250Y-41289844D01*
X65029168Y-41307710D01*
X65067361Y-41366217D01*
X65067859Y-41436085D01*
X65030505Y-41495131D01*
X65029168Y-41496290D01*
X64940241Y-41572241D01*
X64781738Y-41757823D01*
X64781737Y-41757826D01*
X64654222Y-41965910D01*
X64560830Y-42191380D01*
X64503853Y-42428702D01*
X64484706Y-42672000D01*
X64503853Y-42915297D01*
X64560830Y-43152619D01*
X64654222Y-43378089D01*
X64781737Y-43586173D01*
X64781738Y-43586176D01*
X64781741Y-43586179D01*
X64940241Y-43771759D01*
X65001280Y-43823891D01*
X65029168Y-43847710D01*
X65067361Y-43906217D01*
X65067859Y-43976085D01*
X65030505Y-44035131D01*
X65029168Y-44036290D01*
X64940241Y-44112241D01*
X64781738Y-44297823D01*
X64781737Y-44297826D01*
X64654222Y-44505910D01*
X64560830Y-44731380D01*
X64503853Y-44968702D01*
X64484706Y-45212000D01*
X64503853Y-45455297D01*
X64560830Y-45692619D01*
X64654222Y-45918089D01*
X64781737Y-46126173D01*
X64781738Y-46126176D01*
X64781741Y-46126179D01*
X64940241Y-46311759D01*
X65008250Y-46369844D01*
X65029168Y-46387710D01*
X65067361Y-46446217D01*
X65067859Y-46516085D01*
X65030505Y-46575131D01*
X65029168Y-46576290D01*
X64940241Y-46652241D01*
X64781738Y-46837823D01*
X64781737Y-46837826D01*
X64654222Y-47045910D01*
X64560830Y-47271380D01*
X64560828Y-47271387D01*
X64560828Y-47271388D01*
X64551471Y-47310361D01*
X64503853Y-47508702D01*
X64484706Y-47752000D01*
X64503853Y-47995297D01*
X64503853Y-47995300D01*
X64503854Y-47995302D01*
X64559853Y-48228552D01*
X64560830Y-48232619D01*
X64654222Y-48458089D01*
X64781737Y-48666173D01*
X64781738Y-48666176D01*
X64781741Y-48666179D01*
X64940241Y-48851759D01*
X65008250Y-48909844D01*
X65029168Y-48927710D01*
X65067361Y-48986217D01*
X65067859Y-49056085D01*
X65030505Y-49115131D01*
X65029168Y-49116290D01*
X64940241Y-49192241D01*
X64781738Y-49377823D01*
X64781737Y-49377826D01*
X64654222Y-49585910D01*
X64560830Y-49811380D01*
X64503853Y-50048702D01*
X64484706Y-50292000D01*
X64503853Y-50535297D01*
X64560830Y-50772619D01*
X64654222Y-50998089D01*
X64781737Y-51206173D01*
X64781738Y-51206176D01*
X64781741Y-51206179D01*
X64940241Y-51391759D01*
X65008250Y-51449844D01*
X65029168Y-51467710D01*
X65067361Y-51526217D01*
X65067859Y-51596085D01*
X65030505Y-51655131D01*
X65029168Y-51656290D01*
X64940241Y-51732241D01*
X64781738Y-51917823D01*
X64781737Y-51917826D01*
X64654222Y-52125910D01*
X64560830Y-52351380D01*
X64503853Y-52588702D01*
X64484706Y-52832000D01*
X64503853Y-53075297D01*
X64560830Y-53312619D01*
X64654222Y-53538089D01*
X64781737Y-53746173D01*
X64781738Y-53746176D01*
X64781741Y-53746179D01*
X64940241Y-53931759D01*
X65008250Y-53989844D01*
X65029168Y-54007710D01*
X65067361Y-54066217D01*
X65067859Y-54136085D01*
X65030505Y-54195131D01*
X65029168Y-54196290D01*
X64940241Y-54272241D01*
X64781738Y-54457823D01*
X64781737Y-54457826D01*
X64654222Y-54665910D01*
X64560830Y-54891380D01*
X64503853Y-55128702D01*
X64484706Y-55372000D01*
X64503853Y-55615297D01*
X64560830Y-55852619D01*
X64654222Y-56078089D01*
X64781737Y-56286173D01*
X64781738Y-56286176D01*
X64781741Y-56286179D01*
X64940241Y-56471759D01*
X65008250Y-56529844D01*
X65029168Y-56547710D01*
X65067361Y-56606217D01*
X65067859Y-56676085D01*
X65030505Y-56735131D01*
X65029168Y-56736290D01*
X64940241Y-56812241D01*
X64781738Y-56997823D01*
X64781737Y-56997826D01*
X64654222Y-57205910D01*
X64560830Y-57431380D01*
X64503853Y-57668702D01*
X64484706Y-57912000D01*
X64503853Y-58155297D01*
X64560830Y-58392619D01*
X64654222Y-58618089D01*
X64781737Y-58826173D01*
X64781738Y-58826176D01*
X64781741Y-58826179D01*
X64940241Y-59011759D01*
X65008250Y-59069844D01*
X65029168Y-59087710D01*
X65067361Y-59146217D01*
X65067859Y-59216085D01*
X65030505Y-59275131D01*
X65029168Y-59276290D01*
X64940241Y-59352241D01*
X64781738Y-59537823D01*
X64781737Y-59537826D01*
X64654222Y-59745910D01*
X64560830Y-59971380D01*
X64503853Y-60208702D01*
X64484706Y-60452000D01*
X64503853Y-60695297D01*
X64560830Y-60932619D01*
X64654222Y-61158089D01*
X64781737Y-61366173D01*
X64781738Y-61366176D01*
X64781741Y-61366179D01*
X64940241Y-61551759D01*
X65083897Y-61674453D01*
X65125823Y-61710261D01*
X65125826Y-61710262D01*
X65333910Y-61837777D01*
X65559381Y-61931169D01*
X65559378Y-61931169D01*
X65559384Y-61931170D01*
X65559388Y-61931172D01*
X65796698Y-61988146D01*
X66040000Y-62007294D01*
X66283302Y-61988146D01*
X66520612Y-61931172D01*
X66746089Y-61837777D01*
X66954179Y-61710259D01*
X67139759Y-61551759D01*
X67298259Y-61366179D01*
X67425777Y-61158089D01*
X67519172Y-60932612D01*
X67576146Y-60695302D01*
X67595294Y-60452000D01*
X67576146Y-60208698D01*
X67519172Y-59971388D01*
X67425777Y-59745911D01*
X67425777Y-59745910D01*
X67298262Y-59537826D01*
X67298261Y-59537823D01*
X67139756Y-59352238D01*
X67050832Y-59276290D01*
X67012638Y-59217784D01*
X67012139Y-59147916D01*
X67049493Y-59088869D01*
X67050832Y-59087710D01*
X67082276Y-59060853D01*
X67139759Y-59011759D01*
X67298259Y-58826179D01*
X67425777Y-58618089D01*
X67519172Y-58392612D01*
X67576146Y-58155302D01*
X67595294Y-57912000D01*
X67576146Y-57668698D01*
X67519172Y-57431388D01*
X67425777Y-57205911D01*
X67425777Y-57205910D01*
X67298262Y-56997826D01*
X67298261Y-56997823D01*
X67139756Y-56812238D01*
X67050832Y-56736290D01*
X67012638Y-56677784D01*
X67012139Y-56607916D01*
X67049493Y-56548869D01*
X67050832Y-56547710D01*
X67082276Y-56520853D01*
X67139759Y-56471759D01*
X67298259Y-56286179D01*
X67425777Y-56078089D01*
X67519172Y-55852612D01*
X67576146Y-55615302D01*
X67595294Y-55372000D01*
X67576146Y-55128698D01*
X67519172Y-54891388D01*
X67425777Y-54665911D01*
X67425777Y-54665910D01*
X67298262Y-54457826D01*
X67298261Y-54457823D01*
X67139756Y-54272238D01*
X67050832Y-54196290D01*
X67012638Y-54137784D01*
X67012139Y-54067916D01*
X67049493Y-54008869D01*
X67050832Y-54007710D01*
X67082276Y-53980853D01*
X67139759Y-53931759D01*
X67298259Y-53746179D01*
X67425777Y-53538089D01*
X67519172Y-53312612D01*
X67576146Y-53075302D01*
X67595294Y-52832000D01*
X67576146Y-52588698D01*
X67519172Y-52351388D01*
X67519169Y-52351380D01*
X67425777Y-52125910D01*
X67298262Y-51917826D01*
X67298261Y-51917823D01*
X67139756Y-51732238D01*
X67050832Y-51656290D01*
X67012638Y-51597784D01*
X67012139Y-51527916D01*
X67049493Y-51468869D01*
X67050832Y-51467710D01*
X67082276Y-51440853D01*
X67139759Y-51391759D01*
X67298259Y-51206179D01*
X67425777Y-50998089D01*
X67519172Y-50772612D01*
X67576146Y-50535302D01*
X67595294Y-50292000D01*
X67576146Y-50048698D01*
X67519172Y-49811388D01*
X67502070Y-49770099D01*
X67425777Y-49585910D01*
X67298262Y-49377826D01*
X67298261Y-49377823D01*
X67200019Y-49262797D01*
X67139759Y-49192241D01*
X67139757Y-49192239D01*
X67139756Y-49192238D01*
X67050832Y-49116290D01*
X67012638Y-49057784D01*
X67012139Y-48987916D01*
X67049493Y-48928869D01*
X67050832Y-48927710D01*
X67082276Y-48900853D01*
X67139759Y-48851759D01*
X67298259Y-48666179D01*
X67425777Y-48458089D01*
X67519172Y-48232612D01*
X67576146Y-47995302D01*
X67595294Y-47752000D01*
X67576146Y-47508698D01*
X67519172Y-47271388D01*
X67513297Y-47257204D01*
X67425777Y-47045910D01*
X67298262Y-46837826D01*
X67298261Y-46837823D01*
X67206789Y-46730723D01*
X67139759Y-46652241D01*
X67139757Y-46652239D01*
X67139756Y-46652238D01*
X67050832Y-46576290D01*
X67012638Y-46517784D01*
X67012139Y-46447916D01*
X67049493Y-46388869D01*
X67050832Y-46387710D01*
X67082276Y-46360853D01*
X67139759Y-46311759D01*
X67298259Y-46126179D01*
X67425777Y-45918089D01*
X67519172Y-45692612D01*
X67576146Y-45455302D01*
X67595294Y-45212000D01*
X67576146Y-44968698D01*
X67519172Y-44731388D01*
X67458444Y-44584776D01*
X67425777Y-44505910D01*
X67298262Y-44297826D01*
X67298261Y-44297823D01*
X67234859Y-44223589D01*
X67139759Y-44112241D01*
X67139757Y-44112239D01*
X67139756Y-44112238D01*
X67050832Y-44036290D01*
X67012638Y-43977784D01*
X67012139Y-43907916D01*
X67049493Y-43848869D01*
X67050832Y-43847710D01*
X67127570Y-43782169D01*
X67139759Y-43771759D01*
X67298259Y-43586179D01*
X67425777Y-43378089D01*
X67519172Y-43152612D01*
X67576146Y-42915302D01*
X67595294Y-42672000D01*
X67576146Y-42428698D01*
X67519172Y-42191388D01*
X67458444Y-42044776D01*
X67425777Y-41965910D01*
X67298262Y-41757826D01*
X67298261Y-41757823D01*
X67234859Y-41683589D01*
X67139759Y-41572241D01*
X67139757Y-41572239D01*
X67139756Y-41572238D01*
X67050832Y-41496290D01*
X67012638Y-41437784D01*
X67012139Y-41367916D01*
X67049493Y-41308869D01*
X67050832Y-41307710D01*
X67082276Y-41280853D01*
X67139759Y-41231759D01*
X67298259Y-41046179D01*
X67425777Y-40838089D01*
X67519172Y-40612612D01*
X67576146Y-40375302D01*
X67595294Y-40132000D01*
X67576146Y-39888698D01*
X67519172Y-39651388D01*
X67458444Y-39504776D01*
X67425777Y-39425910D01*
X67298262Y-39217826D01*
X67298261Y-39217823D01*
X67234859Y-39143589D01*
X67139759Y-39032241D01*
X67139757Y-39032239D01*
X67139756Y-39032238D01*
X67050832Y-38956290D01*
X67012638Y-38897784D01*
X67012139Y-38827916D01*
X67049493Y-38768869D01*
X67050832Y-38767710D01*
X67139755Y-38691762D01*
X67139759Y-38691759D01*
X67239182Y-38575349D01*
X67297685Y-38537159D01*
X67367553Y-38536659D01*
X67421150Y-38568202D01*
X77045181Y-48192233D01*
X77078666Y-48253556D01*
X77081500Y-48279914D01*
X77081500Y-61881038D01*
X77081499Y-61881053D01*
X77081499Y-62066544D01*
X77109829Y-62245410D01*
X77165787Y-62417636D01*
X77165788Y-62417639D01*
X77248006Y-62578997D01*
X77354440Y-62725493D01*
X77354444Y-62725497D01*
X77354447Y-62725501D01*
X77482499Y-62853553D01*
X77486829Y-62857883D01*
X77486840Y-62857893D01*
X79891321Y-65262374D01*
X79891335Y-65262389D01*
X79894446Y-65265500D01*
X79894447Y-65265501D01*
X80022499Y-65393553D01*
X80022502Y-65393555D01*
X80022506Y-65393559D01*
X80155364Y-65490084D01*
X80169006Y-65499996D01*
X80274484Y-65553740D01*
X80330360Y-65582211D01*
X80330363Y-65582212D01*
X80416476Y-65610191D01*
X80502591Y-65638171D01*
X80681453Y-65666501D01*
X80681454Y-65666501D01*
X80867657Y-65666501D01*
X80867681Y-65666500D01*
X83724319Y-65666500D01*
X83724343Y-65666501D01*
X83729454Y-65666501D01*
X83910545Y-65666501D01*
X83910546Y-65666501D01*
X84089409Y-65638171D01*
X84261639Y-65582211D01*
X84422994Y-65499996D01*
X84422995Y-65499995D01*
X84569501Y-65393553D01*
X84697553Y-65265501D01*
X84697554Y-65265499D01*
X84704614Y-65258439D01*
X84704620Y-65258432D01*
X97262432Y-52700620D01*
X97262439Y-52700614D01*
X97269499Y-52693554D01*
X97269501Y-52693553D01*
X97397553Y-52565501D01*
X97503996Y-52418994D01*
X97586211Y-52257639D01*
X97642171Y-52085409D01*
X97652950Y-52017354D01*
X97670501Y-51906547D01*
X97670501Y-51725454D01*
X97670501Y-51721053D01*
X97670500Y-51721038D01*
X97670500Y-49875638D01*
X97690185Y-49808599D01*
X97729401Y-49770100D01*
X97838656Y-49702712D01*
X97962712Y-49578656D01*
X98054814Y-49429334D01*
X98109999Y-49262797D01*
X98120500Y-49160009D01*
X98120499Y-47359992D01*
X98109999Y-47257203D01*
X98054814Y-47090666D01*
X97962712Y-46941344D01*
X97838656Y-46817288D01*
X97837116Y-46815748D01*
X97803631Y-46754425D01*
X97808615Y-46684733D01*
X97819070Y-46663277D01*
X97950466Y-46448859D01*
X97951560Y-46446217D01*
X98046873Y-46216111D01*
X98105683Y-45971148D01*
X98125449Y-45720000D01*
X98105683Y-45468852D01*
X98046873Y-45223889D01*
X97950466Y-44991141D01*
X97950466Y-44991140D01*
X97818839Y-44776346D01*
X97818838Y-44776343D01*
X97655224Y-44584776D01*
X97607819Y-44544289D01*
X97569627Y-44485784D01*
X97569128Y-44415916D01*
X97606482Y-44356870D01*
X97607756Y-44355764D01*
X97655224Y-44315224D01*
X97818836Y-44123659D01*
X97950466Y-43908859D01*
X98046873Y-43676111D01*
X98105683Y-43431148D01*
X98125449Y-43180000D01*
X98105683Y-42928852D01*
X98046873Y-42683889D01*
X97950466Y-42451141D01*
X97950466Y-42451140D01*
X97818839Y-42236346D01*
X97818838Y-42236343D01*
X97655224Y-42044776D01*
X97607819Y-42004289D01*
X97569627Y-41945784D01*
X97569128Y-41875916D01*
X97606482Y-41816870D01*
X97607756Y-41815764D01*
X97655224Y-41775224D01*
X97818836Y-41583659D01*
X97950466Y-41368859D01*
X98046873Y-41136111D01*
X98105683Y-40891148D01*
X98125449Y-40640000D01*
X98105683Y-40388852D01*
X98046873Y-40143889D01*
X97950466Y-39911141D01*
X97950466Y-39911140D01*
X97818839Y-39696346D01*
X97818838Y-39696343D01*
X97655224Y-39504776D01*
X97637338Y-39489500D01*
X97607819Y-39464289D01*
X97569627Y-39405784D01*
X97569128Y-39335916D01*
X97606482Y-39276870D01*
X97607756Y-39275764D01*
X97655224Y-39235224D01*
X97818836Y-39043659D01*
X97950466Y-38828859D01*
X98046873Y-38596111D01*
X98105683Y-38351148D01*
X98125449Y-38100000D01*
X98105683Y-37848852D01*
X98046873Y-37603889D01*
X97950466Y-37371141D01*
X97950466Y-37371140D01*
X97818839Y-37156346D01*
X97818838Y-37156343D01*
X97781875Y-37113066D01*
X97655224Y-36964776D01*
X97463659Y-36801164D01*
X97449935Y-36792754D01*
X97426868Y-36778618D01*
X97379993Y-36726806D01*
X97368571Y-36657876D01*
X97396229Y-36593713D01*
X97403978Y-36585210D01*
X97558105Y-36431082D01*
X97693600Y-36237578D01*
X97793429Y-36023492D01*
X97793432Y-36023486D01*
X97850636Y-35810000D01*
X96953012Y-35810000D01*
X96985925Y-35752993D01*
X97020000Y-35625826D01*
X97020000Y-35494174D01*
X96985925Y-35367007D01*
X96953012Y-35310000D01*
X97850636Y-35310000D01*
X97850635Y-35309999D01*
X97793432Y-35096513D01*
X97793429Y-35096507D01*
X97693600Y-34882422D01*
X97693599Y-34882420D01*
X97558113Y-34688926D01*
X97558108Y-34688920D01*
X97403977Y-34534789D01*
X97370492Y-34473466D01*
X97375476Y-34403774D01*
X97417348Y-34347841D01*
X97426848Y-34341393D01*
X97463659Y-34318836D01*
X97655224Y-34155224D01*
X97818836Y-33963659D01*
X97950466Y-33748859D01*
X98046873Y-33516111D01*
X98105683Y-33271148D01*
X98125449Y-33020000D01*
X98105683Y-32768852D01*
X98046873Y-32523889D01*
X98014683Y-32446174D01*
X97950466Y-32291140D01*
X97818839Y-32076346D01*
X97818838Y-32076343D01*
X97655224Y-31884776D01*
X97625649Y-31859517D01*
X97607819Y-31844289D01*
X97569627Y-31785784D01*
X97569128Y-31715916D01*
X97606482Y-31656870D01*
X97607756Y-31655764D01*
X97655224Y-31615224D01*
X97818836Y-31423659D01*
X97950466Y-31208859D01*
X98046873Y-30976111D01*
X98105683Y-30731148D01*
X98125449Y-30480000D01*
X98105683Y-30228852D01*
X98046873Y-29983889D01*
X97950466Y-29751141D01*
X97950466Y-29751140D01*
X97818839Y-29536346D01*
X97818838Y-29536343D01*
X97781875Y-29493066D01*
X97655224Y-29344776D01*
X97528571Y-29236604D01*
X97463656Y-29181161D01*
X97463653Y-29181160D01*
X97248859Y-29049533D01*
X97016110Y-28953126D01*
X96771151Y-28894317D01*
X96520000Y-28874551D01*
X96268848Y-28894317D01*
X96023889Y-28953126D01*
X95791140Y-29049533D01*
X95576346Y-29181160D01*
X95576337Y-29181166D01*
X95437447Y-29299790D01*
X95373686Y-29328361D01*
X95356916Y-29329500D01*
X83915681Y-29329500D01*
X83915657Y-29329499D01*
X83910546Y-29329499D01*
X83729453Y-29329499D01*
X83669832Y-29338942D01*
X83550589Y-29357829D01*
X83378363Y-29413787D01*
X83378360Y-29413788D01*
X83217002Y-29496006D01*
X83070506Y-29602440D01*
X82997511Y-29675435D01*
X82936187Y-29708919D01*
X82866496Y-29703934D01*
X82810562Y-29662063D01*
X82789258Y-29616705D01*
X82759172Y-29491388D01*
X82727029Y-29413787D01*
X82665777Y-29265910D01*
X82538262Y-29057826D01*
X82538261Y-29057823D01*
X82448841Y-28953126D01*
X82379759Y-28872241D01*
X82379757Y-28872239D01*
X82379756Y-28872238D01*
X82290832Y-28796290D01*
X82252638Y-28737784D01*
X82252139Y-28667916D01*
X82289493Y-28608869D01*
X82290832Y-28607710D01*
X82322276Y-28580853D01*
X82379759Y-28531759D01*
X82538259Y-28346179D01*
X82665777Y-28138089D01*
X82759172Y-27912612D01*
X82816146Y-27675302D01*
X82835294Y-27432000D01*
X82816146Y-27188698D01*
X82759172Y-26951388D01*
X82665777Y-26725911D01*
X82665777Y-26725910D01*
X82538262Y-26517826D01*
X82538261Y-26517823D01*
X82451004Y-26415658D01*
X82379759Y-26332241D01*
X82379757Y-26332239D01*
X82379756Y-26332238D01*
X82290832Y-26256290D01*
X82252638Y-26197784D01*
X82252139Y-26127916D01*
X82289493Y-26068869D01*
X82290832Y-26067710D01*
X82356837Y-26011336D01*
X82379759Y-25991759D01*
X82538259Y-25806179D01*
X82665777Y-25598089D01*
X82759172Y-25372612D01*
X82816146Y-25135302D01*
X82835294Y-24892000D01*
X82816146Y-24648698D01*
X82759172Y-24411388D01*
X82665777Y-24185911D01*
X82665777Y-24185910D01*
X82538262Y-23977826D01*
X82538261Y-23977823D01*
X82502453Y-23935897D01*
X82379759Y-23792241D01*
X82257063Y-23687449D01*
X82194176Y-23633738D01*
X82194173Y-23633737D01*
X81986089Y-23506222D01*
X81760618Y-23412830D01*
X81760621Y-23412830D01*
X81654992Y-23387470D01*
X81523302Y-23355854D01*
X81523300Y-23355853D01*
X81523297Y-23355853D01*
X81280000Y-23336706D01*
X81036702Y-23355853D01*
X81036698Y-23355854D01*
X80822889Y-23407186D01*
X80799380Y-23412830D01*
X80573910Y-23506222D01*
X80365826Y-23633737D01*
X80365823Y-23633738D01*
X80180241Y-23792241D01*
X80021738Y-23977823D01*
X80021737Y-23977826D01*
X79894222Y-24185910D01*
X79800830Y-24411380D01*
X79743853Y-24648702D01*
X79724706Y-24892000D01*
X79743853Y-25135297D01*
X79800830Y-25372619D01*
X79894222Y-25598089D01*
X80021737Y-25806173D01*
X80021738Y-25806176D01*
X80075449Y-25869063D01*
X80180241Y-25991759D01*
X80248250Y-26049844D01*
X80269168Y-26067710D01*
X80307361Y-26126217D01*
X80307859Y-26196085D01*
X80270505Y-26255131D01*
X80269168Y-26256290D01*
X80180241Y-26332241D01*
X80021738Y-26517823D01*
X80021737Y-26517826D01*
X79894222Y-26725910D01*
X79800830Y-26951380D01*
X79743853Y-27188702D01*
X79724706Y-27432000D01*
X79743853Y-27675297D01*
X79800830Y-27912619D01*
X79894222Y-28138089D01*
X80021737Y-28346173D01*
X80021738Y-28346176D01*
X80021741Y-28346179D01*
X80180241Y-28531759D01*
X80248250Y-28589844D01*
X80269168Y-28607710D01*
X80307361Y-28666217D01*
X80307859Y-28736085D01*
X80270505Y-28795131D01*
X80269168Y-28796290D01*
X80180241Y-28872241D01*
X80021738Y-29057823D01*
X80021737Y-29057826D01*
X79894222Y-29265910D01*
X79800830Y-29491380D01*
X79743853Y-29728702D01*
X79724706Y-29972000D01*
X79743853Y-30215297D01*
X79800830Y-30452619D01*
X79894222Y-30678089D01*
X80021737Y-30886173D01*
X80021738Y-30886176D01*
X80021741Y-30886179D01*
X80180241Y-31071759D01*
X80248250Y-31129844D01*
X80269168Y-31147710D01*
X80307361Y-31206217D01*
X80307859Y-31276085D01*
X80270505Y-31335131D01*
X80269168Y-31336290D01*
X80180241Y-31412241D01*
X80021738Y-31597823D01*
X80021737Y-31597826D01*
X79894222Y-31805910D01*
X79800830Y-32031380D01*
X79743853Y-32268702D01*
X79724706Y-32512000D01*
X79743853Y-32755297D01*
X79743853Y-32755300D01*
X79743854Y-32755302D01*
X79792594Y-32958317D01*
X79800830Y-32992619D01*
X79894222Y-33218089D01*
X80021737Y-33426173D01*
X80021738Y-33426176D01*
X80075449Y-33489063D01*
X80180241Y-33611759D01*
X80228594Y-33653056D01*
X80269168Y-33687710D01*
X80307361Y-33746217D01*
X80307859Y-33816085D01*
X80270505Y-33875131D01*
X80269168Y-33876290D01*
X80180241Y-33952241D01*
X80021738Y-34137823D01*
X80021737Y-34137826D01*
X79894222Y-34345910D01*
X79800830Y-34571380D01*
X79743853Y-34808702D01*
X79724706Y-35052000D01*
X79743853Y-35295297D01*
X79743853Y-35295300D01*
X79743854Y-35295302D01*
X79761288Y-35367920D01*
X79800830Y-35532619D01*
X79894222Y-35758089D01*
X80021737Y-35966173D01*
X80021738Y-35966176D01*
X80021741Y-35966179D01*
X80180241Y-36151759D01*
X80248250Y-36209844D01*
X80269168Y-36227710D01*
X80307361Y-36286217D01*
X80307859Y-36356085D01*
X80270505Y-36415131D01*
X80269168Y-36416290D01*
X80180241Y-36492241D01*
X80021738Y-36677823D01*
X80021737Y-36677826D01*
X79894222Y-36885910D01*
X79800830Y-37111380D01*
X79743853Y-37348702D01*
X79724706Y-37592000D01*
X79743853Y-37835297D01*
X79800830Y-38072619D01*
X79894222Y-38298089D01*
X80021737Y-38506173D01*
X80021738Y-38506176D01*
X80021741Y-38506179D01*
X80180241Y-38691759D01*
X80248250Y-38749844D01*
X80269168Y-38767710D01*
X80307361Y-38826217D01*
X80307859Y-38896085D01*
X80270505Y-38955131D01*
X80269168Y-38956290D01*
X80180241Y-39032241D01*
X80021738Y-39217823D01*
X80021737Y-39217826D01*
X79894222Y-39425910D01*
X79800830Y-39651380D01*
X79743853Y-39888702D01*
X79724706Y-40132000D01*
X79743853Y-40375297D01*
X79800830Y-40612619D01*
X79894222Y-40838089D01*
X80021737Y-41046173D01*
X80021738Y-41046176D01*
X80021741Y-41046179D01*
X80180241Y-41231759D01*
X80248250Y-41289844D01*
X80269168Y-41307710D01*
X80307361Y-41366217D01*
X80307859Y-41436085D01*
X80270505Y-41495131D01*
X80269168Y-41496290D01*
X80180241Y-41572241D01*
X80021738Y-41757823D01*
X80021737Y-41757826D01*
X79894222Y-41965910D01*
X79800830Y-42191380D01*
X79743853Y-42428702D01*
X79724706Y-42672000D01*
X79743853Y-42915297D01*
X79800830Y-43152619D01*
X79894222Y-43378089D01*
X80021737Y-43586173D01*
X80021738Y-43586176D01*
X80021741Y-43586179D01*
X80180241Y-43771759D01*
X80241280Y-43823891D01*
X80269168Y-43847710D01*
X80307361Y-43906217D01*
X80307859Y-43976085D01*
X80270505Y-44035131D01*
X80269168Y-44036290D01*
X80180241Y-44112241D01*
X80021738Y-44297823D01*
X80021737Y-44297826D01*
X79894222Y-44505910D01*
X79800830Y-44731380D01*
X79743853Y-44968702D01*
X79724706Y-45212000D01*
X79743853Y-45455297D01*
X79800830Y-45692619D01*
X79894222Y-45918089D01*
X80021737Y-46126173D01*
X80021738Y-46126176D01*
X80021741Y-46126179D01*
X80180241Y-46311759D01*
X80248250Y-46369844D01*
X80269168Y-46387710D01*
X80307361Y-46446217D01*
X80307859Y-46516085D01*
X80270505Y-46575131D01*
X80269168Y-46576290D01*
X80180241Y-46652241D01*
X80021738Y-46837823D01*
X80021737Y-46837826D01*
X79894222Y-47045910D01*
X79800830Y-47271380D01*
X79800828Y-47271387D01*
X79800828Y-47271388D01*
X79791471Y-47310361D01*
X79743853Y-47508702D01*
X79724706Y-47752000D01*
X79743853Y-47995297D01*
X79743853Y-47995300D01*
X79743854Y-47995302D01*
X79799853Y-48228552D01*
X79800830Y-48232619D01*
X79894222Y-48458089D01*
X80021737Y-48666173D01*
X80021738Y-48666176D01*
X80021741Y-48666179D01*
X80180241Y-48851759D01*
X80248250Y-48909844D01*
X80269168Y-48927710D01*
X80307361Y-48986217D01*
X80307859Y-49056085D01*
X80270505Y-49115131D01*
X80269168Y-49116290D01*
X80180241Y-49192241D01*
X80021738Y-49377823D01*
X80021737Y-49377826D01*
X79894222Y-49585910D01*
X79800830Y-49811380D01*
X79743853Y-50048702D01*
X79724706Y-50292000D01*
X79743853Y-50535297D01*
X79800830Y-50772619D01*
X79894222Y-50998089D01*
X80021737Y-51206173D01*
X80021738Y-51206176D01*
X80021741Y-51206179D01*
X80180241Y-51391759D01*
X80248250Y-51449844D01*
X80269168Y-51467710D01*
X80307361Y-51526217D01*
X80307859Y-51596085D01*
X80270505Y-51655131D01*
X80269168Y-51656290D01*
X80180241Y-51732241D01*
X80021738Y-51917823D01*
X80021737Y-51917826D01*
X79894222Y-52125910D01*
X79800830Y-52351380D01*
X79743853Y-52588702D01*
X79724706Y-52832000D01*
X79743853Y-53075297D01*
X79800830Y-53312619D01*
X79894222Y-53538089D01*
X80021737Y-53746173D01*
X80021738Y-53746176D01*
X80021741Y-53746179D01*
X80180241Y-53931759D01*
X80248250Y-53989844D01*
X80269168Y-54007710D01*
X80307361Y-54066217D01*
X80307859Y-54136085D01*
X80270505Y-54195131D01*
X80269168Y-54196290D01*
X80180241Y-54272241D01*
X80021738Y-54457823D01*
X80021737Y-54457826D01*
X79894222Y-54665910D01*
X79800830Y-54891380D01*
X79743853Y-55128702D01*
X79724706Y-55372000D01*
X79743853Y-55615297D01*
X79800830Y-55852619D01*
X79894222Y-56078089D01*
X80021737Y-56286173D01*
X80021738Y-56286176D01*
X80021741Y-56286179D01*
X80180241Y-56471759D01*
X80248250Y-56529844D01*
X80269168Y-56547710D01*
X80307361Y-56606217D01*
X80307859Y-56676085D01*
X80270505Y-56735131D01*
X80269168Y-56736290D01*
X80180241Y-56812241D01*
X80021738Y-56997823D01*
X80021737Y-56997826D01*
X79894222Y-57205910D01*
X79800830Y-57431380D01*
X79743853Y-57668702D01*
X79724706Y-57912000D01*
X79743853Y-58155297D01*
X79800830Y-58392619D01*
X79894222Y-58618089D01*
X80021737Y-58826173D01*
X80021738Y-58826176D01*
X80021741Y-58826179D01*
X80180241Y-59011759D01*
X80248250Y-59069844D01*
X80269168Y-59087710D01*
X80307361Y-59146217D01*
X80307859Y-59216085D01*
X80270505Y-59275131D01*
X80269168Y-59276290D01*
X80180241Y-59352241D01*
X80021738Y-59537823D01*
X80021737Y-59537826D01*
X79894222Y-59745910D01*
X79800830Y-59971380D01*
X79743853Y-60208702D01*
X79724706Y-60452000D01*
X79743853Y-60695297D01*
X79800830Y-60932619D01*
X79894222Y-61158089D01*
X80021737Y-61366173D01*
X80021738Y-61366176D01*
X80021741Y-61366179D01*
X80180241Y-61551759D01*
X80323897Y-61674453D01*
X80365823Y-61710261D01*
X80365826Y-61710262D01*
X80573910Y-61837777D01*
X80799381Y-61931169D01*
X80799378Y-61931169D01*
X80799384Y-61931170D01*
X80799388Y-61931172D01*
X81036698Y-61988146D01*
X81280000Y-62007294D01*
X81523302Y-61988146D01*
X81760612Y-61931172D01*
X81986089Y-61837777D01*
X82194179Y-61710259D01*
X82379759Y-61551759D01*
X82538259Y-61366179D01*
X82665777Y-61158089D01*
X82759172Y-60932612D01*
X82816146Y-60695302D01*
X82835294Y-60452000D01*
X82816146Y-60208698D01*
X82759172Y-59971388D01*
X82665777Y-59745911D01*
X82665777Y-59745910D01*
X82538262Y-59537826D01*
X82538261Y-59537823D01*
X82379756Y-59352238D01*
X82290832Y-59276290D01*
X82252638Y-59217784D01*
X82252139Y-59147916D01*
X82289493Y-59088869D01*
X82290832Y-59087710D01*
X82322276Y-59060853D01*
X82379759Y-59011759D01*
X82538259Y-58826179D01*
X82665777Y-58618089D01*
X82759172Y-58392612D01*
X82816146Y-58155302D01*
X82835294Y-57912000D01*
X82816146Y-57668698D01*
X82759172Y-57431388D01*
X82665777Y-57205911D01*
X82665777Y-57205910D01*
X82538262Y-56997826D01*
X82538261Y-56997823D01*
X82379756Y-56812238D01*
X82290832Y-56736290D01*
X82252638Y-56677784D01*
X82252139Y-56607916D01*
X82289493Y-56548869D01*
X82290832Y-56547710D01*
X82322276Y-56520853D01*
X82379759Y-56471759D01*
X82538259Y-56286179D01*
X82665777Y-56078089D01*
X82759172Y-55852612D01*
X82816146Y-55615302D01*
X82835294Y-55372000D01*
X82816146Y-55128698D01*
X82759172Y-54891388D01*
X82665777Y-54665911D01*
X82665777Y-54665910D01*
X82538262Y-54457826D01*
X82538261Y-54457823D01*
X82379756Y-54272238D01*
X82290832Y-54196290D01*
X82252638Y-54137784D01*
X82252139Y-54067916D01*
X82289493Y-54008869D01*
X82290832Y-54007710D01*
X82322276Y-53980853D01*
X82379759Y-53931759D01*
X82538259Y-53746179D01*
X82665777Y-53538089D01*
X82759172Y-53312612D01*
X82816146Y-53075302D01*
X82835294Y-52832000D01*
X82816146Y-52588698D01*
X82759172Y-52351388D01*
X82759169Y-52351380D01*
X82665777Y-52125910D01*
X82538262Y-51917826D01*
X82538261Y-51917823D01*
X82379756Y-51732238D01*
X82290832Y-51656290D01*
X82252638Y-51597784D01*
X82252139Y-51527916D01*
X82289493Y-51468869D01*
X82290832Y-51467710D01*
X82322276Y-51440853D01*
X82379759Y-51391759D01*
X82538259Y-51206179D01*
X82665777Y-50998089D01*
X82759172Y-50772612D01*
X82816146Y-50535302D01*
X82835294Y-50292000D01*
X82816146Y-50048698D01*
X82759172Y-49811388D01*
X82742070Y-49770099D01*
X82665777Y-49585910D01*
X82538262Y-49377826D01*
X82538261Y-49377823D01*
X82440019Y-49262797D01*
X82379759Y-49192241D01*
X82379757Y-49192239D01*
X82379756Y-49192238D01*
X82290832Y-49116290D01*
X82252638Y-49057784D01*
X82252139Y-48987916D01*
X82289493Y-48928869D01*
X82290832Y-48927710D01*
X82322276Y-48900853D01*
X82379759Y-48851759D01*
X82538259Y-48666179D01*
X82665777Y-48458089D01*
X82759172Y-48232612D01*
X82816146Y-47995302D01*
X82835294Y-47752000D01*
X82816146Y-47508698D01*
X82759172Y-47271388D01*
X82753297Y-47257204D01*
X82665777Y-47045910D01*
X82538262Y-46837826D01*
X82538261Y-46837823D01*
X82446789Y-46730723D01*
X82379759Y-46652241D01*
X82379757Y-46652239D01*
X82379756Y-46652238D01*
X82290832Y-46576290D01*
X82252638Y-46517784D01*
X82252139Y-46447916D01*
X82289493Y-46388869D01*
X82290832Y-46387710D01*
X82322276Y-46360853D01*
X82379759Y-46311759D01*
X82538259Y-46126179D01*
X82665777Y-45918089D01*
X82759172Y-45692612D01*
X82816146Y-45455302D01*
X82835294Y-45212000D01*
X82816146Y-44968698D01*
X82759172Y-44731388D01*
X82698444Y-44584776D01*
X82665777Y-44505910D01*
X82538262Y-44297826D01*
X82538261Y-44297823D01*
X82502453Y-44255897D01*
X82379759Y-44112241D01*
X82296099Y-44040789D01*
X82257907Y-43982283D01*
X82257408Y-43912416D01*
X82294762Y-43853369D01*
X82358109Y-43823891D01*
X82376632Y-43822500D01*
X94392319Y-43822500D01*
X94392343Y-43822501D01*
X94397454Y-43822501D01*
X94578545Y-43822501D01*
X94578546Y-43822501D01*
X94757409Y-43794171D01*
X94899252Y-43748083D01*
X94969093Y-43746089D01*
X95028926Y-43782169D01*
X95052131Y-43818562D01*
X95089533Y-43908859D01*
X95221160Y-44123653D01*
X95221161Y-44123656D01*
X95221164Y-44123659D01*
X95384776Y-44315224D01*
X95432178Y-44355709D01*
X95432179Y-44355710D01*
X95470372Y-44414217D01*
X95470870Y-44484085D01*
X95433516Y-44543131D01*
X95432179Y-44544290D01*
X95384776Y-44584776D01*
X95221161Y-44776343D01*
X95221160Y-44776346D01*
X95089533Y-44991140D01*
X94993126Y-45223889D01*
X94934317Y-45468848D01*
X94914551Y-45720000D01*
X94934317Y-45971151D01*
X94993126Y-46216110D01*
X95089533Y-46448859D01*
X95220929Y-46663277D01*
X95239174Y-46730723D01*
X95218058Y-46797325D01*
X95202884Y-46815748D01*
X95077287Y-46941345D01*
X94985187Y-47090663D01*
X94985185Y-47090668D01*
X94978945Y-47109499D01*
X94930001Y-47257203D01*
X94930001Y-47257204D01*
X94930000Y-47257204D01*
X94919500Y-47359983D01*
X94919500Y-49160001D01*
X94919501Y-49160018D01*
X94930000Y-49262796D01*
X94930001Y-49262799D01*
X94968116Y-49377821D01*
X94985186Y-49429334D01*
X95077288Y-49578656D01*
X95201344Y-49702712D01*
X95310597Y-49770099D01*
X95357321Y-49822047D01*
X95369500Y-49875638D01*
X95369500Y-51288085D01*
X95349815Y-51355124D01*
X95333181Y-51375766D01*
X83379766Y-63329181D01*
X83318443Y-63362666D01*
X83292085Y-63365500D01*
X81299915Y-63365500D01*
X81232876Y-63345815D01*
X81212234Y-63329181D01*
X79418819Y-61535766D01*
X79385334Y-61474443D01*
X79382500Y-61448085D01*
X79382500Y-47847682D01*
X79382501Y-47847657D01*
X79382501Y-47661448D01*
X79354172Y-47482590D01*
X79314334Y-47359983D01*
X79298211Y-47310361D01*
X79298209Y-47310358D01*
X79298209Y-47310356D01*
X79215995Y-47149005D01*
X79187293Y-47109500D01*
X79187293Y-47109499D01*
X79187291Y-47109498D01*
X79151495Y-47060229D01*
X79109558Y-47002505D01*
X79109555Y-47002502D01*
X79109553Y-47002499D01*
X78981501Y-46874447D01*
X78981500Y-46874446D01*
X78978396Y-46871342D01*
X78978367Y-46871315D01*
X67591603Y-35484550D01*
X67558118Y-35423227D01*
X67558711Y-35367920D01*
X67576144Y-35295309D01*
X67576146Y-35295302D01*
X67595294Y-35052000D01*
X67576146Y-34808698D01*
X67519172Y-34571388D01*
X67509018Y-34546873D01*
X67425777Y-34345910D01*
X67298262Y-34137826D01*
X67298261Y-34137823D01*
X67262453Y-34095897D01*
X67139759Y-33952241D01*
X66980341Y-33816085D01*
X66954176Y-33793738D01*
X66954174Y-33793737D01*
X66860415Y-33736282D01*
X66813540Y-33684471D01*
X66802117Y-33615541D01*
X66829774Y-33551378D01*
X66854082Y-33528980D01*
X66878818Y-33511659D01*
X67039657Y-33350820D01*
X67170134Y-33164482D01*
X67266265Y-32958326D01*
X67266269Y-32958317D01*
X67318872Y-32762000D01*
X66473012Y-32762000D01*
X66505925Y-32704993D01*
X66540000Y-32577826D01*
X66540000Y-32446174D01*
X66505925Y-32319007D01*
X66473012Y-32262000D01*
X67318872Y-32262000D01*
X67318872Y-32261999D01*
X67266269Y-32065682D01*
X67266265Y-32065673D01*
X67170134Y-31859517D01*
X67039657Y-31673179D01*
X66878818Y-31512340D01*
X66854080Y-31495018D01*
X66810456Y-31440440D01*
X66803264Y-31370942D01*
X66834787Y-31308588D01*
X66860410Y-31287720D01*
X66954179Y-31230259D01*
X67139759Y-31071759D01*
X67298259Y-30886179D01*
X67425777Y-30678089D01*
X67519172Y-30452612D01*
X67576146Y-30215302D01*
X67595294Y-29972000D01*
X67576146Y-29728698D01*
X67519172Y-29491388D01*
X67487030Y-29413789D01*
X67425777Y-29265910D01*
X67298262Y-29057826D01*
X67298261Y-29057823D01*
X67208841Y-28953126D01*
X67139759Y-28872241D01*
X67139757Y-28872239D01*
X67139756Y-28872238D01*
X67050832Y-28796290D01*
X67012638Y-28737784D01*
X67012139Y-28667916D01*
X67049493Y-28608869D01*
X67050832Y-28607710D01*
X67082276Y-28580853D01*
X67139759Y-28531759D01*
X67298259Y-28346179D01*
X67425777Y-28138089D01*
X67519172Y-27912612D01*
X67576146Y-27675302D01*
X67595294Y-27432000D01*
X67576146Y-27188698D01*
X67519172Y-26951388D01*
X67425777Y-26725911D01*
X67425777Y-26725910D01*
X67298262Y-26517826D01*
X67298261Y-26517824D01*
X67298260Y-26517823D01*
X67298259Y-26517821D01*
X67265459Y-26479417D01*
X67236889Y-26415658D01*
X67247326Y-26346572D01*
X67293457Y-26294096D01*
X67294599Y-26293381D01*
X67308656Y-26284712D01*
X67432712Y-26160656D01*
X67524814Y-26011334D01*
X67579999Y-25844797D01*
X67590500Y-25742009D01*
X67590499Y-24041992D01*
X67579999Y-23939203D01*
X67524814Y-23772666D01*
X67432712Y-23623344D01*
X67308656Y-23499288D01*
X67215888Y-23442069D01*
X67159336Y-23407187D01*
X67159331Y-23407185D01*
X67157862Y-23406698D01*
X66992797Y-23352001D01*
X66992795Y-23352000D01*
X66890010Y-23341500D01*
X65189998Y-23341500D01*
X65189981Y-23341501D01*
X65087203Y-23352000D01*
X65087200Y-23352001D01*
X64920668Y-23407185D01*
X64920663Y-23407187D01*
X64771342Y-23499289D01*
X64647289Y-23623342D01*
X64555187Y-23772663D01*
X64555186Y-23772666D01*
X64500001Y-23939203D01*
X64500001Y-23939204D01*
X64500000Y-23939204D01*
X64489500Y-24041983D01*
X64489500Y-25742001D01*
X64489501Y-25742018D01*
X64500000Y-25844796D01*
X64500001Y-25844799D01*
X64555185Y-26011331D01*
X64555187Y-26011336D01*
X64647289Y-26160657D01*
X64771345Y-26284713D01*
X64785342Y-26293346D01*
X64832068Y-26345292D01*
X64843292Y-26414254D01*
X64815450Y-26478337D01*
X64814540Y-26479415D01*
X64781746Y-26517813D01*
X64781739Y-26517823D01*
X64654222Y-26725910D01*
X64560830Y-26951380D01*
X64503853Y-27188702D01*
X64484706Y-27432000D01*
X59944000Y-27432000D01*
X59944000Y-18847362D01*
X59963685Y-18780323D01*
X59980319Y-18759681D01*
X60415681Y-18324319D01*
X60477004Y-18290834D01*
X60503362Y-18288000D01*
X106048000Y-18288000D01*
X106115039Y-18307685D01*
G37*
%TD.AperFunction*%
%TD*%
M02*
