%TF.GenerationSoftware,KiCad,Pcbnew,8.0.4*%
%TF.CreationDate,2024-08-26T17:47:24-03:00*%
%TF.ProjectId,IMU com arduino,494d5520-636f-46d2-9061-726475696e6f,rev?*%
%TF.SameCoordinates,Original*%
%TF.FileFunction,Copper,L1,Top*%
%TF.FilePolarity,Positive*%
%FSLAX46Y46*%
G04 Gerber Fmt 4.6, Leading zero omitted, Abs format (unit mm)*
G04 Created by KiCad (PCBNEW 8.0.4) date 2024-08-26 17:47:24*
%MOMM*%
%LPD*%
G01*
G04 APERTURE LIST*
%TA.AperFunction,ComponentPad*%
%ADD10R,1.700000X1.700000*%
%TD*%
%TA.AperFunction,ComponentPad*%
%ADD11O,1.700000X1.700000*%
%TD*%
%TA.AperFunction,ComponentPad*%
%ADD12O,1.600000X1.600000*%
%TD*%
%TA.AperFunction,ComponentPad*%
%ADD13R,1.600000X1.600000*%
%TD*%
%TA.AperFunction,Conductor*%
%ADD14C,0.200000*%
%TD*%
G04 APERTURE END LIST*
D10*
%TO.P,J1,1,Pin_1*%
%TO.N,Net-(A1-D2)*%
X96520000Y-48260000D03*
D11*
%TO.P,J1,2,Pin_2*%
%TO.N,unconnected-(J1-Pin_2-Pad2)*%
X96520000Y-45720000D03*
%TO.P,J1,3,Pin_3*%
%TO.N,unconnected-(J1-Pin_3-Pad3)*%
X96520000Y-43180000D03*
%TO.P,J1,4,Pin_4*%
%TO.N,Net-(A1-A4)*%
X96520000Y-40640000D03*
%TO.P,J1,5,Pin_5*%
%TO.N,Net-(A1-A5)*%
X96520000Y-38100000D03*
%TO.P,J1,6,Pin_6*%
%TO.N,GND*%
X96520000Y-35560000D03*
%TO.P,J1,7,Pin_7*%
%TO.N,unconnected-(J1-Pin_7-Pad7)*%
X96520000Y-33020000D03*
%TO.P,J1,8,Pin_8*%
%TO.N,Net-(A1-+5V)*%
X96520000Y-30480000D03*
%TD*%
D12*
%TO.P,A1,30,VIN*%
%TO.N,unconnected-(A1-VIN-Pad30)*%
X81280000Y-24892000D03*
%TO.P,A1,29,GND*%
%TO.N,unconnected-(A1-GND-Pad29)*%
X81280000Y-27432000D03*
%TO.P,A1,28,~{RESET}*%
%TO.N,unconnected-(A1-~{RESET}-Pad28)*%
X81280000Y-29972000D03*
%TO.P,A1,27,+5V*%
%TO.N,Net-(A1-+5V)*%
X81280000Y-32512000D03*
%TO.P,A1,26,A7*%
%TO.N,unconnected-(A1-A7-Pad26)*%
X81280000Y-35052000D03*
%TO.P,A1,25,A6*%
%TO.N,unconnected-(A1-A6-Pad25)*%
X81280000Y-37592000D03*
%TO.P,A1,24,A5*%
%TO.N,Net-(A1-A5)*%
X81280000Y-40132000D03*
%TO.P,A1,23,A4*%
%TO.N,Net-(A1-A4)*%
X81280000Y-42672000D03*
%TO.P,A1,22,A3*%
%TO.N,unconnected-(A1-A3-Pad22)*%
X81280000Y-45212000D03*
%TO.P,A1,21,A2*%
%TO.N,unconnected-(A1-A2-Pad21)*%
X81280000Y-47752000D03*
%TO.P,A1,20,A1*%
%TO.N,unconnected-(A1-A1-Pad20)*%
X81280000Y-50292000D03*
%TO.P,A1,19,A0*%
%TO.N,unconnected-(A1-A0-Pad19)*%
X81280000Y-52832000D03*
%TO.P,A1,18,AREF*%
%TO.N,unconnected-(A1-AREF-Pad18)*%
X81280000Y-55372000D03*
%TO.P,A1,17,3V3*%
%TO.N,unconnected-(A1-3V3-Pad17)*%
X81280000Y-57912000D03*
%TO.P,A1,16,D13*%
%TO.N,unconnected-(A1-D13-Pad16)*%
X81280000Y-60452000D03*
%TO.P,A1,15,D12*%
%TO.N,unconnected-(A1-D12-Pad15)*%
X66040000Y-60452000D03*
%TO.P,A1,14,D11*%
%TO.N,unconnected-(A1-D11-Pad14)*%
X66040000Y-57912000D03*
%TO.P,A1,13,D10*%
%TO.N,unconnected-(A1-D10-Pad13)*%
X66040000Y-55372000D03*
%TO.P,A1,12,D9*%
%TO.N,unconnected-(A1-D9-Pad12)*%
X66040000Y-52832000D03*
%TO.P,A1,11,D8*%
%TO.N,unconnected-(A1-D8-Pad11)*%
X66040000Y-50292000D03*
%TO.P,A1,10,D7*%
%TO.N,unconnected-(A1-D7-Pad10)*%
X66040000Y-47752000D03*
%TO.P,A1,9,D6*%
%TO.N,unconnected-(A1-D6-Pad9)*%
X66040000Y-45212000D03*
%TO.P,A1,8,D5*%
%TO.N,unconnected-(A1-D5-Pad8)*%
X66040000Y-42672000D03*
%TO.P,A1,7,D4*%
%TO.N,unconnected-(A1-D4-Pad7)*%
X66040000Y-40132000D03*
%TO.P,A1,6,D3*%
%TO.N,unconnected-(A1-D3-Pad6)*%
X66040000Y-37592000D03*
%TO.P,A1,5,D2*%
%TO.N,Net-(A1-D2)*%
X66040000Y-35052000D03*
%TO.P,A1,4,GND*%
%TO.N,GND*%
X66040000Y-32512000D03*
%TO.P,A1,3,~{RESET}*%
%TO.N,unconnected-(A1-~{RESET}-Pad3)*%
X66040000Y-29972000D03*
%TO.P,A1,2,D0/RX*%
%TO.N,unconnected-(A1-D0{slash}RX-Pad2)*%
X66040000Y-27432000D03*
D13*
%TO.P,A1,1,D1/TX*%
%TO.N,unconnected-(A1-D1{slash}TX-Pad1)*%
X66040000Y-24892000D03*
%TD*%
D14*
%TO.N,Net-(A1-A4)*%
X81788000Y-42672000D02*
X81280000Y-43180000D01*
%TD*%
M02*
