%TF.GenerationSoftware,KiCad,Pcbnew,8.0.4*%
%TF.CreationDate,2024-08-29T16:29:35-03:00*%
%TF.ProjectId,IMU com arduino,494d5520-636f-46d2-9061-726475696e6f,rev?*%
%TF.SameCoordinates,Original*%
%TF.FileFunction,Legend,Top*%
%TF.FilePolarity,Positive*%
%FSLAX46Y46*%
G04 Gerber Fmt 4.6, Leading zero omitted, Abs format (unit mm)*
G04 Created by KiCad (PCBNEW 8.0.4) date 2024-08-29 16:29:35*
%MOMM*%
%LPD*%
G01*
G04 APERTURE LIST*
%ADD10C,0.150000*%
%ADD11C,0.120000*%
G04 APERTURE END LIST*
D10*
X162480666Y-76694819D02*
X162480666Y-77409104D01*
X162480666Y-77409104D02*
X162433047Y-77551961D01*
X162433047Y-77551961D02*
X162337809Y-77647200D01*
X162337809Y-77647200D02*
X162194952Y-77694819D01*
X162194952Y-77694819D02*
X162099714Y-77694819D01*
X163480666Y-77694819D02*
X162909238Y-77694819D01*
X163194952Y-77694819D02*
X163194952Y-76694819D01*
X163194952Y-76694819D02*
X163099714Y-76837676D01*
X163099714Y-76837676D02*
X163004476Y-76932914D01*
X163004476Y-76932914D02*
X162909238Y-76980533D01*
X139112714Y-69257104D02*
X139588904Y-69257104D01*
X139017476Y-69542819D02*
X139350809Y-68542819D01*
X139350809Y-68542819D02*
X139684142Y-69542819D01*
X140541285Y-69542819D02*
X139969857Y-69542819D01*
X140255571Y-69542819D02*
X140255571Y-68542819D01*
X140255571Y-68542819D02*
X140160333Y-68685676D01*
X140160333Y-68685676D02*
X140065095Y-68780914D01*
X140065095Y-68780914D02*
X139969857Y-68828533D01*
X138565095Y-109182819D02*
X138565095Y-109992342D01*
X138565095Y-109992342D02*
X138612714Y-110087580D01*
X138612714Y-110087580D02*
X138660333Y-110135200D01*
X138660333Y-110135200D02*
X138755571Y-110182819D01*
X138755571Y-110182819D02*
X138946047Y-110182819D01*
X138946047Y-110182819D02*
X139041285Y-110135200D01*
X139041285Y-110135200D02*
X139088904Y-110087580D01*
X139088904Y-110087580D02*
X139136523Y-109992342D01*
X139136523Y-109992342D02*
X139136523Y-109182819D01*
X139565095Y-110135200D02*
X139707952Y-110182819D01*
X139707952Y-110182819D02*
X139946047Y-110182819D01*
X139946047Y-110182819D02*
X140041285Y-110135200D01*
X140041285Y-110135200D02*
X140088904Y-110087580D01*
X140088904Y-110087580D02*
X140136523Y-109992342D01*
X140136523Y-109992342D02*
X140136523Y-109897104D01*
X140136523Y-109897104D02*
X140088904Y-109801866D01*
X140088904Y-109801866D02*
X140041285Y-109754247D01*
X140041285Y-109754247D02*
X139946047Y-109706628D01*
X139946047Y-109706628D02*
X139755571Y-109659009D01*
X139755571Y-109659009D02*
X139660333Y-109611390D01*
X139660333Y-109611390D02*
X139612714Y-109563771D01*
X139612714Y-109563771D02*
X139565095Y-109468533D01*
X139565095Y-109468533D02*
X139565095Y-109373295D01*
X139565095Y-109373295D02*
X139612714Y-109278057D01*
X139612714Y-109278057D02*
X139660333Y-109230438D01*
X139660333Y-109230438D02*
X139755571Y-109182819D01*
X139755571Y-109182819D02*
X139993666Y-109182819D01*
X139993666Y-109182819D02*
X140136523Y-109230438D01*
X140898428Y-109659009D02*
X141041285Y-109706628D01*
X141041285Y-109706628D02*
X141088904Y-109754247D01*
X141088904Y-109754247D02*
X141136523Y-109849485D01*
X141136523Y-109849485D02*
X141136523Y-109992342D01*
X141136523Y-109992342D02*
X141088904Y-110087580D01*
X141088904Y-110087580D02*
X141041285Y-110135200D01*
X141041285Y-110135200D02*
X140946047Y-110182819D01*
X140946047Y-110182819D02*
X140565095Y-110182819D01*
X140565095Y-110182819D02*
X140565095Y-109182819D01*
X140565095Y-109182819D02*
X140898428Y-109182819D01*
X140898428Y-109182819D02*
X140993666Y-109230438D01*
X140993666Y-109230438D02*
X141041285Y-109278057D01*
X141041285Y-109278057D02*
X141088904Y-109373295D01*
X141088904Y-109373295D02*
X141088904Y-109468533D01*
X141088904Y-109468533D02*
X141041285Y-109563771D01*
X141041285Y-109563771D02*
X140993666Y-109611390D01*
X140993666Y-109611390D02*
X140898428Y-109659009D01*
X140898428Y-109659009D02*
X140565095Y-109659009D01*
D11*
%TO.C,J1*%
X161484000Y-81280000D02*
X161484000Y-99120000D01*
X161484000Y-81280000D02*
X164144000Y-81280000D01*
X161484000Y-99120000D02*
X164144000Y-99120000D01*
X162814000Y-78680000D02*
X164144000Y-78680000D01*
X164144000Y-78680000D02*
X164144000Y-80010000D01*
X164144000Y-81280000D02*
X164144000Y-99120000D01*
%TO.C,A1*%
X130807000Y-70228000D02*
X130807000Y-72898000D01*
X130807000Y-75438000D02*
X130807000Y-113668000D01*
X130807000Y-113668000D02*
X135887000Y-113668000D01*
X133477000Y-72898000D02*
X130807000Y-72898000D01*
X133477000Y-75438000D02*
X130807000Y-75438000D01*
X133477000Y-75438000D02*
X133477000Y-72898000D01*
X133477000Y-75438000D02*
X133477000Y-110998000D01*
X133477000Y-110998000D02*
X130807000Y-110998000D01*
X135887000Y-105788000D02*
X143767000Y-105788000D01*
X135887000Y-116208000D02*
X135887000Y-105788000D01*
X143767000Y-105788000D02*
X143767000Y-116208000D01*
X143767000Y-116208000D02*
X135887000Y-116208000D01*
X146177000Y-72898000D02*
X146177000Y-110998000D01*
X146177000Y-72898000D02*
X148847000Y-72898000D01*
X146177000Y-110998000D02*
X148847000Y-110998000D01*
X148847000Y-70228000D02*
X130807000Y-70228000D01*
X148847000Y-113668000D02*
X143767000Y-113668000D01*
X148847000Y-113668000D02*
X148847000Y-70228000D01*
%TD*%
M02*
