%TF.GenerationSoftware,KiCad,Pcbnew,8.0.4*%
%TF.CreationDate,2024-09-23T10:04:25-03:00*%
%TF.ProjectId,IMU com arduino,494d5520-636f-46d2-9061-726475696e6f,rev?*%
%TF.SameCoordinates,Original*%
%TF.FileFunction,Copper,L2,Bot*%
%TF.FilePolarity,Positive*%
%FSLAX46Y46*%
G04 Gerber Fmt 4.6, Leading zero omitted, Abs format (unit mm)*
G04 Created by KiCad (PCBNEW 8.0.4) date 2024-09-23 10:04:25*
%MOMM*%
%LPD*%
G01*
G04 APERTURE LIST*
%TA.AperFunction,Conductor*%
%ADD10C,0.200000*%
%TD*%
%TA.AperFunction,ComponentPad*%
%ADD11O,1.700000X1.700000*%
%TD*%
%TA.AperFunction,ComponentPad*%
%ADD12R,1.700000X1.700000*%
%TD*%
%TA.AperFunction,ComponentPad*%
%ADD13R,1.600000X1.600000*%
%TD*%
%TA.AperFunction,ComponentPad*%
%ADD14O,1.600000X1.600000*%
%TD*%
%TA.AperFunction,Conductor*%
%ADD15C,0.400000*%
%TD*%
G04 APERTURE END LIST*
%TO.N,GND*%
D10*
X129413000Y-68199000D02*
X165862000Y-68199000D01*
X165862000Y-117642000D01*
X129413000Y-117642000D01*
X129413000Y-68199000D01*
%TD*%
D11*
%TO.P,J1,8,Pin_8*%
%TO.N,unconnected-(J1-Pin_8-Pad8)*%
X162687000Y-97790000D03*
%TO.P,J1,7,Pin_7*%
%TO.N,unconnected-(J1-Pin_7-Pad7)*%
X162687000Y-95250000D03*
%TO.P,J1,6,Pin_6*%
%TO.N,unconnected-(J1-Pin_6-Pad6)*%
X162687000Y-92710000D03*
%TO.P,J1,5,Pin_5*%
%TO.N,unconnected-(J1-Pin_5-Pad5)*%
X162687000Y-90170000D03*
%TO.P,J1,4,Pin_4*%
%TO.N,Net-(A1-A4)*%
X162687000Y-87630000D03*
%TO.P,J1,3,Pin_3*%
%TO.N,Net-(A1-A5)*%
X162687000Y-85090000D03*
%TO.P,J1,2,Pin_2*%
%TO.N,GND*%
X162687000Y-82550000D03*
D12*
%TO.P,J1,1,Pin_1*%
%TO.N,Net-(A1-+5V)*%
X162687000Y-80010000D03*
%TD*%
D13*
%TO.P,A1,1,D1/TX*%
%TO.N,unconnected-(A1-D1{slash}TX-Pad1)*%
X132207000Y-74168000D03*
D14*
%TO.P,A1,2,D0/RX*%
%TO.N,unconnected-(A1-D0{slash}RX-Pad2)*%
X132207000Y-76708000D03*
%TO.P,A1,3,~{RESET}*%
%TO.N,unconnected-(A1-~{RESET}-Pad3)*%
X132207000Y-79248000D03*
%TO.P,A1,4,GND*%
%TO.N,GND*%
X132207000Y-81788000D03*
%TO.P,A1,5,D2*%
%TO.N,unconnected-(A1-D2-Pad5)*%
X132207000Y-84328000D03*
%TO.P,A1,6,D3*%
%TO.N,unconnected-(A1-D3-Pad6)*%
X132207000Y-86868000D03*
%TO.P,A1,7,D4*%
%TO.N,unconnected-(A1-D4-Pad7)*%
X132207000Y-89408000D03*
%TO.P,A1,8,D5*%
%TO.N,unconnected-(A1-D5-Pad8)*%
X132207000Y-91948000D03*
%TO.P,A1,9,D6*%
%TO.N,unconnected-(A1-D6-Pad9)*%
X132207000Y-94488000D03*
%TO.P,A1,10,D7*%
%TO.N,unconnected-(A1-D7-Pad10)*%
X132207000Y-97028000D03*
%TO.P,A1,11,D8*%
%TO.N,unconnected-(A1-D8-Pad11)*%
X132207000Y-99568000D03*
%TO.P,A1,12,D9*%
%TO.N,unconnected-(A1-D9-Pad12)*%
X132207000Y-102108000D03*
%TO.P,A1,13,D10*%
%TO.N,unconnected-(A1-D10-Pad13)*%
X132207000Y-104648000D03*
%TO.P,A1,14,D11*%
%TO.N,unconnected-(A1-D11-Pad14)*%
X132207000Y-107188000D03*
%TO.P,A1,15,D12*%
%TO.N,unconnected-(A1-D12-Pad15)*%
X132207000Y-109728000D03*
%TO.P,A1,16,D13*%
%TO.N,unconnected-(A1-D13-Pad16)*%
X147447000Y-109728000D03*
%TO.P,A1,17,3V3*%
%TO.N,unconnected-(A1-3V3-Pad17)*%
X147447000Y-107188000D03*
%TO.P,A1,18,AREF*%
%TO.N,unconnected-(A1-AREF-Pad18)*%
X147447000Y-104648000D03*
%TO.P,A1,19,A0*%
%TO.N,unconnected-(A1-A0-Pad19)*%
X147447000Y-102108000D03*
%TO.P,A1,20,A1*%
%TO.N,unconnected-(A1-A1-Pad20)*%
X147447000Y-99568000D03*
%TO.P,A1,21,A2*%
%TO.N,unconnected-(A1-A2-Pad21)*%
X147447000Y-97028000D03*
%TO.P,A1,22,A3*%
%TO.N,unconnected-(A1-A3-Pad22)*%
X147447000Y-94488000D03*
%TO.P,A1,23,A4*%
%TO.N,Net-(A1-A4)*%
X147447000Y-91948000D03*
%TO.P,A1,24,A5*%
%TO.N,Net-(A1-A5)*%
X147447000Y-89408000D03*
%TO.P,A1,25,A6*%
%TO.N,unconnected-(A1-A6-Pad25)*%
X147447000Y-86868000D03*
%TO.P,A1,26,A7*%
%TO.N,unconnected-(A1-A7-Pad26)*%
X147447000Y-84328000D03*
%TO.P,A1,27,+5V*%
%TO.N,Net-(A1-+5V)*%
X147447000Y-81788000D03*
%TO.P,A1,28,~{RESET}*%
%TO.N,unconnected-(A1-~{RESET}-Pad28)*%
X147447000Y-79248000D03*
%TO.P,A1,29,GND*%
%TO.N,unconnected-(A1-GND-Pad29)*%
X147447000Y-76708000D03*
%TO.P,A1,30,VIN*%
%TO.N,unconnected-(A1-VIN-Pad30)*%
X147447000Y-74168000D03*
%TD*%
D15*
%TO.N,Net-(A1-A5)*%
X154813000Y-85090000D02*
X162687000Y-85090000D01*
X150495000Y-89408000D02*
X154813000Y-85090000D01*
X147447000Y-89408000D02*
X150495000Y-89408000D01*
D10*
%TO.N,Net-(A1-+5V)*%
X162433000Y-80264000D02*
X162687000Y-80010000D01*
D15*
X148971000Y-80264000D02*
X162433000Y-80264000D01*
X147447000Y-81788000D02*
X148971000Y-80264000D01*
%TO.N,Net-(A1-A4)*%
X155702000Y-87630000D02*
X162687000Y-87630000D01*
X151384000Y-91948000D02*
X155702000Y-87630000D01*
X147447000Y-91948000D02*
X151384000Y-91948000D01*
%TD*%
%TA.AperFunction,Conductor*%
%TO.N,GND*%
G36*
X161171708Y-81234185D02*
G01*
X161210207Y-81273402D01*
X161244288Y-81328656D01*
X161368344Y-81452712D01*
X161517666Y-81544814D01*
X161641377Y-81585807D01*
X161698821Y-81625580D01*
X161725644Y-81690095D01*
X161713329Y-81758871D01*
X161703947Y-81774636D01*
X161600335Y-81922608D01*
X161600333Y-81922612D01*
X161507896Y-82120842D01*
X161500083Y-82149999D01*
X161500084Y-82150000D01*
X162379894Y-82150000D01*
X162286901Y-82242993D01*
X162221075Y-82357007D01*
X162187000Y-82484174D01*
X162187000Y-82615826D01*
X162221075Y-82742993D01*
X162286901Y-82857007D01*
X162379894Y-82950000D01*
X161500084Y-82950000D01*
X161507896Y-82979157D01*
X161600333Y-83177387D01*
X161725787Y-83356554D01*
X161880440Y-83511207D01*
X161883440Y-83513724D01*
X161922146Y-83571892D01*
X161923260Y-83641753D01*
X161886427Y-83701126D01*
X161868531Y-83714446D01*
X161743346Y-83791160D01*
X161743343Y-83791161D01*
X161551776Y-83954775D01*
X161496615Y-84019361D01*
X161431131Y-84096032D01*
X161372627Y-84134225D01*
X161336843Y-84139500D01*
X154719378Y-84139500D01*
X154535756Y-84176025D01*
X154535748Y-84176027D01*
X154406454Y-84229583D01*
X154362771Y-84247676D01*
X154362762Y-84247681D01*
X154207091Y-84351698D01*
X154207087Y-84351701D01*
X150137609Y-88421181D01*
X150076286Y-88454666D01*
X150049928Y-88457500D01*
X148731402Y-88457500D01*
X148664363Y-88437815D01*
X148637115Y-88414034D01*
X148546759Y-88308241D01*
X148546756Y-88308239D01*
X148546755Y-88308237D01*
X148457832Y-88232290D01*
X148419638Y-88173784D01*
X148419139Y-88103916D01*
X148456493Y-88044869D01*
X148457832Y-88043710D01*
X148489276Y-88016853D01*
X148546759Y-87967759D01*
X148705259Y-87782179D01*
X148832777Y-87574089D01*
X148926172Y-87348612D01*
X148983146Y-87111302D01*
X149002294Y-86868000D01*
X148983146Y-86624698D01*
X148926172Y-86387388D01*
X148900006Y-86324217D01*
X148832777Y-86161910D01*
X148705262Y-85953826D01*
X148705261Y-85953823D01*
X148546756Y-85768238D01*
X148457832Y-85692290D01*
X148419638Y-85633784D01*
X148419139Y-85563916D01*
X148456493Y-85504869D01*
X148457832Y-85503710D01*
X148489276Y-85476853D01*
X148546759Y-85427759D01*
X148705259Y-85242179D01*
X148832777Y-85034089D01*
X148926172Y-84808612D01*
X148983146Y-84571302D01*
X149002294Y-84328000D01*
X148983146Y-84084698D01*
X148926172Y-83847388D01*
X148926169Y-83847380D01*
X148832777Y-83621910D01*
X148705262Y-83413826D01*
X148705261Y-83413823D01*
X148546756Y-83228238D01*
X148457832Y-83152290D01*
X148419638Y-83093784D01*
X148419139Y-83023916D01*
X148456493Y-82964869D01*
X148457832Y-82963710D01*
X148525339Y-82906053D01*
X148546759Y-82887759D01*
X148705259Y-82702179D01*
X148832777Y-82494089D01*
X148926172Y-82268612D01*
X148983146Y-82031302D01*
X149002294Y-81788000D01*
X148991378Y-81649303D01*
X149005742Y-81580927D01*
X149027315Y-81551894D01*
X149328391Y-81250819D01*
X149389714Y-81217334D01*
X149416072Y-81214500D01*
X161104669Y-81214500D01*
X161171708Y-81234185D01*
G37*
%TD.AperFunction*%
%TA.AperFunction,Conductor*%
G36*
X164789039Y-69234685D02*
G01*
X164834794Y-69287489D01*
X164846000Y-69339000D01*
X164846000Y-116589000D01*
X164826315Y-116656039D01*
X164773511Y-116701794D01*
X164722000Y-116713000D01*
X130426000Y-116713000D01*
X130358961Y-116693315D01*
X130313206Y-116640511D01*
X130302000Y-116589000D01*
X130302000Y-76708000D01*
X130651706Y-76708000D01*
X130670853Y-76951297D01*
X130727830Y-77188619D01*
X130821222Y-77414089D01*
X130948737Y-77622173D01*
X130948738Y-77622176D01*
X130948741Y-77622179D01*
X131107241Y-77807759D01*
X131175250Y-77865844D01*
X131196168Y-77883710D01*
X131234361Y-77942217D01*
X131234859Y-78012085D01*
X131197505Y-78071131D01*
X131196168Y-78072290D01*
X131107241Y-78148241D01*
X130948738Y-78333823D01*
X130948737Y-78333826D01*
X130821222Y-78541910D01*
X130727830Y-78767380D01*
X130670853Y-79004702D01*
X130651706Y-79248000D01*
X130670853Y-79491297D01*
X130727830Y-79728619D01*
X130821222Y-79954089D01*
X130948737Y-80162173D01*
X130948738Y-80162176D01*
X130948741Y-80162179D01*
X131107241Y-80347759D01*
X131292821Y-80506259D01*
X131475388Y-80618136D01*
X131522261Y-80669946D01*
X131533684Y-80738876D01*
X131506027Y-80803039D01*
X131485288Y-80822783D01*
X131485316Y-80822821D01*
X131480739Y-80826277D01*
X131316391Y-80976099D01*
X131182368Y-81153574D01*
X131083239Y-81352651D01*
X131083236Y-81352657D01*
X131073181Y-81387999D01*
X131073181Y-81388000D01*
X131899894Y-81388000D01*
X131806901Y-81480993D01*
X131741075Y-81595007D01*
X131707000Y-81722174D01*
X131707000Y-81853826D01*
X131741075Y-81980993D01*
X131806901Y-82095007D01*
X131899894Y-82188000D01*
X131073181Y-82188000D01*
X131083236Y-82223342D01*
X131083239Y-82223348D01*
X131182368Y-82422425D01*
X131316391Y-82599900D01*
X131480739Y-82749722D01*
X131485316Y-82753179D01*
X131483710Y-82755304D01*
X131522732Y-82799209D01*
X131533546Y-82868236D01*
X131505325Y-82932153D01*
X131475386Y-82957864D01*
X131292826Y-83069737D01*
X131292823Y-83069738D01*
X131107241Y-83228241D01*
X130948738Y-83413823D01*
X130948737Y-83413826D01*
X130821222Y-83621910D01*
X130727830Y-83847380D01*
X130670853Y-84084702D01*
X130651706Y-84328000D01*
X130670853Y-84571297D01*
X130727830Y-84808619D01*
X130821222Y-85034089D01*
X130948737Y-85242173D01*
X130948738Y-85242176D01*
X130948741Y-85242179D01*
X131107241Y-85427759D01*
X131175250Y-85485844D01*
X131196168Y-85503710D01*
X131234361Y-85562217D01*
X131234859Y-85632085D01*
X131197505Y-85691131D01*
X131196168Y-85692290D01*
X131107241Y-85768241D01*
X130948738Y-85953823D01*
X130948737Y-85953826D01*
X130821222Y-86161910D01*
X130727830Y-86387380D01*
X130670853Y-86624702D01*
X130651706Y-86868000D01*
X130670853Y-87111297D01*
X130727830Y-87348619D01*
X130821222Y-87574089D01*
X130948737Y-87782173D01*
X130948738Y-87782176D01*
X130948741Y-87782179D01*
X131107241Y-87967759D01*
X131175250Y-88025844D01*
X131196168Y-88043710D01*
X131234361Y-88102217D01*
X131234859Y-88172085D01*
X131197505Y-88231131D01*
X131196168Y-88232290D01*
X131107241Y-88308241D01*
X130948738Y-88493823D01*
X130948737Y-88493826D01*
X130821222Y-88701910D01*
X130727830Y-88927380D01*
X130670853Y-89164702D01*
X130651706Y-89408000D01*
X130670853Y-89651297D01*
X130727830Y-89888619D01*
X130821222Y-90114089D01*
X130948737Y-90322173D01*
X130948738Y-90322176D01*
X130948741Y-90322179D01*
X131107241Y-90507759D01*
X131175250Y-90565844D01*
X131196168Y-90583710D01*
X131234361Y-90642217D01*
X131234859Y-90712085D01*
X131197505Y-90771131D01*
X131196168Y-90772290D01*
X131107241Y-90848241D01*
X130948738Y-91033823D01*
X130948737Y-91033826D01*
X130821222Y-91241910D01*
X130727830Y-91467380D01*
X130670853Y-91704702D01*
X130651706Y-91948000D01*
X130670853Y-92191297D01*
X130727830Y-92428619D01*
X130821222Y-92654089D01*
X130948737Y-92862173D01*
X130948738Y-92862176D01*
X130948741Y-92862179D01*
X131107241Y-93047759D01*
X131175250Y-93105844D01*
X131196168Y-93123710D01*
X131234361Y-93182217D01*
X131234859Y-93252085D01*
X131197505Y-93311131D01*
X131196168Y-93312290D01*
X131107241Y-93388241D01*
X130948738Y-93573823D01*
X130948737Y-93573826D01*
X130821222Y-93781910D01*
X130727830Y-94007380D01*
X130670853Y-94244702D01*
X130651706Y-94488000D01*
X130670853Y-94731297D01*
X130727830Y-94968619D01*
X130821222Y-95194089D01*
X130948737Y-95402173D01*
X130948738Y-95402176D01*
X130948741Y-95402179D01*
X131107241Y-95587759D01*
X131175250Y-95645844D01*
X131196168Y-95663710D01*
X131234361Y-95722217D01*
X131234859Y-95792085D01*
X131197505Y-95851131D01*
X131196168Y-95852290D01*
X131107241Y-95928241D01*
X130948738Y-96113823D01*
X130948737Y-96113826D01*
X130821222Y-96321910D01*
X130727830Y-96547380D01*
X130670853Y-96784702D01*
X130651706Y-97028000D01*
X130670853Y-97271297D01*
X130727830Y-97508619D01*
X130821222Y-97734089D01*
X130948737Y-97942173D01*
X130948738Y-97942176D01*
X130948741Y-97942179D01*
X131107241Y-98127759D01*
X131175250Y-98185844D01*
X131196168Y-98203710D01*
X131234361Y-98262217D01*
X131234859Y-98332085D01*
X131197505Y-98391131D01*
X131196168Y-98392290D01*
X131107241Y-98468241D01*
X130948738Y-98653823D01*
X130948737Y-98653826D01*
X130821222Y-98861910D01*
X130727830Y-99087380D01*
X130670853Y-99324702D01*
X130651706Y-99568000D01*
X130670853Y-99811297D01*
X130727830Y-100048619D01*
X130821222Y-100274089D01*
X130948737Y-100482173D01*
X130948738Y-100482176D01*
X130948741Y-100482179D01*
X131107241Y-100667759D01*
X131175250Y-100725844D01*
X131196168Y-100743710D01*
X131234361Y-100802217D01*
X131234859Y-100872085D01*
X131197505Y-100931131D01*
X131196168Y-100932290D01*
X131107241Y-101008241D01*
X130948738Y-101193823D01*
X130948737Y-101193826D01*
X130821222Y-101401910D01*
X130727830Y-101627380D01*
X130670853Y-101864702D01*
X130651706Y-102108000D01*
X130670853Y-102351297D01*
X130727830Y-102588619D01*
X130821222Y-102814089D01*
X130948737Y-103022173D01*
X130948738Y-103022176D01*
X130948741Y-103022179D01*
X131107241Y-103207759D01*
X131175250Y-103265844D01*
X131196168Y-103283710D01*
X131234361Y-103342217D01*
X131234859Y-103412085D01*
X131197505Y-103471131D01*
X131196168Y-103472290D01*
X131107241Y-103548241D01*
X130948738Y-103733823D01*
X130948737Y-103733826D01*
X130821222Y-103941910D01*
X130727830Y-104167380D01*
X130670853Y-104404702D01*
X130651706Y-104648000D01*
X130670853Y-104891297D01*
X130727830Y-105128619D01*
X130821222Y-105354089D01*
X130948737Y-105562173D01*
X130948738Y-105562176D01*
X130948741Y-105562179D01*
X131107241Y-105747759D01*
X131175250Y-105805844D01*
X131196168Y-105823710D01*
X131234361Y-105882217D01*
X131234859Y-105952085D01*
X131197505Y-106011131D01*
X131196168Y-106012290D01*
X131107241Y-106088241D01*
X130948738Y-106273823D01*
X130948737Y-106273826D01*
X130821222Y-106481910D01*
X130727830Y-106707380D01*
X130670853Y-106944702D01*
X130651706Y-107188000D01*
X130670853Y-107431297D01*
X130727830Y-107668619D01*
X130821222Y-107894089D01*
X130948737Y-108102173D01*
X130948738Y-108102176D01*
X130948741Y-108102179D01*
X131107241Y-108287759D01*
X131175250Y-108345844D01*
X131196168Y-108363710D01*
X131234361Y-108422217D01*
X131234859Y-108492085D01*
X131197505Y-108551131D01*
X131196168Y-108552290D01*
X131107241Y-108628241D01*
X130948738Y-108813823D01*
X130948737Y-108813826D01*
X130821222Y-109021910D01*
X130727830Y-109247380D01*
X130670853Y-109484702D01*
X130651706Y-109728000D01*
X130670853Y-109971297D01*
X130727830Y-110208619D01*
X130821222Y-110434089D01*
X130948737Y-110642173D01*
X130948738Y-110642176D01*
X130948741Y-110642179D01*
X131107241Y-110827759D01*
X131250897Y-110950453D01*
X131292823Y-110986261D01*
X131292826Y-110986262D01*
X131500910Y-111113777D01*
X131726381Y-111207169D01*
X131726378Y-111207169D01*
X131726384Y-111207170D01*
X131726388Y-111207172D01*
X131963698Y-111264146D01*
X132207000Y-111283294D01*
X132450302Y-111264146D01*
X132687612Y-111207172D01*
X132913089Y-111113777D01*
X133121179Y-110986259D01*
X133306759Y-110827759D01*
X133465259Y-110642179D01*
X133592777Y-110434089D01*
X133686172Y-110208612D01*
X133743146Y-109971302D01*
X133762294Y-109728000D01*
X133743146Y-109484698D01*
X133686172Y-109247388D01*
X133592777Y-109021911D01*
X133592777Y-109021910D01*
X133465262Y-108813826D01*
X133465261Y-108813823D01*
X133306756Y-108628238D01*
X133217832Y-108552290D01*
X133179638Y-108493784D01*
X133179139Y-108423916D01*
X133216493Y-108364869D01*
X133217832Y-108363710D01*
X133249276Y-108336853D01*
X133306759Y-108287759D01*
X133465259Y-108102179D01*
X133592777Y-107894089D01*
X133686172Y-107668612D01*
X133743146Y-107431302D01*
X133762294Y-107188000D01*
X133743146Y-106944698D01*
X133686172Y-106707388D01*
X133592777Y-106481911D01*
X133592777Y-106481910D01*
X133465262Y-106273826D01*
X133465261Y-106273823D01*
X133306756Y-106088238D01*
X133217832Y-106012290D01*
X133179638Y-105953784D01*
X133179139Y-105883916D01*
X133216493Y-105824869D01*
X133217832Y-105823710D01*
X133249276Y-105796853D01*
X133306759Y-105747759D01*
X133465259Y-105562179D01*
X133592777Y-105354089D01*
X133686172Y-105128612D01*
X133743146Y-104891302D01*
X133762294Y-104648000D01*
X133743146Y-104404698D01*
X133686172Y-104167388D01*
X133592777Y-103941911D01*
X133592777Y-103941910D01*
X133465262Y-103733826D01*
X133465261Y-103733823D01*
X133306756Y-103548238D01*
X133217832Y-103472290D01*
X133179638Y-103413784D01*
X133179139Y-103343916D01*
X133216493Y-103284869D01*
X133217832Y-103283710D01*
X133249276Y-103256853D01*
X133306759Y-103207759D01*
X133465259Y-103022179D01*
X133592777Y-102814089D01*
X133686172Y-102588612D01*
X133743146Y-102351302D01*
X133762294Y-102108000D01*
X133743146Y-101864698D01*
X133686172Y-101627388D01*
X133592777Y-101401911D01*
X133592777Y-101401910D01*
X133465262Y-101193826D01*
X133465261Y-101193823D01*
X133306756Y-101008238D01*
X133217832Y-100932290D01*
X133179638Y-100873784D01*
X133179139Y-100803916D01*
X133216493Y-100744869D01*
X133217832Y-100743710D01*
X133249276Y-100716853D01*
X133306759Y-100667759D01*
X133465259Y-100482179D01*
X133592777Y-100274089D01*
X133686172Y-100048612D01*
X133743146Y-99811302D01*
X133762294Y-99568000D01*
X133743146Y-99324698D01*
X133686172Y-99087388D01*
X133592777Y-98861911D01*
X133592777Y-98861910D01*
X133465262Y-98653826D01*
X133465261Y-98653823D01*
X133306756Y-98468238D01*
X133217832Y-98392290D01*
X133179638Y-98333784D01*
X133179139Y-98263916D01*
X133216493Y-98204869D01*
X133217832Y-98203710D01*
X133249276Y-98176853D01*
X133306759Y-98127759D01*
X133465259Y-97942179D01*
X133592777Y-97734089D01*
X133686172Y-97508612D01*
X133743146Y-97271302D01*
X133762294Y-97028000D01*
X133743146Y-96784698D01*
X133686172Y-96547388D01*
X133660006Y-96484217D01*
X133592777Y-96321910D01*
X133465262Y-96113826D01*
X133465261Y-96113823D01*
X133306756Y-95928238D01*
X133217832Y-95852290D01*
X133179638Y-95793784D01*
X133179139Y-95723916D01*
X133216493Y-95664869D01*
X133217832Y-95663710D01*
X133249276Y-95636853D01*
X133306759Y-95587759D01*
X133465259Y-95402179D01*
X133592777Y-95194089D01*
X133686172Y-94968612D01*
X133743146Y-94731302D01*
X133762294Y-94488000D01*
X133743146Y-94244698D01*
X133686172Y-94007388D01*
X133660006Y-93944217D01*
X133592777Y-93781910D01*
X133465262Y-93573826D01*
X133465261Y-93573823D01*
X133306756Y-93388238D01*
X133217832Y-93312290D01*
X133179638Y-93253784D01*
X133179139Y-93183916D01*
X133216493Y-93124869D01*
X133217832Y-93123710D01*
X133306755Y-93047762D01*
X133306759Y-93047759D01*
X133465259Y-92862179D01*
X133592777Y-92654089D01*
X133686172Y-92428612D01*
X133743146Y-92191302D01*
X133762294Y-91948000D01*
X133743146Y-91704698D01*
X133686172Y-91467388D01*
X133660006Y-91404217D01*
X133592777Y-91241910D01*
X133465262Y-91033826D01*
X133465261Y-91033823D01*
X133306756Y-90848238D01*
X133217832Y-90772290D01*
X133179638Y-90713784D01*
X133179139Y-90643916D01*
X133216493Y-90584869D01*
X133217832Y-90583710D01*
X133306755Y-90507762D01*
X133306759Y-90507759D01*
X133465259Y-90322179D01*
X133592777Y-90114089D01*
X133686172Y-89888612D01*
X133743146Y-89651302D01*
X133762294Y-89408000D01*
X133743146Y-89164698D01*
X133686172Y-88927388D01*
X133660006Y-88864217D01*
X133592777Y-88701910D01*
X133465262Y-88493826D01*
X133465261Y-88493823D01*
X133306756Y-88308238D01*
X133217832Y-88232290D01*
X133179638Y-88173784D01*
X133179139Y-88103916D01*
X133216493Y-88044869D01*
X133217832Y-88043710D01*
X133249276Y-88016853D01*
X133306759Y-87967759D01*
X133465259Y-87782179D01*
X133592777Y-87574089D01*
X133686172Y-87348612D01*
X133743146Y-87111302D01*
X133762294Y-86868000D01*
X133743146Y-86624698D01*
X133686172Y-86387388D01*
X133660006Y-86324217D01*
X133592777Y-86161910D01*
X133465262Y-85953826D01*
X133465261Y-85953823D01*
X133306756Y-85768238D01*
X133217832Y-85692290D01*
X133179638Y-85633784D01*
X133179139Y-85563916D01*
X133216493Y-85504869D01*
X133217832Y-85503710D01*
X133249276Y-85476853D01*
X133306759Y-85427759D01*
X133465259Y-85242179D01*
X133592777Y-85034089D01*
X133686172Y-84808612D01*
X133743146Y-84571302D01*
X133762294Y-84328000D01*
X133743146Y-84084698D01*
X133686172Y-83847388D01*
X133686169Y-83847380D01*
X133592777Y-83621910D01*
X133465262Y-83413826D01*
X133465261Y-83413823D01*
X133416347Y-83356552D01*
X133306759Y-83228241D01*
X133147341Y-83092085D01*
X133121176Y-83069738D01*
X133121174Y-83069737D01*
X132938613Y-82957864D01*
X132891738Y-82906053D01*
X132880315Y-82837123D01*
X132907972Y-82772960D01*
X132929888Y-82754773D01*
X132928684Y-82753179D01*
X132933260Y-82749722D01*
X133097608Y-82599900D01*
X133231631Y-82422425D01*
X133330760Y-82223348D01*
X133330763Y-82223342D01*
X133340818Y-82188000D01*
X132514106Y-82188000D01*
X132607099Y-82095007D01*
X132672925Y-81980993D01*
X132707000Y-81853826D01*
X132707000Y-81722174D01*
X132672925Y-81595007D01*
X132607099Y-81480993D01*
X132514106Y-81388000D01*
X133340819Y-81388000D01*
X133340818Y-81387999D01*
X133330763Y-81352657D01*
X133330760Y-81352651D01*
X133231631Y-81153574D01*
X133097608Y-80976099D01*
X132933260Y-80826277D01*
X132928684Y-80822821D01*
X132929824Y-80821310D01*
X132889759Y-80773471D01*
X132880979Y-80704155D01*
X132911068Y-80641096D01*
X132938608Y-80618138D01*
X133121179Y-80506259D01*
X133306759Y-80347759D01*
X133465259Y-80162179D01*
X133592777Y-79954089D01*
X133686172Y-79728612D01*
X133743146Y-79491302D01*
X133762294Y-79248000D01*
X133743146Y-79004698D01*
X133686172Y-78767388D01*
X133603289Y-78567289D01*
X133592777Y-78541910D01*
X133465262Y-78333826D01*
X133465261Y-78333823D01*
X133306756Y-78148238D01*
X133217832Y-78072290D01*
X133179638Y-78013784D01*
X133179139Y-77943916D01*
X133216493Y-77884869D01*
X133217832Y-77883710D01*
X133249276Y-77856853D01*
X133306759Y-77807759D01*
X133465259Y-77622179D01*
X133592777Y-77414089D01*
X133686172Y-77188612D01*
X133743146Y-76951302D01*
X133762294Y-76708000D01*
X133743146Y-76464698D01*
X133686172Y-76227388D01*
X133592777Y-76001911D01*
X133592777Y-76001910D01*
X133465262Y-75793826D01*
X133465261Y-75793824D01*
X133465260Y-75793823D01*
X133465259Y-75793821D01*
X133432459Y-75755417D01*
X133403889Y-75691658D01*
X133414326Y-75622572D01*
X133460457Y-75570096D01*
X133461599Y-75569381D01*
X133475656Y-75560712D01*
X133599712Y-75436656D01*
X133691814Y-75287334D01*
X133746999Y-75120797D01*
X133757500Y-75018009D01*
X133757499Y-74168000D01*
X145891706Y-74168000D01*
X145910853Y-74411297D01*
X145967830Y-74648619D01*
X146061222Y-74874089D01*
X146188737Y-75082173D01*
X146188738Y-75082176D01*
X146242449Y-75145063D01*
X146347241Y-75267759D01*
X146415250Y-75325844D01*
X146436168Y-75343710D01*
X146474361Y-75402217D01*
X146474859Y-75472085D01*
X146437505Y-75531131D01*
X146436168Y-75532290D01*
X146347241Y-75608241D01*
X146188738Y-75793823D01*
X146188737Y-75793826D01*
X146061222Y-76001910D01*
X145967830Y-76227380D01*
X145910853Y-76464702D01*
X145891706Y-76708000D01*
X145910853Y-76951297D01*
X145967830Y-77188619D01*
X146061222Y-77414089D01*
X146188737Y-77622173D01*
X146188738Y-77622176D01*
X146188741Y-77622179D01*
X146347241Y-77807759D01*
X146415250Y-77865844D01*
X146436168Y-77883710D01*
X146474361Y-77942217D01*
X146474859Y-78012085D01*
X146437505Y-78071131D01*
X146436168Y-78072290D01*
X146347241Y-78148241D01*
X146188738Y-78333823D01*
X146188737Y-78333826D01*
X146061222Y-78541910D01*
X145967830Y-78767380D01*
X145910853Y-79004702D01*
X145891706Y-79248000D01*
X145910853Y-79491297D01*
X145967830Y-79728619D01*
X146061222Y-79954089D01*
X146188737Y-80162173D01*
X146188738Y-80162176D01*
X146188741Y-80162179D01*
X146347241Y-80347759D01*
X146415250Y-80405844D01*
X146436168Y-80423710D01*
X146474361Y-80482217D01*
X146474859Y-80552085D01*
X146437505Y-80611131D01*
X146436168Y-80612290D01*
X146347241Y-80688241D01*
X146188738Y-80873823D01*
X146188737Y-80873826D01*
X146061222Y-81081910D01*
X145967830Y-81307380D01*
X145967828Y-81307387D01*
X145967828Y-81307388D01*
X145932939Y-81452710D01*
X145910853Y-81544702D01*
X145891706Y-81788000D01*
X145910853Y-82031297D01*
X145910853Y-82031300D01*
X145910854Y-82031302D01*
X145961677Y-82242993D01*
X145967830Y-82268619D01*
X146061222Y-82494089D01*
X146188737Y-82702173D01*
X146188738Y-82702176D01*
X146188741Y-82702179D01*
X146347241Y-82887759D01*
X146368661Y-82906053D01*
X146436168Y-82963710D01*
X146474361Y-83022217D01*
X146474859Y-83092085D01*
X146437505Y-83151131D01*
X146436168Y-83152290D01*
X146347241Y-83228241D01*
X146188738Y-83413823D01*
X146188737Y-83413826D01*
X146061222Y-83621910D01*
X145967830Y-83847380D01*
X145910853Y-84084702D01*
X145891706Y-84328000D01*
X145910853Y-84571297D01*
X145967830Y-84808619D01*
X146061222Y-85034089D01*
X146188737Y-85242173D01*
X146188738Y-85242176D01*
X146188741Y-85242179D01*
X146347241Y-85427759D01*
X146415250Y-85485844D01*
X146436168Y-85503710D01*
X146474361Y-85562217D01*
X146474859Y-85632085D01*
X146437505Y-85691131D01*
X146436168Y-85692290D01*
X146347241Y-85768241D01*
X146188738Y-85953823D01*
X146188737Y-85953826D01*
X146061222Y-86161910D01*
X145967830Y-86387380D01*
X145910853Y-86624702D01*
X145891706Y-86868000D01*
X145910853Y-87111297D01*
X145967830Y-87348619D01*
X146061222Y-87574089D01*
X146188737Y-87782173D01*
X146188738Y-87782176D01*
X146188741Y-87782179D01*
X146347241Y-87967759D01*
X146415250Y-88025844D01*
X146436168Y-88043710D01*
X146474361Y-88102217D01*
X146474859Y-88172085D01*
X146437505Y-88231131D01*
X146436168Y-88232290D01*
X146347241Y-88308241D01*
X146188738Y-88493823D01*
X146188737Y-88493826D01*
X146061222Y-88701910D01*
X145967830Y-88927380D01*
X145910853Y-89164702D01*
X145891706Y-89408000D01*
X145910853Y-89651297D01*
X145967830Y-89888619D01*
X146061222Y-90114089D01*
X146188737Y-90322173D01*
X146188738Y-90322176D01*
X146188741Y-90322179D01*
X146347241Y-90507759D01*
X146415250Y-90565844D01*
X146436168Y-90583710D01*
X146474361Y-90642217D01*
X146474859Y-90712085D01*
X146437505Y-90771131D01*
X146436168Y-90772290D01*
X146347241Y-90848241D01*
X146188738Y-91033823D01*
X146188737Y-91033826D01*
X146061222Y-91241910D01*
X145967830Y-91467380D01*
X145910853Y-91704702D01*
X145891706Y-91948000D01*
X145910853Y-92191297D01*
X145967830Y-92428619D01*
X146061222Y-92654089D01*
X146188737Y-92862173D01*
X146188738Y-92862176D01*
X146188741Y-92862179D01*
X146347241Y-93047759D01*
X146415250Y-93105844D01*
X146436168Y-93123710D01*
X146474361Y-93182217D01*
X146474859Y-93252085D01*
X146437505Y-93311131D01*
X146436168Y-93312290D01*
X146347241Y-93388241D01*
X146188738Y-93573823D01*
X146188737Y-93573826D01*
X146061222Y-93781910D01*
X145967830Y-94007380D01*
X145910853Y-94244702D01*
X145891706Y-94488000D01*
X145910853Y-94731297D01*
X145967830Y-94968619D01*
X146061222Y-95194089D01*
X146188737Y-95402173D01*
X146188738Y-95402176D01*
X146188741Y-95402179D01*
X146347241Y-95587759D01*
X146415250Y-95645844D01*
X146436168Y-95663710D01*
X146474361Y-95722217D01*
X146474859Y-95792085D01*
X146437505Y-95851131D01*
X146436168Y-95852290D01*
X146347241Y-95928241D01*
X146188738Y-96113823D01*
X146188737Y-96113826D01*
X146061222Y-96321910D01*
X145967830Y-96547380D01*
X145910853Y-96784702D01*
X145891706Y-97028000D01*
X145910853Y-97271297D01*
X145967830Y-97508619D01*
X146061222Y-97734089D01*
X146188737Y-97942173D01*
X146188738Y-97942176D01*
X146188741Y-97942179D01*
X146347241Y-98127759D01*
X146415250Y-98185844D01*
X146436168Y-98203710D01*
X146474361Y-98262217D01*
X146474859Y-98332085D01*
X146437505Y-98391131D01*
X146436168Y-98392290D01*
X146347241Y-98468241D01*
X146188738Y-98653823D01*
X146188737Y-98653826D01*
X146061222Y-98861910D01*
X145967830Y-99087380D01*
X145910853Y-99324702D01*
X145891706Y-99568000D01*
X145910853Y-99811297D01*
X145967830Y-100048619D01*
X146061222Y-100274089D01*
X146188737Y-100482173D01*
X146188738Y-100482176D01*
X146188741Y-100482179D01*
X146347241Y-100667759D01*
X146415250Y-100725844D01*
X146436168Y-100743710D01*
X146474361Y-100802217D01*
X146474859Y-100872085D01*
X146437505Y-100931131D01*
X146436168Y-100932290D01*
X146347241Y-101008241D01*
X146188738Y-101193823D01*
X146188737Y-101193826D01*
X146061222Y-101401910D01*
X145967830Y-101627380D01*
X145910853Y-101864702D01*
X145891706Y-102108000D01*
X145910853Y-102351297D01*
X145967830Y-102588619D01*
X146061222Y-102814089D01*
X146188737Y-103022173D01*
X146188738Y-103022176D01*
X146188741Y-103022179D01*
X146347241Y-103207759D01*
X146415250Y-103265844D01*
X146436168Y-103283710D01*
X146474361Y-103342217D01*
X146474859Y-103412085D01*
X146437505Y-103471131D01*
X146436168Y-103472290D01*
X146347241Y-103548241D01*
X146188738Y-103733823D01*
X146188737Y-103733826D01*
X146061222Y-103941910D01*
X145967830Y-104167380D01*
X145910853Y-104404702D01*
X145891706Y-104648000D01*
X145910853Y-104891297D01*
X145967830Y-105128619D01*
X146061222Y-105354089D01*
X146188737Y-105562173D01*
X146188738Y-105562176D01*
X146188741Y-105562179D01*
X146347241Y-105747759D01*
X146415250Y-105805844D01*
X146436168Y-105823710D01*
X146474361Y-105882217D01*
X146474859Y-105952085D01*
X146437505Y-106011131D01*
X146436168Y-106012290D01*
X146347241Y-106088241D01*
X146188738Y-106273823D01*
X146188737Y-106273826D01*
X146061222Y-106481910D01*
X145967830Y-106707380D01*
X145910853Y-106944702D01*
X145891706Y-107188000D01*
X145910853Y-107431297D01*
X145967830Y-107668619D01*
X146061222Y-107894089D01*
X146188737Y-108102173D01*
X146188738Y-108102176D01*
X146188741Y-108102179D01*
X146347241Y-108287759D01*
X146415250Y-108345844D01*
X146436168Y-108363710D01*
X146474361Y-108422217D01*
X146474859Y-108492085D01*
X146437505Y-108551131D01*
X146436168Y-108552290D01*
X146347241Y-108628241D01*
X146188738Y-108813823D01*
X146188737Y-108813826D01*
X146061222Y-109021910D01*
X145967830Y-109247380D01*
X145910853Y-109484702D01*
X145891706Y-109728000D01*
X145910853Y-109971297D01*
X145967830Y-110208619D01*
X146061222Y-110434089D01*
X146188737Y-110642173D01*
X146188738Y-110642176D01*
X146188741Y-110642179D01*
X146347241Y-110827759D01*
X146490897Y-110950453D01*
X146532823Y-110986261D01*
X146532826Y-110986262D01*
X146740910Y-111113777D01*
X146966381Y-111207169D01*
X146966378Y-111207169D01*
X146966384Y-111207170D01*
X146966388Y-111207172D01*
X147203698Y-111264146D01*
X147447000Y-111283294D01*
X147690302Y-111264146D01*
X147927612Y-111207172D01*
X148153089Y-111113777D01*
X148361179Y-110986259D01*
X148546759Y-110827759D01*
X148705259Y-110642179D01*
X148832777Y-110434089D01*
X148926172Y-110208612D01*
X148983146Y-109971302D01*
X149002294Y-109728000D01*
X148983146Y-109484698D01*
X148926172Y-109247388D01*
X148832777Y-109021911D01*
X148832777Y-109021910D01*
X148705262Y-108813826D01*
X148705261Y-108813823D01*
X148546756Y-108628238D01*
X148457832Y-108552290D01*
X148419638Y-108493784D01*
X148419139Y-108423916D01*
X148456493Y-108364869D01*
X148457832Y-108363710D01*
X148489276Y-108336853D01*
X148546759Y-108287759D01*
X148705259Y-108102179D01*
X148832777Y-107894089D01*
X148926172Y-107668612D01*
X148983146Y-107431302D01*
X149002294Y-107188000D01*
X148983146Y-106944698D01*
X148926172Y-106707388D01*
X148832777Y-106481911D01*
X148832777Y-106481910D01*
X148705262Y-106273826D01*
X148705261Y-106273823D01*
X148546756Y-106088238D01*
X148457832Y-106012290D01*
X148419638Y-105953784D01*
X148419139Y-105883916D01*
X148456493Y-105824869D01*
X148457832Y-105823710D01*
X148489276Y-105796853D01*
X148546759Y-105747759D01*
X148705259Y-105562179D01*
X148832777Y-105354089D01*
X148926172Y-105128612D01*
X148983146Y-104891302D01*
X149002294Y-104648000D01*
X148983146Y-104404698D01*
X148926172Y-104167388D01*
X148832777Y-103941911D01*
X148832777Y-103941910D01*
X148705262Y-103733826D01*
X148705261Y-103733823D01*
X148546756Y-103548238D01*
X148457832Y-103472290D01*
X148419638Y-103413784D01*
X148419139Y-103343916D01*
X148456493Y-103284869D01*
X148457832Y-103283710D01*
X148489276Y-103256853D01*
X148546759Y-103207759D01*
X148705259Y-103022179D01*
X148832777Y-102814089D01*
X148926172Y-102588612D01*
X148983146Y-102351302D01*
X149002294Y-102108000D01*
X148983146Y-101864698D01*
X148926172Y-101627388D01*
X148832777Y-101401911D01*
X148832777Y-101401910D01*
X148705262Y-101193826D01*
X148705261Y-101193823D01*
X148546756Y-101008238D01*
X148457832Y-100932290D01*
X148419638Y-100873784D01*
X148419139Y-100803916D01*
X148456493Y-100744869D01*
X148457832Y-100743710D01*
X148489276Y-100716853D01*
X148546759Y-100667759D01*
X148705259Y-100482179D01*
X148832777Y-100274089D01*
X148926172Y-100048612D01*
X148983146Y-99811302D01*
X149002294Y-99568000D01*
X148983146Y-99324698D01*
X148926172Y-99087388D01*
X148832777Y-98861911D01*
X148832777Y-98861910D01*
X148705262Y-98653826D01*
X148705261Y-98653823D01*
X148546756Y-98468238D01*
X148457832Y-98392290D01*
X148419638Y-98333784D01*
X148419139Y-98263916D01*
X148456493Y-98204869D01*
X148457832Y-98203710D01*
X148489276Y-98176853D01*
X148546759Y-98127759D01*
X148705259Y-97942179D01*
X148832777Y-97734089D01*
X148926172Y-97508612D01*
X148983146Y-97271302D01*
X149002294Y-97028000D01*
X148983146Y-96784698D01*
X148926172Y-96547388D01*
X148900006Y-96484217D01*
X148832777Y-96321910D01*
X148705262Y-96113826D01*
X148705261Y-96113823D01*
X148546756Y-95928238D01*
X148457832Y-95852290D01*
X148419638Y-95793784D01*
X148419139Y-95723916D01*
X148456493Y-95664869D01*
X148457832Y-95663710D01*
X148489276Y-95636853D01*
X148546759Y-95587759D01*
X148705259Y-95402179D01*
X148832777Y-95194089D01*
X148926172Y-94968612D01*
X148983146Y-94731302D01*
X149002294Y-94488000D01*
X148983146Y-94244698D01*
X148926172Y-94007388D01*
X148900006Y-93944217D01*
X148832777Y-93781910D01*
X148705262Y-93573826D01*
X148705261Y-93573823D01*
X148546756Y-93388238D01*
X148457832Y-93312290D01*
X148419638Y-93253784D01*
X148419139Y-93183916D01*
X148456493Y-93124869D01*
X148457832Y-93123710D01*
X148546755Y-93047762D01*
X148546759Y-93047759D01*
X148637113Y-92941967D01*
X148695618Y-92903775D01*
X148731402Y-92898500D01*
X151477618Y-92898500D01*
X151495980Y-92894847D01*
X151569433Y-92880236D01*
X151569434Y-92880236D01*
X151592545Y-92875638D01*
X151661251Y-92861973D01*
X151732901Y-92832294D01*
X151834230Y-92790323D01*
X151989908Y-92686302D01*
X156059391Y-88616819D01*
X156120714Y-88583334D01*
X156147072Y-88580500D01*
X161336843Y-88580500D01*
X161403882Y-88600185D01*
X161431130Y-88623965D01*
X161497701Y-88701910D01*
X161551776Y-88765224D01*
X161599179Y-88805710D01*
X161637372Y-88864217D01*
X161637870Y-88934085D01*
X161600516Y-88993131D01*
X161599179Y-88994290D01*
X161551776Y-89034776D01*
X161388161Y-89226343D01*
X161388160Y-89226346D01*
X161256533Y-89441140D01*
X161160126Y-89673889D01*
X161101317Y-89918848D01*
X161081551Y-90170000D01*
X161101317Y-90421151D01*
X161160126Y-90666110D01*
X161256533Y-90898859D01*
X161388160Y-91113653D01*
X161388161Y-91113656D01*
X161388164Y-91113659D01*
X161551776Y-91305224D01*
X161599178Y-91345709D01*
X161599179Y-91345710D01*
X161637372Y-91404217D01*
X161637870Y-91474085D01*
X161600516Y-91533131D01*
X161599179Y-91534290D01*
X161551776Y-91574776D01*
X161388161Y-91766343D01*
X161388160Y-91766346D01*
X161256533Y-91981140D01*
X161160126Y-92213889D01*
X161101317Y-92458848D01*
X161081551Y-92710000D01*
X161101317Y-92961151D01*
X161160126Y-93206110D01*
X161256533Y-93438859D01*
X161388160Y-93653653D01*
X161388161Y-93653656D01*
X161388164Y-93653659D01*
X161551776Y-93845224D01*
X161599178Y-93885709D01*
X161599179Y-93885710D01*
X161637372Y-93944217D01*
X161637870Y-94014085D01*
X161600516Y-94073131D01*
X161599179Y-94074290D01*
X161551776Y-94114776D01*
X161388161Y-94306343D01*
X161388160Y-94306346D01*
X161256533Y-94521140D01*
X161160126Y-94753889D01*
X161101317Y-94998848D01*
X161081551Y-95250000D01*
X161101317Y-95501151D01*
X161160126Y-95746110D01*
X161256533Y-95978859D01*
X161388160Y-96193653D01*
X161388161Y-96193656D01*
X161388164Y-96193659D01*
X161551776Y-96385224D01*
X161599178Y-96425709D01*
X161599179Y-96425710D01*
X161637372Y-96484217D01*
X161637870Y-96554085D01*
X161600516Y-96613131D01*
X161599179Y-96614290D01*
X161551776Y-96654776D01*
X161388161Y-96846343D01*
X161388160Y-96846346D01*
X161256533Y-97061140D01*
X161160126Y-97293889D01*
X161101317Y-97538848D01*
X161081551Y-97790000D01*
X161101317Y-98041151D01*
X161160126Y-98286110D01*
X161256533Y-98518859D01*
X161388160Y-98733653D01*
X161388161Y-98733656D01*
X161388164Y-98733659D01*
X161551776Y-98925224D01*
X161700066Y-99051875D01*
X161743343Y-99088838D01*
X161743346Y-99088839D01*
X161958140Y-99220466D01*
X162190889Y-99316873D01*
X162435852Y-99375683D01*
X162687000Y-99395449D01*
X162938148Y-99375683D01*
X163183111Y-99316873D01*
X163415859Y-99220466D01*
X163630659Y-99088836D01*
X163822224Y-98925224D01*
X163985836Y-98733659D01*
X164117466Y-98518859D01*
X164213873Y-98286111D01*
X164272683Y-98041148D01*
X164292449Y-97790000D01*
X164272683Y-97538852D01*
X164213873Y-97293889D01*
X164117466Y-97061141D01*
X164117466Y-97061140D01*
X163985839Y-96846346D01*
X163985838Y-96846343D01*
X163822224Y-96654776D01*
X163774819Y-96614289D01*
X163736627Y-96555784D01*
X163736128Y-96485916D01*
X163773482Y-96426870D01*
X163774756Y-96425764D01*
X163822224Y-96385224D01*
X163985836Y-96193659D01*
X164117466Y-95978859D01*
X164213873Y-95746111D01*
X164272683Y-95501148D01*
X164292449Y-95250000D01*
X164272683Y-94998852D01*
X164213873Y-94753889D01*
X164117466Y-94521141D01*
X164117466Y-94521140D01*
X163985839Y-94306346D01*
X163985838Y-94306343D01*
X163822224Y-94114776D01*
X163774819Y-94074289D01*
X163736627Y-94015784D01*
X163736128Y-93945916D01*
X163773482Y-93886870D01*
X163774756Y-93885764D01*
X163822224Y-93845224D01*
X163985836Y-93653659D01*
X164117466Y-93438859D01*
X164213873Y-93206111D01*
X164272683Y-92961148D01*
X164292449Y-92710000D01*
X164272683Y-92458852D01*
X164213873Y-92213889D01*
X164117466Y-91981141D01*
X164117466Y-91981140D01*
X163985839Y-91766346D01*
X163985838Y-91766343D01*
X163822224Y-91574776D01*
X163774819Y-91534289D01*
X163736627Y-91475784D01*
X163736128Y-91405916D01*
X163773482Y-91346870D01*
X163774756Y-91345764D01*
X163822224Y-91305224D01*
X163985836Y-91113659D01*
X164117466Y-90898859D01*
X164213873Y-90666111D01*
X164272683Y-90421148D01*
X164292449Y-90170000D01*
X164272683Y-89918852D01*
X164213873Y-89673889D01*
X164117466Y-89441141D01*
X164117466Y-89441140D01*
X163985839Y-89226346D01*
X163985838Y-89226343D01*
X163822224Y-89034776D01*
X163774819Y-88994289D01*
X163736627Y-88935784D01*
X163736128Y-88865916D01*
X163773482Y-88806870D01*
X163774756Y-88805764D01*
X163822224Y-88765224D01*
X163985836Y-88573659D01*
X164117466Y-88358859D01*
X164213873Y-88126111D01*
X164272683Y-87881148D01*
X164292449Y-87630000D01*
X164272683Y-87378852D01*
X164213873Y-87133889D01*
X164117466Y-86901141D01*
X164117466Y-86901140D01*
X163985839Y-86686346D01*
X163985838Y-86686343D01*
X163822224Y-86494776D01*
X163822223Y-86494775D01*
X163774819Y-86454289D01*
X163736627Y-86395784D01*
X163736128Y-86325916D01*
X163773482Y-86266870D01*
X163774756Y-86265764D01*
X163822224Y-86225224D01*
X163985836Y-86033659D01*
X164117466Y-85818859D01*
X164213873Y-85586111D01*
X164272683Y-85341148D01*
X164292449Y-85090000D01*
X164272683Y-84838852D01*
X164213873Y-84593889D01*
X164117466Y-84361141D01*
X164117466Y-84361140D01*
X163985839Y-84146346D01*
X163985838Y-84146343D01*
X163933188Y-84084698D01*
X163822224Y-83954776D01*
X163695571Y-83846604D01*
X163630656Y-83791161D01*
X163630654Y-83791160D01*
X163505469Y-83714447D01*
X163458594Y-83662636D01*
X163447171Y-83593706D01*
X163474828Y-83529543D01*
X163490560Y-83513725D01*
X163493553Y-83511213D01*
X163648213Y-83356552D01*
X163773666Y-83177387D01*
X163866103Y-82979157D01*
X163873916Y-82950000D01*
X162994106Y-82950000D01*
X163087099Y-82857007D01*
X163152925Y-82742993D01*
X163187000Y-82615826D01*
X163187000Y-82484174D01*
X163152925Y-82357007D01*
X163087099Y-82242993D01*
X162994106Y-82150000D01*
X163873916Y-82150000D01*
X163873916Y-82149999D01*
X163866103Y-82120842D01*
X163773666Y-81922612D01*
X163773664Y-81922608D01*
X163670053Y-81774636D01*
X163647726Y-81708430D01*
X163664736Y-81640663D01*
X163715684Y-81592850D01*
X163732617Y-81585809D01*
X163856334Y-81544814D01*
X164005656Y-81452712D01*
X164129712Y-81328656D01*
X164221814Y-81179334D01*
X164276999Y-81012797D01*
X164287500Y-80910009D01*
X164287499Y-79109992D01*
X164276999Y-79007203D01*
X164221814Y-78840666D01*
X164129712Y-78691344D01*
X164005656Y-78567288D01*
X163856334Y-78475186D01*
X163689797Y-78420001D01*
X163689795Y-78420000D01*
X163587010Y-78409500D01*
X161786998Y-78409500D01*
X161786981Y-78409501D01*
X161684203Y-78420000D01*
X161684200Y-78420001D01*
X161517668Y-78475185D01*
X161517663Y-78475187D01*
X161368342Y-78567289D01*
X161244289Y-78691342D01*
X161152187Y-78840663D01*
X161152186Y-78840666D01*
X161097001Y-79007203D01*
X161097001Y-79007204D01*
X161097000Y-79007204D01*
X161086500Y-79109983D01*
X161086500Y-79189500D01*
X161066815Y-79256539D01*
X161014011Y-79302294D01*
X160962500Y-79313500D01*
X149122074Y-79313500D01*
X149055035Y-79293815D01*
X149009280Y-79241011D01*
X148998456Y-79199229D01*
X148983146Y-79004702D01*
X148983146Y-79004698D01*
X148926172Y-78767388D01*
X148843289Y-78567289D01*
X148832777Y-78541910D01*
X148705262Y-78333826D01*
X148705261Y-78333823D01*
X148546756Y-78148238D01*
X148457832Y-78072290D01*
X148419638Y-78013784D01*
X148419139Y-77943916D01*
X148456493Y-77884869D01*
X148457832Y-77883710D01*
X148489276Y-77856853D01*
X148546759Y-77807759D01*
X148705259Y-77622179D01*
X148832777Y-77414089D01*
X148926172Y-77188612D01*
X148983146Y-76951302D01*
X149002294Y-76708000D01*
X148983146Y-76464698D01*
X148926172Y-76227388D01*
X148832777Y-76001911D01*
X148832777Y-76001910D01*
X148705262Y-75793826D01*
X148705261Y-75793823D01*
X148618004Y-75691658D01*
X148546759Y-75608241D01*
X148546757Y-75608239D01*
X148546756Y-75608238D01*
X148457832Y-75532290D01*
X148419638Y-75473784D01*
X148419139Y-75403916D01*
X148456493Y-75344869D01*
X148457832Y-75343710D01*
X148523837Y-75287336D01*
X148546759Y-75267759D01*
X148705259Y-75082179D01*
X148832777Y-74874089D01*
X148926172Y-74648612D01*
X148983146Y-74411302D01*
X149002294Y-74168000D01*
X148983146Y-73924698D01*
X148926172Y-73687388D01*
X148832777Y-73461911D01*
X148832777Y-73461910D01*
X148705262Y-73253826D01*
X148705261Y-73253823D01*
X148669453Y-73211897D01*
X148546759Y-73068241D01*
X148424063Y-72963449D01*
X148361176Y-72909738D01*
X148361173Y-72909737D01*
X148153089Y-72782222D01*
X147927618Y-72688830D01*
X147927621Y-72688830D01*
X147821992Y-72663470D01*
X147690302Y-72631854D01*
X147690300Y-72631853D01*
X147690297Y-72631853D01*
X147447000Y-72612706D01*
X147203702Y-72631853D01*
X147203698Y-72631854D01*
X146989889Y-72683186D01*
X146966380Y-72688830D01*
X146740910Y-72782222D01*
X146532826Y-72909737D01*
X146532823Y-72909738D01*
X146347241Y-73068241D01*
X146188738Y-73253823D01*
X146188737Y-73253826D01*
X146061222Y-73461910D01*
X145967830Y-73687380D01*
X145910853Y-73924702D01*
X145891706Y-74168000D01*
X133757499Y-74168000D01*
X133757499Y-73317992D01*
X133746999Y-73215203D01*
X133691814Y-73048666D01*
X133599712Y-72899344D01*
X133475656Y-72775288D01*
X133382888Y-72718069D01*
X133326336Y-72683187D01*
X133326331Y-72683185D01*
X133324862Y-72682698D01*
X133159797Y-72628001D01*
X133159795Y-72628000D01*
X133057010Y-72617500D01*
X131356998Y-72617500D01*
X131356981Y-72617501D01*
X131254203Y-72628000D01*
X131254200Y-72628001D01*
X131087668Y-72683185D01*
X131087663Y-72683187D01*
X130938342Y-72775289D01*
X130814289Y-72899342D01*
X130722187Y-73048663D01*
X130722186Y-73048666D01*
X130667001Y-73215203D01*
X130667001Y-73215204D01*
X130667000Y-73215204D01*
X130656500Y-73317983D01*
X130656500Y-75018001D01*
X130656501Y-75018018D01*
X130667000Y-75120796D01*
X130667001Y-75120799D01*
X130722185Y-75287331D01*
X130722187Y-75287336D01*
X130814289Y-75436657D01*
X130938345Y-75560713D01*
X130952342Y-75569346D01*
X130999068Y-75621292D01*
X131010292Y-75690254D01*
X130982450Y-75754337D01*
X130981540Y-75755415D01*
X130948746Y-75793813D01*
X130948739Y-75793823D01*
X130821222Y-76001910D01*
X130727830Y-76227380D01*
X130670853Y-76464702D01*
X130651706Y-76708000D01*
X130302000Y-76708000D01*
X130302000Y-69339000D01*
X130321685Y-69271961D01*
X130374489Y-69226206D01*
X130426000Y-69215000D01*
X164722000Y-69215000D01*
X164789039Y-69234685D01*
G37*
%TD.AperFunction*%
%TD*%
M02*
