M48
; DRILL file {KiCad 8.0.4} date 2024-09-23T10:04:31-0300
; FORMAT={-:-/ absolute / inch / decimal}
; #@! TF.CreationDate,2024-09-23T10:04:31-03:00
; #@! TF.GenerationSoftware,Kicad,Pcbnew,8.0.4
; #@! TF.FileFunction,Plated,1,2,PTH
FMAT,2
INCH
; #@! TA.AperFunction,Plated,PTH,ComponentDrill
T1C0.0394
%
G90
G05
T1
X5.205Y-2.92
X5.205Y-3.02
X5.205Y-3.12
X5.205Y-3.22
X5.205Y-3.32
X5.205Y-3.42
X5.205Y-3.52
X5.205Y-3.62
X5.205Y-3.72
X5.205Y-3.82
X5.205Y-3.92
X5.205Y-4.02
X5.205Y-4.12
X5.205Y-4.22
X5.205Y-4.32
X5.805Y-2.92
X5.805Y-3.02
X5.805Y-3.12
X5.805Y-3.22
X5.805Y-3.32
X5.805Y-3.42
X5.805Y-3.52
X5.805Y-3.62
X5.805Y-3.72
X5.805Y-3.82
X5.805Y-3.92
X5.805Y-4.02
X5.805Y-4.12
X5.805Y-4.22
X5.805Y-4.32
X6.405Y-3.15
X6.405Y-3.25
X6.405Y-3.35
X6.405Y-3.45
X6.405Y-3.55
X6.405Y-3.65
X6.405Y-3.75
X6.405Y-3.85
M30
