%TF.GenerationSoftware,KiCad,Pcbnew,8.0.6*%
%TF.CreationDate,2025-05-15T16:05:44-03:00*%
%TF.ProjectId,NEW_Communication_Board,4e45575f-436f-46d6-9d75-6e6963617469,rev?*%
%TF.SameCoordinates,Original*%
%TF.FileFunction,Legend,Top*%
%TF.FilePolarity,Positive*%
%FSLAX46Y46*%
G04 Gerber Fmt 4.6, Leading zero omitted, Abs format (unit mm)*
G04 Created by KiCad (PCBNEW 8.0.6) date 2025-05-15 16:05:44*
%MOMM*%
%LPD*%
G01*
G04 APERTURE LIST*
%ADD10C,0.150000*%
%ADD11C,0.100000*%
%ADD12C,0.254000*%
%ADD13C,0.120000*%
%ADD14C,0.200000*%
G04 APERTURE END LIST*
D10*
X130107142Y-87359580D02*
X130059523Y-87407200D01*
X130059523Y-87407200D02*
X129916666Y-87454819D01*
X129916666Y-87454819D02*
X129821428Y-87454819D01*
X129821428Y-87454819D02*
X129678571Y-87407200D01*
X129678571Y-87407200D02*
X129583333Y-87311961D01*
X129583333Y-87311961D02*
X129535714Y-87216723D01*
X129535714Y-87216723D02*
X129488095Y-87026247D01*
X129488095Y-87026247D02*
X129488095Y-86883390D01*
X129488095Y-86883390D02*
X129535714Y-86692914D01*
X129535714Y-86692914D02*
X129583333Y-86597676D01*
X129583333Y-86597676D02*
X129678571Y-86502438D01*
X129678571Y-86502438D02*
X129821428Y-86454819D01*
X129821428Y-86454819D02*
X129916666Y-86454819D01*
X129916666Y-86454819D02*
X130059523Y-86502438D01*
X130059523Y-86502438D02*
X130107142Y-86550057D01*
X131059523Y-87454819D02*
X130488095Y-87454819D01*
X130773809Y-87454819D02*
X130773809Y-86454819D01*
X130773809Y-86454819D02*
X130678571Y-86597676D01*
X130678571Y-86597676D02*
X130583333Y-86692914D01*
X130583333Y-86692914D02*
X130488095Y-86740533D01*
X131630952Y-86883390D02*
X131535714Y-86835771D01*
X131535714Y-86835771D02*
X131488095Y-86788152D01*
X131488095Y-86788152D02*
X131440476Y-86692914D01*
X131440476Y-86692914D02*
X131440476Y-86645295D01*
X131440476Y-86645295D02*
X131488095Y-86550057D01*
X131488095Y-86550057D02*
X131535714Y-86502438D01*
X131535714Y-86502438D02*
X131630952Y-86454819D01*
X131630952Y-86454819D02*
X131821428Y-86454819D01*
X131821428Y-86454819D02*
X131916666Y-86502438D01*
X131916666Y-86502438D02*
X131964285Y-86550057D01*
X131964285Y-86550057D02*
X132011904Y-86645295D01*
X132011904Y-86645295D02*
X132011904Y-86692914D01*
X132011904Y-86692914D02*
X131964285Y-86788152D01*
X131964285Y-86788152D02*
X131916666Y-86835771D01*
X131916666Y-86835771D02*
X131821428Y-86883390D01*
X131821428Y-86883390D02*
X131630952Y-86883390D01*
X131630952Y-86883390D02*
X131535714Y-86931009D01*
X131535714Y-86931009D02*
X131488095Y-86978628D01*
X131488095Y-86978628D02*
X131440476Y-87073866D01*
X131440476Y-87073866D02*
X131440476Y-87264342D01*
X131440476Y-87264342D02*
X131488095Y-87359580D01*
X131488095Y-87359580D02*
X131535714Y-87407200D01*
X131535714Y-87407200D02*
X131630952Y-87454819D01*
X131630952Y-87454819D02*
X131821428Y-87454819D01*
X131821428Y-87454819D02*
X131916666Y-87407200D01*
X131916666Y-87407200D02*
X131964285Y-87359580D01*
X131964285Y-87359580D02*
X132011904Y-87264342D01*
X132011904Y-87264342D02*
X132011904Y-87073866D01*
X132011904Y-87073866D02*
X131964285Y-86978628D01*
X131964285Y-86978628D02*
X131916666Y-86931009D01*
X131916666Y-86931009D02*
X131821428Y-86883390D01*
X135607142Y-69609580D02*
X135559523Y-69657200D01*
X135559523Y-69657200D02*
X135416666Y-69704819D01*
X135416666Y-69704819D02*
X135321428Y-69704819D01*
X135321428Y-69704819D02*
X135178571Y-69657200D01*
X135178571Y-69657200D02*
X135083333Y-69561961D01*
X135083333Y-69561961D02*
X135035714Y-69466723D01*
X135035714Y-69466723D02*
X134988095Y-69276247D01*
X134988095Y-69276247D02*
X134988095Y-69133390D01*
X134988095Y-69133390D02*
X135035714Y-68942914D01*
X135035714Y-68942914D02*
X135083333Y-68847676D01*
X135083333Y-68847676D02*
X135178571Y-68752438D01*
X135178571Y-68752438D02*
X135321428Y-68704819D01*
X135321428Y-68704819D02*
X135416666Y-68704819D01*
X135416666Y-68704819D02*
X135559523Y-68752438D01*
X135559523Y-68752438D02*
X135607142Y-68800057D01*
X136559523Y-69704819D02*
X135988095Y-69704819D01*
X136273809Y-69704819D02*
X136273809Y-68704819D01*
X136273809Y-68704819D02*
X136178571Y-68847676D01*
X136178571Y-68847676D02*
X136083333Y-68942914D01*
X136083333Y-68942914D02*
X135988095Y-68990533D01*
X137511904Y-69704819D02*
X136940476Y-69704819D01*
X137226190Y-69704819D02*
X137226190Y-68704819D01*
X137226190Y-68704819D02*
X137130952Y-68847676D01*
X137130952Y-68847676D02*
X137035714Y-68942914D01*
X137035714Y-68942914D02*
X136940476Y-68990533D01*
X122595238Y-102407200D02*
X122738095Y-102454819D01*
X122738095Y-102454819D02*
X122976190Y-102454819D01*
X122976190Y-102454819D02*
X123071428Y-102407200D01*
X123071428Y-102407200D02*
X123119047Y-102359580D01*
X123119047Y-102359580D02*
X123166666Y-102264342D01*
X123166666Y-102264342D02*
X123166666Y-102169104D01*
X123166666Y-102169104D02*
X123119047Y-102073866D01*
X123119047Y-102073866D02*
X123071428Y-102026247D01*
X123071428Y-102026247D02*
X122976190Y-101978628D01*
X122976190Y-101978628D02*
X122785714Y-101931009D01*
X122785714Y-101931009D02*
X122690476Y-101883390D01*
X122690476Y-101883390D02*
X122642857Y-101835771D01*
X122642857Y-101835771D02*
X122595238Y-101740533D01*
X122595238Y-101740533D02*
X122595238Y-101645295D01*
X122595238Y-101645295D02*
X122642857Y-101550057D01*
X122642857Y-101550057D02*
X122690476Y-101502438D01*
X122690476Y-101502438D02*
X122785714Y-101454819D01*
X122785714Y-101454819D02*
X123023809Y-101454819D01*
X123023809Y-101454819D02*
X123166666Y-101502438D01*
X123452381Y-101454819D02*
X124023809Y-101454819D01*
X123738095Y-102454819D02*
X123738095Y-101454819D01*
X124119048Y-102550057D02*
X124880952Y-102550057D01*
X124976191Y-101454819D02*
X125547619Y-101454819D01*
X125261905Y-102454819D02*
X125261905Y-101454819D01*
X125785715Y-101454819D02*
X126452381Y-102454819D01*
X126452381Y-101454819D02*
X125785715Y-102454819D01*
X132226190Y-102407200D02*
X132369047Y-102454819D01*
X132369047Y-102454819D02*
X132607142Y-102454819D01*
X132607142Y-102454819D02*
X132702380Y-102407200D01*
X132702380Y-102407200D02*
X132749999Y-102359580D01*
X132749999Y-102359580D02*
X132797618Y-102264342D01*
X132797618Y-102264342D02*
X132797618Y-102169104D01*
X132797618Y-102169104D02*
X132749999Y-102073866D01*
X132749999Y-102073866D02*
X132702380Y-102026247D01*
X132702380Y-102026247D02*
X132607142Y-101978628D01*
X132607142Y-101978628D02*
X132416666Y-101931009D01*
X132416666Y-101931009D02*
X132321428Y-101883390D01*
X132321428Y-101883390D02*
X132273809Y-101835771D01*
X132273809Y-101835771D02*
X132226190Y-101740533D01*
X132226190Y-101740533D02*
X132226190Y-101645295D01*
X132226190Y-101645295D02*
X132273809Y-101550057D01*
X132273809Y-101550057D02*
X132321428Y-101502438D01*
X132321428Y-101502438D02*
X132416666Y-101454819D01*
X132416666Y-101454819D02*
X132654761Y-101454819D01*
X132654761Y-101454819D02*
X132797618Y-101502438D01*
X133083333Y-101454819D02*
X133654761Y-101454819D01*
X133369047Y-102454819D02*
X133369047Y-101454819D01*
X133750000Y-102550057D02*
X134511904Y-102550057D01*
X135321428Y-102454819D02*
X134988095Y-101978628D01*
X134750000Y-102454819D02*
X134750000Y-101454819D01*
X134750000Y-101454819D02*
X135130952Y-101454819D01*
X135130952Y-101454819D02*
X135226190Y-101502438D01*
X135226190Y-101502438D02*
X135273809Y-101550057D01*
X135273809Y-101550057D02*
X135321428Y-101645295D01*
X135321428Y-101645295D02*
X135321428Y-101788152D01*
X135321428Y-101788152D02*
X135273809Y-101883390D01*
X135273809Y-101883390D02*
X135226190Y-101931009D01*
X135226190Y-101931009D02*
X135130952Y-101978628D01*
X135130952Y-101978628D02*
X134750000Y-101978628D01*
X135654762Y-101454819D02*
X136321428Y-102454819D01*
X136321428Y-101454819D02*
X135654762Y-102454819D01*
X115107142Y-82359580D02*
X115059523Y-82407200D01*
X115059523Y-82407200D02*
X114916666Y-82454819D01*
X114916666Y-82454819D02*
X114821428Y-82454819D01*
X114821428Y-82454819D02*
X114678571Y-82407200D01*
X114678571Y-82407200D02*
X114583333Y-82311961D01*
X114583333Y-82311961D02*
X114535714Y-82216723D01*
X114535714Y-82216723D02*
X114488095Y-82026247D01*
X114488095Y-82026247D02*
X114488095Y-81883390D01*
X114488095Y-81883390D02*
X114535714Y-81692914D01*
X114535714Y-81692914D02*
X114583333Y-81597676D01*
X114583333Y-81597676D02*
X114678571Y-81502438D01*
X114678571Y-81502438D02*
X114821428Y-81454819D01*
X114821428Y-81454819D02*
X114916666Y-81454819D01*
X114916666Y-81454819D02*
X115059523Y-81502438D01*
X115059523Y-81502438D02*
X115107142Y-81550057D01*
X115488095Y-81550057D02*
X115535714Y-81502438D01*
X115535714Y-81502438D02*
X115630952Y-81454819D01*
X115630952Y-81454819D02*
X115869047Y-81454819D01*
X115869047Y-81454819D02*
X115964285Y-81502438D01*
X115964285Y-81502438D02*
X116011904Y-81550057D01*
X116011904Y-81550057D02*
X116059523Y-81645295D01*
X116059523Y-81645295D02*
X116059523Y-81740533D01*
X116059523Y-81740533D02*
X116011904Y-81883390D01*
X116011904Y-81883390D02*
X115440476Y-82454819D01*
X115440476Y-82454819D02*
X116059523Y-82454819D01*
X117011904Y-82454819D02*
X116440476Y-82454819D01*
X116726190Y-82454819D02*
X116726190Y-81454819D01*
X116726190Y-81454819D02*
X116630952Y-81597676D01*
X116630952Y-81597676D02*
X116535714Y-81692914D01*
X116535714Y-81692914D02*
X116440476Y-81740533D01*
X115107142Y-78359580D02*
X115059523Y-78407200D01*
X115059523Y-78407200D02*
X114916666Y-78454819D01*
X114916666Y-78454819D02*
X114821428Y-78454819D01*
X114821428Y-78454819D02*
X114678571Y-78407200D01*
X114678571Y-78407200D02*
X114583333Y-78311961D01*
X114583333Y-78311961D02*
X114535714Y-78216723D01*
X114535714Y-78216723D02*
X114488095Y-78026247D01*
X114488095Y-78026247D02*
X114488095Y-77883390D01*
X114488095Y-77883390D02*
X114535714Y-77692914D01*
X114535714Y-77692914D02*
X114583333Y-77597676D01*
X114583333Y-77597676D02*
X114678571Y-77502438D01*
X114678571Y-77502438D02*
X114821428Y-77454819D01*
X114821428Y-77454819D02*
X114916666Y-77454819D01*
X114916666Y-77454819D02*
X115059523Y-77502438D01*
X115059523Y-77502438D02*
X115107142Y-77550057D01*
X115488095Y-77550057D02*
X115535714Y-77502438D01*
X115535714Y-77502438D02*
X115630952Y-77454819D01*
X115630952Y-77454819D02*
X115869047Y-77454819D01*
X115869047Y-77454819D02*
X115964285Y-77502438D01*
X115964285Y-77502438D02*
X116011904Y-77550057D01*
X116011904Y-77550057D02*
X116059523Y-77645295D01*
X116059523Y-77645295D02*
X116059523Y-77740533D01*
X116059523Y-77740533D02*
X116011904Y-77883390D01*
X116011904Y-77883390D02*
X115440476Y-78454819D01*
X115440476Y-78454819D02*
X116059523Y-78454819D01*
X116440476Y-77550057D02*
X116488095Y-77502438D01*
X116488095Y-77502438D02*
X116583333Y-77454819D01*
X116583333Y-77454819D02*
X116821428Y-77454819D01*
X116821428Y-77454819D02*
X116916666Y-77502438D01*
X116916666Y-77502438D02*
X116964285Y-77550057D01*
X116964285Y-77550057D02*
X117011904Y-77645295D01*
X117011904Y-77645295D02*
X117011904Y-77740533D01*
X117011904Y-77740533D02*
X116964285Y-77883390D01*
X116964285Y-77883390D02*
X116392857Y-78454819D01*
X116392857Y-78454819D02*
X117011904Y-78454819D01*
X145857142Y-78359580D02*
X145809523Y-78407200D01*
X145809523Y-78407200D02*
X145666666Y-78454819D01*
X145666666Y-78454819D02*
X145571428Y-78454819D01*
X145571428Y-78454819D02*
X145428571Y-78407200D01*
X145428571Y-78407200D02*
X145333333Y-78311961D01*
X145333333Y-78311961D02*
X145285714Y-78216723D01*
X145285714Y-78216723D02*
X145238095Y-78026247D01*
X145238095Y-78026247D02*
X145238095Y-77883390D01*
X145238095Y-77883390D02*
X145285714Y-77692914D01*
X145285714Y-77692914D02*
X145333333Y-77597676D01*
X145333333Y-77597676D02*
X145428571Y-77502438D01*
X145428571Y-77502438D02*
X145571428Y-77454819D01*
X145571428Y-77454819D02*
X145666666Y-77454819D01*
X145666666Y-77454819D02*
X145809523Y-77502438D01*
X145809523Y-77502438D02*
X145857142Y-77550057D01*
X146809523Y-78454819D02*
X146238095Y-78454819D01*
X146523809Y-78454819D02*
X146523809Y-77454819D01*
X146523809Y-77454819D02*
X146428571Y-77597676D01*
X146428571Y-77597676D02*
X146333333Y-77692914D01*
X146333333Y-77692914D02*
X146238095Y-77740533D01*
X147285714Y-78454819D02*
X147476190Y-78454819D01*
X147476190Y-78454819D02*
X147571428Y-78407200D01*
X147571428Y-78407200D02*
X147619047Y-78359580D01*
X147619047Y-78359580D02*
X147714285Y-78216723D01*
X147714285Y-78216723D02*
X147761904Y-78026247D01*
X147761904Y-78026247D02*
X147761904Y-77645295D01*
X147761904Y-77645295D02*
X147714285Y-77550057D01*
X147714285Y-77550057D02*
X147666666Y-77502438D01*
X147666666Y-77502438D02*
X147571428Y-77454819D01*
X147571428Y-77454819D02*
X147380952Y-77454819D01*
X147380952Y-77454819D02*
X147285714Y-77502438D01*
X147285714Y-77502438D02*
X147238095Y-77550057D01*
X147238095Y-77550057D02*
X147190476Y-77645295D01*
X147190476Y-77645295D02*
X147190476Y-77883390D01*
X147190476Y-77883390D02*
X147238095Y-77978628D01*
X147238095Y-77978628D02*
X147285714Y-78026247D01*
X147285714Y-78026247D02*
X147380952Y-78073866D01*
X147380952Y-78073866D02*
X147571428Y-78073866D01*
X147571428Y-78073866D02*
X147666666Y-78026247D01*
X147666666Y-78026247D02*
X147714285Y-77978628D01*
X147714285Y-77978628D02*
X147761904Y-77883390D01*
X145857142Y-82109580D02*
X145809523Y-82157200D01*
X145809523Y-82157200D02*
X145666666Y-82204819D01*
X145666666Y-82204819D02*
X145571428Y-82204819D01*
X145571428Y-82204819D02*
X145428571Y-82157200D01*
X145428571Y-82157200D02*
X145333333Y-82061961D01*
X145333333Y-82061961D02*
X145285714Y-81966723D01*
X145285714Y-81966723D02*
X145238095Y-81776247D01*
X145238095Y-81776247D02*
X145238095Y-81633390D01*
X145238095Y-81633390D02*
X145285714Y-81442914D01*
X145285714Y-81442914D02*
X145333333Y-81347676D01*
X145333333Y-81347676D02*
X145428571Y-81252438D01*
X145428571Y-81252438D02*
X145571428Y-81204819D01*
X145571428Y-81204819D02*
X145666666Y-81204819D01*
X145666666Y-81204819D02*
X145809523Y-81252438D01*
X145809523Y-81252438D02*
X145857142Y-81300057D01*
X146238095Y-81300057D02*
X146285714Y-81252438D01*
X146285714Y-81252438D02*
X146380952Y-81204819D01*
X146380952Y-81204819D02*
X146619047Y-81204819D01*
X146619047Y-81204819D02*
X146714285Y-81252438D01*
X146714285Y-81252438D02*
X146761904Y-81300057D01*
X146761904Y-81300057D02*
X146809523Y-81395295D01*
X146809523Y-81395295D02*
X146809523Y-81490533D01*
X146809523Y-81490533D02*
X146761904Y-81633390D01*
X146761904Y-81633390D02*
X146190476Y-82204819D01*
X146190476Y-82204819D02*
X146809523Y-82204819D01*
X147428571Y-81204819D02*
X147523809Y-81204819D01*
X147523809Y-81204819D02*
X147619047Y-81252438D01*
X147619047Y-81252438D02*
X147666666Y-81300057D01*
X147666666Y-81300057D02*
X147714285Y-81395295D01*
X147714285Y-81395295D02*
X147761904Y-81585771D01*
X147761904Y-81585771D02*
X147761904Y-81823866D01*
X147761904Y-81823866D02*
X147714285Y-82014342D01*
X147714285Y-82014342D02*
X147666666Y-82109580D01*
X147666666Y-82109580D02*
X147619047Y-82157200D01*
X147619047Y-82157200D02*
X147523809Y-82204819D01*
X147523809Y-82204819D02*
X147428571Y-82204819D01*
X147428571Y-82204819D02*
X147333333Y-82157200D01*
X147333333Y-82157200D02*
X147285714Y-82109580D01*
X147285714Y-82109580D02*
X147238095Y-82014342D01*
X147238095Y-82014342D02*
X147190476Y-81823866D01*
X147190476Y-81823866D02*
X147190476Y-81585771D01*
X147190476Y-81585771D02*
X147238095Y-81395295D01*
X147238095Y-81395295D02*
X147285714Y-81300057D01*
X147285714Y-81300057D02*
X147333333Y-81252438D01*
X147333333Y-81252438D02*
X147428571Y-81204819D01*
X147833333Y-60859580D02*
X147785714Y-60907200D01*
X147785714Y-60907200D02*
X147642857Y-60954819D01*
X147642857Y-60954819D02*
X147547619Y-60954819D01*
X147547619Y-60954819D02*
X147404762Y-60907200D01*
X147404762Y-60907200D02*
X147309524Y-60811961D01*
X147309524Y-60811961D02*
X147261905Y-60716723D01*
X147261905Y-60716723D02*
X147214286Y-60526247D01*
X147214286Y-60526247D02*
X147214286Y-60383390D01*
X147214286Y-60383390D02*
X147261905Y-60192914D01*
X147261905Y-60192914D02*
X147309524Y-60097676D01*
X147309524Y-60097676D02*
X147404762Y-60002438D01*
X147404762Y-60002438D02*
X147547619Y-59954819D01*
X147547619Y-59954819D02*
X147642857Y-59954819D01*
X147642857Y-59954819D02*
X147785714Y-60002438D01*
X147785714Y-60002438D02*
X147833333Y-60050057D01*
X148309524Y-60954819D02*
X148500000Y-60954819D01*
X148500000Y-60954819D02*
X148595238Y-60907200D01*
X148595238Y-60907200D02*
X148642857Y-60859580D01*
X148642857Y-60859580D02*
X148738095Y-60716723D01*
X148738095Y-60716723D02*
X148785714Y-60526247D01*
X148785714Y-60526247D02*
X148785714Y-60145295D01*
X148785714Y-60145295D02*
X148738095Y-60050057D01*
X148738095Y-60050057D02*
X148690476Y-60002438D01*
X148690476Y-60002438D02*
X148595238Y-59954819D01*
X148595238Y-59954819D02*
X148404762Y-59954819D01*
X148404762Y-59954819D02*
X148309524Y-60002438D01*
X148309524Y-60002438D02*
X148261905Y-60050057D01*
X148261905Y-60050057D02*
X148214286Y-60145295D01*
X148214286Y-60145295D02*
X148214286Y-60383390D01*
X148214286Y-60383390D02*
X148261905Y-60478628D01*
X148261905Y-60478628D02*
X148309524Y-60526247D01*
X148309524Y-60526247D02*
X148404762Y-60573866D01*
X148404762Y-60573866D02*
X148595238Y-60573866D01*
X148595238Y-60573866D02*
X148690476Y-60526247D01*
X148690476Y-60526247D02*
X148738095Y-60478628D01*
X148738095Y-60478628D02*
X148785714Y-60383390D01*
X151399847Y-57166666D02*
X150923656Y-57499999D01*
X151399847Y-57738094D02*
X150399847Y-57738094D01*
X150399847Y-57738094D02*
X150399847Y-57357142D01*
X150399847Y-57357142D02*
X150447466Y-57261904D01*
X150447466Y-57261904D02*
X150495085Y-57214285D01*
X150495085Y-57214285D02*
X150590323Y-57166666D01*
X150590323Y-57166666D02*
X150733180Y-57166666D01*
X150733180Y-57166666D02*
X150828418Y-57214285D01*
X150828418Y-57214285D02*
X150876037Y-57261904D01*
X150876037Y-57261904D02*
X150923656Y-57357142D01*
X150923656Y-57357142D02*
X150923656Y-57738094D01*
X150828418Y-56595237D02*
X150780799Y-56690475D01*
X150780799Y-56690475D02*
X150733180Y-56738094D01*
X150733180Y-56738094D02*
X150637942Y-56785713D01*
X150637942Y-56785713D02*
X150590323Y-56785713D01*
X150590323Y-56785713D02*
X150495085Y-56738094D01*
X150495085Y-56738094D02*
X150447466Y-56690475D01*
X150447466Y-56690475D02*
X150399847Y-56595237D01*
X150399847Y-56595237D02*
X150399847Y-56404761D01*
X150399847Y-56404761D02*
X150447466Y-56309523D01*
X150447466Y-56309523D02*
X150495085Y-56261904D01*
X150495085Y-56261904D02*
X150590323Y-56214285D01*
X150590323Y-56214285D02*
X150637942Y-56214285D01*
X150637942Y-56214285D02*
X150733180Y-56261904D01*
X150733180Y-56261904D02*
X150780799Y-56309523D01*
X150780799Y-56309523D02*
X150828418Y-56404761D01*
X150828418Y-56404761D02*
X150828418Y-56595237D01*
X150828418Y-56595237D02*
X150876037Y-56690475D01*
X150876037Y-56690475D02*
X150923656Y-56738094D01*
X150923656Y-56738094D02*
X151018894Y-56785713D01*
X151018894Y-56785713D02*
X151209370Y-56785713D01*
X151209370Y-56785713D02*
X151304608Y-56738094D01*
X151304608Y-56738094D02*
X151352228Y-56690475D01*
X151352228Y-56690475D02*
X151399847Y-56595237D01*
X151399847Y-56595237D02*
X151399847Y-56404761D01*
X151399847Y-56404761D02*
X151352228Y-56309523D01*
X151352228Y-56309523D02*
X151304608Y-56261904D01*
X151304608Y-56261904D02*
X151209370Y-56214285D01*
X151209370Y-56214285D02*
X151018894Y-56214285D01*
X151018894Y-56214285D02*
X150923656Y-56261904D01*
X150923656Y-56261904D02*
X150876037Y-56309523D01*
X150876037Y-56309523D02*
X150828418Y-56404761D01*
X152454819Y-62416666D02*
X151978628Y-62749999D01*
X152454819Y-62988094D02*
X151454819Y-62988094D01*
X151454819Y-62988094D02*
X151454819Y-62607142D01*
X151454819Y-62607142D02*
X151502438Y-62511904D01*
X151502438Y-62511904D02*
X151550057Y-62464285D01*
X151550057Y-62464285D02*
X151645295Y-62416666D01*
X151645295Y-62416666D02*
X151788152Y-62416666D01*
X151788152Y-62416666D02*
X151883390Y-62464285D01*
X151883390Y-62464285D02*
X151931009Y-62511904D01*
X151931009Y-62511904D02*
X151978628Y-62607142D01*
X151978628Y-62607142D02*
X151978628Y-62988094D01*
X152454819Y-61940475D02*
X152454819Y-61749999D01*
X152454819Y-61749999D02*
X152407200Y-61654761D01*
X152407200Y-61654761D02*
X152359580Y-61607142D01*
X152359580Y-61607142D02*
X152216723Y-61511904D01*
X152216723Y-61511904D02*
X152026247Y-61464285D01*
X152026247Y-61464285D02*
X151645295Y-61464285D01*
X151645295Y-61464285D02*
X151550057Y-61511904D01*
X151550057Y-61511904D02*
X151502438Y-61559523D01*
X151502438Y-61559523D02*
X151454819Y-61654761D01*
X151454819Y-61654761D02*
X151454819Y-61845237D01*
X151454819Y-61845237D02*
X151502438Y-61940475D01*
X151502438Y-61940475D02*
X151550057Y-61988094D01*
X151550057Y-61988094D02*
X151645295Y-62035713D01*
X151645295Y-62035713D02*
X151883390Y-62035713D01*
X151883390Y-62035713D02*
X151978628Y-61988094D01*
X151978628Y-61988094D02*
X152026247Y-61940475D01*
X152026247Y-61940475D02*
X152073866Y-61845237D01*
X152073866Y-61845237D02*
X152073866Y-61654761D01*
X152073866Y-61654761D02*
X152026247Y-61559523D01*
X152026247Y-61559523D02*
X151978628Y-61511904D01*
X151978628Y-61511904D02*
X151883390Y-61464285D01*
X105107142Y-54954819D02*
X104773809Y-54478628D01*
X104535714Y-54954819D02*
X104535714Y-53954819D01*
X104535714Y-53954819D02*
X104916666Y-53954819D01*
X104916666Y-53954819D02*
X105011904Y-54002438D01*
X105011904Y-54002438D02*
X105059523Y-54050057D01*
X105059523Y-54050057D02*
X105107142Y-54145295D01*
X105107142Y-54145295D02*
X105107142Y-54288152D01*
X105107142Y-54288152D02*
X105059523Y-54383390D01*
X105059523Y-54383390D02*
X105011904Y-54431009D01*
X105011904Y-54431009D02*
X104916666Y-54478628D01*
X104916666Y-54478628D02*
X104535714Y-54478628D01*
X106059523Y-54954819D02*
X105488095Y-54954819D01*
X105773809Y-54954819D02*
X105773809Y-53954819D01*
X105773809Y-53954819D02*
X105678571Y-54097676D01*
X105678571Y-54097676D02*
X105583333Y-54192914D01*
X105583333Y-54192914D02*
X105488095Y-54240533D01*
X106440476Y-54050057D02*
X106488095Y-54002438D01*
X106488095Y-54002438D02*
X106583333Y-53954819D01*
X106583333Y-53954819D02*
X106821428Y-53954819D01*
X106821428Y-53954819D02*
X106916666Y-54002438D01*
X106916666Y-54002438D02*
X106964285Y-54050057D01*
X106964285Y-54050057D02*
X107011904Y-54145295D01*
X107011904Y-54145295D02*
X107011904Y-54240533D01*
X107011904Y-54240533D02*
X106964285Y-54383390D01*
X106964285Y-54383390D02*
X106392857Y-54954819D01*
X106392857Y-54954819D02*
X107011904Y-54954819D01*
X114607142Y-64859580D02*
X114559523Y-64907200D01*
X114559523Y-64907200D02*
X114416666Y-64954819D01*
X114416666Y-64954819D02*
X114321428Y-64954819D01*
X114321428Y-64954819D02*
X114178571Y-64907200D01*
X114178571Y-64907200D02*
X114083333Y-64811961D01*
X114083333Y-64811961D02*
X114035714Y-64716723D01*
X114035714Y-64716723D02*
X113988095Y-64526247D01*
X113988095Y-64526247D02*
X113988095Y-64383390D01*
X113988095Y-64383390D02*
X114035714Y-64192914D01*
X114035714Y-64192914D02*
X114083333Y-64097676D01*
X114083333Y-64097676D02*
X114178571Y-64002438D01*
X114178571Y-64002438D02*
X114321428Y-63954819D01*
X114321428Y-63954819D02*
X114416666Y-63954819D01*
X114416666Y-63954819D02*
X114559523Y-64002438D01*
X114559523Y-64002438D02*
X114607142Y-64050057D01*
X114988095Y-64050057D02*
X115035714Y-64002438D01*
X115035714Y-64002438D02*
X115130952Y-63954819D01*
X115130952Y-63954819D02*
X115369047Y-63954819D01*
X115369047Y-63954819D02*
X115464285Y-64002438D01*
X115464285Y-64002438D02*
X115511904Y-64050057D01*
X115511904Y-64050057D02*
X115559523Y-64145295D01*
X115559523Y-64145295D02*
X115559523Y-64240533D01*
X115559523Y-64240533D02*
X115511904Y-64383390D01*
X115511904Y-64383390D02*
X114940476Y-64954819D01*
X114940476Y-64954819D02*
X115559523Y-64954819D01*
X116416666Y-64288152D02*
X116416666Y-64954819D01*
X116178571Y-63907200D02*
X115940476Y-64621485D01*
X115940476Y-64621485D02*
X116559523Y-64621485D01*
X114607142Y-68664552D02*
X114559523Y-68712172D01*
X114559523Y-68712172D02*
X114416666Y-68759791D01*
X114416666Y-68759791D02*
X114321428Y-68759791D01*
X114321428Y-68759791D02*
X114178571Y-68712172D01*
X114178571Y-68712172D02*
X114083333Y-68616933D01*
X114083333Y-68616933D02*
X114035714Y-68521695D01*
X114035714Y-68521695D02*
X113988095Y-68331219D01*
X113988095Y-68331219D02*
X113988095Y-68188362D01*
X113988095Y-68188362D02*
X114035714Y-67997886D01*
X114035714Y-67997886D02*
X114083333Y-67902648D01*
X114083333Y-67902648D02*
X114178571Y-67807410D01*
X114178571Y-67807410D02*
X114321428Y-67759791D01*
X114321428Y-67759791D02*
X114416666Y-67759791D01*
X114416666Y-67759791D02*
X114559523Y-67807410D01*
X114559523Y-67807410D02*
X114607142Y-67855029D01*
X114988095Y-67855029D02*
X115035714Y-67807410D01*
X115035714Y-67807410D02*
X115130952Y-67759791D01*
X115130952Y-67759791D02*
X115369047Y-67759791D01*
X115369047Y-67759791D02*
X115464285Y-67807410D01*
X115464285Y-67807410D02*
X115511904Y-67855029D01*
X115511904Y-67855029D02*
X115559523Y-67950267D01*
X115559523Y-67950267D02*
X115559523Y-68045505D01*
X115559523Y-68045505D02*
X115511904Y-68188362D01*
X115511904Y-68188362D02*
X114940476Y-68759791D01*
X114940476Y-68759791D02*
X115559523Y-68759791D01*
X115892857Y-67759791D02*
X116511904Y-67759791D01*
X116511904Y-67759791D02*
X116178571Y-68140743D01*
X116178571Y-68140743D02*
X116321428Y-68140743D01*
X116321428Y-68140743D02*
X116416666Y-68188362D01*
X116416666Y-68188362D02*
X116464285Y-68235981D01*
X116464285Y-68235981D02*
X116511904Y-68331219D01*
X116511904Y-68331219D02*
X116511904Y-68569314D01*
X116511904Y-68569314D02*
X116464285Y-68664552D01*
X116464285Y-68664552D02*
X116416666Y-68712172D01*
X116416666Y-68712172D02*
X116321428Y-68759791D01*
X116321428Y-68759791D02*
X116035714Y-68759791D01*
X116035714Y-68759791D02*
X115940476Y-68712172D01*
X115940476Y-68712172D02*
X115892857Y-68664552D01*
X123857142Y-98954819D02*
X123523809Y-98478628D01*
X123285714Y-98954819D02*
X123285714Y-97954819D01*
X123285714Y-97954819D02*
X123666666Y-97954819D01*
X123666666Y-97954819D02*
X123761904Y-98002438D01*
X123761904Y-98002438D02*
X123809523Y-98050057D01*
X123809523Y-98050057D02*
X123857142Y-98145295D01*
X123857142Y-98145295D02*
X123857142Y-98288152D01*
X123857142Y-98288152D02*
X123809523Y-98383390D01*
X123809523Y-98383390D02*
X123761904Y-98431009D01*
X123761904Y-98431009D02*
X123666666Y-98478628D01*
X123666666Y-98478628D02*
X123285714Y-98478628D01*
X124809523Y-98954819D02*
X124238095Y-98954819D01*
X124523809Y-98954819D02*
X124523809Y-97954819D01*
X124523809Y-97954819D02*
X124428571Y-98097676D01*
X124428571Y-98097676D02*
X124333333Y-98192914D01*
X124333333Y-98192914D02*
X124238095Y-98240533D01*
X125714285Y-97954819D02*
X125238095Y-97954819D01*
X125238095Y-97954819D02*
X125190476Y-98431009D01*
X125190476Y-98431009D02*
X125238095Y-98383390D01*
X125238095Y-98383390D02*
X125333333Y-98335771D01*
X125333333Y-98335771D02*
X125571428Y-98335771D01*
X125571428Y-98335771D02*
X125666666Y-98383390D01*
X125666666Y-98383390D02*
X125714285Y-98431009D01*
X125714285Y-98431009D02*
X125761904Y-98526247D01*
X125761904Y-98526247D02*
X125761904Y-98764342D01*
X125761904Y-98764342D02*
X125714285Y-98859580D01*
X125714285Y-98859580D02*
X125666666Y-98907200D01*
X125666666Y-98907200D02*
X125571428Y-98954819D01*
X125571428Y-98954819D02*
X125333333Y-98954819D01*
X125333333Y-98954819D02*
X125238095Y-98907200D01*
X125238095Y-98907200D02*
X125190476Y-98859580D01*
X133607142Y-98954819D02*
X133273809Y-98478628D01*
X133035714Y-98954819D02*
X133035714Y-97954819D01*
X133035714Y-97954819D02*
X133416666Y-97954819D01*
X133416666Y-97954819D02*
X133511904Y-98002438D01*
X133511904Y-98002438D02*
X133559523Y-98050057D01*
X133559523Y-98050057D02*
X133607142Y-98145295D01*
X133607142Y-98145295D02*
X133607142Y-98288152D01*
X133607142Y-98288152D02*
X133559523Y-98383390D01*
X133559523Y-98383390D02*
X133511904Y-98431009D01*
X133511904Y-98431009D02*
X133416666Y-98478628D01*
X133416666Y-98478628D02*
X133035714Y-98478628D01*
X134559523Y-98954819D02*
X133988095Y-98954819D01*
X134273809Y-98954819D02*
X134273809Y-97954819D01*
X134273809Y-97954819D02*
X134178571Y-98097676D01*
X134178571Y-98097676D02*
X134083333Y-98192914D01*
X134083333Y-98192914D02*
X133988095Y-98240533D01*
X135416666Y-97954819D02*
X135226190Y-97954819D01*
X135226190Y-97954819D02*
X135130952Y-98002438D01*
X135130952Y-98002438D02*
X135083333Y-98050057D01*
X135083333Y-98050057D02*
X134988095Y-98192914D01*
X134988095Y-98192914D02*
X134940476Y-98383390D01*
X134940476Y-98383390D02*
X134940476Y-98764342D01*
X134940476Y-98764342D02*
X134988095Y-98859580D01*
X134988095Y-98859580D02*
X135035714Y-98907200D01*
X135035714Y-98907200D02*
X135130952Y-98954819D01*
X135130952Y-98954819D02*
X135321428Y-98954819D01*
X135321428Y-98954819D02*
X135416666Y-98907200D01*
X135416666Y-98907200D02*
X135464285Y-98859580D01*
X135464285Y-98859580D02*
X135511904Y-98764342D01*
X135511904Y-98764342D02*
X135511904Y-98526247D01*
X135511904Y-98526247D02*
X135464285Y-98431009D01*
X135464285Y-98431009D02*
X135416666Y-98383390D01*
X135416666Y-98383390D02*
X135321428Y-98335771D01*
X135321428Y-98335771D02*
X135130952Y-98335771D01*
X135130952Y-98335771D02*
X135035714Y-98383390D01*
X135035714Y-98383390D02*
X134988095Y-98431009D01*
X134988095Y-98431009D02*
X134940476Y-98526247D01*
X186054608Y-95892857D02*
X186102228Y-95940476D01*
X186102228Y-95940476D02*
X186149847Y-96083333D01*
X186149847Y-96083333D02*
X186149847Y-96178571D01*
X186149847Y-96178571D02*
X186102228Y-96321428D01*
X186102228Y-96321428D02*
X186006989Y-96416666D01*
X186006989Y-96416666D02*
X185911751Y-96464285D01*
X185911751Y-96464285D02*
X185721275Y-96511904D01*
X185721275Y-96511904D02*
X185578418Y-96511904D01*
X185578418Y-96511904D02*
X185387942Y-96464285D01*
X185387942Y-96464285D02*
X185292704Y-96416666D01*
X185292704Y-96416666D02*
X185197466Y-96321428D01*
X185197466Y-96321428D02*
X185149847Y-96178571D01*
X185149847Y-96178571D02*
X185149847Y-96083333D01*
X185149847Y-96083333D02*
X185197466Y-95940476D01*
X185197466Y-95940476D02*
X185245085Y-95892857D01*
X186149847Y-94940476D02*
X186149847Y-95511904D01*
X186149847Y-95226190D02*
X185149847Y-95226190D01*
X185149847Y-95226190D02*
X185292704Y-95321428D01*
X185292704Y-95321428D02*
X185387942Y-95416666D01*
X185387942Y-95416666D02*
X185435561Y-95511904D01*
X185483180Y-94083333D02*
X186149847Y-94083333D01*
X185102228Y-94321428D02*
X185816513Y-94559523D01*
X185816513Y-94559523D02*
X185816513Y-93940476D01*
X182109580Y-96642857D02*
X182157200Y-96690476D01*
X182157200Y-96690476D02*
X182204819Y-96833333D01*
X182204819Y-96833333D02*
X182204819Y-96928571D01*
X182204819Y-96928571D02*
X182157200Y-97071428D01*
X182157200Y-97071428D02*
X182061961Y-97166666D01*
X182061961Y-97166666D02*
X181966723Y-97214285D01*
X181966723Y-97214285D02*
X181776247Y-97261904D01*
X181776247Y-97261904D02*
X181633390Y-97261904D01*
X181633390Y-97261904D02*
X181442914Y-97214285D01*
X181442914Y-97214285D02*
X181347676Y-97166666D01*
X181347676Y-97166666D02*
X181252438Y-97071428D01*
X181252438Y-97071428D02*
X181204819Y-96928571D01*
X181204819Y-96928571D02*
X181204819Y-96833333D01*
X181204819Y-96833333D02*
X181252438Y-96690476D01*
X181252438Y-96690476D02*
X181300057Y-96642857D01*
X182204819Y-95690476D02*
X182204819Y-96261904D01*
X182204819Y-95976190D02*
X181204819Y-95976190D01*
X181204819Y-95976190D02*
X181347676Y-96071428D01*
X181347676Y-96071428D02*
X181442914Y-96166666D01*
X181442914Y-96166666D02*
X181490533Y-96261904D01*
X181204819Y-95357142D02*
X181204819Y-94738095D01*
X181204819Y-94738095D02*
X181585771Y-95071428D01*
X181585771Y-95071428D02*
X181585771Y-94928571D01*
X181585771Y-94928571D02*
X181633390Y-94833333D01*
X181633390Y-94833333D02*
X181681009Y-94785714D01*
X181681009Y-94785714D02*
X181776247Y-94738095D01*
X181776247Y-94738095D02*
X182014342Y-94738095D01*
X182014342Y-94738095D02*
X182109580Y-94785714D01*
X182109580Y-94785714D02*
X182157200Y-94833333D01*
X182157200Y-94833333D02*
X182204819Y-94928571D01*
X182204819Y-94928571D02*
X182204819Y-95214285D01*
X182204819Y-95214285D02*
X182157200Y-95309523D01*
X182157200Y-95309523D02*
X182109580Y-95357142D01*
X181859580Y-101166666D02*
X181907200Y-101214285D01*
X181907200Y-101214285D02*
X181954819Y-101357142D01*
X181954819Y-101357142D02*
X181954819Y-101452380D01*
X181954819Y-101452380D02*
X181907200Y-101595237D01*
X181907200Y-101595237D02*
X181811961Y-101690475D01*
X181811961Y-101690475D02*
X181716723Y-101738094D01*
X181716723Y-101738094D02*
X181526247Y-101785713D01*
X181526247Y-101785713D02*
X181383390Y-101785713D01*
X181383390Y-101785713D02*
X181192914Y-101738094D01*
X181192914Y-101738094D02*
X181097676Y-101690475D01*
X181097676Y-101690475D02*
X181002438Y-101595237D01*
X181002438Y-101595237D02*
X180954819Y-101452380D01*
X180954819Y-101452380D02*
X180954819Y-101357142D01*
X180954819Y-101357142D02*
X181002438Y-101214285D01*
X181002438Y-101214285D02*
X181050057Y-101166666D01*
X180954819Y-100833332D02*
X180954819Y-100166666D01*
X180954819Y-100166666D02*
X181954819Y-100595237D01*
X195204819Y-72761904D02*
X194204819Y-72761904D01*
X194681009Y-72761904D02*
X194681009Y-72190476D01*
X195204819Y-72190476D02*
X194204819Y-72190476D01*
X194204819Y-71714285D02*
X195014342Y-71714285D01*
X195014342Y-71714285D02*
X195109580Y-71666666D01*
X195109580Y-71666666D02*
X195157200Y-71619047D01*
X195157200Y-71619047D02*
X195204819Y-71523809D01*
X195204819Y-71523809D02*
X195204819Y-71333333D01*
X195204819Y-71333333D02*
X195157200Y-71238095D01*
X195157200Y-71238095D02*
X195109580Y-71190476D01*
X195109580Y-71190476D02*
X195014342Y-71142857D01*
X195014342Y-71142857D02*
X194204819Y-71142857D01*
X194681009Y-70333333D02*
X194728628Y-70190476D01*
X194728628Y-70190476D02*
X194776247Y-70142857D01*
X194776247Y-70142857D02*
X194871485Y-70095238D01*
X194871485Y-70095238D02*
X195014342Y-70095238D01*
X195014342Y-70095238D02*
X195109580Y-70142857D01*
X195109580Y-70142857D02*
X195157200Y-70190476D01*
X195157200Y-70190476D02*
X195204819Y-70285714D01*
X195204819Y-70285714D02*
X195204819Y-70666666D01*
X195204819Y-70666666D02*
X194204819Y-70666666D01*
X194204819Y-70666666D02*
X194204819Y-70333333D01*
X194204819Y-70333333D02*
X194252438Y-70238095D01*
X194252438Y-70238095D02*
X194300057Y-70190476D01*
X194300057Y-70190476D02*
X194395295Y-70142857D01*
X194395295Y-70142857D02*
X194490533Y-70142857D01*
X194490533Y-70142857D02*
X194585771Y-70190476D01*
X194585771Y-70190476D02*
X194633390Y-70238095D01*
X194633390Y-70238095D02*
X194681009Y-70333333D01*
X194681009Y-70333333D02*
X194681009Y-70666666D01*
X195300057Y-69904762D02*
X195300057Y-69142857D01*
X195204819Y-68904761D02*
X194204819Y-68904761D01*
X194204819Y-68904761D02*
X194204819Y-68523809D01*
X194204819Y-68523809D02*
X194252438Y-68428571D01*
X194252438Y-68428571D02*
X194300057Y-68380952D01*
X194300057Y-68380952D02*
X194395295Y-68333333D01*
X194395295Y-68333333D02*
X194538152Y-68333333D01*
X194538152Y-68333333D02*
X194633390Y-68380952D01*
X194633390Y-68380952D02*
X194681009Y-68428571D01*
X194681009Y-68428571D02*
X194728628Y-68523809D01*
X194728628Y-68523809D02*
X194728628Y-68904761D01*
X194204819Y-67999999D02*
X195204819Y-67761904D01*
X195204819Y-67761904D02*
X194490533Y-67571428D01*
X194490533Y-67571428D02*
X195204819Y-67380952D01*
X195204819Y-67380952D02*
X194204819Y-67142857D01*
X195204819Y-66190476D02*
X194728628Y-66523809D01*
X195204819Y-66761904D02*
X194204819Y-66761904D01*
X194204819Y-66761904D02*
X194204819Y-66380952D01*
X194204819Y-66380952D02*
X194252438Y-66285714D01*
X194252438Y-66285714D02*
X194300057Y-66238095D01*
X194300057Y-66238095D02*
X194395295Y-66190476D01*
X194395295Y-66190476D02*
X194538152Y-66190476D01*
X194538152Y-66190476D02*
X194633390Y-66238095D01*
X194633390Y-66238095D02*
X194681009Y-66285714D01*
X194681009Y-66285714D02*
X194728628Y-66380952D01*
X194728628Y-66380952D02*
X194728628Y-66761904D01*
X173660595Y-90054819D02*
X173660595Y-90864342D01*
X173660595Y-90864342D02*
X173708214Y-90959580D01*
X173708214Y-90959580D02*
X173755833Y-91007200D01*
X173755833Y-91007200D02*
X173851071Y-91054819D01*
X173851071Y-91054819D02*
X174041547Y-91054819D01*
X174041547Y-91054819D02*
X174136785Y-91007200D01*
X174136785Y-91007200D02*
X174184404Y-90959580D01*
X174184404Y-90959580D02*
X174232023Y-90864342D01*
X174232023Y-90864342D02*
X174232023Y-90054819D01*
X175232023Y-91054819D02*
X174660595Y-91054819D01*
X174946309Y-91054819D02*
X174946309Y-90054819D01*
X174946309Y-90054819D02*
X174851071Y-90197676D01*
X174851071Y-90197676D02*
X174755833Y-90292914D01*
X174755833Y-90292914D02*
X174660595Y-90340533D01*
X156134819Y-59833332D02*
X155134819Y-59833332D01*
X156134819Y-59357142D02*
X155134819Y-59357142D01*
X155134819Y-59357142D02*
X155849104Y-59023809D01*
X155849104Y-59023809D02*
X155134819Y-58690476D01*
X155134819Y-58690476D02*
X156134819Y-58690476D01*
X155134819Y-58214285D02*
X155944342Y-58214285D01*
X155944342Y-58214285D02*
X156039580Y-58166666D01*
X156039580Y-58166666D02*
X156087200Y-58119047D01*
X156087200Y-58119047D02*
X156134819Y-58023809D01*
X156134819Y-58023809D02*
X156134819Y-57833333D01*
X156134819Y-57833333D02*
X156087200Y-57738095D01*
X156087200Y-57738095D02*
X156039580Y-57690476D01*
X156039580Y-57690476D02*
X155944342Y-57642857D01*
X155944342Y-57642857D02*
X155134819Y-57642857D01*
X156230057Y-57404762D02*
X156230057Y-56642857D01*
X155134819Y-56547618D02*
X155134819Y-55976190D01*
X156134819Y-56261904D02*
X155134819Y-56261904D01*
X155134819Y-55738094D02*
X156134819Y-55071428D01*
X155134819Y-55071428D02*
X156134819Y-55738094D01*
X106954819Y-95867857D02*
X106478628Y-96201190D01*
X106954819Y-96439285D02*
X105954819Y-96439285D01*
X105954819Y-96439285D02*
X105954819Y-96058333D01*
X105954819Y-96058333D02*
X106002438Y-95963095D01*
X106002438Y-95963095D02*
X106050057Y-95915476D01*
X106050057Y-95915476D02*
X106145295Y-95867857D01*
X106145295Y-95867857D02*
X106288152Y-95867857D01*
X106288152Y-95867857D02*
X106383390Y-95915476D01*
X106383390Y-95915476D02*
X106431009Y-95963095D01*
X106431009Y-95963095D02*
X106478628Y-96058333D01*
X106478628Y-96058333D02*
X106478628Y-96439285D01*
X106954819Y-94915476D02*
X106954819Y-95486904D01*
X106954819Y-95201190D02*
X105954819Y-95201190D01*
X105954819Y-95201190D02*
X106097676Y-95296428D01*
X106097676Y-95296428D02*
X106192914Y-95391666D01*
X106192914Y-95391666D02*
X106240533Y-95486904D01*
X106383390Y-94344047D02*
X106335771Y-94439285D01*
X106335771Y-94439285D02*
X106288152Y-94486904D01*
X106288152Y-94486904D02*
X106192914Y-94534523D01*
X106192914Y-94534523D02*
X106145295Y-94534523D01*
X106145295Y-94534523D02*
X106050057Y-94486904D01*
X106050057Y-94486904D02*
X106002438Y-94439285D01*
X106002438Y-94439285D02*
X105954819Y-94344047D01*
X105954819Y-94344047D02*
X105954819Y-94153571D01*
X105954819Y-94153571D02*
X106002438Y-94058333D01*
X106002438Y-94058333D02*
X106050057Y-94010714D01*
X106050057Y-94010714D02*
X106145295Y-93963095D01*
X106145295Y-93963095D02*
X106192914Y-93963095D01*
X106192914Y-93963095D02*
X106288152Y-94010714D01*
X106288152Y-94010714D02*
X106335771Y-94058333D01*
X106335771Y-94058333D02*
X106383390Y-94153571D01*
X106383390Y-94153571D02*
X106383390Y-94344047D01*
X106383390Y-94344047D02*
X106431009Y-94439285D01*
X106431009Y-94439285D02*
X106478628Y-94486904D01*
X106478628Y-94486904D02*
X106573866Y-94534523D01*
X106573866Y-94534523D02*
X106764342Y-94534523D01*
X106764342Y-94534523D02*
X106859580Y-94486904D01*
X106859580Y-94486904D02*
X106907200Y-94439285D01*
X106907200Y-94439285D02*
X106954819Y-94344047D01*
X106954819Y-94344047D02*
X106954819Y-94153571D01*
X106954819Y-94153571D02*
X106907200Y-94058333D01*
X106907200Y-94058333D02*
X106859580Y-94010714D01*
X106859580Y-94010714D02*
X106764342Y-93963095D01*
X106764342Y-93963095D02*
X106573866Y-93963095D01*
X106573866Y-93963095D02*
X106478628Y-94010714D01*
X106478628Y-94010714D02*
X106431009Y-94058333D01*
X106431009Y-94058333D02*
X106383390Y-94153571D01*
X187033333Y-99724819D02*
X186700000Y-99248628D01*
X186461905Y-99724819D02*
X186461905Y-98724819D01*
X186461905Y-98724819D02*
X186842857Y-98724819D01*
X186842857Y-98724819D02*
X186938095Y-98772438D01*
X186938095Y-98772438D02*
X186985714Y-98820057D01*
X186985714Y-98820057D02*
X187033333Y-98915295D01*
X187033333Y-98915295D02*
X187033333Y-99058152D01*
X187033333Y-99058152D02*
X186985714Y-99153390D01*
X186985714Y-99153390D02*
X186938095Y-99201009D01*
X186938095Y-99201009D02*
X186842857Y-99248628D01*
X186842857Y-99248628D02*
X186461905Y-99248628D01*
X187890476Y-98724819D02*
X187700000Y-98724819D01*
X187700000Y-98724819D02*
X187604762Y-98772438D01*
X187604762Y-98772438D02*
X187557143Y-98820057D01*
X187557143Y-98820057D02*
X187461905Y-98962914D01*
X187461905Y-98962914D02*
X187414286Y-99153390D01*
X187414286Y-99153390D02*
X187414286Y-99534342D01*
X187414286Y-99534342D02*
X187461905Y-99629580D01*
X187461905Y-99629580D02*
X187509524Y-99677200D01*
X187509524Y-99677200D02*
X187604762Y-99724819D01*
X187604762Y-99724819D02*
X187795238Y-99724819D01*
X187795238Y-99724819D02*
X187890476Y-99677200D01*
X187890476Y-99677200D02*
X187938095Y-99629580D01*
X187938095Y-99629580D02*
X187985714Y-99534342D01*
X187985714Y-99534342D02*
X187985714Y-99296247D01*
X187985714Y-99296247D02*
X187938095Y-99201009D01*
X187938095Y-99201009D02*
X187890476Y-99153390D01*
X187890476Y-99153390D02*
X187795238Y-99105771D01*
X187795238Y-99105771D02*
X187604762Y-99105771D01*
X187604762Y-99105771D02*
X187509524Y-99153390D01*
X187509524Y-99153390D02*
X187461905Y-99201009D01*
X187461905Y-99201009D02*
X187414286Y-99296247D01*
X102657200Y-87654761D02*
X102704819Y-87511904D01*
X102704819Y-87511904D02*
X102704819Y-87273809D01*
X102704819Y-87273809D02*
X102657200Y-87178571D01*
X102657200Y-87178571D02*
X102609580Y-87130952D01*
X102609580Y-87130952D02*
X102514342Y-87083333D01*
X102514342Y-87083333D02*
X102419104Y-87083333D01*
X102419104Y-87083333D02*
X102323866Y-87130952D01*
X102323866Y-87130952D02*
X102276247Y-87178571D01*
X102276247Y-87178571D02*
X102228628Y-87273809D01*
X102228628Y-87273809D02*
X102181009Y-87464285D01*
X102181009Y-87464285D02*
X102133390Y-87559523D01*
X102133390Y-87559523D02*
X102085771Y-87607142D01*
X102085771Y-87607142D02*
X101990533Y-87654761D01*
X101990533Y-87654761D02*
X101895295Y-87654761D01*
X101895295Y-87654761D02*
X101800057Y-87607142D01*
X101800057Y-87607142D02*
X101752438Y-87559523D01*
X101752438Y-87559523D02*
X101704819Y-87464285D01*
X101704819Y-87464285D02*
X101704819Y-87226190D01*
X101704819Y-87226190D02*
X101752438Y-87083333D01*
X101704819Y-86797618D02*
X101704819Y-86226190D01*
X102704819Y-86511904D02*
X101704819Y-86511904D01*
X102800057Y-86130952D02*
X102800057Y-85369047D01*
X101704819Y-85273808D02*
X101704819Y-84702380D01*
X102704819Y-84988094D02*
X101704819Y-84988094D01*
X101704819Y-84464284D02*
X102704819Y-83797618D01*
X101704819Y-83797618D02*
X102704819Y-84464284D01*
X191704819Y-63666666D02*
X191228628Y-63999999D01*
X191704819Y-64238094D02*
X190704819Y-64238094D01*
X190704819Y-64238094D02*
X190704819Y-63857142D01*
X190704819Y-63857142D02*
X190752438Y-63761904D01*
X190752438Y-63761904D02*
X190800057Y-63714285D01*
X190800057Y-63714285D02*
X190895295Y-63666666D01*
X190895295Y-63666666D02*
X191038152Y-63666666D01*
X191038152Y-63666666D02*
X191133390Y-63714285D01*
X191133390Y-63714285D02*
X191181009Y-63761904D01*
X191181009Y-63761904D02*
X191228628Y-63857142D01*
X191228628Y-63857142D02*
X191228628Y-64238094D01*
X190704819Y-63333332D02*
X190704819Y-62714285D01*
X190704819Y-62714285D02*
X191085771Y-63047618D01*
X191085771Y-63047618D02*
X191085771Y-62904761D01*
X191085771Y-62904761D02*
X191133390Y-62809523D01*
X191133390Y-62809523D02*
X191181009Y-62761904D01*
X191181009Y-62761904D02*
X191276247Y-62714285D01*
X191276247Y-62714285D02*
X191514342Y-62714285D01*
X191514342Y-62714285D02*
X191609580Y-62761904D01*
X191609580Y-62761904D02*
X191657200Y-62809523D01*
X191657200Y-62809523D02*
X191704819Y-62904761D01*
X191704819Y-62904761D02*
X191704819Y-63190475D01*
X191704819Y-63190475D02*
X191657200Y-63285713D01*
X191657200Y-63285713D02*
X191609580Y-63333332D01*
X106779819Y-91611904D02*
X107589342Y-91611904D01*
X107589342Y-91611904D02*
X107684580Y-91564285D01*
X107684580Y-91564285D02*
X107732200Y-91516666D01*
X107732200Y-91516666D02*
X107779819Y-91421428D01*
X107779819Y-91421428D02*
X107779819Y-91230952D01*
X107779819Y-91230952D02*
X107732200Y-91135714D01*
X107732200Y-91135714D02*
X107684580Y-91088095D01*
X107684580Y-91088095D02*
X107589342Y-91040476D01*
X107589342Y-91040476D02*
X106779819Y-91040476D01*
X106779819Y-90135714D02*
X106779819Y-90326190D01*
X106779819Y-90326190D02*
X106827438Y-90421428D01*
X106827438Y-90421428D02*
X106875057Y-90469047D01*
X106875057Y-90469047D02*
X107017914Y-90564285D01*
X107017914Y-90564285D02*
X107208390Y-90611904D01*
X107208390Y-90611904D02*
X107589342Y-90611904D01*
X107589342Y-90611904D02*
X107684580Y-90564285D01*
X107684580Y-90564285D02*
X107732200Y-90516666D01*
X107732200Y-90516666D02*
X107779819Y-90421428D01*
X107779819Y-90421428D02*
X107779819Y-90230952D01*
X107779819Y-90230952D02*
X107732200Y-90135714D01*
X107732200Y-90135714D02*
X107684580Y-90088095D01*
X107684580Y-90088095D02*
X107589342Y-90040476D01*
X107589342Y-90040476D02*
X107351247Y-90040476D01*
X107351247Y-90040476D02*
X107256009Y-90088095D01*
X107256009Y-90088095D02*
X107208390Y-90135714D01*
X107208390Y-90135714D02*
X107160771Y-90230952D01*
X107160771Y-90230952D02*
X107160771Y-90421428D01*
X107160771Y-90421428D02*
X107208390Y-90516666D01*
X107208390Y-90516666D02*
X107256009Y-90564285D01*
X107256009Y-90564285D02*
X107351247Y-90611904D01*
X194704819Y-59119047D02*
X195514342Y-59119047D01*
X195514342Y-59119047D02*
X195609580Y-59071428D01*
X195609580Y-59071428D02*
X195657200Y-59023809D01*
X195657200Y-59023809D02*
X195704819Y-58928571D01*
X195704819Y-58928571D02*
X195704819Y-58738095D01*
X195704819Y-58738095D02*
X195657200Y-58642857D01*
X195657200Y-58642857D02*
X195609580Y-58595238D01*
X195609580Y-58595238D02*
X195514342Y-58547619D01*
X195514342Y-58547619D02*
X194704819Y-58547619D01*
X195657200Y-58119047D02*
X195704819Y-57976190D01*
X195704819Y-57976190D02*
X195704819Y-57738095D01*
X195704819Y-57738095D02*
X195657200Y-57642857D01*
X195657200Y-57642857D02*
X195609580Y-57595238D01*
X195609580Y-57595238D02*
X195514342Y-57547619D01*
X195514342Y-57547619D02*
X195419104Y-57547619D01*
X195419104Y-57547619D02*
X195323866Y-57595238D01*
X195323866Y-57595238D02*
X195276247Y-57642857D01*
X195276247Y-57642857D02*
X195228628Y-57738095D01*
X195228628Y-57738095D02*
X195181009Y-57928571D01*
X195181009Y-57928571D02*
X195133390Y-58023809D01*
X195133390Y-58023809D02*
X195085771Y-58071428D01*
X195085771Y-58071428D02*
X194990533Y-58119047D01*
X194990533Y-58119047D02*
X194895295Y-58119047D01*
X194895295Y-58119047D02*
X194800057Y-58071428D01*
X194800057Y-58071428D02*
X194752438Y-58023809D01*
X194752438Y-58023809D02*
X194704819Y-57928571D01*
X194704819Y-57928571D02*
X194704819Y-57690476D01*
X194704819Y-57690476D02*
X194752438Y-57547619D01*
X195181009Y-56785714D02*
X195228628Y-56642857D01*
X195228628Y-56642857D02*
X195276247Y-56595238D01*
X195276247Y-56595238D02*
X195371485Y-56547619D01*
X195371485Y-56547619D02*
X195514342Y-56547619D01*
X195514342Y-56547619D02*
X195609580Y-56595238D01*
X195609580Y-56595238D02*
X195657200Y-56642857D01*
X195657200Y-56642857D02*
X195704819Y-56738095D01*
X195704819Y-56738095D02*
X195704819Y-57119047D01*
X195704819Y-57119047D02*
X194704819Y-57119047D01*
X194704819Y-57119047D02*
X194704819Y-56785714D01*
X194704819Y-56785714D02*
X194752438Y-56690476D01*
X194752438Y-56690476D02*
X194800057Y-56642857D01*
X194800057Y-56642857D02*
X194895295Y-56595238D01*
X194895295Y-56595238D02*
X194990533Y-56595238D01*
X194990533Y-56595238D02*
X195085771Y-56642857D01*
X195085771Y-56642857D02*
X195133390Y-56690476D01*
X195133390Y-56690476D02*
X195181009Y-56785714D01*
X195181009Y-56785714D02*
X195181009Y-57119047D01*
X195800057Y-56357143D02*
X195800057Y-55595238D01*
X195704819Y-54833333D02*
X195704819Y-55404761D01*
X195704819Y-55119047D02*
X194704819Y-55119047D01*
X194704819Y-55119047D02*
X194847676Y-55214285D01*
X194847676Y-55214285D02*
X194942914Y-55309523D01*
X194942914Y-55309523D02*
X194990533Y-55404761D01*
X194454819Y-65269047D02*
X195264342Y-65269047D01*
X195264342Y-65269047D02*
X195359580Y-65221428D01*
X195359580Y-65221428D02*
X195407200Y-65173809D01*
X195407200Y-65173809D02*
X195454819Y-65078571D01*
X195454819Y-65078571D02*
X195454819Y-64888095D01*
X195454819Y-64888095D02*
X195407200Y-64792857D01*
X195407200Y-64792857D02*
X195359580Y-64745238D01*
X195359580Y-64745238D02*
X195264342Y-64697619D01*
X195264342Y-64697619D02*
X194454819Y-64697619D01*
X195407200Y-64269047D02*
X195454819Y-64126190D01*
X195454819Y-64126190D02*
X195454819Y-63888095D01*
X195454819Y-63888095D02*
X195407200Y-63792857D01*
X195407200Y-63792857D02*
X195359580Y-63745238D01*
X195359580Y-63745238D02*
X195264342Y-63697619D01*
X195264342Y-63697619D02*
X195169104Y-63697619D01*
X195169104Y-63697619D02*
X195073866Y-63745238D01*
X195073866Y-63745238D02*
X195026247Y-63792857D01*
X195026247Y-63792857D02*
X194978628Y-63888095D01*
X194978628Y-63888095D02*
X194931009Y-64078571D01*
X194931009Y-64078571D02*
X194883390Y-64173809D01*
X194883390Y-64173809D02*
X194835771Y-64221428D01*
X194835771Y-64221428D02*
X194740533Y-64269047D01*
X194740533Y-64269047D02*
X194645295Y-64269047D01*
X194645295Y-64269047D02*
X194550057Y-64221428D01*
X194550057Y-64221428D02*
X194502438Y-64173809D01*
X194502438Y-64173809D02*
X194454819Y-64078571D01*
X194454819Y-64078571D02*
X194454819Y-63840476D01*
X194454819Y-63840476D02*
X194502438Y-63697619D01*
X194931009Y-62935714D02*
X194978628Y-62792857D01*
X194978628Y-62792857D02*
X195026247Y-62745238D01*
X195026247Y-62745238D02*
X195121485Y-62697619D01*
X195121485Y-62697619D02*
X195264342Y-62697619D01*
X195264342Y-62697619D02*
X195359580Y-62745238D01*
X195359580Y-62745238D02*
X195407200Y-62792857D01*
X195407200Y-62792857D02*
X195454819Y-62888095D01*
X195454819Y-62888095D02*
X195454819Y-63269047D01*
X195454819Y-63269047D02*
X194454819Y-63269047D01*
X194454819Y-63269047D02*
X194454819Y-62935714D01*
X194454819Y-62935714D02*
X194502438Y-62840476D01*
X194502438Y-62840476D02*
X194550057Y-62792857D01*
X194550057Y-62792857D02*
X194645295Y-62745238D01*
X194645295Y-62745238D02*
X194740533Y-62745238D01*
X194740533Y-62745238D02*
X194835771Y-62792857D01*
X194835771Y-62792857D02*
X194883390Y-62840476D01*
X194883390Y-62840476D02*
X194931009Y-62935714D01*
X194931009Y-62935714D02*
X194931009Y-63269047D01*
X195550057Y-62507143D02*
X195550057Y-61745238D01*
X194550057Y-61554761D02*
X194502438Y-61507142D01*
X194502438Y-61507142D02*
X194454819Y-61411904D01*
X194454819Y-61411904D02*
X194454819Y-61173809D01*
X194454819Y-61173809D02*
X194502438Y-61078571D01*
X194502438Y-61078571D02*
X194550057Y-61030952D01*
X194550057Y-61030952D02*
X194645295Y-60983333D01*
X194645295Y-60983333D02*
X194740533Y-60983333D01*
X194740533Y-60983333D02*
X194883390Y-61030952D01*
X194883390Y-61030952D02*
X195454819Y-61602380D01*
X195454819Y-61602380D02*
X195454819Y-60983333D01*
X106107142Y-62259580D02*
X106059523Y-62307200D01*
X106059523Y-62307200D02*
X105916666Y-62354819D01*
X105916666Y-62354819D02*
X105821428Y-62354819D01*
X105821428Y-62354819D02*
X105678571Y-62307200D01*
X105678571Y-62307200D02*
X105583333Y-62211961D01*
X105583333Y-62211961D02*
X105535714Y-62116723D01*
X105535714Y-62116723D02*
X105488095Y-61926247D01*
X105488095Y-61926247D02*
X105488095Y-61783390D01*
X105488095Y-61783390D02*
X105535714Y-61592914D01*
X105535714Y-61592914D02*
X105583333Y-61497676D01*
X105583333Y-61497676D02*
X105678571Y-61402438D01*
X105678571Y-61402438D02*
X105821428Y-61354819D01*
X105821428Y-61354819D02*
X105916666Y-61354819D01*
X105916666Y-61354819D02*
X106059523Y-61402438D01*
X106059523Y-61402438D02*
X106107142Y-61450057D01*
X107059523Y-62354819D02*
X106488095Y-62354819D01*
X106773809Y-62354819D02*
X106773809Y-61354819D01*
X106773809Y-61354819D02*
X106678571Y-61497676D01*
X106678571Y-61497676D02*
X106583333Y-61592914D01*
X106583333Y-61592914D02*
X106488095Y-61640533D01*
X107678571Y-61354819D02*
X107773809Y-61354819D01*
X107773809Y-61354819D02*
X107869047Y-61402438D01*
X107869047Y-61402438D02*
X107916666Y-61450057D01*
X107916666Y-61450057D02*
X107964285Y-61545295D01*
X107964285Y-61545295D02*
X108011904Y-61735771D01*
X108011904Y-61735771D02*
X108011904Y-61973866D01*
X108011904Y-61973866D02*
X107964285Y-62164342D01*
X107964285Y-62164342D02*
X107916666Y-62259580D01*
X107916666Y-62259580D02*
X107869047Y-62307200D01*
X107869047Y-62307200D02*
X107773809Y-62354819D01*
X107773809Y-62354819D02*
X107678571Y-62354819D01*
X107678571Y-62354819D02*
X107583333Y-62307200D01*
X107583333Y-62307200D02*
X107535714Y-62259580D01*
X107535714Y-62259580D02*
X107488095Y-62164342D01*
X107488095Y-62164342D02*
X107440476Y-61973866D01*
X107440476Y-61973866D02*
X107440476Y-61735771D01*
X107440476Y-61735771D02*
X107488095Y-61545295D01*
X107488095Y-61545295D02*
X107535714Y-61450057D01*
X107535714Y-61450057D02*
X107583333Y-61402438D01*
X107583333Y-61402438D02*
X107678571Y-61354819D01*
X116297619Y-52204819D02*
X116297619Y-51204819D01*
X116297619Y-51204819D02*
X116630952Y-51919104D01*
X116630952Y-51919104D02*
X116964285Y-51204819D01*
X116964285Y-51204819D02*
X116964285Y-52204819D01*
X117297619Y-51204819D02*
X117869047Y-51204819D01*
X117583333Y-52204819D02*
X117583333Y-51204819D01*
X118773809Y-52204819D02*
X118440476Y-51728628D01*
X118202381Y-52204819D02*
X118202381Y-51204819D01*
X118202381Y-51204819D02*
X118583333Y-51204819D01*
X118583333Y-51204819D02*
X118678571Y-51252438D01*
X118678571Y-51252438D02*
X118726190Y-51300057D01*
X118726190Y-51300057D02*
X118773809Y-51395295D01*
X118773809Y-51395295D02*
X118773809Y-51538152D01*
X118773809Y-51538152D02*
X118726190Y-51633390D01*
X118726190Y-51633390D02*
X118678571Y-51681009D01*
X118678571Y-51681009D02*
X118583333Y-51728628D01*
X118583333Y-51728628D02*
X118202381Y-51728628D01*
X118964286Y-52300057D02*
X119726190Y-52300057D01*
X119821429Y-51204819D02*
X120392857Y-51204819D01*
X120107143Y-52204819D02*
X120107143Y-51204819D01*
X120630953Y-51204819D02*
X121297619Y-52204819D01*
X121297619Y-51204819D02*
X120630953Y-52204819D01*
X178359580Y-80316666D02*
X178407200Y-80364285D01*
X178407200Y-80364285D02*
X178454819Y-80507142D01*
X178454819Y-80507142D02*
X178454819Y-80602380D01*
X178454819Y-80602380D02*
X178407200Y-80745237D01*
X178407200Y-80745237D02*
X178311961Y-80840475D01*
X178311961Y-80840475D02*
X178216723Y-80888094D01*
X178216723Y-80888094D02*
X178026247Y-80935713D01*
X178026247Y-80935713D02*
X177883390Y-80935713D01*
X177883390Y-80935713D02*
X177692914Y-80888094D01*
X177692914Y-80888094D02*
X177597676Y-80840475D01*
X177597676Y-80840475D02*
X177502438Y-80745237D01*
X177502438Y-80745237D02*
X177454819Y-80602380D01*
X177454819Y-80602380D02*
X177454819Y-80507142D01*
X177454819Y-80507142D02*
X177502438Y-80364285D01*
X177502438Y-80364285D02*
X177550057Y-80316666D01*
X178454819Y-79364285D02*
X178454819Y-79935713D01*
X178454819Y-79649999D02*
X177454819Y-79649999D01*
X177454819Y-79649999D02*
X177597676Y-79745237D01*
X177597676Y-79745237D02*
X177692914Y-79840475D01*
X177692914Y-79840475D02*
X177740533Y-79935713D01*
X108634819Y-79166666D02*
X108158628Y-79499999D01*
X108634819Y-79738094D02*
X107634819Y-79738094D01*
X107634819Y-79738094D02*
X107634819Y-79357142D01*
X107634819Y-79357142D02*
X107682438Y-79261904D01*
X107682438Y-79261904D02*
X107730057Y-79214285D01*
X107730057Y-79214285D02*
X107825295Y-79166666D01*
X107825295Y-79166666D02*
X107968152Y-79166666D01*
X107968152Y-79166666D02*
X108063390Y-79214285D01*
X108063390Y-79214285D02*
X108111009Y-79261904D01*
X108111009Y-79261904D02*
X108158628Y-79357142D01*
X108158628Y-79357142D02*
X108158628Y-79738094D01*
X107634819Y-78833332D02*
X107634819Y-78166666D01*
X107634819Y-78166666D02*
X108634819Y-78595237D01*
X123509580Y-85642857D02*
X123557200Y-85690476D01*
X123557200Y-85690476D02*
X123604819Y-85833333D01*
X123604819Y-85833333D02*
X123604819Y-85928571D01*
X123604819Y-85928571D02*
X123557200Y-86071428D01*
X123557200Y-86071428D02*
X123461961Y-86166666D01*
X123461961Y-86166666D02*
X123366723Y-86214285D01*
X123366723Y-86214285D02*
X123176247Y-86261904D01*
X123176247Y-86261904D02*
X123033390Y-86261904D01*
X123033390Y-86261904D02*
X122842914Y-86214285D01*
X122842914Y-86214285D02*
X122747676Y-86166666D01*
X122747676Y-86166666D02*
X122652438Y-86071428D01*
X122652438Y-86071428D02*
X122604819Y-85928571D01*
X122604819Y-85928571D02*
X122604819Y-85833333D01*
X122604819Y-85833333D02*
X122652438Y-85690476D01*
X122652438Y-85690476D02*
X122700057Y-85642857D01*
X123604819Y-84690476D02*
X123604819Y-85261904D01*
X123604819Y-84976190D02*
X122604819Y-84976190D01*
X122604819Y-84976190D02*
X122747676Y-85071428D01*
X122747676Y-85071428D02*
X122842914Y-85166666D01*
X122842914Y-85166666D02*
X122890533Y-85261904D01*
X122700057Y-84309523D02*
X122652438Y-84261904D01*
X122652438Y-84261904D02*
X122604819Y-84166666D01*
X122604819Y-84166666D02*
X122604819Y-83928571D01*
X122604819Y-83928571D02*
X122652438Y-83833333D01*
X122652438Y-83833333D02*
X122700057Y-83785714D01*
X122700057Y-83785714D02*
X122795295Y-83738095D01*
X122795295Y-83738095D02*
X122890533Y-83738095D01*
X122890533Y-83738095D02*
X123033390Y-83785714D01*
X123033390Y-83785714D02*
X123604819Y-84357142D01*
X123604819Y-84357142D02*
X123604819Y-83738095D01*
X140204819Y-70511904D02*
X141014342Y-70511904D01*
X141014342Y-70511904D02*
X141109580Y-70464285D01*
X141109580Y-70464285D02*
X141157200Y-70416666D01*
X141157200Y-70416666D02*
X141204819Y-70321428D01*
X141204819Y-70321428D02*
X141204819Y-70130952D01*
X141204819Y-70130952D02*
X141157200Y-70035714D01*
X141157200Y-70035714D02*
X141109580Y-69988095D01*
X141109580Y-69988095D02*
X141014342Y-69940476D01*
X141014342Y-69940476D02*
X140204819Y-69940476D01*
X140300057Y-69511904D02*
X140252438Y-69464285D01*
X140252438Y-69464285D02*
X140204819Y-69369047D01*
X140204819Y-69369047D02*
X140204819Y-69130952D01*
X140204819Y-69130952D02*
X140252438Y-69035714D01*
X140252438Y-69035714D02*
X140300057Y-68988095D01*
X140300057Y-68988095D02*
X140395295Y-68940476D01*
X140395295Y-68940476D02*
X140490533Y-68940476D01*
X140490533Y-68940476D02*
X140633390Y-68988095D01*
X140633390Y-68988095D02*
X141204819Y-69559523D01*
X141204819Y-69559523D02*
X141204819Y-68940476D01*
X118107142Y-56024819D02*
X117773809Y-55548628D01*
X117535714Y-56024819D02*
X117535714Y-55024819D01*
X117535714Y-55024819D02*
X117916666Y-55024819D01*
X117916666Y-55024819D02*
X118011904Y-55072438D01*
X118011904Y-55072438D02*
X118059523Y-55120057D01*
X118059523Y-55120057D02*
X118107142Y-55215295D01*
X118107142Y-55215295D02*
X118107142Y-55358152D01*
X118107142Y-55358152D02*
X118059523Y-55453390D01*
X118059523Y-55453390D02*
X118011904Y-55501009D01*
X118011904Y-55501009D02*
X117916666Y-55548628D01*
X117916666Y-55548628D02*
X117535714Y-55548628D01*
X119059523Y-56024819D02*
X118488095Y-56024819D01*
X118773809Y-56024819D02*
X118773809Y-55024819D01*
X118773809Y-55024819D02*
X118678571Y-55167676D01*
X118678571Y-55167676D02*
X118583333Y-55262914D01*
X118583333Y-55262914D02*
X118488095Y-55310533D01*
X119678571Y-55024819D02*
X119773809Y-55024819D01*
X119773809Y-55024819D02*
X119869047Y-55072438D01*
X119869047Y-55072438D02*
X119916666Y-55120057D01*
X119916666Y-55120057D02*
X119964285Y-55215295D01*
X119964285Y-55215295D02*
X120011904Y-55405771D01*
X120011904Y-55405771D02*
X120011904Y-55643866D01*
X120011904Y-55643866D02*
X119964285Y-55834342D01*
X119964285Y-55834342D02*
X119916666Y-55929580D01*
X119916666Y-55929580D02*
X119869047Y-55977200D01*
X119869047Y-55977200D02*
X119773809Y-56024819D01*
X119773809Y-56024819D02*
X119678571Y-56024819D01*
X119678571Y-56024819D02*
X119583333Y-55977200D01*
X119583333Y-55977200D02*
X119535714Y-55929580D01*
X119535714Y-55929580D02*
X119488095Y-55834342D01*
X119488095Y-55834342D02*
X119440476Y-55643866D01*
X119440476Y-55643866D02*
X119440476Y-55405771D01*
X119440476Y-55405771D02*
X119488095Y-55215295D01*
X119488095Y-55215295D02*
X119535714Y-55120057D01*
X119535714Y-55120057D02*
X119583333Y-55072438D01*
X119583333Y-55072438D02*
X119678571Y-55024819D01*
X130057142Y-83559580D02*
X130009523Y-83607200D01*
X130009523Y-83607200D02*
X129866666Y-83654819D01*
X129866666Y-83654819D02*
X129771428Y-83654819D01*
X129771428Y-83654819D02*
X129628571Y-83607200D01*
X129628571Y-83607200D02*
X129533333Y-83511961D01*
X129533333Y-83511961D02*
X129485714Y-83416723D01*
X129485714Y-83416723D02*
X129438095Y-83226247D01*
X129438095Y-83226247D02*
X129438095Y-83083390D01*
X129438095Y-83083390D02*
X129485714Y-82892914D01*
X129485714Y-82892914D02*
X129533333Y-82797676D01*
X129533333Y-82797676D02*
X129628571Y-82702438D01*
X129628571Y-82702438D02*
X129771428Y-82654819D01*
X129771428Y-82654819D02*
X129866666Y-82654819D01*
X129866666Y-82654819D02*
X130009523Y-82702438D01*
X130009523Y-82702438D02*
X130057142Y-82750057D01*
X131009523Y-83654819D02*
X130438095Y-83654819D01*
X130723809Y-83654819D02*
X130723809Y-82654819D01*
X130723809Y-82654819D02*
X130628571Y-82797676D01*
X130628571Y-82797676D02*
X130533333Y-82892914D01*
X130533333Y-82892914D02*
X130438095Y-82940533D01*
X131342857Y-82654819D02*
X132009523Y-82654819D01*
X132009523Y-82654819D02*
X131580952Y-83654819D01*
X108884819Y-59355357D02*
X108408628Y-59688690D01*
X108884819Y-59926785D02*
X107884819Y-59926785D01*
X107884819Y-59926785D02*
X107884819Y-59545833D01*
X107884819Y-59545833D02*
X107932438Y-59450595D01*
X107932438Y-59450595D02*
X107980057Y-59402976D01*
X107980057Y-59402976D02*
X108075295Y-59355357D01*
X108075295Y-59355357D02*
X108218152Y-59355357D01*
X108218152Y-59355357D02*
X108313390Y-59402976D01*
X108313390Y-59402976D02*
X108361009Y-59450595D01*
X108361009Y-59450595D02*
X108408628Y-59545833D01*
X108408628Y-59545833D02*
X108408628Y-59926785D01*
X108884819Y-58402976D02*
X108884819Y-58974404D01*
X108884819Y-58688690D02*
X107884819Y-58688690D01*
X107884819Y-58688690D02*
X108027676Y-58783928D01*
X108027676Y-58783928D02*
X108122914Y-58879166D01*
X108122914Y-58879166D02*
X108170533Y-58974404D01*
X107884819Y-58069642D02*
X107884819Y-57450595D01*
X107884819Y-57450595D02*
X108265771Y-57783928D01*
X108265771Y-57783928D02*
X108265771Y-57641071D01*
X108265771Y-57641071D02*
X108313390Y-57545833D01*
X108313390Y-57545833D02*
X108361009Y-57498214D01*
X108361009Y-57498214D02*
X108456247Y-57450595D01*
X108456247Y-57450595D02*
X108694342Y-57450595D01*
X108694342Y-57450595D02*
X108789580Y-57498214D01*
X108789580Y-57498214D02*
X108837200Y-57545833D01*
X108837200Y-57545833D02*
X108884819Y-57641071D01*
X108884819Y-57641071D02*
X108884819Y-57926785D01*
X108884819Y-57926785D02*
X108837200Y-58022023D01*
X108837200Y-58022023D02*
X108789580Y-58069642D01*
X165384580Y-100216666D02*
X165432200Y-100264285D01*
X165432200Y-100264285D02*
X165479819Y-100407142D01*
X165479819Y-100407142D02*
X165479819Y-100502380D01*
X165479819Y-100502380D02*
X165432200Y-100645237D01*
X165432200Y-100645237D02*
X165336961Y-100740475D01*
X165336961Y-100740475D02*
X165241723Y-100788094D01*
X165241723Y-100788094D02*
X165051247Y-100835713D01*
X165051247Y-100835713D02*
X164908390Y-100835713D01*
X164908390Y-100835713D02*
X164717914Y-100788094D01*
X164717914Y-100788094D02*
X164622676Y-100740475D01*
X164622676Y-100740475D02*
X164527438Y-100645237D01*
X164527438Y-100645237D02*
X164479819Y-100502380D01*
X164479819Y-100502380D02*
X164479819Y-100407142D01*
X164479819Y-100407142D02*
X164527438Y-100264285D01*
X164527438Y-100264285D02*
X164575057Y-100216666D01*
X164479819Y-99359523D02*
X164479819Y-99549999D01*
X164479819Y-99549999D02*
X164527438Y-99645237D01*
X164527438Y-99645237D02*
X164575057Y-99692856D01*
X164575057Y-99692856D02*
X164717914Y-99788094D01*
X164717914Y-99788094D02*
X164908390Y-99835713D01*
X164908390Y-99835713D02*
X165289342Y-99835713D01*
X165289342Y-99835713D02*
X165384580Y-99788094D01*
X165384580Y-99788094D02*
X165432200Y-99740475D01*
X165432200Y-99740475D02*
X165479819Y-99645237D01*
X165479819Y-99645237D02*
X165479819Y-99454761D01*
X165479819Y-99454761D02*
X165432200Y-99359523D01*
X165432200Y-99359523D02*
X165384580Y-99311904D01*
X165384580Y-99311904D02*
X165289342Y-99264285D01*
X165289342Y-99264285D02*
X165051247Y-99264285D01*
X165051247Y-99264285D02*
X164956009Y-99311904D01*
X164956009Y-99311904D02*
X164908390Y-99359523D01*
X164908390Y-99359523D02*
X164860771Y-99454761D01*
X164860771Y-99454761D02*
X164860771Y-99645237D01*
X164860771Y-99645237D02*
X164908390Y-99740475D01*
X164908390Y-99740475D02*
X164956009Y-99788094D01*
X164956009Y-99788094D02*
X165051247Y-99835713D01*
X191704819Y-69666666D02*
X191228628Y-69999999D01*
X191704819Y-70238094D02*
X190704819Y-70238094D01*
X190704819Y-70238094D02*
X190704819Y-69857142D01*
X190704819Y-69857142D02*
X190752438Y-69761904D01*
X190752438Y-69761904D02*
X190800057Y-69714285D01*
X190800057Y-69714285D02*
X190895295Y-69666666D01*
X190895295Y-69666666D02*
X191038152Y-69666666D01*
X191038152Y-69666666D02*
X191133390Y-69714285D01*
X191133390Y-69714285D02*
X191181009Y-69761904D01*
X191181009Y-69761904D02*
X191228628Y-69857142D01*
X191228628Y-69857142D02*
X191228628Y-70238094D01*
X191038152Y-68809523D02*
X191704819Y-68809523D01*
X190657200Y-69047618D02*
X191371485Y-69285713D01*
X191371485Y-69285713D02*
X191371485Y-68666666D01*
D11*
X179166667Y-57457419D02*
X179500000Y-56457419D01*
X179500000Y-56457419D02*
X179833333Y-57457419D01*
X179833333Y-57457419D02*
X179166667Y-57457419D01*
X185238095Y-51683609D02*
X185761904Y-51683609D01*
X185428571Y-51207419D02*
X185571428Y-51207419D01*
X185571428Y-51207419D02*
X185666666Y-51255038D01*
X185666666Y-51255038D02*
X185714285Y-51302657D01*
X185714285Y-51302657D02*
X185761904Y-51445514D01*
X185761904Y-51445514D02*
X185761904Y-51969323D01*
X185761904Y-51969323D02*
X185714285Y-52112180D01*
X185714285Y-52112180D02*
X185666666Y-52159800D01*
X185666666Y-52159800D02*
X185571428Y-52207419D01*
X185571428Y-52207419D02*
X185428571Y-52207419D01*
X185428571Y-52207419D02*
X185333333Y-52159800D01*
X185333333Y-52159800D02*
X185285714Y-52112180D01*
X185285714Y-52112180D02*
X185238095Y-51969323D01*
X185238095Y-51969323D02*
X185238095Y-51445514D01*
X185238095Y-51445514D02*
X185285714Y-51302657D01*
X185285714Y-51302657D02*
X185333333Y-51255038D01*
X185333333Y-51255038D02*
X185428571Y-51207419D01*
X181571428Y-51635990D02*
X181666666Y-51683609D01*
X181666666Y-51683609D02*
X181714285Y-51731228D01*
X181714285Y-51731228D02*
X181761904Y-51826466D01*
X181761904Y-51826466D02*
X181761904Y-52016942D01*
X181761904Y-52016942D02*
X181714285Y-52112180D01*
X181714285Y-52112180D02*
X181666666Y-52159800D01*
X181666666Y-52159800D02*
X181571428Y-52207419D01*
X181571428Y-52207419D02*
X181428571Y-52207419D01*
X181428571Y-52207419D02*
X181333333Y-52159800D01*
X181333333Y-52159800D02*
X181285714Y-52112180D01*
X181190476Y-52540752D02*
X181238095Y-52493133D01*
X181238095Y-52493133D02*
X181285714Y-52397895D01*
X181285714Y-52397895D02*
X181285714Y-51350276D01*
X181285714Y-51350276D02*
X181333333Y-51255038D01*
X181333333Y-51255038D02*
X181428571Y-51207419D01*
X181428571Y-51207419D02*
X181571428Y-51207419D01*
X181571428Y-51207419D02*
X181666666Y-51255038D01*
X181666666Y-51255038D02*
X181714285Y-51350276D01*
X181714285Y-51350276D02*
X181714285Y-51493133D01*
X181714285Y-51493133D02*
X181666666Y-51588371D01*
X181666666Y-51588371D02*
X181571428Y-51635990D01*
X181571428Y-51635990D02*
X181476190Y-51635990D01*
X183714285Y-56790752D02*
X183714285Y-57457419D01*
X183380952Y-56790752D02*
X183380952Y-57314561D01*
X183380952Y-57314561D02*
X183333333Y-57409800D01*
X183333333Y-57409800D02*
X183238095Y-57457419D01*
X183904761Y-56790752D02*
X183285714Y-56790752D01*
X183285714Y-56790752D02*
X183190476Y-56838371D01*
X183190476Y-56838371D02*
X183142857Y-56933609D01*
X179809523Y-51540752D02*
X179666666Y-52016942D01*
X179666666Y-52016942D02*
X179619047Y-52112180D01*
X179619047Y-52112180D02*
X179571428Y-52159800D01*
X179571428Y-52159800D02*
X179476190Y-52207419D01*
X179476190Y-52207419D02*
X179380952Y-52207419D01*
X179380952Y-52207419D02*
X179285714Y-52159800D01*
X179285714Y-52159800D02*
X179238095Y-52112180D01*
X179238095Y-52112180D02*
X179190476Y-51969323D01*
X179190476Y-51969323D02*
X179190476Y-51778847D01*
X179190476Y-51778847D02*
X179238095Y-51635990D01*
X179238095Y-51635990D02*
X179285714Y-51588371D01*
X179285714Y-51588371D02*
X179380952Y-51540752D01*
X179380952Y-51540752D02*
X179476190Y-51540752D01*
X179476190Y-51540752D02*
X179571428Y-51588371D01*
X179571428Y-51588371D02*
X179619047Y-51635990D01*
X179619047Y-51635990D02*
X179666666Y-51731228D01*
X179666666Y-51731228D02*
X179714285Y-52064561D01*
X179714285Y-52064561D02*
X179761904Y-52159800D01*
X179761904Y-52159800D02*
X179857142Y-52207419D01*
X181500000Y-56790752D02*
X181261905Y-57457419D01*
X181261905Y-56457419D02*
X181357143Y-56457419D01*
X181357143Y-56457419D02*
X181404762Y-56505038D01*
X181404762Y-56505038D02*
X181500000Y-56790752D01*
X181500000Y-56790752D02*
X181738095Y-57457419D01*
X183500000Y-52112180D02*
X183500000Y-52540752D01*
X183214286Y-51540752D02*
X183261905Y-51540752D01*
X183261905Y-51540752D02*
X183309524Y-51588371D01*
X183309524Y-51588371D02*
X183500000Y-52112180D01*
X183500000Y-52112180D02*
X183738095Y-51540752D01*
X185214286Y-56790752D02*
X185214286Y-57790752D01*
X185690476Y-57314561D02*
X185738095Y-57409800D01*
X185738095Y-57409800D02*
X185833333Y-57457419D01*
X185214286Y-57314561D02*
X185261905Y-57409800D01*
X185261905Y-57409800D02*
X185357143Y-57457419D01*
X185357143Y-57457419D02*
X185547619Y-57457419D01*
X185547619Y-57457419D02*
X185642857Y-57409800D01*
X185642857Y-57409800D02*
X185690476Y-57314561D01*
X185690476Y-57314561D02*
X185690476Y-56790752D01*
D10*
X162333333Y-87609580D02*
X162285714Y-87657200D01*
X162285714Y-87657200D02*
X162142857Y-87704819D01*
X162142857Y-87704819D02*
X162047619Y-87704819D01*
X162047619Y-87704819D02*
X161904762Y-87657200D01*
X161904762Y-87657200D02*
X161809524Y-87561961D01*
X161809524Y-87561961D02*
X161761905Y-87466723D01*
X161761905Y-87466723D02*
X161714286Y-87276247D01*
X161714286Y-87276247D02*
X161714286Y-87133390D01*
X161714286Y-87133390D02*
X161761905Y-86942914D01*
X161761905Y-86942914D02*
X161809524Y-86847676D01*
X161809524Y-86847676D02*
X161904762Y-86752438D01*
X161904762Y-86752438D02*
X162047619Y-86704819D01*
X162047619Y-86704819D02*
X162142857Y-86704819D01*
X162142857Y-86704819D02*
X162285714Y-86752438D01*
X162285714Y-86752438D02*
X162333333Y-86800057D01*
X163190476Y-87038152D02*
X163190476Y-87704819D01*
X162952381Y-86657200D02*
X162714286Y-87371485D01*
X162714286Y-87371485D02*
X163333333Y-87371485D01*
X170083333Y-102704819D02*
X169750000Y-102228628D01*
X169511905Y-102704819D02*
X169511905Y-101704819D01*
X169511905Y-101704819D02*
X169892857Y-101704819D01*
X169892857Y-101704819D02*
X169988095Y-101752438D01*
X169988095Y-101752438D02*
X170035714Y-101800057D01*
X170035714Y-101800057D02*
X170083333Y-101895295D01*
X170083333Y-101895295D02*
X170083333Y-102038152D01*
X170083333Y-102038152D02*
X170035714Y-102133390D01*
X170035714Y-102133390D02*
X169988095Y-102181009D01*
X169988095Y-102181009D02*
X169892857Y-102228628D01*
X169892857Y-102228628D02*
X169511905Y-102228628D01*
X171035714Y-102704819D02*
X170464286Y-102704819D01*
X170750000Y-102704819D02*
X170750000Y-101704819D01*
X170750000Y-101704819D02*
X170654762Y-101847676D01*
X170654762Y-101847676D02*
X170559524Y-101942914D01*
X170559524Y-101942914D02*
X170464286Y-101990533D01*
X185359580Y-102916666D02*
X185407200Y-102964285D01*
X185407200Y-102964285D02*
X185454819Y-103107142D01*
X185454819Y-103107142D02*
X185454819Y-103202380D01*
X185454819Y-103202380D02*
X185407200Y-103345237D01*
X185407200Y-103345237D02*
X185311961Y-103440475D01*
X185311961Y-103440475D02*
X185216723Y-103488094D01*
X185216723Y-103488094D02*
X185026247Y-103535713D01*
X185026247Y-103535713D02*
X184883390Y-103535713D01*
X184883390Y-103535713D02*
X184692914Y-103488094D01*
X184692914Y-103488094D02*
X184597676Y-103440475D01*
X184597676Y-103440475D02*
X184502438Y-103345237D01*
X184502438Y-103345237D02*
X184454819Y-103202380D01*
X184454819Y-103202380D02*
X184454819Y-103107142D01*
X184454819Y-103107142D02*
X184502438Y-102964285D01*
X184502438Y-102964285D02*
X184550057Y-102916666D01*
X184883390Y-102345237D02*
X184835771Y-102440475D01*
X184835771Y-102440475D02*
X184788152Y-102488094D01*
X184788152Y-102488094D02*
X184692914Y-102535713D01*
X184692914Y-102535713D02*
X184645295Y-102535713D01*
X184645295Y-102535713D02*
X184550057Y-102488094D01*
X184550057Y-102488094D02*
X184502438Y-102440475D01*
X184502438Y-102440475D02*
X184454819Y-102345237D01*
X184454819Y-102345237D02*
X184454819Y-102154761D01*
X184454819Y-102154761D02*
X184502438Y-102059523D01*
X184502438Y-102059523D02*
X184550057Y-102011904D01*
X184550057Y-102011904D02*
X184645295Y-101964285D01*
X184645295Y-101964285D02*
X184692914Y-101964285D01*
X184692914Y-101964285D02*
X184788152Y-102011904D01*
X184788152Y-102011904D02*
X184835771Y-102059523D01*
X184835771Y-102059523D02*
X184883390Y-102154761D01*
X184883390Y-102154761D02*
X184883390Y-102345237D01*
X184883390Y-102345237D02*
X184931009Y-102440475D01*
X184931009Y-102440475D02*
X184978628Y-102488094D01*
X184978628Y-102488094D02*
X185073866Y-102535713D01*
X185073866Y-102535713D02*
X185264342Y-102535713D01*
X185264342Y-102535713D02*
X185359580Y-102488094D01*
X185359580Y-102488094D02*
X185407200Y-102440475D01*
X185407200Y-102440475D02*
X185454819Y-102345237D01*
X185454819Y-102345237D02*
X185454819Y-102154761D01*
X185454819Y-102154761D02*
X185407200Y-102059523D01*
X185407200Y-102059523D02*
X185359580Y-102011904D01*
X185359580Y-102011904D02*
X185264342Y-101964285D01*
X185264342Y-101964285D02*
X185073866Y-101964285D01*
X185073866Y-101964285D02*
X184978628Y-102011904D01*
X184978628Y-102011904D02*
X184931009Y-102059523D01*
X184931009Y-102059523D02*
X184883390Y-102154761D01*
X156134819Y-65952380D02*
X155134819Y-65952380D01*
X156134819Y-65476190D02*
X155134819Y-65476190D01*
X155134819Y-65476190D02*
X155849104Y-65142857D01*
X155849104Y-65142857D02*
X155134819Y-64809524D01*
X155134819Y-64809524D02*
X156134819Y-64809524D01*
X155134819Y-64333333D02*
X155944342Y-64333333D01*
X155944342Y-64333333D02*
X156039580Y-64285714D01*
X156039580Y-64285714D02*
X156087200Y-64238095D01*
X156087200Y-64238095D02*
X156134819Y-64142857D01*
X156134819Y-64142857D02*
X156134819Y-63952381D01*
X156134819Y-63952381D02*
X156087200Y-63857143D01*
X156087200Y-63857143D02*
X156039580Y-63809524D01*
X156039580Y-63809524D02*
X155944342Y-63761905D01*
X155944342Y-63761905D02*
X155134819Y-63761905D01*
X156230057Y-63523810D02*
X156230057Y-62761905D01*
X156134819Y-61952381D02*
X155658628Y-62285714D01*
X156134819Y-62523809D02*
X155134819Y-62523809D01*
X155134819Y-62523809D02*
X155134819Y-62142857D01*
X155134819Y-62142857D02*
X155182438Y-62047619D01*
X155182438Y-62047619D02*
X155230057Y-62000000D01*
X155230057Y-62000000D02*
X155325295Y-61952381D01*
X155325295Y-61952381D02*
X155468152Y-61952381D01*
X155468152Y-61952381D02*
X155563390Y-62000000D01*
X155563390Y-62000000D02*
X155611009Y-62047619D01*
X155611009Y-62047619D02*
X155658628Y-62142857D01*
X155658628Y-62142857D02*
X155658628Y-62523809D01*
X155134819Y-61619047D02*
X156134819Y-60952381D01*
X155134819Y-60952381D02*
X156134819Y-61619047D01*
X185359580Y-80166666D02*
X185407200Y-80214285D01*
X185407200Y-80214285D02*
X185454819Y-80357142D01*
X185454819Y-80357142D02*
X185454819Y-80452380D01*
X185454819Y-80452380D02*
X185407200Y-80595237D01*
X185407200Y-80595237D02*
X185311961Y-80690475D01*
X185311961Y-80690475D02*
X185216723Y-80738094D01*
X185216723Y-80738094D02*
X185026247Y-80785713D01*
X185026247Y-80785713D02*
X184883390Y-80785713D01*
X184883390Y-80785713D02*
X184692914Y-80738094D01*
X184692914Y-80738094D02*
X184597676Y-80690475D01*
X184597676Y-80690475D02*
X184502438Y-80595237D01*
X184502438Y-80595237D02*
X184454819Y-80452380D01*
X184454819Y-80452380D02*
X184454819Y-80357142D01*
X184454819Y-80357142D02*
X184502438Y-80214285D01*
X184502438Y-80214285D02*
X184550057Y-80166666D01*
X184550057Y-79785713D02*
X184502438Y-79738094D01*
X184502438Y-79738094D02*
X184454819Y-79642856D01*
X184454819Y-79642856D02*
X184454819Y-79404761D01*
X184454819Y-79404761D02*
X184502438Y-79309523D01*
X184502438Y-79309523D02*
X184550057Y-79261904D01*
X184550057Y-79261904D02*
X184645295Y-79214285D01*
X184645295Y-79214285D02*
X184740533Y-79214285D01*
X184740533Y-79214285D02*
X184883390Y-79261904D01*
X184883390Y-79261904D02*
X185454819Y-79833332D01*
X185454819Y-79833332D02*
X185454819Y-79214285D01*
X138859580Y-65117857D02*
X138907200Y-65165476D01*
X138907200Y-65165476D02*
X138954819Y-65308333D01*
X138954819Y-65308333D02*
X138954819Y-65403571D01*
X138954819Y-65403571D02*
X138907200Y-65546428D01*
X138907200Y-65546428D02*
X138811961Y-65641666D01*
X138811961Y-65641666D02*
X138716723Y-65689285D01*
X138716723Y-65689285D02*
X138526247Y-65736904D01*
X138526247Y-65736904D02*
X138383390Y-65736904D01*
X138383390Y-65736904D02*
X138192914Y-65689285D01*
X138192914Y-65689285D02*
X138097676Y-65641666D01*
X138097676Y-65641666D02*
X138002438Y-65546428D01*
X138002438Y-65546428D02*
X137954819Y-65403571D01*
X137954819Y-65403571D02*
X137954819Y-65308333D01*
X137954819Y-65308333D02*
X138002438Y-65165476D01*
X138002438Y-65165476D02*
X138050057Y-65117857D01*
X138050057Y-64736904D02*
X138002438Y-64689285D01*
X138002438Y-64689285D02*
X137954819Y-64594047D01*
X137954819Y-64594047D02*
X137954819Y-64355952D01*
X137954819Y-64355952D02*
X138002438Y-64260714D01*
X138002438Y-64260714D02*
X138050057Y-64213095D01*
X138050057Y-64213095D02*
X138145295Y-64165476D01*
X138145295Y-64165476D02*
X138240533Y-64165476D01*
X138240533Y-64165476D02*
X138383390Y-64213095D01*
X138383390Y-64213095D02*
X138954819Y-64784523D01*
X138954819Y-64784523D02*
X138954819Y-64165476D01*
X137954819Y-63260714D02*
X137954819Y-63736904D01*
X137954819Y-63736904D02*
X138431009Y-63784523D01*
X138431009Y-63784523D02*
X138383390Y-63736904D01*
X138383390Y-63736904D02*
X138335771Y-63641666D01*
X138335771Y-63641666D02*
X138335771Y-63403571D01*
X138335771Y-63403571D02*
X138383390Y-63308333D01*
X138383390Y-63308333D02*
X138431009Y-63260714D01*
X138431009Y-63260714D02*
X138526247Y-63213095D01*
X138526247Y-63213095D02*
X138764342Y-63213095D01*
X138764342Y-63213095D02*
X138859580Y-63260714D01*
X138859580Y-63260714D02*
X138907200Y-63308333D01*
X138907200Y-63308333D02*
X138954819Y-63403571D01*
X138954819Y-63403571D02*
X138954819Y-63641666D01*
X138954819Y-63641666D02*
X138907200Y-63736904D01*
X138907200Y-63736904D02*
X138859580Y-63784523D01*
X123509580Y-65642857D02*
X123557200Y-65690476D01*
X123557200Y-65690476D02*
X123604819Y-65833333D01*
X123604819Y-65833333D02*
X123604819Y-65928571D01*
X123604819Y-65928571D02*
X123557200Y-66071428D01*
X123557200Y-66071428D02*
X123461961Y-66166666D01*
X123461961Y-66166666D02*
X123366723Y-66214285D01*
X123366723Y-66214285D02*
X123176247Y-66261904D01*
X123176247Y-66261904D02*
X123033390Y-66261904D01*
X123033390Y-66261904D02*
X122842914Y-66214285D01*
X122842914Y-66214285D02*
X122747676Y-66166666D01*
X122747676Y-66166666D02*
X122652438Y-66071428D01*
X122652438Y-66071428D02*
X122604819Y-65928571D01*
X122604819Y-65928571D02*
X122604819Y-65833333D01*
X122604819Y-65833333D02*
X122652438Y-65690476D01*
X122652438Y-65690476D02*
X122700057Y-65642857D01*
X122700057Y-65261904D02*
X122652438Y-65214285D01*
X122652438Y-65214285D02*
X122604819Y-65119047D01*
X122604819Y-65119047D02*
X122604819Y-64880952D01*
X122604819Y-64880952D02*
X122652438Y-64785714D01*
X122652438Y-64785714D02*
X122700057Y-64738095D01*
X122700057Y-64738095D02*
X122795295Y-64690476D01*
X122795295Y-64690476D02*
X122890533Y-64690476D01*
X122890533Y-64690476D02*
X123033390Y-64738095D01*
X123033390Y-64738095D02*
X123604819Y-65309523D01*
X123604819Y-65309523D02*
X123604819Y-64690476D01*
X122604819Y-63833333D02*
X122604819Y-64023809D01*
X122604819Y-64023809D02*
X122652438Y-64119047D01*
X122652438Y-64119047D02*
X122700057Y-64166666D01*
X122700057Y-64166666D02*
X122842914Y-64261904D01*
X122842914Y-64261904D02*
X123033390Y-64309523D01*
X123033390Y-64309523D02*
X123414342Y-64309523D01*
X123414342Y-64309523D02*
X123509580Y-64261904D01*
X123509580Y-64261904D02*
X123557200Y-64214285D01*
X123557200Y-64214285D02*
X123604819Y-64119047D01*
X123604819Y-64119047D02*
X123604819Y-63928571D01*
X123604819Y-63928571D02*
X123557200Y-63833333D01*
X123557200Y-63833333D02*
X123509580Y-63785714D01*
X123509580Y-63785714D02*
X123414342Y-63738095D01*
X123414342Y-63738095D02*
X123176247Y-63738095D01*
X123176247Y-63738095D02*
X123081009Y-63785714D01*
X123081009Y-63785714D02*
X123033390Y-63833333D01*
X123033390Y-63833333D02*
X122985771Y-63928571D01*
X122985771Y-63928571D02*
X122985771Y-64119047D01*
X122985771Y-64119047D02*
X123033390Y-64214285D01*
X123033390Y-64214285D02*
X123081009Y-64261904D01*
X123081009Y-64261904D02*
X123176247Y-64309523D01*
X103857142Y-83109580D02*
X103809523Y-83157200D01*
X103809523Y-83157200D02*
X103666666Y-83204819D01*
X103666666Y-83204819D02*
X103571428Y-83204819D01*
X103571428Y-83204819D02*
X103428571Y-83157200D01*
X103428571Y-83157200D02*
X103333333Y-83061961D01*
X103333333Y-83061961D02*
X103285714Y-82966723D01*
X103285714Y-82966723D02*
X103238095Y-82776247D01*
X103238095Y-82776247D02*
X103238095Y-82633390D01*
X103238095Y-82633390D02*
X103285714Y-82442914D01*
X103285714Y-82442914D02*
X103333333Y-82347676D01*
X103333333Y-82347676D02*
X103428571Y-82252438D01*
X103428571Y-82252438D02*
X103571428Y-82204819D01*
X103571428Y-82204819D02*
X103666666Y-82204819D01*
X103666666Y-82204819D02*
X103809523Y-82252438D01*
X103809523Y-82252438D02*
X103857142Y-82300057D01*
X104809523Y-83204819D02*
X104238095Y-83204819D01*
X104523809Y-83204819D02*
X104523809Y-82204819D01*
X104523809Y-82204819D02*
X104428571Y-82347676D01*
X104428571Y-82347676D02*
X104333333Y-82442914D01*
X104333333Y-82442914D02*
X104238095Y-82490533D01*
X105666666Y-82204819D02*
X105476190Y-82204819D01*
X105476190Y-82204819D02*
X105380952Y-82252438D01*
X105380952Y-82252438D02*
X105333333Y-82300057D01*
X105333333Y-82300057D02*
X105238095Y-82442914D01*
X105238095Y-82442914D02*
X105190476Y-82633390D01*
X105190476Y-82633390D02*
X105190476Y-83014342D01*
X105190476Y-83014342D02*
X105238095Y-83109580D01*
X105238095Y-83109580D02*
X105285714Y-83157200D01*
X105285714Y-83157200D02*
X105380952Y-83204819D01*
X105380952Y-83204819D02*
X105571428Y-83204819D01*
X105571428Y-83204819D02*
X105666666Y-83157200D01*
X105666666Y-83157200D02*
X105714285Y-83109580D01*
X105714285Y-83109580D02*
X105761904Y-83014342D01*
X105761904Y-83014342D02*
X105761904Y-82776247D01*
X105761904Y-82776247D02*
X105714285Y-82681009D01*
X105714285Y-82681009D02*
X105666666Y-82633390D01*
X105666666Y-82633390D02*
X105571428Y-82585771D01*
X105571428Y-82585771D02*
X105380952Y-82585771D01*
X105380952Y-82585771D02*
X105285714Y-82633390D01*
X105285714Y-82633390D02*
X105238095Y-82681009D01*
X105238095Y-82681009D02*
X105190476Y-82776247D01*
X191454819Y-57416666D02*
X190978628Y-57749999D01*
X191454819Y-57988094D02*
X190454819Y-57988094D01*
X190454819Y-57988094D02*
X190454819Y-57607142D01*
X190454819Y-57607142D02*
X190502438Y-57511904D01*
X190502438Y-57511904D02*
X190550057Y-57464285D01*
X190550057Y-57464285D02*
X190645295Y-57416666D01*
X190645295Y-57416666D02*
X190788152Y-57416666D01*
X190788152Y-57416666D02*
X190883390Y-57464285D01*
X190883390Y-57464285D02*
X190931009Y-57511904D01*
X190931009Y-57511904D02*
X190978628Y-57607142D01*
X190978628Y-57607142D02*
X190978628Y-57988094D01*
X190550057Y-57035713D02*
X190502438Y-56988094D01*
X190502438Y-56988094D02*
X190454819Y-56892856D01*
X190454819Y-56892856D02*
X190454819Y-56654761D01*
X190454819Y-56654761D02*
X190502438Y-56559523D01*
X190502438Y-56559523D02*
X190550057Y-56511904D01*
X190550057Y-56511904D02*
X190645295Y-56464285D01*
X190645295Y-56464285D02*
X190740533Y-56464285D01*
X190740533Y-56464285D02*
X190883390Y-56511904D01*
X190883390Y-56511904D02*
X191454819Y-57083332D01*
X191454819Y-57083332D02*
X191454819Y-56464285D01*
X125804819Y-63561904D02*
X126614342Y-63561904D01*
X126614342Y-63561904D02*
X126709580Y-63514285D01*
X126709580Y-63514285D02*
X126757200Y-63466666D01*
X126757200Y-63466666D02*
X126804819Y-63371428D01*
X126804819Y-63371428D02*
X126804819Y-63180952D01*
X126804819Y-63180952D02*
X126757200Y-63085714D01*
X126757200Y-63085714D02*
X126709580Y-63038095D01*
X126709580Y-63038095D02*
X126614342Y-62990476D01*
X126614342Y-62990476D02*
X125804819Y-62990476D01*
X125804819Y-62609523D02*
X125804819Y-61942857D01*
X125804819Y-61942857D02*
X126804819Y-62371428D01*
X100107142Y-54884819D02*
X99773809Y-54408628D01*
X99535714Y-54884819D02*
X99535714Y-53884819D01*
X99535714Y-53884819D02*
X99916666Y-53884819D01*
X99916666Y-53884819D02*
X100011904Y-53932438D01*
X100011904Y-53932438D02*
X100059523Y-53980057D01*
X100059523Y-53980057D02*
X100107142Y-54075295D01*
X100107142Y-54075295D02*
X100107142Y-54218152D01*
X100107142Y-54218152D02*
X100059523Y-54313390D01*
X100059523Y-54313390D02*
X100011904Y-54361009D01*
X100011904Y-54361009D02*
X99916666Y-54408628D01*
X99916666Y-54408628D02*
X99535714Y-54408628D01*
X101059523Y-54884819D02*
X100488095Y-54884819D01*
X100773809Y-54884819D02*
X100773809Y-53884819D01*
X100773809Y-53884819D02*
X100678571Y-54027676D01*
X100678571Y-54027676D02*
X100583333Y-54122914D01*
X100583333Y-54122914D02*
X100488095Y-54170533D01*
X101916666Y-54218152D02*
X101916666Y-54884819D01*
X101678571Y-53837200D02*
X101440476Y-54551485D01*
X101440476Y-54551485D02*
X102059523Y-54551485D01*
X98629819Y-71861904D02*
X99439342Y-71861904D01*
X99439342Y-71861904D02*
X99534580Y-71814285D01*
X99534580Y-71814285D02*
X99582200Y-71766666D01*
X99582200Y-71766666D02*
X99629819Y-71671428D01*
X99629819Y-71671428D02*
X99629819Y-71480952D01*
X99629819Y-71480952D02*
X99582200Y-71385714D01*
X99582200Y-71385714D02*
X99534580Y-71338095D01*
X99534580Y-71338095D02*
X99439342Y-71290476D01*
X99439342Y-71290476D02*
X98629819Y-71290476D01*
X98629819Y-70909523D02*
X98629819Y-70290476D01*
X98629819Y-70290476D02*
X99010771Y-70623809D01*
X99010771Y-70623809D02*
X99010771Y-70480952D01*
X99010771Y-70480952D02*
X99058390Y-70385714D01*
X99058390Y-70385714D02*
X99106009Y-70338095D01*
X99106009Y-70338095D02*
X99201247Y-70290476D01*
X99201247Y-70290476D02*
X99439342Y-70290476D01*
X99439342Y-70290476D02*
X99534580Y-70338095D01*
X99534580Y-70338095D02*
X99582200Y-70385714D01*
X99582200Y-70385714D02*
X99629819Y-70480952D01*
X99629819Y-70480952D02*
X99629819Y-70766666D01*
X99629819Y-70766666D02*
X99582200Y-70861904D01*
X99582200Y-70861904D02*
X99534580Y-70909523D01*
X162009580Y-100216666D02*
X162057200Y-100264285D01*
X162057200Y-100264285D02*
X162104819Y-100407142D01*
X162104819Y-100407142D02*
X162104819Y-100502380D01*
X162104819Y-100502380D02*
X162057200Y-100645237D01*
X162057200Y-100645237D02*
X161961961Y-100740475D01*
X161961961Y-100740475D02*
X161866723Y-100788094D01*
X161866723Y-100788094D02*
X161676247Y-100835713D01*
X161676247Y-100835713D02*
X161533390Y-100835713D01*
X161533390Y-100835713D02*
X161342914Y-100788094D01*
X161342914Y-100788094D02*
X161247676Y-100740475D01*
X161247676Y-100740475D02*
X161152438Y-100645237D01*
X161152438Y-100645237D02*
X161104819Y-100502380D01*
X161104819Y-100502380D02*
X161104819Y-100407142D01*
X161104819Y-100407142D02*
X161152438Y-100264285D01*
X161152438Y-100264285D02*
X161200057Y-100216666D01*
X161104819Y-99311904D02*
X161104819Y-99788094D01*
X161104819Y-99788094D02*
X161581009Y-99835713D01*
X161581009Y-99835713D02*
X161533390Y-99788094D01*
X161533390Y-99788094D02*
X161485771Y-99692856D01*
X161485771Y-99692856D02*
X161485771Y-99454761D01*
X161485771Y-99454761D02*
X161533390Y-99359523D01*
X161533390Y-99359523D02*
X161581009Y-99311904D01*
X161581009Y-99311904D02*
X161676247Y-99264285D01*
X161676247Y-99264285D02*
X161914342Y-99264285D01*
X161914342Y-99264285D02*
X162009580Y-99311904D01*
X162009580Y-99311904D02*
X162057200Y-99359523D01*
X162057200Y-99359523D02*
X162104819Y-99454761D01*
X162104819Y-99454761D02*
X162104819Y-99692856D01*
X162104819Y-99692856D02*
X162057200Y-99788094D01*
X162057200Y-99788094D02*
X162009580Y-99835713D01*
X187083333Y-103074819D02*
X186750000Y-102598628D01*
X186511905Y-103074819D02*
X186511905Y-102074819D01*
X186511905Y-102074819D02*
X186892857Y-102074819D01*
X186892857Y-102074819D02*
X186988095Y-102122438D01*
X186988095Y-102122438D02*
X187035714Y-102170057D01*
X187035714Y-102170057D02*
X187083333Y-102265295D01*
X187083333Y-102265295D02*
X187083333Y-102408152D01*
X187083333Y-102408152D02*
X187035714Y-102503390D01*
X187035714Y-102503390D02*
X186988095Y-102551009D01*
X186988095Y-102551009D02*
X186892857Y-102598628D01*
X186892857Y-102598628D02*
X186511905Y-102598628D01*
X187988095Y-102074819D02*
X187511905Y-102074819D01*
X187511905Y-102074819D02*
X187464286Y-102551009D01*
X187464286Y-102551009D02*
X187511905Y-102503390D01*
X187511905Y-102503390D02*
X187607143Y-102455771D01*
X187607143Y-102455771D02*
X187845238Y-102455771D01*
X187845238Y-102455771D02*
X187940476Y-102503390D01*
X187940476Y-102503390D02*
X187988095Y-102551009D01*
X187988095Y-102551009D02*
X188035714Y-102646247D01*
X188035714Y-102646247D02*
X188035714Y-102884342D01*
X188035714Y-102884342D02*
X187988095Y-102979580D01*
X187988095Y-102979580D02*
X187940476Y-103027200D01*
X187940476Y-103027200D02*
X187845238Y-103074819D01*
X187845238Y-103074819D02*
X187607143Y-103074819D01*
X187607143Y-103074819D02*
X187511905Y-103027200D01*
X187511905Y-103027200D02*
X187464286Y-102979580D01*
X124357142Y-56024819D02*
X124023809Y-55548628D01*
X123785714Y-56024819D02*
X123785714Y-55024819D01*
X123785714Y-55024819D02*
X124166666Y-55024819D01*
X124166666Y-55024819D02*
X124261904Y-55072438D01*
X124261904Y-55072438D02*
X124309523Y-55120057D01*
X124309523Y-55120057D02*
X124357142Y-55215295D01*
X124357142Y-55215295D02*
X124357142Y-55358152D01*
X124357142Y-55358152D02*
X124309523Y-55453390D01*
X124309523Y-55453390D02*
X124261904Y-55501009D01*
X124261904Y-55501009D02*
X124166666Y-55548628D01*
X124166666Y-55548628D02*
X123785714Y-55548628D01*
X125309523Y-56024819D02*
X124738095Y-56024819D01*
X125023809Y-56024819D02*
X125023809Y-55024819D01*
X125023809Y-55024819D02*
X124928571Y-55167676D01*
X124928571Y-55167676D02*
X124833333Y-55262914D01*
X124833333Y-55262914D02*
X124738095Y-55310533D01*
X126261904Y-56024819D02*
X125690476Y-56024819D01*
X125976190Y-56024819D02*
X125976190Y-55024819D01*
X125976190Y-55024819D02*
X125880952Y-55167676D01*
X125880952Y-55167676D02*
X125785714Y-55262914D01*
X125785714Y-55262914D02*
X125690476Y-55310533D01*
X103857142Y-79609580D02*
X103809523Y-79657200D01*
X103809523Y-79657200D02*
X103666666Y-79704819D01*
X103666666Y-79704819D02*
X103571428Y-79704819D01*
X103571428Y-79704819D02*
X103428571Y-79657200D01*
X103428571Y-79657200D02*
X103333333Y-79561961D01*
X103333333Y-79561961D02*
X103285714Y-79466723D01*
X103285714Y-79466723D02*
X103238095Y-79276247D01*
X103238095Y-79276247D02*
X103238095Y-79133390D01*
X103238095Y-79133390D02*
X103285714Y-78942914D01*
X103285714Y-78942914D02*
X103333333Y-78847676D01*
X103333333Y-78847676D02*
X103428571Y-78752438D01*
X103428571Y-78752438D02*
X103571428Y-78704819D01*
X103571428Y-78704819D02*
X103666666Y-78704819D01*
X103666666Y-78704819D02*
X103809523Y-78752438D01*
X103809523Y-78752438D02*
X103857142Y-78800057D01*
X104809523Y-79704819D02*
X104238095Y-79704819D01*
X104523809Y-79704819D02*
X104523809Y-78704819D01*
X104523809Y-78704819D02*
X104428571Y-78847676D01*
X104428571Y-78847676D02*
X104333333Y-78942914D01*
X104333333Y-78942914D02*
X104238095Y-78990533D01*
X105714285Y-78704819D02*
X105238095Y-78704819D01*
X105238095Y-78704819D02*
X105190476Y-79181009D01*
X105190476Y-79181009D02*
X105238095Y-79133390D01*
X105238095Y-79133390D02*
X105333333Y-79085771D01*
X105333333Y-79085771D02*
X105571428Y-79085771D01*
X105571428Y-79085771D02*
X105666666Y-79133390D01*
X105666666Y-79133390D02*
X105714285Y-79181009D01*
X105714285Y-79181009D02*
X105761904Y-79276247D01*
X105761904Y-79276247D02*
X105761904Y-79514342D01*
X105761904Y-79514342D02*
X105714285Y-79609580D01*
X105714285Y-79609580D02*
X105666666Y-79657200D01*
X105666666Y-79657200D02*
X105571428Y-79704819D01*
X105571428Y-79704819D02*
X105333333Y-79704819D01*
X105333333Y-79704819D02*
X105238095Y-79657200D01*
X105238095Y-79657200D02*
X105190476Y-79609580D01*
D12*
X174245238Y-87319556D02*
X174245238Y-87924318D01*
X173821905Y-86654318D02*
X174245238Y-87319556D01*
X174245238Y-87319556D02*
X174668572Y-86654318D01*
X175757143Y-87924318D02*
X175031428Y-87924318D01*
X175394285Y-87924318D02*
X175394285Y-86654318D01*
X175394285Y-86654318D02*
X175273333Y-86835746D01*
X175273333Y-86835746D02*
X175152381Y-86956699D01*
X175152381Y-86956699D02*
X175031428Y-87017175D01*
D10*
X122428571Y-52204819D02*
X122428571Y-51204819D01*
X122428571Y-51204819D02*
X122761904Y-51919104D01*
X122761904Y-51919104D02*
X123095237Y-51204819D01*
X123095237Y-51204819D02*
X123095237Y-52204819D01*
X123428571Y-51204819D02*
X123999999Y-51204819D01*
X123714285Y-52204819D02*
X123714285Y-51204819D01*
X124904761Y-52204819D02*
X124571428Y-51728628D01*
X124333333Y-52204819D02*
X124333333Y-51204819D01*
X124333333Y-51204819D02*
X124714285Y-51204819D01*
X124714285Y-51204819D02*
X124809523Y-51252438D01*
X124809523Y-51252438D02*
X124857142Y-51300057D01*
X124857142Y-51300057D02*
X124904761Y-51395295D01*
X124904761Y-51395295D02*
X124904761Y-51538152D01*
X124904761Y-51538152D02*
X124857142Y-51633390D01*
X124857142Y-51633390D02*
X124809523Y-51681009D01*
X124809523Y-51681009D02*
X124714285Y-51728628D01*
X124714285Y-51728628D02*
X124333333Y-51728628D01*
X125095238Y-52300057D02*
X125857142Y-52300057D01*
X126666666Y-52204819D02*
X126333333Y-51728628D01*
X126095238Y-52204819D02*
X126095238Y-51204819D01*
X126095238Y-51204819D02*
X126476190Y-51204819D01*
X126476190Y-51204819D02*
X126571428Y-51252438D01*
X126571428Y-51252438D02*
X126619047Y-51300057D01*
X126619047Y-51300057D02*
X126666666Y-51395295D01*
X126666666Y-51395295D02*
X126666666Y-51538152D01*
X126666666Y-51538152D02*
X126619047Y-51633390D01*
X126619047Y-51633390D02*
X126571428Y-51681009D01*
X126571428Y-51681009D02*
X126476190Y-51728628D01*
X126476190Y-51728628D02*
X126095238Y-51728628D01*
X127000000Y-51204819D02*
X127666666Y-52204819D01*
X127666666Y-51204819D02*
X127000000Y-52204819D01*
X114804819Y-73036904D02*
X115614342Y-73036904D01*
X115614342Y-73036904D02*
X115709580Y-72989285D01*
X115709580Y-72989285D02*
X115757200Y-72941666D01*
X115757200Y-72941666D02*
X115804819Y-72846428D01*
X115804819Y-72846428D02*
X115804819Y-72655952D01*
X115804819Y-72655952D02*
X115757200Y-72560714D01*
X115757200Y-72560714D02*
X115709580Y-72513095D01*
X115709580Y-72513095D02*
X115614342Y-72465476D01*
X115614342Y-72465476D02*
X114804819Y-72465476D01*
X115138152Y-71560714D02*
X115804819Y-71560714D01*
X114757200Y-71798809D02*
X115471485Y-72036904D01*
X115471485Y-72036904D02*
X115471485Y-71417857D01*
X124704819Y-78761904D02*
X125514342Y-78761904D01*
X125514342Y-78761904D02*
X125609580Y-78714285D01*
X125609580Y-78714285D02*
X125657200Y-78666666D01*
X125657200Y-78666666D02*
X125704819Y-78571428D01*
X125704819Y-78571428D02*
X125704819Y-78380952D01*
X125704819Y-78380952D02*
X125657200Y-78285714D01*
X125657200Y-78285714D02*
X125609580Y-78238095D01*
X125609580Y-78238095D02*
X125514342Y-78190476D01*
X125514342Y-78190476D02*
X124704819Y-78190476D01*
X124704819Y-77238095D02*
X124704819Y-77714285D01*
X124704819Y-77714285D02*
X125181009Y-77761904D01*
X125181009Y-77761904D02*
X125133390Y-77714285D01*
X125133390Y-77714285D02*
X125085771Y-77619047D01*
X125085771Y-77619047D02*
X125085771Y-77380952D01*
X125085771Y-77380952D02*
X125133390Y-77285714D01*
X125133390Y-77285714D02*
X125181009Y-77238095D01*
X125181009Y-77238095D02*
X125276247Y-77190476D01*
X125276247Y-77190476D02*
X125514342Y-77190476D01*
X125514342Y-77190476D02*
X125609580Y-77238095D01*
X125609580Y-77238095D02*
X125657200Y-77285714D01*
X125657200Y-77285714D02*
X125704819Y-77380952D01*
X125704819Y-77380952D02*
X125704819Y-77619047D01*
X125704819Y-77619047D02*
X125657200Y-77714285D01*
X125657200Y-77714285D02*
X125609580Y-77761904D01*
X102657200Y-97523809D02*
X102704819Y-97380952D01*
X102704819Y-97380952D02*
X102704819Y-97142857D01*
X102704819Y-97142857D02*
X102657200Y-97047619D01*
X102657200Y-97047619D02*
X102609580Y-97000000D01*
X102609580Y-97000000D02*
X102514342Y-96952381D01*
X102514342Y-96952381D02*
X102419104Y-96952381D01*
X102419104Y-96952381D02*
X102323866Y-97000000D01*
X102323866Y-97000000D02*
X102276247Y-97047619D01*
X102276247Y-97047619D02*
X102228628Y-97142857D01*
X102228628Y-97142857D02*
X102181009Y-97333333D01*
X102181009Y-97333333D02*
X102133390Y-97428571D01*
X102133390Y-97428571D02*
X102085771Y-97476190D01*
X102085771Y-97476190D02*
X101990533Y-97523809D01*
X101990533Y-97523809D02*
X101895295Y-97523809D01*
X101895295Y-97523809D02*
X101800057Y-97476190D01*
X101800057Y-97476190D02*
X101752438Y-97428571D01*
X101752438Y-97428571D02*
X101704819Y-97333333D01*
X101704819Y-97333333D02*
X101704819Y-97095238D01*
X101704819Y-97095238D02*
X101752438Y-96952381D01*
X101704819Y-96666666D02*
X101704819Y-96095238D01*
X102704819Y-96380952D02*
X101704819Y-96380952D01*
X102800057Y-96000000D02*
X102800057Y-95238095D01*
X102704819Y-94428571D02*
X102228628Y-94761904D01*
X102704819Y-94999999D02*
X101704819Y-94999999D01*
X101704819Y-94999999D02*
X101704819Y-94619047D01*
X101704819Y-94619047D02*
X101752438Y-94523809D01*
X101752438Y-94523809D02*
X101800057Y-94476190D01*
X101800057Y-94476190D02*
X101895295Y-94428571D01*
X101895295Y-94428571D02*
X102038152Y-94428571D01*
X102038152Y-94428571D02*
X102133390Y-94476190D01*
X102133390Y-94476190D02*
X102181009Y-94523809D01*
X102181009Y-94523809D02*
X102228628Y-94619047D01*
X102228628Y-94619047D02*
X102228628Y-94999999D01*
X101704819Y-94095237D02*
X102704819Y-93428571D01*
X101704819Y-93428571D02*
X102704819Y-94095237D01*
X106454819Y-86142857D02*
X105978628Y-86476190D01*
X106454819Y-86714285D02*
X105454819Y-86714285D01*
X105454819Y-86714285D02*
X105454819Y-86333333D01*
X105454819Y-86333333D02*
X105502438Y-86238095D01*
X105502438Y-86238095D02*
X105550057Y-86190476D01*
X105550057Y-86190476D02*
X105645295Y-86142857D01*
X105645295Y-86142857D02*
X105788152Y-86142857D01*
X105788152Y-86142857D02*
X105883390Y-86190476D01*
X105883390Y-86190476D02*
X105931009Y-86238095D01*
X105931009Y-86238095D02*
X105978628Y-86333333D01*
X105978628Y-86333333D02*
X105978628Y-86714285D01*
X106454819Y-85190476D02*
X106454819Y-85761904D01*
X106454819Y-85476190D02*
X105454819Y-85476190D01*
X105454819Y-85476190D02*
X105597676Y-85571428D01*
X105597676Y-85571428D02*
X105692914Y-85666666D01*
X105692914Y-85666666D02*
X105740533Y-85761904D01*
X105454819Y-84857142D02*
X105454819Y-84190476D01*
X105454819Y-84190476D02*
X106454819Y-84619047D01*
X162333333Y-92109580D02*
X162285714Y-92157200D01*
X162285714Y-92157200D02*
X162142857Y-92204819D01*
X162142857Y-92204819D02*
X162047619Y-92204819D01*
X162047619Y-92204819D02*
X161904762Y-92157200D01*
X161904762Y-92157200D02*
X161809524Y-92061961D01*
X161809524Y-92061961D02*
X161761905Y-91966723D01*
X161761905Y-91966723D02*
X161714286Y-91776247D01*
X161714286Y-91776247D02*
X161714286Y-91633390D01*
X161714286Y-91633390D02*
X161761905Y-91442914D01*
X161761905Y-91442914D02*
X161809524Y-91347676D01*
X161809524Y-91347676D02*
X161904762Y-91252438D01*
X161904762Y-91252438D02*
X162047619Y-91204819D01*
X162047619Y-91204819D02*
X162142857Y-91204819D01*
X162142857Y-91204819D02*
X162285714Y-91252438D01*
X162285714Y-91252438D02*
X162333333Y-91300057D01*
X162666667Y-91204819D02*
X163285714Y-91204819D01*
X163285714Y-91204819D02*
X162952381Y-91585771D01*
X162952381Y-91585771D02*
X163095238Y-91585771D01*
X163095238Y-91585771D02*
X163190476Y-91633390D01*
X163190476Y-91633390D02*
X163238095Y-91681009D01*
X163238095Y-91681009D02*
X163285714Y-91776247D01*
X163285714Y-91776247D02*
X163285714Y-92014342D01*
X163285714Y-92014342D02*
X163238095Y-92109580D01*
X163238095Y-92109580D02*
X163190476Y-92157200D01*
X163190476Y-92157200D02*
X163095238Y-92204819D01*
X163095238Y-92204819D02*
X162809524Y-92204819D01*
X162809524Y-92204819D02*
X162714286Y-92157200D01*
X162714286Y-92157200D02*
X162666667Y-92109580D01*
D12*
X167923667Y-79086318D02*
X167923667Y-79993461D01*
X167923667Y-79993461D02*
X167863190Y-80174889D01*
X167863190Y-80174889D02*
X167742238Y-80295842D01*
X167742238Y-80295842D02*
X167560809Y-80356318D01*
X167560809Y-80356318D02*
X167439857Y-80356318D01*
X168407476Y-79086318D02*
X169193667Y-79086318D01*
X169193667Y-79086318D02*
X168770333Y-79570127D01*
X168770333Y-79570127D02*
X168951762Y-79570127D01*
X168951762Y-79570127D02*
X169072714Y-79630603D01*
X169072714Y-79630603D02*
X169133190Y-79691080D01*
X169133190Y-79691080D02*
X169193667Y-79812032D01*
X169193667Y-79812032D02*
X169193667Y-80114413D01*
X169193667Y-80114413D02*
X169133190Y-80235365D01*
X169133190Y-80235365D02*
X169072714Y-80295842D01*
X169072714Y-80295842D02*
X168951762Y-80356318D01*
X168951762Y-80356318D02*
X168588905Y-80356318D01*
X168588905Y-80356318D02*
X168467952Y-80295842D01*
X168467952Y-80295842D02*
X168407476Y-80235365D01*
D13*
%TO.C,D1*%
X195715000Y-67900000D02*
X195715000Y-71960000D01*
X195715000Y-71960000D02*
X197985000Y-71960000D01*
X197985000Y-71960000D02*
X197985000Y-67900000D01*
D10*
%TO.C,U1*%
X172347500Y-91420000D02*
X172347500Y-91900000D01*
X172347500Y-91420000D02*
X176497500Y-91420000D01*
X172347500Y-101580000D02*
X172347500Y-101100000D01*
X172347500Y-101580000D02*
X176497500Y-101580000D01*
X176497500Y-91420000D02*
X176497500Y-91900000D01*
X176497500Y-101580000D02*
X176497500Y-101100000D01*
D13*
X171785000Y-91900000D02*
X171545000Y-91570000D01*
X172025000Y-91570000D01*
X171785000Y-91900000D01*
G36*
X171785000Y-91900000D02*
G01*
X171545000Y-91570000D01*
X172025000Y-91570000D01*
X171785000Y-91900000D01*
G37*
%TO.C,D4*%
X156365000Y-55040000D02*
X156365000Y-59100000D01*
X158635000Y-55040000D02*
X156365000Y-55040000D01*
X158635000Y-59100000D02*
X158635000Y-55040000D01*
%TO.C,J5*%
X175690000Y-103440000D02*
X175690000Y-105560000D01*
X181750000Y-103440000D02*
X175690000Y-103440000D01*
X181750000Y-103440000D02*
X181750000Y-105560000D01*
X181750000Y-105560000D02*
X175690000Y-105560000D01*
X182750000Y-103440000D02*
X183810000Y-103440000D01*
X183810000Y-103440000D02*
X183810000Y-104500000D01*
%TO.C,R16*%
X135027064Y-99390000D02*
X133572936Y-99390000D01*
X135027064Y-101210000D02*
X133572936Y-101210000D01*
%TO.C,R9*%
X152840000Y-63227064D02*
X152840000Y-61772936D01*
X154660000Y-63227064D02*
X154660000Y-61772936D01*
%TO.C,C21*%
X115038748Y-82840000D02*
X116461252Y-82840000D01*
X115038748Y-84660000D02*
X116461252Y-84660000D01*
%TO.C,R18*%
X103590000Y-95952064D02*
X103590000Y-94497936D01*
X105410000Y-95952064D02*
X105410000Y-94497936D01*
%TO.C,R6*%
X187927064Y-96540000D02*
X186472936Y-96540000D01*
X187927064Y-98360000D02*
X186472936Y-98360000D01*
%TO.C,D10*%
X99115000Y-83302500D02*
X99115000Y-87362500D01*
X101385000Y-83302500D02*
X99115000Y-83302500D01*
X101385000Y-87362500D02*
X101385000Y-83302500D01*
%TO.C,R3*%
X192040000Y-62422936D02*
X192040000Y-63877064D01*
X193860000Y-62422936D02*
X193860000Y-63877064D01*
D10*
%TO.C,U6*%
X108250000Y-87975000D02*
X108825000Y-87975000D01*
X108250000Y-93725000D02*
X108250000Y-87975000D01*
X108250000Y-93725000D02*
X108825000Y-93725000D01*
X118325000Y-87975000D02*
X118900000Y-87975000D01*
X118325000Y-93725000D02*
X118900000Y-93725000D01*
X118900000Y-93725000D02*
X118900000Y-87975000D01*
D13*
X108825000Y-94225000D02*
X108495000Y-94465000D01*
X108495000Y-93985000D01*
X108825000Y-94225000D01*
G36*
X108825000Y-94225000D02*
G01*
X108495000Y-94465000D01*
X108495000Y-93985000D01*
X108825000Y-94225000D01*
G37*
%TO.C,J6*%
X107190000Y-103440000D02*
X107190000Y-105560000D01*
X113250000Y-103440000D02*
X107190000Y-103440000D01*
X113250000Y-103440000D02*
X113250000Y-105560000D01*
X113250000Y-105560000D02*
X107190000Y-105560000D01*
X114250000Y-103440000D02*
X115310000Y-103440000D01*
X115310000Y-103440000D02*
X115310000Y-104500000D01*
%TO.C,D3*%
X195965000Y-55350000D02*
X195965000Y-59410000D01*
X195965000Y-59410000D02*
X198235000Y-59410000D01*
X198235000Y-59410000D02*
X198235000Y-55350000D01*
%TO.C,J1*%
X186920000Y-80590000D02*
X188250000Y-80590000D01*
X186920000Y-81920000D02*
X186920000Y-80590000D01*
X186920000Y-83190000D02*
X186920000Y-90870000D01*
X186920000Y-83190000D02*
X189580000Y-83190000D01*
X186920000Y-90870000D02*
X189580000Y-90870000D01*
X189580000Y-83190000D02*
X189580000Y-90870000D01*
%TO.C,D2*%
X195865000Y-61550000D02*
X195865000Y-65610000D01*
X195865000Y-65610000D02*
X198135000Y-65610000D01*
X198135000Y-65610000D02*
X198135000Y-61550000D01*
%TO.C,C9*%
X146988748Y-61490000D02*
X148411252Y-61490000D01*
X146988748Y-63310000D02*
X148411252Y-63310000D01*
%TO.C,R8*%
X152090000Y-57727064D02*
X152090000Y-56272936D01*
X153910000Y-57727064D02*
X153910000Y-56272936D01*
%TO.C,C10*%
X106038748Y-62840000D02*
X107461252Y-62840000D01*
X106038748Y-64660000D02*
X107461252Y-64660000D01*
%TO.C,D6*%
X116290000Y-48615000D02*
X116290000Y-50885000D01*
X116290000Y-50885000D02*
X120350000Y-50885000D01*
X120350000Y-48615000D02*
X116290000Y-48615000D01*
%TO.C,C19*%
X145788748Y-75340000D02*
X147211252Y-75340000D01*
X145788748Y-77160000D02*
X147211252Y-77160000D01*
%TO.C,C1*%
X178840000Y-80861252D02*
X178840000Y-79438748D01*
X180660000Y-80861252D02*
X180660000Y-79438748D01*
%TO.C,R7*%
X109090000Y-79727064D02*
X109090000Y-78272936D01*
X110910000Y-79727064D02*
X110910000Y-78272936D01*
%TO.C,C18*%
X129963748Y-87890000D02*
X131386252Y-87890000D01*
X129963748Y-89710000D02*
X131386252Y-89710000D01*
%TO.C,D8*%
X122077500Y-102665000D02*
X122077500Y-104935000D01*
X122077500Y-104935000D02*
X126137500Y-104935000D01*
X126137500Y-102665000D02*
X122077500Y-102665000D01*
%TO.C,C12*%
X120390000Y-84288748D02*
X120390000Y-85711252D01*
X122210000Y-84288748D02*
X122210000Y-85711252D01*
%TO.C,C20*%
X145788748Y-78840000D02*
X147211252Y-78840000D01*
X145788748Y-80660000D02*
X147211252Y-80660000D01*
D10*
%TO.C,U2*%
X141675000Y-66875000D02*
X142250000Y-66875000D01*
X141675000Y-72625000D02*
X141675000Y-66875000D01*
X141675000Y-72625000D02*
X142250000Y-72625000D01*
X151750000Y-66875000D02*
X152325000Y-66875000D01*
X151750000Y-72625000D02*
X152325000Y-72625000D01*
X152325000Y-72625000D02*
X152325000Y-66875000D01*
D13*
X142250000Y-73125000D02*
X141920000Y-73365000D01*
X141920000Y-72885000D01*
X142250000Y-73125000D01*
G36*
X142250000Y-73125000D02*
G01*
X141920000Y-73365000D01*
X141920000Y-72885000D01*
X142250000Y-73125000D01*
G37*
%TO.C,R10*%
X119477064Y-52840000D02*
X118022936Y-52840000D01*
X119477064Y-54660000D02*
X118022936Y-54660000D01*
%TO.C,C17*%
X129988748Y-84140000D02*
X131411252Y-84140000D01*
X129988748Y-85960000D02*
X131411252Y-85960000D01*
%TO.C,C14*%
X182390000Y-96611252D02*
X182390000Y-95188748D01*
X184210000Y-96611252D02*
X184210000Y-95188748D01*
%TO.C,R13*%
X109340000Y-59439564D02*
X109340000Y-57985436D01*
X111160000Y-59439564D02*
X111160000Y-57985436D01*
%TO.C,C6*%
X165965000Y-100761252D02*
X165965000Y-99338748D01*
X167785000Y-100761252D02*
X167785000Y-99338748D01*
%TO.C,R15*%
X123822936Y-99390000D02*
X125277064Y-99390000D01*
X123822936Y-101210000D02*
X125277064Y-101210000D01*
%TO.C,C13*%
X179040000Y-96661252D02*
X179040000Y-95238748D01*
X180860000Y-96661252D02*
X180860000Y-95238748D01*
%TO.C,R4*%
X191990000Y-68822936D02*
X191990000Y-70277064D01*
X193810000Y-68822936D02*
X193810000Y-70277064D01*
%TO.C,C4*%
X161788748Y-84340000D02*
X163211252Y-84340000D01*
X161788748Y-86160000D02*
X163211252Y-86160000D01*
%TO.C,R1*%
X169977064Y-103090000D02*
X168522936Y-103090000D01*
X169977064Y-104910000D02*
X168522936Y-104910000D01*
%TO.C,R12*%
X106477064Y-55340000D02*
X105022936Y-55340000D01*
X106477064Y-57160000D02*
X105022936Y-57160000D01*
%TO.C,C8*%
X182440000Y-99988748D02*
X182440000Y-101411252D01*
X184260000Y-99988748D02*
X184260000Y-101411252D01*
%TO.C,D5*%
X156365000Y-61040000D02*
X156365000Y-65100000D01*
X158635000Y-61040000D02*
X156365000Y-61040000D01*
X158635000Y-65100000D02*
X158635000Y-61040000D01*
%TO.C,C2*%
X182190000Y-80861252D02*
X182190000Y-79438748D01*
X184010000Y-80861252D02*
X184010000Y-79438748D01*
%TO.C,C25*%
X134840000Y-65186252D02*
X134840000Y-63763748D01*
X136660000Y-65186252D02*
X136660000Y-63763748D01*
%TO.C,J4*%
X99640000Y-48940000D02*
X99640000Y-52960000D01*
X99640000Y-50440000D02*
X100640000Y-50440000D01*
X99640000Y-52960000D02*
X112360000Y-52960000D01*
X100140000Y-51250000D02*
X99640000Y-51250000D01*
X100140000Y-52460000D02*
X100140000Y-51250000D01*
X100640000Y-50440000D02*
X100640000Y-48940000D01*
X111360000Y-50440000D02*
X111360000Y-48940000D01*
X111860000Y-51250000D02*
X111860000Y-52460000D01*
X111860000Y-52460000D02*
X100140000Y-52460000D01*
X112360000Y-48940000D02*
X99640000Y-48940000D01*
X112360000Y-50440000D02*
X111360000Y-50440000D01*
X112360000Y-51250000D02*
X111860000Y-51250000D01*
X112360000Y-52960000D02*
X112360000Y-48940000D01*
X112660000Y-48640000D02*
X110160000Y-48640000D01*
X112660000Y-51140000D02*
X112660000Y-48640000D01*
%TO.C,C26*%
X124090000Y-65711252D02*
X124090000Y-64288748D01*
X125910000Y-65711252D02*
X125910000Y-64288748D01*
%TO.C,D9*%
X131840000Y-102665000D02*
X131840000Y-104935000D01*
X131840000Y-104935000D02*
X135900000Y-104935000D01*
X135900000Y-102665000D02*
X131840000Y-102665000D01*
%TO.C,C16*%
X103788748Y-79840000D02*
X105211252Y-79840000D01*
X103788748Y-81660000D02*
X105211252Y-81660000D01*
%TO.C,C11*%
X136711252Y-70340000D02*
X135288748Y-70340000D01*
X136711252Y-72160000D02*
X135288748Y-72160000D01*
%TO.C,R2*%
X192090000Y-56272936D02*
X192090000Y-57727064D01*
X193910000Y-56272936D02*
X193910000Y-57727064D01*
%TO.C,C7*%
X178990000Y-99938748D02*
X178990000Y-101361252D01*
X180810000Y-99938748D02*
X180810000Y-101361252D01*
%TO.C,J2*%
X143840000Y-52830000D02*
X143840000Y-51500000D01*
X145170000Y-52830000D02*
X143840000Y-52830000D01*
X146440000Y-50170000D02*
X154120000Y-50170000D01*
X146440000Y-52830000D02*
X146440000Y-50170000D01*
X146440000Y-52830000D02*
X154120000Y-52830000D01*
X154120000Y-52830000D02*
X154120000Y-50170000D01*
%TO.C,C24*%
X115961252Y-61840000D02*
X114538748Y-61840000D01*
X115961252Y-63660000D02*
X114538748Y-63660000D01*
%TO.C,U7*%
X127440000Y-60890000D02*
X128700000Y-60890000D01*
X127440000Y-64650000D02*
X127440000Y-60890000D01*
X134260000Y-60890000D02*
X133000000Y-60890000D01*
X134260000Y-64650000D02*
X134260000Y-60890000D01*
X127540000Y-65930000D02*
X127210000Y-66170000D01*
X127210000Y-65690000D01*
X127540000Y-65930000D01*
G36*
X127540000Y-65930000D02*
G01*
X127210000Y-66170000D01*
X127210000Y-65690000D01*
X127540000Y-65930000D01*
G37*
%TO.C,R14*%
X100022936Y-55340000D02*
X101477064Y-55340000D01*
X100022936Y-57160000D02*
X101477064Y-57160000D01*
D10*
%TO.C,U3*%
X100100000Y-68225000D02*
X100675000Y-68225000D01*
X100100000Y-73975000D02*
X100100000Y-68225000D01*
X100100000Y-73975000D02*
X100675000Y-73975000D01*
X110175000Y-68225000D02*
X110750000Y-68225000D01*
X110175000Y-73975000D02*
X110750000Y-73975000D01*
X110750000Y-73975000D02*
X110750000Y-68225000D01*
D13*
X100675000Y-74475000D02*
X100345000Y-74715000D01*
X100345000Y-74235000D01*
X100675000Y-74475000D01*
G36*
X100675000Y-74475000D02*
G01*
X100345000Y-74715000D01*
X100345000Y-74235000D01*
X100675000Y-74475000D01*
G37*
%TO.C,C5*%
X162590000Y-100761252D02*
X162590000Y-99338748D01*
X164410000Y-100761252D02*
X164410000Y-99338748D01*
%TO.C,R5*%
X187977064Y-99890000D02*
X186522936Y-99890000D01*
X187977064Y-101710000D02*
X186522936Y-101710000D01*
%TO.C,R11*%
X125727064Y-52840000D02*
X124272936Y-52840000D01*
X125727064Y-54660000D02*
X124272936Y-54660000D01*
%TO.C,C15*%
X103788748Y-76840000D02*
X105211252Y-76840000D01*
X103788748Y-78660000D02*
X105211252Y-78660000D01*
D11*
%TO.C,Y1*%
X166850000Y-87350000D02*
X166850000Y-87350000D01*
X166950000Y-87350000D02*
X166950000Y-87350000D01*
D14*
X169150000Y-84950000D02*
X180550000Y-84950000D01*
X169150000Y-85950000D02*
X169150000Y-84950000D01*
X169150000Y-89750000D02*
X169150000Y-88750000D01*
X180550000Y-84950000D02*
X180550000Y-85950000D01*
X180550000Y-88750000D02*
X180550000Y-89750000D01*
X180550000Y-89750000D02*
X169150000Y-89750000D01*
D11*
X166850000Y-87350000D02*
G75*
G02*
X166950000Y-87350000I50000J0D01*
G01*
X166950000Y-87350000D02*
G75*
G02*
X166850000Y-87350000I-50000J0D01*
G01*
D13*
%TO.C,D7*%
X122540000Y-48615000D02*
X122540000Y-50885000D01*
X122540000Y-50885000D02*
X126600000Y-50885000D01*
X126600000Y-48615000D02*
X122540000Y-48615000D01*
%TO.C,C23*%
X115961252Y-65590000D02*
X114538748Y-65590000D01*
X115961252Y-67410000D02*
X114538748Y-67410000D01*
%TO.C,U4*%
X116190000Y-72275000D02*
X116190000Y-70325000D01*
X116190000Y-72275000D02*
X116190000Y-74225000D01*
X121310000Y-72275000D02*
X121310000Y-70325000D01*
X121310000Y-72275000D02*
X121310000Y-74225000D01*
X116285000Y-74975000D02*
X115955000Y-75215000D01*
X115955000Y-74735000D01*
X116285000Y-74975000D01*
G36*
X116285000Y-74975000D02*
G01*
X115955000Y-75215000D01*
X115955000Y-74735000D01*
X116285000Y-74975000D01*
G37*
D10*
%TO.C,U5*%
X126175000Y-75125000D02*
X126750000Y-75125000D01*
X126175000Y-80875000D02*
X126175000Y-75125000D01*
X126175000Y-80875000D02*
X126750000Y-80875000D01*
X136250000Y-75125000D02*
X136825000Y-75125000D01*
X136250000Y-80875000D02*
X136825000Y-80875000D01*
X136825000Y-80875000D02*
X136825000Y-75125000D01*
D13*
X126750000Y-81375000D02*
X126420000Y-81615000D01*
X126420000Y-81135000D01*
X126750000Y-81375000D01*
G36*
X126750000Y-81375000D02*
G01*
X126420000Y-81615000D01*
X126420000Y-81135000D01*
X126750000Y-81375000D01*
G37*
%TO.C,D11*%
X99115000Y-92815000D02*
X99115000Y-96875000D01*
X101385000Y-92815000D02*
X99115000Y-92815000D01*
X101385000Y-96875000D02*
X101385000Y-92815000D01*
%TO.C,C22*%
X115038748Y-79090000D02*
X116461252Y-79090000D01*
X115038748Y-80910000D02*
X116461252Y-80910000D01*
%TO.C,R17*%
X103340000Y-86377064D02*
X103340000Y-84922936D01*
X105160000Y-86377064D02*
X105160000Y-84922936D01*
%TO.C,C3*%
X161788748Y-88090000D02*
X163211252Y-88090000D01*
X161788748Y-89910000D02*
X163211252Y-89910000D01*
D12*
%TO.C,J3*%
X157845000Y-76635000D02*
X157845000Y-83365000D01*
X157845000Y-83365000D02*
X177655000Y-83365000D01*
X177655000Y-76635000D02*
X157845000Y-76635000D01*
X177655000Y-83365000D02*
X177655000Y-76635000D01*
%TD*%
M02*
