%TF.GenerationSoftware,KiCad,Pcbnew,8.0.6*%
%TF.CreationDate,2025-05-15T16:05:44-03:00*%
%TF.ProjectId,NEW_Communication_Board,4e45575f-436f-46d6-9d75-6e6963617469,rev?*%
%TF.SameCoordinates,Original*%
%TF.FileFunction,Paste,Top*%
%TF.FilePolarity,Positive*%
%FSLAX46Y46*%
G04 Gerber Fmt 4.6, Leading zero omitted, Abs format (unit mm)*
G04 Created by KiCad (PCBNEW 8.0.6) date 2025-05-15 16:05:44*
%MOMM*%
%LPD*%
G01*
G04 APERTURE LIST*
G04 Aperture macros list*
%AMRoundRect*
0 Rectangle with rounded corners*
0 $1 Rounding radius*
0 $2 $3 $4 $5 $6 $7 $8 $9 X,Y pos of 4 corners*
0 Add a 4 corners polygon primitive as box body*
4,1,4,$2,$3,$4,$5,$6,$7,$8,$9,$2,$3,0*
0 Add four circle primitives for the rounded corners*
1,1,$1+$1,$2,$3*
1,1,$1+$1,$4,$5*
1,1,$1+$1,$6,$7*
1,1,$1+$1,$8,$9*
0 Add four rect primitives between the rounded corners*
20,1,$1+$1,$2,$3,$4,$5,0*
20,1,$1+$1,$4,$5,$6,$7,0*
20,1,$1+$1,$6,$7,$8,$9,0*
20,1,$1+$1,$8,$9,$2,$3,0*%
G04 Aperture macros list end*
%ADD10RoundRect,0.250001X0.624999X-0.462499X0.624999X0.462499X-0.624999X0.462499X-0.624999X-0.462499X0*%
%ADD11R,1.200000X0.400000*%
%ADD12RoundRect,0.250001X-0.624999X0.462499X-0.624999X-0.462499X0.624999X-0.462499X0.624999X0.462499X0*%
%ADD13RoundRect,0.250000X0.312500X0.625000X-0.312500X0.625000X-0.312500X-0.625000X0.312500X-0.625000X0*%
%ADD14RoundRect,0.250000X0.625000X-0.312500X0.625000X0.312500X-0.625000X0.312500X-0.625000X-0.312500X0*%
%ADD15RoundRect,0.250000X-0.325000X-0.650000X0.325000X-0.650000X0.325000X0.650000X-0.325000X0.650000X0*%
%ADD16RoundRect,0.250000X-0.625000X0.312500X-0.625000X-0.312500X0.625000X-0.312500X0.625000X0.312500X0*%
%ADD17R,0.450000X1.750000*%
%ADD18RoundRect,0.250001X-0.462499X-0.624999X0.462499X-0.624999X0.462499X0.624999X-0.462499X0.624999X0*%
%ADD19RoundRect,0.250000X0.650000X-0.325000X0.650000X0.325000X-0.650000X0.325000X-0.650000X-0.325000X0*%
%ADD20RoundRect,0.250000X-0.650000X0.325000X-0.650000X-0.325000X0.650000X-0.325000X0.650000X0.325000X0*%
%ADD21RoundRect,0.250000X-0.312500X-0.625000X0.312500X-0.625000X0.312500X0.625000X-0.312500X0.625000X0*%
%ADD22R,1.524000X1.524000*%
%ADD23RoundRect,0.250000X0.325000X0.650000X-0.325000X0.650000X-0.325000X-0.650000X0.325000X-0.650000X0*%
%ADD24RoundRect,0.375000X0.375000X-0.625000X0.375000X0.625000X-0.375000X0.625000X-0.375000X-0.625000X0*%
%ADD25RoundRect,0.500000X1.400000X-0.500000X1.400000X0.500000X-1.400000X0.500000X-1.400000X-0.500000X0*%
%ADD26R,5.500000X2.000000*%
%ADD27RoundRect,0.150000X0.150000X-0.825000X0.150000X0.825000X-0.150000X0.825000X-0.150000X-0.825000X0*%
G04 APERTURE END LIST*
D10*
%TO.C,D1*%
X196850000Y-70987500D03*
X196850000Y-68012500D03*
%TD*%
D11*
%TO.C,U1*%
X171822500Y-92372500D03*
X171822500Y-93007500D03*
X171822500Y-93642500D03*
X171822500Y-94277500D03*
X171822500Y-94912500D03*
X171822500Y-95547500D03*
X171822500Y-96182500D03*
X171822500Y-96817500D03*
X171822500Y-97452500D03*
X171822500Y-98087500D03*
X171822500Y-98722500D03*
X171822500Y-99357500D03*
X171822500Y-99992500D03*
X171822500Y-100627500D03*
X177022500Y-100627500D03*
X177022500Y-99992500D03*
X177022500Y-99357500D03*
X177022500Y-98722500D03*
X177022500Y-98087500D03*
X177022500Y-97452500D03*
X177022500Y-96817500D03*
X177022500Y-96182500D03*
X177022500Y-95547500D03*
X177022500Y-94912500D03*
X177022500Y-94277500D03*
X177022500Y-93642500D03*
X177022500Y-93007500D03*
X177022500Y-92372500D03*
%TD*%
D12*
%TO.C,D4*%
X157500000Y-56012500D03*
X157500000Y-58987500D03*
%TD*%
D13*
%TO.C,R16*%
X135762500Y-100300000D03*
X132837500Y-100300000D03*
%TD*%
D14*
%TO.C,R9*%
X153750000Y-63962500D03*
X153750000Y-61037500D03*
%TD*%
D15*
%TO.C,C21*%
X114275000Y-83750000D03*
X117225000Y-83750000D03*
%TD*%
D14*
%TO.C,R18*%
X104500000Y-96687500D03*
X104500000Y-93762500D03*
%TD*%
D13*
%TO.C,R6*%
X188662500Y-97450000D03*
X185737500Y-97450000D03*
%TD*%
D12*
%TO.C,D10*%
X100250000Y-84275000D03*
X100250000Y-87250000D03*
%TD*%
D16*
%TO.C,R3*%
X192950000Y-61687500D03*
X192950000Y-64612500D03*
%TD*%
D17*
%TO.C,U6*%
X109350000Y-94450000D03*
X110000000Y-94450000D03*
X110650000Y-94450000D03*
X111300000Y-94450000D03*
X111950000Y-94450000D03*
X112600000Y-94450000D03*
X113250000Y-94450000D03*
X113900000Y-94450000D03*
X114550000Y-94450000D03*
X115200000Y-94450000D03*
X115850000Y-94450000D03*
X116500000Y-94450000D03*
X117150000Y-94450000D03*
X117800000Y-94450000D03*
X117800000Y-87250000D03*
X117150000Y-87250000D03*
X116500000Y-87250000D03*
X115850000Y-87250000D03*
X115200000Y-87250000D03*
X114550000Y-87250000D03*
X113900000Y-87250000D03*
X113250000Y-87250000D03*
X112600000Y-87250000D03*
X111950000Y-87250000D03*
X111300000Y-87250000D03*
X110650000Y-87250000D03*
X110000000Y-87250000D03*
X109350000Y-87250000D03*
%TD*%
D10*
%TO.C,D3*%
X197100000Y-58437500D03*
X197100000Y-55462500D03*
%TD*%
%TO.C,D2*%
X197000000Y-64637500D03*
X197000000Y-61662500D03*
%TD*%
D15*
%TO.C,C9*%
X146225000Y-62400000D03*
X149175000Y-62400000D03*
%TD*%
D14*
%TO.C,R8*%
X153000000Y-58462500D03*
X153000000Y-55537500D03*
%TD*%
D15*
%TO.C,C10*%
X105275000Y-63750000D03*
X108225000Y-63750000D03*
%TD*%
D18*
%TO.C,D6*%
X117262500Y-49750000D03*
X120237500Y-49750000D03*
%TD*%
D15*
%TO.C,C19*%
X145025000Y-76250000D03*
X147975000Y-76250000D03*
%TD*%
D19*
%TO.C,C1*%
X179750000Y-81625000D03*
X179750000Y-78675000D03*
%TD*%
D14*
%TO.C,R7*%
X110000000Y-80462500D03*
X110000000Y-77537500D03*
%TD*%
D15*
%TO.C,C18*%
X129200000Y-88800000D03*
X132150000Y-88800000D03*
%TD*%
D18*
%TO.C,D8*%
X123050000Y-103800000D03*
X126025000Y-103800000D03*
%TD*%
D20*
%TO.C,C12*%
X121300000Y-83525000D03*
X121300000Y-86475000D03*
%TD*%
D15*
%TO.C,C20*%
X145025000Y-79750000D03*
X147975000Y-79750000D03*
%TD*%
D17*
%TO.C,U2*%
X142775000Y-73350000D03*
X143425000Y-73350000D03*
X144075000Y-73350000D03*
X144725000Y-73350000D03*
X145375000Y-73350000D03*
X146025000Y-73350000D03*
X146675000Y-73350000D03*
X147325000Y-73350000D03*
X147975000Y-73350000D03*
X148625000Y-73350000D03*
X149275000Y-73350000D03*
X149925000Y-73350000D03*
X150575000Y-73350000D03*
X151225000Y-73350000D03*
X151225000Y-66150000D03*
X150575000Y-66150000D03*
X149925000Y-66150000D03*
X149275000Y-66150000D03*
X148625000Y-66150000D03*
X147975000Y-66150000D03*
X147325000Y-66150000D03*
X146675000Y-66150000D03*
X146025000Y-66150000D03*
X145375000Y-66150000D03*
X144725000Y-66150000D03*
X144075000Y-66150000D03*
X143425000Y-66150000D03*
X142775000Y-66150000D03*
%TD*%
D13*
%TO.C,R10*%
X120212500Y-53750000D03*
X117287500Y-53750000D03*
%TD*%
D15*
%TO.C,C17*%
X129225000Y-85050000D03*
X132175000Y-85050000D03*
%TD*%
D19*
%TO.C,C14*%
X183300000Y-97375000D03*
X183300000Y-94425000D03*
%TD*%
D14*
%TO.C,R13*%
X110250000Y-60175000D03*
X110250000Y-57250000D03*
%TD*%
D19*
%TO.C,C6*%
X166875000Y-101525000D03*
X166875000Y-98575000D03*
%TD*%
D21*
%TO.C,R15*%
X123087500Y-100300000D03*
X126012500Y-100300000D03*
%TD*%
D19*
%TO.C,C13*%
X179950000Y-97425000D03*
X179950000Y-94475000D03*
%TD*%
D16*
%TO.C,R4*%
X192900000Y-68087500D03*
X192900000Y-71012500D03*
%TD*%
D22*
%TO.C,REF\u002A\u002A*%
X179500000Y-53500000D03*
X181500000Y-53500000D03*
X183500000Y-53500000D03*
X185500000Y-53500000D03*
X179500000Y-55500000D03*
X181500000Y-55500000D03*
X183500000Y-55500000D03*
X185500000Y-55500000D03*
%TD*%
D15*
%TO.C,C4*%
X161025000Y-85250000D03*
X163975000Y-85250000D03*
%TD*%
D13*
%TO.C,R1*%
X170712500Y-104000000D03*
X167787500Y-104000000D03*
%TD*%
%TO.C,R12*%
X107212500Y-56250000D03*
X104287500Y-56250000D03*
%TD*%
D20*
%TO.C,C8*%
X183350000Y-99225000D03*
X183350000Y-102175000D03*
%TD*%
D12*
%TO.C,D5*%
X157500000Y-62012500D03*
X157500000Y-64987500D03*
%TD*%
D19*
%TO.C,C2*%
X183100000Y-81625000D03*
X183100000Y-78675000D03*
%TD*%
%TO.C,C25*%
X135750000Y-65950000D03*
X135750000Y-63000000D03*
%TD*%
%TO.C,C26*%
X125000000Y-66475000D03*
X125000000Y-63525000D03*
%TD*%
D18*
%TO.C,D9*%
X132812500Y-103800000D03*
X135787500Y-103800000D03*
%TD*%
D15*
%TO.C,C16*%
X103025000Y-80750000D03*
X105975000Y-80750000D03*
%TD*%
D23*
%TO.C,C11*%
X137475000Y-71250000D03*
X134525000Y-71250000D03*
%TD*%
D16*
%TO.C,R2*%
X193000000Y-55537500D03*
X193000000Y-58462500D03*
%TD*%
D20*
%TO.C,C7*%
X179900000Y-99175000D03*
X179900000Y-102125000D03*
%TD*%
D23*
%TO.C,C24*%
X116725000Y-62750000D03*
X113775000Y-62750000D03*
%TD*%
D24*
%TO.C,U7*%
X128550000Y-65950000D03*
X130850000Y-65950000D03*
X133150000Y-65950000D03*
D25*
X130850000Y-59650000D03*
%TD*%
D21*
%TO.C,R14*%
X99287500Y-56250000D03*
X102212500Y-56250000D03*
%TD*%
D17*
%TO.C,U3*%
X101200000Y-74700000D03*
X101850000Y-74700000D03*
X102500000Y-74700000D03*
X103150000Y-74700000D03*
X103800000Y-74700000D03*
X104450000Y-74700000D03*
X105100000Y-74700000D03*
X105750000Y-74700000D03*
X106400000Y-74700000D03*
X107050000Y-74700000D03*
X107700000Y-74700000D03*
X108350000Y-74700000D03*
X109000000Y-74700000D03*
X109650000Y-74700000D03*
X109650000Y-67500000D03*
X109000000Y-67500000D03*
X108350000Y-67500000D03*
X107700000Y-67500000D03*
X107050000Y-67500000D03*
X106400000Y-67500000D03*
X105750000Y-67500000D03*
X105100000Y-67500000D03*
X104450000Y-67500000D03*
X103800000Y-67500000D03*
X103150000Y-67500000D03*
X102500000Y-67500000D03*
X101850000Y-67500000D03*
X101200000Y-67500000D03*
%TD*%
D19*
%TO.C,C5*%
X163500000Y-101525000D03*
X163500000Y-98575000D03*
%TD*%
D13*
%TO.C,R5*%
X188712500Y-100800000D03*
X185787500Y-100800000D03*
%TD*%
%TO.C,R11*%
X126462500Y-53750000D03*
X123537500Y-53750000D03*
%TD*%
D15*
%TO.C,C15*%
X103025000Y-77750000D03*
X105975000Y-77750000D03*
%TD*%
D26*
%TO.C,Y1*%
X170100000Y-87350000D03*
X179600000Y-87350000D03*
%TD*%
D18*
%TO.C,D7*%
X123512500Y-49750000D03*
X126487500Y-49750000D03*
%TD*%
D23*
%TO.C,C23*%
X116725000Y-66500000D03*
X113775000Y-66500000D03*
%TD*%
D27*
%TO.C,U4*%
X116845000Y-74750000D03*
X118115000Y-74750000D03*
X119385000Y-74750000D03*
X120655000Y-74750000D03*
X120655000Y-69800000D03*
X119385000Y-69800000D03*
X118115000Y-69800000D03*
X116845000Y-69800000D03*
%TD*%
D17*
%TO.C,U5*%
X127275000Y-81600000D03*
X127925000Y-81600000D03*
X128575000Y-81600000D03*
X129225000Y-81600000D03*
X129875000Y-81600000D03*
X130525000Y-81600000D03*
X131175000Y-81600000D03*
X131825000Y-81600000D03*
X132475000Y-81600000D03*
X133125000Y-81600000D03*
X133775000Y-81600000D03*
X134425000Y-81600000D03*
X135075000Y-81600000D03*
X135725000Y-81600000D03*
X135725000Y-74400000D03*
X135075000Y-74400000D03*
X134425000Y-74400000D03*
X133775000Y-74400000D03*
X133125000Y-74400000D03*
X132475000Y-74400000D03*
X131825000Y-74400000D03*
X131175000Y-74400000D03*
X130525000Y-74400000D03*
X129875000Y-74400000D03*
X129225000Y-74400000D03*
X128575000Y-74400000D03*
X127925000Y-74400000D03*
X127275000Y-74400000D03*
%TD*%
D12*
%TO.C,D11*%
X100250000Y-93787500D03*
X100250000Y-96762500D03*
%TD*%
D15*
%TO.C,C22*%
X114275000Y-80000000D03*
X117225000Y-80000000D03*
%TD*%
D14*
%TO.C,R17*%
X104250000Y-87112500D03*
X104250000Y-84187500D03*
%TD*%
D15*
%TO.C,C3*%
X161025000Y-89000000D03*
X163975000Y-89000000D03*
%TD*%
M02*
