%TF.GenerationSoftware,KiCad,Pcbnew,8.0.6*%
%TF.CreationDate,2025-05-15T16:05:44-03:00*%
%TF.ProjectId,NEW_Communication_Board,4e45575f-436f-46d6-9d75-6e6963617469,rev?*%
%TF.SameCoordinates,Original*%
%TF.FileFunction,Legend,Bot*%
%TF.FilePolarity,Positive*%
%FSLAX46Y46*%
G04 Gerber Fmt 4.6, Leading zero omitted, Abs format (unit mm)*
G04 Created by KiCad (PCBNEW 8.0.6) date 2025-05-15 16:05:44*
%MOMM*%
%LPD*%
G01*
G04 APERTURE LIST*
%ADD10C,0.300000*%
%ADD11C,0.000000*%
G04 APERTURE END LIST*
D10*
X166195489Y-104800828D02*
X166195489Y-103300828D01*
X166195489Y-103300828D02*
X165838346Y-103300828D01*
X165838346Y-103300828D02*
X165624060Y-103372257D01*
X165624060Y-103372257D02*
X165481203Y-103515114D01*
X165481203Y-103515114D02*
X165409774Y-103657971D01*
X165409774Y-103657971D02*
X165338346Y-103943685D01*
X165338346Y-103943685D02*
X165338346Y-104157971D01*
X165338346Y-104157971D02*
X165409774Y-104443685D01*
X165409774Y-104443685D02*
X165481203Y-104586542D01*
X165481203Y-104586542D02*
X165624060Y-104729400D01*
X165624060Y-104729400D02*
X165838346Y-104800828D01*
X165838346Y-104800828D02*
X166195489Y-104800828D01*
X164124060Y-104729400D02*
X164266917Y-104800828D01*
X164266917Y-104800828D02*
X164552632Y-104800828D01*
X164552632Y-104800828D02*
X164695489Y-104729400D01*
X164695489Y-104729400D02*
X164766917Y-104586542D01*
X164766917Y-104586542D02*
X164766917Y-104015114D01*
X164766917Y-104015114D02*
X164695489Y-103872257D01*
X164695489Y-103872257D02*
X164552632Y-103800828D01*
X164552632Y-103800828D02*
X164266917Y-103800828D01*
X164266917Y-103800828D02*
X164124060Y-103872257D01*
X164124060Y-103872257D02*
X164052632Y-104015114D01*
X164052632Y-104015114D02*
X164052632Y-104157971D01*
X164052632Y-104157971D02*
X164766917Y-104300828D01*
X163481203Y-104729400D02*
X163338346Y-104800828D01*
X163338346Y-104800828D02*
X163052632Y-104800828D01*
X163052632Y-104800828D02*
X162909775Y-104729400D01*
X162909775Y-104729400D02*
X162838346Y-104586542D01*
X162838346Y-104586542D02*
X162838346Y-104515114D01*
X162838346Y-104515114D02*
X162909775Y-104372257D01*
X162909775Y-104372257D02*
X163052632Y-104300828D01*
X163052632Y-104300828D02*
X163266918Y-104300828D01*
X163266918Y-104300828D02*
X163409775Y-104229400D01*
X163409775Y-104229400D02*
X163481203Y-104086542D01*
X163481203Y-104086542D02*
X163481203Y-104015114D01*
X163481203Y-104015114D02*
X163409775Y-103872257D01*
X163409775Y-103872257D02*
X163266918Y-103800828D01*
X163266918Y-103800828D02*
X163052632Y-103800828D01*
X163052632Y-103800828D02*
X162909775Y-103872257D01*
X162195489Y-104800828D02*
X162195489Y-103800828D01*
X162195489Y-103300828D02*
X162266917Y-103372257D01*
X162266917Y-103372257D02*
X162195489Y-103443685D01*
X162195489Y-103443685D02*
X162124060Y-103372257D01*
X162124060Y-103372257D02*
X162195489Y-103300828D01*
X162195489Y-103300828D02*
X162195489Y-103443685D01*
X160838346Y-103800828D02*
X160838346Y-105015114D01*
X160838346Y-105015114D02*
X160909774Y-105157971D01*
X160909774Y-105157971D02*
X160981203Y-105229400D01*
X160981203Y-105229400D02*
X161124060Y-105300828D01*
X161124060Y-105300828D02*
X161338346Y-105300828D01*
X161338346Y-105300828D02*
X161481203Y-105229400D01*
X160838346Y-104729400D02*
X160981203Y-104800828D01*
X160981203Y-104800828D02*
X161266917Y-104800828D01*
X161266917Y-104800828D02*
X161409774Y-104729400D01*
X161409774Y-104729400D02*
X161481203Y-104657971D01*
X161481203Y-104657971D02*
X161552631Y-104515114D01*
X161552631Y-104515114D02*
X161552631Y-104086542D01*
X161552631Y-104086542D02*
X161481203Y-103943685D01*
X161481203Y-103943685D02*
X161409774Y-103872257D01*
X161409774Y-103872257D02*
X161266917Y-103800828D01*
X161266917Y-103800828D02*
X160981203Y-103800828D01*
X160981203Y-103800828D02*
X160838346Y-103872257D01*
X160124060Y-103800828D02*
X160124060Y-104800828D01*
X160124060Y-103943685D02*
X160052631Y-103872257D01*
X160052631Y-103872257D02*
X159909774Y-103800828D01*
X159909774Y-103800828D02*
X159695488Y-103800828D01*
X159695488Y-103800828D02*
X159552631Y-103872257D01*
X159552631Y-103872257D02*
X159481203Y-104015114D01*
X159481203Y-104015114D02*
X159481203Y-104800828D01*
X157624060Y-104800828D02*
X157624060Y-103300828D01*
X157624060Y-103872257D02*
X157481203Y-103800828D01*
X157481203Y-103800828D02*
X157195488Y-103800828D01*
X157195488Y-103800828D02*
X157052631Y-103872257D01*
X157052631Y-103872257D02*
X156981203Y-103943685D01*
X156981203Y-103943685D02*
X156909774Y-104086542D01*
X156909774Y-104086542D02*
X156909774Y-104515114D01*
X156909774Y-104515114D02*
X156981203Y-104657971D01*
X156981203Y-104657971D02*
X157052631Y-104729400D01*
X157052631Y-104729400D02*
X157195488Y-104800828D01*
X157195488Y-104800828D02*
X157481203Y-104800828D01*
X157481203Y-104800828D02*
X157624060Y-104729400D01*
X156409774Y-103800828D02*
X156052631Y-104800828D01*
X155695488Y-103800828D02*
X156052631Y-104800828D01*
X156052631Y-104800828D02*
X156195488Y-105157971D01*
X156195488Y-105157971D02*
X156266917Y-105229400D01*
X156266917Y-105229400D02*
X156409774Y-105300828D01*
X155124060Y-104657971D02*
X155052631Y-104729400D01*
X155052631Y-104729400D02*
X155124060Y-104800828D01*
X155124060Y-104800828D02*
X155195488Y-104729400D01*
X155195488Y-104729400D02*
X155124060Y-104657971D01*
X155124060Y-104657971D02*
X155124060Y-104800828D01*
X155124060Y-103872257D02*
X155052631Y-103943685D01*
X155052631Y-103943685D02*
X155124060Y-104015114D01*
X155124060Y-104015114D02*
X155195488Y-103943685D01*
X155195488Y-103943685D02*
X155124060Y-103872257D01*
X155124060Y-103872257D02*
X155124060Y-104015114D01*
X153266917Y-104800828D02*
X153266917Y-103300828D01*
X153266917Y-104015114D02*
X152409774Y-104015114D01*
X152409774Y-104800828D02*
X152409774Y-103300828D01*
X151124059Y-104729400D02*
X151266916Y-104800828D01*
X151266916Y-104800828D02*
X151552631Y-104800828D01*
X151552631Y-104800828D02*
X151695488Y-104729400D01*
X151695488Y-104729400D02*
X151766916Y-104586542D01*
X151766916Y-104586542D02*
X151766916Y-104015114D01*
X151766916Y-104015114D02*
X151695488Y-103872257D01*
X151695488Y-103872257D02*
X151552631Y-103800828D01*
X151552631Y-103800828D02*
X151266916Y-103800828D01*
X151266916Y-103800828D02*
X151124059Y-103872257D01*
X151124059Y-103872257D02*
X151052631Y-104015114D01*
X151052631Y-104015114D02*
X151052631Y-104157971D01*
X151052631Y-104157971D02*
X151766916Y-104300828D01*
X150409774Y-103800828D02*
X150409774Y-104800828D01*
X150409774Y-103943685D02*
X150338345Y-103872257D01*
X150338345Y-103872257D02*
X150195488Y-103800828D01*
X150195488Y-103800828D02*
X149981202Y-103800828D01*
X149981202Y-103800828D02*
X149838345Y-103872257D01*
X149838345Y-103872257D02*
X149766917Y-104015114D01*
X149766917Y-104015114D02*
X149766917Y-104800828D01*
X149052631Y-104800828D02*
X149052631Y-103800828D01*
X149052631Y-104086542D02*
X148981202Y-103943685D01*
X148981202Y-103943685D02*
X148909774Y-103872257D01*
X148909774Y-103872257D02*
X148766916Y-103800828D01*
X148766916Y-103800828D02*
X148624059Y-103800828D01*
X148124060Y-104800828D02*
X148124060Y-103800828D01*
X148124060Y-103300828D02*
X148195488Y-103372257D01*
X148195488Y-103372257D02*
X148124060Y-103443685D01*
X148124060Y-103443685D02*
X148052631Y-103372257D01*
X148052631Y-103372257D02*
X148124060Y-103300828D01*
X148124060Y-103300828D02*
X148124060Y-103443685D01*
X146766917Y-103800828D02*
X146766917Y-105300828D01*
X146766917Y-104729400D02*
X146909774Y-104800828D01*
X146909774Y-104800828D02*
X147195488Y-104800828D01*
X147195488Y-104800828D02*
X147338345Y-104729400D01*
X147338345Y-104729400D02*
X147409774Y-104657971D01*
X147409774Y-104657971D02*
X147481202Y-104515114D01*
X147481202Y-104515114D02*
X147481202Y-104086542D01*
X147481202Y-104086542D02*
X147409774Y-103943685D01*
X147409774Y-103943685D02*
X147338345Y-103872257D01*
X147338345Y-103872257D02*
X147195488Y-103800828D01*
X147195488Y-103800828D02*
X146909774Y-103800828D01*
X146909774Y-103800828D02*
X146766917Y-103872257D01*
X145409774Y-103800828D02*
X145409774Y-104800828D01*
X146052631Y-103800828D02*
X146052631Y-104586542D01*
X146052631Y-104586542D02*
X145981202Y-104729400D01*
X145981202Y-104729400D02*
X145838345Y-104800828D01*
X145838345Y-104800828D02*
X145624059Y-104800828D01*
X145624059Y-104800828D02*
X145481202Y-104729400D01*
X145481202Y-104729400D02*
X145409774Y-104657971D01*
X144124059Y-104729400D02*
X144266916Y-104800828D01*
X144266916Y-104800828D02*
X144552631Y-104800828D01*
X144552631Y-104800828D02*
X144695488Y-104729400D01*
X144695488Y-104729400D02*
X144766916Y-104586542D01*
X144766916Y-104586542D02*
X144766916Y-104015114D01*
X144766916Y-104015114D02*
X144695488Y-103872257D01*
X144695488Y-103872257D02*
X144552631Y-103800828D01*
X144552631Y-103800828D02*
X144266916Y-103800828D01*
X144266916Y-103800828D02*
X144124059Y-103872257D01*
X144124059Y-103872257D02*
X144052631Y-104015114D01*
X144052631Y-104015114D02*
X144052631Y-104157971D01*
X144052631Y-104157971D02*
X144766916Y-104300828D01*
X142481202Y-103300828D02*
X141624060Y-103300828D01*
X142052631Y-104800828D02*
X142052631Y-103300828D01*
X140552631Y-104729400D02*
X140695488Y-104800828D01*
X140695488Y-104800828D02*
X140981203Y-104800828D01*
X140981203Y-104800828D02*
X141124060Y-104729400D01*
X141124060Y-104729400D02*
X141195488Y-104586542D01*
X141195488Y-104586542D02*
X141195488Y-104015114D01*
X141195488Y-104015114D02*
X141124060Y-103872257D01*
X141124060Y-103872257D02*
X140981203Y-103800828D01*
X140981203Y-103800828D02*
X140695488Y-103800828D01*
X140695488Y-103800828D02*
X140552631Y-103872257D01*
X140552631Y-103872257D02*
X140481203Y-104015114D01*
X140481203Y-104015114D02*
X140481203Y-104157971D01*
X140481203Y-104157971D02*
X141195488Y-104300828D01*
X139838346Y-104800828D02*
X139838346Y-103800828D01*
X139838346Y-103300828D02*
X139909774Y-103372257D01*
X139909774Y-103372257D02*
X139838346Y-103443685D01*
X139838346Y-103443685D02*
X139766917Y-103372257D01*
X139766917Y-103372257D02*
X139838346Y-103300828D01*
X139838346Y-103300828D02*
X139838346Y-103443685D01*
X139266917Y-104800828D02*
X138481203Y-103800828D01*
X139266917Y-103800828D02*
X138481203Y-104800828D01*
X137338345Y-104729400D02*
X137481202Y-104800828D01*
X137481202Y-104800828D02*
X137766917Y-104800828D01*
X137766917Y-104800828D02*
X137909774Y-104729400D01*
X137909774Y-104729400D02*
X137981202Y-104586542D01*
X137981202Y-104586542D02*
X137981202Y-104015114D01*
X137981202Y-104015114D02*
X137909774Y-103872257D01*
X137909774Y-103872257D02*
X137766917Y-103800828D01*
X137766917Y-103800828D02*
X137481202Y-103800828D01*
X137481202Y-103800828D02*
X137338345Y-103872257D01*
X137338345Y-103872257D02*
X137266917Y-104015114D01*
X137266917Y-104015114D02*
X137266917Y-104157971D01*
X137266917Y-104157971D02*
X137981202Y-104300828D01*
X136624060Y-104800828D02*
X136624060Y-103800828D01*
X136624060Y-103300828D02*
X136695488Y-103372257D01*
X136695488Y-103372257D02*
X136624060Y-103443685D01*
X136624060Y-103443685D02*
X136552631Y-103372257D01*
X136552631Y-103372257D02*
X136624060Y-103300828D01*
X136624060Y-103300828D02*
X136624060Y-103443685D01*
X135909774Y-104800828D02*
X135909774Y-103800828D01*
X135909774Y-104086542D02*
X135838345Y-103943685D01*
X135838345Y-103943685D02*
X135766917Y-103872257D01*
X135766917Y-103872257D02*
X135624059Y-103800828D01*
X135624059Y-103800828D02*
X135481202Y-103800828D01*
X134338346Y-104800828D02*
X134338346Y-104015114D01*
X134338346Y-104015114D02*
X134409774Y-103872257D01*
X134409774Y-103872257D02*
X134552631Y-103800828D01*
X134552631Y-103800828D02*
X134838346Y-103800828D01*
X134838346Y-103800828D02*
X134981203Y-103872257D01*
X134338346Y-104729400D02*
X134481203Y-104800828D01*
X134481203Y-104800828D02*
X134838346Y-104800828D01*
X134838346Y-104800828D02*
X134981203Y-104729400D01*
X134981203Y-104729400D02*
X135052631Y-104586542D01*
X135052631Y-104586542D02*
X135052631Y-104443685D01*
X135052631Y-104443685D02*
X134981203Y-104300828D01*
X134981203Y-104300828D02*
X134838346Y-104229400D01*
X134838346Y-104229400D02*
X134481203Y-104229400D01*
X134481203Y-104229400D02*
X134338346Y-104157971D01*
D11*
%TO.C,G\u002A\u002A\u002A*%
G36*
X189638942Y-56638503D02*
G01*
X189586842Y-56719357D01*
X189585359Y-56720823D01*
X189501763Y-56769456D01*
X189407887Y-56776216D01*
X189320307Y-56746631D01*
X189255603Y-56686226D01*
X189236178Y-56620302D01*
X189383438Y-56620302D01*
X189411694Y-56662485D01*
X189460164Y-56683400D01*
X189525588Y-56684419D01*
X189564433Y-56652514D01*
X189572072Y-56615081D01*
X189548360Y-56561187D01*
X189479457Y-56541111D01*
X189450368Y-56544641D01*
X189399826Y-56574758D01*
X189383438Y-56620302D01*
X189236178Y-56620302D01*
X189230351Y-56600526D01*
X189249994Y-56520752D01*
X189309976Y-56457426D01*
X189394993Y-56427253D01*
X189489387Y-56435361D01*
X189577500Y-56486874D01*
X189631852Y-56558026D01*
X189636879Y-56615081D01*
X189638942Y-56638503D01*
G37*
G36*
X185025468Y-68231783D02*
G01*
X185127517Y-68279608D01*
X185228233Y-68354657D01*
X185309457Y-68445768D01*
X185314948Y-68453791D01*
X185335280Y-68485444D01*
X185351204Y-68518525D01*
X185363348Y-68560283D01*
X185372339Y-68617965D01*
X185378806Y-68698819D01*
X185383374Y-68810094D01*
X185386672Y-68959036D01*
X185389327Y-69152895D01*
X185391967Y-69398918D01*
X185400718Y-70244494D01*
X185279451Y-70228229D01*
X185270598Y-70226934D01*
X185126704Y-70176851D01*
X185000631Y-70082394D01*
X184911594Y-69957694D01*
X184901044Y-69932519D01*
X184888597Y-69888268D01*
X184879386Y-69828606D01*
X184873080Y-69746200D01*
X184869347Y-69633719D01*
X184867856Y-69483832D01*
X184868277Y-69289205D01*
X184870279Y-69042508D01*
X184878187Y-68231052D01*
X184944790Y-68221591D01*
X185025468Y-68231783D01*
G37*
G36*
X189453951Y-57327451D02*
G01*
X189395093Y-57418836D01*
X189388365Y-57425340D01*
X189289146Y-57481934D01*
X189179235Y-57483692D01*
X189070965Y-57430183D01*
X189043485Y-57404979D01*
X189000936Y-57327984D01*
X189151826Y-57327984D01*
X189157778Y-57338457D01*
X189207935Y-57366671D01*
X189280857Y-57373520D01*
X189350564Y-57359373D01*
X189391077Y-57324597D01*
X189391948Y-57266275D01*
X189349370Y-57215282D01*
X189274912Y-57194678D01*
X189273459Y-57194686D01*
X189201026Y-57215952D01*
X189155043Y-57266275D01*
X189151826Y-57327984D01*
X189000936Y-57327984D01*
X188997088Y-57321021D01*
X188998400Y-57233181D01*
X189041598Y-57154406D01*
X189120856Y-57097646D01*
X189230351Y-57075848D01*
X189341939Y-57097087D01*
X189421472Y-57154289D01*
X189460777Y-57235173D01*
X189458476Y-57266275D01*
X189453951Y-57327451D01*
G37*
G36*
X189222509Y-58925576D02*
G01*
X189171824Y-59014449D01*
X189072047Y-59082722D01*
X188956996Y-59110011D01*
X188834806Y-59089330D01*
X188732748Y-59017828D01*
X188679406Y-58932944D01*
X188676749Y-58885399D01*
X188844152Y-58885399D01*
X188854876Y-58946463D01*
X188891143Y-58988810D01*
X188958782Y-59006586D01*
X189050693Y-59002546D01*
X189116232Y-58965253D01*
X189141228Y-58899753D01*
X189137220Y-58871264D01*
X189093808Y-58810524D01*
X189016030Y-58777375D01*
X188920611Y-58780831D01*
X188906200Y-58784869D01*
X188857087Y-58817864D01*
X188844152Y-58885399D01*
X188676749Y-58885399D01*
X188673799Y-58832604D01*
X188727478Y-58728626D01*
X188729700Y-58725819D01*
X188778637Y-58678092D01*
X188839909Y-58655836D01*
X188936781Y-58650351D01*
X189016371Y-58654029D01*
X189094429Y-58675426D01*
X189157432Y-58723269D01*
X189165713Y-58731879D01*
X189221380Y-58827566D01*
X189222212Y-58899753D01*
X189222509Y-58925576D01*
G37*
G36*
X189330992Y-58069104D02*
G01*
X189274311Y-58170325D01*
X189226303Y-58220588D01*
X189161002Y-58255593D01*
X189068324Y-58264152D01*
X189000892Y-58258658D01*
X188890565Y-58219276D01*
X188815860Y-58150788D01*
X188782370Y-58063696D01*
X188784525Y-58048291D01*
X188953799Y-58048291D01*
X188992009Y-58114933D01*
X189045673Y-58154920D01*
X189104093Y-58174126D01*
X189169210Y-58162404D01*
X189232682Y-58118627D01*
X189259492Y-58056881D01*
X189244452Y-57992600D01*
X189182376Y-57941218D01*
X189171969Y-57936765D01*
X189083904Y-57921197D01*
X189010811Y-57941326D01*
X188963755Y-57987056D01*
X188953799Y-58048291D01*
X188784525Y-58048291D01*
X188795689Y-57968501D01*
X188861412Y-57875705D01*
X188862677Y-57874527D01*
X188954196Y-57822858D01*
X189066321Y-57803840D01*
X189176019Y-57818032D01*
X189260258Y-57865997D01*
X189266321Y-57872303D01*
X189328342Y-57970055D01*
X189330665Y-58056881D01*
X189330992Y-58069104D01*
G37*
G36*
X192642795Y-60868426D02*
G01*
X192617400Y-60963502D01*
X192573849Y-61066140D01*
X192499102Y-61190978D01*
X192379653Y-61340093D01*
X192237377Y-61484627D01*
X192088337Y-61608418D01*
X191948596Y-61695301D01*
X191795848Y-61746365D01*
X191593808Y-61765171D01*
X191375600Y-61742720D01*
X191153939Y-61680471D01*
X190941542Y-61579881D01*
X190846634Y-61511730D01*
X190762205Y-61412349D01*
X190696626Y-61278489D01*
X190642189Y-61097733D01*
X190605089Y-60926585D01*
X190574876Y-60670468D01*
X190643216Y-60670468D01*
X190649785Y-60811085D01*
X190670704Y-60922223D01*
X190710241Y-61018706D01*
X190788858Y-61148473D01*
X190937123Y-61311815D01*
X191121110Y-61431430D01*
X191135638Y-61438242D01*
X191282399Y-61486573D01*
X191455910Y-61517301D01*
X191629691Y-61527140D01*
X191777262Y-61512808D01*
X191840939Y-61483934D01*
X191924794Y-61400900D01*
X191999037Y-61278242D01*
X192058380Y-61127443D01*
X192097538Y-60959985D01*
X192111225Y-60787349D01*
X192106316Y-60700227D01*
X192083369Y-60535193D01*
X192045723Y-60349957D01*
X191997870Y-60165618D01*
X191944302Y-60003274D01*
X191907979Y-59921289D01*
X191863838Y-59865663D01*
X191799989Y-59833278D01*
X191703231Y-59817553D01*
X191560362Y-59811908D01*
X191502209Y-59812148D01*
X191279038Y-59840722D01*
X191086639Y-59916039D01*
X190916878Y-60040995D01*
X190801910Y-60162286D01*
X190707636Y-60310217D01*
X190657220Y-60473904D01*
X190643216Y-60670468D01*
X190574876Y-60670468D01*
X190574610Y-60668209D01*
X190584947Y-60438823D01*
X190636904Y-60228792D01*
X190731283Y-60028479D01*
X190871706Y-59838635D01*
X191045858Y-59689177D01*
X191242721Y-59585669D01*
X191454291Y-59528476D01*
X191672562Y-59517963D01*
X191889530Y-59554495D01*
X192097189Y-59638437D01*
X192287536Y-59770154D01*
X192452564Y-59950010D01*
X192516932Y-60046131D01*
X192600034Y-60221143D01*
X192645231Y-60413445D01*
X192657787Y-60640760D01*
X192654745Y-60757036D01*
X192651493Y-60787349D01*
X192642795Y-60868426D01*
G37*
G36*
X187955358Y-68234881D02*
G01*
X188138070Y-68241688D01*
X188316042Y-68263996D01*
X188452068Y-68304320D01*
X188554983Y-68365464D01*
X188633617Y-68450234D01*
X188655673Y-68482460D01*
X188687161Y-68537452D01*
X188711069Y-68598372D01*
X188728134Y-68672856D01*
X188739096Y-68768537D01*
X188744691Y-68893048D01*
X188745659Y-69054024D01*
X188742737Y-69259099D01*
X188736663Y-69515906D01*
X188736502Y-69522131D01*
X188729706Y-69762986D01*
X188723042Y-69950501D01*
X188716042Y-70090612D01*
X188708240Y-70189255D01*
X188699170Y-70252365D01*
X188688364Y-70285879D01*
X188675356Y-70295731D01*
X188649472Y-70293462D01*
X188551742Y-70261038D01*
X188445419Y-70199729D01*
X188353249Y-70121813D01*
X188320782Y-70084991D01*
X188247615Y-69967829D01*
X188206841Y-69828205D01*
X188192845Y-69649590D01*
X188190585Y-69463918D01*
X187886082Y-69463591D01*
X187791618Y-69463058D01*
X187618394Y-69458331D01*
X187495022Y-69447770D01*
X187414978Y-69430210D01*
X187371736Y-69404486D01*
X187358772Y-69369433D01*
X187363774Y-69327730D01*
X187407938Y-69222056D01*
X187486770Y-69114829D01*
X187586890Y-69022314D01*
X187694916Y-68960779D01*
X187759239Y-68945782D01*
X187864819Y-68933782D01*
X187982812Y-68929181D01*
X188012324Y-68929029D01*
X188125834Y-68922687D01*
X188190345Y-68903811D01*
X188214161Y-68867991D01*
X188205585Y-68810812D01*
X188201405Y-68799720D01*
X188186572Y-68780808D01*
X188156403Y-68767329D01*
X188102084Y-68758107D01*
X188014798Y-68751967D01*
X187885731Y-68747735D01*
X187706065Y-68744236D01*
X187595185Y-68742247D01*
X187446542Y-68738595D01*
X187343642Y-68733623D01*
X187277841Y-68726137D01*
X187240496Y-68714945D01*
X187222963Y-68698852D01*
X187216598Y-68676667D01*
X187222351Y-68623353D01*
X187262870Y-68532268D01*
X187330020Y-68434866D01*
X187411717Y-68347951D01*
X187495876Y-68288327D01*
X187531514Y-68272217D01*
X187597669Y-68251870D01*
X187680998Y-68239954D01*
X187795545Y-68234836D01*
X187955358Y-68234881D01*
G37*
G36*
X186437671Y-68216961D02*
G01*
X186567497Y-68221447D01*
X186660847Y-68231406D01*
X186731135Y-68248481D01*
X186791774Y-68274311D01*
X186841634Y-68303481D01*
X186947332Y-68389206D01*
X187031822Y-68488689D01*
X187078245Y-68583721D01*
X187079869Y-68593648D01*
X187083937Y-68659593D01*
X187086654Y-68771922D01*
X187087915Y-68920854D01*
X187087619Y-69096603D01*
X187085663Y-69289386D01*
X187076549Y-69929184D01*
X186990875Y-70041422D01*
X186970646Y-70065685D01*
X186879868Y-70148473D01*
X186782922Y-70209189D01*
X186771524Y-70214221D01*
X186719038Y-70233016D01*
X186656224Y-70246617D01*
X186573266Y-70255840D01*
X186460350Y-70261497D01*
X186307659Y-70264403D01*
X186105379Y-70265371D01*
X186104119Y-70265372D01*
X185928601Y-70264204D01*
X185774237Y-70260597D01*
X185650591Y-70254985D01*
X185567227Y-70247801D01*
X185533709Y-70239479D01*
X185530554Y-70207939D01*
X185546362Y-70135784D01*
X185577941Y-70047098D01*
X185617887Y-69961953D01*
X185658794Y-69900419D01*
X185693466Y-69865401D01*
X185784294Y-69801706D01*
X185898537Y-69760353D01*
X186047767Y-69737995D01*
X186243553Y-69731286D01*
X186556666Y-69731286D01*
X186556666Y-69582748D01*
X186556666Y-69434210D01*
X186169535Y-69434210D01*
X186071676Y-69433972D01*
X185928427Y-69430754D01*
X185833737Y-69420744D01*
X185780512Y-69400181D01*
X185761659Y-69365304D01*
X185770084Y-69312350D01*
X185798693Y-69237557D01*
X185818651Y-69193175D01*
X185904858Y-69060592D01*
X186018698Y-68969847D01*
X186168743Y-68915710D01*
X186363567Y-68892950D01*
X186370958Y-68892650D01*
X186477636Y-68886366D01*
X186538208Y-68875772D01*
X186565296Y-68856755D01*
X186571520Y-68825205D01*
X186570343Y-68809701D01*
X186560314Y-68791725D01*
X186532901Y-68778719D01*
X186479700Y-68769410D01*
X186392309Y-68762526D01*
X186262325Y-68756792D01*
X186081345Y-68750936D01*
X185591169Y-68736082D01*
X185582609Y-68661813D01*
X185582321Y-68638501D01*
X185609378Y-68546474D01*
X185670176Y-68444131D01*
X185752757Y-68348935D01*
X185845165Y-68278351D01*
X185900449Y-68251504D01*
X185962262Y-68233415D01*
X186043346Y-68222676D01*
X186157072Y-68217524D01*
X186316807Y-68216199D01*
X186437671Y-68216961D01*
G37*
G36*
X195490190Y-62358750D02*
G01*
X195513459Y-62768874D01*
X195526908Y-63196312D01*
X195530433Y-63631202D01*
X195523934Y-64063681D01*
X195507307Y-64483885D01*
X195480453Y-64881952D01*
X195443268Y-65248019D01*
X195395651Y-65572222D01*
X195299809Y-66044114D01*
X195132459Y-66660585D01*
X194924647Y-67237593D01*
X194883510Y-67326667D01*
X194677030Y-67773761D01*
X194506405Y-68067661D01*
X194390264Y-68267713D01*
X194065007Y-68718072D01*
X193701914Y-69123463D01*
X193630130Y-69194184D01*
X193459824Y-69353957D01*
X193285516Y-69507824D01*
X193116249Y-69648406D01*
X192961070Y-69768329D01*
X192829024Y-69860217D01*
X192729156Y-69916693D01*
X192663828Y-69965501D01*
X192611933Y-70040638D01*
X192595694Y-70074483D01*
X192543534Y-70162516D01*
X192480107Y-70253377D01*
X192440071Y-70307443D01*
X192409407Y-70361304D01*
X192395352Y-70418773D01*
X192393889Y-70498395D01*
X192401004Y-70618712D01*
X192403161Y-70732105D01*
X192404649Y-70810305D01*
X192373118Y-71080284D01*
X192298104Y-71318741D01*
X192181056Y-71519739D01*
X192176218Y-71525990D01*
X192083198Y-71624887D01*
X192077745Y-71630685D01*
X191950820Y-71736005D01*
X191809319Y-71833212D01*
X191667121Y-71913567D01*
X191538102Y-71968334D01*
X191436140Y-71988774D01*
X191394484Y-71995472D01*
X191369298Y-72018772D01*
X191369134Y-72020009D01*
X191337579Y-72034727D01*
X191259860Y-72044766D01*
X191148244Y-72048479D01*
X191131987Y-72048400D01*
X191025260Y-72043687D01*
X190945465Y-72033140D01*
X190908830Y-72018772D01*
X190886593Y-72001614D01*
X190827551Y-71989064D01*
X190810461Y-71987614D01*
X190725688Y-71962946D01*
X190610675Y-71913491D01*
X190479467Y-71846725D01*
X190346109Y-71770125D01*
X190224647Y-71691164D01*
X190129126Y-71617321D01*
X189979522Y-71485152D01*
X190299824Y-71485152D01*
X190316074Y-71507860D01*
X190374756Y-71551578D01*
X190463284Y-71605169D01*
X190567956Y-71660970D01*
X190675068Y-71711320D01*
X190770920Y-71748558D01*
X190913614Y-71788896D01*
X191133990Y-71818606D01*
X191344732Y-71800474D01*
X191562278Y-71734203D01*
X191655000Y-71694747D01*
X191710177Y-71659053D01*
X191711924Y-71624887D01*
X191659894Y-71583832D01*
X191553737Y-71527470D01*
X191446769Y-71466362D01*
X191308238Y-71371544D01*
X191191052Y-71275675D01*
X191152682Y-71240266D01*
X191078671Y-71176906D01*
X191024188Y-71144452D01*
X190972938Y-71135149D01*
X190908626Y-71141241D01*
X190858923Y-71151062D01*
X190740728Y-71188578D01*
X190615692Y-71242877D01*
X190496450Y-71306820D01*
X190395636Y-71373271D01*
X190325883Y-71435094D01*
X190299824Y-71485152D01*
X189979522Y-71485152D01*
X189973282Y-71479639D01*
X189742927Y-71529663D01*
X189688704Y-71541384D01*
X189546271Y-71571395D01*
X189409433Y-71598700D01*
X189256794Y-71627487D01*
X189066959Y-71661942D01*
X188922201Y-71681287D01*
X188719730Y-71697080D01*
X188478246Y-71707925D01*
X188208176Y-71713941D01*
X187919950Y-71715250D01*
X187623995Y-71711972D01*
X187330740Y-71704228D01*
X187050612Y-71692139D01*
X186794040Y-71675825D01*
X186571451Y-71655406D01*
X186393275Y-71631004D01*
X186213608Y-71599058D01*
X186026369Y-71563826D01*
X185862215Y-71530934D01*
X185733001Y-71502763D01*
X185650585Y-71481698D01*
X185587621Y-71462804D01*
X185482997Y-71431751D01*
X185368362Y-71397976D01*
X185334886Y-71388033D01*
X184808918Y-71199037D01*
X184564039Y-71080429D01*
X191281094Y-71080429D01*
X191305109Y-71118603D01*
X191369659Y-71176615D01*
X191462644Y-71245057D01*
X191571970Y-71315040D01*
X191685542Y-71377674D01*
X191718878Y-71393995D01*
X191839503Y-71441833D01*
X191927941Y-71450950D01*
X191995387Y-71420490D01*
X192053037Y-71349600D01*
X192074563Y-71310612D01*
X192121721Y-71202671D01*
X192159084Y-71089658D01*
X192165517Y-71062917D01*
X192182361Y-70962537D01*
X192194053Y-70847352D01*
X192200069Y-70732105D01*
X192199886Y-70631537D01*
X192192981Y-70560390D01*
X192178830Y-70533407D01*
X192156013Y-70538626D01*
X192089751Y-70560208D01*
X192000266Y-70592822D01*
X191936939Y-70614806D01*
X191838288Y-70641715D01*
X191767143Y-70652222D01*
X191754571Y-70653182D01*
X191690467Y-70678971D01*
X191602773Y-70743179D01*
X191485240Y-70850195D01*
X191433204Y-70901521D01*
X191354704Y-70983878D01*
X191300856Y-71047061D01*
X191281094Y-71080429D01*
X184564039Y-71080429D01*
X184304959Y-70954943D01*
X183823241Y-70655933D01*
X183364002Y-70302186D01*
X182927477Y-69893883D01*
X182513900Y-69431203D01*
X182277286Y-69117929D01*
X184596686Y-69117929D01*
X184596927Y-69354334D01*
X184597922Y-69541236D01*
X184600151Y-69685905D01*
X184604094Y-69795612D01*
X184610230Y-69877625D01*
X184619037Y-69939214D01*
X184630994Y-69987649D01*
X184646582Y-70030201D01*
X184666279Y-70074138D01*
X184740424Y-70199621D01*
X184881530Y-70342850D01*
X185071286Y-70454821D01*
X185086825Y-70461656D01*
X185136222Y-70479839D01*
X185193648Y-70493860D01*
X185267669Y-70504473D01*
X185366848Y-70512432D01*
X185499748Y-70518492D01*
X185674935Y-70523407D01*
X185900972Y-70527933D01*
X186009491Y-70529651D01*
X186281086Y-70531223D01*
X186494256Y-70527804D01*
X186649580Y-70519381D01*
X186747638Y-70505937D01*
X186814952Y-70487325D01*
X187003237Y-70396728D01*
X187159199Y-70261411D01*
X187275328Y-70089160D01*
X187344112Y-69887757D01*
X187368277Y-69788584D01*
X187394960Y-69733741D01*
X187427962Y-69718908D01*
X187430055Y-69719008D01*
X187486734Y-69720948D01*
X187581975Y-69723569D01*
X187696350Y-69726335D01*
X187915097Y-69731286D01*
X187953268Y-69911154D01*
X187956031Y-69923713D01*
X188030738Y-70126948D01*
X188151813Y-70299247D01*
X188312464Y-70433111D01*
X188505896Y-70521042D01*
X188578552Y-70539938D01*
X188726312Y-70558160D01*
X188848047Y-70545098D01*
X188934642Y-70502475D01*
X188976984Y-70432014D01*
X188977511Y-70428796D01*
X188981283Y-70375494D01*
X188985443Y-70272223D01*
X188989770Y-70127177D01*
X188994042Y-69948551D01*
X188998039Y-69744538D01*
X189001537Y-69523333D01*
X189003593Y-69363346D01*
X189005378Y-69109029D01*
X189003600Y-68903265D01*
X188997154Y-68739022D01*
X188984935Y-68609264D01*
X188965837Y-68506958D01*
X188938755Y-68425069D01*
X188902584Y-68356565D01*
X188856218Y-68294410D01*
X188798553Y-68231571D01*
X188746300Y-68179071D01*
X188665936Y-68108010D01*
X188586960Y-68057679D01*
X188497212Y-68024104D01*
X188384534Y-68003309D01*
X188236765Y-67991319D01*
X188041746Y-67984159D01*
X187879021Y-67981233D01*
X187693052Y-67984359D01*
X187549357Y-67997457D01*
X187438158Y-68022170D01*
X187349678Y-68060138D01*
X187274138Y-68113003D01*
X187270722Y-68115862D01*
X187183470Y-68173378D01*
X187115627Y-68180113D01*
X187057906Y-68137102D01*
X186975892Y-68068678D01*
X186839577Y-68011805D01*
X186652559Y-67974039D01*
X186411781Y-67954514D01*
X186225575Y-67951058D01*
X186028643Y-67961345D01*
X185869754Y-67990262D01*
X185737919Y-68040010D01*
X185622149Y-68112792D01*
X185491196Y-68212750D01*
X185364940Y-68112840D01*
X185224639Y-68023382D01*
X185043016Y-67964679D01*
X184834256Y-67954450D01*
X184795865Y-67956984D01*
X184713085Y-67968961D01*
X184665313Y-67993405D01*
X184634259Y-68037953D01*
X184628650Y-68052724D01*
X184618175Y-68108322D01*
X184610001Y-68199775D01*
X184603946Y-68331790D01*
X184599830Y-68509077D01*
X184597472Y-68736346D01*
X184596693Y-69018304D01*
X184596686Y-69117929D01*
X182277286Y-69117929D01*
X182123507Y-68914327D01*
X182113150Y-68899366D01*
X181937471Y-68620437D01*
X181764964Y-68302738D01*
X181604760Y-67965418D01*
X181542785Y-67814560D01*
X190960032Y-67814560D01*
X190961005Y-67818779D01*
X190983573Y-67860777D01*
X191030963Y-67940197D01*
X191097666Y-68047938D01*
X191178173Y-68174899D01*
X191264392Y-68312707D01*
X191438793Y-68614521D01*
X191587911Y-68905884D01*
X191677567Y-69109029D01*
X191708895Y-69180014D01*
X191798895Y-69430133D01*
X191855059Y-69649460D01*
X191874538Y-69831216D01*
X191876246Y-69922010D01*
X191883215Y-70073129D01*
X191893688Y-70214035D01*
X191905487Y-70306573D01*
X191925123Y-70386210D01*
X191947799Y-70414561D01*
X192003946Y-70396683D01*
X192087959Y-70345620D01*
X192181955Y-70273112D01*
X192270689Y-70190989D01*
X192338916Y-70111081D01*
X192357933Y-70082075D01*
X192420132Y-69967905D01*
X192492017Y-69814059D01*
X192568165Y-69633202D01*
X192643149Y-69437997D01*
X192711547Y-69241111D01*
X192737178Y-69160018D01*
X192833900Y-68782226D01*
X192892403Y-68412775D01*
X192909981Y-68067661D01*
X192906504Y-67902866D01*
X192897901Y-67785020D01*
X192880361Y-67706100D01*
X192850051Y-67655809D01*
X192803136Y-67623849D01*
X192735779Y-67599923D01*
X192653524Y-67583350D01*
X192511366Y-67569540D01*
X192338553Y-67562878D01*
X192150692Y-67563276D01*
X191963392Y-67570648D01*
X191792260Y-67584906D01*
X191652904Y-67605964D01*
X191567237Y-67625995D01*
X191450362Y-67657001D01*
X191321153Y-67693776D01*
X191193563Y-67732120D01*
X191081545Y-67767832D01*
X190999050Y-67796713D01*
X190990075Y-67800818D01*
X190960032Y-67814560D01*
X181542785Y-67814560D01*
X181493594Y-67694821D01*
X189233808Y-67694821D01*
X189261984Y-67704449D01*
X189334667Y-67717704D01*
X189433283Y-67730186D01*
X189482534Y-67734941D01*
X189564920Y-67738458D01*
X189605625Y-67729522D01*
X189606521Y-67727641D01*
X190133872Y-67727641D01*
X190155367Y-67752895D01*
X190157054Y-67753390D01*
X190208828Y-67762190D01*
X190299950Y-67772865D01*
X190411823Y-67783217D01*
X190627799Y-67800818D01*
X190548987Y-67681725D01*
X190499954Y-67613370D01*
X190448744Y-67572481D01*
X190386968Y-67571937D01*
X190293660Y-67605476D01*
X190221995Y-67640956D01*
X190158788Y-67687443D01*
X190133872Y-67727641D01*
X189606521Y-67727641D01*
X189616549Y-67706599D01*
X189624304Y-67675562D01*
X189663474Y-67597852D01*
X189728426Y-67494420D01*
X189810967Y-67376759D01*
X189902905Y-67256364D01*
X189996047Y-67144727D01*
X190013676Y-67126027D01*
X190587151Y-67126027D01*
X190601897Y-67311992D01*
X190650984Y-67468163D01*
X190738771Y-67599766D01*
X190775671Y-67629388D01*
X190863011Y-67649509D01*
X190955713Y-67622524D01*
X191007498Y-67598388D01*
X191109760Y-67560240D01*
X191240595Y-67517354D01*
X191384152Y-67475180D01*
X191422730Y-67465213D01*
X191584848Y-67432293D01*
X191780669Y-67402425D01*
X191990352Y-67378017D01*
X192194053Y-67361479D01*
X192371930Y-67355222D01*
X192437373Y-67354296D01*
X192545094Y-67348629D01*
X192619171Y-67338974D01*
X192646725Y-67326667D01*
X192646027Y-67322286D01*
X192614634Y-67280326D01*
X192544166Y-67217106D01*
X192445099Y-67140121D01*
X192327909Y-67056860D01*
X192203071Y-66974818D01*
X192081063Y-66901486D01*
X191972358Y-66844356D01*
X191879374Y-66802616D01*
X191642713Y-66720197D01*
X191414762Y-66680193D01*
X191176199Y-66678581D01*
X191095594Y-66687194D01*
X190947939Y-66717414D01*
X190808541Y-66761755D01*
X190694419Y-66814353D01*
X190622592Y-66869342D01*
X190605075Y-66916089D01*
X190591980Y-67007888D01*
X190587151Y-67126027D01*
X190013676Y-67126027D01*
X190082198Y-67053344D01*
X190207856Y-66939229D01*
X190431146Y-66769122D01*
X190655228Y-66636509D01*
X190867269Y-66549623D01*
X190947794Y-66526972D01*
X191065932Y-66503969D01*
X191191006Y-66495669D01*
X191348888Y-66499372D01*
X191515288Y-66514526D01*
X191679806Y-66542030D01*
X191827906Y-66578361D01*
X191945266Y-66620004D01*
X192017560Y-66663443D01*
X192045986Y-66689581D01*
X192066798Y-66693834D01*
X192073459Y-66649123D01*
X192074076Y-66641464D01*
X192082132Y-66588855D01*
X192100688Y-66538206D01*
X192135971Y-66480648D01*
X192194211Y-66407313D01*
X192281636Y-66309334D01*
X192404474Y-66177842D01*
X192436813Y-66143291D01*
X192555390Y-66012411D01*
X192665734Y-65884676D01*
X192756732Y-65773189D01*
X192817274Y-65691052D01*
X192871913Y-65609561D01*
X192917946Y-65543597D01*
X192941843Y-65512807D01*
X192943294Y-65511465D01*
X192976766Y-65467751D01*
X193019042Y-65399771D01*
X193053227Y-65334561D01*
X193064373Y-65312967D01*
X193093710Y-65275146D01*
X193108856Y-65257076D01*
X193150069Y-65191310D01*
X193208498Y-65088307D01*
X193279067Y-64957998D01*
X193356698Y-64810314D01*
X193436314Y-64655187D01*
X193512840Y-64502549D01*
X193581197Y-64362331D01*
X193636309Y-64244465D01*
X193673099Y-64158882D01*
X193686491Y-64115515D01*
X193688690Y-64091468D01*
X193706851Y-64046677D01*
X193709548Y-64043460D01*
X193734711Y-63994391D01*
X193770846Y-63905578D01*
X193812697Y-63791784D01*
X193855006Y-63667769D01*
X193892519Y-63548297D01*
X193919978Y-63448128D01*
X193935902Y-63386097D01*
X193968103Y-63269820D01*
X194003063Y-63151052D01*
X194010429Y-63125846D01*
X194024291Y-63068407D01*
X194035132Y-63002525D01*
X194043295Y-62920917D01*
X194049118Y-62816303D01*
X194052943Y-62681402D01*
X194055109Y-62508933D01*
X194055957Y-62291613D01*
X194055828Y-62022164D01*
X194055339Y-61844107D01*
X194053662Y-61595875D01*
X194050594Y-61394530D01*
X194045790Y-61232297D01*
X194038904Y-61101402D01*
X194029589Y-60994071D01*
X194017501Y-60902530D01*
X194002293Y-60819006D01*
X193993293Y-60775207D01*
X193969715Y-60660120D01*
X193951389Y-60570188D01*
X193941684Y-60521930D01*
X193939788Y-60512201D01*
X193926822Y-60445658D01*
X193909848Y-60358538D01*
X193904960Y-60334998D01*
X193884186Y-60256457D01*
X193864959Y-60210000D01*
X193845325Y-60168819D01*
X193823507Y-60097805D01*
X193809743Y-60052182D01*
X193774456Y-59957861D01*
X193730288Y-59854621D01*
X193698503Y-59782004D01*
X193668408Y-59704734D01*
X193656783Y-59662313D01*
X193655889Y-59653712D01*
X193633166Y-59630702D01*
X193621977Y-59622854D01*
X193590840Y-59574623D01*
X193554421Y-59497017D01*
X193534669Y-59451777D01*
X193501810Y-59388266D01*
X193480816Y-59363333D01*
X193476035Y-59361280D01*
X193446466Y-59325974D01*
X193407087Y-59260732D01*
X193400790Y-59249254D01*
X193350125Y-59166976D01*
X193303545Y-59104767D01*
X193260531Y-59052144D01*
X193207113Y-58977134D01*
X193162340Y-58915925D01*
X193092067Y-58831737D01*
X193009989Y-58740748D01*
X192926147Y-58653388D01*
X192850581Y-58580083D01*
X192793332Y-58531264D01*
X192764439Y-58517356D01*
X192758992Y-58527324D01*
X192761964Y-58580093D01*
X192783579Y-58658548D01*
X192799234Y-58704265D01*
X192847914Y-58863356D01*
X192895001Y-59038530D01*
X192934307Y-59205796D01*
X192959642Y-59341162D01*
X192966168Y-59382250D01*
X192986870Y-59453794D01*
X193026983Y-59497763D01*
X193103155Y-59536860D01*
X193137394Y-59552529D01*
X193215484Y-59597207D01*
X193270430Y-59652343D01*
X193314906Y-59733626D01*
X193361587Y-59856742D01*
X193383475Y-59926004D01*
X193431816Y-60170155D01*
X193437213Y-60272849D01*
X193445426Y-60429109D01*
X193425257Y-60686481D01*
X193372266Y-60925885D01*
X193287404Y-61130936D01*
X193275795Y-61152183D01*
X193235944Y-61231628D01*
X193209233Y-61304796D01*
X193191996Y-61388105D01*
X193188453Y-61422157D01*
X193180564Y-61497973D01*
X193171270Y-61650819D01*
X193166495Y-61740316D01*
X193155752Y-61935233D01*
X193144449Y-62133745D01*
X193134363Y-62304386D01*
X193115406Y-62616316D01*
X193237556Y-62690171D01*
X193261307Y-62704685D01*
X193325377Y-62750872D01*
X193341463Y-62778205D01*
X193352620Y-62797164D01*
X193349349Y-62849025D01*
X193348523Y-62862130D01*
X193334172Y-62911109D01*
X193318575Y-62964342D01*
X193313391Y-62980553D01*
X193313323Y-62980765D01*
X193285611Y-63069509D01*
X193246550Y-63196531D01*
X193200572Y-63347364D01*
X193152112Y-63507544D01*
X193093733Y-63699103D01*
X192977455Y-64068250D01*
X192862177Y-64418581D01*
X192749715Y-64745278D01*
X192641883Y-65043526D01*
X192540496Y-65308506D01*
X192447371Y-65535402D01*
X192364321Y-65719398D01*
X192293163Y-65855675D01*
X192235711Y-65939417D01*
X192193225Y-65977274D01*
X192083205Y-66046538D01*
X191931601Y-66121726D01*
X191748671Y-66198899D01*
X191544671Y-66274122D01*
X191329859Y-66343458D01*
X191114493Y-66402968D01*
X190908830Y-66448716D01*
X190896849Y-66450936D01*
X190758124Y-66471641D01*
X190583429Y-66491241D01*
X190393908Y-66507617D01*
X190210701Y-66518651D01*
X189779941Y-66537719D01*
X189765925Y-66652548D01*
X189761631Y-66687730D01*
X189747497Y-66775366D01*
X189708935Y-66884628D01*
X189640368Y-66966175D01*
X189529047Y-67039282D01*
X189452824Y-67083687D01*
X189411918Y-67123578D01*
X189396546Y-67179218D01*
X189395343Y-67224490D01*
X189394068Y-67272441D01*
X189393592Y-67310318D01*
X189386365Y-67389355D01*
X189364455Y-67458031D01*
X189320279Y-67535182D01*
X189246255Y-67639643D01*
X189234336Y-67660758D01*
X189233808Y-67694821D01*
X181493594Y-67694821D01*
X181465990Y-67627627D01*
X181357786Y-67308514D01*
X181324578Y-67196372D01*
X181284913Y-67062340D01*
X181252769Y-66953626D01*
X181208488Y-66788599D01*
X181152890Y-66541809D01*
X181094390Y-66240561D01*
X181032679Y-65883243D01*
X180967446Y-65468245D01*
X180959705Y-65399628D01*
X180950206Y-65258348D01*
X180942225Y-65071087D01*
X180935765Y-64845657D01*
X180930831Y-64589873D01*
X180927424Y-64311549D01*
X180925548Y-64018497D01*
X180925207Y-63718533D01*
X180926403Y-63419470D01*
X180929140Y-63129121D01*
X180933422Y-62855301D01*
X180939250Y-62605823D01*
X180946629Y-62388500D01*
X180955562Y-62211148D01*
X180966052Y-62081579D01*
X180983131Y-61926543D01*
X181019987Y-61601375D01*
X181052395Y-61329545D01*
X181074827Y-61154281D01*
X182130317Y-61154281D01*
X182130808Y-61209884D01*
X182137764Y-61396186D01*
X182151649Y-61592337D01*
X182170795Y-61781021D01*
X182193534Y-61944923D01*
X182218198Y-62066725D01*
X182218978Y-62069691D01*
X182240012Y-62153167D01*
X182268169Y-62269158D01*
X182297582Y-62393509D01*
X182302247Y-62413288D01*
X182329628Y-62521199D01*
X182353848Y-62604318D01*
X182370132Y-62646023D01*
X182370532Y-62646613D01*
X182390933Y-62695803D01*
X182411117Y-62771056D01*
X182422678Y-62813425D01*
X182458326Y-62912236D01*
X182503670Y-63015998D01*
X182533197Y-63078687D01*
X182563929Y-63148504D01*
X182575848Y-63182446D01*
X182575848Y-63182582D01*
X182590250Y-63228309D01*
X182629478Y-63314879D01*
X182688133Y-63432070D01*
X182760813Y-63569657D01*
X182842119Y-63717416D01*
X182926651Y-63865122D01*
X183009009Y-64002552D01*
X183311403Y-64460273D01*
X183695419Y-64957555D01*
X184109282Y-65406819D01*
X184556783Y-65811768D01*
X185041711Y-66176108D01*
X185567858Y-66503542D01*
X185628698Y-66537702D01*
X185726257Y-66591154D01*
X185796690Y-66627980D01*
X185827800Y-66641696D01*
X185838423Y-66621764D01*
X185843684Y-66564490D01*
X185843903Y-66553530D01*
X185867961Y-66454149D01*
X186119246Y-66454149D01*
X186161609Y-66534802D01*
X186255870Y-66640805D01*
X186388032Y-66753108D01*
X186604583Y-66886089D01*
X186875308Y-67007410D01*
X187201079Y-67117356D01*
X187582766Y-67216213D01*
X188021239Y-67304265D01*
X188517368Y-67381798D01*
X188539042Y-67384769D01*
X188767757Y-67413707D01*
X188943119Y-67430582D01*
X189069540Y-67435582D01*
X189151435Y-67428897D01*
X189193216Y-67410715D01*
X189208349Y-67386921D01*
X189226830Y-67311041D01*
X189227182Y-67224490D01*
X189207615Y-67158609D01*
X189189475Y-67148616D01*
X189121229Y-67132437D01*
X189016369Y-67117415D01*
X188888713Y-67105838D01*
X188807533Y-67099595D01*
X188404818Y-67048452D01*
X187992444Y-66965385D01*
X187583997Y-66854467D01*
X187193066Y-66719771D01*
X186833238Y-66565368D01*
X186518103Y-66395331D01*
X186437868Y-66350700D01*
X186356981Y-66323853D01*
X186283273Y-66326515D01*
X186191690Y-66351985D01*
X186129150Y-66394619D01*
X186119246Y-66454149D01*
X185867961Y-66454149D01*
X185875124Y-66424560D01*
X185950840Y-66302169D01*
X186059107Y-66206220D01*
X186129147Y-66156428D01*
X186159374Y-66114268D01*
X186155784Y-66067627D01*
X186146586Y-66028992D01*
X186131887Y-65938621D01*
X186119631Y-65832375D01*
X186115751Y-65754640D01*
X186129051Y-65662152D01*
X186369886Y-65662152D01*
X186377888Y-65724703D01*
X186434268Y-65805309D01*
X186534860Y-65898974D01*
X186675497Y-66000702D01*
X186916030Y-66140732D01*
X187224231Y-66284915D01*
X187585016Y-66422777D01*
X188000058Y-66554896D01*
X188471032Y-66681851D01*
X188999612Y-66804221D01*
X189134111Y-66832126D01*
X189262823Y-66856643D01*
X189362364Y-66873248D01*
X189418341Y-66879357D01*
X189438076Y-66878256D01*
X189519888Y-66842698D01*
X189569997Y-66764206D01*
X189581382Y-66652548D01*
X189571988Y-66538741D01*
X189230351Y-66504373D01*
X189002760Y-66475769D01*
X188620092Y-66406636D01*
X188223397Y-66311871D01*
X187834093Y-66196201D01*
X187669109Y-66141166D01*
X187504906Y-66083278D01*
X187383262Y-66034772D01*
X187296107Y-65991524D01*
X187235370Y-65949407D01*
X187192980Y-65904297D01*
X187160866Y-65852067D01*
X187142896Y-65819530D01*
X187106717Y-65772068D01*
X187055490Y-65734748D01*
X186975219Y-65698636D01*
X186851913Y-65654796D01*
X186700168Y-65609812D01*
X186554592Y-65586700D01*
X186449046Y-65598633D01*
X186379222Y-65645526D01*
X186369886Y-65662152D01*
X186129051Y-65662152D01*
X186133639Y-65630250D01*
X186191595Y-65534815D01*
X186296661Y-65453257D01*
X186332793Y-65429945D01*
X186370203Y-65391840D01*
X186383617Y-65337885D01*
X186381954Y-65246457D01*
X186390558Y-65086052D01*
X186595142Y-65086052D01*
X186624955Y-65148713D01*
X186711634Y-65215450D01*
X186782939Y-65256916D01*
X186834177Y-65276928D01*
X186848634Y-65259155D01*
X186828739Y-65198999D01*
X186776921Y-65091864D01*
X186700100Y-64940264D01*
X186639109Y-65001254D01*
X186620390Y-65022144D01*
X186595142Y-65086052D01*
X186390558Y-65086052D01*
X186391537Y-65067802D01*
X186440660Y-64926923D01*
X186528041Y-64828761D01*
X186613969Y-64767575D01*
X186519359Y-64612881D01*
X186477792Y-64545649D01*
X186412973Y-64443064D01*
X186361213Y-64363666D01*
X186355613Y-64355074D01*
X186326021Y-64295121D01*
X186304851Y-64216250D01*
X186289364Y-64104963D01*
X186276821Y-63947760D01*
X186257698Y-63694966D01*
X186230779Y-63404508D01*
X186198398Y-63100187D01*
X186162299Y-62796639D01*
X186124226Y-62508502D01*
X186085924Y-62250416D01*
X186049137Y-62037017D01*
X186047900Y-62030531D01*
X186017561Y-61884065D01*
X185989219Y-61784690D01*
X185957224Y-61721021D01*
X185947496Y-61711753D01*
X186143652Y-61711753D01*
X186152844Y-61777076D01*
X186193421Y-61992817D01*
X186246266Y-62316411D01*
X186296541Y-62670095D01*
X186342069Y-63037220D01*
X186380674Y-63401140D01*
X186410178Y-63745205D01*
X186445227Y-64220526D01*
X186578031Y-64422440D01*
X186673377Y-64573957D01*
X186796868Y-64783536D01*
X186929890Y-65020885D01*
X187057724Y-65259155D01*
X187064615Y-65272000D01*
X187193211Y-65522874D01*
X187243493Y-65619023D01*
X187307544Y-65729678D01*
X187362752Y-65812452D01*
X187400981Y-65854363D01*
X187447602Y-65879477D01*
X187566771Y-65928958D01*
X187728871Y-65985303D01*
X187924234Y-66045818D01*
X188143194Y-66107813D01*
X188376082Y-66168595D01*
X188613233Y-66225474D01*
X188844978Y-66275757D01*
X189061651Y-66316753D01*
X189128441Y-66327691D01*
X189294924Y-66349263D01*
X189470045Y-66362708D01*
X189670661Y-66369065D01*
X189913625Y-66369376D01*
X190094159Y-66367331D01*
X190314018Y-66362357D01*
X190496995Y-66353506D01*
X190656406Y-66339110D01*
X190805568Y-66317502D01*
X190957800Y-66287014D01*
X191126417Y-66245981D01*
X191324737Y-66192735D01*
X191387313Y-66174957D01*
X191615552Y-66100238D01*
X191818318Y-66018358D01*
X191987301Y-65933374D01*
X192114187Y-65849340D01*
X192190665Y-65770310D01*
X192241105Y-65677512D01*
X192307231Y-65530883D01*
X192385684Y-65338061D01*
X192474456Y-65104606D01*
X192571538Y-64836077D01*
X192674921Y-64538033D01*
X192782598Y-64216032D01*
X192892560Y-63875634D01*
X193002798Y-63522398D01*
X193015451Y-63481150D01*
X193061513Y-63331340D01*
X193102285Y-63199239D01*
X193133738Y-63097882D01*
X193151840Y-63040306D01*
X193162977Y-62980553D01*
X193151985Y-62943242D01*
X193139218Y-62939735D01*
X193114123Y-62943470D01*
X193070519Y-62957902D01*
X193001335Y-62985907D01*
X192996614Y-62987968D01*
X192899501Y-63030361D01*
X192757944Y-63094140D01*
X192569594Y-63180119D01*
X192358779Y-63276652D01*
X192338604Y-63451513D01*
X192331508Y-63509991D01*
X192303613Y-63697070D01*
X192272191Y-63852893D01*
X192239358Y-63968096D01*
X192207228Y-64033315D01*
X192201230Y-64037769D01*
X192166621Y-64063469D01*
X192083575Y-64104578D01*
X191980860Y-64143248D01*
X191953523Y-64151828D01*
X191827350Y-64187076D01*
X191682110Y-64222477D01*
X191530566Y-64255512D01*
X191385477Y-64283667D01*
X191259608Y-64304424D01*
X191165719Y-64315267D01*
X191116573Y-64313679D01*
X191110525Y-64310551D01*
X191094497Y-64288205D01*
X191083493Y-64240693D01*
X191076672Y-64159458D01*
X191075946Y-64133688D01*
X191300751Y-64133688D01*
X191309883Y-64140043D01*
X191327400Y-64139298D01*
X191397170Y-64129644D01*
X191484947Y-64111891D01*
X191575466Y-64089933D01*
X191653462Y-64067664D01*
X191703670Y-64048978D01*
X191710825Y-64037769D01*
X191706921Y-64037121D01*
X191656610Y-64041993D01*
X191568330Y-64058636D01*
X191458421Y-64084052D01*
X191422662Y-64093246D01*
X191341132Y-64117038D01*
X191300751Y-64133688D01*
X191075946Y-64133688D01*
X191073194Y-64035945D01*
X191072222Y-63861596D01*
X191072222Y-63426531D01*
X190990526Y-63441154D01*
X190946993Y-63448556D01*
X190850355Y-63464325D01*
X190723359Y-63484640D01*
X190582046Y-63506919D01*
X190470116Y-63525459D01*
X190347699Y-63548324D01*
X190255745Y-63568494D01*
X190208425Y-63583080D01*
X190194656Y-63596537D01*
X190173305Y-63645631D01*
X190151501Y-63734355D01*
X190127759Y-63869237D01*
X190100594Y-64056802D01*
X190089100Y-64139436D01*
X190067238Y-64286520D01*
X190051973Y-64379593D01*
X190047540Y-64406622D01*
X190031803Y-64489092D01*
X190021827Y-64523280D01*
X189974093Y-64544107D01*
X189874460Y-64555866D01*
X189735748Y-64556306D01*
X189567921Y-64546465D01*
X189380943Y-64527383D01*
X189184777Y-64500096D01*
X188989388Y-64465644D01*
X188804740Y-64425063D01*
X188640796Y-64379393D01*
X188541417Y-64347735D01*
X188544510Y-64210401D01*
X188761916Y-64210401D01*
X188771953Y-64231923D01*
X188795287Y-64244846D01*
X188869002Y-64269341D01*
X188977622Y-64297378D01*
X189107216Y-64325087D01*
X189242297Y-64350585D01*
X189372560Y-64372617D01*
X189453801Y-64382109D01*
X189491042Y-64379593D01*
X189489306Y-64365603D01*
X189472623Y-64358330D01*
X189406957Y-64340504D01*
X189304873Y-64317598D01*
X189179852Y-64292783D01*
X189104282Y-64278429D01*
X188977522Y-64253424D01*
X188875248Y-64232099D01*
X188814444Y-64217935D01*
X188799881Y-64214126D01*
X188761916Y-64210401D01*
X188544510Y-64210401D01*
X188550878Y-63927639D01*
X188551866Y-63875688D01*
X188552587Y-63726769D01*
X188550128Y-63601685D01*
X188544847Y-63512282D01*
X188537100Y-63470409D01*
X188512758Y-63449302D01*
X188451469Y-63433275D01*
X188439808Y-63432220D01*
X188372794Y-63418516D01*
X188265359Y-63391444D01*
X188129594Y-63354156D01*
X187977592Y-63309801D01*
X187915854Y-63291490D01*
X187776218Y-63251788D01*
X187661961Y-63221699D01*
X187583538Y-63203891D01*
X187551403Y-63201033D01*
X187550406Y-63208962D01*
X187557859Y-63263603D01*
X187576995Y-63360626D01*
X187605653Y-63489529D01*
X187641672Y-63639809D01*
X187679877Y-63797695D01*
X187709207Y-63936788D01*
X187720502Y-64033053D01*
X187712502Y-64094311D01*
X187683950Y-64128384D01*
X187633585Y-64143092D01*
X187560150Y-64146257D01*
X187529506Y-64145412D01*
X187382712Y-64113670D01*
X187245526Y-64032561D01*
X187109303Y-63897310D01*
X187059056Y-63836991D01*
X186988238Y-63743433D01*
X186944437Y-63664752D01*
X186918446Y-63582402D01*
X186901056Y-63477836D01*
X186900220Y-63471601D01*
X186884271Y-63364069D01*
X186862204Y-63228128D01*
X186838531Y-63091637D01*
X186818441Y-62977884D01*
X186790781Y-62817450D01*
X186760723Y-62640152D01*
X186731987Y-62467778D01*
X186705876Y-62309990D01*
X186676317Y-62132300D01*
X186649120Y-61969683D01*
X186627917Y-61843918D01*
X186621996Y-61809004D01*
X186604332Y-61704279D01*
X186591857Y-61629440D01*
X186586968Y-61598830D01*
X186585903Y-61595618D01*
X186553505Y-61590536D01*
X186491088Y-61605412D01*
X186418951Y-61635782D01*
X186333080Y-61666281D01*
X186233596Y-61680343D01*
X186224794Y-61680370D01*
X186162679Y-61685455D01*
X186143652Y-61711753D01*
X185947496Y-61711753D01*
X185915928Y-61681678D01*
X185859681Y-61655277D01*
X185841348Y-61647587D01*
X185746326Y-61580506D01*
X185651322Y-61473577D01*
X185539859Y-61300296D01*
X185424235Y-61048331D01*
X185350335Y-60785808D01*
X185317245Y-60520102D01*
X185321360Y-60361899D01*
X185447361Y-60361899D01*
X185454221Y-60636049D01*
X185511044Y-60903135D01*
X185616637Y-61153134D01*
X185769805Y-61376023D01*
X185778482Y-61386073D01*
X185853385Y-61463080D01*
X185912439Y-61497930D01*
X185960266Y-61487261D01*
X186001489Y-61427709D01*
X186040732Y-61315912D01*
X186082617Y-61148509D01*
X186092739Y-61095511D01*
X186107259Y-60901949D01*
X186097055Y-60681568D01*
X186063736Y-60454207D01*
X186008911Y-60239707D01*
X185961405Y-60106740D01*
X185904980Y-59971057D01*
X185845903Y-59845718D01*
X185789897Y-59742103D01*
X185742688Y-59671589D01*
X185710000Y-59645555D01*
X185708515Y-59645761D01*
X185680004Y-59674593D01*
X185636365Y-59742652D01*
X185586414Y-59836328D01*
X185491657Y-60090709D01*
X185447361Y-60361899D01*
X185321360Y-60361899D01*
X185324048Y-60258589D01*
X185369832Y-60008642D01*
X185453679Y-59777636D01*
X185574676Y-59572947D01*
X185624836Y-59518395D01*
X185903099Y-59518395D01*
X185908851Y-59537858D01*
X185935529Y-59602992D01*
X185978985Y-59700377D01*
X186033720Y-59817428D01*
X186055011Y-59863688D01*
X186119805Y-60023262D01*
X186175363Y-60186112D01*
X186211966Y-60324581D01*
X186234743Y-60463286D01*
X186253883Y-60680861D01*
X186257018Y-60901949D01*
X186257021Y-60902147D01*
X186244091Y-61106851D01*
X186215029Y-61274681D01*
X186196134Y-61351315D01*
X186177627Y-61438027D01*
X186170468Y-61488876D01*
X186173881Y-61516963D01*
X186193267Y-61527118D01*
X186242101Y-61518291D01*
X186333859Y-61490626D01*
X186402414Y-61468190D01*
X186496519Y-61428216D01*
X186554414Y-61379728D01*
X186590281Y-61308185D01*
X186618303Y-61199049D01*
X186628117Y-61147076D01*
X186647557Y-60977282D01*
X186656422Y-60782198D01*
X186654690Y-60582760D01*
X186642337Y-60399903D01*
X186619340Y-60254561D01*
X186586940Y-60147828D01*
X186529098Y-59999743D01*
X186456732Y-59839248D01*
X186378115Y-59683554D01*
X186301520Y-59549876D01*
X186235221Y-59455423D01*
X186149865Y-59354414D01*
X186026482Y-59423759D01*
X185986886Y-59447357D01*
X185926770Y-59490240D01*
X185903099Y-59518395D01*
X185624836Y-59518395D01*
X185731908Y-59401949D01*
X185924459Y-59272016D01*
X185962482Y-59252337D01*
X185998721Y-59230052D01*
X186310669Y-59230052D01*
X186330638Y-59277623D01*
X186378434Y-59339103D01*
X186432759Y-59413185D01*
X186501998Y-59520303D01*
X186568047Y-59633254D01*
X186688264Y-59889120D01*
X186793321Y-60233137D01*
X186842885Y-60589277D01*
X186839250Y-60782198D01*
X186836081Y-60950353D01*
X186772035Y-61309181D01*
X186717630Y-61517134D01*
X186813837Y-61888479D01*
X186858517Y-62054522D01*
X186926379Y-62288058D01*
X186999051Y-62520289D01*
X187073927Y-62744228D01*
X187148399Y-62952886D01*
X187219862Y-63139276D01*
X187285706Y-63296410D01*
X187343325Y-63417300D01*
X187390112Y-63494958D01*
X187423460Y-63522398D01*
X187436761Y-63513538D01*
X187437057Y-63470409D01*
X187424100Y-63421991D01*
X187401141Y-63332604D01*
X187374174Y-63225321D01*
X187326132Y-63032222D01*
X187382959Y-62981238D01*
X187535253Y-62981238D01*
X187553852Y-63013824D01*
X187572803Y-63024781D01*
X187639486Y-63049291D01*
X187730117Y-63074169D01*
X187781303Y-63086803D01*
X187922027Y-63124561D01*
X188083366Y-63170776D01*
X188245783Y-63219633D01*
X188389737Y-63265317D01*
X188495689Y-63302013D01*
X188520283Y-63310982D01*
X188620417Y-63339066D01*
X188678385Y-63338881D01*
X188689253Y-63310216D01*
X188675724Y-63299779D01*
X188613488Y-63273114D01*
X188509967Y-63237034D01*
X188375114Y-63194925D01*
X188218883Y-63150174D01*
X188129677Y-63125494D01*
X187970508Y-63080595D01*
X187831112Y-63040204D01*
X187724018Y-63007979D01*
X187661758Y-62987576D01*
X187624167Y-62975570D01*
X187562476Y-62967565D01*
X187535253Y-62981238D01*
X187382959Y-62981238D01*
X187417190Y-62950526D01*
X187436132Y-62934467D01*
X187505994Y-62888188D01*
X187559767Y-62870319D01*
X187567054Y-62871114D01*
X187625604Y-62882761D01*
X187729531Y-62906536D01*
X187869508Y-62940209D01*
X188036204Y-62981547D01*
X188220292Y-63028318D01*
X188829298Y-63184829D01*
X188836730Y-63310216D01*
X188855978Y-63634983D01*
X188882659Y-64085138D01*
X188974809Y-64114137D01*
X189025229Y-64128049D01*
X189129524Y-64152082D01*
X189243234Y-64174404D01*
X189265241Y-64178171D01*
X189409221Y-64196667D01*
X189545336Y-64204813D01*
X189660901Y-64202747D01*
X189743232Y-64190609D01*
X189779644Y-64168538D01*
X189794131Y-64105490D01*
X189810802Y-63997120D01*
X189827005Y-63862901D01*
X189840880Y-63720062D01*
X189850568Y-63585832D01*
X189854210Y-63477440D01*
X189857862Y-63385718D01*
X189862764Y-63350659D01*
X190014884Y-63350659D01*
X190016743Y-63367281D01*
X190032748Y-63389065D01*
X190056104Y-63412950D01*
X190088082Y-63430251D01*
X190095733Y-63428981D01*
X190150226Y-63419825D01*
X190242962Y-63404189D01*
X190359239Y-63384551D01*
X190371725Y-63382457D01*
X190524419Y-63358713D01*
X190683795Y-63336626D01*
X190817292Y-63320733D01*
X190899007Y-63310281D01*
X190996706Y-63287038D01*
X191036726Y-63257722D01*
X191036836Y-63231588D01*
X190998750Y-63235759D01*
X190986705Y-63238976D01*
X190919673Y-63249417D01*
X190810155Y-63262008D01*
X190670222Y-63275442D01*
X190511948Y-63288414D01*
X190473106Y-63291343D01*
X190294808Y-63305141D01*
X190167132Y-63316439D01*
X190082783Y-63326770D01*
X190034466Y-63337666D01*
X190014884Y-63350659D01*
X189862764Y-63350659D01*
X189868895Y-63306814D01*
X189884730Y-63269381D01*
X189888636Y-63267384D01*
X189943786Y-63252547D01*
X190044198Y-63234253D01*
X190177921Y-63214092D01*
X190333003Y-63193657D01*
X190497494Y-63174539D01*
X190659439Y-63158328D01*
X190806889Y-63146615D01*
X191091148Y-63127974D01*
X191155954Y-63210362D01*
X191158761Y-63213960D01*
X191170315Y-63231588D01*
X191186459Y-63256218D01*
X191204492Y-63305796D01*
X191214874Y-63375710D01*
X191219625Y-63478981D01*
X191220760Y-63628627D01*
X191222243Y-63749647D01*
X191226968Y-63864176D01*
X191234166Y-63944152D01*
X191243041Y-63977146D01*
X191250329Y-63979500D01*
X191308177Y-63976596D01*
X191402195Y-63958309D01*
X191517025Y-63929108D01*
X191637308Y-63893462D01*
X191747689Y-63855841D01*
X191832808Y-63820715D01*
X191877310Y-63792552D01*
X191881318Y-63787103D01*
X191909642Y-63716002D01*
X191936117Y-63593865D01*
X191959092Y-63428045D01*
X191976764Y-63280894D01*
X191997739Y-63178359D01*
X192032084Y-63108139D01*
X192033945Y-63106491D01*
X192260526Y-63106491D01*
X192263297Y-63117488D01*
X192297661Y-63133064D01*
X192330079Y-63123995D01*
X192391342Y-63097653D01*
X192461533Y-63062454D01*
X192524927Y-63026822D01*
X192565799Y-62999184D01*
X192568425Y-62987968D01*
X192567981Y-62987967D01*
X192519093Y-63000976D01*
X192449594Y-63032039D01*
X192375156Y-63063132D01*
X192312514Y-63076600D01*
X192285055Y-63081209D01*
X192260526Y-63106491D01*
X192033945Y-63106491D01*
X192089990Y-63056849D01*
X192181645Y-63011100D01*
X192279773Y-62972314D01*
X192632711Y-62972314D01*
X192633441Y-62982963D01*
X192675257Y-62972832D01*
X192750701Y-62942026D01*
X192763658Y-62935856D01*
X192802574Y-62911109D01*
X192795263Y-62900930D01*
X192746351Y-62911677D01*
X192676432Y-62943099D01*
X192632711Y-62972314D01*
X192279773Y-62972314D01*
X192317240Y-62957505D01*
X192402908Y-62920752D01*
X192503845Y-62857961D01*
X192889641Y-62857961D01*
X192914093Y-62868830D01*
X192929820Y-62866686D01*
X192933898Y-62849025D01*
X192929544Y-62845470D01*
X192894288Y-62849025D01*
X192889641Y-62857961D01*
X192503845Y-62857961D01*
X192507364Y-62855772D01*
X192527928Y-62833351D01*
X192985834Y-62833351D01*
X193016519Y-62831745D01*
X193092339Y-62804143D01*
X193134761Y-62778205D01*
X193130239Y-62759244D01*
X193088782Y-62762136D01*
X193027079Y-62792341D01*
X193004028Y-62809639D01*
X192985834Y-62833351D01*
X192527928Y-62833351D01*
X192585985Y-62770052D01*
X192649356Y-62650798D01*
X192651621Y-62644409D01*
X192860894Y-62644409D01*
X192867959Y-62704321D01*
X192896595Y-62715582D01*
X192950250Y-62683158D01*
X192957741Y-62675810D01*
X192975495Y-62640867D01*
X192990585Y-62577704D01*
X193004180Y-62478531D01*
X193017449Y-62335558D01*
X193031559Y-62140994D01*
X193039332Y-62027414D01*
X193052076Y-61850631D01*
X193064317Y-61691131D01*
X193074967Y-61562919D01*
X193082938Y-61480000D01*
X193087678Y-61422157D01*
X193085827Y-61350920D01*
X193072530Y-61324035D01*
X193066521Y-61333440D01*
X193050735Y-61391228D01*
X193029452Y-61494069D01*
X193004125Y-61633161D01*
X192976207Y-61799704D01*
X192947152Y-61984894D01*
X192918414Y-62179929D01*
X192891447Y-62376008D01*
X192867704Y-62564327D01*
X192860894Y-62644409D01*
X192651621Y-62644409D01*
X192708065Y-62485218D01*
X192740925Y-62369974D01*
X192798364Y-62099689D01*
X192838423Y-61792895D01*
X192861885Y-61442599D01*
X192869532Y-61041813D01*
X192868314Y-60879189D01*
X192862536Y-60630599D01*
X192852624Y-60376882D01*
X192839268Y-60128796D01*
X192823153Y-59897097D01*
X192808470Y-59731946D01*
X193010171Y-59731946D01*
X193011308Y-59834238D01*
X193015408Y-59974601D01*
X193022241Y-60144242D01*
X193031575Y-60334370D01*
X193035250Y-60403338D01*
X193045515Y-60594875D01*
X193054853Y-60767589D01*
X193062709Y-60911353D01*
X193068534Y-61016039D01*
X193070039Y-61041813D01*
X193071773Y-61071520D01*
X193077485Y-61160643D01*
X193140812Y-61071520D01*
X193230008Y-60902447D01*
X193291660Y-60686479D01*
X193322566Y-60432807D01*
X193324372Y-60398051D01*
X193327123Y-60272849D01*
X193318464Y-60175324D01*
X193294542Y-60079894D01*
X193251505Y-59960980D01*
X193226232Y-59900567D01*
X193167405Y-59788483D01*
X193107837Y-59706936D01*
X193054428Y-59664400D01*
X193014079Y-59669352D01*
X193012229Y-59676519D01*
X193010171Y-59731946D01*
X192808470Y-59731946D01*
X192804967Y-59692543D01*
X192785398Y-59525889D01*
X192765133Y-59407895D01*
X192737778Y-59288454D01*
X192668295Y-59001319D01*
X192602366Y-58757297D01*
X192536254Y-58544953D01*
X192466218Y-58352853D01*
X192388519Y-58169563D01*
X192299420Y-57983646D01*
X192252342Y-57891887D01*
X192124865Y-57666300D01*
X191992210Y-57470835D01*
X191839753Y-57285267D01*
X191652870Y-57089368D01*
X191543334Y-56984273D01*
X191203314Y-56704577D01*
X190850552Y-56482773D01*
X190484646Y-56318671D01*
X190105194Y-56212077D01*
X189711794Y-56162800D01*
X189597598Y-56157885D01*
X189476609Y-56160105D01*
X189388799Y-56179268D01*
X189318944Y-56222275D01*
X189251823Y-56296027D01*
X189172212Y-56407427D01*
X189001012Y-56688359D01*
X188832777Y-57050757D01*
X188696425Y-57455515D01*
X188590005Y-57907661D01*
X188588428Y-57916108D01*
X188574045Y-58014332D01*
X188558918Y-58149710D01*
X188543764Y-58311541D01*
X188529304Y-58489128D01*
X188516257Y-58671770D01*
X188505340Y-58848769D01*
X188497273Y-59009426D01*
X188492775Y-59143041D01*
X188492565Y-59238916D01*
X188497362Y-59286351D01*
X188530092Y-59309175D01*
X188616896Y-59327170D01*
X188760045Y-59339206D01*
X189000638Y-59375282D01*
X189243495Y-59466174D01*
X189459295Y-59608281D01*
X189644370Y-59799131D01*
X189795051Y-60036254D01*
X189825920Y-60097665D01*
X189860556Y-60175020D01*
X189882006Y-60245492D01*
X189893423Y-60325654D01*
X189897960Y-60432080D01*
X189898772Y-60581345D01*
X189898714Y-60626434D01*
X189896745Y-60765861D01*
X189891010Y-60851399D01*
X189890017Y-60866210D01*
X189875897Y-60943575D01*
X189851753Y-61014051D01*
X189814951Y-61093732D01*
X189759128Y-61196517D01*
X189606312Y-61401428D01*
X189409827Y-61576316D01*
X189163069Y-61727602D01*
X189074698Y-61772426D01*
X188961764Y-61824086D01*
X188868004Y-61855625D01*
X188773596Y-61873139D01*
X188658721Y-61882723D01*
X188643435Y-61883572D01*
X188493643Y-61885107D01*
X188366077Y-61868941D01*
X188227961Y-61831149D01*
X188196855Y-61820674D01*
X188015354Y-61742825D01*
X187854615Y-61646449D01*
X187727360Y-61540257D01*
X187646310Y-61432957D01*
X187622785Y-61381974D01*
X187564905Y-61199222D01*
X187525987Y-60983775D01*
X187506951Y-60753082D01*
X187508486Y-60554617D01*
X187571089Y-60554617D01*
X187582697Y-60779349D01*
X187641624Y-60995687D01*
X187744133Y-61194897D01*
X187886488Y-61368247D01*
X188064953Y-61507005D01*
X188275792Y-61602438D01*
X188353441Y-61624341D01*
X188532925Y-61656420D01*
X188695710Y-61660666D01*
X188829713Y-61637371D01*
X188922851Y-61586825D01*
X188960477Y-61540430D01*
X189014676Y-61452337D01*
X189066631Y-61349146D01*
X189097170Y-61277113D01*
X189123053Y-61197013D01*
X189137911Y-61111307D01*
X189144603Y-61002075D01*
X189145984Y-60851399D01*
X189145977Y-60848234D01*
X189138400Y-60641135D01*
X189114651Y-60444003D01*
X189071451Y-60241422D01*
X189005523Y-60017976D01*
X188913591Y-59758248D01*
X188904519Y-59734599D01*
X188869580Y-59666148D01*
X188822791Y-59632279D01*
X188742209Y-59614600D01*
X188565626Y-59608201D01*
X188349519Y-59647331D01*
X188139131Y-59730991D01*
X187947065Y-59852516D01*
X187785927Y-60005240D01*
X187668321Y-60182499D01*
X187610535Y-60330222D01*
X187571089Y-60554617D01*
X187508486Y-60554617D01*
X187508718Y-60524590D01*
X187532207Y-60315747D01*
X187578338Y-60143999D01*
X187671323Y-59947860D01*
X187827862Y-59724134D01*
X188019110Y-59543847D01*
X188240423Y-59412130D01*
X188362972Y-59356951D01*
X188383036Y-58921955D01*
X188420425Y-58406532D01*
X188485054Y-57927115D01*
X188577563Y-57488123D01*
X188699096Y-57082895D01*
X188731049Y-56996352D01*
X188799460Y-56831747D01*
X188875963Y-56667548D01*
X188953575Y-56517656D01*
X189025312Y-56395970D01*
X189084191Y-56316389D01*
X189123032Y-56269140D01*
X189141228Y-56234693D01*
X189126813Y-56218719D01*
X189066841Y-56216205D01*
X188968884Y-56232840D01*
X188842313Y-56265821D01*
X188696500Y-56312344D01*
X188540815Y-56369605D01*
X188384632Y-56434801D01*
X188237321Y-56505127D01*
X188156529Y-56548538D01*
X188149969Y-56552063D01*
X187804706Y-56778488D01*
X187483850Y-57056003D01*
X187190028Y-57381039D01*
X186925868Y-57750025D01*
X186694000Y-58159392D01*
X186497051Y-58605570D01*
X186337651Y-59084990D01*
X186314683Y-59172431D01*
X186310669Y-59230052D01*
X185998721Y-59230052D01*
X186014753Y-59220193D01*
X186052776Y-59181741D01*
X186084649Y-59124414D01*
X186118470Y-59035644D01*
X186162339Y-58902865D01*
X186300483Y-58520016D01*
X186536375Y-58004173D01*
X186817303Y-57526285D01*
X186852633Y-57475761D01*
X186935079Y-57368937D01*
X187037473Y-57245504D01*
X187152578Y-57113251D01*
X187273155Y-56979970D01*
X187391970Y-56853451D01*
X187501783Y-56741486D01*
X187595359Y-56651865D01*
X187665460Y-56592379D01*
X187704849Y-56570819D01*
X187716777Y-56569733D01*
X187755077Y-56548538D01*
X187748378Y-56539447D01*
X187698867Y-56527397D01*
X187615719Y-56520159D01*
X187536649Y-56519108D01*
X187503241Y-56525447D01*
X187522163Y-56540352D01*
X187526506Y-56550637D01*
X187477886Y-56559894D01*
X187372580Y-56565969D01*
X187212022Y-56568731D01*
X187068966Y-56571403D01*
X186910807Y-56578251D01*
X186773884Y-56588097D01*
X186677285Y-56599830D01*
X186607918Y-56611864D01*
X186478638Y-56633960D01*
X186326083Y-56659784D01*
X186170468Y-56685903D01*
X186005338Y-56715520D01*
X185818341Y-56753134D01*
X185637679Y-56793184D01*
X185476421Y-56832620D01*
X185347634Y-56868392D01*
X185264386Y-56897447D01*
X185216927Y-56916310D01*
X185123574Y-56948539D01*
X185041579Y-56972585D01*
X184986785Y-56992113D01*
X184888551Y-57034224D01*
X184760048Y-57093228D01*
X184612825Y-57163817D01*
X184458432Y-57240680D01*
X184293746Y-57328609D01*
X183879763Y-57593567D01*
X183508555Y-57899761D01*
X183180072Y-58247240D01*
X182894263Y-58636056D01*
X182651080Y-59066257D01*
X182645118Y-59078370D01*
X182579460Y-59211358D01*
X182521895Y-59327265D01*
X182478446Y-59414001D01*
X182455137Y-59459480D01*
X182440466Y-59491676D01*
X182427310Y-59544113D01*
X182427223Y-59546460D01*
X182414411Y-59597707D01*
X182386449Y-59670773D01*
X182364018Y-59725765D01*
X182322328Y-59844383D01*
X182285449Y-59967587D01*
X182259116Y-60075452D01*
X182249064Y-60148055D01*
X182244316Y-60190609D01*
X182223201Y-60241193D01*
X182220388Y-60245172D01*
X182203762Y-60299131D01*
X182186359Y-60398344D01*
X182169398Y-60530840D01*
X182154096Y-60684651D01*
X182141670Y-60847808D01*
X182133338Y-61008341D01*
X182130317Y-61154281D01*
X181074827Y-61154281D01*
X181080172Y-61112517D01*
X181103134Y-60951752D01*
X181121096Y-60848713D01*
X181127770Y-60816624D01*
X181150027Y-60708656D01*
X181177721Y-60573449D01*
X181206381Y-60432807D01*
X181252604Y-60215801D01*
X181446257Y-59467092D01*
X181686150Y-58749402D01*
X181971189Y-58065171D01*
X182300282Y-57416839D01*
X182672336Y-56806844D01*
X183086257Y-56237625D01*
X183086960Y-56236739D01*
X183313251Y-55968419D01*
X183572629Y-55689956D01*
X183855576Y-55409802D01*
X184152573Y-55136413D01*
X184454102Y-54878244D01*
X184750642Y-54643751D01*
X185032675Y-54441387D01*
X185290683Y-54279609D01*
X185446267Y-54192786D01*
X185897777Y-53966057D01*
X186343341Y-53782785D01*
X186799927Y-53636513D01*
X187284503Y-53520784D01*
X187331583Y-53511677D01*
X187433448Y-53495643D01*
X187545695Y-53483721D01*
X187678127Y-53475386D01*
X187840547Y-53470112D01*
X188042757Y-53467374D01*
X188294561Y-53466646D01*
X188506570Y-53467682D01*
X188768979Y-53472985D01*
X188987937Y-53483627D01*
X189172809Y-53500537D01*
X189332959Y-53524648D01*
X189477751Y-53556893D01*
X189616549Y-53598202D01*
X189638240Y-53605244D01*
X189725475Y-53632255D01*
X189824503Y-53661669D01*
X190223156Y-53796541D01*
X190708700Y-54011060D01*
X191188268Y-54276226D01*
X191655934Y-54587328D01*
X192105766Y-54939656D01*
X192531836Y-55328502D01*
X192928215Y-55749156D01*
X193288973Y-56196907D01*
X193608182Y-56667047D01*
X193617369Y-56681926D01*
X193690698Y-56801593D01*
X193750422Y-56900614D01*
X193790608Y-56969058D01*
X193805321Y-56996995D01*
X193810482Y-57008879D01*
X193839144Y-57062911D01*
X193887304Y-57149603D01*
X193948525Y-57257257D01*
X193983214Y-57318944D01*
X194074267Y-57488881D01*
X194179131Y-57693190D01*
X194290890Y-57918052D01*
X194402630Y-58149649D01*
X194507436Y-58374163D01*
X194545302Y-58461919D01*
X194603791Y-58608115D01*
X194671431Y-58785295D01*
X194743805Y-58981136D01*
X194816492Y-59183315D01*
X194885073Y-59379509D01*
X194945129Y-59557394D01*
X194992241Y-59704648D01*
X195021988Y-59808947D01*
X195033645Y-59855177D01*
X195061358Y-59963025D01*
X195090942Y-60076316D01*
X195149786Y-60314063D01*
X195213853Y-60601428D01*
X195275985Y-60908128D01*
X195281889Y-60938634D01*
X195308272Y-61072192D01*
X195332981Y-61193493D01*
X195351337Y-61279474D01*
X195362471Y-61330895D01*
X195414594Y-61629898D01*
X195457201Y-61975804D01*
X195484406Y-62291613D01*
X195490190Y-62358750D01*
G37*
%TD*%
M02*
