M48
; DRILL file {KiCad 8.0.6} date 2025-05-15T16:05:47-0300
; FORMAT={-:-/ absolute / metric / decimal}
; #@! TF.CreationDate,2025-05-15T16:05:47-03:00
; #@! TF.GenerationSoftware,Kicad,Pcbnew,8.0.6
; #@! TF.FileFunction,Plated,1,4,PTH
FMAT,2
METRIC
; #@! TA.AperFunction,Plated,PTH,ViaDrill
T1C0.300
; #@! TA.AperFunction,Plated,PTH,ComponentDrill
T2C0.800
; #@! TA.AperFunction,Plated,PTH,ComponentDrill
T3C0.950
; #@! TA.AperFunction,Plated,PTH,ComponentDrill
T4C1.000
; #@! TA.AperFunction,Plated,PTH,ComponentDrill
T5C1.600
; #@! TA.AperFunction,Plated,PTH,ComponentDrill
T6C3.000
%
G90
G05
T1
X99.1Y-57.825
X102.25Y-72.0
X103.125Y-68.825
X104.25Y-62.0
X104.675Y-69.175
X105.525Y-76.15
X105.75Y-72.0
X106.25Y-65.75
X106.525Y-63.775
X106.875Y-77.775
X106.95Y-80.75
X107.7Y-68.775
X111.025Y-85.9
X111.3Y-70.3
X112.738Y-70.712
X113.425Y-92.925
X113.775Y-63.075
X113.825Y-85.85
X113.875Y-66.475
X114.1Y-71.225
X114.5Y-55.5
X115.7Y-70.025
X115.725Y-85.875
X118.2Y-80.0
X118.225Y-83.775
X120.149Y-92.001
X120.65Y-68.25
X120.751Y-91.399
X121.3Y-82.55
X121.75Y-53.5
X125.0Y-62.0
X125.1Y-93.25
X125.6Y-90.8
X128.25Y-79.9
X128.525Y-65.925
X128.8Y-76.0
X130.65Y-102.45
X130.85Y-68.627
X131.475Y-79.7
X131.875Y-75.752
X132.7Y-62.65
X133.175Y-88.75
X133.325Y-85.8
X133.725Y-72.875
X135.75Y-61.75
X135.949Y-86.101
X136.551Y-85.499
X137.475Y-72.7
X139.1Y-96.725
X142.1Y-98.8
X143.25Y-57.5
X143.25Y-88.4
X143.85Y-71.6
X144.35Y-67.6
X145.9Y-80.35
X146.225Y-61.125
X146.375Y-64.125
X146.675Y-71.875
X147.375Y-63.974
X147.975Y-65.012
X148.9Y-94.05
X149.025Y-79.775
X149.075Y-76.275
X149.125Y-64.5
X149.75Y-90.05
X150.6Y-68.5
X151.6Y-81.8
X152.75Y-53.5
X152.825Y-83.876
X154.55Y-91.0
X154.65Y-68.45
X155.8Y-92.0
X156.25Y-54.25
X161.55Y-90.8
X162.55Y-94.15
X163.5Y-98.55
X165.025Y-85.25
X165.325Y-89.05
X166.9Y-98.775
X169.0Y-102.325
X170.0Y-97.98
X170.0Y-98.83
X171.175Y-91.8
X178.123Y-96.85
X178.247Y-101.101
X178.7Y-91.4
X178.848Y-100.499
X179.775Y-78.7
X179.925Y-93.275
X179.95Y-100.925
X181.025Y-93.05
X181.875Y-93.05
X183.125Y-78.7
X183.4Y-100.975
X184.8Y-94.35
X188.675Y-98.875
X190.9Y-62.2
X192.925Y-66.625
T2
X108.25Y-104.5
X110.25Y-104.5
X112.25Y-104.5
X114.25Y-104.5
X176.75Y-104.5
X178.75Y-104.5
X180.75Y-104.5
X182.75Y-104.5
T3
X102.25Y-51.25
X104.75Y-51.25
X107.25Y-51.25
X109.75Y-51.25
T4
X145.17Y-51.5
X147.71Y-51.5
X150.25Y-51.5
X152.79Y-51.5
X188.25Y-81.92
X188.25Y-84.46
X188.25Y-87.0
X188.25Y-89.54
T5
X161.015Y-78.3
X161.015Y-81.7
X174.485Y-78.3
X174.485Y-81.7
T6
X101.295Y-102.709
X136.0Y-52.25
X196.293Y-102.842
M30
