%TF.GenerationSoftware,KiCad,Pcbnew,8.0.6*%
%TF.CreationDate,2025-05-15T16:05:43-03:00*%
%TF.ProjectId,NEW_Communication_Board,4e45575f-436f-46d6-9d75-6e6963617469,rev?*%
%TF.SameCoordinates,Original*%
%TF.FileFunction,Copper,L1,Top*%
%TF.FilePolarity,Positive*%
%FSLAX46Y46*%
G04 Gerber Fmt 4.6, Leading zero omitted, Abs format (unit mm)*
G04 Created by KiCad (PCBNEW 8.0.6) date 2025-05-15 16:05:43*
%MOMM*%
%LPD*%
G01*
G04 APERTURE LIST*
G04 Aperture macros list*
%AMRoundRect*
0 Rectangle with rounded corners*
0 $1 Rounding radius*
0 $2 $3 $4 $5 $6 $7 $8 $9 X,Y pos of 4 corners*
0 Add a 4 corners polygon primitive as box body*
4,1,4,$2,$3,$4,$5,$6,$7,$8,$9,$2,$3,0*
0 Add four circle primitives for the rounded corners*
1,1,$1+$1,$2,$3*
1,1,$1+$1,$4,$5*
1,1,$1+$1,$6,$7*
1,1,$1+$1,$8,$9*
0 Add four rect primitives between the rounded corners*
20,1,$1+$1,$2,$3,$4,$5,0*
20,1,$1+$1,$4,$5,$6,$7,0*
20,1,$1+$1,$6,$7,$8,$9,0*
20,1,$1+$1,$8,$9,$2,$3,0*%
G04 Aperture macros list end*
%TA.AperFunction,SMDPad,CuDef*%
%ADD10RoundRect,0.250001X0.624999X-0.462499X0.624999X0.462499X-0.624999X0.462499X-0.624999X-0.462499X0*%
%TD*%
%TA.AperFunction,SMDPad,CuDef*%
%ADD11R,1.200000X0.400000*%
%TD*%
%TA.AperFunction,SMDPad,CuDef*%
%ADD12RoundRect,0.250001X-0.624999X0.462499X-0.624999X-0.462499X0.624999X-0.462499X0.624999X0.462499X0*%
%TD*%
%TA.AperFunction,ComponentPad*%
%ADD13R,1.350000X1.350000*%
%TD*%
%TA.AperFunction,ComponentPad*%
%ADD14O,1.350000X1.350000*%
%TD*%
%TA.AperFunction,SMDPad,CuDef*%
%ADD15RoundRect,0.250000X0.312500X0.625000X-0.312500X0.625000X-0.312500X-0.625000X0.312500X-0.625000X0*%
%TD*%
%TA.AperFunction,SMDPad,CuDef*%
%ADD16RoundRect,0.250000X0.625000X-0.312500X0.625000X0.312500X-0.625000X0.312500X-0.625000X-0.312500X0*%
%TD*%
%TA.AperFunction,SMDPad,CuDef*%
%ADD17RoundRect,0.250000X-0.325000X-0.650000X0.325000X-0.650000X0.325000X0.650000X-0.325000X0.650000X0*%
%TD*%
%TA.AperFunction,SMDPad,CuDef*%
%ADD18RoundRect,0.250000X-0.625000X0.312500X-0.625000X-0.312500X0.625000X-0.312500X0.625000X0.312500X0*%
%TD*%
%TA.AperFunction,SMDPad,CuDef*%
%ADD19R,0.450000X1.750000*%
%TD*%
%TA.AperFunction,ComponentPad*%
%ADD20R,1.700000X1.700000*%
%TD*%
%TA.AperFunction,ComponentPad*%
%ADD21O,1.700000X1.700000*%
%TD*%
%TA.AperFunction,ComponentPad*%
%ADD22C,6.000000*%
%TD*%
%TA.AperFunction,SMDPad,CuDef*%
%ADD23RoundRect,0.250001X-0.462499X-0.624999X0.462499X-0.624999X0.462499X0.624999X-0.462499X0.624999X0*%
%TD*%
%TA.AperFunction,SMDPad,CuDef*%
%ADD24RoundRect,0.250000X0.650000X-0.325000X0.650000X0.325000X-0.650000X0.325000X-0.650000X-0.325000X0*%
%TD*%
%TA.AperFunction,SMDPad,CuDef*%
%ADD25RoundRect,0.250000X-0.650000X0.325000X-0.650000X-0.325000X0.650000X-0.325000X0.650000X0.325000X0*%
%TD*%
%TA.AperFunction,SMDPad,CuDef*%
%ADD26RoundRect,0.250000X-0.312500X-0.625000X0.312500X-0.625000X0.312500X0.625000X-0.312500X0.625000X0*%
%TD*%
%TA.AperFunction,SMDPad,CuDef*%
%ADD27R,1.524000X1.524000*%
%TD*%
%TA.AperFunction,ComponentPad*%
%ADD28RoundRect,0.250000X0.600000X0.725000X-0.600000X0.725000X-0.600000X-0.725000X0.600000X-0.725000X0*%
%TD*%
%TA.AperFunction,ComponentPad*%
%ADD29O,1.700000X1.950000*%
%TD*%
%TA.AperFunction,SMDPad,CuDef*%
%ADD30RoundRect,0.250000X0.325000X0.650000X-0.325000X0.650000X-0.325000X-0.650000X0.325000X-0.650000X0*%
%TD*%
%TA.AperFunction,SMDPad,CuDef*%
%ADD31RoundRect,0.375000X0.375000X-0.625000X0.375000X0.625000X-0.375000X0.625000X-0.375000X-0.625000X0*%
%TD*%
%TA.AperFunction,SMDPad,CuDef*%
%ADD32RoundRect,0.500000X1.400000X-0.500000X1.400000X0.500000X-1.400000X0.500000X-1.400000X-0.500000X0*%
%TD*%
%TA.AperFunction,SMDPad,CuDef*%
%ADD33R,5.500000X2.000000*%
%TD*%
%TA.AperFunction,SMDPad,CuDef*%
%ADD34RoundRect,0.150000X0.150000X-0.825000X0.150000X0.825000X-0.150000X0.825000X-0.150000X-0.825000X0*%
%TD*%
%TA.AperFunction,ComponentPad*%
%ADD35C,2.400000*%
%TD*%
%TA.AperFunction,ViaPad*%
%ADD36C,0.600000*%
%TD*%
%TA.AperFunction,Conductor*%
%ADD37C,0.200000*%
%TD*%
%TA.AperFunction,Conductor*%
%ADD38C,0.800000*%
%TD*%
G04 APERTURE END LIST*
D10*
%TO.P,D1,1,K*%
%TO.N,Net-(D1-K)*%
X196850000Y-70987500D03*
%TO.P,D1,2,A*%
%TO.N,Net-(D1-A)*%
X196850000Y-68012500D03*
%TD*%
D11*
%TO.P,U1,1,VSS*%
%TO.N,GNDREF*%
X171822500Y-92372500D03*
%TO.P,U1,2,XOUT*%
%TO.N,Net-(U1-XOUT)*%
X171822500Y-93007500D03*
%TO.P,U1,3,XIN*%
%TO.N,Net-(U1-XIN)*%
X171822500Y-93642500D03*
%TO.P,U1,4,DM4*%
%TO.N,S.A.R-D-*%
X171822500Y-94277500D03*
%TO.P,U1,5,DP4*%
%TO.N,S.A.R-D+*%
X171822500Y-94912500D03*
%TO.P,U1,6,DM3*%
%TO.N,S.A.L-D-*%
X171822500Y-95547500D03*
%TO.P,U1,7,DP3*%
%TO.N,S.A.L-D+*%
X171822500Y-96182500D03*
%TO.P,U1,8,DM2*%
%TO.N,MOTORS_USB_D-*%
X171822500Y-96817500D03*
%TO.P,U1,9,DP2*%
%TO.N,MOTORS_USB_D+*%
X171822500Y-97452500D03*
%TO.P,U1,10,DM1*%
%TO.N,IMU_USB_D-*%
X171822500Y-98087500D03*
%TO.P,U1,11,DP1*%
%TO.N,IMU_USB_D+*%
X171822500Y-98722500D03*
%TO.P,U1,12,VD18_O*%
%TO.N,Net-(U1-VD18)*%
X171822500Y-99357500D03*
%TO.P,U1,13,VD33*%
%TO.N,3v3*%
X171822500Y-99992500D03*
%TO.P,U1,14,REXT*%
%TO.N,Net-(U1-REXT)*%
X171822500Y-100627500D03*
%TO.P,U1,15,DMU*%
%TO.N,USB_D-*%
X177022500Y-100627500D03*
%TO.P,U1,16,DPU*%
%TO.N,USB_D+*%
X177022500Y-99992500D03*
%TO.P,U1,17,~{XRSTJ}*%
%TO.N,3v3*%
X177022500Y-99357500D03*
%TO.P,U1,18,VBUSM*%
%TO.N,Net-(U1-VBUSM)*%
X177022500Y-98722500D03*
%TO.P,U1,19,BUSJ*%
%TO.N,3v3*%
X177022500Y-98087500D03*
%TO.P,U1,20,VDD5*%
%TO.N,USB_PWR*%
X177022500Y-97452500D03*
%TO.P,U1,21,VD33_O*%
%TO.N,3v3*%
X177022500Y-96817500D03*
%TO.P,U1,22,DRV*%
%TO.N,Net-(D1-A)*%
X177022500Y-96182500D03*
%TO.P,U1,23,LED1/EESCL*%
%TO.N,Net-(U1-LED1{slash}EESCL)*%
X177022500Y-95547500D03*
%TO.P,U1,24,LED2*%
%TO.N,Net-(U1-LED2)*%
X177022500Y-94912500D03*
%TO.P,U1,25,PWRJ*%
%TO.N,unconnected-(U1-PWRJ-Pad25)*%
X177022500Y-94277500D03*
%TO.P,U1,26,OVCJ*%
%TO.N,3v3*%
X177022500Y-93642500D03*
%TO.P,U1,27,TESTJ/EESDA*%
%TO.N,unconnected-(U1-TESTJ{slash}EESDA-Pad27)*%
X177022500Y-93007500D03*
%TO.P,U1,28,VD18*%
%TO.N,Net-(U1-VD18)*%
X177022500Y-92372500D03*
%TD*%
D12*
%TO.P,D4,1,K*%
%TO.N,Net-(D4-K)*%
X157500000Y-56012500D03*
%TO.P,D4,2,A*%
%TO.N,Net-(D4-A)*%
X157500000Y-58987500D03*
%TD*%
D13*
%TO.P,J5,1,Pin_1*%
%TO.N,GNDREF*%
X182750000Y-104500000D03*
D14*
%TO.P,J5,2,Pin_2*%
%TO.N,5V*%
X180750000Y-104500000D03*
%TO.P,J5,3,Pin_3*%
%TO.N,Net-(J5-Pin_3)*%
X178750000Y-104500000D03*
%TO.P,J5,4,Pin_4*%
%TO.N,Net-(J5-Pin_4)*%
X176750000Y-104500000D03*
%TD*%
D15*
%TO.P,R16,1*%
%TO.N,Net-(D9-A)*%
X135762500Y-100300000D03*
%TO.P,R16,2*%
%TO.N,USB_PWR*%
X132837500Y-100300000D03*
%TD*%
D16*
%TO.P,R9,1*%
%TO.N,Net-(D5-A)*%
X153750000Y-63962500D03*
%TO.P,R9,2*%
%TO.N,USB_PWR*%
X153750000Y-61037500D03*
%TD*%
D17*
%TO.P,C21,1*%
%TO.N,USB_PWR*%
X114275000Y-83750000D03*
%TO.P,C21,2*%
%TO.N,GNDREF*%
X117225000Y-83750000D03*
%TD*%
D16*
%TO.P,R18,1*%
%TO.N,Net-(D11-A)*%
X104500000Y-96687500D03*
%TO.P,R18,2*%
%TO.N,USB_PWR*%
X104500000Y-93762500D03*
%TD*%
D15*
%TO.P,R6,1*%
%TO.N,GNDREF*%
X188662500Y-97450000D03*
%TO.P,R6,2*%
%TO.N,Net-(U1-VBUSM)*%
X185737500Y-97450000D03*
%TD*%
D12*
%TO.P,D10,1,K*%
%TO.N,Net-(D10-K)*%
X100250000Y-84275000D03*
%TO.P,D10,2,A*%
%TO.N,Net-(D10-A)*%
X100250000Y-87250000D03*
%TD*%
D18*
%TO.P,R3,1*%
%TO.N,Net-(U1-LED2)*%
X192950000Y-61687500D03*
%TO.P,R3,2*%
%TO.N,Net-(D2-K)*%
X192950000Y-64612500D03*
%TD*%
D19*
%TO.P,U6,1,TXD*%
%TO.N,Net-(J6-Pin_3)*%
X109350000Y-94450000D03*
%TO.P,U6,2,DTR*%
%TO.N,unconnected-(U6-DTR-Pad2)*%
X110000000Y-94450000D03*
%TO.P,U6,3,RTS*%
%TO.N,unconnected-(U6-RTS-Pad3)*%
X110650000Y-94450000D03*
%TO.P,U6,4,VCCIO*%
%TO.N,USB_PWR*%
X111300000Y-94450000D03*
%TO.P,U6,5,RXD*%
%TO.N,Net-(J6-Pin_4)*%
X111950000Y-94450000D03*
%TO.P,U6,6,RI*%
%TO.N,unconnected-(U6-RI-Pad6)*%
X112600000Y-94450000D03*
%TO.P,U6,7,GND*%
%TO.N,GNDREF*%
X113250000Y-94450000D03*
%TO.P,U6,8*%
%TO.N,N/C*%
X113900000Y-94450000D03*
%TO.P,U6,9,DCR*%
%TO.N,unconnected-(U6-DCR-Pad9)*%
X114550000Y-94450000D03*
%TO.P,U6,10,DCD*%
%TO.N,unconnected-(U6-DCD-Pad10)*%
X115200000Y-94450000D03*
%TO.P,U6,11,CTS*%
%TO.N,unconnected-(U6-CTS-Pad11)*%
X115850000Y-94450000D03*
%TO.P,U6,12,CBUS4*%
%TO.N,unconnected-(U6-CBUS4-Pad12)*%
X116500000Y-94450000D03*
%TO.P,U6,13,CBUS2*%
%TO.N,unconnected-(U6-CBUS2-Pad13)*%
X117150000Y-94450000D03*
%TO.P,U6,14,CBUS3*%
%TO.N,unconnected-(U6-CBUS3-Pad14)*%
X117800000Y-94450000D03*
%TO.P,U6,15,USBD+*%
%TO.N,S.A.R-D+*%
X117800000Y-87250000D03*
%TO.P,U6,16,USBD-*%
%TO.N,S.A.R-D-*%
X117150000Y-87250000D03*
%TO.P,U6,17,3V3OUT*%
%TO.N,Net-(U6-3V3OUT)*%
X116500000Y-87250000D03*
%TO.P,U6,18,GND*%
%TO.N,GNDREF*%
X115850000Y-87250000D03*
%TO.P,U6,19,~{RESET}*%
%TO.N,unconnected-(U6-~{RESET}-Pad19)*%
X115200000Y-87250000D03*
%TO.P,U6,20,VCC*%
%TO.N,USB_PWR*%
X114550000Y-87250000D03*
%TO.P,U6,21,GND*%
%TO.N,GNDREF*%
X113900000Y-87250000D03*
%TO.P,U6,22,CBUS1*%
%TO.N,Net-(D11-K)*%
X113250000Y-87250000D03*
%TO.P,U6,23,CBUS0*%
%TO.N,Net-(D10-K)*%
X112600000Y-87250000D03*
%TO.P,U6,24*%
%TO.N,N/C*%
X111950000Y-87250000D03*
%TO.P,U6,25,AGND*%
%TO.N,GNDREF*%
X111300000Y-87250000D03*
%TO.P,U6,26,TEST*%
X110650000Y-87250000D03*
%TO.P,U6,27,OSCI*%
%TO.N,unconnected-(U6-OSCI-Pad27)*%
X110000000Y-87250000D03*
%TO.P,U6,28,OSCO*%
%TO.N,unconnected-(U6-OSCO-Pad28)*%
X109350000Y-87250000D03*
%TD*%
D13*
%TO.P,J6,1,Pin_1*%
%TO.N,GNDREF*%
X114250000Y-104500000D03*
D14*
%TO.P,J6,2,Pin_2*%
%TO.N,5V*%
X112250000Y-104500000D03*
%TO.P,J6,3,Pin_3*%
%TO.N,Net-(J6-Pin_3)*%
X110250000Y-104500000D03*
%TO.P,J6,4,Pin_4*%
%TO.N,Net-(J6-Pin_4)*%
X108250000Y-104500000D03*
%TD*%
D10*
%TO.P,D3,1,K*%
%TO.N,Net-(D3-K)*%
X197100000Y-58437500D03*
%TO.P,D3,2,A*%
%TO.N,Net-(D1-A)*%
X197100000Y-55462500D03*
%TD*%
D20*
%TO.P,J1,1,Pin_1*%
%TO.N,Net-(J1-Pin_1)*%
X188250000Y-81920000D03*
D21*
%TO.P,J1,2,Pin_2*%
%TO.N,USB_D-*%
X188250000Y-84460000D03*
%TO.P,J1,3,Pin_3*%
%TO.N,USB_D+*%
X188250000Y-87000000D03*
%TO.P,J1,4,Pin_4*%
%TO.N,GNDREF*%
X188250000Y-89540000D03*
%TD*%
D10*
%TO.P,D2,1,K*%
%TO.N,Net-(D2-K)*%
X197000000Y-64637500D03*
%TO.P,D2,2,A*%
%TO.N,Net-(D1-A)*%
X197000000Y-61662500D03*
%TD*%
D17*
%TO.P,C9,1*%
%TO.N,GNDREF*%
X146225000Y-62400000D03*
%TO.P,C9,2*%
%TO.N,Net-(U2-3V3OUT)*%
X149175000Y-62400000D03*
%TD*%
D22*
%TO.P,,1*%
%TO.N,N/C*%
X101295039Y-102708969D03*
%TD*%
D16*
%TO.P,R8,1*%
%TO.N,Net-(D4-A)*%
X153000000Y-58462500D03*
%TO.P,R8,2*%
%TO.N,USB_PWR*%
X153000000Y-55537500D03*
%TD*%
D17*
%TO.P,C10,1*%
%TO.N,GNDREF*%
X105275000Y-63750000D03*
%TO.P,C10,2*%
%TO.N,Net-(U3-3V3OUT)*%
X108225000Y-63750000D03*
%TD*%
D23*
%TO.P,D6,1,K*%
%TO.N,Net-(D6-K)*%
X117262500Y-49750000D03*
%TO.P,D6,2,A*%
%TO.N,Net-(D6-A)*%
X120237500Y-49750000D03*
%TD*%
D17*
%TO.P,C19,1*%
%TO.N,USB_PWR*%
X145025000Y-76250000D03*
%TO.P,C19,2*%
%TO.N,GNDREF*%
X147975000Y-76250000D03*
%TD*%
D24*
%TO.P,C1,1*%
%TO.N,Net-(U1-XOUT)*%
X179750000Y-81625000D03*
%TO.P,C1,2*%
%TO.N,GNDREF*%
X179750000Y-78675000D03*
%TD*%
D16*
%TO.P,R7,1*%
%TO.N,USB_PWR*%
X110000000Y-80462500D03*
%TO.P,R7,2*%
%TO.N,Net-(U3-CBUS3)*%
X110000000Y-77537500D03*
%TD*%
D17*
%TO.P,C18,1*%
%TO.N,USB_PWR*%
X129200000Y-88800000D03*
%TO.P,C18,2*%
%TO.N,GNDREF*%
X132150000Y-88800000D03*
%TD*%
D23*
%TO.P,D8,1,K*%
%TO.N,Net-(D8-K)*%
X123050000Y-103800000D03*
%TO.P,D8,2,A*%
%TO.N,Net-(D8-A)*%
X126025000Y-103800000D03*
%TD*%
D25*
%TO.P,C12,1*%
%TO.N,GNDREF*%
X121300000Y-83525000D03*
%TO.P,C12,2*%
%TO.N,Net-(U6-3V3OUT)*%
X121300000Y-86475000D03*
%TD*%
D17*
%TO.P,C20,1*%
%TO.N,USB_PWR*%
X145025000Y-79750000D03*
%TO.P,C20,2*%
%TO.N,GNDREF*%
X147975000Y-79750000D03*
%TD*%
D19*
%TO.P,U2,1,TXD*%
%TO.N,Net-(J2-Pin_3)*%
X142775000Y-73350000D03*
%TO.P,U2,2,DTR*%
%TO.N,unconnected-(U2-DTR-Pad2)*%
X143425000Y-73350000D03*
%TO.P,U2,3,RTS*%
%TO.N,unconnected-(U2-RTS-Pad3)*%
X144075000Y-73350000D03*
%TO.P,U2,4,VCCIO*%
%TO.N,USB_PWR*%
X144725000Y-73350000D03*
%TO.P,U2,5,RXD*%
%TO.N,Net-(J2-Pin_4)*%
X145375000Y-73350000D03*
%TO.P,U2,6,RI*%
%TO.N,unconnected-(U2-RI-Pad6)*%
X146025000Y-73350000D03*
%TO.P,U2,7,GND*%
%TO.N,GNDREF*%
X146675000Y-73350000D03*
%TO.P,U2,8*%
%TO.N,N/C*%
X147325000Y-73350000D03*
%TO.P,U2,9,DCR*%
%TO.N,unconnected-(U2-DCR-Pad9)*%
X147975000Y-73350000D03*
%TO.P,U2,10,DCD*%
%TO.N,unconnected-(U2-DCD-Pad10)*%
X148625000Y-73350000D03*
%TO.P,U2,11,CTS*%
%TO.N,unconnected-(U2-CTS-Pad11)*%
X149275000Y-73350000D03*
%TO.P,U2,12,CBUS4*%
%TO.N,unconnected-(U2-CBUS4-Pad12)*%
X149925000Y-73350000D03*
%TO.P,U2,13,CBUS2*%
%TO.N,unconnected-(U2-CBUS2-Pad13)*%
X150575000Y-73350000D03*
%TO.P,U2,14,CBUS3*%
%TO.N,unconnected-(U2-CBUS3-Pad14)*%
X151225000Y-73350000D03*
%TO.P,U2,15,USBD+*%
%TO.N,IMU_USB_D+*%
X151225000Y-66150000D03*
%TO.P,U2,16,USBD-*%
%TO.N,IMU_USB_D-*%
X150575000Y-66150000D03*
%TO.P,U2,17,3V3OUT*%
%TO.N,Net-(U2-3V3OUT)*%
X149925000Y-66150000D03*
%TO.P,U2,18,GND*%
%TO.N,GNDREF*%
X149275000Y-66150000D03*
%TO.P,U2,19,~{RESET}*%
%TO.N,unconnected-(U2-~{RESET}-Pad19)*%
X148625000Y-66150000D03*
%TO.P,U2,20,VCC*%
%TO.N,USB_PWR*%
X147975000Y-66150000D03*
%TO.P,U2,21,GND*%
%TO.N,GNDREF*%
X147325000Y-66150000D03*
%TO.P,U2,22,CBUS1*%
%TO.N,Net-(D5-K)*%
X146675000Y-66150000D03*
%TO.P,U2,23,CBUS0*%
%TO.N,Net-(D4-K)*%
X146025000Y-66150000D03*
%TO.P,U2,24*%
%TO.N,N/C*%
X145375000Y-66150000D03*
%TO.P,U2,25,AGND*%
%TO.N,GNDREF*%
X144725000Y-66150000D03*
%TO.P,U2,26,TEST*%
X144075000Y-66150000D03*
%TO.P,U2,27,OSCI*%
%TO.N,unconnected-(U2-OSCI-Pad27)*%
X143425000Y-66150000D03*
%TO.P,U2,28,OSCO*%
%TO.N,unconnected-(U2-OSCO-Pad28)*%
X142775000Y-66150000D03*
%TD*%
D15*
%TO.P,R10,1*%
%TO.N,Net-(D6-A)*%
X120212500Y-53750000D03*
%TO.P,R10,2*%
%TO.N,USB_PWR*%
X117287500Y-53750000D03*
%TD*%
D17*
%TO.P,C17,1*%
%TO.N,USB_PWR*%
X129225000Y-85050000D03*
%TO.P,C17,2*%
%TO.N,GNDREF*%
X132175000Y-85050000D03*
%TD*%
D24*
%TO.P,C14,1*%
%TO.N,USB_PWR*%
X183300000Y-97375000D03*
%TO.P,C14,2*%
%TO.N,GNDREF*%
X183300000Y-94425000D03*
%TD*%
D16*
%TO.P,R13,1*%
%TO.N,NET- D-*%
X110250000Y-60175000D03*
%TO.P,R13,2*%
%TO.N,NET- D+*%
X110250000Y-57250000D03*
%TD*%
D24*
%TO.P,C6,1*%
%TO.N,Net-(U1-VD18)*%
X166875000Y-101525000D03*
%TO.P,C6,2*%
%TO.N,GNDREF*%
X166875000Y-98575000D03*
%TD*%
D22*
%TO.P,,1*%
%TO.N,N/C*%
X136000000Y-52250000D03*
%TD*%
D26*
%TO.P,R15,1*%
%TO.N,Net-(D8-A)*%
X123087500Y-100300000D03*
%TO.P,R15,2*%
%TO.N,USB_PWR*%
X126012500Y-100300000D03*
%TD*%
D24*
%TO.P,C13,1*%
%TO.N,USB_PWR*%
X179950000Y-97425000D03*
%TO.P,C13,2*%
%TO.N,GNDREF*%
X179950000Y-94475000D03*
%TD*%
D18*
%TO.P,R4,1*%
%TO.N,GNDREF*%
X192900000Y-68087500D03*
%TO.P,R4,2*%
%TO.N,Net-(D1-K)*%
X192900000Y-71012500D03*
%TD*%
D27*
%TO.P,REF\u002A\u002A,1*%
%TO.N,N/C*%
X179500000Y-53500000D03*
%TO.P,REF\u002A\u002A,2*%
X181500000Y-53500000D03*
%TO.P,REF\u002A\u002A,3*%
X183500000Y-53500000D03*
%TO.P,REF\u002A\u002A,4*%
X185500000Y-53500000D03*
%TO.P,REF\u002A\u002A,5*%
X179500000Y-55500000D03*
%TO.P,REF\u002A\u002A,6*%
X181500000Y-55500000D03*
%TO.P,REF\u002A\u002A,7*%
X183500000Y-55500000D03*
%TO.P,REF\u002A\u002A,8*%
X185500000Y-55500000D03*
%TD*%
D17*
%TO.P,C4,1*%
%TO.N,USB_PWR*%
X161025000Y-85250000D03*
%TO.P,C4,2*%
%TO.N,GNDREF*%
X163975000Y-85250000D03*
%TD*%
D15*
%TO.P,R1,1*%
%TO.N,Net-(U1-REXT)*%
X170712500Y-104000000D03*
%TO.P,R1,2*%
%TO.N,GNDREF*%
X167787500Y-104000000D03*
%TD*%
%TO.P,R12,1*%
%TO.N,USB_PWR*%
X107212500Y-56250000D03*
%TO.P,R12,2*%
%TO.N,NET- D+*%
X104287500Y-56250000D03*
%TD*%
D25*
%TO.P,C8,1*%
%TO.N,3v3*%
X183350000Y-99225000D03*
%TO.P,C8,2*%
%TO.N,GNDREF*%
X183350000Y-102175000D03*
%TD*%
D22*
%TO.P,,1*%
%TO.N,N/C*%
X196292944Y-102842286D03*
%TD*%
D12*
%TO.P,D5,1,K*%
%TO.N,Net-(D5-K)*%
X157500000Y-62012500D03*
%TO.P,D5,2,A*%
%TO.N,Net-(D5-A)*%
X157500000Y-64987500D03*
%TD*%
D24*
%TO.P,C2,1*%
%TO.N,Net-(U1-XIN)*%
X183100000Y-81625000D03*
%TO.P,C2,2*%
%TO.N,GNDREF*%
X183100000Y-78675000D03*
%TD*%
%TO.P,C25,1*%
%TO.N,Net-(J4-VDD)*%
X135750000Y-65950000D03*
%TO.P,C25,2*%
%TO.N,GNDREF*%
X135750000Y-63000000D03*
%TD*%
D28*
%TO.P,J4,1,GND*%
%TO.N,GNDREF*%
X109750000Y-51250000D03*
D29*
%TO.P,J4,2,VDD*%
%TO.N,Net-(J4-VDD)*%
X107250000Y-51250000D03*
%TO.P,J4,3,D+*%
%TO.N,NET- D+*%
X104750000Y-51250000D03*
%TO.P,J4,4,D-*%
%TO.N,NET- D-*%
X102250000Y-51250000D03*
%TD*%
D24*
%TO.P,C26,1*%
%TO.N,5V*%
X125000000Y-66475000D03*
%TO.P,C26,2*%
%TO.N,GNDREF*%
X125000000Y-63525000D03*
%TD*%
D23*
%TO.P,D9,1,K*%
%TO.N,Net-(D9-K)*%
X132812500Y-103800000D03*
%TO.P,D9,2,A*%
%TO.N,Net-(D9-A)*%
X135787500Y-103800000D03*
%TD*%
D17*
%TO.P,C16,1*%
%TO.N,USB_PWR*%
X103025000Y-80750000D03*
%TO.P,C16,2*%
%TO.N,GNDREF*%
X105975000Y-80750000D03*
%TD*%
D30*
%TO.P,C11,1*%
%TO.N,GNDREF*%
X137475000Y-71250000D03*
%TO.P,C11,2*%
%TO.N,Net-(U5-3V3OUT)*%
X134525000Y-71250000D03*
%TD*%
D18*
%TO.P,R2,1*%
%TO.N,Net-(U1-LED1{slash}EESCL)*%
X193000000Y-55537500D03*
%TO.P,R2,2*%
%TO.N,Net-(D3-K)*%
X193000000Y-58462500D03*
%TD*%
D25*
%TO.P,C7,1*%
%TO.N,3v3*%
X179900000Y-99175000D03*
%TO.P,C7,2*%
%TO.N,GNDREF*%
X179900000Y-102125000D03*
%TD*%
D20*
%TO.P,J2,1,Pin_1*%
%TO.N,GNDREF*%
X145170000Y-51500000D03*
D21*
%TO.P,J2,2,Pin_2*%
%TO.N,5V*%
X147710000Y-51500000D03*
%TO.P,J2,3,Pin_3*%
%TO.N,Net-(J2-Pin_3)*%
X150250000Y-51500000D03*
%TO.P,J2,4,Pin_4*%
%TO.N,Net-(J2-Pin_4)*%
X152790000Y-51500000D03*
%TD*%
D30*
%TO.P,C24,1*%
%TO.N,USB_PWR*%
X116725000Y-62750000D03*
%TO.P,C24,2*%
%TO.N,GNDREF*%
X113775000Y-62750000D03*
%TD*%
D31*
%TO.P,U7,1,ADJ*%
%TO.N,GNDREF*%
X128550000Y-65950000D03*
%TO.P,U7,2,VO*%
%TO.N,5V*%
X130850000Y-65950000D03*
%TO.P,U7,3,VI*%
%TO.N,Net-(J4-VDD)*%
X133150000Y-65950000D03*
D32*
%TO.P,U7,4*%
%TO.N,N/C*%
X130850000Y-59650000D03*
%TD*%
D26*
%TO.P,R14,1*%
%TO.N,GNDREF*%
X99287500Y-56250000D03*
%TO.P,R14,2*%
%TO.N,NET- D-*%
X102212500Y-56250000D03*
%TD*%
D19*
%TO.P,U3,1,TXD*%
%TO.N,Net-(U3-TXD)*%
X101200000Y-74700000D03*
%TO.P,U3,2,DTR*%
%TO.N,unconnected-(U3-DTR-Pad2)*%
X101850000Y-74700000D03*
%TO.P,U3,3,RTS*%
%TO.N,unconnected-(U3-RTS-Pad3)*%
X102500000Y-74700000D03*
%TO.P,U3,4,VCCIO*%
%TO.N,USB_PWR*%
X103150000Y-74700000D03*
%TO.P,U3,5,RXD*%
%TO.N,Net-(U3-RXD)*%
X103800000Y-74700000D03*
%TO.P,U3,6,RI*%
%TO.N,unconnected-(U3-RI-Pad6)*%
X104450000Y-74700000D03*
%TO.P,U3,7,GND*%
%TO.N,GNDREF*%
X105100000Y-74700000D03*
%TO.P,U3,8*%
%TO.N,N/C*%
X105750000Y-74700000D03*
%TO.P,U3,9,DCR*%
%TO.N,unconnected-(U3-DCR-Pad9)*%
X106400000Y-74700000D03*
%TO.P,U3,10,DCD*%
%TO.N,unconnected-(U3-DCD-Pad10)*%
X107050000Y-74700000D03*
%TO.P,U3,11,CTS*%
%TO.N,unconnected-(U3-CTS-Pad11)*%
X107700000Y-74700000D03*
%TO.P,U3,12,CBUS4*%
%TO.N,unconnected-(U3-CBUS4-Pad12)*%
X108350000Y-74700000D03*
%TO.P,U3,13,CBUS2*%
%TO.N,Net-(U3-CBUS2)*%
X109000000Y-74700000D03*
%TO.P,U3,14,CBUS3*%
%TO.N,Net-(U3-CBUS3)*%
X109650000Y-74700000D03*
%TO.P,U3,15,USBD+*%
%TO.N,MOTORS_USB_D+*%
X109650000Y-67500000D03*
%TO.P,U3,16,USBD-*%
%TO.N,MOTORS_USB_D-*%
X109000000Y-67500000D03*
%TO.P,U3,17,3V3OUT*%
%TO.N,Net-(U3-3V3OUT)*%
X108350000Y-67500000D03*
%TO.P,U3,18,GND*%
%TO.N,GNDREF*%
X107700000Y-67500000D03*
%TO.P,U3,19,~{RESET}*%
%TO.N,unconnected-(U3-~{RESET}-Pad19)*%
X107050000Y-67500000D03*
%TO.P,U3,20,VCC*%
%TO.N,USB_PWR*%
X106400000Y-67500000D03*
%TO.P,U3,21,GND*%
%TO.N,GNDREF*%
X105750000Y-67500000D03*
%TO.P,U3,22,CBUS1*%
%TO.N,Net-(D7-K)*%
X105100000Y-67500000D03*
%TO.P,U3,23,CBUS0*%
%TO.N,Net-(D6-K)*%
X104450000Y-67500000D03*
%TO.P,U3,24*%
%TO.N,N/C*%
X103800000Y-67500000D03*
%TO.P,U3,25,AGND*%
%TO.N,GNDREF*%
X103150000Y-67500000D03*
%TO.P,U3,26,TEST*%
X102500000Y-67500000D03*
%TO.P,U3,27,OSCI*%
%TO.N,unconnected-(U3-OSCI-Pad27)*%
X101850000Y-67500000D03*
%TO.P,U3,28,OSCO*%
%TO.N,unconnected-(U3-OSCO-Pad28)*%
X101200000Y-67500000D03*
%TD*%
D24*
%TO.P,C5,1*%
%TO.N,Net-(U1-VD18)*%
X163500000Y-101525000D03*
%TO.P,C5,2*%
%TO.N,GNDREF*%
X163500000Y-98575000D03*
%TD*%
D15*
%TO.P,R5,1*%
%TO.N,USB_PWR*%
X188712500Y-100800000D03*
%TO.P,R5,2*%
%TO.N,Net-(U1-VBUSM)*%
X185787500Y-100800000D03*
%TD*%
%TO.P,R11,1*%
%TO.N,Net-(D7-A)*%
X126462500Y-53750000D03*
%TO.P,R11,2*%
%TO.N,USB_PWR*%
X123537500Y-53750000D03*
%TD*%
D17*
%TO.P,C15,1*%
%TO.N,USB_PWR*%
X103025000Y-77750000D03*
%TO.P,C15,2*%
%TO.N,GNDREF*%
X105975000Y-77750000D03*
%TD*%
D33*
%TO.P,Y1,1,1*%
%TO.N,Net-(U1-XOUT)*%
X170100000Y-87350000D03*
%TO.P,Y1,2,2*%
%TO.N,Net-(U1-XIN)*%
X179600000Y-87350000D03*
%TD*%
D23*
%TO.P,D7,1,K*%
%TO.N,Net-(D7-K)*%
X123512500Y-49750000D03*
%TO.P,D7,2,A*%
%TO.N,Net-(D7-A)*%
X126487500Y-49750000D03*
%TD*%
D30*
%TO.P,C23,1*%
%TO.N,USB_PWR*%
X116725000Y-66500000D03*
%TO.P,C23,2*%
%TO.N,GNDREF*%
X113775000Y-66500000D03*
%TD*%
D34*
%TO.P,U4,1,RO*%
%TO.N,Net-(U3-RXD)*%
X116845000Y-74750000D03*
%TO.P,U4,2,~{RE}*%
%TO.N,Net-(U3-CBUS3)*%
X118115000Y-74750000D03*
%TO.P,U4,3,DE*%
%TO.N,Net-(U3-CBUS2)*%
X119385000Y-74750000D03*
%TO.P,U4,4,DI*%
%TO.N,Net-(U3-TXD)*%
X120655000Y-74750000D03*
%TO.P,U4,5,GND*%
%TO.N,GNDREF*%
X120655000Y-69800000D03*
%TO.P,U4,6,A*%
%TO.N,NET- D+*%
X119385000Y-69800000D03*
%TO.P,U4,7,B*%
%TO.N,NET- D-*%
X118115000Y-69800000D03*
%TO.P,U4,8,VCC*%
%TO.N,USB_PWR*%
X116845000Y-69800000D03*
%TD*%
D19*
%TO.P,U5,1,TXD*%
%TO.N,Net-(J5-Pin_3)*%
X127275000Y-81600000D03*
%TO.P,U5,2,DTR*%
%TO.N,unconnected-(U5-DTR-Pad2)*%
X127925000Y-81600000D03*
%TO.P,U5,3,RTS*%
%TO.N,unconnected-(U5-RTS-Pad3)*%
X128575000Y-81600000D03*
%TO.P,U5,4,VCCIO*%
%TO.N,USB_PWR*%
X129225000Y-81600000D03*
%TO.P,U5,5,RXD*%
%TO.N,Net-(J5-Pin_4)*%
X129875000Y-81600000D03*
%TO.P,U5,6,RI*%
%TO.N,unconnected-(U5-RI-Pad6)*%
X130525000Y-81600000D03*
%TO.P,U5,7,GND*%
%TO.N,GNDREF*%
X131175000Y-81600000D03*
%TO.P,U5,8*%
%TO.N,N/C*%
X131825000Y-81600000D03*
%TO.P,U5,9,DCR*%
%TO.N,unconnected-(U5-DCR-Pad9)*%
X132475000Y-81600000D03*
%TO.P,U5,10,DCD*%
%TO.N,unconnected-(U5-DCD-Pad10)*%
X133125000Y-81600000D03*
%TO.P,U5,11,CTS*%
%TO.N,unconnected-(U5-CTS-Pad11)*%
X133775000Y-81600000D03*
%TO.P,U5,12,CBUS4*%
%TO.N,unconnected-(U5-CBUS4-Pad12)*%
X134425000Y-81600000D03*
%TO.P,U5,13,CBUS2*%
%TO.N,unconnected-(U5-CBUS2-Pad13)*%
X135075000Y-81600000D03*
%TO.P,U5,14,CBUS3*%
%TO.N,unconnected-(U5-CBUS3-Pad14)*%
X135725000Y-81600000D03*
%TO.P,U5,15,USBD+*%
%TO.N,S.A.L-D+*%
X135725000Y-74400000D03*
%TO.P,U5,16,USBD-*%
%TO.N,S.A.L-D-*%
X135075000Y-74400000D03*
%TO.P,U5,17,3V3OUT*%
%TO.N,Net-(U5-3V3OUT)*%
X134425000Y-74400000D03*
%TO.P,U5,18,GND*%
%TO.N,GNDREF*%
X133775000Y-74400000D03*
%TO.P,U5,19,~{RESET}*%
%TO.N,unconnected-(U5-~{RESET}-Pad19)*%
X133125000Y-74400000D03*
%TO.P,U5,20,VCC*%
%TO.N,USB_PWR*%
X132475000Y-74400000D03*
%TO.P,U5,21,GND*%
%TO.N,GNDREF*%
X131825000Y-74400000D03*
%TO.P,U5,22,CBUS1*%
%TO.N,Net-(D9-K)*%
X131175000Y-74400000D03*
%TO.P,U5,23,CBUS0*%
%TO.N,Net-(D8-K)*%
X130525000Y-74400000D03*
%TO.P,U5,24*%
%TO.N,N/C*%
X129875000Y-74400000D03*
%TO.P,U5,25,AGND*%
%TO.N,GNDREF*%
X129225000Y-74400000D03*
%TO.P,U5,26,TEST*%
X128575000Y-74400000D03*
%TO.P,U5,27,OSCI*%
%TO.N,unconnected-(U5-OSCI-Pad27)*%
X127925000Y-74400000D03*
%TO.P,U5,28,OSCO*%
%TO.N,unconnected-(U5-OSCO-Pad28)*%
X127275000Y-74400000D03*
%TD*%
D12*
%TO.P,D11,1,K*%
%TO.N,Net-(D11-K)*%
X100250000Y-93787500D03*
%TO.P,D11,2,A*%
%TO.N,Net-(D11-A)*%
X100250000Y-96762500D03*
%TD*%
D17*
%TO.P,C22,1*%
%TO.N,USB_PWR*%
X114275000Y-80000000D03*
%TO.P,C22,2*%
%TO.N,GNDREF*%
X117225000Y-80000000D03*
%TD*%
D16*
%TO.P,R17,1*%
%TO.N,Net-(D10-A)*%
X104250000Y-87112500D03*
%TO.P,R17,2*%
%TO.N,USB_PWR*%
X104250000Y-84187500D03*
%TD*%
D17*
%TO.P,C3,1*%
%TO.N,USB_PWR*%
X161025000Y-89000000D03*
%TO.P,C3,2*%
%TO.N,GNDREF*%
X163975000Y-89000000D03*
%TD*%
D35*
%TO.P,J3,1,1*%
%TO.N,Net-(J1-Pin_1)*%
X174485000Y-81700000D03*
%TO.P,J3,2,2*%
%TO.N,USB_PWR*%
X161015000Y-81700000D03*
%TO.P,J3,3,3*%
%TO.N,Net-(J1-Pin_1)*%
X174485000Y-78300000D03*
%TO.P,J3,4,4*%
%TO.N,USB_PWR*%
X161015000Y-78300000D03*
%TD*%
D36*
%TO.N,GNDREF*%
X120650000Y-68250000D03*
X149125000Y-64500000D03*
X183400000Y-100975000D03*
X169000000Y-102325000D03*
X171175000Y-91800000D03*
X128525000Y-65925000D03*
X113775000Y-63075000D03*
X133725000Y-72875000D03*
X183125000Y-78700000D03*
X113875000Y-66475000D03*
X166900000Y-98775000D03*
X149025000Y-79775000D03*
X106525000Y-63775000D03*
X113425000Y-92925000D03*
X179775000Y-78700000D03*
X165325000Y-89050000D03*
X135750000Y-61750000D03*
X131875000Y-75752209D03*
X144350000Y-67600000D03*
X146675000Y-71875000D03*
X133175000Y-88750000D03*
X149075000Y-76275000D03*
X113825000Y-85850000D03*
X146225000Y-61125000D03*
X165025000Y-85250000D03*
X118225000Y-83775000D03*
X115725000Y-85875000D03*
X192925000Y-66625000D03*
X121300000Y-82550000D03*
X188675000Y-98875000D03*
X179950000Y-100925000D03*
X128800000Y-76000000D03*
X107700000Y-68775000D03*
X179925000Y-93275000D03*
X133325000Y-85800000D03*
X106950000Y-80750000D03*
X106875000Y-77775000D03*
X103125000Y-68825000D03*
X99100000Y-57825000D03*
X125000000Y-62000000D03*
X118200000Y-80000000D03*
X104675000Y-69175000D03*
X147375000Y-63973527D03*
X163500000Y-98550000D03*
X105525000Y-76150000D03*
X137475000Y-72700000D03*
X184800000Y-94350000D03*
X131475000Y-79700000D03*
X111025000Y-85900000D03*
%TO.N,USB_PWR*%
X143850000Y-71600000D03*
X145900000Y-80350000D03*
X147974999Y-65011608D03*
X178122502Y-96850000D03*
X115700000Y-70024999D03*
X111300000Y-70300000D03*
X161550000Y-90800000D03*
%TO.N,Net-(D4-K)*%
X156250000Y-54250000D03*
X146375000Y-64125000D03*
%TO.N,Net-(D5-K)*%
X154650000Y-68450000D03*
X150600000Y-68500000D03*
%TO.N,Net-(D6-K)*%
X104250000Y-62000000D03*
X114500000Y-55500000D03*
%TO.N,Net-(D7-K)*%
X121750000Y-53500000D03*
X106250000Y-65750000D03*
%TO.N,Net-(D9-K)*%
X125600000Y-90800000D03*
X130650000Y-102450000D03*
X128250000Y-79900000D03*
%TO.N,USB_D+*%
X178848023Y-100499479D03*
X181875000Y-93050000D03*
%TO.N,USB_D-*%
X178246981Y-101100521D03*
X181025000Y-93050000D03*
%TO.N,Net-(J2-Pin_4)*%
X152750000Y-53500000D03*
X143250000Y-57500000D03*
%TO.N,Net-(J4-VDD)*%
X132700000Y-62650000D03*
%TO.N,Net-(J5-Pin_3)*%
X125100000Y-93250000D03*
X139100000Y-96725000D03*
%TO.N,Net-(J5-Pin_4)*%
X142100000Y-98800000D03*
%TO.N,Net-(U1-LED2)*%
X178700000Y-91400000D03*
X190900000Y-62200000D03*
%TO.N,IMU_USB_D-*%
X170000000Y-97980000D03*
X151599980Y-81800000D03*
%TO.N,MOTORS_USB_D-*%
X112738239Y-70711767D03*
X136550521Y-85499479D03*
%TO.N,S.A.L-D+*%
X149750000Y-90050000D03*
X162550000Y-94150000D03*
%TO.N,S.A.R-D+*%
X154550000Y-91000000D03*
X120750521Y-91399479D03*
%TO.N,MOTORS_USB_D+*%
X114100000Y-71224999D03*
X135949479Y-86100521D03*
%TO.N,S.A.R-D-*%
X155800000Y-92000000D03*
X120149479Y-92000521D03*
%TO.N,IMU_USB_D+*%
X170000000Y-98830000D03*
X152825174Y-83876216D03*
%TO.N,Net-(U3-TXD)*%
X102250000Y-72000000D03*
X105750000Y-72000000D03*
%TO.N,5V*%
X143250000Y-88400000D03*
X148900000Y-94050000D03*
X130850000Y-68627207D03*
%TD*%
D37*
%TO.N,Net-(D10-K)*%
X112600000Y-86100000D02*
X112600000Y-87250000D01*
X111550000Y-85050000D02*
X112600000Y-86100000D01*
X101025000Y-85050000D02*
X111550000Y-85050000D01*
X100250000Y-84275000D02*
X101025000Y-85050000D01*
%TO.N,5V*%
X126075000Y-67550000D02*
X125000000Y-66475000D01*
X129772793Y-67550000D02*
X126075000Y-67550000D01*
X130850000Y-68627207D02*
X129772793Y-67550000D01*
D38*
X130850000Y-65950000D02*
X130850000Y-68627207D01*
D37*
%TO.N,GNDREF*%
X183350000Y-102175000D02*
X183350000Y-101025000D01*
X106875000Y-77775000D02*
X106850000Y-77750000D01*
X179950000Y-94475000D02*
X179950000Y-93300000D01*
X147375000Y-63973527D02*
X147325000Y-64023527D01*
X113250000Y-94450000D02*
X113250000Y-93100000D01*
X118200000Y-80000000D02*
X117225000Y-80000000D01*
X132925000Y-85800000D02*
X133325000Y-85800000D01*
X128575000Y-74400000D02*
X128575000Y-75775000D01*
X105275000Y-63750000D02*
X106500000Y-63750000D01*
X133775000Y-72925000D02*
X133725000Y-72875000D01*
X188662500Y-98862500D02*
X188675000Y-98875000D01*
X120655000Y-68255000D02*
X120655000Y-69800000D01*
X179950000Y-100925000D02*
X179950000Y-102075000D01*
X169000000Y-102787500D02*
X169000000Y-102325000D01*
X183350000Y-101025000D02*
X183400000Y-100975000D01*
X144075000Y-66150000D02*
X144075000Y-67325000D01*
X117250000Y-83775000D02*
X117225000Y-83750000D01*
X102500000Y-68200000D02*
X103125000Y-68825000D01*
X99287500Y-57637500D02*
X99100000Y-57825000D01*
X148000000Y-79775000D02*
X147975000Y-79750000D01*
X113900000Y-85925000D02*
X113825000Y-85850000D01*
X125000000Y-63525000D02*
X125000000Y-62000000D01*
X129225000Y-75575000D02*
X128800000Y-76000000D01*
X113900000Y-87250000D02*
X113900000Y-85925000D01*
X105750000Y-67500000D02*
X105750000Y-68575000D01*
X131175000Y-81600000D02*
X131175000Y-80000000D01*
X132150000Y-88800000D02*
X132200000Y-88750000D01*
X146225000Y-62400000D02*
X146225000Y-61125000D01*
X106950000Y-80750000D02*
X105975000Y-80750000D01*
X147325000Y-64023527D02*
X147325000Y-66150000D01*
X103150000Y-67500000D02*
X103150000Y-68800000D01*
X118225000Y-83775000D02*
X117250000Y-83775000D01*
X131825000Y-75702209D02*
X131875000Y-75752209D01*
X105750000Y-68575000D02*
X105150000Y-69175000D01*
X115850000Y-86000000D02*
X115725000Y-85875000D01*
X132200000Y-88750000D02*
X133175000Y-88750000D01*
X164025000Y-89050000D02*
X165325000Y-89050000D01*
X111300000Y-86175000D02*
X111025000Y-85900000D01*
X105150000Y-69175000D02*
X104675000Y-69175000D01*
X179950000Y-93300000D02*
X179925000Y-93275000D01*
X184725000Y-94425000D02*
X183300000Y-94425000D01*
X171250000Y-91800000D02*
X171822500Y-92372500D01*
X179950000Y-102075000D02*
X179900000Y-102125000D01*
X102500000Y-67500000D02*
X102500000Y-68200000D01*
X149275000Y-66150000D02*
X149275000Y-64650000D01*
X99287500Y-56250000D02*
X99287500Y-57637500D01*
X110650000Y-86275000D02*
X111025000Y-85900000D01*
X188662500Y-97450000D02*
X188662500Y-98862500D01*
X144075000Y-67325000D02*
X144350000Y-67600000D01*
X167787500Y-104000000D02*
X169000000Y-102787500D01*
X111300000Y-87250000D02*
X111300000Y-86175000D01*
X163500000Y-98575000D02*
X163500000Y-98550000D01*
X137475000Y-71250000D02*
X137475000Y-72700000D01*
X192925000Y-68062500D02*
X192900000Y-68087500D01*
X106850000Y-77750000D02*
X105975000Y-77750000D01*
X135750000Y-63000000D02*
X135750000Y-61750000D01*
X166875000Y-98575000D02*
X166875000Y-98750000D01*
X106500000Y-63750000D02*
X106525000Y-63775000D01*
X146675000Y-73350000D02*
X146675000Y-71875000D01*
X184800000Y-94350000D02*
X184725000Y-94425000D01*
X129225000Y-74400000D02*
X129225000Y-75575000D01*
X133775000Y-74400000D02*
X133775000Y-72925000D01*
X115850000Y-87250000D02*
X115850000Y-86000000D01*
X105100000Y-74700000D02*
X105100000Y-75725000D01*
X131175000Y-80000000D02*
X131475000Y-79700000D01*
X113775000Y-66500000D02*
X113850000Y-66500000D01*
X149275000Y-64650000D02*
X149125000Y-64500000D01*
X144725000Y-67225000D02*
X144350000Y-67600000D01*
X149025000Y-79775000D02*
X148000000Y-79775000D01*
X171175000Y-91800000D02*
X171250000Y-91800000D01*
X144725000Y-66150000D02*
X144725000Y-67225000D01*
X163975000Y-85250000D02*
X165025000Y-85250000D01*
X131825000Y-74400000D02*
X131825000Y-75702209D01*
X105100000Y-75725000D02*
X105525000Y-76150000D01*
X128575000Y-75775000D02*
X128800000Y-76000000D01*
X110650000Y-87250000D02*
X110650000Y-86275000D01*
X166875000Y-98750000D02*
X166900000Y-98775000D01*
X149050000Y-76250000D02*
X149075000Y-76275000D01*
X192925000Y-66625000D02*
X192925000Y-68062500D01*
X183100000Y-78675000D02*
X183125000Y-78700000D01*
X113850000Y-66500000D02*
X113875000Y-66475000D01*
X132175000Y-85050000D02*
X132925000Y-85800000D01*
X163975000Y-89000000D02*
X164025000Y-89050000D01*
X113250000Y-93100000D02*
X113425000Y-92925000D01*
X179750000Y-78675000D02*
X179775000Y-78700000D01*
X107700000Y-67500000D02*
X107700000Y-68775000D01*
X121300000Y-83525000D02*
X121300000Y-82550000D01*
X113775000Y-62750000D02*
X113775000Y-63075000D01*
X120650000Y-68250000D02*
X120655000Y-68255000D01*
X128550000Y-65950000D02*
X128525000Y-65925000D01*
X147975000Y-76250000D02*
X149050000Y-76250000D01*
X103150000Y-68800000D02*
X103125000Y-68825000D01*
%TO.N,Net-(U1-XOUT)*%
X170100000Y-87350000D02*
X170100000Y-92085000D01*
X170100000Y-92085000D02*
X171022500Y-93007500D01*
X174025000Y-87350000D02*
X179750000Y-81625000D01*
X170100000Y-87350000D02*
X174025000Y-87350000D01*
X171022500Y-93007500D02*
X171822500Y-93007500D01*
%TO.N,Net-(U1-XIN)*%
X179600000Y-87350000D02*
X179600000Y-85125000D01*
X173307500Y-93642500D02*
X171822500Y-93642500D01*
X179600000Y-85125000D02*
X183100000Y-81625000D01*
X179600000Y-87350000D02*
X173307500Y-93642500D01*
%TO.N,USB_PWR*%
X114275000Y-80000000D02*
X114550000Y-80275000D01*
X129225000Y-81600000D02*
X129225000Y-88775000D01*
X106275000Y-84187500D02*
X108212500Y-82250000D01*
X138100000Y-70050000D02*
X142250000Y-74200000D01*
X177100000Y-97375000D02*
X177022500Y-97452500D01*
X129225000Y-80525000D02*
X129450000Y-80300000D01*
X189600000Y-100800000D02*
X188712500Y-100800000D01*
X126012500Y-100300000D02*
X126012500Y-91987500D01*
X129225000Y-81600000D02*
X129225000Y-80525000D01*
X105062500Y-93200000D02*
X111100000Y-93200000D01*
X190150000Y-97215256D02*
X190150000Y-100250000D01*
X116845000Y-62870000D02*
X116725000Y-62750000D01*
X121181250Y-56381250D02*
X122600000Y-57800000D01*
X133965256Y-70050000D02*
X138100000Y-70050000D01*
X105250000Y-70300000D02*
X111300000Y-70300000D01*
X121037500Y-56250000D02*
X114000000Y-56250000D01*
X116620001Y-70024999D02*
X116845000Y-69800000D01*
X129225000Y-88775000D02*
X129200000Y-88800000D01*
X161550000Y-90800000D02*
X161025000Y-90275000D01*
X114787500Y-56250000D02*
X114000000Y-56250000D01*
X132475000Y-73350000D02*
X128475000Y-69350000D01*
X126012500Y-91987500D02*
X129200000Y-88800000D01*
X117075000Y-71075000D02*
X116845000Y-70845000D01*
X145900000Y-80350000D02*
X144725000Y-79175000D01*
X103150000Y-80625000D02*
X103025000Y-80750000D01*
X116725000Y-69680000D02*
X116845000Y-69800000D01*
X190150000Y-100250000D02*
X189600000Y-100800000D01*
X151825000Y-56712500D02*
X151825000Y-59112500D01*
X123537500Y-53750000D02*
X121037500Y-56250000D01*
X111100000Y-93200000D02*
X111300000Y-93400000D01*
X103150000Y-74700000D02*
X103150000Y-80625000D01*
X184400000Y-96275000D02*
X189209744Y-96275000D01*
X161025000Y-90275000D02*
X161025000Y-89000000D01*
X144150000Y-76250000D02*
X145025000Y-76250000D01*
X106400000Y-68550000D02*
X106400000Y-67500000D01*
X115700000Y-70024999D02*
X116620001Y-70024999D01*
X116845000Y-70845000D02*
X116845000Y-69800000D01*
X144725000Y-79175000D02*
X144725000Y-73350000D01*
X104525000Y-82250000D02*
X108212500Y-82250000D01*
X104250000Y-84187500D02*
X106275000Y-84187500D01*
X122600000Y-69470552D02*
X120995552Y-71075000D01*
X132475000Y-74400000D02*
X132475000Y-73350000D01*
X126012500Y-100300000D02*
X132837500Y-100300000D01*
X104500000Y-93762500D02*
X105062500Y-93200000D01*
X103150000Y-74700000D02*
X103150000Y-71800000D01*
X183300000Y-97375000D02*
X184400000Y-96275000D01*
X111300000Y-93400000D02*
X111300000Y-94450000D01*
X161015000Y-78300000D02*
X161015000Y-88990000D01*
X116725000Y-62750000D02*
X116725000Y-69680000D01*
X178647502Y-97375000D02*
X178122502Y-96850000D01*
X113812500Y-80462500D02*
X114275000Y-80000000D01*
X122600000Y-68850000D02*
X122600000Y-69470552D01*
X123100000Y-69350000D02*
X122600000Y-68850000D01*
X114550000Y-87250000D02*
X114550000Y-90150000D01*
X110000000Y-80462500D02*
X113812500Y-80462500D01*
X153000000Y-55537500D02*
X151825000Y-56712500D01*
X178650000Y-97375000D02*
X177100000Y-97375000D01*
X114550000Y-90150000D02*
X111300000Y-93400000D01*
X129665685Y-80300000D02*
X132475000Y-77490685D01*
X103150000Y-71800000D02*
X104950000Y-70000000D01*
X121037500Y-56250000D02*
X121168750Y-56381250D01*
X121168750Y-56381250D02*
X121255000Y-56467500D01*
X147975000Y-57775000D02*
X150212500Y-55537500D01*
X142250000Y-74350000D02*
X144150000Y-76250000D01*
X147975000Y-57775000D02*
X147975000Y-66150000D01*
X161015000Y-88990000D02*
X161025000Y-89000000D01*
X103025000Y-80750000D02*
X104525000Y-82250000D01*
X128475000Y-69350000D02*
X123100000Y-69350000D01*
X150212500Y-55537500D02*
X153000000Y-55537500D01*
X151825000Y-59112500D02*
X153750000Y-61037500D01*
X104950000Y-70000000D02*
X106400000Y-68550000D01*
X104950000Y-70000000D02*
X105250000Y-70300000D01*
X114000000Y-56250000D02*
X107212500Y-56250000D01*
X132475000Y-77490685D02*
X132475000Y-74400000D01*
X144725000Y-72475000D02*
X143850000Y-71600000D01*
X114550000Y-80275000D02*
X114550000Y-87250000D01*
X189209744Y-96275000D02*
X190150000Y-97215256D01*
X132475000Y-74400000D02*
X132475000Y-71540256D01*
X183300000Y-97375000D02*
X178650000Y-97375000D01*
X132475000Y-71540256D02*
X133965256Y-70050000D01*
X144725000Y-73350000D02*
X144725000Y-72475000D01*
X142250000Y-74200000D02*
X142250000Y-74350000D01*
X178650000Y-97375000D02*
X178647502Y-97375000D01*
X108212500Y-82250000D02*
X110000000Y-80462500D01*
X129450000Y-80300000D02*
X129665685Y-80300000D01*
X122600000Y-57800000D02*
X122600000Y-68850000D01*
X120995552Y-71075000D02*
X117075000Y-71075000D01*
X121168750Y-56381250D02*
X121181250Y-56381250D01*
X117287500Y-53750000D02*
X114787500Y-56250000D01*
%TO.N,Net-(U1-VD18)*%
X172587500Y-99357500D02*
X174800000Y-97145000D01*
X171687500Y-99492500D02*
X171822500Y-99357500D01*
X174800000Y-93350000D02*
X175777500Y-92372500D01*
X163500000Y-101525000D02*
X166875000Y-101525000D01*
X175777500Y-92372500D02*
X177022500Y-92372500D01*
X168907500Y-99492500D02*
X171687500Y-99492500D01*
X174800000Y-97145000D02*
X174800000Y-93350000D01*
X171822500Y-99357500D02*
X172587500Y-99357500D01*
X166875000Y-101525000D02*
X168907500Y-99492500D01*
%TO.N,3v3*%
X179900000Y-99175000D02*
X179717500Y-99357500D01*
X177022500Y-99357500D02*
X175050000Y-99357500D01*
X176320000Y-98087500D02*
X177022500Y-98087500D01*
X177022500Y-93642500D02*
X176222500Y-93642500D01*
X172518186Y-99992500D02*
X171822500Y-99992500D01*
X179717500Y-99357500D02*
X177022500Y-99357500D01*
X175050000Y-99357500D02*
X173153186Y-99357500D01*
X175050000Y-99357500D02*
X175153750Y-99253750D01*
X176222500Y-93642500D02*
X175237500Y-94627500D01*
X175237500Y-97837500D02*
X175153750Y-97921250D01*
X176257500Y-96817500D02*
X177022500Y-96817500D01*
X175237500Y-94627500D02*
X175237500Y-97837500D01*
X175153750Y-99253750D02*
X176320000Y-98087500D01*
X175153750Y-97921250D02*
X176257500Y-96817500D01*
X179950000Y-99225000D02*
X179900000Y-99175000D01*
X183350000Y-99225000D02*
X179950000Y-99225000D01*
X175153750Y-99253750D02*
X175153750Y-97921250D01*
X173153186Y-99357500D02*
X172518186Y-99992500D01*
%TO.N,Net-(U2-3V3OUT)*%
X149175000Y-62400000D02*
X149925000Y-63150000D01*
X149925000Y-63150000D02*
X149925000Y-66150000D01*
%TO.N,Net-(U3-3V3OUT)*%
X108225000Y-63750000D02*
X108225000Y-67375000D01*
X108225000Y-67375000D02*
X108350000Y-67500000D01*
%TO.N,Net-(U5-3V3OUT)*%
X134525000Y-74300000D02*
X134425000Y-74400000D01*
X134525000Y-71250000D02*
X134525000Y-74300000D01*
%TO.N,Net-(U6-3V3OUT)*%
X120725000Y-85900000D02*
X116925000Y-85900000D01*
X116925000Y-85900000D02*
X116500000Y-86325000D01*
X121300000Y-86475000D02*
X120725000Y-85900000D01*
X116500000Y-86200000D02*
X116500000Y-87250000D01*
X116500000Y-86325000D02*
X116500000Y-87250000D01*
%TO.N,Net-(D1-K)*%
X196825000Y-71012500D02*
X196850000Y-70987500D01*
X192900000Y-71012500D02*
X196825000Y-71012500D01*
%TO.N,Net-(D1-A)*%
X196200000Y-73750000D02*
X198300000Y-71650000D01*
X177822500Y-96182500D02*
X178750000Y-95255000D01*
X196850000Y-68012500D02*
X198700000Y-66162500D01*
X198700000Y-57062500D02*
X197100000Y-55462500D01*
X198300000Y-69462500D02*
X196850000Y-68012500D01*
X187100000Y-79159504D02*
X192509504Y-73750000D01*
X178750000Y-95255000D02*
X178750000Y-93394314D01*
X198700000Y-63362500D02*
X198700000Y-57062500D01*
X177022500Y-96182500D02*
X177822500Y-96182500D01*
X198700000Y-63362500D02*
X197000000Y-61662500D01*
X198700000Y-66162500D02*
X198700000Y-63362500D01*
X198300000Y-71650000D02*
X198300000Y-69462500D01*
X187100000Y-85044314D02*
X187100000Y-79159504D01*
X178750000Y-93394314D02*
X187100000Y-85044314D01*
X192509504Y-73750000D02*
X196200000Y-73750000D01*
%TO.N,Net-(D2-K)*%
X196975000Y-64612500D02*
X197000000Y-64637500D01*
X192950000Y-64612500D02*
X196975000Y-64612500D01*
%TO.N,Net-(D3-K)*%
X197075000Y-58462500D02*
X197100000Y-58437500D01*
X193000000Y-58462500D02*
X197075000Y-58462500D01*
%TO.N,Net-(D4-A)*%
X156975000Y-58462500D02*
X157500000Y-58987500D01*
X153000000Y-58462500D02*
X156975000Y-58462500D01*
%TO.N,Net-(D4-K)*%
X146375000Y-64125000D02*
X146025000Y-64475000D01*
X157500000Y-56012500D02*
X157500000Y-55500000D01*
X146025000Y-64475000D02*
X146025000Y-66150000D01*
X157500000Y-55500000D02*
X156250000Y-54250000D01*
%TO.N,Net-(D5-K)*%
X155909744Y-68450000D02*
X158750000Y-65609744D01*
X149425000Y-67325000D02*
X150600000Y-68500000D01*
X154650000Y-68450000D02*
X155909744Y-68450000D01*
X157500000Y-62012500D02*
X158750000Y-63262500D01*
X146775000Y-67325000D02*
X149425000Y-67325000D01*
X146775000Y-67325000D02*
X146675000Y-67225000D01*
X146675000Y-67225000D02*
X146675000Y-66150000D01*
X158750000Y-63262500D02*
X158750000Y-65609744D01*
%TO.N,Net-(D5-A)*%
X153000000Y-63962500D02*
X156475000Y-63962500D01*
X156475000Y-63962500D02*
X157500000Y-64987500D01*
%TO.N,Net-(D6-K)*%
X104450000Y-66425000D02*
X104450000Y-67500000D01*
X114500000Y-52512500D02*
X114500000Y-55500000D01*
X104250000Y-62000000D02*
X104250000Y-66225000D01*
X117262500Y-49750000D02*
X114500000Y-52512500D01*
X104250000Y-66225000D02*
X104450000Y-66425000D01*
%TO.N,Net-(D6-A)*%
X120237500Y-49750000D02*
X120237500Y-53725000D01*
X120237500Y-53725000D02*
X120212500Y-53750000D01*
%TO.N,Net-(D7-K)*%
X123512500Y-49750000D02*
X122675000Y-50587500D01*
X122675000Y-52575000D02*
X121750000Y-53500000D01*
X105775000Y-65750000D02*
X105100000Y-66425000D01*
X106250000Y-65750000D02*
X105775000Y-65750000D01*
X105100000Y-66425000D02*
X105100000Y-67500000D01*
X122675000Y-50587500D02*
X122675000Y-52575000D01*
%TO.N,Net-(D7-A)*%
X126487500Y-49750000D02*
X126487500Y-53725000D01*
X126487500Y-53725000D02*
X126462500Y-53750000D01*
%TO.N,Net-(D8-K)*%
X130525000Y-76650000D02*
X130525000Y-74400000D01*
X122225000Y-90775000D02*
X125350000Y-87650000D01*
X122225000Y-102975000D02*
X122225000Y-90775000D01*
X125350000Y-81825000D02*
X130525000Y-76650000D01*
X125350000Y-87650000D02*
X125350000Y-81825000D01*
X123050000Y-103800000D02*
X122225000Y-102975000D01*
%TO.N,Net-(D8-A)*%
X126025000Y-103237500D02*
X126025000Y-103800000D01*
X123087500Y-100300000D02*
X126025000Y-103237500D01*
%TO.N,Net-(D9-K)*%
X131200000Y-77850000D02*
X131175000Y-77825000D01*
X131175000Y-77825000D02*
X131175000Y-74400000D01*
X129400000Y-79900000D02*
X128250000Y-79900000D01*
X131200000Y-78200000D02*
X131200000Y-78100000D01*
X126440256Y-102450000D02*
X130650000Y-102450000D01*
X131200000Y-78100000D02*
X131200000Y-77850000D01*
X132000000Y-103800000D02*
X130650000Y-102450000D01*
X132812500Y-103800000D02*
X132000000Y-103800000D01*
X124500000Y-100509744D02*
X126440256Y-102450000D01*
X125600000Y-90800000D02*
X124500000Y-91900000D01*
X124500000Y-91900000D02*
X124500000Y-100509744D01*
X131200000Y-78100000D02*
X129400000Y-79900000D01*
%TO.N,Net-(D9-A)*%
X135762500Y-103775000D02*
X135787500Y-103800000D01*
X135762500Y-100300000D02*
X135762500Y-103775000D01*
%TO.N,Net-(D10-A)*%
X104112500Y-87250000D02*
X104250000Y-87112500D01*
X100250000Y-87250000D02*
X104112500Y-87250000D01*
%TO.N,Net-(D11-A)*%
X104425000Y-96762500D02*
X104500000Y-96687500D01*
X100250000Y-96762500D02*
X104425000Y-96762500D01*
%TO.N,Net-(D11-K)*%
X102887500Y-91150000D02*
X111500000Y-91150000D01*
X111500000Y-91150000D02*
X113250000Y-89400000D01*
X100250000Y-93787500D02*
X102887500Y-91150000D01*
X113250000Y-89400000D02*
X113250000Y-87250000D01*
%TO.N,Net-(J1-Pin_1)*%
X174705000Y-81920000D02*
X174485000Y-81700000D01*
%TO.N,USB_D+*%
X181675001Y-92850001D02*
X181675001Y-91671396D01*
X184405287Y-89609477D02*
X184240807Y-89444997D01*
X183816545Y-89869263D02*
X183981024Y-90033742D01*
X181675001Y-91671396D02*
X182628605Y-90717792D01*
X178565180Y-100499479D02*
X178848023Y-100499479D01*
X181875000Y-93050000D02*
X181675001Y-92850001D01*
X177422500Y-99992500D02*
X177515000Y-100085000D01*
X177515000Y-100085000D02*
X178150701Y-100085000D01*
X183392279Y-89954114D02*
X183477133Y-89869263D01*
X184748199Y-88598198D02*
X186346397Y-87000000D01*
X183556767Y-90458014D02*
X183392279Y-90293526D01*
X183477133Y-89869263D02*
X183477134Y-89869263D01*
X184325662Y-89020734D02*
X184748199Y-88598198D01*
X184240807Y-89105586D02*
X184325662Y-89020734D01*
X178150701Y-100085000D02*
X178565180Y-100499479D01*
X184320435Y-90033742D02*
X184405287Y-89948889D01*
X183471915Y-90882279D02*
X183556767Y-90797426D01*
X186346397Y-87000000D02*
X188250000Y-87000000D01*
X177022500Y-99992500D02*
X177422500Y-99992500D01*
X182968016Y-90717792D02*
X183132503Y-90882279D01*
X183392279Y-90293526D02*
G75*
G02*
X183392259Y-89954094I169721J169726D01*
G01*
X183477134Y-89869263D02*
G75*
G02*
X183816545Y-89869263I169705J-169707D01*
G01*
X183132503Y-90882279D02*
G75*
G03*
X183471915Y-90882279I169706J169704D01*
G01*
X183981024Y-90033742D02*
G75*
G03*
X184320435Y-90033743I169706J169707D01*
G01*
X183556767Y-90797426D02*
G75*
G03*
X183556787Y-90457994I-169667J169726D01*
G01*
X184405287Y-89948889D02*
G75*
G03*
X184405270Y-89609494I-169687J169689D01*
G01*
X184240807Y-89444997D02*
G75*
G02*
X184240815Y-89105595I169693J169697D01*
G01*
X182628605Y-90717792D02*
G75*
G02*
X182968016Y-90717791I169706J-169707D01*
G01*
%TO.N,USB_D-*%
X177515000Y-100535000D02*
X177964303Y-100535000D01*
X177422500Y-100627500D02*
X177515000Y-100535000D01*
X177022500Y-100627500D02*
X177422500Y-100627500D01*
X181224999Y-92850001D02*
X181025000Y-93050000D01*
X177964303Y-100535000D02*
X178246981Y-100817678D01*
X178246981Y-100817678D02*
X178246981Y-101100521D01*
X181224999Y-91485001D02*
X181224999Y-92850001D01*
X188250000Y-84460000D02*
X181224999Y-91485001D01*
%TO.N,Net-(J2-Pin_4)*%
X152750000Y-52750000D02*
X152790000Y-52710000D01*
X142250000Y-58500000D02*
X143250000Y-57500000D01*
X152790000Y-52710000D02*
X152790000Y-51500000D01*
X142250000Y-69150000D02*
X142250000Y-58500000D01*
X145375000Y-72275000D02*
X142250000Y-69150000D01*
X152750000Y-53500000D02*
X152750000Y-52750000D01*
X145375000Y-73350000D02*
X145375000Y-72275000D01*
%TO.N,Net-(J2-Pin_3)*%
X142650000Y-50350000D02*
X149100000Y-50350000D01*
X140750000Y-52250000D02*
X142650000Y-50350000D01*
X149100000Y-50350000D02*
X150250000Y-51500000D01*
X142775000Y-73350000D02*
X140750000Y-71325000D01*
X140750000Y-71325000D02*
X140750000Y-52250000D01*
D38*
%TO.N,Net-(J4-VDD)*%
X133150000Y-63100000D02*
X132700000Y-62650000D01*
X135225000Y-65950000D02*
X135275000Y-66000000D01*
X133150000Y-65950000D02*
X133150000Y-63100000D01*
X133150000Y-65950000D02*
X135225000Y-65950000D01*
D37*
%TO.N,Net-(J5-Pin_3)*%
X127275000Y-90159314D02*
X125100000Y-92334314D01*
X147850000Y-105475000D02*
X177775000Y-105475000D01*
X127275000Y-81600000D02*
X127275000Y-90159314D01*
X177775000Y-105475000D02*
X178750000Y-104500000D01*
X125100000Y-92334314D02*
X125100000Y-93250000D01*
X139100000Y-96725000D02*
X147850000Y-105475000D01*
%TO.N,Net-(J5-Pin_4)*%
X129875000Y-82625000D02*
X129875000Y-81600000D01*
X131659744Y-82775000D02*
X130025000Y-82775000D01*
X130025000Y-82775000D02*
X129875000Y-82625000D01*
X142100000Y-93215256D02*
X131659744Y-82775000D01*
X142100000Y-98800000D02*
X142100000Y-93215256D01*
%TO.N,Net-(J6-Pin_3)*%
X107871141Y-105500000D02*
X109250000Y-105500000D01*
X107275000Y-96525000D02*
X107275000Y-104903859D01*
X109250000Y-105500000D02*
X110250000Y-104500000D01*
X109350000Y-94450000D02*
X107275000Y-96525000D01*
X107275000Y-104903859D02*
X107871141Y-105500000D01*
%TO.N,Net-(J6-Pin_4)*%
X111950000Y-100800000D02*
X108250000Y-104500000D01*
X111950000Y-94450000D02*
X111950000Y-100800000D01*
%TO.N,Net-(U1-REXT)*%
X170712500Y-104000000D02*
X170712500Y-101737500D01*
X170712500Y-101737500D02*
X171822500Y-100627500D01*
%TO.N,Net-(U1-LED1{slash}EESCL)*%
X177787500Y-95547500D02*
X178350000Y-94985000D01*
X186700000Y-61837500D02*
X193000000Y-55537500D01*
X177022500Y-95547500D02*
X177787500Y-95547500D01*
X186700000Y-84550000D02*
X186700000Y-61837500D01*
X178350000Y-94985000D02*
X178350000Y-92900000D01*
X178350000Y-92900000D02*
X186700000Y-84550000D01*
%TO.N,Net-(U1-LED2)*%
X177022500Y-94912500D02*
X177822500Y-94912500D01*
X190900000Y-62200000D02*
X191412500Y-61687500D01*
X177950000Y-92150000D02*
X178700000Y-91400000D01*
X191412500Y-61687500D02*
X192950000Y-61687500D01*
X177950000Y-94785000D02*
X177950000Y-92150000D01*
X177822500Y-94912500D02*
X177950000Y-94785000D01*
%TO.N,Net-(U1-VBUSM)*%
X184887500Y-98300000D02*
X178210000Y-98300000D01*
X177787500Y-98722500D02*
X177022500Y-98722500D01*
X185737500Y-97450000D02*
X184887500Y-98300000D01*
X185787500Y-100800000D02*
X185787500Y-99200000D01*
X178210000Y-98300000D02*
X177787500Y-98722500D01*
X185787500Y-99200000D02*
X184887500Y-98300000D01*
%TO.N,Net-(U3-CBUS3)*%
X118115000Y-75724999D02*
X116302499Y-77537500D01*
X110000000Y-77537500D02*
X110000000Y-75050000D01*
X110000000Y-75050000D02*
X109650000Y-74700000D01*
X118115000Y-74750000D02*
X118115000Y-75724999D01*
X116302499Y-77537500D02*
X110000000Y-77537500D01*
%TO.N,IMU_USB_D-*%
X151750000Y-78447238D02*
X151750000Y-78102412D01*
X171822500Y-98087500D02*
X171730001Y-98179999D01*
X151599980Y-81800000D02*
X151750000Y-81649980D01*
X150575000Y-67378187D02*
X150575000Y-66150000D01*
X151750000Y-75959887D02*
X151750000Y-68553187D01*
X151750000Y-81649980D02*
X151750000Y-79302412D01*
X171730001Y-98179999D02*
X170199999Y-98179999D01*
X151494826Y-79047238D02*
X151494826Y-78702412D01*
X151750000Y-78102412D02*
X151750000Y-75959887D01*
X170199999Y-98179999D02*
X170000000Y-97980000D01*
X151750000Y-68553187D02*
X150575000Y-67378187D01*
X151494826Y-78702412D02*
G75*
G02*
X151622413Y-78574826I127574J12D01*
G01*
X151622413Y-79174825D02*
G75*
G02*
X151494775Y-79047238I-13J127625D01*
G01*
X151622413Y-78574825D02*
G75*
G03*
X151750025Y-78447238I-13J127625D01*
G01*
X151750000Y-79302412D02*
G75*
G03*
X151622413Y-79174800I-127600J12D01*
G01*
%TO.N,MOTORS_USB_D-*%
X109000000Y-68550000D02*
X109000000Y-67500000D01*
X109125000Y-68675000D02*
X109000000Y-68550000D01*
X171822500Y-96817500D02*
X170922499Y-96817500D01*
X110984315Y-68675000D02*
X109125000Y-68675000D01*
X112738239Y-70711767D02*
X112738239Y-70428924D01*
X170922499Y-96817500D02*
X170829999Y-96910000D01*
X170829999Y-96910000D02*
X147678199Y-96910000D01*
X147678199Y-96910000D02*
X136550521Y-85782322D01*
X136550521Y-85782322D02*
X136550521Y-85499479D01*
X112738239Y-70428924D02*
X110984315Y-68675000D01*
%TO.N,S.A.L-D+*%
X135725000Y-75712501D02*
X135625000Y-75812501D01*
X162550000Y-94150000D02*
X164582500Y-96182500D01*
X135625000Y-75812501D02*
X135625000Y-76256800D01*
X135725000Y-74400000D02*
X135725000Y-75712501D01*
X164582500Y-96182500D02*
X171822500Y-96182500D01*
X148959100Y-89590900D02*
X149418200Y-90050000D01*
X135625000Y-76256800D02*
X148959100Y-89590900D01*
X149418200Y-90050000D02*
X149750000Y-90050000D01*
%TO.N,S.A.L-D-*%
X142394801Y-84868948D02*
X142479653Y-84953800D01*
X142658364Y-84265975D02*
X142394801Y-84529537D01*
X135175000Y-76443200D02*
X141809836Y-83078036D01*
X141809836Y-83417447D02*
X141546325Y-83680957D01*
X135075000Y-74400000D02*
X135075000Y-75712501D01*
X142573510Y-83841709D02*
X142658364Y-83926564D01*
X162798529Y-93550000D02*
X163150000Y-93901471D01*
X163150000Y-94184314D02*
X164513186Y-95547500D01*
X135075000Y-75712501D02*
X135175000Y-75812501D01*
X152331800Y-93600000D02*
X154000000Y-93600000D01*
X164513186Y-95547500D02*
X171822500Y-95547500D01*
X141970589Y-84105220D02*
X142234099Y-83841709D01*
X150081227Y-91349427D02*
X152331800Y-93600000D01*
X143422038Y-84690237D02*
X143506892Y-84775092D01*
X142819065Y-84953800D02*
X143082627Y-84690237D01*
X154050000Y-93550000D02*
X162798529Y-93550000D01*
X141546325Y-84020368D02*
X141631177Y-84105220D01*
X154000000Y-93600000D02*
X154050000Y-93550000D01*
X143506892Y-84775092D02*
X150081227Y-91349427D01*
X163150000Y-93901471D02*
X163150000Y-94184314D01*
X135175000Y-75812501D02*
X135175000Y-76443200D01*
X143082627Y-84690237D02*
G75*
G02*
X143422038Y-84690236I169706J-169707D01*
G01*
X142479653Y-84953800D02*
G75*
G03*
X142819065Y-84953800I169706J169704D01*
G01*
X141809836Y-83078036D02*
G75*
G02*
X141809795Y-83417406I-169736J-169664D01*
G01*
X141631177Y-84105220D02*
G75*
G03*
X141970589Y-84105220I169706J169704D01*
G01*
X142658364Y-83926564D02*
G75*
G02*
X142658395Y-84266006I-169664J-169736D01*
G01*
X142394801Y-84529537D02*
G75*
G03*
X142394843Y-84868905I169699J-169663D01*
G01*
X142234099Y-83841709D02*
G75*
G02*
X142573510Y-83841708I169706J-169707D01*
G01*
X141546325Y-83680957D02*
G75*
G03*
X141546287Y-84020406I169675J-169743D01*
G01*
%TO.N,S.A.R-D+*%
X171822500Y-94912500D02*
X164726715Y-94912500D01*
X118659100Y-89590901D02*
X120467678Y-91399479D01*
X155900000Y-93100000D02*
X154550000Y-91750000D01*
X164726715Y-94912500D02*
X162914215Y-93100000D01*
X117700000Y-88631801D02*
X118659100Y-89590901D01*
X117700000Y-88000000D02*
X117700000Y-88631801D01*
X117800000Y-87250000D02*
X117800000Y-87900000D01*
X120467678Y-91399479D02*
X120750521Y-91399479D01*
X117800000Y-87900000D02*
X117700000Y-88000000D01*
X162914215Y-93100000D02*
X155900000Y-93100000D01*
X154550000Y-91750000D02*
X154550000Y-91000000D01*
%TO.N,MOTORS_USB_D+*%
X114100000Y-71224999D02*
X110375001Y-67500000D01*
X170922499Y-97452500D02*
X170829999Y-97360000D01*
X147491801Y-97360000D02*
X136232322Y-86100521D01*
X170829999Y-97360000D02*
X147491801Y-97360000D01*
X110375001Y-67500000D02*
X109650000Y-67500000D01*
X171822500Y-97452500D02*
X170922499Y-97452500D01*
X136232322Y-86100521D02*
X135949479Y-86100521D01*
%TO.N,S.A.R-D-*%
X117150000Y-87900000D02*
X117250000Y-88000000D01*
X164657400Y-94277500D02*
X171822500Y-94277500D01*
X156500000Y-92700000D02*
X163079901Y-92700000D01*
X163079901Y-92700000D02*
X163314215Y-92934315D01*
X120149479Y-91717678D02*
X120149479Y-92000521D01*
X117250000Y-88000000D02*
X117250000Y-88818199D01*
X117150000Y-87250000D02*
X117150000Y-87900000D01*
X155800000Y-92000000D02*
X156500000Y-92700000D01*
X117250000Y-88818199D02*
X120149479Y-91717678D01*
X163314215Y-92934315D02*
X164657400Y-94277500D01*
%TO.N,IMU_USB_D+*%
X151225000Y-67462501D02*
X152199980Y-68437481D01*
X152199980Y-68437481D02*
X152199980Y-83251022D01*
X171822500Y-98722500D02*
X171730001Y-98630001D01*
X170199999Y-98630001D02*
X170000000Y-98830000D01*
X171730001Y-98630001D02*
X170199999Y-98630001D01*
X151225000Y-66150000D02*
X151225000Y-67462501D01*
X152199980Y-83251022D02*
X152825174Y-83876216D01*
%TO.N,Net-(U3-RXD)*%
X115345000Y-73250000D02*
X116845000Y-74750000D01*
X103800000Y-74700000D02*
X103800000Y-73625000D01*
X104175000Y-73250000D02*
X115345000Y-73250000D01*
X103800000Y-73625000D02*
X104175000Y-73250000D01*
%TO.N,Net-(U3-TXD)*%
X102250000Y-72000000D02*
X101200000Y-73050000D01*
X118879999Y-72000000D02*
X105750000Y-72000000D01*
X120655000Y-73775001D02*
X118879999Y-72000000D01*
X120655000Y-74750000D02*
X120655000Y-73775001D01*
X101200000Y-73050000D02*
X101200000Y-74700000D01*
%TO.N,Net-(U3-CBUS2)*%
X109140256Y-78400000D02*
X108500000Y-77759744D01*
X116709999Y-78400000D02*
X109140256Y-78400000D01*
X108500000Y-76275000D02*
X109000000Y-75775000D01*
X108500000Y-77759744D02*
X108500000Y-76275000D01*
X119385000Y-75724999D02*
X116709999Y-78400000D01*
X109000000Y-75775000D02*
X109000000Y-74700000D01*
X119385000Y-74750000D02*
X119385000Y-75724999D01*
%TO.N,NET- D+*%
X106275746Y-57572059D02*
X106395746Y-57572059D01*
X118975000Y-62603888D02*
X117471132Y-61100020D01*
X109248370Y-57250000D02*
X110250000Y-57250000D01*
X105717162Y-53718177D02*
X105717162Y-53598177D01*
X117471132Y-61100020D02*
X114100020Y-61100020D01*
X105086397Y-58487500D02*
X105795746Y-58487500D01*
X119385000Y-69800000D02*
X119385000Y-68337499D01*
X104287500Y-56250000D02*
X104287500Y-57688603D01*
X104990000Y-53958177D02*
X105477162Y-53958177D01*
X104287500Y-57688603D02*
X105086397Y-58487500D01*
X104750000Y-52588059D02*
X104750000Y-51250000D01*
X106035746Y-58247500D02*
X106035746Y-57812059D01*
X104750000Y-52998177D02*
X104750000Y-52588059D01*
X114100020Y-61100020D02*
X110250000Y-57250000D01*
X119385000Y-68337499D02*
X118975000Y-67927499D01*
X107699999Y-58487500D02*
X108937499Y-57250000D01*
X104287500Y-56250000D02*
X104287500Y-54811397D01*
X106995746Y-58487500D02*
X107699999Y-58487500D01*
X104287500Y-54811397D02*
X104750000Y-54348897D01*
X105477162Y-53358177D02*
X104990000Y-53358177D01*
X118975000Y-67927499D02*
X118975000Y-62603888D01*
X106635746Y-57812059D02*
X106635746Y-58247500D01*
X106875746Y-58487500D02*
X106995746Y-58487500D01*
X104750000Y-53118177D02*
X104750000Y-52998177D01*
X108937499Y-57250000D02*
X109248370Y-57250000D01*
X104750000Y-54348897D02*
X104750000Y-54198177D01*
X105795746Y-58487500D02*
G75*
G03*
X106035700Y-58247500I-46J240000D01*
G01*
X104750000Y-54198177D02*
G75*
G02*
X104990000Y-53958200I240000J-23D01*
G01*
X105477162Y-53958177D02*
G75*
G03*
X105717177Y-53718177I38J239977D01*
G01*
X106035746Y-57812059D02*
G75*
G02*
X106275746Y-57572146I239954J-41D01*
G01*
X104990000Y-53358177D02*
G75*
G02*
X104750023Y-53118177I0J239977D01*
G01*
X105717162Y-53598177D02*
G75*
G03*
X105477162Y-53358238I-239962J-23D01*
G01*
X106635746Y-58247500D02*
G75*
G03*
X106875746Y-58487454I239954J0D01*
G01*
X106395746Y-57572059D02*
G75*
G02*
X106635741Y-57812059I-46J-240041D01*
G01*
%TO.N,NET- D-*%
X115753689Y-61550000D02*
X117284744Y-61550000D01*
X117568549Y-63942463D02*
X117568549Y-63822463D01*
X118285000Y-64182463D02*
X117808549Y-64182463D01*
X104299999Y-53299999D02*
X102250000Y-51250000D01*
X118525000Y-63342463D02*
X118525000Y-63222463D01*
X118288808Y-64923848D02*
X118288808Y-65287656D01*
X113913603Y-61550000D02*
X115753689Y-61550000D01*
X113599538Y-61235935D02*
X113913603Y-61550000D01*
X112538603Y-60175000D02*
X113599538Y-61235935D01*
X110250000Y-60175000D02*
X108937499Y-60175000D01*
X104900000Y-58937500D02*
X102212500Y-56250000D01*
X118525000Y-63222463D02*
X118525000Y-62790256D01*
X117284744Y-61550000D02*
X118525000Y-62790256D01*
X102212500Y-56250000D02*
X104299999Y-54162501D01*
X118525000Y-65887656D02*
X118525000Y-67927499D01*
X118115000Y-68337499D02*
X118115000Y-69800000D01*
X107699999Y-58937500D02*
X104900000Y-58937500D01*
X118525000Y-65523848D02*
X118525000Y-65887656D01*
X117808549Y-63582463D02*
X118285000Y-63582463D01*
X104299999Y-54162501D02*
X104299999Y-53299999D01*
X110250000Y-60175000D02*
X112538603Y-60175000D01*
X118525000Y-64422463D02*
X118525000Y-64687656D01*
X118525000Y-67927499D02*
X118115000Y-68337499D01*
X108937499Y-60175000D02*
X107699999Y-58937500D01*
X118406904Y-65405752D02*
G75*
G02*
X118524948Y-65523848I-4J-118048D01*
G01*
X117568549Y-63822463D02*
G75*
G02*
X117808549Y-63582549I239951J-37D01*
G01*
X118525000Y-64422463D02*
G75*
G03*
X118285000Y-64182500I-240000J-37D01*
G01*
X118406904Y-64805752D02*
G75*
G03*
X118288852Y-64923848I-4J-118048D01*
G01*
X118288808Y-65287656D02*
G75*
G03*
X118406904Y-65405792I118092J-44D01*
G01*
X117808549Y-64182463D02*
G75*
G02*
X117568537Y-63942463I-49J239963D01*
G01*
X118285000Y-63582463D02*
G75*
G03*
X118524963Y-63342463I0J239963D01*
G01*
X118525000Y-64687656D02*
G75*
G02*
X118406904Y-64805800I-118100J-44D01*
G01*
D38*
%TO.N,5V*%
X143250000Y-88400000D02*
X148900000Y-94050000D01*
%TD*%
M02*
