%TF.GenerationSoftware,KiCad,Pcbnew,8.0.6*%
%TF.CreationDate,2025-05-15T16:05:44-03:00*%
%TF.ProjectId,NEW_Communication_Board,4e45575f-436f-46d6-9d75-6e6963617469,rev?*%
%TF.SameCoordinates,Original*%
%TF.FileFunction,Copper,L4,Bot*%
%TF.FilePolarity,Positive*%
%FSLAX46Y46*%
G04 Gerber Fmt 4.6, Leading zero omitted, Abs format (unit mm)*
G04 Created by KiCad (PCBNEW 8.0.6) date 2025-05-15 16:05:44*
%MOMM*%
%LPD*%
G01*
G04 APERTURE LIST*
G04 Aperture macros list*
%AMRoundRect*
0 Rectangle with rounded corners*
0 $1 Rounding radius*
0 $2 $3 $4 $5 $6 $7 $8 $9 X,Y pos of 4 corners*
0 Add a 4 corners polygon primitive as box body*
4,1,4,$2,$3,$4,$5,$6,$7,$8,$9,$2,$3,0*
0 Add four circle primitives for the rounded corners*
1,1,$1+$1,$2,$3*
1,1,$1+$1,$4,$5*
1,1,$1+$1,$6,$7*
1,1,$1+$1,$8,$9*
0 Add four rect primitives between the rounded corners*
20,1,$1+$1,$2,$3,$4,$5,0*
20,1,$1+$1,$4,$5,$6,$7,0*
20,1,$1+$1,$6,$7,$8,$9,0*
20,1,$1+$1,$8,$9,$2,$3,0*%
G04 Aperture macros list end*
%TA.AperFunction,ComponentPad*%
%ADD10R,1.350000X1.350000*%
%TD*%
%TA.AperFunction,ComponentPad*%
%ADD11O,1.350000X1.350000*%
%TD*%
%TA.AperFunction,ComponentPad*%
%ADD12R,1.700000X1.700000*%
%TD*%
%TA.AperFunction,ComponentPad*%
%ADD13O,1.700000X1.700000*%
%TD*%
%TA.AperFunction,ComponentPad*%
%ADD14C,6.000000*%
%TD*%
%TA.AperFunction,ComponentPad*%
%ADD15RoundRect,0.250000X0.600000X0.725000X-0.600000X0.725000X-0.600000X-0.725000X0.600000X-0.725000X0*%
%TD*%
%TA.AperFunction,ComponentPad*%
%ADD16O,1.700000X1.950000*%
%TD*%
%TA.AperFunction,ComponentPad*%
%ADD17C,2.400000*%
%TD*%
%TA.AperFunction,ViaPad*%
%ADD18C,0.600000*%
%TD*%
%TA.AperFunction,Conductor*%
%ADD19C,0.200000*%
%TD*%
%TA.AperFunction,Conductor*%
%ADD20C,0.800000*%
%TD*%
G04 APERTURE END LIST*
D10*
%TO.P,J5,1,Pin_1*%
%TO.N,GNDREF*%
X182750000Y-104500000D03*
D11*
%TO.P,J5,2,Pin_2*%
%TO.N,5V*%
X180750000Y-104500000D03*
%TO.P,J5,3,Pin_3*%
%TO.N,Net-(J5-Pin_3)*%
X178750000Y-104500000D03*
%TO.P,J5,4,Pin_4*%
%TO.N,Net-(J5-Pin_4)*%
X176750000Y-104500000D03*
%TD*%
D10*
%TO.P,J6,1,Pin_1*%
%TO.N,GNDREF*%
X114250000Y-104500000D03*
D11*
%TO.P,J6,2,Pin_2*%
%TO.N,5V*%
X112250000Y-104500000D03*
%TO.P,J6,3,Pin_3*%
%TO.N,Net-(J6-Pin_3)*%
X110250000Y-104500000D03*
%TO.P,J6,4,Pin_4*%
%TO.N,Net-(J6-Pin_4)*%
X108250000Y-104500000D03*
%TD*%
D12*
%TO.P,J1,1,Pin_1*%
%TO.N,Net-(J1-Pin_1)*%
X188250000Y-81920000D03*
D13*
%TO.P,J1,2,Pin_2*%
%TO.N,USB_D-*%
X188250000Y-84460000D03*
%TO.P,J1,3,Pin_3*%
%TO.N,USB_D+*%
X188250000Y-87000000D03*
%TO.P,J1,4,Pin_4*%
%TO.N,GNDREF*%
X188250000Y-89540000D03*
%TD*%
D14*
%TO.P,,1*%
%TO.N,N/C*%
X101295039Y-102708969D03*
%TD*%
%TO.P,,1*%
%TO.N,N/C*%
X136000000Y-52250000D03*
%TD*%
%TO.P,,1*%
%TO.N,N/C*%
X196292944Y-102842286D03*
%TD*%
D15*
%TO.P,J4,1,GND*%
%TO.N,GNDREF*%
X109750000Y-51250000D03*
D16*
%TO.P,J4,2,VDD*%
%TO.N,Net-(J4-VDD)*%
X107250000Y-51250000D03*
%TO.P,J4,3,D+*%
%TO.N,NET- D+*%
X104750000Y-51250000D03*
%TO.P,J4,4,D-*%
%TO.N,NET- D-*%
X102250000Y-51250000D03*
%TD*%
D12*
%TO.P,J2,1,Pin_1*%
%TO.N,GNDREF*%
X145170000Y-51500000D03*
D13*
%TO.P,J2,2,Pin_2*%
%TO.N,5V*%
X147710000Y-51500000D03*
%TO.P,J2,3,Pin_3*%
%TO.N,Net-(J2-Pin_3)*%
X150250000Y-51500000D03*
%TO.P,J2,4,Pin_4*%
%TO.N,Net-(J2-Pin_4)*%
X152790000Y-51500000D03*
%TD*%
D17*
%TO.P,J3,1,1*%
%TO.N,Net-(J1-Pin_1)*%
X174485000Y-81700000D03*
%TO.P,J3,2,2*%
%TO.N,USB_PWR*%
X161015000Y-81700000D03*
%TO.P,J3,3,3*%
%TO.N,Net-(J1-Pin_1)*%
X174485000Y-78300000D03*
%TO.P,J3,4,4*%
%TO.N,USB_PWR*%
X161015000Y-78300000D03*
%TD*%
D18*
%TO.N,GNDREF*%
X120650000Y-68250000D03*
X149125000Y-64500000D03*
X183400000Y-100975000D03*
X169000000Y-102325000D03*
X171175000Y-91800000D03*
X128525000Y-65925000D03*
X113775000Y-63075000D03*
X133725000Y-72875000D03*
X183125000Y-78700000D03*
X113875000Y-66475000D03*
X166900000Y-98775000D03*
X149025000Y-79775000D03*
X106525000Y-63775000D03*
X113425000Y-92925000D03*
X179775000Y-78700000D03*
X165325000Y-89050000D03*
X135750000Y-61750000D03*
X131875000Y-75752209D03*
X144350000Y-67600000D03*
X146675000Y-71875000D03*
X133175000Y-88750000D03*
X149075000Y-76275000D03*
X113825000Y-85850000D03*
X146225000Y-61125000D03*
X165025000Y-85250000D03*
X118225000Y-83775000D03*
X115725000Y-85875000D03*
X192925000Y-66625000D03*
X121300000Y-82550000D03*
X188675000Y-98875000D03*
X179950000Y-100925000D03*
X128800000Y-76000000D03*
X107700000Y-68775000D03*
X179925000Y-93275000D03*
X133325000Y-85800000D03*
X106950000Y-80750000D03*
X106875000Y-77775000D03*
X103125000Y-68825000D03*
X99100000Y-57825000D03*
X125000000Y-62000000D03*
X118200000Y-80000000D03*
X104675000Y-69175000D03*
X147375000Y-63973527D03*
X163500000Y-98550000D03*
X105525000Y-76150000D03*
X137475000Y-72700000D03*
X184800000Y-94350000D03*
X131475000Y-79700000D03*
X111025000Y-85900000D03*
%TO.N,USB_PWR*%
X143850000Y-71600000D03*
X145900000Y-80350000D03*
X147974999Y-65011608D03*
X178122502Y-96850000D03*
X115700000Y-70024999D03*
X111300000Y-70300000D03*
X161550000Y-90800000D03*
%TO.N,Net-(D4-K)*%
X156250000Y-54250000D03*
X146375000Y-64125000D03*
%TO.N,Net-(D5-K)*%
X154650000Y-68450000D03*
X150600000Y-68500000D03*
%TO.N,Net-(D6-K)*%
X104250000Y-62000000D03*
X114500000Y-55500000D03*
%TO.N,Net-(D7-K)*%
X121750000Y-53500000D03*
X106250000Y-65750000D03*
%TO.N,Net-(D9-K)*%
X125600000Y-90800000D03*
X130650000Y-102450000D03*
X128250000Y-79900000D03*
%TO.N,USB_D+*%
X178848023Y-100499479D03*
X181875000Y-93050000D03*
%TO.N,USB_D-*%
X178246981Y-101100521D03*
X181025000Y-93050000D03*
%TO.N,Net-(J2-Pin_4)*%
X152750000Y-53500000D03*
X143250000Y-57500000D03*
%TO.N,Net-(J4-VDD)*%
X132700000Y-62650000D03*
%TO.N,Net-(J5-Pin_3)*%
X125100000Y-93250000D03*
X139100000Y-96725000D03*
%TO.N,Net-(J5-Pin_4)*%
X142100000Y-98800000D03*
%TO.N,Net-(U1-LED2)*%
X178700000Y-91400000D03*
X190900000Y-62200000D03*
%TO.N,IMU_USB_D-*%
X170000000Y-97980000D03*
X151599980Y-81800000D03*
%TO.N,MOTORS_USB_D-*%
X112738239Y-70711767D03*
X136550521Y-85499479D03*
%TO.N,S.A.L-D+*%
X149750000Y-90050000D03*
X162550000Y-94150000D03*
%TO.N,S.A.R-D+*%
X154550000Y-91000000D03*
X120750521Y-91399479D03*
%TO.N,MOTORS_USB_D+*%
X114100000Y-71224999D03*
X135949479Y-86100521D03*
%TO.N,S.A.R-D-*%
X155800000Y-92000000D03*
X120149479Y-92000521D03*
%TO.N,IMU_USB_D+*%
X170000000Y-98830000D03*
X152825174Y-83876216D03*
%TO.N,Net-(U3-TXD)*%
X102250000Y-72000000D03*
X105750000Y-72000000D03*
%TO.N,5V*%
X143250000Y-88400000D03*
X148900000Y-94050000D03*
X130850000Y-68627207D03*
%TD*%
D19*
%TO.N,USB_PWR*%
X164350000Y-93600000D02*
X161550000Y-90800000D01*
X178122502Y-96850000D02*
X177750000Y-96850000D01*
X159815000Y-80500000D02*
X161015000Y-81700000D01*
X111300000Y-70300000D02*
X111575001Y-70024999D01*
X174500000Y-93600000D02*
X165250000Y-93600000D01*
X143850000Y-71600000D02*
X147974999Y-67475001D01*
X165250000Y-93600000D02*
X164350000Y-93600000D01*
X177750000Y-96850000D02*
X174500000Y-93600000D01*
X145900000Y-80350000D02*
X146050000Y-80500000D01*
X111575001Y-70024999D02*
X115700000Y-70024999D01*
X147974999Y-67475001D02*
X147974999Y-65011608D01*
X146050000Y-80500000D02*
X159815000Y-80500000D01*
%TO.N,Net-(D4-K)*%
X156250000Y-54250000D02*
X146375000Y-64125000D01*
%TO.N,Net-(D5-K)*%
X150600000Y-68500000D02*
X154600000Y-68500000D01*
X154600000Y-68500000D02*
X154650000Y-68450000D01*
%TO.N,Net-(D6-K)*%
X110750000Y-55500000D02*
X104250000Y-62000000D01*
X114500000Y-55500000D02*
X110750000Y-55500000D01*
%TO.N,Net-(D7-K)*%
X121750000Y-53500000D02*
X109500000Y-65750000D01*
X109500000Y-65750000D02*
X106250000Y-65750000D01*
%TO.N,Net-(D9-K)*%
X128250000Y-88150000D02*
X125600000Y-90800000D01*
X128250000Y-79900000D02*
X128250000Y-88150000D01*
%TO.N,Net-(J1-Pin_1)*%
X174485000Y-81700000D02*
X174485000Y-78300000D01*
X174705000Y-81920000D02*
X174485000Y-81700000D01*
X188250000Y-81920000D02*
X174705000Y-81920000D01*
%TO.N,USB_D+*%
X181675001Y-97672501D02*
X181675001Y-93249999D01*
X178848023Y-100499479D02*
X181675001Y-97672501D01*
X181675001Y-93249999D02*
X181875000Y-93050000D01*
%TO.N,USB_D-*%
X178248023Y-100250950D02*
X178599494Y-99899479D01*
X181224999Y-97486105D02*
X181224999Y-93249999D01*
X178599494Y-99899479D02*
X178811625Y-99899479D01*
X178811625Y-99899479D02*
X181224999Y-97486105D01*
X178246981Y-101100521D02*
X178246981Y-100464123D01*
X181224999Y-93249999D02*
X181025000Y-93050000D01*
X178248023Y-100463081D02*
X178248023Y-100250950D01*
X178246981Y-100464123D02*
X178248023Y-100463081D01*
%TO.N,Net-(J2-Pin_4)*%
X143250000Y-57500000D02*
X148750000Y-57500000D01*
X148750000Y-57500000D02*
X152750000Y-53500000D01*
D20*
%TO.N,Net-(J4-VDD)*%
X112700000Y-54000000D02*
X110000000Y-54000000D01*
X114900000Y-51800000D02*
X112700000Y-54000000D01*
X110000000Y-54000000D02*
X107250000Y-51250000D01*
X127250000Y-51800000D02*
X114900000Y-51800000D01*
X132700000Y-62650000D02*
X132700000Y-57250000D01*
X132700000Y-57250000D02*
X127250000Y-51800000D01*
D19*
%TO.N,Net-(J5-Pin_3)*%
X125100000Y-93250000D02*
X128575000Y-96725000D01*
X128575000Y-96725000D02*
X139100000Y-96725000D01*
%TO.N,Net-(J5-Pin_4)*%
X176750000Y-104500000D02*
X147800000Y-104500000D01*
X147800000Y-104500000D02*
X142100000Y-98800000D01*
%TO.N,Net-(U1-LED2)*%
X189160000Y-83310000D02*
X190900000Y-81570000D01*
X190900000Y-81570000D02*
X190900000Y-62200000D01*
X186790000Y-83310000D02*
X189160000Y-83310000D01*
X178700000Y-91400000D02*
X186790000Y-83310000D01*
%TO.N,IMU_USB_D-*%
X162984917Y-93100020D02*
X168064896Y-98179999D01*
X154009099Y-84140900D02*
X154009100Y-84140900D01*
X154009100Y-84140900D02*
X162968220Y-93100020D01*
X151599980Y-81800000D02*
X151668199Y-81800000D01*
X169800001Y-98179999D02*
X170000000Y-97980000D01*
X151668199Y-81800000D02*
X154009099Y-84140900D01*
X162968220Y-93100020D02*
X162984917Y-93100020D01*
X168064896Y-98179999D02*
X169800001Y-98179999D01*
%TO.N,MOTORS_USB_D-*%
X136267678Y-85499479D02*
X136550521Y-85499479D01*
X112825007Y-70624999D02*
X121393198Y-70624999D01*
X121393198Y-70624999D02*
X136267678Y-85499479D01*
X112738239Y-70711767D02*
X112825007Y-70624999D01*
%TO.N,S.A.L-D+*%
X149750000Y-90050000D02*
X153850000Y-94150000D01*
X153850000Y-94150000D02*
X162550000Y-94150000D01*
%TO.N,S.A.R-D+*%
X150367177Y-89000020D02*
X149315083Y-89000020D01*
X137360000Y-91310520D02*
X137360000Y-90790520D01*
X146764583Y-91550520D02*
X137600000Y-91550520D01*
X149315083Y-89000020D02*
X146764583Y-91550520D01*
X136050000Y-91550520D02*
X120901562Y-91550520D01*
X137120000Y-90550520D02*
X137000000Y-90550520D01*
X136400000Y-91550520D02*
X136050000Y-91550520D01*
X154550000Y-91000000D02*
X152367157Y-91000000D01*
X120901562Y-91550520D02*
X120750521Y-91399479D01*
X136520000Y-91550520D02*
X136400000Y-91550520D01*
X152367157Y-91000000D02*
X150367177Y-89000020D01*
X136760000Y-90790520D02*
X136760000Y-91310520D01*
X137360000Y-90790520D02*
G75*
G03*
X137120000Y-90550500I-240000J20D01*
G01*
X137000000Y-90550520D02*
G75*
G03*
X136760020Y-90790520I0J-239980D01*
G01*
X136760000Y-91310520D02*
G75*
G02*
X136520000Y-91550500I-240000J20D01*
G01*
X137600000Y-91550520D02*
G75*
G02*
X137359980Y-91310520I0J240020D01*
G01*
%TO.N,MOTORS_USB_D+*%
X125515421Y-75383620D02*
X127660937Y-77529136D01*
X124863433Y-75526489D02*
X125091156Y-75298765D01*
X124439169Y-75441637D02*
X124524021Y-75526489D01*
X127660937Y-77529136D02*
X135949479Y-85817678D01*
X121206802Y-71075001D02*
X124666893Y-74535092D01*
X124666893Y-74874503D02*
X124439169Y-75102226D01*
X114249998Y-71075001D02*
X121206802Y-71075001D01*
X135949479Y-85817678D02*
X135949479Y-86100521D01*
X114100000Y-71224999D02*
X114249998Y-71075001D01*
X125430567Y-75298765D02*
X125515421Y-75383620D01*
X124666893Y-74535092D02*
G75*
G02*
X124666896Y-74874506I-169693J-169708D01*
G01*
X124524021Y-75526489D02*
G75*
G03*
X124863433Y-75526489I169706J169704D01*
G01*
X125091156Y-75298765D02*
G75*
G02*
X125430567Y-75298764I169706J-169707D01*
G01*
X124439169Y-75102226D02*
G75*
G03*
X124439200Y-75441606I169731J-169674D01*
G01*
%TO.N,S.A.R-D-*%
X138334144Y-92000521D02*
X139175678Y-92000521D01*
X152968199Y-92000000D02*
X155800000Y-92000000D01*
X149501471Y-89450000D02*
X149998529Y-89450000D01*
X137374144Y-92240521D02*
X137374144Y-92749143D01*
X137614144Y-92989143D02*
X137734144Y-92989143D01*
X137974144Y-92749143D02*
X137974144Y-92240521D01*
X149998529Y-89450000D02*
X152549050Y-92000521D01*
X152967678Y-92000521D02*
X152968199Y-92000000D01*
X120149479Y-92000521D02*
X137134144Y-92000521D01*
X146950950Y-92000521D02*
X149501471Y-89450000D01*
X138214144Y-92000521D02*
X138334144Y-92000521D01*
X152549050Y-92000521D02*
X152967678Y-92000521D01*
X139175678Y-92000521D02*
X146950950Y-92000521D01*
X137734144Y-92989143D02*
G75*
G03*
X137974143Y-92749143I-44J240043D01*
G01*
X137134144Y-92000521D02*
G75*
G02*
X137374079Y-92240521I-44J-239979D01*
G01*
X137374144Y-92749143D02*
G75*
G03*
X137614144Y-92989056I239956J43D01*
G01*
X137974144Y-92240521D02*
G75*
G02*
X138214144Y-92000544I239956J21D01*
G01*
%TO.N,IMU_USB_D+*%
X153108017Y-83876216D02*
X152825174Y-83876216D01*
X162781800Y-93550000D02*
X153690900Y-84459100D01*
X169800001Y-98630001D02*
X167878530Y-98630001D01*
X170000000Y-98830000D02*
X169800001Y-98630001D01*
X153690900Y-84459100D02*
X153690900Y-84459099D01*
X167878530Y-98630001D02*
X162798529Y-93550000D01*
X153690900Y-84459099D02*
X153108017Y-83876216D01*
X162798529Y-93550000D02*
X162781800Y-93550000D01*
%TO.N,Net-(U3-TXD)*%
X105750000Y-72000000D02*
X102250000Y-72000000D01*
D20*
%TO.N,5V*%
X152475000Y-97625000D02*
X158075000Y-103225000D01*
X179475000Y-103225000D02*
X180750000Y-104500000D01*
X152475000Y-97625000D02*
X118170406Y-97625000D01*
X148900000Y-94050000D02*
X152475000Y-97625000D01*
X130850000Y-68627207D02*
X147710000Y-51767207D01*
X147710000Y-51767207D02*
X147710000Y-51500000D01*
X112250000Y-103545406D02*
X112250000Y-104500000D01*
X130850000Y-76000000D02*
X143250000Y-88400000D01*
X158075000Y-103225000D02*
X179475000Y-103225000D01*
X130850000Y-71450000D02*
X130850000Y-76000000D01*
X130850000Y-71450000D02*
X130850000Y-68627207D01*
X118170406Y-97625000D02*
X112250000Y-103545406D01*
%TD*%
M02*
